<svg width="370" height="448" viewBox="0 0 370 448" fill="none" xmlns="http://www.w3.org/2000/svg">
<rect width="370" height="448" fill="white"/>
<rect width="370" height="304" fill="#9B9B9B"/>
<mask id="mask0_0_1" style="mask-type:luminance" maskUnits="userSpaceOnUse" x="0" y="0" width="370" height="304">
<rect width="370" height="304" fill="white"/>
</mask>
<g mask="url(#mask0_0_1)">
</g>
<path d="M33.512 380.56H37.976C39.736 380.56 41.04 380.96 41.888 381.76C42.736 382.544 43.16 383.768 43.16 385.432C43.16 387.912 42.232 389.28 40.376 389.536C41.528 389.808 42.368 390.352 42.896 391.168C43.424 391.968 43.688 393.064 43.688 394.456C43.688 396.2 43.272 397.56 42.44 398.536C41.624 399.512 40.376 400 38.696 400H33.512V380.56ZM37.832 388.672C38.952 388.672 39.728 388.432 40.16 387.952C40.592 387.456 40.808 386.616 40.808 385.432C40.808 384.568 40.672 383.936 40.4 383.536C40.144 383.12 39.752 382.856 39.224 382.744C38.696 382.632 37.912 382.576 36.872 382.576H36.224V388.672H37.832ZM38.048 398.056C38.848 398.056 39.464 397.936 39.896 397.696C40.344 397.44 40.656 397.056 40.832 396.544C41.008 396.032 41.096 395.336 41.096 394.456C41.096 393.208 40.84 392.28 40.328 391.672C39.816 391.048 38.984 390.736 37.832 390.736H36.224V398.056H38.048ZM46.0499 381.376H48.6179V384.064H46.0499V381.376ZM46.0499 386.128H48.6179V400H46.0499V386.128ZM54.5823 400.192C53.4623 400.192 52.5503 399.84 51.8463 399.136C51.1583 398.432 50.7663 397.488 50.6703 396.304L52.8063 395.656C52.9343 396.552 53.1503 397.216 53.4543 397.648C53.7743 398.08 54.2223 398.296 54.7983 398.296C55.2463 398.296 55.5903 398.168 55.8303 397.912C56.0863 397.64 56.2143 397.28 56.2143 396.832C56.2143 396.432 56.1263 396.072 55.9503 395.752C55.7743 395.432 55.4863 395.104 55.0863 394.768L52.7103 392.728C52.1663 392.264 51.7423 391.776 51.4383 391.264C51.1503 390.736 51.0063 390.096 51.0063 389.344C51.0063 388.272 51.3263 387.44 51.9663 386.848C52.6063 386.24 53.4783 385.936 54.5823 385.936C55.6383 385.936 56.4623 386.28 57.0543 386.968C57.6623 387.64 58.0143 388.512 58.1103 389.584L56.3823 390.232C56.2703 389.448 56.0863 388.856 55.8303 388.456C55.5743 388.04 55.1903 387.832 54.6783 387.832C54.2623 387.832 53.9263 387.968 53.6703 388.24C53.4303 388.512 53.3103 388.848 53.3103 389.248C53.3103 389.76 53.5423 390.224 54.0063 390.64L56.4543 392.896C57.0783 393.472 57.5583 394.04 57.8943 394.6C58.2463 395.16 58.4223 395.84 58.4223 396.64C58.4223 397.792 58.0783 398.672 57.3903 399.28C56.7023 399.888 55.7663 400.192 54.5823 400.192ZM64.1349 400.192C63.0469 400.192 62.2069 399.976 61.6149 399.544C61.0229 399.096 60.6149 398.48 60.3909 397.696C60.1829 396.896 60.0789 395.888 60.0789 394.672V391.48C60.0789 390.232 60.1829 389.208 60.3909 388.408C60.6149 387.608 61.0229 387 61.6149 386.584C62.2069 386.152 63.0469 385.936 64.1349 385.936C65.1269 385.936 65.8949 386.096 66.4389 386.416C66.9989 386.736 67.3829 387.216 67.5909 387.856C67.8149 388.48 67.9269 389.296 67.9269 390.304V391.12H65.5989V390.28C65.5989 389.368 65.4949 388.736 65.2869 388.384C65.0949 388.016 64.7189 387.832 64.1589 387.832C63.7269 387.832 63.4069 387.928 63.1989 388.12C62.9909 388.312 62.8469 388.624 62.7669 389.056C62.6869 389.488 62.6469 390.12 62.6469 390.952V395.32C62.6469 396.12 62.6949 396.736 62.7909 397.168C62.8869 397.584 63.0389 397.88 63.2469 398.056C63.4709 398.216 63.7829 398.296 64.1829 398.296C64.7749 398.296 65.1589 398.104 65.3349 397.72C65.5109 397.32 65.5989 396.712 65.5989 395.896V394.768H67.9269V395.728C67.9269 397.232 67.6469 398.352 67.0869 399.088C66.5429 399.824 65.5589 400.192 64.1349 400.192ZM72.2021 400.192C71.4501 400.192 70.9141 399.92 70.5941 399.376C70.2741 398.832 70.1141 398.16 70.1141 397.36V386.128H72.6821V396.592C72.6821 397.12 72.7621 397.52 72.9221 397.792C73.0821 398.048 73.3701 398.176 73.7861 398.176C74.2981 398.176 74.8981 397.888 75.5861 397.312V386.128H78.1541V400H75.5861V398.632C74.4821 399.672 73.3541 400.192 72.2021 400.192ZM80.9484 381.376H83.5164V384.064H80.9484V381.376ZM80.9484 386.128H83.5164V400H80.9484V386.128ZM89.9608 400.192C87.9608 400.192 86.9608 399.088 86.9608 396.88V387.832H85.4968V386.128H86.9608V382.072H89.5288V386.128H91.7608V387.832H89.5288V396.712C89.5288 397.272 89.6168 397.664 89.7928 397.888C89.9688 398.112 90.3048 398.224 90.8008 398.224C91.1208 398.224 91.4328 398.2 91.7368 398.152V400.048C91.0968 400.144 90.5048 400.192 89.9608 400.192ZM96.8636 400.192C95.7436 400.192 94.8316 399.84 94.1276 399.136C93.4396 398.432 93.0476 397.488 92.9516 396.304L95.0876 395.656C95.2156 396.552 95.4316 397.216 95.7356 397.648C96.0556 398.08 96.5036 398.296 97.0796 398.296C97.5276 398.296 97.8716 398.168 98.1116 397.912C98.3676 397.64 98.4956 397.28 98.4956 396.832C98.4956 396.432 98.4076 396.072 98.2316 395.752C98.0556 395.432 97.7676 395.104 97.3676 394.768L94.9916 392.728C94.4476 392.264 94.0236 391.776 93.7196 391.264C93.4316 390.736 93.2876 390.096 93.2876 389.344C93.2876 388.272 93.6076 387.44 94.2476 386.848C94.8876 386.24 95.7596 385.936 96.8636 385.936C97.9196 385.936 98.7436 386.28 99.3356 386.968C99.9436 387.64 100.296 388.512 100.392 389.584L98.6636 390.232C98.5516 389.448 98.3676 388.856 98.1116 388.456C97.8556 388.04 97.4716 387.832 96.9596 387.832C96.5436 387.832 96.2076 387.968 95.9516 388.24C95.7116 388.512 95.5916 388.848 95.5916 389.248C95.5916 389.76 95.8236 390.224 96.2876 390.64L98.7356 392.896C99.3596 393.472 99.8396 394.04 100.176 394.6C100.528 395.16 100.704 395.84 100.704 396.64C100.704 397.792 100.36 398.672 99.6716 399.28C98.9836 399.888 98.0476 400.192 96.8636 400.192Z" fill="#171B1B"/>
<path d="M295.578 401.285C294.432 401.012 293.247 400.53 292.023 399.84V401.207H286.945V392.77H292.023C292.31 393.993 292.902 394.951 293.801 395.641C294.699 396.331 295.708 396.676 296.828 396.676C297.596 396.676 298.156 396.533 298.508 396.246C298.872 395.947 299.055 395.628 299.055 395.289C299.055 394.729 298.749 394.293 298.137 393.98C297.525 393.668 296.763 393.388 295.852 393.141C294.953 392.893 293.97 392.62 292.902 392.32C291.835 392.021 290.845 391.585 289.934 391.012C289.035 390.439 288.273 389.69 287.648 388.766C287.036 387.828 286.73 386.598 286.73 385.074C286.73 383.954 286.971 382.971 287.453 382.125C287.935 381.266 288.579 380.543 289.387 379.957C290.207 379.371 291.151 378.922 292.219 378.609C293.286 378.284 294.406 378.121 295.578 378.121V374.84H299.543V378.609C300.181 378.792 300.754 379 301.262 379.234C301.77 379.456 302.193 379.671 302.531 379.879V378.473H307.668V386.715H302.531C302.453 386.181 302.264 385.693 301.965 385.25C301.678 384.794 301.327 384.41 300.91 384.098C300.507 383.772 300.051 383.518 299.543 383.336C299.035 383.141 298.527 383.043 298.02 383.043C297.382 383.043 296.854 383.167 296.438 383.414C296.021 383.648 295.812 383.993 295.812 384.449C295.812 385.009 296.125 385.439 296.75 385.738C297.388 386.025 298.163 386.298 299.074 386.559C299.999 386.806 301.008 387.086 302.102 387.398C303.195 387.698 304.198 388.134 305.109 388.707C306.034 389.28 306.809 390.048 307.434 391.012C308.059 391.962 308.371 393.212 308.371 394.762C308.371 395.908 308.13 396.904 307.648 397.75C307.18 398.583 306.535 399.28 305.715 399.84C304.908 400.4 303.97 400.823 302.902 401.109C301.835 401.383 300.715 401.546 299.543 401.598V404.801H295.578V401.285ZM316.73 398.883C316.991 398.557 317.336 398.206 317.766 397.828C318.195 397.438 318.69 397.079 319.25 396.754C319.81 396.415 320.441 396.135 321.145 395.914C321.848 395.68 322.616 395.562 323.449 395.562C324.296 395.562 325.012 395.608 325.598 395.699C326.184 395.79 326.717 395.888 327.199 395.992C327.681 396.083 328.137 396.174 328.566 396.266C328.996 396.357 329.471 396.402 329.992 396.402C330.982 396.402 331.757 396.188 332.316 395.758C332.876 395.328 333.156 394.527 333.156 393.355H337.004C337.004 395.842 336.77 397.822 336.301 399.293C335.832 400.751 335.188 401.865 334.367 402.633C333.56 403.388 332.596 403.87 331.477 404.078C330.357 404.286 329.159 404.391 327.883 404.391C326.867 404.391 325.884 404.293 324.934 404.098C323.996 403.902 323.091 403.694 322.219 403.473C321.359 403.238 320.533 403.023 319.738 402.828C318.957 402.62 318.221 402.516 317.531 402.516C316.932 402.516 316.457 402.6 316.105 402.77C315.767 402.926 315.493 403.095 315.285 403.277C315.038 403.499 314.849 403.74 314.719 404H310.246C310.246 402.047 310.461 400.361 310.891 398.941C311.333 397.509 311.913 396.266 312.629 395.211C313.358 394.143 314.185 393.232 315.109 392.477C316.047 391.708 316.997 391.038 317.961 390.465C318.924 389.892 319.868 389.378 320.793 388.922C321.73 388.466 322.557 387.997 323.273 387.516C324.003 387.034 324.582 386.513 325.012 385.953C325.454 385.393 325.676 384.729 325.676 383.961C325.676 382.815 325.227 381.962 324.328 381.402C323.443 380.842 322.375 380.562 321.125 380.562C320.24 380.562 319.445 380.628 318.742 380.758C318.039 380.888 317.368 381.116 316.73 381.441C317.525 381.676 318.215 382.053 318.801 382.574C319.387 383.095 319.68 383.863 319.68 384.879C319.68 385.335 319.576 385.777 319.367 386.207C319.172 386.624 318.879 387.008 318.488 387.359C318.111 387.711 317.629 387.984 317.043 388.18C316.457 388.375 315.793 388.473 315.051 388.473C314.491 388.473 313.911 388.382 313.312 388.199C312.727 388.017 312.193 387.724 311.711 387.32C311.242 386.917 310.852 386.389 310.539 385.738C310.24 385.087 310.09 384.293 310.09 383.355C310.09 382.105 310.422 380.96 311.086 379.918C311.75 378.876 312.681 377.978 313.879 377.223C315.077 376.454 316.516 375.868 318.195 375.465C319.875 375.048 321.717 374.84 323.723 374.84C325.858 374.84 327.74 375.068 329.367 375.523C330.995 375.979 332.362 376.611 333.469 377.418C334.576 378.212 335.409 379.143 335.969 380.211C336.529 381.266 336.809 382.398 336.809 383.609C336.809 385.068 336.574 386.285 336.105 387.262C335.637 388.238 334.999 389.046 334.191 389.684C333.397 390.322 332.479 390.849 331.438 391.266C330.396 391.669 329.302 392.027 328.156 392.34C327.01 392.652 325.852 392.965 324.68 393.277C323.508 393.577 322.395 393.961 321.34 394.43C320.285 394.885 319.322 395.458 318.449 396.148C317.59 396.826 316.906 397.698 316.398 398.766L316.73 398.883Z" fill="#171B1B"/>
<path d="M36.064 352.144C34.976 352.144 34.144 351.808 33.568 351.136C33.0027 350.464 32.688 349.541 32.624 348.368L34.224 347.936C34.2773 348.768 34.4373 349.44 34.704 349.952C34.9813 350.464 35.4347 350.72 36.064 350.72C36.5333 350.72 36.8853 350.592 37.12 350.336C37.3653 350.069 37.488 349.691 37.488 349.2C37.488 348.667 37.376 348.224 37.152 347.872C36.928 347.52 36.5707 347.131 36.08 346.704L33.904 344.784C33.4667 344.4 33.1467 343.989 32.944 343.552C32.752 343.104 32.656 342.56 32.656 341.92C32.656 340.971 32.928 340.235 33.472 339.712C34.016 339.189 34.7573 338.928 35.696 338.928C36.72 338.928 37.4933 339.2 38.016 339.744C38.5387 340.288 38.8533 341.131 38.96 342.272L37.424 342.688C37.3707 341.931 37.2213 341.349 36.976 340.944C36.7413 340.528 36.3147 340.32 35.696 340.32C35.2373 340.32 34.8853 340.443 34.64 340.688C34.3947 340.923 34.272 341.275 34.272 341.744C34.272 342.128 34.336 342.453 34.464 342.72C34.592 342.976 34.8107 343.237 35.12 343.504L37.312 345.424C37.8773 345.925 38.3253 346.469 38.656 347.056C38.9973 347.643 39.168 348.309 39.168 349.056C39.168 350.005 38.88 350.757 38.304 351.312C37.728 351.867 36.9813 352.144 36.064 352.144ZM43.1385 339.04H44.6425L46.0345 348.352L47.7785 339.088H49.0585L50.8185 348.4L52.1785 339.04H53.6505L51.5705 352H50.2585L48.4505 342.4L46.6265 352H45.2505L43.1385 339.04ZM58.2268 339.04H63.2508V340.384H60.0348V344.672H62.6428V345.952H60.0348V350.704H63.2828V352H58.2268V339.04ZM67.7424 339.04H72.7664V340.384H69.5504V344.672H72.1584V345.952H69.5504V350.704H72.7984V352H67.7424V339.04ZM78.682 340.384H76.49V339.04H82.618V340.384H80.49V352H78.682V340.384Z" fill="#171B1B"/>
</svg>
