<svg width="370" height="448" viewBox="0 0 370 448" fill="none" xmlns="http://www.w3.org/2000/svg">
<rect width="370" height="448" fill="white"/>
<rect width="370" height="304" fill="#9B9B9B"/>
<mask id="mask0_0_1" style="mask-type:luminance" maskUnits="userSpaceOnUse" x="0" y="0" width="370" height="304">
<rect width="370" height="304" fill="white"/>
</mask>
<g mask="url(#mask0_0_1)">
</g>
<path d="M38.384 400.216C36.464 400.216 35.112 399.648 34.328 398.512C33.544 397.36 33.152 395.776 33.152 393.76V386.896C33.152 384.768 33.536 383.152 34.304 382.048C35.072 380.944 36.432 380.392 38.384 380.392C40.128 380.392 41.376 380.864 42.128 381.808C42.896 382.752 43.28 384.144 43.28 385.984V387.52H40.712V386.152C40.712 385.256 40.672 384.568 40.592 384.088C40.512 383.608 40.304 383.224 39.968 382.936C39.648 382.648 39.128 382.504 38.408 382.504C37.672 382.504 37.12 382.664 36.752 382.984C36.4 383.288 36.168 383.72 36.056 384.28C35.944 384.824 35.888 385.56 35.888 386.488V394.192C35.888 395.184 35.968 395.96 36.128 396.52C36.288 397.08 36.544 397.48 36.896 397.72C37.264 397.96 37.768 398.08 38.408 398.08C39.096 398.08 39.608 397.928 39.944 397.624C40.28 397.32 40.488 396.904 40.568 396.376C40.664 395.848 40.712 395.128 40.712 394.216V392.776H43.28V394.216C43.28 396.152 42.912 397.64 42.176 398.68C41.456 399.704 40.192 400.216 38.384 400.216ZM47.6396 400.192C46.8876 400.192 46.3516 399.92 46.0316 399.376C45.7116 398.832 45.5516 398.16 45.5516 397.36V386.128H48.1196V396.592C48.1196 397.12 48.1996 397.52 48.3596 397.792C48.5196 398.048 48.8076 398.176 49.2236 398.176C49.7356 398.176 50.3356 397.888 51.0236 397.312V386.128H53.5916V400H51.0236V398.632C49.9196 399.672 48.7916 400.192 47.6396 400.192ZM56.2179 386.128H58.7859V387.232C59.5379 386.368 60.4179 385.936 61.4259 385.936C62.6899 385.936 63.5299 386.48 63.9459 387.568C64.3779 388.64 64.5939 389.832 64.5939 391.144V394.504C64.5939 396.2 64.3299 397.576 63.8019 398.632C63.2899 399.672 62.4019 400.192 61.1379 400.192C60.3219 400.192 59.5379 399.784 58.7859 398.968V404.56H56.2179V386.128ZM60.6339 398.176C61.2259 398.176 61.6019 397.88 61.7619 397.288C61.9379 396.68 62.0259 395.752 62.0259 394.504V391.144C62.0259 390.12 61.9299 389.336 61.7379 388.792C61.5459 388.232 61.1459 387.952 60.5379 387.952C59.9459 387.952 59.3619 388.192 58.7859 388.672V397.552C59.3459 397.968 59.9619 398.176 60.6339 398.176ZM70.7208 400.192C69.6328 400.192 68.7928 399.976 68.2008 399.544C67.6088 399.096 67.2008 398.48 66.9768 397.696C66.7688 396.896 66.6648 395.888 66.6648 394.672V391.48C66.6648 390.232 66.7688 389.208 66.9768 388.408C67.2008 387.608 67.6088 387 68.2008 386.584C68.7928 386.152 69.6328 385.936 70.7208 385.936C71.7128 385.936 72.4808 386.096 73.0248 386.416C73.5848 386.736 73.9688 387.216 74.1768 387.856C74.4008 388.48 74.5128 389.296 74.5128 390.304V391.12H72.1848V390.28C72.1848 389.368 72.0808 388.736 71.8728 388.384C71.6808 388.016 71.3048 387.832 70.7448 387.832C70.3128 387.832 69.9928 387.928 69.7848 388.12C69.5768 388.312 69.4328 388.624 69.3528 389.056C69.2728 389.488 69.2328 390.12 69.2328 390.952V395.32C69.2328 396.12 69.2808 396.736 69.3768 397.168C69.4728 397.584 69.6248 397.88 69.8328 398.056C70.0568 398.216 70.3688 398.296 70.7688 398.296C71.3608 398.296 71.7448 398.104 71.9208 397.72C72.0968 397.32 72.1848 396.712 72.1848 395.896V394.768H74.5128V395.728C74.5128 397.232 74.2328 398.352 73.6728 399.088C73.1288 399.824 72.1448 400.192 70.7208 400.192ZM79.292 400.192C78.764 400.192 78.284 400.04 77.852 399.736C77.436 399.432 77.108 399.032 76.868 398.536C76.628 398.04 76.508 397.52 76.508 396.976C76.508 395.888 76.74 395.008 77.204 394.336C77.668 393.648 78.26 393.104 78.98 392.704C79.7 392.304 80.7 391.848 81.98 391.336V390.352C81.98 389.44 81.884 388.8 81.692 388.432C81.516 388.048 81.148 387.856 80.588 387.856C79.612 387.856 79.124 388.512 79.124 389.824V390.52L76.58 390.424C76.612 388.888 76.964 387.76 77.636 387.04C78.308 386.304 79.348 385.936 80.756 385.936C82.084 385.936 83.044 386.304 83.636 387.04C84.244 387.76 84.548 388.856 84.548 390.328V396.664C84.548 397.704 84.628 398.816 84.788 400H82.436C82.26 399.088 82.148 398.408 82.1 397.96C81.908 398.584 81.572 399.112 81.092 399.544C80.628 399.976 80.028 400.192 79.292 400.192ZM80.3 397.984C80.636 397.984 80.964 397.856 81.284 397.6C81.604 397.328 81.836 397.072 81.98 396.832V392.896C81.292 393.28 80.756 393.616 80.372 393.904C80.004 394.176 79.692 394.496 79.436 394.864C79.196 395.232 79.076 395.672 79.076 396.184C79.076 396.76 79.18 397.208 79.388 397.528C79.596 397.832 79.9 397.984 80.3 397.984ZM87.0628 380.536H89.6308V392.128L93.3748 386.128H96.0628L92.7988 391.552L95.9668 400H93.3988L90.8068 392.896L89.6308 394.672V399.976H87.0628V380.536ZM101.144 400.192C100.072 400.192 99.2398 399.992 98.6478 399.592C98.0558 399.176 97.6398 398.568 97.3998 397.768C97.1598 396.968 97.0398 395.928 97.0398 394.648V391.48C97.0398 389.56 97.3358 388.16 97.9278 387.28C98.5358 386.384 99.6078 385.936 101.144 385.936C102.264 385.936 103.104 386.168 103.664 386.632C104.24 387.096 104.616 387.752 104.792 388.6C104.984 389.432 105.08 390.56 105.08 391.984V393.112H99.6078V395.896C99.6078 396.744 99.7278 397.36 99.9678 397.744C100.224 398.112 100.624 398.296 101.168 398.296C101.712 398.296 102.08 398.112 102.272 397.744C102.464 397.36 102.56 396.784 102.56 396.016V395.176H105.056V395.704C105.056 397.16 104.744 398.272 104.12 399.04C103.496 399.808 102.504 400.192 101.144 400.192ZM102.56 391.72V390.472C102.56 389.528 102.464 388.856 102.272 388.456C102.096 388.04 101.712 387.832 101.12 387.832C100.704 387.832 100.384 387.928 100.16 388.12C99.9518 388.312 99.8078 388.632 99.7278 389.08C99.6478 389.512 99.6078 390.144 99.6078 390.976V391.72H102.56Z" fill="#171B1B"/>
<path d="M293.898 401.285C292.753 401.012 291.568 400.53 290.344 399.84V401.207H285.266V392.77H290.344C290.63 393.993 291.223 394.951 292.121 395.641C293.02 396.331 294.029 396.676 295.148 396.676C295.917 396.676 296.477 396.533 296.828 396.246C297.193 395.947 297.375 395.628 297.375 395.289C297.375 394.729 297.069 394.293 296.457 393.98C295.845 393.668 295.083 393.388 294.172 393.141C293.273 392.893 292.29 392.62 291.223 392.32C290.155 392.021 289.165 391.585 288.254 391.012C287.355 390.439 286.594 389.69 285.969 388.766C285.357 387.828 285.051 386.598 285.051 385.074C285.051 383.954 285.292 382.971 285.773 382.125C286.255 381.266 286.9 380.543 287.707 379.957C288.527 379.371 289.471 378.922 290.539 378.609C291.607 378.284 292.727 378.121 293.898 378.121V374.84H297.863V378.609C298.501 378.792 299.074 379 299.582 379.234C300.09 379.456 300.513 379.671 300.852 379.879V378.473H305.988V386.715H300.852C300.773 386.181 300.585 385.693 300.285 385.25C299.999 384.794 299.647 384.41 299.23 384.098C298.827 383.772 298.371 383.518 297.863 383.336C297.355 383.141 296.848 383.043 296.34 383.043C295.702 383.043 295.174 383.167 294.758 383.414C294.341 383.648 294.133 383.993 294.133 384.449C294.133 385.009 294.445 385.439 295.07 385.738C295.708 386.025 296.483 386.298 297.395 386.559C298.319 386.806 299.328 387.086 300.422 387.398C301.516 387.698 302.518 388.134 303.43 388.707C304.354 389.28 305.129 390.048 305.754 391.012C306.379 391.962 306.691 393.212 306.691 394.762C306.691 395.908 306.451 396.904 305.969 397.75C305.5 398.583 304.855 399.28 304.035 399.84C303.228 400.4 302.29 400.823 301.223 401.109C300.155 401.383 299.035 401.546 297.863 401.598V404.801H293.898V401.285ZM320.852 380.523C319.51 380.523 318.514 380.673 317.863 380.973C317.212 381.259 316.724 381.533 316.398 381.793C316.672 381.819 316.971 381.891 317.297 382.008C317.635 382.112 317.941 382.275 318.215 382.496C318.501 382.704 318.736 382.997 318.918 383.375C319.113 383.74 319.211 384.202 319.211 384.762C319.211 385.803 318.833 386.637 318.078 387.262C317.336 387.887 316.242 388.199 314.797 388.199C314.107 388.199 313.449 388.095 312.824 387.887C312.199 387.665 311.646 387.34 311.164 386.91C310.682 386.467 310.298 385.927 310.012 385.289C309.738 384.638 309.602 383.876 309.602 383.004C309.602 381.78 309.908 380.667 310.52 379.664C311.132 378.661 312.01 377.802 313.156 377.086C314.302 376.357 315.689 375.803 317.316 375.426C318.944 375.035 320.773 374.84 322.805 374.84C324.484 374.84 326.138 374.97 327.766 375.23C329.393 375.478 330.839 375.908 332.102 376.52C333.365 377.132 334.38 377.939 335.148 378.941C335.93 379.944 336.32 381.174 336.32 382.633C336.32 384.456 335.78 385.921 334.699 387.027C333.618 388.134 331.984 388.87 329.797 389.234V389.449C331.984 389.71 333.749 390.419 335.09 391.578C336.444 392.737 337.121 394.41 337.121 396.598C337.121 397.535 336.874 398.492 336.379 399.469C335.884 400.432 335.07 401.311 333.938 402.105C332.805 402.887 331.32 403.531 329.484 404.039C327.648 404.547 325.396 404.801 322.727 404.801C320.188 404.801 318.033 404.534 316.262 404C314.491 403.466 313.052 402.783 311.945 401.949C310.839 401.103 310.038 400.146 309.543 399.078C309.048 398.01 308.801 396.93 308.801 395.836C308.801 394.964 308.931 394.182 309.191 393.492C309.465 392.789 309.836 392.203 310.305 391.734C310.773 391.266 311.32 390.914 311.945 390.68C312.57 390.445 313.228 390.328 313.918 390.328C314.803 390.328 315.546 390.445 316.145 390.68C316.743 390.914 317.219 391.214 317.57 391.578C317.935 391.943 318.195 392.346 318.352 392.789C318.521 393.219 318.605 393.635 318.605 394.039C318.605 395.133 318.273 395.973 317.609 396.559C316.958 397.145 316.236 397.561 315.441 397.809C316.743 398.603 318.501 399 320.715 399C322.538 399 323.872 398.655 324.719 397.965C325.578 397.275 326.008 396.285 326.008 394.996C326.008 394.358 325.878 393.811 325.617 393.355C325.37 392.9 325.038 392.535 324.621 392.262C324.204 391.975 323.729 391.767 323.195 391.637C322.661 391.507 322.128 391.441 321.594 391.441H320.207V387.203H321.594C322.883 387.203 323.846 386.884 324.484 386.246C325.122 385.608 325.441 384.859 325.441 384C325.441 383.336 325.311 382.776 325.051 382.32C324.803 381.865 324.471 381.507 324.055 381.246C323.651 380.973 323.169 380.784 322.609 380.68C322.049 380.576 321.464 380.523 320.852 380.523Z" fill="#171B1B"/>
<path d="M33.008 339.04H36.224C37.344 339.04 38.1547 339.344 38.656 339.952C39.168 340.56 39.424 341.451 39.424 342.624C39.424 343.68 39.152 344.501 38.608 345.088C38.064 345.675 37.2747 345.968 36.24 345.968H34.816V352H33.008V339.04ZM35.648 344.672C36.1813 344.672 36.592 344.613 36.88 344.496C37.1787 344.379 37.392 344.176 37.52 343.888C37.648 343.6 37.712 343.184 37.712 342.64C37.712 341.979 37.664 341.493 37.568 341.184C37.472 340.875 37.28 340.656 36.992 340.528C36.7147 340.4 36.272 340.336 35.664 340.336H34.816V344.672H35.648ZM45.1341 339.04H46.8781L49.6461 352H47.9341L47.3421 348.736H44.7021L44.0781 352H42.3821L45.1341 339.04ZM47.1021 347.44L46.0141 341.6L44.9421 347.44H47.1021ZM57.0171 352.144C55.9291 352.144 55.0971 351.808 54.5211 351.136C53.9558 350.464 53.6411 349.541 53.5771 348.368L55.1771 347.936C55.2305 348.768 55.3905 349.44 55.6571 349.952C55.9345 350.464 56.3878 350.72 57.0171 350.72C57.4865 350.72 57.8385 350.592 58.0731 350.336C58.3185 350.069 58.4411 349.691 58.4411 349.2C58.4411 348.667 58.3291 348.224 58.1051 347.872C57.8811 347.52 57.5238 347.131 57.0331 346.704L54.8571 344.784C54.4198 344.4 54.0998 343.989 53.8971 343.552C53.7051 343.104 53.6091 342.56 53.6091 341.92C53.6091 340.971 53.8811 340.235 54.4251 339.712C54.9691 339.189 55.7105 338.928 56.6491 338.928C57.6731 338.928 58.4465 339.2 58.9691 339.744C59.4918 340.288 59.8065 341.131 59.9131 342.272L58.3771 342.688C58.3238 341.931 58.1745 341.349 57.9291 340.944C57.6945 340.528 57.2678 340.32 56.6491 340.32C56.1905 340.32 55.8385 340.443 55.5931 340.688C55.3478 340.923 55.2251 341.275 55.2251 341.744C55.2251 342.128 55.2891 342.453 55.4171 342.72C55.5451 342.976 55.7638 343.237 56.0731 343.504L58.2651 345.424C58.8305 345.925 59.2785 346.469 59.6091 347.056C59.9505 347.643 60.1211 348.309 60.1211 349.056C60.1211 350.005 59.8331 350.757 59.2571 351.312C58.6811 351.867 57.9345 352.144 57.0171 352.144ZM65.9476 340.384H63.7556V339.04H69.8836V340.384H67.7556V352H65.9476V340.384ZM74.133 339.04H76.741C78.053 339.04 79.013 339.312 79.621 339.856C80.2397 340.389 80.549 341.264 80.549 342.48C80.549 344.144 80.0157 345.152 78.949 345.504L80.789 352H79.045L77.349 345.92H75.941V352H74.133V339.04ZM76.629 344.624C77.4077 344.624 77.9623 344.469 78.293 344.16C78.6343 343.851 78.805 343.291 78.805 342.48C78.805 341.947 78.7463 341.531 78.629 341.232C78.5117 340.923 78.3037 340.699 78.005 340.56C77.7063 340.411 77.285 340.336 76.741 340.336H75.941V344.624H76.629ZM87.4139 347.424L84.6139 339.04H86.2939L88.2779 345.296L90.2299 339.04H91.9259L89.1419 347.424V352H87.4139V347.424Z" fill="#171B1B"/>
</svg>
