<svg width="370" height="448" viewBox="0 0 370 448" fill="none" xmlns="http://www.w3.org/2000/svg">
<rect width="370" height="448" fill="white"/>
<rect width="370" height="304" fill="#BBBBBB"/>
<mask id="mask0_0_1" style="mask-type:luminance" maskUnits="userSpaceOnUse" x="0" y="0" width="370" height="304">
<rect width="370" height="304" fill="white"/>
</mask>
<g mask="url(#mask0_0_1)">
</g>
<path d="M33.512 380.56H37.976C39.736 380.56 41.04 380.96 41.888 381.76C42.736 382.544 43.16 383.768 43.16 385.432C43.16 387.912 42.232 389.28 40.376 389.536C41.528 389.808 42.368 390.352 42.896 391.168C43.424 391.968 43.688 393.064 43.688 394.456C43.688 396.2 43.272 397.56 42.44 398.536C41.624 399.512 40.376 400 38.696 400H33.512V380.56ZM37.832 388.672C38.952 388.672 39.728 388.432 40.16 387.952C40.592 387.456 40.808 386.616 40.808 385.432C40.808 384.568 40.672 383.936 40.4 383.536C40.144 383.12 39.752 382.856 39.224 382.744C38.696 382.632 37.912 382.576 36.872 382.576H36.224V388.672H37.832ZM38.048 398.056C38.848 398.056 39.464 397.936 39.896 397.696C40.344 397.44 40.656 397.056 40.832 396.544C41.008 396.032 41.096 395.336 41.096 394.456C41.096 393.208 40.84 392.28 40.328 391.672C39.816 391.048 38.984 390.736 37.832 390.736H36.224V398.056H38.048ZM45.9539 386.128H48.5219V388.096C49.0019 387.312 49.4899 386.76 49.9859 386.44C50.4979 386.12 51.0339 385.96 51.5939 385.96C51.7379 385.96 51.8739 385.968 52.0019 385.984V388.816C51.4899 388.624 51.0179 388.528 50.5859 388.528C50.1699 388.528 49.7939 388.632 49.4579 388.84C49.1379 389.032 48.8259 389.376 48.5219 389.872V400H45.9539V386.128ZM57.4329 400.192C56.3609 400.192 55.5289 399.992 54.9369 399.592C54.3449 399.176 53.9289 398.568 53.6889 397.768C53.4489 396.968 53.3289 395.928 53.3289 394.648V391.48C53.3289 389.56 53.6249 388.16 54.2169 387.28C54.8249 386.384 55.8969 385.936 57.4329 385.936C58.5529 385.936 59.3929 386.168 59.9529 386.632C60.5289 387.096 60.9049 387.752 61.0809 388.6C61.2729 389.432 61.3689 390.56 61.3689 391.984V393.112H55.8969V395.896C55.8969 396.744 56.0169 397.36 56.2569 397.744C56.5129 398.112 56.9129 398.296 57.4569 398.296C58.0009 398.296 58.3689 398.112 58.5609 397.744C58.7529 397.36 58.8489 396.784 58.8489 396.016V395.176H61.3449V395.704C61.3449 397.16 61.0329 398.272 60.4089 399.04C59.7849 399.808 58.7929 400.192 57.4329 400.192ZM58.8489 391.72V390.472C58.8489 389.528 58.7529 388.856 58.5609 388.456C58.3849 388.04 58.0009 387.832 57.4089 387.832C56.9929 387.832 56.6729 387.928 56.4489 388.12C56.2409 388.312 56.0969 388.632 56.0169 389.08C55.9369 389.512 55.8969 390.144 55.8969 390.976V391.72H58.8489ZM66.1904 400.192C65.6624 400.192 65.1824 400.04 64.7504 399.736C64.3344 399.432 64.0064 399.032 63.7664 398.536C63.5264 398.04 63.4064 397.52 63.4064 396.976C63.4064 395.888 63.6384 395.008 64.1024 394.336C64.5664 393.648 65.1584 393.104 65.8784 392.704C66.5984 392.304 67.5984 391.848 68.8784 391.336V390.352C68.8784 389.44 68.7824 388.8 68.5904 388.432C68.4144 388.048 68.0464 387.856 67.4864 387.856C66.5104 387.856 66.0224 388.512 66.0224 389.824V390.52L63.4784 390.424C63.5104 388.888 63.8624 387.76 64.5344 387.04C65.2064 386.304 66.2464 385.936 67.6544 385.936C68.9824 385.936 69.9424 386.304 70.5344 387.04C71.1424 387.76 71.4464 388.856 71.4464 390.328V396.664C71.4464 397.704 71.5264 398.816 71.6864 400H69.3344C69.1584 399.088 69.0464 398.408 68.9984 397.96C68.8064 398.584 68.4704 399.112 67.9904 399.544C67.5264 399.976 66.9264 400.192 66.1904 400.192ZM67.1984 397.984C67.5344 397.984 67.8624 397.856 68.1824 397.6C68.5024 397.328 68.7344 397.072 68.8784 396.832V392.896C68.1904 393.28 67.6544 393.616 67.2704 393.904C66.9024 394.176 66.5904 394.496 66.3344 394.864C66.0944 395.232 65.9744 395.672 65.9744 396.184C65.9744 396.76 66.0784 397.208 66.2864 397.528C66.4944 397.832 66.7984 397.984 67.1984 397.984ZM77.1292 400.192C75.9292 400.192 75.0492 399.76 74.4892 398.896C73.9292 398.016 73.6492 396.568 73.6492 394.552V391.864C73.6492 390.024 73.8892 388.576 74.3692 387.52C74.8652 386.464 75.7612 385.936 77.0572 385.936C77.8732 385.936 78.6412 386.296 79.3612 387.016V380.56H81.9292V400H79.3612V399.112C78.6892 399.832 77.9452 400.192 77.1292 400.192ZM77.7772 398.176C78.2892 398.176 78.8172 398 79.3612 397.648V388.552C78.7692 388.152 78.2252 387.952 77.7292 387.952C76.7212 387.952 76.2172 388.92 76.2172 390.856V394.768C76.2172 395.888 76.3212 396.736 76.5292 397.312C76.7372 397.888 77.1532 398.176 77.7772 398.176Z" fill="#171B1B"/>
<path d="M295.695 401.285C294.549 401.012 293.365 400.53 292.141 399.84V401.207H287.062V392.77H292.141C292.427 393.993 293.02 394.951 293.918 395.641C294.816 396.331 295.826 396.676 296.945 396.676C297.714 396.676 298.273 396.533 298.625 396.246C298.99 395.947 299.172 395.628 299.172 395.289C299.172 394.729 298.866 394.293 298.254 393.98C297.642 393.668 296.88 393.388 295.969 393.141C295.07 392.893 294.087 392.62 293.02 392.32C291.952 392.021 290.962 391.585 290.051 391.012C289.152 390.439 288.391 389.69 287.766 388.766C287.154 387.828 286.848 386.598 286.848 385.074C286.848 383.954 287.089 382.971 287.57 382.125C288.052 381.266 288.697 380.543 289.504 379.957C290.324 379.371 291.268 378.922 292.336 378.609C293.404 378.284 294.523 378.121 295.695 378.121V374.84H299.66V378.609C300.298 378.792 300.871 379 301.379 379.234C301.887 379.456 302.31 379.671 302.648 379.879V378.473H307.785V386.715H302.648C302.57 386.181 302.382 385.693 302.082 385.25C301.796 384.794 301.444 384.41 301.027 384.098C300.624 383.772 300.168 383.518 299.66 383.336C299.152 383.141 298.645 383.043 298.137 383.043C297.499 383.043 296.971 383.167 296.555 383.414C296.138 383.648 295.93 383.993 295.93 384.449C295.93 385.009 296.242 385.439 296.867 385.738C297.505 386.025 298.28 386.298 299.191 386.559C300.116 386.806 301.125 387.086 302.219 387.398C303.312 387.698 304.315 388.134 305.227 388.707C306.151 389.28 306.926 390.048 307.551 391.012C308.176 391.962 308.488 393.212 308.488 394.762C308.488 395.908 308.247 396.904 307.766 397.75C307.297 398.583 306.652 399.28 305.832 399.84C305.025 400.4 304.087 400.823 303.02 401.109C301.952 401.383 300.832 401.546 299.66 401.598V404.801H295.695V401.285ZM321.398 399.195C323.156 399.195 324.471 398.733 325.344 397.809C326.229 396.871 326.672 395.68 326.672 394.234C326.672 392.724 326.184 391.572 325.207 390.777C324.243 389.97 322.935 389.566 321.281 389.566C320.188 389.566 319.309 389.677 318.645 389.898C317.98 390.12 317.486 390.302 317.16 390.445H312.277V374.84H313.117C314.133 375.022 315.031 375.172 315.812 375.289C316.607 375.393 317.401 375.471 318.195 375.523C319.003 375.576 319.862 375.608 320.773 375.621C321.698 375.634 322.785 375.641 324.035 375.641C325.507 375.641 326.802 375.628 327.922 375.602C329.042 375.576 330.031 375.536 330.891 375.484C331.763 375.432 332.544 375.354 333.234 375.25C333.924 375.133 334.582 374.996 335.207 374.84L336.164 375.23C335.891 376.363 335.533 377.411 335.09 378.375C334.66 379.326 334.009 380.139 333.137 380.816C332.277 381.493 331.118 382.027 329.66 382.418C328.202 382.809 326.34 383.004 324.074 383.004C322.746 383.004 321.711 382.971 320.969 382.906C320.24 382.841 319.634 382.75 319.152 382.633V385.23C319.4 385.152 319.654 385.087 319.914 385.035C320.188 384.983 320.5 384.931 320.852 384.879C321.216 384.827 321.639 384.788 322.121 384.762C322.603 384.736 323.176 384.723 323.84 384.723C326.34 384.723 328.436 384.996 330.129 385.543C331.835 386.09 333.189 386.839 334.191 387.789C335.207 388.727 335.93 389.82 336.359 391.07C336.789 392.307 337.004 393.616 337.004 394.996C337.004 396.415 336.73 397.717 336.184 398.902C335.637 400.087 334.797 401.122 333.664 402.008C332.531 402.88 331.092 403.564 329.348 404.059C327.616 404.553 325.552 404.801 323.156 404.801C319.133 404.801 315.988 404.104 313.723 402.711C311.457 401.305 310.324 399.319 310.324 396.754C310.324 395.829 310.467 395.022 310.754 394.332C311.053 393.629 311.444 393.062 311.926 392.633C312.408 392.19 312.954 391.865 313.566 391.656C314.178 391.435 314.79 391.324 315.402 391.324C316.926 391.324 318.059 391.643 318.801 392.281C319.543 392.919 319.914 393.746 319.914 394.762C319.914 395.777 319.621 396.546 319.035 397.066C318.449 397.587 317.759 397.965 316.965 398.199C317.603 398.525 318.28 398.772 318.996 398.941C319.712 399.111 320.513 399.195 321.398 399.195Z" fill="#171B1B"/>
<path d="M33.008 339.04H35.984C37.1573 339.04 38.0267 339.307 38.592 339.84C39.1573 340.363 39.44 341.179 39.44 342.288C39.44 343.941 38.8213 344.853 37.584 345.024C38.352 345.205 38.912 345.568 39.264 346.112C39.616 346.645 39.792 347.376 39.792 348.304C39.792 349.467 39.5147 350.373 38.96 351.024C38.416 351.675 37.584 352 36.464 352H33.008V339.04ZM35.888 344.448C36.6347 344.448 37.152 344.288 37.44 343.968C37.728 343.637 37.872 343.077 37.872 342.288C37.872 341.712 37.7813 341.291 37.6 341.024C37.4293 340.747 37.168 340.571 36.816 340.496C36.464 340.421 35.9413 340.384 35.248 340.384H34.816V344.448H35.888ZM36.032 350.704C36.5653 350.704 36.976 350.624 37.264 350.464C37.5627 350.293 37.7707 350.037 37.888 349.696C38.0053 349.355 38.064 348.891 38.064 348.304C38.064 347.472 37.8933 346.853 37.552 346.448C37.2107 346.032 36.656 345.824 35.888 345.824H34.816V350.704H36.032ZM46.4466 339.04H48.1906L50.9586 352H49.2466L48.6546 348.736H46.0146L45.3906 352H43.6946L46.4466 339.04ZM48.4146 347.44L47.3266 341.6L46.2546 347.44H48.4146ZM55.2736 339.04H57.0816V345.152L60.0576 339.04H61.7376L59.1776 344.752L62.1536 352H60.3936L57.9136 345.92L57.0816 347.424V352H55.2736V339.04ZM66.1955 339.04H71.2195V340.384H68.0035V344.672H70.6115V345.952H68.0035V350.704H71.2515V352H66.1955V339.04ZM75.7111 339.04H78.3191C79.6311 339.04 80.5911 339.312 81.1991 339.856C81.8178 340.389 82.1271 341.264 82.1271 342.48C82.1271 344.144 81.5938 345.152 80.5271 345.504L82.3671 352H80.6231L78.9271 345.92H77.5191V352H75.7111V339.04ZM78.2071 344.624C78.9858 344.624 79.5405 344.469 79.8711 344.16C80.2125 343.851 80.3831 343.291 80.3831 342.48C80.3831 341.947 80.3245 341.531 80.2071 341.232C80.0898 340.923 79.8818 340.699 79.5831 340.56C79.2845 340.411 78.8631 340.336 78.3191 340.336H77.5191V344.624H78.2071ZM88.992 347.424L86.192 339.04H87.872L89.856 345.296L91.808 339.04H93.504L90.72 347.424V352H88.992V347.424Z" fill="#171B1B"/>
</svg>
