<svg width="674" height="209" viewBox="0 0 674 209" fill="none" xmlns="http://www.w3.org/2000/svg">
<path d="M22.2461 64.168H15.5273V67.8008C15.5273 68.4909 15.7161 68.9922 16.0938 69.3047C16.4844 69.6042 17.1745 69.7539 18.1641 69.7539V77H0.800781V69.7539C1.94661 69.7539 2.76693 69.6042 3.26172 69.3047C3.75651 68.9922 4.00391 68.4128 4.00391 67.5664V57.6836C4.00391 56.8242 3.75651 56.2448 3.26172 55.9453C2.76693 55.6328 1.94661 55.4766 0.800781 55.4766V48.2305H18.1641V55.4766C17.1745 55.4766 16.4844 55.6328 16.0938 55.9453C15.7161 56.2448 15.5273 56.7461 15.5273 57.4492V60.5938H22.2461V57.4492C22.2461 56.7461 22.0508 56.2448 21.6602 55.9453C21.2695 55.6328 20.5859 55.4766 19.6094 55.4766V48.2305H36.9531V55.4766C35.8073 55.4766 34.987 55.6328 34.4922 55.9453C34.0104 56.2448 33.7695 56.8242 33.7695 57.6836V67.5664C33.7695 68.4128 34.0104 68.9922 34.4922 69.3047C34.987 69.6042 35.8073 69.7539 36.9531 69.7539V77H19.6094V69.7539C20.5859 69.7539 21.2695 69.6042 21.6602 69.3047C22.0508 68.9922 22.2461 68.4909 22.2461 67.8008V64.168ZM38.5742 66.1992C38.5742 64.2852 38.9062 62.6055 39.5703 61.1602C40.2344 59.7148 41.1784 58.5104 42.4023 57.5469C43.6393 56.5703 45.1237 55.8346 46.8555 55.3398C48.5872 54.8451 50.5208 54.5977 52.6562 54.5977C54.7917 54.5977 56.7253 54.8451 58.457 55.3398C60.1888 55.8346 61.6667 56.5703 62.8906 57.5469C64.1146 58.5104 65.0586 59.7148 65.7227 61.1602C66.3997 62.6055 66.7383 64.2852 66.7383 66.1992C66.7383 68.0872 66.3997 69.7604 65.7227 71.2188C65.0586 72.6771 64.1146 73.901 62.8906 74.8906C61.6667 75.8672 60.1888 76.6029 58.457 77.0977C56.7253 77.5924 54.7917 77.8398 52.6562 77.8398C50.5208 77.8398 48.5872 77.5924 46.8555 77.0977C45.1237 76.6029 43.6393 75.8672 42.4023 74.8906C41.1784 73.901 40.2344 72.6771 39.5703 71.2188C38.9062 69.7604 38.5742 68.0872 38.5742 66.1992ZM49.6875 66.1992C49.6875 67.293 49.7331 68.224 49.8242 68.9922C49.9284 69.7474 50.0911 70.3594 50.3125 70.8281C50.5339 71.2839 50.8333 71.6224 51.2109 71.8438C51.5885 72.0521 52.0703 72.1562 52.6562 72.1562C53.2422 72.1562 53.7174 72.0521 54.082 71.8438C54.4596 71.6224 54.7591 71.2839 54.9805 70.8281C55.2148 70.3594 55.3776 69.7474 55.4688 68.9922C55.5599 68.224 55.6055 67.293 55.6055 66.1992C55.6055 64.0117 55.3971 62.4818 54.9805 61.6094C54.5768 60.724 53.8021 60.2812 52.6562 60.2812C52.0703 60.2812 51.5885 60.3854 51.2109 60.5938C50.8333 60.7891 50.5339 61.1211 50.3125 61.5898C50.0911 62.0456 49.9284 62.6576 49.8242 63.4258C49.7331 64.181 49.6875 65.1055 49.6875 66.1992ZM97.4609 67.8398C97.4609 68.5299 97.5781 69.0247 97.8125 69.3242C98.0599 69.6107 98.5286 69.7539 99.2188 69.7539H99.8633V77H86.7383V64.5195C86.7383 64.0117 86.6862 63.6081 86.582 63.3086C86.4779 62.9961 86.3346 62.7617 86.1523 62.6055C85.9831 62.4362 85.7812 62.3255 85.5469 62.2734C85.3255 62.2214 85.1107 62.1953 84.9023 62.1953C84.043 62.1953 83.4505 62.4427 83.125 62.9375C82.8125 63.4323 82.6562 64.1354 82.6562 65.0469V67.8398C82.6562 68.5299 82.7734 69.0247 83.0078 69.3242C83.2552 69.6107 83.724 69.7539 84.4141 69.7539H85.0586V77H69.1406V69.7539H70.293C70.8268 69.7539 71.2305 69.5846 71.5039 69.2461C71.7904 68.8945 71.9336 68.4779 71.9336 67.9961V64.2852C71.9336 63.6732 71.7513 63.263 71.3867 63.0547C71.0352 62.8333 70.6315 62.7227 70.1758 62.7227H69.1406V55.4766H80.7422L80.332 60.8477H80.6641C80.9505 58.8424 81.7578 57.2995 83.0859 56.2188C84.4271 55.138 86.3672 54.5977 88.9062 54.5977C89.8568 54.5977 90.7422 54.7279 91.5625 54.9883C92.3958 55.2357 93.1315 55.6198 93.7695 56.1406C94.4206 56.6615 94.9284 57.319 95.293 58.1133C95.6706 58.8945 95.8854 59.806 95.9375 60.8477H96.2109C96.3281 59.8581 96.6146 58.9727 97.0703 58.1914C97.5391 57.3971 98.125 56.7396 98.8281 56.2188C99.5443 55.6979 100.326 55.3008 101.172 55.0273C102.031 54.7409 102.93 54.5977 103.867 54.5977C105.599 54.5977 107.012 54.8516 108.105 55.3594C109.199 55.8672 110.052 56.5117 110.664 57.293C111.276 58.0612 111.693 58.901 111.914 59.8125C112.148 60.7109 112.266 61.5573 112.266 62.3516V67.8398C112.266 68.5299 112.383 69.0247 112.617 69.3242C112.865 69.6107 113.333 69.7539 114.023 69.7539H115.059V77H101.543V64.5195C101.543 64.0117 101.484 63.6081 101.367 63.3086C101.263 62.9961 101.126 62.7617 100.957 62.6055C100.788 62.4362 100.586 62.3255 100.352 62.2734C100.13 62.2214 99.9154 62.1953 99.707 62.1953C98.8477 62.1953 98.2552 62.4427 97.9297 62.9375C97.6172 63.4323 97.4609 64.1354 97.4609 65.0469V67.8398ZM127.422 67.4492C127.474 69.3893 127.839 70.7305 128.516 71.4727C129.206 72.2018 130.189 72.5664 131.465 72.5664C131.895 72.5664 132.311 72.5078 132.715 72.3906C133.132 72.2604 133.516 72.0586 133.867 71.7852C134.219 71.4987 134.518 71.1276 134.766 70.6719C135.026 70.2031 135.195 69.6172 135.273 68.9141H142.383C142.122 70.5938 141.641 72 140.938 73.1328C140.247 74.2656 139.355 75.1836 138.262 75.8867C137.168 76.5768 135.892 77.0716 134.434 77.3711C132.988 77.6836 131.374 77.8398 129.59 77.8398C127.754 77.8398 126.029 77.6055 124.414 77.1367C122.799 76.668 121.38 75.9583 120.156 75.0078C118.945 74.0443 117.995 72.8398 117.305 71.3945C116.615 69.9362 116.27 68.2044 116.27 66.1992C116.27 64.2852 116.595 62.6055 117.246 61.1602C117.897 59.7148 118.809 58.5104 119.98 57.5469C121.165 56.5703 122.559 55.8346 124.16 55.3398C125.775 54.8451 127.546 54.5977 129.473 54.5977C131.842 54.5977 133.88 54.9102 135.586 55.5352C137.292 56.1602 138.685 57.0326 139.766 58.1523C140.846 59.2721 141.641 60.6198 142.148 62.1953C142.656 63.7708 142.897 65.5221 142.871 67.4492H127.422ZM130.312 59.8711C129.401 59.8711 128.724 60.1966 128.281 60.8477C127.852 61.4857 127.565 62.5469 127.422 64.0312H133.145C133.066 62.7552 132.793 61.7461 132.324 61.0039C131.855 60.2487 131.185 59.8711 130.312 59.8711ZM173.633 67.8398C173.633 68.5299 173.75 69.0247 173.984 69.3242C174.232 69.6107 174.701 69.7539 175.391 69.7539H176.035V77H162.91V64.5195C162.91 64.0117 162.858 63.6081 162.754 63.3086C162.65 62.9961 162.507 62.7617 162.324 62.6055C162.155 62.4362 161.953 62.3255 161.719 62.2734C161.497 62.2214 161.283 62.1953 161.074 62.1953C160.215 62.1953 159.622 62.4427 159.297 62.9375C158.984 63.4323 158.828 64.1354 158.828 65.0469V67.8398C158.828 68.5299 158.945 69.0247 159.18 69.3242C159.427 69.6107 159.896 69.7539 160.586 69.7539H161.23V77H145.312V69.7539H146.465C146.999 69.7539 147.402 69.5846 147.676 69.2461C147.962 68.8945 148.105 68.4779 148.105 67.9961V64.2852C148.105 63.6732 147.923 63.263 147.559 63.0547C147.207 62.8333 146.803 62.7227 146.348 62.7227H145.312V55.4766H156.914L156.504 60.8477H156.836C157.122 58.8424 157.93 57.2995 159.258 56.2188C160.599 55.138 162.539 54.5977 165.078 54.5977C166.029 54.5977 166.914 54.7279 167.734 54.9883C168.568 55.2357 169.303 55.6198 169.941 56.1406C170.592 56.6615 171.1 57.319 171.465 58.1133C171.842 58.8945 172.057 59.806 172.109 60.8477H172.383C172.5 59.8581 172.786 58.9727 173.242 58.1914C173.711 57.3971 174.297 56.7396 175 56.2188C175.716 55.6979 176.497 55.3008 177.344 55.0273C178.203 54.7409 179.102 54.5977 180.039 54.5977C181.771 54.5977 183.184 54.8516 184.277 55.3594C185.371 55.8672 186.224 56.5117 186.836 57.293C187.448 58.0612 187.865 58.901 188.086 59.8125C188.32 60.7109 188.438 61.5573 188.438 62.3516V67.8398C188.438 68.5299 188.555 69.0247 188.789 69.3242C189.036 69.6107 189.505 69.7539 190.195 69.7539H191.23V77H177.715V64.5195C177.715 64.0117 177.656 63.6081 177.539 63.3086C177.435 62.9961 177.298 62.7617 177.129 62.6055C176.96 62.4362 176.758 62.3255 176.523 62.2734C176.302 62.2214 176.087 62.1953 175.879 62.1953C175.02 62.1953 174.427 62.4427 174.102 62.9375C173.789 63.4323 173.633 64.1354 173.633 65.0469V67.8398ZM202.871 58.1914C202.207 58.1914 201.634 58.2435 201.152 58.3477C200.684 58.4388 200.28 58.5495 199.941 58.6797C199.603 58.8099 199.323 58.9596 199.102 59.1289C198.88 59.2852 198.685 59.4284 198.516 59.5586L198.711 59.7539C198.958 59.6237 199.225 59.4935 199.512 59.3633C199.811 59.2331 200.189 59.168 200.645 59.168C201.413 59.168 202.077 59.4219 202.637 59.9297C203.197 60.4245 203.477 61.2188 203.477 62.3125C203.477 63.3542 203.047 64.194 202.188 64.832C201.341 65.457 200.202 65.7695 198.77 65.7695C197.402 65.7695 196.309 65.3789 195.488 64.5977C194.681 63.8034 194.277 62.6836 194.277 61.2383C194.277 60.444 194.499 59.6562 194.941 58.875C195.384 58.0807 196.068 57.3711 196.992 56.7461C197.93 56.1211 199.115 55.6068 200.547 55.2031C201.992 54.7995 203.73 54.5977 205.762 54.5977C208.184 54.5977 210.163 54.8255 211.699 55.2812C213.236 55.737 214.427 56.3229 215.273 57.0391C216.133 57.7552 216.719 58.569 217.031 59.4805C217.357 60.3919 217.52 61.3099 217.52 62.2344V69.8711C217.52 71.056 217.559 71.8633 217.637 72.293C217.715 72.7096 218.008 72.918 218.516 72.918C218.919 72.918 219.199 72.7292 219.355 72.3516C219.525 71.9609 219.609 71.2969 219.609 70.3594V67.918H221.836V70.3984C221.836 71.5703 221.738 72.612 221.543 73.5234C221.348 74.4219 220.977 75.1966 220.43 75.8477C219.883 76.4857 219.141 76.9674 218.203 77.293C217.266 77.6315 216.068 77.8008 214.609 77.8008C213.294 77.8008 212.201 77.6576 211.328 77.3711C210.469 77.0977 209.785 76.7526 209.277 76.3359C208.77 75.9193 208.405 75.4896 208.184 75.0469C207.975 74.5911 207.871 74.1875 207.871 73.8359H207.559C207.48 74.3698 207.253 74.8776 206.875 75.3594C206.51 75.8411 205.996 76.2708 205.332 76.6484C204.681 77.013 203.893 77.306 202.969 77.5273C202.057 77.7617 201.016 77.8789 199.844 77.8789C198.724 77.8789 197.702 77.7682 196.777 77.5469C195.866 77.3385 195.085 77.0065 194.434 76.5508C193.796 76.082 193.294 75.4831 192.93 74.7539C192.578 74.0117 192.402 73.1328 192.402 72.1172C192.402 70.8672 192.754 69.8841 193.457 69.168C194.16 68.4388 195.046 67.8659 196.113 67.4492C197.181 67.0195 198.34 66.6745 199.59 66.4141C200.853 66.1406 202.018 65.8151 203.086 65.4375C204.154 65.0599 205.039 64.5716 205.742 63.9727C206.445 63.3737 206.797 62.5273 206.797 61.4336C206.797 60.457 206.491 59.6758 205.879 59.0898C205.267 58.4909 204.264 58.1914 202.871 58.1914ZM206.797 66.6484C206.51 67.0651 206.152 67.4036 205.723 67.6641C205.293 67.9115 204.876 68.1589 204.473 68.4062C204.082 68.6406 203.737 68.9271 203.438 69.2656C203.151 69.5911 203.008 70.0339 203.008 70.5938C203.008 71.0234 203.125 71.4141 203.359 71.7656C203.594 72.1042 204.049 72.2734 204.727 72.2734C205.339 72.2734 205.833 72.0391 206.211 71.5703C206.602 71.0885 206.797 70.418 206.797 69.5586V66.6484ZM249.648 48.2305V68.1523C249.648 68.6862 249.792 69.0898 250.078 69.3633C250.378 69.6237 250.794 69.7539 251.328 69.7539H252.441V77H239.316V73.4453H239.004C238.796 74.0052 238.49 74.5391 238.086 75.0469C237.682 75.5547 237.188 76.0039 236.602 76.3945C236.016 76.7721 235.319 77.0716 234.512 77.293C233.717 77.5273 232.812 77.6445 231.797 77.6445C228.607 77.6445 226.191 76.681 224.551 74.7539C222.91 72.8138 222.09 69.9753 222.09 66.2383C222.09 62.5013 222.969 59.7279 224.727 57.918C226.484 56.1081 228.9 55.2031 231.973 55.2031C232.793 55.2031 233.529 55.2682 234.18 55.3984C234.831 55.5286 235.423 55.6979 235.957 55.9062C236.491 56.1016 236.999 56.3294 237.48 56.5898C237.962 56.8372 238.444 57.0781 238.926 57.3125V56.6094C238.926 55.9062 238.802 55.4115 238.555 55.125C238.32 54.8255 237.858 54.6758 237.168 54.6758H236.133V48.2305H249.648ZM233.203 66.4336C233.203 67.1367 233.242 67.8008 233.32 68.4258C233.398 69.0508 233.542 69.5977 233.75 70.0664C233.971 70.5352 234.258 70.8997 234.609 71.1602C234.974 71.4206 235.449 71.5508 236.035 71.5508C236.621 71.5508 237.103 71.4271 237.48 71.1797C237.858 70.9323 238.151 70.5872 238.359 70.1445C238.581 69.7018 238.73 69.1745 238.809 68.5625C238.887 67.9505 238.926 67.2995 238.926 66.6094V62.1953C238.6 61.8828 238.164 61.6224 237.617 61.4141C237.07 61.1927 236.543 61.082 236.035 61.082C235.449 61.082 234.974 61.2318 234.609 61.5312C234.258 61.8177 233.971 62.2083 233.75 62.7031C233.542 63.1979 233.398 63.7708 233.32 64.4219C233.242 65.0729 233.203 65.7435 233.203 66.4336ZM265.391 67.4492C265.443 69.3893 265.807 70.7305 266.484 71.4727C267.174 72.2018 268.158 72.5664 269.434 72.5664C269.863 72.5664 270.28 72.5078 270.684 72.3906C271.1 72.2604 271.484 72.0586 271.836 71.7852C272.188 71.4987 272.487 71.1276 272.734 70.6719C272.995 70.2031 273.164 69.6172 273.242 68.9141H280.352C280.091 70.5938 279.609 72 278.906 73.1328C278.216 74.2656 277.324 75.1836 276.23 75.8867C275.137 76.5768 273.861 77.0716 272.402 77.3711C270.957 77.6836 269.342 77.8398 267.559 77.8398C265.723 77.8398 263.997 77.6055 262.383 77.1367C260.768 76.668 259.349 75.9583 258.125 75.0078C256.914 74.0443 255.964 72.8398 255.273 71.3945C254.583 69.9362 254.238 68.2044 254.238 66.1992C254.238 64.2852 254.564 62.6055 255.215 61.1602C255.866 59.7148 256.777 58.5104 257.949 57.5469C259.134 56.5703 260.527 55.8346 262.129 55.3398C263.743 54.8451 265.514 54.5977 267.441 54.5977C269.811 54.5977 271.849 54.9102 273.555 55.5352C275.26 56.1602 276.654 57.0326 277.734 58.1523C278.815 59.2721 279.609 60.6198 280.117 62.1953C280.625 63.7708 280.866 65.5221 280.84 67.4492H265.391ZM268.281 59.8711C267.37 59.8711 266.693 60.1966 266.25 60.8477C265.82 61.4857 265.534 62.5469 265.391 64.0312H271.113C271.035 62.7552 270.762 61.7461 270.293 61.0039C269.824 60.2487 269.154 59.8711 268.281 59.8711ZM32.0312 103.398C32.0312 107.565 29.8633 109.844 25.5273 110.234V110.449C27.793 110.501 29.5768 111.12 30.8789 112.305C32.181 113.49 32.832 115.202 32.832 117.441C32.832 118.379 32.7214 119.303 32.5 120.215C32.2786 121.113 31.7969 121.914 31.0547 122.617C30.3255 123.32 29.2643 123.893 27.8711 124.336C26.4909 124.779 24.6289 125 22.2852 125H0.800781V117.754C1.94661 117.754 2.76693 117.604 3.26172 117.305C3.75651 116.992 4.00391 116.413 4.00391 115.566V105.684C4.00391 104.824 3.75651 104.245 3.26172 103.945C2.76693 103.633 1.94661 103.477 0.800781 103.477V96.2305H23.6328C25.4297 96.2305 26.8815 96.4323 27.9883 96.8359C29.0951 97.2396 29.9479 97.7734 30.5469 98.4375C31.1458 99.1016 31.543 99.8698 31.7383 100.742C31.9336 101.602 32.0312 102.487 32.0312 103.398ZM18.4375 117.754C19.5312 117.754 20.2865 117.546 20.7031 117.129C21.1198 116.699 21.3281 115.99 21.3281 115C21.3281 114.01 21.1198 113.294 20.7031 112.852C20.2865 112.396 19.5312 112.168 18.4375 112.168H15.5273V117.754H18.4375ZM15.5273 108.711H18.4766C19.2839 108.711 19.8633 108.457 20.2148 107.949C20.5794 107.428 20.7617 106.803 20.7617 106.074C20.7617 105.384 20.5794 104.779 20.2148 104.258C19.8633 103.737 19.2839 103.477 18.4766 103.477H15.5273V108.711ZM46.8359 103.477L46.5039 108.848H46.8359C47.2917 106.79 48.0469 105.234 49.1016 104.18C50.1693 103.125 51.5495 102.598 53.2422 102.598C54.2448 102.598 55.1042 102.76 55.8203 103.086C56.5495 103.398 57.1354 103.822 57.5781 104.355C58.0208 104.889 58.3398 105.508 58.5352 106.211C58.7305 106.901 58.8281 107.617 58.8281 108.359C58.8281 108.971 58.737 109.577 58.5547 110.176C58.3724 110.775 58.0794 111.315 57.6758 111.797C57.2721 112.279 56.7513 112.669 56.1133 112.969C55.4753 113.255 54.6875 113.398 53.75 113.398C52.4479 113.398 51.4193 113.066 50.6641 112.402C49.9219 111.738 49.5508 110.938 49.5508 110C49.5508 109.544 49.6029 109.16 49.707 108.848C49.8112 108.522 49.9154 108.262 50.0195 108.066C50.1367 107.858 50.2148 107.708 50.2539 107.617C50.293 107.526 50.2474 107.48 50.1172 107.48C49.8438 107.48 49.5443 107.793 49.2188 108.418C48.9062 109.043 48.75 110.026 48.75 111.367V115.84C48.75 116.53 48.8672 117.025 49.1016 117.324C49.349 117.611 49.8177 117.754 50.5078 117.754H51.6797V125H35.2344V117.754H36.3867C36.9206 117.754 37.3242 117.585 37.5977 117.246C37.8841 116.895 38.0273 116.478 38.0273 115.996V112.285C38.0273 111.673 37.8451 111.263 37.4805 111.055C37.1289 110.833 36.7253 110.723 36.2695 110.723H35.2344V103.477H46.8359ZM71.0938 115.449C71.1458 117.389 71.5104 118.73 72.1875 119.473C72.8776 120.202 73.8607 120.566 75.1367 120.566C75.5664 120.566 75.9831 120.508 76.3867 120.391C76.8034 120.26 77.1875 120.059 77.5391 119.785C77.8906 119.499 78.1901 119.128 78.4375 118.672C78.6979 118.203 78.8672 117.617 78.9453 116.914H86.0547C85.7943 118.594 85.3125 120 84.6094 121.133C83.9193 122.266 83.0273 123.184 81.9336 123.887C80.8398 124.577 79.5638 125.072 78.1055 125.371C76.6602 125.684 75.0456 125.84 73.2617 125.84C71.4258 125.84 69.7005 125.605 68.0859 125.137C66.4714 124.668 65.0521 123.958 63.8281 123.008C62.6172 122.044 61.6667 120.84 60.9766 119.395C60.2865 117.936 59.9414 116.204 59.9414 114.199C59.9414 112.285 60.2669 110.605 60.918 109.16C61.569 107.715 62.4805 106.51 63.6523 105.547C64.8372 104.57 66.2305 103.835 67.832 103.34C69.4466 102.845 71.2174 102.598 73.1445 102.598C75.5143 102.598 77.5521 102.91 79.2578 103.535C80.9635 104.16 82.3568 105.033 83.4375 106.152C84.5182 107.272 85.3125 108.62 85.8203 110.195C86.3281 111.771 86.569 113.522 86.543 115.449H71.0938ZM73.9844 107.871C73.0729 107.871 72.3958 108.197 71.9531 108.848C71.5234 109.486 71.237 110.547 71.0938 112.031H76.8164C76.7383 110.755 76.4648 109.746 75.9961 109.004C75.5273 108.249 74.8568 107.871 73.9844 107.871ZM98.6133 106.191C97.9492 106.191 97.3763 106.243 96.8945 106.348C96.4258 106.439 96.0221 106.549 95.6836 106.68C95.3451 106.81 95.0651 106.96 94.8438 107.129C94.6224 107.285 94.4271 107.428 94.2578 107.559L94.4531 107.754C94.7005 107.624 94.9674 107.493 95.2539 107.363C95.5534 107.233 95.931 107.168 96.3867 107.168C97.1549 107.168 97.819 107.422 98.3789 107.93C98.9388 108.424 99.2188 109.219 99.2188 110.312C99.2188 111.354 98.7891 112.194 97.9297 112.832C97.0833 113.457 95.944 113.77 94.5117 113.77C93.1445 113.77 92.0508 113.379 91.2305 112.598C90.4232 111.803 90.0195 110.684 90.0195 109.238C90.0195 108.444 90.2409 107.656 90.6836 106.875C91.1263 106.081 91.8099 105.371 92.7344 104.746C93.6719 104.121 94.8568 103.607 96.2891 103.203C97.7344 102.799 99.4727 102.598 101.504 102.598C103.926 102.598 105.905 102.826 107.441 103.281C108.978 103.737 110.169 104.323 111.016 105.039C111.875 105.755 112.461 106.569 112.773 107.48C113.099 108.392 113.262 109.31 113.262 110.234V117.871C113.262 119.056 113.301 119.863 113.379 120.293C113.457 120.71 113.75 120.918 114.258 120.918C114.661 120.918 114.941 120.729 115.098 120.352C115.267 119.961 115.352 119.297 115.352 118.359V115.918H117.578V118.398C117.578 119.57 117.48 120.612 117.285 121.523C117.09 122.422 116.719 123.197 116.172 123.848C115.625 124.486 114.883 124.967 113.945 125.293C113.008 125.632 111.81 125.801 110.352 125.801C109.036 125.801 107.943 125.658 107.07 125.371C106.211 125.098 105.527 124.753 105.02 124.336C104.512 123.919 104.147 123.49 103.926 123.047C103.717 122.591 103.613 122.188 103.613 121.836H103.301C103.223 122.37 102.995 122.878 102.617 123.359C102.253 123.841 101.738 124.271 101.074 124.648C100.423 125.013 99.6354 125.306 98.7109 125.527C97.7995 125.762 96.7578 125.879 95.5859 125.879C94.4661 125.879 93.444 125.768 92.5195 125.547C91.6081 125.339 90.8268 125.007 90.1758 124.551C89.5378 124.082 89.0365 123.483 88.6719 122.754C88.3203 122.012 88.1445 121.133 88.1445 120.117C88.1445 118.867 88.4961 117.884 89.1992 117.168C89.9023 116.439 90.7878 115.866 91.8555 115.449C92.9232 115.02 94.082 114.674 95.332 114.414C96.5951 114.141 97.7604 113.815 98.8281 113.438C99.8958 113.06 100.781 112.572 101.484 111.973C102.188 111.374 102.539 110.527 102.539 109.434C102.539 108.457 102.233 107.676 101.621 107.09C101.009 106.491 100.007 106.191 98.6133 106.191ZM102.539 114.648C102.253 115.065 101.895 115.404 101.465 115.664C101.035 115.911 100.618 116.159 100.215 116.406C99.8242 116.641 99.4792 116.927 99.1797 117.266C98.8932 117.591 98.75 118.034 98.75 118.594C98.75 119.023 98.8672 119.414 99.1016 119.766C99.3359 120.104 99.7917 120.273 100.469 120.273C101.081 120.273 101.576 120.039 101.953 119.57C102.344 119.089 102.539 118.418 102.539 117.559V114.648ZM145.391 96.2305V116.152C145.391 116.686 145.534 117.09 145.82 117.363C146.12 117.624 146.536 117.754 147.07 117.754H148.184V125H135.059V121.445H134.746C134.538 122.005 134.232 122.539 133.828 123.047C133.424 123.555 132.93 124.004 132.344 124.395C131.758 124.772 131.061 125.072 130.254 125.293C129.46 125.527 128.555 125.645 127.539 125.645C124.349 125.645 121.934 124.681 120.293 122.754C118.652 120.814 117.832 117.975 117.832 114.238C117.832 110.501 118.711 107.728 120.469 105.918C122.227 104.108 124.642 103.203 127.715 103.203C128.535 103.203 129.271 103.268 129.922 103.398C130.573 103.529 131.165 103.698 131.699 103.906C132.233 104.102 132.741 104.329 133.223 104.59C133.704 104.837 134.186 105.078 134.668 105.312V104.609C134.668 103.906 134.544 103.411 134.297 103.125C134.062 102.826 133.6 102.676 132.91 102.676H131.875V96.2305H145.391ZM128.945 114.434C128.945 115.137 128.984 115.801 129.062 116.426C129.141 117.051 129.284 117.598 129.492 118.066C129.714 118.535 130 118.9 130.352 119.16C130.716 119.421 131.191 119.551 131.777 119.551C132.363 119.551 132.845 119.427 133.223 119.18C133.6 118.932 133.893 118.587 134.102 118.145C134.323 117.702 134.473 117.174 134.551 116.562C134.629 115.951 134.668 115.299 134.668 114.609V110.195C134.342 109.883 133.906 109.622 133.359 109.414C132.812 109.193 132.285 109.082 131.777 109.082C131.191 109.082 130.716 109.232 130.352 109.531C130 109.818 129.714 110.208 129.492 110.703C129.284 111.198 129.141 111.771 129.062 112.422C128.984 113.073 128.945 113.743 128.945 114.434Z" fill="white"/>
<path d="M1.184 173V161.8H8V162.904H2.528V166.84H7.184V167.928H2.528V173H1.184ZM9.65088 173V161.48H10.9949V173H9.65088ZM16.8138 173.192C16.0671 173.192 15.3951 173.021 14.7978 172.68C14.2004 172.339 13.7258 171.859 13.3738 171.24C13.0324 170.611 12.8618 169.875 12.8618 169.032C12.8618 168.189 13.0378 167.459 13.3898 166.84C13.7418 166.211 14.2164 165.725 14.8138 165.384C15.4218 165.043 16.0991 164.872 16.8458 164.872C17.5924 164.872 18.2644 165.043 18.8618 165.384C19.4591 165.725 19.9284 166.211 20.2698 166.84C20.6218 167.459 20.7978 168.189 20.7978 169.032C20.7978 169.875 20.6218 170.611 20.2698 171.24C19.9178 171.859 19.4378 172.339 18.8298 172.68C18.2324 173.021 17.5604 173.192 16.8138 173.192ZM16.8138 172.04C17.2724 172.04 17.6991 171.928 18.0938 171.704C18.4884 171.48 18.8084 171.144 19.0538 170.696C19.2991 170.248 19.4218 169.693 19.4218 169.032C19.4218 168.371 19.2991 167.816 19.0538 167.368C18.8191 166.92 18.5044 166.584 18.1098 166.36C17.7151 166.136 17.2938 166.024 16.8458 166.024C16.3871 166.024 15.9604 166.136 15.5658 166.36C15.1711 166.584 14.8511 166.92 14.6058 167.368C14.3604 167.816 14.2378 168.371 14.2378 169.032C14.2378 169.693 14.3604 170.248 14.6058 170.696C14.8511 171.144 15.1658 171.48 15.5498 171.704C15.9444 171.928 16.3658 172.04 16.8138 172.04ZM23.9696 173L21.6496 165.064H22.9936L24.6736 171.288L26.5296 165.064H28.0496L29.9216 171.288L31.5856 165.064H32.9456L30.6256 173H29.2496L27.2976 166.456L25.3456 173H23.9696ZM37.4721 173.192C36.5228 173.192 35.7335 172.952 35.1041 172.472C34.4748 171.992 34.1068 171.341 34.0001 170.52H35.3761C35.4615 170.936 35.6801 171.299 36.0321 171.608C36.3948 171.907 36.8801 172.056 37.4881 172.056C38.0535 172.056 38.4695 171.939 38.7361 171.704C39.0028 171.459 39.1361 171.171 39.1361 170.84C39.1361 170.36 38.9601 170.04 38.6081 169.88C38.2668 169.72 37.7815 169.576 37.1521 169.448C36.7255 169.363 36.2988 169.24 35.8721 169.08C35.4455 168.92 35.0881 168.696 34.8001 168.408C34.5121 168.109 34.3681 167.72 34.3681 167.24C34.3681 166.547 34.6241 165.981 35.1361 165.544C35.6588 165.096 36.3628 164.872 37.2481 164.872C38.0908 164.872 38.7788 165.085 39.3121 165.512C39.8561 165.928 40.1708 166.525 40.2561 167.304H38.9281C38.8748 166.899 38.6988 166.584 38.4001 166.36C38.1121 166.125 37.7228 166.008 37.2321 166.008C36.7521 166.008 36.3788 166.109 36.1121 166.312C35.8561 166.515 35.7281 166.781 35.7281 167.112C35.7281 167.432 35.8935 167.683 36.2241 167.864C36.5655 168.045 37.0241 168.2 37.6001 168.328C38.0908 168.435 38.5548 168.568 38.9921 168.728C39.4401 168.877 39.8028 169.107 40.0801 169.416C40.3681 169.715 40.5121 170.152 40.5121 170.728C40.5228 171.443 40.2508 172.035 39.6961 172.504C39.1521 172.963 38.4108 173.192 37.4721 173.192ZM50.9065 173.192C50.2558 173.192 49.6745 173.059 49.1625 172.792C48.6612 172.525 48.2772 172.152 48.0105 171.672L47.8825 173H46.6665V161.48H48.0105V166.376C48.2665 165.992 48.6292 165.645 49.0985 165.336C49.5785 165.027 50.1865 164.872 50.9225 164.872C51.7118 164.872 52.3998 165.053 52.9865 165.416C53.5732 165.779 54.0265 166.275 54.3465 166.904C54.6772 167.533 54.8425 168.248 54.8425 169.048C54.8425 169.848 54.6772 170.563 54.3465 171.192C54.0265 171.811 53.5678 172.301 52.9705 172.664C52.3838 173.016 51.6958 173.192 50.9065 173.192ZM50.7625 172.024C51.2958 172.024 51.7652 171.901 52.1705 171.656C52.5758 171.4 52.8958 171.048 53.1305 170.6C53.3652 170.152 53.4825 169.629 53.4825 169.032C53.4825 168.435 53.3652 167.912 53.1305 167.464C52.8958 167.016 52.5758 166.669 52.1705 166.424C51.7652 166.168 51.2958 166.04 50.7625 166.04C50.2292 166.04 49.7598 166.168 49.3545 166.424C48.9492 166.669 48.6292 167.016 48.3945 167.464C48.1598 167.912 48.0425 168.435 48.0425 169.032C48.0425 169.629 48.1598 170.152 48.3945 170.6C48.6292 171.048 48.9492 171.4 49.3545 171.656C49.7598 171.901 50.2292 172.024 50.7625 172.024ZM56.9368 176.52L58.9048 172.232H58.4408L55.2888 165.064H56.7448L59.3688 171.24L62.1528 165.064H63.5448L58.3448 176.52H56.9368ZM72.3338 173C71.6084 173 71.0378 172.824 70.6218 172.472C70.2058 172.12 69.9978 171.485 69.9978 170.568V166.2H68.6217V165.064H69.9978L70.1738 163.16H71.3418V165.064H73.6778V166.2H71.3418V170.568C71.3418 171.069 71.4431 171.411 71.6458 171.592C71.8484 171.763 72.2058 171.848 72.7178 171.848H73.5498V173H72.3338ZM75.3853 173V161.48H76.7293V166.424C76.9959 165.933 77.3746 165.555 77.8653 165.288C78.3559 165.011 78.8893 164.872 79.4653 164.872C80.3826 164.872 81.1186 165.16 81.6733 165.736C82.2279 166.301 82.5052 167.176 82.5052 168.36V173H81.1773V168.504C81.1773 166.851 80.5106 166.024 79.1773 166.024C78.4839 166.024 77.9026 166.275 77.4333 166.776C76.9639 167.267 76.7293 167.971 76.7293 168.888V173H75.3853ZM88.1095 173.192C87.3522 173.192 86.6802 173.021 86.0935 172.68C85.5068 172.328 85.0428 171.843 84.7015 171.224C84.3708 170.605 84.2055 169.875 84.2055 169.032C84.2055 168.2 84.3708 167.475 84.7015 166.856C85.0322 166.227 85.4908 165.741 86.0775 165.4C86.6748 165.048 87.3628 164.872 88.1415 164.872C88.9095 164.872 89.5708 165.048 90.1255 165.4C90.6908 165.741 91.1228 166.195 91.4215 166.76C91.7202 167.325 91.8695 167.933 91.8695 168.584C91.8695 168.701 91.8642 168.819 91.8535 168.936C91.8535 169.053 91.8535 169.187 91.8535 169.336H85.5335C85.5655 169.944 85.7042 170.451 85.9495 170.856C86.2055 171.251 86.5202 171.549 86.8935 171.752C87.2775 171.955 87.6828 172.056 88.1095 172.056C88.6642 172.056 89.1282 171.928 89.5015 171.672C89.8748 171.416 90.1468 171.069 90.3175 170.632H91.6455C91.4322 171.368 91.0215 171.981 90.4135 172.472C89.8162 172.952 89.0482 173.192 88.1095 173.192ZM88.1095 166.008C87.4695 166.008 86.8988 166.205 86.3975 166.6C85.9068 166.984 85.6242 167.549 85.5495 168.296H90.5415C90.5095 167.581 90.2642 167.021 89.8055 166.616C89.3468 166.211 88.7815 166.008 88.1095 166.008ZM94.4669 163.304C94.2002 163.304 93.9762 163.219 93.7949 163.048C93.6242 162.867 93.5389 162.643 93.5389 162.376C93.5389 162.12 93.6242 161.907 93.7949 161.736C93.9762 161.565 94.2002 161.48 94.4669 161.48C94.7229 161.48 94.9415 161.565 95.1229 161.736C95.3042 161.907 95.3949 162.12 95.3949 162.376C95.3949 162.643 95.3042 162.867 95.1229 163.048C94.9415 163.219 94.7229 163.304 94.4669 163.304ZM93.7949 173V165.064H95.1389V173H93.7949ZM97.479 173V165.064H98.695L98.807 166.584C99.0523 166.061 99.4257 165.645 99.927 165.336C100.428 165.027 101.047 164.872 101.783 164.872V166.28H101.415C100.946 166.28 100.514 166.365 100.119 166.536C99.7243 166.696 99.4097 166.973 99.175 167.368C98.9403 167.763 98.823 168.307 98.823 169V173H97.479ZM107.526 176.52V165.064H108.742L108.87 166.376C109.126 165.992 109.489 165.645 109.958 165.336C110.438 165.027 111.046 164.872 111.782 164.872C112.571 164.872 113.259 165.053 113.846 165.416C114.433 165.779 114.886 166.275 115.206 166.904C115.537 167.533 115.702 168.248 115.702 169.048C115.702 169.848 115.537 170.563 115.206 171.192C114.886 171.811 114.427 172.301 113.83 172.664C113.243 173.016 112.555 173.192 111.766 173.192C111.115 173.192 110.534 173.059 110.022 172.792C109.521 172.525 109.137 172.152 108.87 171.672V176.52H107.526ZM111.622 172.024C112.155 172.024 112.625 171.901 113.03 171.656C113.435 171.4 113.755 171.048 113.99 170.6C114.225 170.152 114.342 169.629 114.342 169.032C114.342 168.435 114.225 167.912 113.99 167.464C113.755 167.016 113.435 166.669 113.03 166.424C112.625 166.168 112.155 166.04 111.622 166.04C111.089 166.04 110.619 166.168 110.214 166.424C109.809 166.669 109.489 167.016 109.254 167.464C109.019 167.912 108.902 168.435 108.902 169.032C108.902 169.629 109.019 170.152 109.254 170.6C109.489 171.048 109.809 171.4 110.214 171.656C110.619 171.901 111.089 172.024 111.622 172.024ZM117.573 173V161.48H118.917V173H117.573ZM123.76 173.192C123.098 173.192 122.549 173.08 122.112 172.856C121.674 172.632 121.349 172.333 121.136 171.96C120.922 171.587 120.816 171.181 120.816 170.744C120.816 169.933 121.125 169.309 121.744 168.872C122.362 168.435 123.205 168.216 124.272 168.216H126.416V168.12C126.416 167.427 126.234 166.904 125.872 166.552C125.509 166.189 125.024 166.008 124.416 166.008C123.893 166.008 123.44 166.141 123.056 166.408C122.682 166.664 122.448 167.043 122.352 167.544H120.976C121.029 166.968 121.221 166.483 121.552 166.088C121.893 165.693 122.314 165.395 122.816 165.192C123.317 164.979 123.85 164.872 124.416 164.872C125.525 164.872 126.357 165.171 126.912 165.768C127.477 166.355 127.76 167.139 127.76 168.12V173H126.56L126.48 171.576C126.256 172.024 125.925 172.408 125.488 172.728C125.061 173.037 124.485 173.192 123.76 173.192ZM123.968 172.056C124.48 172.056 124.917 171.923 125.28 171.656C125.653 171.389 125.936 171.043 126.128 170.616C126.32 170.189 126.416 169.741 126.416 169.272V169.256H124.384C123.594 169.256 123.034 169.395 122.704 169.672C122.384 169.939 122.224 170.275 122.224 170.68C122.224 171.096 122.373 171.432 122.672 171.688C122.981 171.933 123.413 172.056 123.968 172.056ZM133.424 173.192C132.667 173.192 131.984 173.021 131.376 172.68C130.779 172.328 130.304 171.843 129.952 171.224C129.611 170.595 129.44 169.864 129.44 169.032C129.44 168.2 129.611 167.475 129.952 166.856C130.304 166.227 130.779 165.741 131.376 165.4C131.984 165.048 132.667 164.872 133.424 164.872C134.363 164.872 135.152 165.117 135.792 165.608C136.443 166.099 136.853 166.755 137.024 167.576H135.648C135.541 167.085 135.28 166.707 134.864 166.44C134.448 166.163 133.963 166.024 133.408 166.024C132.96 166.024 132.539 166.136 132.144 166.36C131.749 166.584 131.429 166.92 131.184 167.368C130.939 167.816 130.816 168.371 130.816 169.032C130.816 169.693 130.939 170.248 131.184 170.696C131.429 171.144 131.749 171.485 132.144 171.72C132.539 171.944 132.96 172.056 133.408 172.056C133.963 172.056 134.448 171.923 134.864 171.656C135.28 171.379 135.541 170.989 135.648 170.488H137.024C136.864 171.288 136.459 171.939 135.808 172.44C135.157 172.941 134.363 173.192 133.424 173.192ZM142.469 173.192C141.712 173.192 141.04 173.021 140.453 172.68C139.866 172.328 139.402 171.843 139.061 171.224C138.73 170.605 138.565 169.875 138.565 169.032C138.565 168.2 138.73 167.475 139.061 166.856C139.392 166.227 139.85 165.741 140.437 165.4C141.034 165.048 141.722 164.872 142.501 164.872C143.269 164.872 143.93 165.048 144.485 165.4C145.05 165.741 145.482 166.195 145.781 166.76C146.08 167.325 146.229 167.933 146.229 168.584C146.229 168.701 146.224 168.819 146.213 168.936C146.213 169.053 146.213 169.187 146.213 169.336H139.893C139.925 169.944 140.064 170.451 140.309 170.856C140.565 171.251 140.88 171.549 141.253 171.752C141.637 171.955 142.042 172.056 142.469 172.056C143.024 172.056 143.488 171.928 143.861 171.672C144.234 171.416 144.506 171.069 144.677 170.632H146.005C145.792 171.368 145.381 171.981 144.773 172.472C144.176 172.952 143.408 173.192 142.469 173.192ZM142.469 166.008C141.829 166.008 141.258 166.205 140.757 166.6C140.266 166.984 139.984 167.549 139.909 168.296H144.901C144.869 167.581 144.624 167.021 144.165 166.616C143.706 166.211 143.141 166.008 142.469 166.008ZM154.885 173.192C154.223 173.192 153.674 173.08 153.237 172.856C152.799 172.632 152.474 172.333 152.261 171.96C152.047 171.587 151.941 171.181 151.941 170.744C151.941 169.933 152.25 169.309 152.869 168.872C153.487 168.435 154.33 168.216 155.397 168.216H157.541V168.12C157.541 167.427 157.359 166.904 156.997 166.552C156.634 166.189 156.149 166.008 155.541 166.008C155.018 166.008 154.565 166.141 154.181 166.408C153.807 166.664 153.573 167.043 153.477 167.544H152.101C152.154 166.968 152.346 166.483 152.677 166.088C153.018 165.693 153.439 165.395 153.941 165.192C154.442 164.979 154.975 164.872 155.541 164.872C156.65 164.872 157.482 165.171 158.037 165.768C158.602 166.355 158.885 167.139 158.885 168.12V173H157.685L157.605 171.576C157.381 172.024 157.05 172.408 156.613 172.728C156.186 173.037 155.61 173.192 154.885 173.192ZM155.093 172.056C155.605 172.056 156.042 171.923 156.405 171.656C156.778 171.389 157.061 171.043 157.253 170.616C157.445 170.189 157.541 169.741 157.541 169.272V169.256H155.509C154.719 169.256 154.159 169.395 153.829 169.672C153.509 169.939 153.349 170.275 153.349 170.68C153.349 171.096 153.498 171.432 153.797 171.688C154.106 171.933 154.538 172.056 155.093 172.056ZM160.901 173V165.064H162.117L162.197 166.488C162.453 165.987 162.821 165.592 163.301 165.304C163.781 165.016 164.325 164.872 164.933 164.872C165.872 164.872 166.618 165.16 167.173 165.736C167.738 166.301 168.021 167.176 168.021 168.36V173H166.677V168.504C166.677 166.851 165.994 166.024 164.629 166.024C163.946 166.024 163.376 166.275 162.917 166.776C162.469 167.267 162.245 167.971 162.245 168.888V173H160.901ZM173.657 173.192C172.868 173.192 172.174 173.011 171.577 172.648C170.99 172.285 170.532 171.789 170.201 171.16C169.881 170.531 169.721 169.816 169.721 169.016C169.721 168.216 169.886 167.507 170.217 166.888C170.548 166.259 171.006 165.768 171.593 165.416C172.18 165.053 172.873 164.872 173.673 164.872C174.324 164.872 174.9 165.005 175.401 165.272C175.902 165.539 176.292 165.912 176.569 166.392V161.48H177.913V173H176.697L176.569 171.688C176.313 172.072 175.945 172.419 175.465 172.728C174.985 173.037 174.382 173.192 173.657 173.192ZM173.801 172.024C174.334 172.024 174.804 171.901 175.209 171.656C175.625 171.4 175.945 171.048 176.169 170.6C176.404 170.152 176.521 169.629 176.521 169.032C176.521 168.435 176.404 167.912 176.169 167.464C175.945 167.016 175.625 166.669 175.209 166.424C174.804 166.168 174.334 166.04 173.801 166.04C173.278 166.04 172.809 166.168 172.393 166.424C171.988 166.669 171.668 167.016 171.433 167.464C171.209 167.912 171.097 168.435 171.097 169.032C171.097 169.629 171.209 170.152 171.433 170.6C171.668 171.048 171.988 171.4 172.393 171.656C172.809 171.901 173.278 172.024 173.801 172.024ZM187.378 173.192C186.429 173.192 185.64 172.952 185.01 172.472C184.381 171.992 184.013 171.341 183.906 170.52H185.282C185.368 170.936 185.586 171.299 185.938 171.608C186.301 171.907 186.786 172.056 187.394 172.056C187.96 172.056 188.376 171.939 188.642 171.704C188.909 171.459 189.042 171.171 189.042 170.84C189.042 170.36 188.866 170.04 188.514 169.88C188.173 169.72 187.688 169.576 187.058 169.448C186.632 169.363 186.205 169.24 185.778 169.08C185.352 168.92 184.994 168.696 184.706 168.408C184.418 168.109 184.274 167.72 184.274 167.24C184.274 166.547 184.53 165.981 185.042 165.544C185.565 165.096 186.269 164.872 187.154 164.872C187.997 164.872 188.685 165.085 189.218 165.512C189.762 165.928 190.077 166.525 190.162 167.304H188.834C188.781 166.899 188.605 166.584 188.306 166.36C188.018 166.125 187.629 166.008 187.138 166.008C186.658 166.008 186.285 166.109 186.018 166.312C185.762 166.515 185.634 166.781 185.634 167.112C185.634 167.432 185.8 167.683 186.13 167.864C186.472 168.045 186.93 168.2 187.506 168.328C187.997 168.435 188.461 168.568 188.898 168.728C189.346 168.877 189.709 169.107 189.986 169.416C190.274 169.715 190.418 170.152 190.418 170.728C190.429 171.443 190.157 172.035 189.602 172.504C189.058 172.963 188.317 173.192 187.378 173.192ZM199.282 165.064V173H198.066L197.986 171.576C197.73 172.077 197.362 172.472 196.882 172.76C196.402 173.048 195.858 173.192 195.25 173.192C194.312 173.192 193.56 172.909 192.994 172.344C192.44 171.768 192.162 170.888 192.162 169.704V165.064H193.506V169.56C193.506 171.213 194.189 172.04 195.554 172.04C196.237 172.04 196.802 171.795 197.25 171.304C197.709 170.803 197.938 170.093 197.938 169.176V165.064H199.282ZM201.495 176.52V165.064H202.711L202.839 166.376C203.095 165.992 203.457 165.645 203.927 165.336C204.407 165.027 205.015 164.872 205.751 164.872C206.54 164.872 207.228 165.053 207.815 165.416C208.401 165.779 208.855 166.275 209.175 166.904C209.505 167.533 209.671 168.248 209.671 169.048C209.671 169.848 209.505 170.563 209.175 171.192C208.855 171.811 208.396 172.301 207.799 172.664C207.212 173.016 206.524 173.192 205.735 173.192C205.084 173.192 204.503 173.059 203.991 172.792C203.489 172.525 203.105 172.152 202.839 171.672V176.52H201.495ZM205.591 172.024C206.124 172.024 206.593 171.901 206.999 171.656C207.404 171.4 207.724 171.048 207.959 170.6C208.193 170.152 208.311 169.629 208.311 169.032C208.311 168.435 208.193 167.912 207.959 167.464C207.724 167.016 207.404 166.669 206.999 166.424C206.593 166.168 206.124 166.04 205.591 166.04C205.057 166.04 204.588 166.168 204.183 166.424C203.777 166.669 203.457 167.016 203.223 167.464C202.988 167.912 202.871 168.435 202.871 169.032C202.871 169.629 202.988 170.152 203.223 170.6C203.457 171.048 203.777 171.4 204.183 171.656C204.588 171.901 205.057 172.024 205.591 172.024ZM211.542 176.52V165.064H212.758L212.886 166.376C213.142 165.992 213.504 165.645 213.974 165.336C214.454 165.027 215.062 164.872 215.798 164.872C216.587 164.872 217.275 165.053 217.862 165.416C218.448 165.779 218.902 166.275 219.222 166.904C219.552 167.533 219.718 168.248 219.718 169.048C219.718 169.848 219.552 170.563 219.222 171.192C218.902 171.811 218.443 172.301 217.846 172.664C217.259 173.016 216.571 173.192 215.782 173.192C215.131 173.192 214.55 173.059 214.038 172.792C213.536 172.525 213.152 172.152 212.886 171.672V176.52H211.542ZM215.638 172.024C216.171 172.024 216.64 171.901 217.046 171.656C217.451 171.4 217.771 171.048 218.006 170.6C218.24 170.152 218.358 169.629 218.358 169.032C218.358 168.435 218.24 167.912 218.006 167.464C217.771 167.016 217.451 166.669 217.046 166.424C216.64 166.168 216.171 166.04 215.638 166.04C215.104 166.04 214.635 166.168 214.23 166.424C213.824 166.669 213.504 167.016 213.27 167.464C213.035 167.912 212.918 168.435 212.918 169.032C212.918 169.629 213.035 170.152 213.27 170.6C213.504 171.048 213.824 171.4 214.23 171.656C214.635 171.901 215.104 172.024 215.638 172.024ZM221.588 173V161.48H222.932V173H221.588ZM225.951 163.304C225.685 163.304 225.461 163.219 225.279 163.048C225.109 162.867 225.023 162.643 225.023 162.376C225.023 162.12 225.109 161.907 225.279 161.736C225.461 161.565 225.685 161.48 225.951 161.48C226.207 161.48 226.426 161.565 226.607 161.736C226.789 161.907 226.879 162.12 226.879 162.376C226.879 162.643 226.789 162.867 226.607 163.048C226.426 163.219 226.207 163.304 225.951 163.304ZM225.279 173V165.064H226.623V173H225.279ZM232.531 173.192C231.774 173.192 231.102 173.021 230.515 172.68C229.929 172.328 229.465 171.843 229.123 171.224C228.793 170.605 228.627 169.875 228.627 169.032C228.627 168.2 228.793 167.475 229.123 166.856C229.454 166.227 229.913 165.741 230.499 165.4C231.097 165.048 231.785 164.872 232.563 164.872C233.331 164.872 233.993 165.048 234.547 165.4C235.113 165.741 235.545 166.195 235.843 166.76C236.142 167.325 236.291 167.933 236.291 168.584C236.291 168.701 236.286 168.819 236.275 168.936C236.275 169.053 236.275 169.187 236.275 169.336H229.955C229.987 169.944 230.126 170.451 230.371 170.856C230.627 171.251 230.942 171.549 231.315 171.752C231.699 171.955 232.105 172.056 232.531 172.056C233.086 172.056 233.55 171.928 233.923 171.672C234.297 171.416 234.569 171.069 234.739 170.632H236.067C235.854 171.368 235.443 171.981 234.835 172.472C234.238 172.952 233.47 173.192 232.531 173.192ZM232.531 166.008C231.891 166.008 231.321 166.205 230.819 166.6C230.329 166.984 230.046 167.549 229.971 168.296H234.963C234.931 167.581 234.686 167.021 234.227 166.616C233.769 166.211 233.203 166.008 232.531 166.008ZM241.113 173.192C240.163 173.192 239.374 172.952 238.745 172.472C238.115 171.992 237.747 171.341 237.641 170.52H239.017C239.102 170.936 239.321 171.299 239.673 171.608C240.035 171.907 240.521 172.056 241.129 172.056C241.694 172.056 242.11 171.939 242.377 171.704C242.643 171.459 242.777 171.171 242.777 170.84C242.777 170.36 242.601 170.04 242.249 169.88C241.907 169.72 241.422 169.576 240.793 169.448C240.366 169.363 239.939 169.24 239.513 169.08C239.086 168.92 238.729 168.696 238.441 168.408C238.153 168.109 238.009 167.72 238.009 167.24C238.009 166.547 238.265 165.981 238.777 165.544C239.299 165.096 240.003 164.872 240.889 164.872C241.731 164.872 242.419 165.085 242.953 165.512C243.497 165.928 243.811 166.525 243.897 167.304H242.569C242.515 166.899 242.339 166.584 242.041 166.36C241.753 166.125 241.363 166.008 240.873 166.008C240.393 166.008 240.019 166.109 239.753 166.312C239.497 166.515 239.369 166.781 239.369 167.112C239.369 167.432 239.534 167.683 239.865 167.864C240.206 168.045 240.665 168.2 241.241 168.328C241.731 168.435 242.195 168.568 242.633 168.728C243.081 168.877 243.443 169.107 243.721 169.416C244.009 169.715 244.153 170.152 244.153 170.728C244.163 171.443 243.891 172.035 243.337 172.504C242.793 172.963 242.051 173.192 241.113 173.192ZM251.123 163.304C250.856 163.304 250.632 163.219 250.451 163.048C250.28 162.867 250.195 162.643 250.195 162.376C250.195 162.12 250.28 161.907 250.451 161.736C250.632 161.565 250.856 161.48 251.123 161.48C251.379 161.48 251.598 161.565 251.779 161.736C251.96 161.907 252.051 162.12 252.051 162.376C252.051 162.643 251.96 162.867 251.779 163.048C251.598 163.219 251.379 163.304 251.123 163.304ZM250.451 173V165.064H251.795V173H250.451ZM257.271 173C256.546 173 255.975 172.824 255.559 172.472C255.143 172.12 254.935 171.485 254.935 170.568V166.2H253.559V165.064H254.935L255.111 163.16H256.279V165.064H258.615V166.2H256.279V170.568C256.279 171.069 256.381 171.411 256.583 171.592C256.786 171.763 257.143 171.848 257.655 171.848H258.487V173H257.271ZM266.157 173L263.837 165.064H265.181L266.861 171.288L268.717 165.064H270.237L272.109 171.288L273.773 165.064H275.133L272.813 173H271.437L269.485 166.456L267.533 173H266.157ZM277.436 163.304C277.169 163.304 276.945 163.219 276.764 163.048C276.593 162.867 276.508 162.643 276.508 162.376C276.508 162.12 276.593 161.907 276.764 161.736C276.945 161.565 277.169 161.48 277.436 161.48C277.692 161.48 277.91 161.565 278.092 161.736C278.273 161.907 278.364 162.12 278.364 162.376C278.364 162.643 278.273 162.867 278.092 163.048C277.91 163.219 277.692 163.304 277.436 163.304ZM276.764 173V165.064H278.108V173H276.764ZM283.584 173C282.858 173 282.288 172.824 281.872 172.472C281.456 172.12 281.248 171.485 281.248 170.568V166.2H279.872V165.064H281.248L281.424 163.16H282.592V165.064H284.928V166.2H282.592V170.568C282.592 171.069 282.693 171.411 282.896 171.592C283.098 171.763 283.456 171.848 283.968 171.848H284.8V173H283.584ZM286.635 173V161.48H287.979V166.424C288.246 165.933 288.625 165.555 289.115 165.288C289.606 165.011 290.139 164.872 290.715 164.872C291.633 164.872 292.369 165.16 292.923 165.736C293.478 166.301 293.755 167.176 293.755 168.36V173H292.427V168.504C292.427 166.851 291.761 166.024 290.427 166.024C289.734 166.024 289.153 166.275 288.683 166.776C288.214 167.267 287.979 167.971 287.979 168.888V173H286.635ZM4.24 205C3.51467 205 2.944 204.824 2.528 204.472C2.112 204.12 1.904 203.485 1.904 202.568V198.2H0.528V197.064H1.904L2.08 195.16H3.248V197.064H5.584V198.2H3.248V202.568C3.248 203.069 3.34933 203.411 3.552 203.592C3.75467 203.763 4.112 203.848 4.624 203.848H5.456V205H4.24ZM7.2915 205V193.48H8.6355V198.424C8.90217 197.933 9.28083 197.555 9.7715 197.288C10.2622 197.011 10.7955 196.872 11.3715 196.872C12.2888 196.872 13.0248 197.16 13.5795 197.736C14.1342 198.301 14.4115 199.176 14.4115 200.36V205H13.0835V200.504C13.0835 198.851 12.4168 198.024 11.0835 198.024C10.3902 198.024 9.80883 198.275 9.3395 198.776C8.87017 199.267 8.6355 199.971 8.6355 200.888V205H7.2915ZM20.0158 205.192C19.2584 205.192 18.5864 205.021 17.9998 204.68C17.4131 204.328 16.9491 203.843 16.6078 203.224C16.2771 202.605 16.1118 201.875 16.1118 201.032C16.1118 200.2 16.2771 199.475 16.6078 198.856C16.9384 198.227 17.3971 197.741 17.9838 197.4C18.5811 197.048 19.2691 196.872 20.0477 196.872C20.8158 196.872 21.4771 197.048 22.0318 197.4C22.5971 197.741 23.0291 198.195 23.3278 198.76C23.6264 199.325 23.7758 199.933 23.7758 200.584C23.7758 200.701 23.7704 200.819 23.7598 200.936C23.7598 201.053 23.7598 201.187 23.7598 201.336H17.4398C17.4718 201.944 17.6104 202.451 17.8558 202.856C18.1118 203.251 18.4264 203.549 18.7998 203.752C19.1838 203.955 19.5891 204.056 20.0158 204.056C20.5704 204.056 21.0344 203.928 21.4078 203.672C21.7811 203.416 22.0531 203.069 22.2238 202.632H23.5518C23.3384 203.368 22.9278 203.981 22.3198 204.472C21.7224 204.952 20.9544 205.192 20.0158 205.192ZM20.0158 198.008C19.3758 198.008 18.8051 198.205 18.3038 198.6C17.8131 198.984 17.5304 199.549 17.4557 200.296H22.4478C22.4158 199.581 22.1704 199.021 21.7118 198.616C21.2531 198.211 20.6878 198.008 20.0158 198.008ZM29.7915 205V197.064H31.0075L31.0875 198.488C31.3435 197.987 31.7115 197.592 32.1915 197.304C32.6715 197.016 33.2155 196.872 33.8235 196.872C34.7622 196.872 35.5088 197.16 36.0635 197.736C36.6288 198.301 36.9115 199.176 36.9115 200.36V205H35.5675V200.504C35.5675 198.851 34.8848 198.024 33.5195 198.024C32.8368 198.024 32.2662 198.275 31.8075 198.776C31.3595 199.267 31.1355 199.971 31.1355 200.888V205H29.7915ZM42.5158 205.192C41.7584 205.192 41.0864 205.021 40.4998 204.68C39.9131 204.328 39.4491 203.843 39.1078 203.224C38.7771 202.605 38.6118 201.875 38.6118 201.032C38.6118 200.2 38.7771 199.475 39.1078 198.856C39.4384 198.227 39.8971 197.741 40.4838 197.4C41.0811 197.048 41.7691 196.872 42.5477 196.872C43.3158 196.872 43.9771 197.048 44.5318 197.4C45.0971 197.741 45.5291 198.195 45.8278 198.76C46.1264 199.325 46.2758 199.933 46.2758 200.584C46.2758 200.701 46.2704 200.819 46.2598 200.936C46.2598 201.053 46.2598 201.187 46.2598 201.336H39.9398C39.9718 201.944 40.1104 202.451 40.3558 202.856C40.6118 203.251 40.9264 203.549 41.2998 203.752C41.6838 203.955 42.0891 204.056 42.5158 204.056C43.0704 204.056 43.5344 203.928 43.9078 203.672C44.2811 203.416 44.5531 203.069 44.7238 202.632H46.0518C45.8384 203.368 45.4278 203.981 44.8198 204.472C44.2224 204.952 43.4544 205.192 42.5158 205.192ZM42.5158 198.008C41.8758 198.008 41.3051 198.205 40.8038 198.6C40.3131 198.984 40.0304 199.549 39.9557 200.296H44.9478C44.9158 199.581 44.6704 199.021 44.2118 198.616C43.7531 198.211 43.1878 198.008 42.5158 198.008ZM51.7051 205.192C50.9478 205.192 50.2651 205.021 49.6571 204.68C49.0598 204.328 48.5851 203.843 48.2331 203.224C47.8918 202.595 47.7211 201.864 47.7211 201.032C47.7211 200.2 47.8918 199.475 48.2331 198.856C48.5851 198.227 49.0598 197.741 49.6571 197.4C50.2651 197.048 50.9478 196.872 51.7051 196.872C52.6438 196.872 53.4331 197.117 54.0731 197.608C54.7238 198.099 55.1345 198.755 55.3051 199.576H53.9291C53.8225 199.085 53.5611 198.707 53.1451 198.44C52.7291 198.163 52.2438 198.024 51.6891 198.024C51.2411 198.024 50.8198 198.136 50.4251 198.36C50.0305 198.584 49.7105 198.92 49.4651 199.368C49.2198 199.816 49.0971 200.371 49.0971 201.032C49.0971 201.693 49.2198 202.248 49.4651 202.696C49.7105 203.144 50.0305 203.485 50.4251 203.72C50.8198 203.944 51.2411 204.056 51.6891 204.056C52.2438 204.056 52.7291 203.923 53.1451 203.656C53.5611 203.379 53.8225 202.989 53.9291 202.488H55.3051C55.1451 203.288 54.7398 203.939 54.0891 204.44C53.4385 204.941 52.6438 205.192 51.7051 205.192ZM60.7501 205.192C59.9928 205.192 59.3208 205.021 58.7341 204.68C58.1475 204.328 57.6835 203.843 57.3421 203.224C57.0115 202.605 56.8461 201.875 56.8461 201.032C56.8461 200.2 57.0115 199.475 57.3421 198.856C57.6728 198.227 58.1315 197.741 58.7181 197.4C59.3155 197.048 60.0035 196.872 60.7821 196.872C61.5501 196.872 62.2115 197.048 62.7661 197.4C63.3315 197.741 63.7635 198.195 64.0621 198.76C64.3608 199.325 64.5101 199.933 64.5101 200.584C64.5101 200.701 64.5048 200.819 64.4941 200.936C64.4941 201.053 64.4941 201.187 64.4941 201.336H58.1741C58.2061 201.944 58.3448 202.451 58.5901 202.856C58.8461 203.251 59.1608 203.549 59.5341 203.752C59.9181 203.955 60.3235 204.056 60.7501 204.056C61.3048 204.056 61.7688 203.928 62.1421 203.672C62.5155 203.416 62.7875 203.069 62.9581 202.632H64.2861C64.0728 203.368 63.6621 203.981 63.0541 204.472C62.4568 204.952 61.6888 205.192 60.7501 205.192ZM60.7501 198.008C60.1101 198.008 59.5395 198.205 59.0381 198.6C58.5475 198.984 58.2648 199.549 58.1901 200.296H63.1821C63.1501 199.581 62.9048 199.021 62.4461 198.616C61.9875 198.211 61.4221 198.008 60.7501 198.008ZM69.3315 205.192C68.3822 205.192 67.5928 204.952 66.9635 204.472C66.3342 203.992 65.9662 203.341 65.8595 202.52H67.2355C67.3208 202.936 67.5395 203.299 67.8915 203.608C68.2542 203.907 68.7395 204.056 69.3475 204.056C69.9128 204.056 70.3288 203.939 70.5955 203.704C70.8622 203.459 70.9955 203.171 70.9955 202.84C70.9955 202.36 70.8195 202.04 70.4675 201.88C70.1262 201.72 69.6408 201.576 69.0115 201.448C68.5848 201.363 68.1582 201.24 67.7315 201.08C67.3048 200.92 66.9475 200.696 66.6595 200.408C66.3715 200.109 66.2275 199.72 66.2275 199.24C66.2275 198.547 66.4835 197.981 66.9955 197.544C67.5182 197.096 68.2222 196.872 69.1075 196.872C69.9502 196.872 70.6382 197.085 71.1715 197.512C71.7155 197.928 72.0302 198.525 72.1155 199.304H70.7875C70.7342 198.899 70.5582 198.584 70.2595 198.36C69.9715 198.125 69.5822 198.008 69.0915 198.008C68.6115 198.008 68.2382 198.109 67.9715 198.312C67.7155 198.515 67.5875 198.781 67.5875 199.112C67.5875 199.432 67.7528 199.683 68.0835 199.864C68.4248 200.045 68.8835 200.2 69.4595 200.328C69.9502 200.435 70.4142 200.568 70.8515 200.728C71.2995 200.877 71.6622 201.107 71.9395 201.416C72.2275 201.715 72.3715 202.152 72.3715 202.728C72.3822 203.443 72.1102 204.035 71.5555 204.504C71.0115 204.963 70.2702 205.192 69.3315 205.192ZM77.3315 205.192C76.3822 205.192 75.5928 204.952 74.9635 204.472C74.3342 203.992 73.9662 203.341 73.8595 202.52H75.2355C75.3208 202.936 75.5395 203.299 75.8915 203.608C76.2542 203.907 76.7395 204.056 77.3475 204.056C77.9128 204.056 78.3288 203.939 78.5955 203.704C78.8622 203.459 78.9955 203.171 78.9955 202.84C78.9955 202.36 78.8195 202.04 78.4675 201.88C78.1262 201.72 77.6408 201.576 77.0115 201.448C76.5848 201.363 76.1582 201.24 75.7315 201.08C75.3048 200.92 74.9475 200.696 74.6595 200.408C74.3715 200.109 74.2275 199.72 74.2275 199.24C74.2275 198.547 74.4835 197.981 74.9955 197.544C75.5182 197.096 76.2222 196.872 77.1075 196.872C77.9502 196.872 78.6382 197.085 79.1715 197.512C79.7155 197.928 80.0302 198.525 80.1155 199.304H78.7875C78.7342 198.899 78.5582 198.584 78.2595 198.36C77.9715 198.125 77.5822 198.008 77.0915 198.008C76.6115 198.008 76.2382 198.109 75.9715 198.312C75.7155 198.515 75.5875 198.781 75.5875 199.112C75.5875 199.432 75.7528 199.683 76.0835 199.864C76.4248 200.045 76.8835 200.2 77.4595 200.328C77.9502 200.435 78.4142 200.568 78.8515 200.728C79.2995 200.877 79.6622 201.107 79.9395 201.416C80.2275 201.715 80.3715 202.152 80.3715 202.728C80.3822 203.443 80.1102 204.035 79.5555 204.504C79.0115 204.963 78.2702 205.192 77.3315 205.192ZM84.9315 205.192C84.2702 205.192 83.7208 205.08 83.2835 204.856C82.8462 204.632 82.5208 204.333 82.3075 203.96C82.0942 203.587 81.9875 203.181 81.9875 202.744C81.9875 201.933 82.2968 201.309 82.9155 200.872C83.5342 200.435 84.3768 200.216 85.4435 200.216H87.5875V200.12C87.5875 199.427 87.4062 198.904 87.0435 198.552C86.6808 198.189 86.1955 198.008 85.5875 198.008C85.0648 198.008 84.6115 198.141 84.2275 198.408C83.8542 198.664 83.6195 199.043 83.5235 199.544H82.1475C82.2008 198.968 82.3928 198.483 82.7235 198.088C83.0648 197.693 83.4862 197.395 83.9875 197.192C84.4888 196.979 85.0222 196.872 85.5875 196.872C86.6968 196.872 87.5288 197.171 88.0835 197.768C88.6488 198.355 88.9315 199.139 88.9315 200.12V205H87.7315L87.6515 203.576C87.4275 204.024 87.0968 204.408 86.6595 204.728C86.2328 205.037 85.6568 205.192 84.9315 205.192ZM85.1395 204.056C85.6515 204.056 86.0888 203.923 86.4515 203.656C86.8248 203.389 87.1075 203.043 87.2995 202.616C87.4915 202.189 87.5875 201.741 87.5875 201.272V201.256H85.5555C84.7662 201.256 84.2062 201.395 83.8755 201.672C83.5555 201.939 83.3955 202.275 83.3955 202.68C83.3955 203.096 83.5448 203.432 83.8435 203.688C84.1528 203.933 84.5848 204.056 85.1395 204.056ZM90.9478 205V197.064H92.1638L92.2758 198.584C92.5211 198.061 92.8944 197.645 93.3958 197.336C93.8971 197.027 94.5158 196.872 95.2518 196.872V198.28H94.8838C94.4144 198.28 93.9824 198.365 93.5878 198.536C93.1931 198.696 92.8784 198.973 92.6438 199.368C92.4091 199.763 92.2918 200.307 92.2918 201V205H90.9478ZM97.6243 208.52L99.5923 204.232H99.1283L95.9763 197.064H97.4323L100.056 203.24L102.84 197.064H104.232L99.0323 208.52H97.6243ZM109.885 205V197.064H111.101L111.213 198.584C111.459 198.061 111.832 197.645 112.333 197.336C112.835 197.027 113.453 196.872 114.189 196.872V198.28H113.821C113.352 198.28 112.92 198.365 112.525 198.536C112.131 198.696 111.816 198.973 111.581 199.368C111.347 199.763 111.229 200.307 111.229 201V205H109.885ZM118.969 205.192C118.212 205.192 117.54 205.021 116.953 204.68C116.366 204.328 115.902 203.843 115.561 203.224C115.23 202.605 115.065 201.875 115.065 201.032C115.065 200.2 115.23 199.475 115.561 198.856C115.892 198.227 116.35 197.741 116.937 197.4C117.534 197.048 118.222 196.872 119.001 196.872C119.769 196.872 120.43 197.048 120.985 197.4C121.55 197.741 121.982 198.195 122.281 198.76C122.58 199.325 122.729 199.933 122.729 200.584C122.729 200.701 122.724 200.819 122.713 200.936C122.713 201.053 122.713 201.187 122.713 201.336H116.393C116.425 201.944 116.564 202.451 116.809 202.856C117.065 203.251 117.38 203.549 117.753 203.752C118.137 203.955 118.542 204.056 118.969 204.056C119.524 204.056 119.988 203.928 120.361 203.672C120.734 203.416 121.006 203.069 121.177 202.632H122.505C122.292 203.368 121.881 203.981 121.273 204.472C120.676 204.952 119.908 205.192 118.969 205.192ZM118.969 198.008C118.329 198.008 117.758 198.205 117.257 198.6C116.766 198.984 116.484 199.549 116.409 200.296H121.401C121.369 199.581 121.124 199.021 120.665 198.616C120.206 198.211 119.641 198.008 118.969 198.008ZM127.599 202.504C127.151 202.504 126.741 202.445 126.367 202.328L125.567 203.08C125.685 203.165 125.829 203.24 125.999 203.304C126.181 203.357 126.437 203.411 126.767 203.464C127.098 203.507 127.562 203.555 128.159 203.608C129.226 203.683 129.989 203.928 130.447 204.344C130.906 204.76 131.135 205.304 131.135 205.976C131.135 206.435 131.007 206.872 130.751 207.288C130.506 207.704 130.122 208.045 129.599 208.312C129.087 208.579 128.426 208.712 127.615 208.712C126.901 208.712 126.266 208.616 125.711 208.424C125.157 208.243 124.725 207.96 124.415 207.576C124.106 207.203 123.951 206.728 123.951 206.152C123.951 205.853 124.031 205.528 124.191 205.176C124.351 204.835 124.65 204.509 125.087 204.2C124.853 204.104 124.65 204.003 124.479 203.896C124.319 203.779 124.17 203.651 124.031 203.512V203.144L125.391 201.8C124.762 201.267 124.447 200.563 124.447 199.688C124.447 199.165 124.57 198.691 124.815 198.264C125.061 197.837 125.418 197.501 125.887 197.256C126.357 197 126.927 196.872 127.599 196.872C128.058 196.872 128.474 196.936 128.847 197.064H131.775V198.072L130.287 198.136C130.597 198.584 130.751 199.101 130.751 199.688C130.751 200.211 130.623 200.685 130.367 201.112C130.122 201.539 129.765 201.88 129.295 202.136C128.837 202.381 128.271 202.504 127.599 202.504ZM127.599 201.4C128.165 201.4 128.613 201.256 128.943 200.968C129.285 200.669 129.455 200.243 129.455 199.688C129.455 199.144 129.285 198.728 128.943 198.44C128.613 198.141 128.165 197.992 127.599 197.992C127.023 197.992 126.565 198.141 126.223 198.44C125.893 198.728 125.727 199.144 125.727 199.688C125.727 200.243 125.893 200.669 126.223 200.968C126.565 201.256 127.023 201.4 127.599 201.4ZM125.263 206.024C125.263 206.557 125.487 206.952 125.935 207.208C126.383 207.475 126.943 207.608 127.615 207.608C128.277 207.608 128.805 207.464 129.199 207.176C129.605 206.888 129.807 206.504 129.807 206.024C129.807 205.683 129.669 205.384 129.391 205.128C129.114 204.883 128.602 204.739 127.855 204.696C127.269 204.653 126.762 204.6 126.335 204.536C125.898 204.771 125.61 205.021 125.471 205.288C125.333 205.565 125.263 205.811 125.263 206.024ZM136.547 205.192C135.79 205.192 135.118 205.021 134.531 204.68C133.944 204.328 133.48 203.843 133.139 203.224C132.808 202.605 132.643 201.875 132.643 201.032C132.643 200.2 132.808 199.475 133.139 198.856C133.47 198.227 133.928 197.741 134.515 197.4C135.112 197.048 135.8 196.872 136.579 196.872C137.347 196.872 138.008 197.048 138.563 197.4C139.128 197.741 139.56 198.195 139.859 198.76C140.158 199.325 140.307 199.933 140.307 200.584C140.307 200.701 140.302 200.819 140.291 200.936C140.291 201.053 140.291 201.187 140.291 201.336H133.971C134.003 201.944 134.142 202.451 134.387 202.856C134.643 203.251 134.958 203.549 135.331 203.752C135.715 203.955 136.12 204.056 136.547 204.056C137.102 204.056 137.566 203.928 137.939 203.672C138.312 203.416 138.584 203.069 138.755 202.632H140.083C139.87 203.368 139.459 203.981 138.851 204.472C138.254 204.952 137.486 205.192 136.547 205.192ZM136.547 198.008C135.907 198.008 135.336 198.205 134.835 198.6C134.344 198.984 134.062 199.549 133.987 200.296H138.979C138.947 199.581 138.702 199.021 138.243 198.616C137.784 198.211 137.219 198.008 136.547 198.008ZM142.088 205V193.48H143.432V205H142.088ZM146.451 195.304C146.185 195.304 145.961 195.219 145.779 195.048C145.609 194.867 145.523 194.643 145.523 194.376C145.523 194.12 145.609 193.907 145.779 193.736C145.961 193.565 146.185 193.48 146.451 193.48C146.707 193.48 146.926 193.565 147.107 193.736C147.289 193.907 147.379 194.12 147.379 194.376C147.379 194.643 147.289 194.867 147.107 195.048C146.926 195.219 146.707 195.304 146.451 195.304ZM145.779 205V197.064H147.123V205H145.779ZM152.103 205.192C151.442 205.192 150.893 205.08 150.455 204.856C150.018 204.632 149.693 204.333 149.479 203.96C149.266 203.587 149.159 203.181 149.159 202.744C149.159 201.933 149.469 201.309 150.087 200.872C150.706 200.435 151.549 200.216 152.615 200.216H154.759V200.12C154.759 199.427 154.578 198.904 154.215 198.552C153.853 198.189 153.367 198.008 152.759 198.008C152.237 198.008 151.783 198.141 151.399 198.408C151.026 198.664 150.791 199.043 150.695 199.544H149.319C149.373 198.968 149.565 198.483 149.895 198.088C150.237 197.693 150.658 197.395 151.159 197.192C151.661 196.979 152.194 196.872 152.759 196.872C153.869 196.872 154.701 197.171 155.255 197.768C155.821 198.355 156.103 199.139 156.103 200.12V205H154.903L154.823 203.576C154.599 204.024 154.269 204.408 153.831 204.728C153.405 205.037 152.829 205.192 152.103 205.192ZM152.311 204.056C152.823 204.056 153.261 203.923 153.623 203.656C153.997 203.389 154.279 203.043 154.471 202.616C154.663 202.189 154.759 201.741 154.759 201.272V201.256H152.727C151.938 201.256 151.378 201.395 151.047 201.672C150.727 201.939 150.567 202.275 150.567 202.68C150.567 203.096 150.717 203.432 151.015 203.688C151.325 203.933 151.757 204.056 152.311 204.056ZM158.12 205V193.48H159.464V205H158.12ZM162.483 195.304C162.216 195.304 161.992 195.219 161.811 195.048C161.64 194.867 161.555 194.643 161.555 194.376C161.555 194.12 161.64 193.907 161.811 193.736C161.992 193.565 162.216 193.48 162.483 193.48C162.739 193.48 162.957 193.565 163.139 193.736C163.32 193.907 163.411 194.12 163.411 194.376C163.411 194.643 163.32 194.867 163.139 195.048C162.957 195.219 162.739 195.304 162.483 195.304ZM161.811 205V197.064H163.155V205H161.811ZM168.135 205.192C167.473 205.192 166.924 205.08 166.487 204.856C166.049 204.632 165.724 204.333 165.511 203.96C165.297 203.587 165.191 203.181 165.191 202.744C165.191 201.933 165.5 201.309 166.119 200.872C166.737 200.435 167.58 200.216 168.647 200.216H170.791V200.12C170.791 199.427 170.609 198.904 170.247 198.552C169.884 198.189 169.399 198.008 168.791 198.008C168.268 198.008 167.815 198.141 167.431 198.408C167.057 198.664 166.823 199.043 166.727 199.544H165.351C165.404 198.968 165.596 198.483 165.927 198.088C166.268 197.693 166.689 197.395 167.191 197.192C167.692 196.979 168.225 196.872 168.791 196.872C169.9 196.872 170.732 197.171 171.287 197.768C171.852 198.355 172.135 199.139 172.135 200.12V205H170.935L170.855 203.576C170.631 204.024 170.3 204.408 169.863 204.728C169.436 205.037 168.86 205.192 168.135 205.192ZM168.343 204.056C168.855 204.056 169.292 203.923 169.655 203.656C170.028 203.389 170.311 203.043 170.503 202.616C170.695 202.189 170.791 201.741 170.791 201.272V201.256H168.759C167.969 201.256 167.409 201.395 167.079 201.672C166.759 201.939 166.599 202.275 166.599 202.68C166.599 203.096 166.748 203.432 167.047 203.688C167.356 203.933 167.788 204.056 168.343 204.056ZM174.615 205.08C174.348 205.08 174.124 204.995 173.943 204.824C173.772 204.643 173.687 204.424 173.687 204.168C173.687 203.912 173.772 203.699 173.943 203.528C174.124 203.347 174.348 203.256 174.615 203.256C174.871 203.256 175.084 203.347 175.255 203.528C175.436 203.699 175.527 203.912 175.527 204.168C175.527 204.424 175.436 204.643 175.255 204.824C175.084 204.995 174.871 205.08 174.615 205.08Z" fill="white" fill-opacity="0.502972"/>
<path d="M630.758 202.285C629.612 202.012 628.427 201.53 627.203 200.84V202.207H622.125V193.77H627.203C627.49 194.993 628.082 195.951 628.98 196.641C629.879 197.331 630.888 197.676 632.008 197.676C632.776 197.676 633.336 197.533 633.688 197.246C634.052 196.947 634.234 196.628 634.234 196.289C634.234 195.729 633.928 195.293 633.316 194.98C632.704 194.668 631.943 194.388 631.031 194.141C630.133 193.893 629.15 193.62 628.082 193.32C627.014 193.021 626.025 192.585 625.113 192.012C624.215 191.439 623.453 190.69 622.828 189.766C622.216 188.828 621.91 187.598 621.91 186.074C621.91 184.954 622.151 183.971 622.633 183.125C623.115 182.266 623.759 181.543 624.566 180.957C625.387 180.371 626.331 179.922 627.398 179.609C628.466 179.284 629.586 179.121 630.758 179.121V175.84H634.723V179.609C635.361 179.792 635.934 180 636.441 180.234C636.949 180.456 637.372 180.671 637.711 180.879V179.473H642.848V187.715H637.711C637.633 187.181 637.444 186.693 637.145 186.25C636.858 185.794 636.507 185.41 636.09 185.098C635.686 184.772 635.23 184.518 634.723 184.336C634.215 184.141 633.707 184.043 633.199 184.043C632.561 184.043 632.034 184.167 631.617 184.414C631.201 184.648 630.992 184.993 630.992 185.449C630.992 186.009 631.305 186.439 631.93 186.738C632.568 187.025 633.342 187.298 634.254 187.559C635.178 187.806 636.188 188.086 637.281 188.398C638.375 188.698 639.378 189.134 640.289 189.707C641.214 190.28 641.988 191.048 642.613 192.012C643.238 192.962 643.551 194.212 643.551 195.762C643.551 196.908 643.31 197.904 642.828 198.75C642.359 199.583 641.715 200.28 640.895 200.84C640.087 201.4 639.15 201.823 638.082 202.109C637.014 202.383 635.895 202.546 634.723 202.598V205.801H630.758V202.285ZM662.535 192.676C661.845 193.105 661.025 193.477 660.074 193.789C659.137 194.089 657.958 194.238 656.539 194.238C653.049 194.238 650.348 193.496 648.434 192.012C646.533 190.514 645.582 188.392 645.582 185.645C645.582 184.147 645.895 182.793 646.52 181.582C647.145 180.371 648.023 179.342 649.156 178.496C650.289 177.637 651.656 176.979 653.258 176.523C654.859 176.068 656.65 175.84 658.629 175.84C660.725 175.84 662.659 176.152 664.43 176.777C666.214 177.402 667.743 178.327 669.02 179.551C670.296 180.762 671.292 182.279 672.008 184.102C672.737 185.924 673.102 188.04 673.102 190.449C673.102 192.871 672.698 195.039 671.891 196.953C671.096 198.854 669.983 200.469 668.551 201.797C667.132 203.112 665.452 204.115 663.512 204.805C661.585 205.495 659.501 205.84 657.262 205.84C655.4 205.84 653.798 205.664 652.457 205.312C651.129 204.974 650.029 204.505 649.156 203.906C648.297 203.307 647.659 202.611 647.242 201.816C646.826 201.009 646.617 200.163 646.617 199.277C646.617 198.457 646.747 197.754 647.008 197.168C647.281 196.582 647.652 196.1 648.121 195.723C648.59 195.345 649.117 195.072 649.703 194.902C650.289 194.733 650.901 194.648 651.539 194.648C652.906 194.648 653.961 194.922 654.703 195.469C655.445 196.016 655.816 196.777 655.816 197.754C655.816 198.288 655.738 198.73 655.582 199.082C655.426 199.434 655.217 199.72 654.957 199.941C654.71 200.163 654.443 200.339 654.156 200.469C653.883 200.586 653.622 200.671 653.375 200.723C653.674 200.879 654.013 201.029 654.391 201.172C654.781 201.302 655.38 201.367 656.188 201.367C657.034 201.367 657.841 201.191 658.609 200.84C659.391 200.488 660.068 199.954 660.641 199.238C661.214 198.522 661.669 197.617 662.008 196.523C662.359 195.43 662.535 194.147 662.535 192.676ZM658.336 181.152C657.32 181.152 656.572 181.53 656.09 182.285C655.621 183.027 655.387 183.997 655.387 185.195C655.387 186.393 655.621 187.37 656.09 188.125C656.572 188.867 657.32 189.238 658.336 189.238C659.352 189.238 660.1 188.867 660.582 188.125C661.064 187.37 661.305 186.393 661.305 185.195C661.305 183.997 661.064 183.027 660.582 182.285C660.1 181.53 659.352 181.152 658.336 181.152Z" fill="white"/>
<path d="M1.008 0.039999H3.984C5.15733 0.039999 6.02667 0.306666 6.592 0.839999C7.15733 1.36267 7.44 2.17867 7.44 3.288C7.44 4.94133 6.82133 5.85333 5.584 6.024C6.352 6.20533 6.912 6.568 7.264 7.112C7.616 7.64533 7.792 8.376 7.792 9.304C7.792 10.4667 7.51467 11.3733 6.96 12.024C6.416 12.6747 5.584 13 4.464 13H1.008V0.039999ZM3.888 5.448C4.63467 5.448 5.152 5.288 5.44 4.968C5.728 4.63733 5.872 4.07733 5.872 3.288C5.872 2.712 5.78133 2.29067 5.6 2.024C5.42933 1.74667 5.168 1.57067 4.816 1.496C4.464 1.42133 3.94133 1.384 3.248 1.384H2.816V5.448H3.888ZM4.032 11.704C4.56533 11.704 4.976 11.624 5.264 11.464C5.56267 11.2933 5.77067 11.0373 5.888 10.696C6.00533 10.3547 6.064 9.89067 6.064 9.304C6.064 8.472 5.89333 7.85333 5.552 7.448C5.21067 7.032 4.656 6.824 3.888 6.824H2.816V11.704H4.032ZM14.4466 0.039999H16.1906L18.9586 13H17.2466L16.6546 9.736H14.0146L13.3906 13H11.6946L14.4466 0.039999ZM16.4146 8.44L15.3266 2.6L14.2546 8.44H16.4146ZM23.2736 0.039999H25.0816V6.152L28.0576 0.039999H29.7376L27.1776 5.752L30.1536 13H28.3936L25.9136 6.92L25.0816 8.424V13H23.2736V0.039999ZM34.1955 0.039999H39.2195V1.384H36.0035V5.672H38.6115V6.952H36.0035V11.704H39.2515V13H34.1955V0.039999ZM43.7111 0.039999H46.3191C47.6311 0.039999 48.5911 0.311999 49.1991 0.855999C49.8178 1.38933 50.1271 2.264 50.1271 3.48C50.1271 5.144 49.5938 6.152 48.5271 6.504L50.3671 13H48.6231L46.9271 6.92H45.5191V13H43.7111V0.039999ZM46.2071 5.624C46.9858 5.624 47.5405 5.46933 47.8711 5.16C48.2125 4.85067 48.3831 4.29067 48.3831 3.48C48.3831 2.94667 48.3245 2.53067 48.2071 2.232C48.0898 1.92267 47.8818 1.69867 47.5831 1.56C47.2845 1.41067 46.8631 1.336 46.3191 1.336H45.5191V5.624H46.2071ZM56.992 8.424L54.192 0.039999H55.872L57.856 6.296L59.808 0.039999H61.504L58.72 8.424V13H56.992V8.424Z" fill="white"/>
</svg>
