<svg width="253" height="356" viewBox="0 0 253 356" fill="none" xmlns="http://www.w3.org/2000/svg">
<path fill-rule="evenodd" clip-rule="evenodd" d="M253 117.58C236.368 135.666 212.508 147 186 147C135.742 147 95 106.258 95 56C95 34.8806 102.194 15.4416 114.266 0H253V117.58Z" fill="#F5A623"/>
<mask id="mask0_0_1" style="mask-type:luminance" maskUnits="userSpaceOnUse" x="95" y="0" width="158" height="147">
<path fill-rule="evenodd" clip-rule="evenodd" d="M253 117.58C236.368 135.666 212.508 147 186 147C135.742 147 95 106.258 95 56C95 34.8806 102.194 15.4416 114.266 0H253V117.58Z" fill="white"/>
</mask>
<g mask="url(#mask0_0_1)">
</g>
<path d="M4.144 64.144C3.07733 64.144 2.272 63.7973 1.728 63.104C1.19467 62.4107 0.928 61.4827 0.928 60.32V54.736C0.928 53.552 1.18933 52.624 1.712 51.952C2.24533 51.2693 3.056 50.928 4.144 50.928C5.22133 50.928 6.02133 51.2693 6.544 51.952C7.07733 52.624 7.344 53.552 7.344 54.736V60.32C7.344 61.4933 7.07733 62.4267 6.544 63.12C6.01067 63.8027 5.21067 64.144 4.144 64.144ZM4.144 62.736C5.12533 62.736 5.616 61.936 5.616 60.336V54.72C5.616 53.984 5.50933 53.4027 5.296 52.976C5.09333 52.5387 4.70933 52.32 4.144 52.32C3.57867 52.32 3.18933 52.5387 2.976 52.976C2.76267 53.4027 2.656 53.984 2.656 54.72V60.336C2.656 61.936 3.152 62.736 4.144 62.736ZM11.9216 62.784L15.2176 57.648C15.3776 57.392 15.4843 57.232 15.5376 57.168C15.911 56.5707 16.183 56.0747 16.3536 55.68C16.5243 55.2853 16.6096 54.8107 16.6096 54.256C16.6096 53.6373 16.5083 53.1627 16.3056 52.832C16.103 52.5013 15.7723 52.336 15.3136 52.336C14.2896 52.336 13.7776 53.1307 13.7776 54.72V55.152H12.0656V54.704C12.0656 53.488 12.3163 52.5547 12.8176 51.904C13.319 51.2533 14.1243 50.928 15.2336 50.928C16.2576 50.928 17.031 51.2213 17.5536 51.808C18.0763 52.384 18.3376 53.2053 18.3376 54.272C18.3376 54.7947 18.2736 55.264 18.1456 55.68C18.0283 56.0853 17.8843 56.4373 17.7136 56.736C17.543 57.0347 17.2763 57.4613 16.9136 58.016L13.9376 62.56H18.0336V64H11.9216V62.784Z" fill="#171B1B"/>
<path d="M32.0312 202.398C32.0312 206.565 29.8633 208.844 25.5273 209.234V209.449C27.793 209.501 29.5768 210.12 30.8789 211.305C32.181 212.49 32.832 214.202 32.832 216.441C32.832 217.379 32.7214 218.303 32.5 219.215C32.2786 220.113 31.7969 220.914 31.0547 221.617C30.3255 222.32 29.2643 222.893 27.8711 223.336C26.4909 223.779 24.6289 224 22.2852 224H0.800781V216.754C1.94661 216.754 2.76693 216.604 3.26172 216.305C3.75651 215.992 4.00391 215.413 4.00391 214.566V204.684C4.00391 203.824 3.75651 203.245 3.26172 202.945C2.76693 202.633 1.94661 202.477 0.800781 202.477V195.23H23.6328C25.4297 195.23 26.8815 195.432 27.9883 195.836C29.0951 196.24 29.9479 196.773 30.5469 197.438C31.1458 198.102 31.543 198.87 31.7383 199.742C31.9336 200.602 32.0312 201.487 32.0312 202.398ZM18.4375 216.754C19.5312 216.754 20.2865 216.546 20.7031 216.129C21.1198 215.699 21.3281 214.99 21.3281 214C21.3281 213.01 21.1198 212.294 20.7031 211.852C20.2865 211.396 19.5312 211.168 18.4375 211.168H15.5273V216.754H18.4375ZM15.5273 207.711H18.4766C19.2839 207.711 19.8633 207.457 20.2148 206.949C20.5794 206.428 20.7617 205.803 20.7617 205.074C20.7617 204.384 20.5794 203.779 20.2148 203.258C19.8633 202.737 19.2839 202.477 18.4766 202.477H15.5273V207.711ZM44.8633 205.191C44.1992 205.191 43.6263 205.243 43.1445 205.348C42.6758 205.439 42.2721 205.549 41.9336 205.68C41.5951 205.81 41.3151 205.96 41.0938 206.129C40.8724 206.285 40.6771 206.428 40.5078 206.559L40.7031 206.754C40.9505 206.624 41.2174 206.493 41.5039 206.363C41.8034 206.233 42.181 206.168 42.6367 206.168C43.4049 206.168 44.069 206.422 44.6289 206.93C45.1888 207.424 45.4688 208.219 45.4688 209.312C45.4688 210.354 45.0391 211.194 44.1797 211.832C43.3333 212.457 42.194 212.77 40.7617 212.77C39.3945 212.77 38.3008 212.379 37.4805 211.598C36.6732 210.803 36.2695 209.684 36.2695 208.238C36.2695 207.444 36.4909 206.656 36.9336 205.875C37.3763 205.081 38.0599 204.371 38.9844 203.746C39.9219 203.121 41.1068 202.607 42.5391 202.203C43.9844 201.799 45.7227 201.598 47.7539 201.598C50.1758 201.598 52.1549 201.826 53.6914 202.281C55.2279 202.737 56.4193 203.323 57.2656 204.039C58.125 204.755 58.7109 205.569 59.0234 206.48C59.349 207.392 59.5117 208.31 59.5117 209.234V216.871C59.5117 218.056 59.5508 218.863 59.6289 219.293C59.707 219.71 60 219.918 60.5078 219.918C60.9115 219.918 61.1914 219.729 61.3477 219.352C61.5169 218.961 61.6016 218.297 61.6016 217.359V214.918H63.8281V217.398C63.8281 218.57 63.7305 219.612 63.5352 220.523C63.3398 221.422 62.9688 222.197 62.4219 222.848C61.875 223.486 61.1328 223.967 60.1953 224.293C59.2578 224.632 58.0599 224.801 56.6016 224.801C55.2865 224.801 54.1927 224.658 53.3203 224.371C52.4609 224.098 51.7773 223.753 51.2695 223.336C50.7617 222.919 50.3971 222.49 50.1758 222.047C49.9674 221.591 49.8633 221.188 49.8633 220.836H49.5508C49.4727 221.37 49.2448 221.878 48.8672 222.359C48.5026 222.841 47.9883 223.271 47.3242 223.648C46.6732 224.013 45.8854 224.306 44.9609 224.527C44.0495 224.762 43.0078 224.879 41.8359 224.879C40.7161 224.879 39.694 224.768 38.7695 224.547C37.8581 224.339 37.0768 224.007 36.4258 223.551C35.7878 223.082 35.2865 222.483 34.9219 221.754C34.5703 221.012 34.3945 220.133 34.3945 219.117C34.3945 217.867 34.7461 216.884 35.4492 216.168C36.1523 215.439 37.0378 214.866 38.1055 214.449C39.1732 214.02 40.332 213.674 41.582 213.414C42.8451 213.141 44.0104 212.815 45.0781 212.438C46.1458 212.06 47.0312 211.572 47.7344 210.973C48.4375 210.374 48.7891 209.527 48.7891 208.434C48.7891 207.457 48.4831 206.676 47.8711 206.09C47.2591 205.491 46.2565 205.191 44.8633 205.191ZM48.7891 213.648C48.5026 214.065 48.1445 214.404 47.7148 214.664C47.2852 214.911 46.8685 215.159 46.4648 215.406C46.0742 215.641 45.7292 215.927 45.4297 216.266C45.1432 216.591 45 217.034 45 217.594C45 218.023 45.1172 218.414 45.3516 218.766C45.5859 219.104 46.0417 219.273 46.7188 219.273C47.3307 219.273 47.8255 219.039 48.2031 218.57C48.5938 218.089 48.7891 217.418 48.7891 216.559V213.648ZM78.75 195.23V212.047L81.3867 210.758C81.8424 210.549 82.1354 210.374 82.2656 210.23C82.4089 210.074 82.4805 209.931 82.4805 209.801C82.4805 209.475 82.1354 209.312 81.4453 209.312H80.5469V202.477H95.3906V209.312H94.1992C93.4831 209.312 92.7474 209.358 91.9922 209.449C91.25 209.527 90.5599 209.71 89.9219 209.996L89.043 210.445L93.6328 215.367C94.1927 215.979 94.7201 216.363 95.2148 216.52C95.7096 216.676 96.4258 216.754 97.3633 216.754V224H80.4297V216.754H81.4453C81.9141 216.754 82.2266 216.689 82.3828 216.559C82.5521 216.428 82.6367 216.253 82.6367 216.031C82.6367 215.875 82.526 215.667 82.3047 215.406C82.0964 215.133 81.6992 214.729 81.1133 214.195L78.75 215.367V224H65.1172V216.754H65.8789C66.569 216.754 67.0768 216.539 67.4023 216.109C67.7409 215.667 67.9102 215.191 67.9102 214.684V204.684C67.9102 203.928 67.6693 203.375 67.1875 203.023C66.7188 202.659 66.1719 202.477 65.5469 202.477H65.1172V195.23H78.75ZM113.008 202.477V214.645C113.008 215.517 113.223 216.09 113.652 216.363C114.082 216.624 114.629 216.754 115.293 216.754H115.82V224H99.375V216.754H100.137C100.827 216.754 101.335 216.539 101.66 216.109C101.999 215.667 102.168 215.191 102.168 214.684V211.93C102.168 211.174 101.927 210.621 101.445 210.27C100.977 209.905 100.43 209.723 99.8047 209.723H99.375V202.477H113.008ZM101.855 197.672C101.855 196.552 102.279 195.595 103.125 194.801C103.984 194.007 105.202 193.609 106.777 193.609C108.379 193.609 109.609 194.007 110.469 194.801C111.341 195.595 111.777 196.552 111.777 197.672C111.777 198.818 111.341 199.788 110.469 200.582C109.609 201.363 108.379 201.754 106.777 201.754C105.202 201.754 103.984 201.363 103.125 200.582C102.279 199.788 101.855 198.818 101.855 197.672ZM135.82 211.52C135.82 211.012 135.755 210.608 135.625 210.309C135.508 209.996 135.352 209.762 135.156 209.605C134.974 209.436 134.766 209.326 134.531 209.273C134.297 209.221 134.069 209.195 133.848 209.195C133.001 209.195 132.37 209.443 131.953 209.938C131.536 210.432 131.328 211.135 131.328 212.047V214.84C131.328 215.53 131.445 216.025 131.68 216.324C131.927 216.611 132.396 216.754 133.086 216.754H134.141V224H117.812V216.754H118.965C119.499 216.754 119.902 216.585 120.176 216.246C120.462 215.895 120.605 215.478 120.605 214.996V211.285C120.605 210.673 120.423 210.263 120.059 210.055C119.707 209.833 119.303 209.723 118.848 209.723H117.812V202.477H129.414L129.004 207.848H129.336C129.622 205.842 130.501 204.299 131.973 203.219C133.444 202.138 135.443 201.598 137.969 201.598C139.753 201.598 141.204 201.852 142.324 202.359C143.444 202.867 144.31 203.512 144.922 204.293C145.547 205.061 145.97 205.901 146.191 206.812C146.413 207.711 146.523 208.557 146.523 209.352V214.84C146.523 215.53 146.641 216.025 146.875 216.324C147.122 216.611 147.591 216.754 148.281 216.754H149.336V224H135.82V211.52ZM179.199 227.555C179.199 229.768 177.923 231.461 175.371 232.633C172.832 233.805 169.154 234.391 164.336 234.391C162.591 234.391 160.892 234.365 159.238 234.312C157.585 234.26 156.12 234.085 154.844 233.785C153.568 233.499 152.539 233.036 151.758 232.398C150.99 231.76 150.605 230.855 150.605 229.684C150.605 228.746 150.905 227.978 151.504 227.379C152.103 226.78 152.747 226.305 153.438 225.953C152.591 225.445 152.012 224.879 151.699 224.254C151.4 223.629 151.25 222.945 151.25 222.203C151.25 221.318 151.569 220.471 152.207 219.664C152.845 218.844 153.763 218.049 154.961 217.281C153.789 216.513 152.891 215.576 152.266 214.469C151.641 213.362 151.328 212.047 151.328 210.523C151.328 209.052 151.634 207.763 152.246 206.656C152.858 205.549 153.737 204.625 154.883 203.883C156.029 203.141 157.396 202.574 158.984 202.184C160.573 201.793 162.357 201.598 164.336 201.598C166.458 201.598 168.372 201.826 170.078 202.281C171.797 202.737 173.255 203.427 174.453 204.352C174.688 204.039 175.007 203.733 175.41 203.434C175.749 203.199 176.178 202.984 176.699 202.789C177.22 202.581 177.858 202.477 178.613 202.477H180.41V209.723H179.121C178.561 209.723 178.132 209.879 177.832 210.191C177.546 210.491 177.376 210.784 177.324 211.07C176.868 213.818 175.54 215.914 173.34 217.359C171.139 218.805 168.138 219.527 164.336 219.527C162.201 219.527 160.267 219.299 158.535 218.844C158.262 219.026 158.125 219.254 158.125 219.527C158.125 220.035 158.424 220.393 159.023 220.602C159.622 220.81 160.417 220.953 161.406 221.031C162.396 221.096 163.522 221.122 164.785 221.109C166.048 221.083 167.337 221.103 168.652 221.168C169.98 221.22 171.276 221.337 172.539 221.52C173.815 221.702 174.941 222.027 175.918 222.496C176.908 222.965 177.702 223.603 178.301 224.41C178.9 225.23 179.199 226.279 179.199 227.555ZM161.602 210.523C161.602 211.878 161.79 212.926 162.168 213.668C162.546 214.397 163.268 214.762 164.336 214.762C165.417 214.762 166.146 214.397 166.523 213.668C166.901 212.926 167.09 211.878 167.09 210.523C167.09 209.182 166.901 208.16 166.523 207.457C166.146 206.754 165.417 206.402 164.336 206.402C163.268 206.402 162.546 206.754 162.168 207.457C161.79 208.16 161.602 209.182 161.602 210.523ZM165.215 227.848C163.822 227.848 162.559 227.809 161.426 227.73C160.293 227.665 159.271 227.568 158.359 227.438C158.229 227.659 158.164 227.887 158.164 228.121C158.164 229.059 158.672 229.671 159.688 229.957C160.703 230.257 162.038 230.406 163.691 230.406C165.905 230.406 167.52 230.27 168.535 229.996C169.564 229.736 170.078 229.365 170.078 228.883C170.078 228.635 169.928 228.447 169.629 228.316C169.342 228.186 168.958 228.082 168.477 228.004C168.008 227.926 167.487 227.88 166.914 227.867C166.341 227.854 165.775 227.848 165.215 227.848Z" fill="#171B1B"/>
<path d="M3.808 288V277.904H0.464V276.8H8.496V277.904H5.152V288H3.808ZM10.0571 288V276.48H11.4011V281.424C11.6678 280.933 12.0465 280.555 12.5371 280.288C13.0278 280.011 13.5611 279.872 14.1371 279.872C15.0545 279.872 15.7905 280.16 16.3451 280.736C16.8998 281.301 17.1771 282.176 17.1771 283.36V288H15.8491V283.504C15.8491 281.851 15.1825 281.024 13.8491 281.024C13.1558 281.024 12.5745 281.275 12.1051 281.776C11.6358 282.267 11.4011 282.971 11.4011 283.888V288H10.0571ZM22.7814 288.192C22.024 288.192 21.352 288.021 20.7654 287.68C20.1787 287.328 19.7147 286.843 19.3734 286.224C19.0427 285.605 18.8774 284.875 18.8774 284.032C18.8774 283.2 19.0427 282.475 19.3734 281.856C19.704 281.227 20.1627 280.741 20.7494 280.4C21.3467 280.048 22.0347 279.872 22.8134 279.872C23.5814 279.872 24.2427 280.048 24.7974 280.4C25.3627 280.741 25.7947 281.195 26.0934 281.76C26.392 282.325 26.5414 282.933 26.5414 283.584C26.5414 283.701 26.536 283.819 26.5254 283.936C26.5254 284.053 26.5254 284.187 26.5254 284.336H20.2054C20.2374 284.944 20.376 285.451 20.6214 285.856C20.8774 286.251 21.192 286.549 21.5654 286.752C21.9494 286.955 22.3547 287.056 22.7814 287.056C23.336 287.056 23.8 286.928 24.1734 286.672C24.5467 286.416 24.8187 286.069 24.9894 285.632H26.3174C26.104 286.368 25.6934 286.981 25.0854 287.472C24.488 287.952 23.72 288.192 22.7814 288.192ZM22.7814 281.008C22.1414 281.008 21.5707 281.205 21.0694 281.6C20.5787 281.984 20.296 282.549 20.2214 283.296H25.2134C25.1814 282.581 24.936 282.021 24.4774 281.616C24.0187 281.211 23.4534 281.008 22.7814 281.008ZM36.2051 288.192C35.4478 288.192 34.7651 288.021 34.1571 287.68C33.5598 287.328 33.0851 286.843 32.7331 286.224C32.3918 285.595 32.2211 284.864 32.2211 284.032C32.2211 283.2 32.3918 282.475 32.7331 281.856C33.0851 281.227 33.5598 280.741 34.1571 280.4C34.7651 280.048 35.4478 279.872 36.2051 279.872C37.1438 279.872 37.9331 280.117 38.5731 280.608C39.2238 281.099 39.6345 281.755 39.8051 282.576H38.4291C38.3225 282.085 38.0611 281.707 37.6451 281.44C37.2291 281.163 36.7438 281.024 36.1891 281.024C35.7411 281.024 35.3198 281.136 34.9251 281.36C34.5305 281.584 34.2105 281.92 33.9651 282.368C33.7198 282.816 33.5971 283.371 33.5971 284.032C33.5971 284.693 33.7198 285.248 33.9651 285.696C34.2105 286.144 34.5305 286.485 34.9251 286.72C35.3198 286.944 35.7411 287.056 36.1891 287.056C36.7438 287.056 37.2291 286.923 37.6451 286.656C38.0611 286.379 38.3225 285.989 38.4291 285.488H39.8051C39.6451 286.288 39.2398 286.939 38.5891 287.44C37.9385 287.941 37.1438 288.192 36.2051 288.192ZM45.2981 288.192C44.5515 288.192 43.8795 288.021 43.2821 287.68C42.6848 287.339 42.2101 286.859 41.8581 286.24C41.5168 285.611 41.3461 284.875 41.3461 284.032C41.3461 283.189 41.5221 282.459 41.8741 281.84C42.2261 281.211 42.7008 280.725 43.2981 280.384C43.9061 280.043 44.5835 279.872 45.3301 279.872C46.0768 279.872 46.7488 280.043 47.3461 280.384C47.9435 280.725 48.4128 281.211 48.7541 281.84C49.1061 282.459 49.2821 283.189 49.2821 284.032C49.2821 284.875 49.1061 285.611 48.7541 286.24C48.4021 286.859 47.9221 287.339 47.3141 287.68C46.7168 288.021 46.0448 288.192 45.2981 288.192ZM45.2981 287.04C45.7568 287.04 46.1835 286.928 46.5781 286.704C46.9728 286.48 47.2928 286.144 47.5381 285.696C47.7835 285.248 47.9061 284.693 47.9061 284.032C47.9061 283.371 47.7835 282.816 47.5381 282.368C47.3035 281.92 46.9888 281.584 46.5941 281.36C46.1995 281.136 45.7781 281.024 45.3301 281.024C44.8715 281.024 44.4448 281.136 44.0501 281.36C43.6555 281.584 43.3355 281.92 43.0901 282.368C42.8448 282.816 42.7221 283.371 42.7221 284.032C42.7221 284.693 42.8448 285.248 43.0901 285.696C43.3355 286.144 43.6501 286.48 44.0341 286.704C44.4288 286.928 44.8501 287.04 45.2981 287.04ZM51.1509 291.52V280.064H52.3669L52.4949 281.376C52.7509 280.992 53.1135 280.645 53.5829 280.336C54.0629 280.027 54.6709 279.872 55.4069 279.872C56.1962 279.872 56.8842 280.053 57.4709 280.416C58.0575 280.779 58.5109 281.275 58.8309 281.904C59.1615 282.533 59.3269 283.248 59.3269 284.048C59.3269 284.848 59.1615 285.563 58.8309 286.192C58.5109 286.811 58.0522 287.301 57.4549 287.664C56.8682 288.016 56.1802 288.192 55.3909 288.192C54.7402 288.192 54.1589 288.059 53.6469 287.792C53.1455 287.525 52.7615 287.152 52.4949 286.672V291.52H51.1509ZM55.2469 287.024C55.7802 287.024 56.2495 286.901 56.6549 286.656C57.0602 286.4 57.3802 286.048 57.6149 285.6C57.8495 285.152 57.9669 284.629 57.9669 284.032C57.9669 283.435 57.8495 282.912 57.6149 282.464C57.3802 282.016 57.0602 281.669 56.6549 281.424C56.2495 281.168 55.7802 281.04 55.2469 281.04C54.7135 281.04 54.2442 281.168 53.8389 281.424C53.4335 281.669 53.1135 282.016 52.8789 282.464C52.6442 282.912 52.5269 283.435 52.5269 284.032C52.5269 284.629 52.6442 285.152 52.8789 285.6C53.1135 286.048 53.4335 286.4 53.8389 286.656C54.2442 286.901 54.7135 287.024 55.2469 287.024ZM61.4211 291.52L63.3891 287.232H62.9251L59.7731 280.064H61.2291L63.8531 286.24L66.6371 280.064H68.0291L62.8291 291.52H61.4211ZM76.7221 288.192C75.7728 288.192 74.9835 287.952 74.3541 287.472C73.7248 286.992 73.3568 286.341 73.2501 285.52H74.6261C74.7115 285.936 74.9301 286.299 75.2821 286.608C75.6448 286.907 76.1301 287.056 76.7381 287.056C77.3035 287.056 77.7195 286.939 77.9861 286.704C78.2528 286.459 78.3861 286.171 78.3861 285.84C78.3861 285.36 78.2101 285.04 77.8581 284.88C77.5168 284.72 77.0315 284.576 76.4021 284.448C75.9755 284.363 75.5488 284.24 75.1221 284.08C74.6955 283.92 74.3381 283.696 74.0501 283.408C73.7621 283.109 73.6181 282.72 73.6181 282.24C73.6181 281.547 73.8741 280.981 74.3861 280.544C74.9088 280.096 75.6128 279.872 76.4981 279.872C77.3408 279.872 78.0288 280.085 78.5621 280.512C79.1061 280.928 79.4208 281.525 79.5061 282.304H78.1781C78.1248 281.899 77.9488 281.584 77.6501 281.36C77.3621 281.125 76.9728 281.008 76.4821 281.008C76.0021 281.008 75.6288 281.109 75.3621 281.312C75.1061 281.515 74.9781 281.781 74.9781 282.112C74.9781 282.432 75.1435 282.683 75.4741 282.864C75.8155 283.045 76.2741 283.2 76.8501 283.328C77.3408 283.435 77.8048 283.568 78.2421 283.728C78.6901 283.877 79.0528 284.107 79.3301 284.416C79.6181 284.715 79.7621 285.152 79.7621 285.728C79.7728 286.443 79.5008 287.035 78.9461 287.504C78.4021 287.963 77.6608 288.192 76.7221 288.192ZM84.3221 288.192C83.6608 288.192 83.1115 288.08 82.6741 287.856C82.2368 287.632 81.9115 287.333 81.6981 286.96C81.4848 286.587 81.3781 286.181 81.3781 285.744C81.3781 284.933 81.6875 284.309 82.3061 283.872C82.9248 283.435 83.7675 283.216 84.8341 283.216H86.9781V283.12C86.9781 282.427 86.7968 281.904 86.4341 281.552C86.0715 281.189 85.5861 281.008 84.9781 281.008C84.4555 281.008 84.0021 281.141 83.6181 281.408C83.2448 281.664 83.0101 282.043 82.9141 282.544H81.5381C81.5915 281.968 81.7835 281.483 82.1141 281.088C82.4555 280.693 82.8768 280.395 83.3781 280.192C83.8795 279.979 84.4128 279.872 84.9781 279.872C86.0875 279.872 86.9195 280.171 87.4741 280.768C88.0395 281.355 88.3221 282.139 88.3221 283.12V288H87.1221L87.0421 286.576C86.8181 287.024 86.4875 287.408 86.0501 287.728C85.6235 288.037 85.0475 288.192 84.3221 288.192ZM84.5301 287.056C85.0421 287.056 85.4795 286.923 85.8421 286.656C86.2155 286.389 86.4981 286.043 86.6901 285.616C86.8821 285.189 86.9781 284.741 86.9781 284.272V284.256H84.9461C84.1568 284.256 83.5968 284.395 83.2661 284.672C82.9461 284.939 82.7861 285.275 82.7861 285.68C82.7861 286.096 82.9355 286.432 83.2341 286.688C83.5435 286.933 83.9755 287.056 84.5301 287.056ZM91.1544 278.304C90.8877 278.304 90.6637 278.219 90.4824 278.048C90.3117 277.867 90.2264 277.643 90.2264 277.376C90.2264 277.12 90.3117 276.907 90.4824 276.736C90.6637 276.565 90.8877 276.48 91.1544 276.48C91.4104 276.48 91.629 276.565 91.8104 276.736C91.9917 276.907 92.0824 277.12 92.0824 277.376C92.0824 277.643 91.9917 277.867 91.8104 278.048C91.629 278.219 91.4104 278.304 91.1544 278.304ZM90.4824 288V280.064H91.8264V288H90.4824ZM97.7665 288.192C96.9772 288.192 96.2838 288.011 95.6865 287.648C95.0998 287.285 94.6412 286.789 94.3105 286.16C93.9905 285.531 93.8305 284.816 93.8305 284.016C93.8305 283.216 93.9958 282.507 94.3265 281.888C94.6572 281.259 95.1158 280.768 95.7025 280.416C96.2892 280.053 96.9825 279.872 97.7825 279.872C98.4332 279.872 99.0092 280.005 99.5105 280.272C100.012 280.539 100.401 280.912 100.679 281.392V276.48H102.023V288H100.807L100.679 286.688C100.423 287.072 100.055 287.419 99.5745 287.728C99.0945 288.037 98.4918 288.192 97.7665 288.192ZM97.9105 287.024C98.4438 287.024 98.9132 286.901 99.3185 286.656C99.7345 286.4 100.055 286.048 100.279 285.6C100.513 285.152 100.631 284.629 100.631 284.032C100.631 283.435 100.513 282.912 100.279 282.464C100.055 282.016 99.7345 281.669 99.3185 281.424C98.9132 281.168 98.4438 281.04 97.9105 281.04C97.3878 281.04 96.9185 281.168 96.5025 281.424C96.0972 281.669 95.7772 282.016 95.5425 282.464C95.3185 282.912 95.2065 283.435 95.2065 284.032C95.2065 284.629 95.3185 285.152 95.5425 285.6C95.7772 286.048 96.0972 286.4 96.5025 286.656C96.9185 286.901 97.3878 287.024 97.9105 287.024ZM112.096 288.192C111.338 288.192 110.656 288.021 110.048 287.68C109.45 287.328 108.976 286.843 108.624 286.224C108.282 285.595 108.112 284.864 108.112 284.032C108.112 283.2 108.282 282.475 108.624 281.856C108.976 281.227 109.45 280.741 110.048 280.4C110.656 280.048 111.338 279.872 112.096 279.872C113.034 279.872 113.824 280.117 114.464 280.608C115.114 281.099 115.525 281.755 115.696 282.576H114.32C114.213 282.085 113.952 281.707 113.536 281.44C113.12 281.163 112.634 281.024 112.08 281.024C111.632 281.024 111.21 281.136 110.816 281.36C110.421 281.584 110.101 281.92 109.856 282.368C109.61 282.816 109.488 283.371 109.488 284.032C109.488 284.693 109.61 285.248 109.856 285.696C110.101 286.144 110.421 286.485 110.816 286.72C111.21 286.944 111.632 287.056 112.08 287.056C112.634 287.056 113.12 286.923 113.536 286.656C113.952 286.379 114.213 285.989 114.32 285.488H115.696C115.536 286.288 115.13 286.939 114.48 287.44C113.829 287.941 113.034 288.192 112.096 288.192ZM121.189 288.192C120.442 288.192 119.77 288.021 119.173 287.68C118.575 287.339 118.101 286.859 117.749 286.24C117.407 285.611 117.237 284.875 117.237 284.032C117.237 283.189 117.413 282.459 117.765 281.84C118.117 281.211 118.591 280.725 119.189 280.384C119.797 280.043 120.474 279.872 121.221 279.872C121.967 279.872 122.639 280.043 123.237 280.384C123.834 280.725 124.303 281.211 124.645 281.84C124.997 282.459 125.173 283.189 125.173 284.032C125.173 284.875 124.997 285.611 124.645 286.24C124.293 286.859 123.813 287.339 123.205 287.68C122.607 288.021 121.935 288.192 121.189 288.192ZM121.189 287.04C121.647 287.04 122.074 286.928 122.469 286.704C122.863 286.48 123.183 286.144 123.429 285.696C123.674 285.248 123.797 284.693 123.797 284.032C123.797 283.371 123.674 282.816 123.429 282.368C123.194 281.92 122.879 281.584 122.485 281.36C122.09 281.136 121.669 281.024 121.221 281.024C120.762 281.024 120.335 281.136 119.941 281.36C119.546 281.584 119.226 281.92 118.981 282.368C118.735 282.816 118.613 283.371 118.613 284.032C118.613 284.693 118.735 285.248 118.981 285.696C119.226 286.144 119.541 286.48 119.925 286.704C120.319 286.928 120.741 287.04 121.189 287.04ZM133.986 280.064V288H132.77L132.69 286.576C132.434 287.077 132.066 287.472 131.586 287.76C131.106 288.048 130.562 288.192 129.954 288.192C129.015 288.192 128.263 287.909 127.698 287.344C127.143 286.768 126.866 285.888 126.866 284.704V280.064H128.21V284.56C128.21 286.213 128.892 287.04 130.258 287.04C130.94 287.04 131.506 286.795 131.954 286.304C132.412 285.803 132.642 285.093 132.642 284.176V280.064H133.986ZM136.198 288V276.48H137.542V288H136.198ZM143.345 288.192C142.555 288.192 141.862 288.011 141.265 287.648C140.678 287.285 140.219 286.789 139.889 286.16C139.569 285.531 139.409 284.816 139.409 284.016C139.409 283.216 139.574 282.507 139.905 281.888C140.235 281.259 140.694 280.768 141.281 280.416C141.867 280.053 142.561 279.872 143.361 279.872C144.011 279.872 144.587 280.005 145.089 280.272C145.59 280.539 145.979 280.912 146.257 281.392V276.48H147.601V288H146.385L146.257 286.688C146.001 287.072 145.633 287.419 145.153 287.728C144.673 288.037 144.07 288.192 143.345 288.192ZM143.489 287.024C144.022 287.024 144.491 286.901 144.897 286.656C145.313 286.4 145.633 286.048 145.857 285.6C146.091 285.152 146.209 284.629 146.209 284.032C146.209 283.435 146.091 282.912 145.857 282.464C145.633 282.016 145.313 281.669 144.897 281.424C144.491 281.168 144.022 281.04 143.489 281.04C142.966 281.04 142.497 281.168 142.081 281.424C141.675 281.669 141.355 282.016 141.121 282.464C140.897 282.912 140.785 283.435 140.785 284.032C140.785 284.629 140.897 285.152 141.121 285.6C141.355 286.048 141.675 286.4 142.081 286.656C142.497 286.901 142.966 287.024 143.489 287.024ZM4.752 320.192C3.99467 320.192 3.312 320.021 2.704 319.68C2.10667 319.328 1.632 318.843 1.28 318.224C0.938667 317.595 0.768 316.864 0.768 316.032C0.768 315.2 0.938667 314.475 1.28 313.856C1.632 313.227 2.10667 312.741 2.704 312.4C3.312 312.048 3.99467 311.872 4.752 311.872C5.69067 311.872 6.48 312.117 7.12 312.608C7.77067 313.099 8.18133 313.755 8.352 314.576H6.976C6.86933 314.085 6.608 313.707 6.192 313.44C5.776 313.163 5.29067 313.024 4.736 313.024C4.288 313.024 3.86667 313.136 3.472 313.36C3.07733 313.584 2.75733 313.92 2.512 314.368C2.26667 314.816 2.144 315.371 2.144 316.032C2.144 316.693 2.26667 317.248 2.512 317.696C2.75733 318.144 3.07733 318.485 3.472 318.72C3.86667 318.944 4.288 319.056 4.736 319.056C5.29067 319.056 5.776 318.923 6.192 318.656C6.608 318.379 6.86933 317.989 6.976 317.488H8.352C8.192 318.288 7.78667 318.939 7.136 319.44C6.48533 319.941 5.69067 320.192 4.752 320.192ZM13.845 320.192C13.0983 320.192 12.4263 320.021 11.829 319.68C11.2317 319.339 10.757 318.859 10.405 318.24C10.0637 317.611 9.893 316.875 9.893 316.032C9.893 315.189 10.069 314.459 10.421 313.84C10.773 313.211 11.2477 312.725 11.845 312.384C12.453 312.043 13.1303 311.872 13.877 311.872C14.6237 311.872 15.2957 312.043 15.893 312.384C16.4903 312.725 16.9597 313.211 17.301 313.84C17.653 314.459 17.829 315.189 17.829 316.032C17.829 316.875 17.653 317.611 17.301 318.24C16.949 318.859 16.469 319.339 15.861 319.68C15.2637 320.021 14.5917 320.192 13.845 320.192ZM13.845 319.04C14.3037 319.04 14.7303 318.928 15.125 318.704C15.5197 318.48 15.8397 318.144 16.085 317.696C16.3303 317.248 16.453 316.693 16.453 316.032C16.453 315.371 16.3303 314.816 16.085 314.368C15.8503 313.92 15.5357 313.584 15.141 313.36C14.7463 313.136 14.325 313.024 13.877 313.024C13.4183 313.024 12.9917 313.136 12.597 313.36C12.2023 313.584 11.8823 313.92 11.637 314.368C11.3917 314.816 11.269 315.371 11.269 316.032C11.269 316.693 11.3917 317.248 11.637 317.696C11.8823 318.144 12.197 318.48 12.581 318.704C12.9757 318.928 13.397 319.04 13.845 319.04ZM19.6978 320V312.064H20.9138L20.9938 313.488C21.2498 312.987 21.6178 312.592 22.0978 312.304C22.5778 312.016 23.1218 311.872 23.7298 311.872C24.6684 311.872 25.4151 312.16 25.9698 312.736C26.5351 313.301 26.8177 314.176 26.8177 315.36V320H25.4738V315.504C25.4738 313.851 24.7911 313.024 23.4258 313.024C22.7431 313.024 22.1724 313.275 21.7138 313.776C21.2658 314.267 21.0418 314.971 21.0418 315.888V320H19.6978ZM30.9858 320L27.9778 312.064H29.3858L31.7698 318.704L34.1698 312.064H35.5458L32.5378 320H30.9858ZM37.8575 310.304C37.5908 310.304 37.3668 310.219 37.1855 310.048C37.0148 309.867 36.9295 309.643 36.9295 309.376C36.9295 309.12 37.0148 308.907 37.1855 308.736C37.3668 308.565 37.5908 308.48 37.8575 308.48C38.1135 308.48 38.3322 308.565 38.5135 308.736C38.6948 308.907 38.7855 309.12 38.7855 309.376C38.7855 309.643 38.6948 309.867 38.5135 310.048C38.3322 310.219 38.1135 310.304 37.8575 310.304ZM37.1855 320V312.064H38.5295V320H37.1855ZM40.8696 320V312.064H42.0856L42.1656 313.488C42.4216 312.987 42.7896 312.592 43.2696 312.304C43.7496 312.016 44.2936 311.872 44.9016 311.872C45.8403 311.872 46.587 312.16 47.1416 312.736C47.707 313.301 47.9896 314.176 47.9896 315.36V320H46.6456V315.504C46.6456 313.851 45.963 313.024 44.5976 313.024C43.915 313.024 43.3443 313.275 42.8856 313.776C42.4376 314.267 42.2136 314.971 42.2136 315.888V320H40.8696ZM53.6739 320.192C52.9165 320.192 52.2339 320.021 51.6259 319.68C51.0285 319.328 50.5539 318.843 50.2019 318.224C49.8605 317.595 49.6899 316.864 49.6899 316.032C49.6899 315.2 49.8605 314.475 50.2019 313.856C50.5539 313.227 51.0285 312.741 51.6259 312.4C52.2339 312.048 52.9165 311.872 53.6739 311.872C54.6125 311.872 55.4019 312.117 56.0419 312.608C56.6925 313.099 57.1032 313.755 57.2739 314.576H55.8979C55.7912 314.085 55.5299 313.707 55.1139 313.44C54.6979 313.163 54.2125 313.024 53.6579 313.024C53.2099 313.024 52.7885 313.136 52.3939 313.36C51.9992 313.584 51.6792 313.92 51.4339 314.368C51.1885 314.816 51.0659 315.371 51.0659 316.032C51.0659 316.693 51.1885 317.248 51.4339 317.696C51.6792 318.144 51.9992 318.485 52.3939 318.72C52.7885 318.944 53.2099 319.056 53.6579 319.056C54.2125 319.056 54.6979 318.923 55.1139 318.656C55.5299 318.379 55.7912 317.989 55.8979 317.488H57.2739C57.1139 318.288 56.7085 318.939 56.0579 319.44C55.4072 319.941 54.6125 320.192 53.6739 320.192ZM62.7189 320.192C61.9615 320.192 61.2895 320.021 60.7029 319.68C60.1162 319.328 59.6522 318.843 59.3109 318.224C58.9802 317.605 58.8149 316.875 58.8149 316.032C58.8149 315.2 58.9802 314.475 59.3109 313.856C59.6415 313.227 60.1002 312.741 60.6869 312.4C61.2842 312.048 61.9722 311.872 62.7509 311.872C63.5189 311.872 64.1802 312.048 64.7349 312.4C65.3002 312.741 65.7322 313.195 66.0309 313.76C66.3295 314.325 66.4789 314.933 66.4789 315.584C66.4789 315.701 66.4735 315.819 66.4629 315.936C66.4629 316.053 66.4629 316.187 66.4629 316.336H60.1429C60.1749 316.944 60.3135 317.451 60.5589 317.856C60.8149 318.251 61.1295 318.549 61.5029 318.752C61.8869 318.955 62.2922 319.056 62.7189 319.056C63.2735 319.056 63.7375 318.928 64.1109 318.672C64.4842 318.416 64.7562 318.069 64.9269 317.632H66.2549C66.0415 318.368 65.6309 318.981 65.0229 319.472C64.4255 319.952 63.6575 320.192 62.7189 320.192ZM62.7189 313.008C62.0789 313.008 61.5082 313.205 61.0069 313.6C60.5162 313.984 60.2335 314.549 60.1589 315.296H65.1509C65.1189 314.581 64.8735 314.021 64.4149 313.616C63.9562 313.211 63.3909 313.008 62.7189 313.008ZM72.4946 320V308.48H73.8386V313.424C74.1053 312.933 74.484 312.555 74.9746 312.288C75.4653 312.011 75.9986 311.872 76.5746 311.872C77.492 311.872 78.228 312.16 78.7826 312.736C79.3373 313.301 79.6146 314.176 79.6146 315.36V320H78.2866V315.504C78.2866 313.851 77.62 313.024 76.2866 313.024C75.5933 313.024 75.012 313.275 74.5426 313.776C74.0733 314.267 73.8386 314.971 73.8386 315.888V320H72.4946ZM85.2189 320.192C84.4615 320.192 83.7895 320.021 83.2029 319.68C82.6162 319.328 82.1522 318.843 81.8109 318.224C81.4802 317.605 81.3149 316.875 81.3149 316.032C81.3149 315.2 81.4802 314.475 81.8109 313.856C82.1415 313.227 82.6002 312.741 83.1869 312.4C83.7842 312.048 84.4722 311.872 85.2509 311.872C86.0189 311.872 86.6802 312.048 87.2349 312.4C87.8002 312.741 88.2322 313.195 88.5309 313.76C88.8295 314.325 88.9789 314.933 88.9789 315.584C88.9789 315.701 88.9735 315.819 88.9629 315.936C88.9629 316.053 88.9629 316.187 88.9629 316.336H82.6429C82.6749 316.944 82.8135 317.451 83.0589 317.856C83.3149 318.251 83.6295 318.549 84.0029 318.752C84.3869 318.955 84.7922 319.056 85.2189 319.056C85.7735 319.056 86.2375 318.928 86.6109 318.672C86.9842 318.416 87.2562 318.069 87.4269 317.632H88.7549C88.5415 318.368 88.1309 318.981 87.5229 319.472C86.9255 319.952 86.1575 320.192 85.2189 320.192ZM85.2189 313.008C84.5789 313.008 84.0082 313.205 83.5069 313.6C83.0162 313.984 82.7335 314.549 82.6589 315.296H87.6509C87.6189 314.581 87.3735 314.021 86.9149 313.616C86.4562 313.211 85.8909 313.008 85.2189 313.008ZM90.7603 320V312.064H91.9763L92.0883 313.584C92.3336 313.061 92.7069 312.645 93.2083 312.336C93.7096 312.027 94.3283 311.872 95.0643 311.872V313.28H94.6963C94.2269 313.28 93.7949 313.365 93.4003 313.536C93.0056 313.696 92.6909 313.973 92.4563 314.368C92.2216 314.763 92.1043 315.307 92.1043 316V320H90.7603ZM103.447 320.192C102.786 320.192 102.236 320.08 101.799 319.856C101.362 319.632 101.036 319.333 100.823 318.96C100.61 318.587 100.503 318.181 100.503 317.744C100.503 316.933 100.812 316.309 101.431 315.872C102.05 315.435 102.892 315.216 103.959 315.216H106.103V315.12C106.103 314.427 105.922 313.904 105.559 313.552C105.196 313.189 104.711 313.008 104.103 313.008C103.58 313.008 103.127 313.141 102.743 313.408C102.37 313.664 102.135 314.043 102.039 314.544H100.663C100.716 313.968 100.908 313.483 101.239 313.088C101.58 312.693 102.002 312.395 102.503 312.192C103.004 311.979 103.538 311.872 104.103 311.872C105.212 311.872 106.044 312.171 106.599 312.768C107.164 313.355 107.447 314.139 107.447 315.12V320H106.247L106.167 318.576C105.943 319.024 105.612 319.408 105.175 319.728C104.748 320.037 104.172 320.192 103.447 320.192ZM103.655 319.056C104.167 319.056 104.604 318.923 104.967 318.656C105.34 318.389 105.623 318.043 105.815 317.616C106.007 317.189 106.103 316.741 106.103 316.272V316.256H104.071C103.282 316.256 102.722 316.395 102.391 316.672C102.071 316.939 101.911 317.275 101.911 317.68C101.911 318.096 102.06 318.432 102.359 318.688C102.668 318.933 103.1 319.056 103.655 319.056ZM109.463 320V312.064H110.679L110.759 313.488C111.015 312.987 111.383 312.592 111.863 312.304C112.343 312.016 112.887 311.872 113.495 311.872C114.434 311.872 115.181 312.16 115.735 312.736C116.301 313.301 116.583 314.176 116.583 315.36V320H115.239V315.504C115.239 313.851 114.557 313.024 113.191 313.024C112.509 313.024 111.938 313.275 111.479 313.776C111.031 314.267 110.807 314.971 110.807 315.888V320H109.463ZM122.22 320.192C121.43 320.192 120.737 320.011 120.14 319.648C119.553 319.285 119.094 318.789 118.764 318.16C118.444 317.531 118.284 316.816 118.284 316.016C118.284 315.216 118.449 314.507 118.78 313.888C119.11 313.259 119.569 312.768 120.156 312.416C120.742 312.053 121.436 311.872 122.236 311.872C122.886 311.872 123.462 312.005 123.964 312.272C124.465 312.539 124.854 312.912 125.132 313.392V308.48H126.476V320H125.26L125.132 318.688C124.876 319.072 124.508 319.419 124.028 319.728C123.548 320.037 122.945 320.192 122.22 320.192ZM122.364 319.024C122.897 319.024 123.366 318.901 123.772 318.656C124.188 318.4 124.508 318.048 124.732 317.6C124.966 317.152 125.084 316.629 125.084 316.032C125.084 315.435 124.966 314.912 124.732 314.464C124.508 314.016 124.188 313.669 123.772 313.424C123.366 313.168 122.897 313.04 122.364 313.04C121.841 313.04 121.372 313.168 120.956 313.424C120.55 313.669 120.23 314.016 119.996 314.464C119.772 314.912 119.66 315.435 119.66 316.032C119.66 316.629 119.772 317.152 119.996 317.6C120.23 318.048 120.55 318.4 120.956 318.656C121.372 318.901 121.841 319.024 122.364 319.024ZM135.941 320.192C134.992 320.192 134.202 319.952 133.573 319.472C132.944 318.992 132.576 318.341 132.469 317.52H133.845C133.93 317.936 134.149 318.299 134.501 318.608C134.864 318.907 135.349 319.056 135.957 319.056C136.522 319.056 136.938 318.939 137.205 318.704C137.472 318.459 137.605 318.171 137.605 317.84C137.605 317.36 137.429 317.04 137.077 316.88C136.736 316.72 136.25 316.576 135.621 316.448C135.194 316.363 134.768 316.24 134.341 316.08C133.914 315.92 133.557 315.696 133.269 315.408C132.981 315.109 132.837 314.72 132.837 314.24C132.837 313.547 133.093 312.981 133.605 312.544C134.128 312.096 134.832 311.872 135.717 311.872C136.56 311.872 137.248 312.085 137.781 312.512C138.325 312.928 138.64 313.525 138.725 314.304H137.397C137.344 313.899 137.168 313.584 136.869 313.36C136.581 313.125 136.192 313.008 135.701 313.008C135.221 313.008 134.848 313.109 134.581 313.312C134.325 313.515 134.197 313.781 134.197 314.112C134.197 314.432 134.362 314.683 134.693 314.864C135.034 315.045 135.493 315.2 136.069 315.328C136.56 315.435 137.024 315.568 137.461 315.728C137.909 315.877 138.272 316.107 138.549 316.416C138.837 316.715 138.981 317.152 138.981 317.728C138.992 318.443 138.72 319.035 138.165 319.504C137.621 319.963 136.88 320.192 135.941 320.192ZM144.517 320.192C143.77 320.192 143.098 320.021 142.501 319.68C141.904 319.339 141.429 318.859 141.077 318.24C140.736 317.611 140.565 316.875 140.565 316.032C140.565 315.189 140.741 314.459 141.093 313.84C141.445 313.211 141.92 312.725 142.517 312.384C143.125 312.043 143.802 311.872 144.549 311.872C145.296 311.872 145.968 312.043 146.565 312.384C147.162 312.725 147.632 313.211 147.973 313.84C148.325 314.459 148.501 315.189 148.501 316.032C148.501 316.875 148.325 317.611 147.973 318.24C147.621 318.859 147.141 319.339 146.533 319.68C145.936 320.021 145.264 320.192 144.517 320.192ZM144.517 319.04C144.976 319.04 145.402 318.928 145.797 318.704C146.192 318.48 146.512 318.144 146.757 317.696C147.002 317.248 147.125 316.693 147.125 316.032C147.125 315.371 147.002 314.816 146.757 314.368C146.522 313.92 146.208 313.584 145.813 313.36C145.418 313.136 144.997 313.024 144.549 313.024C144.09 313.024 143.664 313.136 143.269 313.36C142.874 313.584 142.554 313.92 142.309 314.368C142.064 314.816 141.941 315.371 141.941 316.032C141.941 316.693 142.064 317.248 142.309 317.696C142.554 318.144 142.869 318.48 143.253 318.704C143.648 318.928 144.069 319.04 144.517 319.04ZM155.42 310.304C155.153 310.304 154.929 310.219 154.748 310.048C154.577 309.867 154.492 309.643 154.492 309.376C154.492 309.12 154.577 308.907 154.748 308.736C154.929 308.565 155.153 308.48 155.42 308.48C155.676 308.48 155.895 308.565 156.076 308.736C156.257 308.907 156.348 309.12 156.348 309.376C156.348 309.643 156.257 309.867 156.076 310.048C155.895 310.219 155.676 310.304 155.42 310.304ZM154.748 320V312.064H156.092V320H154.748ZM161.568 320C160.843 320 160.272 319.824 159.856 319.472C159.44 319.12 159.232 318.485 159.232 317.568V313.2H157.856V312.064H159.232L159.408 310.16H160.576V312.064H162.912V313.2H160.576V317.568C160.576 318.069 160.677 318.411 160.88 318.592C161.083 318.763 161.44 318.848 161.952 318.848H162.784V320H161.568ZM4.704 352.192C3.91467 352.192 3.22133 352.011 2.624 351.648C2.03733 351.285 1.57867 350.789 1.248 350.16C0.928 349.531 0.768 348.816 0.768 348.016C0.768 347.216 0.933333 346.507 1.264 345.888C1.59467 345.259 2.05333 344.768 2.64 344.416C3.22667 344.053 3.92 343.872 4.72 343.872C5.37067 343.872 5.94667 344.005 6.448 344.272C6.94933 344.539 7.33867 344.912 7.616 345.392V340.48H8.96V352H7.744L7.616 350.688C7.36 351.072 6.992 351.419 6.512 351.728C6.032 352.037 5.42933 352.192 4.704 352.192ZM4.848 351.024C5.38133 351.024 5.85067 350.901 6.256 350.656C6.672 350.4 6.992 350.048 7.216 349.6C7.45067 349.152 7.568 348.629 7.568 348.032C7.568 347.435 7.45067 346.912 7.216 346.464C6.992 346.016 6.672 345.669 6.256 345.424C5.85067 345.168 5.38133 345.04 4.848 345.04C4.32533 345.04 3.856 345.168 3.44 345.424C3.03467 345.669 2.71467 346.016 2.48 346.464C2.256 346.912 2.144 347.435 2.144 348.032C2.144 348.629 2.256 349.152 2.48 349.6C2.71467 350.048 3.03467 350.4 3.44 350.656C3.856 350.901 4.32533 351.024 4.848 351.024ZM11.9669 342.304C11.7002 342.304 11.4762 342.219 11.2949 342.048C11.1242 341.867 11.0389 341.643 11.0389 341.376C11.0389 341.12 11.1242 340.907 11.2949 340.736C11.4762 340.565 11.7002 340.48 11.9669 340.48C12.2229 340.48 12.4415 340.565 12.6229 340.736C12.8042 340.907 12.8949 341.12 12.8949 341.376C12.8949 341.643 12.8042 341.867 12.6229 342.048C12.4415 342.219 12.2229 342.304 11.9669 342.304ZM11.2949 352V344.064H12.6389V352H11.2949ZM18.579 352.192C17.7897 352.192 17.0963 352.011 16.499 351.648C15.9123 351.285 15.4537 350.789 15.123 350.16C14.803 349.531 14.643 348.816 14.643 348.016C14.643 347.216 14.8083 346.507 15.139 345.888C15.4697 345.259 15.9283 344.768 16.515 344.416C17.1017 344.053 17.795 343.872 18.595 343.872C19.2457 343.872 19.8217 344.005 20.323 344.272C20.8243 344.539 21.2137 344.912 21.491 345.392V340.48H22.835V352H21.619L21.491 350.688C21.235 351.072 20.867 351.419 20.387 351.728C19.907 352.037 19.3043 352.192 18.579 352.192ZM18.723 351.024C19.2563 351.024 19.7257 350.901 20.131 350.656C20.547 350.4 20.867 350.048 21.091 349.6C21.3257 349.152 21.443 348.629 21.443 348.032C21.443 347.435 21.3257 346.912 21.091 346.464C20.867 346.016 20.547 345.669 20.131 345.424C19.7257 345.168 19.2563 345.04 18.723 345.04C18.2003 345.04 17.731 345.168 17.315 345.424C16.9097 345.669 16.5897 346.016 16.355 346.464C16.131 346.912 16.019 347.435 16.019 348.032C16.019 348.629 16.131 349.152 16.355 349.6C16.5897 350.048 16.9097 350.4 17.315 350.656C17.731 350.901 18.2003 351.024 18.723 351.024ZM25.0259 352V344.064H26.2419L26.3219 345.488C26.5779 344.987 26.9459 344.592 27.4259 344.304C27.9059 344.016 28.4499 343.872 29.0579 343.872C29.9965 343.872 30.7432 344.16 31.2979 344.736C31.8632 345.301 32.1459 346.176 32.1459 347.36V352H30.8019V347.504C30.8019 345.851 30.1192 345.024 28.7539 345.024C28.0712 345.024 27.5005 345.275 27.0419 345.776C26.5939 346.267 26.3699 346.971 26.3699 347.888V352H25.0259ZM33.6061 344.368L34.5341 340.8H36.0381L34.5661 344.368H33.6061ZM40.7244 352C39.999 352 39.4284 351.824 39.0124 351.472C38.5964 351.12 38.3884 350.485 38.3884 349.568V345.2H37.0124V344.064H38.3884L38.5644 342.16H39.7324V344.064H42.0684V345.2H39.7324V349.568C39.7324 350.069 39.8337 350.411 40.0364 350.592C40.239 350.763 40.5964 350.848 41.1084 350.848H41.9404V352H40.7244ZM51.1463 352C50.4209 352 49.8503 351.824 49.4343 351.472C49.0183 351.12 48.8103 350.485 48.8103 349.568V345.2H47.4342V344.064H48.8103L48.9863 342.16H50.1543V344.064H52.4903V345.2H50.1543V349.568C50.1543 350.069 50.2556 350.411 50.4583 350.592C50.6609 350.763 51.0183 350.848 51.5303 350.848H52.3623V352H51.1463ZM56.8378 352.192C56.1764 352.192 55.6271 352.08 55.1898 351.856C54.7524 351.632 54.4271 351.333 54.2138 350.96C54.0004 350.587 53.8938 350.181 53.8938 349.744C53.8938 348.933 54.2031 348.309 54.8218 347.872C55.4404 347.435 56.2831 347.216 57.3498 347.216H59.4938V347.12C59.4938 346.427 59.3124 345.904 58.9498 345.552C58.5871 345.189 58.1018 345.008 57.4938 345.008C56.9711 345.008 56.5178 345.141 56.1338 345.408C55.7604 345.664 55.5258 346.043 55.4298 346.544H54.0538C54.1071 345.968 54.2991 345.483 54.6298 345.088C54.9711 344.693 55.3924 344.395 55.8938 344.192C56.3951 343.979 56.9284 343.872 57.4938 343.872C58.6031 343.872 59.4351 344.171 59.9898 344.768C60.5551 345.355 60.8378 346.139 60.8378 347.12V352H59.6378L59.5578 350.576C59.3338 351.024 59.0031 351.408 58.5658 351.728C58.1391 352.037 57.5631 352.192 56.8378 352.192ZM57.0458 351.056C57.5578 351.056 57.9951 350.923 58.3578 350.656C58.7311 350.389 59.0138 350.043 59.2058 349.616C59.3978 349.189 59.4938 348.741 59.4938 348.272V348.256H57.4618C56.6724 348.256 56.1124 348.395 55.7818 348.672C55.4618 348.939 55.3018 349.275 55.3018 349.68C55.3018 350.096 55.4511 350.432 55.7498 350.688C56.0591 350.933 56.4911 351.056 57.0458 351.056ZM62.854 352V340.48H64.198V347.408L67.446 344.064H69.094L65.574 347.648L69.542 352H67.83L64.198 347.888V352H62.854ZM73.9064 352.192C73.149 352.192 72.477 352.021 71.8904 351.68C71.3037 351.328 70.8397 350.843 70.4984 350.224C70.1677 349.605 70.0024 348.875 70.0024 348.032C70.0024 347.2 70.1677 346.475 70.4984 345.856C70.829 345.227 71.2877 344.741 71.8744 344.4C72.4717 344.048 73.1597 343.872 73.9384 343.872C74.7064 343.872 75.3677 344.048 75.9224 344.4C76.4877 344.741 76.9197 345.195 77.2184 345.76C77.517 346.325 77.6664 346.933 77.6664 347.584C77.6664 347.701 77.661 347.819 77.6504 347.936C77.6504 348.053 77.6504 348.187 77.6504 348.336H71.3304C71.3624 348.944 71.501 349.451 71.7464 349.856C72.0024 350.251 72.317 350.549 72.6904 350.752C73.0744 350.955 73.4797 351.056 73.9064 351.056C74.461 351.056 74.925 350.928 75.2984 350.672C75.6717 350.416 75.9437 350.069 76.1144 349.632H77.4424C77.229 350.368 76.8184 350.981 76.2104 351.472C75.613 351.952 74.845 352.192 73.9064 352.192ZM73.9064 345.008C73.2664 345.008 72.6957 345.205 72.1944 345.6C71.7037 345.984 71.421 346.549 71.3464 347.296H76.3384C76.3064 346.581 76.061 346.021 75.6024 345.616C75.1437 345.211 74.5784 345.008 73.9064 345.008ZM83.6821 352V340.48H85.0261V352H83.6821ZM90.845 352.192C90.0983 352.192 89.4263 352.021 88.829 351.68C88.2317 351.339 87.757 350.859 87.405 350.24C87.0637 349.611 86.893 348.875 86.893 348.032C86.893 347.189 87.069 346.459 87.421 345.84C87.773 345.211 88.2477 344.725 88.845 344.384C89.453 344.043 90.1303 343.872 90.877 343.872C91.6237 343.872 92.2957 344.043 92.893 344.384C93.4903 344.725 93.9597 345.211 94.301 345.84C94.653 346.459 94.829 347.189 94.829 348.032C94.829 348.875 94.653 349.611 94.301 350.24C93.949 350.859 93.469 351.339 92.861 351.68C92.2637 352.021 91.5917 352.192 90.845 352.192ZM90.845 351.04C91.3037 351.04 91.7303 350.928 92.125 350.704C92.5197 350.48 92.8397 350.144 93.085 349.696C93.3303 349.248 93.453 348.693 93.453 348.032C93.453 347.371 93.3303 346.816 93.085 346.368C92.8503 345.92 92.5357 345.584 92.141 345.36C91.7463 345.136 91.325 345.024 90.877 345.024C90.4183 345.024 89.9917 345.136 89.597 345.36C89.2023 345.584 88.8823 345.92 88.637 346.368C88.3917 346.816 88.269 347.371 88.269 348.032C88.269 348.693 88.3917 349.248 88.637 349.696C88.8823 350.144 89.197 350.48 89.581 350.704C89.9757 350.928 90.397 351.04 90.845 351.04ZM96.6978 352V344.064H97.9138L97.9938 345.488C98.2498 344.987 98.6178 344.592 99.0978 344.304C99.5778 344.016 100.122 343.872 100.73 343.872C101.668 343.872 102.415 344.16 102.97 344.736C103.535 345.301 103.818 346.176 103.818 347.36V352H102.474V347.504C102.474 345.851 101.791 345.024 100.426 345.024C99.7431 345.024 99.1724 345.275 98.7138 345.776C98.2658 346.267 98.0418 346.971 98.0418 347.888V352H96.6978ZM108.99 349.504C108.542 349.504 108.131 349.445 107.758 349.328L106.958 350.08C107.075 350.165 107.219 350.24 107.39 350.304C107.571 350.357 107.827 350.411 108.158 350.464C108.489 350.507 108.953 350.555 109.55 350.608C110.617 350.683 111.379 350.928 111.838 351.344C112.297 351.76 112.526 352.304 112.526 352.976C112.526 353.435 112.398 353.872 112.142 354.288C111.897 354.704 111.513 355.045 110.99 355.312C110.478 355.579 109.817 355.712 109.006 355.712C108.291 355.712 107.657 355.616 107.102 355.424C106.547 355.243 106.115 354.96 105.806 354.576C105.497 354.203 105.342 353.728 105.342 353.152C105.342 352.853 105.422 352.528 105.582 352.176C105.742 351.835 106.041 351.509 106.478 351.2C106.243 351.104 106.041 351.003 105.87 350.896C105.71 350.779 105.561 350.651 105.422 350.512V350.144L106.782 348.8C106.153 348.267 105.838 347.563 105.838 346.688C105.838 346.165 105.961 345.691 106.206 345.264C106.451 344.837 106.809 344.501 107.278 344.256C107.747 344 108.318 343.872 108.99 343.872C109.449 343.872 109.865 343.936 110.238 344.064H113.166V345.072L111.678 345.136C111.987 345.584 112.142 346.101 112.142 346.688C112.142 347.211 112.014 347.685 111.758 348.112C111.513 348.539 111.155 348.88 110.686 349.136C110.227 349.381 109.662 349.504 108.99 349.504ZM108.99 348.4C109.555 348.4 110.003 348.256 110.334 347.968C110.675 347.669 110.846 347.243 110.846 346.688C110.846 346.144 110.675 345.728 110.334 345.44C110.003 345.141 109.555 344.992 108.99 344.992C108.414 344.992 107.955 345.141 107.614 345.44C107.283 345.728 107.118 346.144 107.118 346.688C107.118 347.243 107.283 347.669 107.614 347.968C107.955 348.256 108.414 348.4 108.99 348.4ZM106.654 353.024C106.654 353.557 106.878 353.952 107.326 354.208C107.774 354.475 108.334 354.608 109.006 354.608C109.667 354.608 110.195 354.464 110.59 354.176C110.995 353.888 111.198 353.504 111.198 353.024C111.198 352.683 111.059 352.384 110.782 352.128C110.505 351.883 109.993 351.739 109.246 351.696C108.659 351.653 108.153 351.6 107.726 351.536C107.289 351.771 107.001 352.021 106.862 352.288C106.723 352.565 106.654 352.811 106.654 353.024ZM115.146 352.08C114.879 352.08 114.655 351.995 114.474 351.824C114.303 351.643 114.218 351.424 114.218 351.168C114.218 350.912 114.303 350.699 114.474 350.528C114.655 350.347 114.879 350.256 115.146 350.256C115.402 350.256 115.615 350.347 115.786 350.528C115.967 350.699 116.058 350.912 116.058 351.168C116.058 351.424 115.967 351.643 115.786 351.824C115.615 351.995 115.402 352.08 115.146 352.08Z" fill="#333333" fill-opacity="0.496405"/>
</svg>
