<svg width="520" height="673" viewBox="0 0 520 673" fill="none" xmlns="http://www.w3.org/2000/svg">
<path fill-rule="evenodd" clip-rule="evenodd" d="M153.648 187.842C128.048 201.774 103.205 217.053 79.2224 233.614L78.7224 232.864C80.2189 231.838 81.7175 230.816 83.2161 229.794L83.2771 229.752L83.2882 229.744C86.7187 227.404 90.1496 225.064 93.5577 222.685C108.208 212.439 123.598 203.384 138.987 194.328L138.988 194.328L140.669 193.339C152.465 186.463 165.047 181.033 178.14 177.164C190.426 173.463 202.187 168.404 213.951 163.345L213.951 163.345L213.952 163.344L213.956 163.343L213.96 163.341L213.964 163.339L213.968 163.337L213.972 163.336L213.976 163.334L213.98 163.332L213.984 163.331L213.988 163.329L213.993 163.327L213.997 163.325L214.001 163.324L214.005 163.322L214.009 163.32L214.013 163.318L214.016 163.317C217.166 161.962 220.315 160.608 223.474 159.28C252.252 147.181 281.537 136.519 311.955 129.262C312.633 129.101 313.326 128.905 314.022 128.709C315.785 128.213 317.563 127.713 319.148 127.742C321.379 127.784 323.588 127.537 325.798 127.29C329.022 126.93 332.249 126.569 335.552 127.104C336.903 127.322 338.287 127.159 339.7 126.992L339.701 126.992C341.388 126.794 343.116 126.59 344.877 127.024C351.611 128.678 358.459 128.606 365.317 128.534L365.317 128.534C367.401 128.512 369.486 128.49 371.569 128.516C385.353 128.692 399.4 128.888 412.274 134.186C435.391 143.7 457.572 155.23 476.003 172.474C495.076 190.319 508.116 211.795 513.877 237.684C514.287 239.528 514.718 241.366 515.148 243.2L515.148 243.201L515.149 243.203C517.318 252.456 519.471 261.64 518.948 271.294C518.507 277.269 517.668 283.208 516.437 289.073C516.006 291.345 515.68 293.632 515.355 295.918L515.355 295.919C514.671 300.727 513.986 305.536 512.322 310.221C508.926 319.787 505.47 329.27 501.163 338.498C496.638 348.186 498.59 358.038 501.784 367.859C503.176 372.139 504.734 376.362 506.291 380.586L506.292 380.587C509.15 388.337 512.009 396.088 513.843 404.193C521.77 439.209 517.509 472.532 501.553 504.804C495.759 516.524 489.16 527.744 482.561 538.964C479.988 543.339 477.415 547.714 474.89 552.118C470.848 559.166 466.539 566.068 462.232 572.967L462.232 572.967L462.232 572.968L462.232 572.968C457.532 580.494 452.835 588.018 448.489 595.727C429.662 629.105 399.087 646.332 364.796 658.712C349.573 664.207 333.599 666.622 317.541 668.557C314.826 668.885 312.113 669.23 309.4 669.575C294.595 671.458 279.813 673.339 264.781 672.331C232.795 670.182 203.471 660.941 177.99 640.894C165.719 631.241 153.459 621.57 143.414 609.538C133.435 597.855 125.619 584.488 120.331 570.062C117.071 560.946 114.462 551.638 111.853 542.331L111.853 542.331L111.853 542.331L111.853 542.33L111.853 542.33L111.853 542.33L111.853 542.329L111.853 542.329L111.853 542.328L111.852 542.328L111.852 542.328L111.852 542.327L111.852 542.327L111.852 542.327L111.852 542.326L111.852 542.326L111.852 542.326L111.852 542.325L111.852 542.325L111.851 542.324L111.851 542.324L111.851 542.324L111.851 542.323L111.851 542.323L111.851 542.323L111.851 542.322C109.392 533.548 106.933 524.775 103.928 516.166C102.725 512.781 101.225 509.509 99.4463 506.388C97.7229 503.317 96.1579 500.156 94.5932 496.995C91.9426 491.642 89.293 486.29 85.8759 481.379C82.6635 476.763 79.3238 472.235 75.9842 467.707L75.9837 467.707L75.9833 467.706L75.9829 467.705L75.9824 467.705L75.982 467.704L75.9815 467.704L75.9811 467.703L75.9807 467.702L75.9802 467.702L75.9798 467.701L75.9794 467.701L75.9789 467.7L75.9785 467.7L75.9781 467.699L75.9776 467.698L75.9772 467.698L75.9768 467.697L75.9763 467.697L75.9759 467.696L75.9755 467.695L75.975 467.695L75.9746 467.694L75.9741 467.694L75.9737 467.693L75.9733 467.692C72.4819 462.959 68.9907 458.225 65.6447 453.392C55.7314 438.877 47.3734 423.359 40.7085 407.094C34.3496 391.817 29.2804 376.033 25.5539 359.907C23.2455 350.303 22.1201 340.451 22.2029 330.571C22.221 329.418 22.1258 328.226 22.0294 327.02L22.0293 327.019L22.0292 327.018L22.0292 327.018L22.0292 327.017L22.0291 327.017L22.0291 327.017L22.0291 327.016L22.0291 327.016L22.0291 327.015L22.0291 327.015L22.029 327.015L22.029 327.014L22.029 327.014L22.029 327.013L22.029 327.013L22.029 327.012L22.0289 327.012L22.0289 327.012L22.0289 327.011L22.0289 327.011L22.0289 327.01C21.7378 323.366 21.4366 319.595 24.2028 316.39C24.7087 302.157 31.7029 290.658 38.6937 279.164C40.213 276.667 41.732 274.169 43.1843 271.644C45.5281 267.569 48.412 263.877 51.293 260.189L51.2936 260.189L51.2943 260.188L51.2949 260.187L51.2955 260.186L51.2961 260.185L51.2968 260.185L51.2974 260.184L51.298 260.183L51.2986 260.182L51.2993 260.182L51.2999 260.181C52.8004 258.26 54.3001 256.34 55.7219 254.367C58.0187 251.182 60.9859 248.999 63.939 246.825C65.3371 245.796 66.732 244.77 68.0512 243.641C77.6764 235.388 88.282 228.431 98.8789 221.48C100.607 220.346 102.335 219.213 104.058 218.074C120.196 207.404 136.886 197.614 153.648 187.842ZM386.981 244.817L386.98 244.819C380.445 256.761 373.844 268.822 369.202 282.566C379.895 267.98 392.783 241.629 392.241 235.099C390.52 238.35 388.753 241.578 386.982 244.815L386.981 244.817ZM373.732 316.855L371.957 316.122C373.146 313.187 374.292 310.234 375.439 307.281C379.437 296.978 383.438 286.672 389.247 277.13C385.37 290.845 379.589 303.765 373.807 316.687L373.732 316.855ZM450.536 429.017C449.326 435.38 447.551 441.606 445.778 447.827C443.538 455.685 441.3 463.537 440.205 471.648C446.156 458.161 449.655 443.725 450.536 429.017ZM467.945 317.814C465.672 311.683 469.012 291.804 472.992 288.003C472.372 291.447 471.935 294.925 471.495 298.433C470.697 304.793 469.887 311.256 467.945 317.814ZM304.344 430.389C310.536 424.425 321.703 404.269 322.446 397.687L304.344 430.389ZM244.825 656.005C235.639 652.373 226.045 649.868 216.252 648.545C225.301 652.58 234.954 655.1 244.825 656.005ZM451.53 501.964C452.095 500.665 452.675 499.37 453.255 498.075C456.934 489.862 460.614 481.649 460.363 472.253C458.671 478.259 456.863 484.229 455.055 490.201L455.055 490.201L455.055 490.202L455.055 490.202L455.055 490.202L455.055 490.203L455.055 490.203L455.055 490.204L455.054 490.204L455.054 490.205L455.054 490.205L455.054 490.205L455.054 490.206L455.054 490.206L455.054 490.207L455.054 490.207L455.053 490.208L455.053 490.208L455.053 490.209L455.053 490.209L455.052 490.214C453.867 494.127 452.682 498.04 451.53 501.964ZM391.473 291.508C392.203 289.877 392.932 288.246 393.65 286.611C391.096 297.113 386.642 306.9 381.957 316.598C384.155 307.868 387.814 299.688 391.473 291.508ZM439.767 600.243C436.254 605.169 432.405 609.848 428.249 614.247C425.395 617.234 422.391 620.078 419.387 622.922L419.387 622.923C418.075 624.164 416.764 625.406 415.465 626.66C426.317 619.817 437.225 607.891 439.767 600.243ZM423.464 517.017C423.666 521.783 414.284 539.488 407.793 546.605C408.839 544.567 409.946 542.552 411.057 540.533C412.622 537.686 414.193 534.829 415.603 531.881C417.224 528.485 419.031 525.175 420.913 521.728C421.752 520.192 422.606 518.628 423.464 517.017ZM363.647 254.686L362.775 254.194C358.528 258.688 356.122 264.222 353.716 269.756C353.303 270.707 352.89 271.657 352.467 272.602L353.306 273.074L363.647 254.686ZM279.882 449.267L267.005 471.882C269.974 463.687 274.031 455.925 279.066 448.806L279.32 448.95L279.52 449.063C279.641 449.131 279.761 449.199 279.882 449.267ZM264.968 444.984C261.421 447.543 253.87 461.622 253.167 466.07L264.968 444.984ZM391.612 315.896L390.553 315.44L398.187 296.307C396.991 303.208 394.357 309.566 391.612 315.896ZM451.093 339.274L451.094 339.27L451.095 339.276L451.093 339.274ZM453.206 320.131C450.911 326.236 450.184 332.817 451.094 339.27L453.206 320.131ZM496.354 275.77L494.759 256.201L494.761 256.204C496.767 262.52 497.312 269.21 496.354 275.77ZM295.544 553.132L296.425 553.836L306.416 541.266L305.665 540.667C304.379 542.59 302.774 544.259 301.17 545.928C299.05 548.133 296.93 550.339 295.543 553.131L295.544 553.132ZM246.37 437.671L246.373 437.668L246.372 437.667L246.37 437.671ZM239.107 449.31C240.513 444.884 243.011 440.881 246.37 437.671C246.085 438.282 245.808 438.901 245.531 439.52C243.932 443.087 242.316 446.691 239.107 449.31ZM504.909 294.729C506.773 291.49 507.694 287.795 507.568 284.063C507.568 283.959 507.577 283.849 507.585 283.74C507.625 283.237 507.665 282.72 506.959 282.584C506.099 282.417 505.916 283.12 505.866 283.714C505.595 286.568 505.355 289.423 505.115 292.278L505.115 292.279L505.115 292.283C505.046 293.098 504.978 293.913 504.909 294.728L504.909 294.729ZM477.942 477.59L477.943 477.588L477.942 477.586L477.942 477.59ZM477.942 477.59C477.795 478.043 477.647 478.496 477.498 478.948C476.209 482.876 474.928 486.776 474.849 490.925C477.535 486.842 477.812 482.207 477.942 477.59ZM486.679 279.918C488.162 274.979 487.901 268.304 486.426 265.515L486.679 279.918ZM66.853 274.337L66.8456 274.344L66.8503 274.342L66.853 274.337ZM66.853 274.337L77.3414 264.495C73.0328 266.787 69.4123 270.184 66.853 274.337ZM381.272 266.638C378.603 270.267 376.506 274.283 375.055 278.546C377.67 274.884 379.763 270.876 381.272 266.638ZM152.767 602.294C153.059 603.109 153.348 603.913 153.829 604.581L153.815 604.571C151.695 603.007 149.57 601.438 149.227 598.225C151.553 598.906 152.168 600.623 152.767 602.294ZM315.499 469.03C312.963 471.838 310.965 475.089 309.605 478.618C312.124 475.797 314.121 472.55 315.499 469.03ZM151.068 192.574L151.158 192.737L141.286 198.209L141.196 198.047L151.068 192.574Z" fill="#9EAD8D"/>
<path fill-rule="evenodd" clip-rule="evenodd" d="M431.21 76.4224L431.21 76.4225L431.21 76.4225L431.21 76.4225C431.092 76.4528 430.968 76.4844 430.838 76.5167C430.386 75.5477 430.174 75.3978 429.333 75.6597L429.279 75.6765C428.873 75.802 428.443 75.9353 428.173 76.3675C428.043 76.5773 427.874 76.7628 427.705 76.9486C427.544 77.1258 427.382 77.3031 427.254 77.5019C426.724 78.322 426.309 79.1908 426.436 80.2172C426.478 80.5469 426.502 80.8787 426.528 81.2223L426.528 81.2223C426.54 81.3812 426.552 81.5426 426.566 81.7075L426.872 81.9643C426.909 81.9953 426.946 82.0259 426.983 82.0566L426.983 82.0566L426.983 82.0566L426.983 82.0566L426.983 82.0566L426.983 82.0567L426.983 82.0567L426.983 82.0567L426.983 82.0567L426.983 82.0567L426.983 82.0568L426.983 82.0568L426.983 82.0568L426.983 82.0568L426.983 82.0569L426.983 82.0569L426.984 82.0569L426.984 82.0569L426.984 82.0569L426.984 82.057L426.984 82.057L426.984 82.057L426.984 82.057L426.984 82.057L426.984 82.0571L426.984 82.0571L426.984 82.0571L426.984 82.0572L426.984 82.0572L426.984 82.0572L426.984 82.0572L426.984 82.0573L426.984 82.0573L426.984 82.0573L426.984 82.0573L426.984 82.0574L426.984 82.0574L426.984 82.0574L426.984 82.0574L426.984 82.0575L426.984 82.0575L426.984 82.0575L426.984 82.0575L426.984 82.0576L426.984 82.0576C427.059 82.119 427.134 82.1805 427.206 82.2447C427.77 82.7468 427.769 82.7489 427.421 83.6325L427.412 83.653C427.38 83.7358 427.366 83.8331 427.352 83.9287C427.331 84.0733 427.31 84.2137 427.227 84.2928C426.733 84.7615 426.812 85.2744 426.971 85.8284L427.668 85.3752L428.443 84.8712L428.58 85.0416L427.535 86.2863C428.158 87.1094 428.661 86.6637 429.131 86.2478C429.16 86.222 429.189 86.1963 429.218 86.171C429.505 86.7696 429.835 87.105 430.443 86.8355C430.931 86.6187 430.952 86.9056 430.973 87.1982L430.973 87.1982L430.973 87.1983C430.976 87.2385 430.979 87.2788 430.983 87.3179C432.013 87.009 432.908 86.356 433.517 85.4683C434.018 84.7984 434.564 84.163 435.11 83.5275L435.11 83.5275L435.11 83.5274L435.11 83.5273L435.11 83.5273L435.11 83.5272L435.11 83.5272L435.11 83.5271L435.11 83.527L435.11 83.527L435.11 83.5269L435.11 83.5269L435.11 83.5268L435.11 83.5268L435.11 83.5267L435.111 83.5266L435.111 83.5266L435.111 83.5265L435.111 83.5265L435.111 83.5264L435.111 83.5263L435.111 83.5263L435.111 83.5262C435.392 83.1995 435.673 82.8726 435.947 82.5411C436.098 82.3404 436.24 82.1322 436.37 81.9173L436.251 81.8262L435.237 82.8159C435.343 82.4354 435.54 82.0859 435.811 81.7976C436.047 81.5034 436.261 81.1915 436.45 80.8647C436.593 80.546 436.715 80.2178 436.814 79.8825L436.199 80.2512C436.401 79.2375 436.4 79.2369 435.551 78.8172L435.545 78.8139C435.429 78.7562 435.245 78.661 435.242 78.58C435.23 78.1334 435.026 78.06 434.607 78.0301C434.508 78.023 434.434 77.8746 434.352 77.7112C434.276 77.5604 434.194 77.3969 434.081 77.3195C433.774 77.1319 433.429 77.0148 433.071 76.9763C432.838 76.9429 432.771 76.7711 432.706 76.6037C432.645 76.4494 432.586 76.2988 432.401 76.2641C432.266 76.23 432.127 76.221 431.989 76.2376C431.736 76.2876 431.487 76.3515 431.21 76.4224ZM443.668 104.398C443.504 104.331 443.406 104.104 443.214 103.657C443.07 103.698 442.92 103.703 442.769 103.707C442.446 103.717 442.117 103.727 441.825 104.087C441.434 104.554 441.232 105.15 441.259 105.756C441.26 105.826 441.258 105.898 441.257 105.971C441.251 106.205 441.245 106.446 441.346 106.619C441.642 107.125 441.658 107.669 441.673 108.211C441.681 108.475 441.689 108.738 441.728 108.997C441.869 109.914 441.479 110.747 440.979 111.439C439.765 113.12 439.556 115.059 439.348 116.997L439.331 117.154C439.264 117.781 439.66 118.236 440.063 118.697C440.131 118.776 440.2 118.855 440.267 118.936L440.3 118.975C441.024 119.844 441.194 120.049 442.041 119.7L442.134 119.661C442.666 119.44 443.012 119.296 443.132 120.095C443.14 120.156 443.368 120.192 443.544 120.22L443.571 120.224C443.592 120.227 443.613 120.23 443.631 120.234C443.703 120.246 443.799 120.246 443.888 120.246L443.888 120.246C444.007 120.246 444.112 120.246 444.12 120.275C444.3 120.987 444.699 120.584 444.898 120.382L444.908 120.372C444.976 120.303 445.044 120.235 445.113 120.166L445.113 120.166L445.113 120.166L445.113 120.166L445.114 120.166C445.569 119.713 446.04 119.244 446.296 118.687C446.386 118.492 446.498 118.301 446.61 118.109L446.61 118.109L446.61 118.109L446.61 118.109L446.61 118.109L446.61 118.109L446.61 118.109L446.61 118.109L446.61 118.109L446.61 118.109L446.61 118.109L446.61 118.109L446.61 118.109L446.61 118.109L446.61 118.109L446.61 118.108L446.61 118.108L446.61 118.108L446.61 118.108L446.61 118.108L446.61 118.108L446.611 118.108L446.611 118.108L446.611 118.108L446.611 118.108C446.892 117.627 447.178 117.139 447.131 116.555C447.068 116.175 447.194 115.787 447.469 115.516C447.572 115.366 447.63 115.19 447.636 115.009C447.654 114.89 447.672 114.772 447.691 114.653C447.771 114.139 447.851 113.625 447.886 113.108C447.91 112.76 447.909 112.411 447.909 112.063C447.909 111.706 447.908 111.35 447.933 110.995C447.969 110.494 447.961 109.991 447.952 109.494L447.952 109.493L447.952 109.493C447.951 109.394 447.949 109.296 447.948 109.198C447.946 109.086 447.947 108.972 447.947 108.858L447.947 108.858C447.95 108.087 447.954 107.292 447.359 106.635C446.957 106.145 446.581 105.633 446.234 105.102C445.761 105.149 445.468 104.873 445.177 104.599C444.989 104.424 444.803 104.248 444.569 104.159C444.078 104.366 443.837 104.469 443.668 104.398ZM464.74 246.909C465.713 246.059 466.801 245.489 468.065 245.528C468.188 245.339 468.298 245.164 468.401 245L468.401 245L468.402 244.998L468.403 244.998C468.607 244.672 468.785 244.389 468.985 244.126C469.381 243.607 469.672 242.985 469.298 242.459C468.852 241.832 468.698 241.324 469.185 240.691C469.232 240.61 469.239 240.513 469.205 240.427C468.854 239.719 468.835 238.963 468.815 238.207L468.815 238.206C468.805 237.812 468.794 237.418 468.737 237.031L468.715 236.878C468.589 236.01 468.583 235.964 467.633 235.275C467.443 235.137 467.241 235.014 467.01 234.871L466.873 234.787C466.799 234.742 466.722 234.694 466.642 234.643C466.63 233.856 466.669 233.07 466.757 232.287C466.791 232.072 466.786 231.849 466.781 231.625C466.771 231.154 466.76 230.682 467.118 230.28C466.82 229.952 466.828 229.553 466.836 229.191C466.841 228.955 466.846 228.735 466.765 228.561L465.442 227.836L464.919 228.459C464.884 228.235 464.863 228.104 464.854 228.044L464.2 227.967C463.568 230.292 463.158 232.67 462.974 235.07C462.964 235.439 462.735 235.769 462.391 235.906C462.429 235.533 462.461 235.167 462.493 234.809C462.562 234.02 462.628 233.263 462.757 232.517C462.923 231.561 463.141 230.615 463.36 229.666L463.36 229.666L463.36 229.665L463.361 229.664L463.361 229.663L463.361 229.663C463.455 229.254 463.55 228.845 463.64 228.435C462.681 228.358 462.68 228.361 462.463 229.09L462.453 229.123C461.822 231.247 461.505 233.434 461.188 235.614L461.188 235.614C461.14 235.946 461.092 236.277 461.043 236.609C460.678 239.067 460.408 241.55 460.781 244.054C460.854 244.543 461.024 244.98 461.193 245.416L461.193 245.417C461.27 245.615 461.347 245.813 461.414 246.016C461.533 246.257 461.766 246.422 462.033 246.453C462.416 246.414 462.686 246.557 462.976 246.71L463.032 246.74C463.088 246.769 463.145 246.798 463.204 246.826C463.241 246.844 463.279 246.863 463.317 246.881C463.743 247.091 464.247 247.338 464.74 246.909ZM479.886 206.945C479.859 206.618 479.839 206.3 479.82 205.99C479.78 205.33 479.741 204.701 479.631 204.085C479.255 201.982 479.708 199.976 480.161 197.97C480.268 197.498 480.375 197.026 480.471 196.553C480.661 195.612 481.288 194.925 481.908 194.245L481.909 194.244C482.024 194.117 482.139 193.991 482.251 193.863C482.335 193.767 482.508 193.749 482.685 193.729C482.769 193.72 482.854 193.711 482.932 193.694L482.924 193.726C482.821 194.161 482.723 194.573 482.583 195.169L483.87 193.635C484.014 193.669 484.153 193.711 484.286 193.751C484.577 193.839 484.847 193.921 485.112 193.909C485.505 193.91 485.865 194.124 486.054 194.467C486.212 194.686 486.281 194.969 486.354 195.266C486.386 195.398 486.419 195.533 486.461 195.665C485.614 196.327 485.363 197.266 485.164 198.295C485.318 198.366 485.443 198.489 485.57 198.613C485.797 198.835 486.031 199.064 486.449 199.02C486.642 199.052 486.807 199.177 486.887 199.356C486.987 199.649 487.109 199.937 487.232 200.226C487.625 201.156 488.02 202.089 487.669 203.178L487.645 203.252L487.644 203.252C487.565 203.495 487.472 203.777 487.549 203.973C487.602 204.11 487.537 204.229 487.471 204.347C487.381 204.51 487.292 204.671 487.52 204.878C487.734 205.073 487.584 205.21 487.432 205.35C487.355 205.42 487.278 205.491 487.246 205.57C487.145 205.87 487.023 206.162 486.88 206.444C486.714 206.684 486.529 206.911 486.326 207.121C484.876 207.178 483.46 207.589 482.201 208.317L479.886 206.945ZM488.003 140.007L488.001 140.006C487.423 139.951 486.855 139.897 486.292 139.814C486.246 139.807 486.22 139.673 486.187 139.504L486.187 139.504L486.187 139.503C486.169 139.414 486.15 139.314 486.124 139.218C485.883 139.329 485.635 139.421 485.38 139.494C485.092 139.538 484.801 139.568 484.51 139.582L484.432 139.59C483.869 139.652 483.311 139.712 483.265 138.867C483.262 138.826 483.208 138.79 483.152 138.752C483.117 138.728 483.08 138.704 483.055 138.677C482.935 138.552 482.806 138.44 482.678 138.329C482.301 138 481.93 137.677 481.802 137.032C481.748 136.757 481.661 136.482 481.574 136.204C481.441 135.782 481.305 135.351 481.277 134.898C481.189 134.197 481.201 133.485 481.314 132.786C481.556 131.687 481.797 130.601 482.692 129.823C482.987 129.633 483.303 129.48 483.635 129.365L483.848 130.518C484.038 130.393 484.217 130.247 484.398 130.1L484.399 130.1C484.878 129.71 485.37 129.309 486.101 129.262L486.358 130.367L487.045 129.548C487.307 129.701 487.573 129.836 487.836 129.969C488.416 130.263 488.982 130.55 489.462 131.005C489.845 131.339 490.095 131.801 490.166 132.306C490.188 132.518 490.229 132.725 490.27 132.933C490.348 133.335 490.427 133.739 490.377 134.173C490.342 134.474 490.345 134.779 490.348 135.087C490.35 135.388 490.353 135.692 490.32 135.997C490.252 136.631 490.035 137.214 489.819 137.797C489.69 138.145 489.56 138.493 489.463 138.852C489.378 139.167 489.108 139.433 488.84 139.696C488.72 139.814 488.6 139.933 488.498 140.054C488.335 140.038 488.172 140.023 488.011 140.007L488.003 140.007ZM421.156 124.263L423.179 121.852L423.015 121.63C422.82 121.761 422.603 121.88 422.387 121.998L422.387 121.998L422.387 121.998C421.895 122.268 421.403 122.538 421.164 122.952C421.065 123.124 420.956 123.295 420.845 123.467L420.845 123.467C420.494 124.014 420.133 124.577 420.055 125.281C420.009 125.697 419.906 126.108 419.802 126.519C419.562 127.472 419.323 128.423 419.801 129.419C419.474 130.075 419.752 130.636 420.019 131.173C420.091 131.318 420.162 131.461 420.22 131.604C420.597 132.527 421.03 133.481 422.256 133.631C423.072 133.731 423.884 133.87 424.687 134.007L424.687 134.007C425.038 134.067 425.387 134.126 425.734 134.182C426.007 133.808 426.309 133.455 426.636 133.127C427.338 132.522 427.521 131.663 427.551 130.873C427.568 130.412 427.741 129.969 428.041 129.617C428.148 129.126 428.056 128.696 427.967 128.279C427.889 127.91 427.812 127.552 427.876 127.17C427.886 126.756 427.707 126.363 427.39 126.1C427.198 125.956 427.027 125.779 426.856 125.602L426.856 125.602L426.856 125.602L426.856 125.602L426.856 125.602L426.856 125.602L426.856 125.602L426.856 125.602L426.856 125.602L426.856 125.602L426.856 125.602L426.856 125.602L426.856 125.602L426.856 125.602L426.856 125.602L426.856 125.602L426.856 125.602L426.855 125.602L426.855 125.602L426.855 125.602L426.855 125.602C426.467 125.201 426.075 124.796 425.422 124.756C425.323 124.75 425.24 124.599 425.15 124.436L425.15 124.436C425.088 124.324 425.024 124.206 424.948 124.127C424.89 124.065 424.791 124.043 424.659 124.013C424.589 123.997 424.51 123.98 424.423 123.953C424.639 123.756 424.823 123.527 424.967 123.272C425.052 123.04 425.063 122.588 424.934 122.509C424.541 122.293 424.117 122.14 423.676 122.054C423.353 121.975 423.194 122.197 423.041 122.413C422.995 122.477 422.95 122.541 422.901 122.596C422.803 122.705 422.707 122.816 422.611 122.927L422.611 122.927C422.184 123.422 421.756 123.918 421.156 124.263ZM434.585 152.141L434.347 149.319C434.675 148.883 435.032 148.471 435.417 148.084C435.574 147.941 435.94 147.973 436.191 148.023C436.258 148.036 436.297 148.181 436.337 148.326C436.354 148.389 436.372 148.452 436.391 148.505C436.454 148.477 436.518 148.447 436.582 148.415C436.959 148.233 437.353 148.042 437.745 148.527C437.825 148.645 437.947 148.728 438.086 148.761C438.546 148.769 439.034 148.791 439.301 149.182C439.392 149.315 439.488 149.448 439.585 149.582C439.996 150.15 440.415 150.731 440.515 151.415C440.759 153.084 440.892 154.788 440.33 156.433C440.012 157.422 439.599 158.379 439.097 159.289C438.832 159.766 438.318 160.049 437.776 160.019C437.386 159.986 436.996 159.961 436.606 159.937L436.606 159.937L436.605 159.937L436.605 159.937L436.605 159.937L436.605 159.937L436.605 159.937L436.605 159.936L436.604 159.936L436.604 159.936L436.604 159.936L436.604 159.936L436.603 159.936L436.603 159.936L436.603 159.936L436.603 159.936L436.603 159.936L436.602 159.936L436.602 159.936L436.602 159.936C435.982 159.897 435.361 159.858 434.745 159.785C434.382 159.743 434.041 159.59 433.769 159.345C432.265 157.842 431.753 156.103 432.822 153.857C432.873 153.75 432.914 153.633 432.955 153.516C433.04 153.276 433.125 153.037 433.291 152.888C433.694 152.593 434.128 152.343 434.585 152.141ZM403.74 194.286L403.305 195.073C403.764 194.847 404.079 194.591 404.103 194.019C404.119 193.653 404.218 193.301 404.318 192.945L404.318 192.945C404.452 192.466 404.588 191.982 404.524 191.455C404.459 191.132 404.432 190.803 404.444 190.474C404.754 188.488 404.162 186.722 403.317 185L403.298 184.96L403.284 184.932C403.189 184.733 403.061 184.467 402.946 184.465C402.578 184.461 402.458 184.244 402.329 184.015C402.299 183.96 402.268 183.904 402.233 183.851C402.131 183.695 401.937 183.482 401.797 183.492C401.325 183.525 400.905 183.385 400.481 183.245L400.481 183.245C400.39 183.215 400.298 183.184 400.206 183.156C400.091 183.12 399.864 183.066 399.844 183.393C399.833 183.554 399.732 183.709 399.617 183.886C399.562 183.972 399.503 184.063 399.449 184.162C399.132 183.429 398.781 182.929 398.088 183.124C398.021 183.319 397.942 183.508 397.866 183.692L397.866 183.692L397.866 183.693L397.866 183.693L397.866 183.693L397.866 183.693L397.866 183.693L397.866 183.693L397.866 183.693L397.866 183.693L397.866 183.693L397.866 183.693L397.866 183.693L397.866 183.693L397.866 183.693L397.865 183.693L397.865 183.693L397.865 183.694L397.865 183.694C397.702 184.088 397.546 184.463 397.523 184.844C397.5 185.212 397.43 185.578 397.36 185.945C397.21 186.729 397.06 187.515 397.374 188.313C397.027 190.043 397.587 191.604 398.149 193.17L398.149 193.17L398.149 193.171C398.197 193.303 398.244 193.435 398.291 193.567C398.422 194.112 398.891 194.508 399.45 194.545C399.475 194.548 399.501 194.551 399.528 194.553C399.754 194.574 400.027 194.598 400.084 195.02C400.143 195.182 400.272 195.309 400.435 195.366C400.597 195.422 400.777 195.403 400.926 195.314C401.294 195.057 401.734 194.998 402.175 194.94C402.744 194.864 403.316 194.788 403.74 194.286ZM515.05 199.562L515.681 198.996C515.692 199.041 515.706 199.081 515.718 199.116C515.741 199.18 515.758 199.23 515.745 199.269C515.662 199.526 515.586 199.785 515.51 200.044L515.51 200.045C515.307 200.739 515.104 201.432 514.766 202.083L514.718 202.177C514.445 202.707 514.186 203.212 513.463 203.199C513.264 203.196 513.099 203.337 512.933 203.479C512.665 203.708 512.397 203.937 511.987 203.55C511.23 203.8 510.753 203.335 510.29 202.885L510.254 202.85C509.877 203.121 509.482 203.366 509.071 203.583C508.611 203.791 507.993 203.441 507.558 202.794C507.518 202.734 507.49 202.66 507.464 202.587C507.425 202.48 507.387 202.376 507.31 202.323L507.283 202.304C506.313 201.625 506.311 201.623 506.536 200.567C506.621 200.03 506.736 199.498 506.881 198.974C507.093 198.395 507.045 197.754 506.749 197.217C506.311 196.361 506.349 195.336 506.848 194.509C507.291 193.76 508.103 193.413 509.084 193.429L509.058 193.964L509.058 193.979L509.053 194.083L509.051 194.12L509.051 194.13L509.05 194.136L509.049 194.162C509.03 194.567 509.009 195.007 508.983 195.542C509.128 195.37 509.257 195.215 509.375 195.072L509.379 195.068L509.382 195.064L509.385 195.061L509.388 195.057L509.391 195.054C509.639 194.755 509.844 194.51 510.054 194.27C510.304 193.984 510.338 193.994 510.742 194.123C510.845 194.156 510.972 194.196 511.132 194.241C511.323 194.294 511.495 194.413 511.668 194.531C512.004 194.761 512.339 194.992 512.81 194.746L514.057 195.713C514.826 196.308 515.417 196.944 515.066 198.067C514.969 198.372 514.996 198.714 515.023 199.069C515.036 199.232 515.049 199.397 515.05 199.562ZM400.254 110.203C399.74 110.953 399.789 111.952 400.373 112.642L401.558 112.023C401.239 112.785 401.119 113.46 401.757 114.127C402.04 113.998 402.329 113.883 402.624 113.784C402.702 113.761 402.792 113.757 402.881 113.754C403.131 113.743 403.374 113.732 403.339 113.297L403.964 113.908C404.414 113.694 405.016 113.409 405.58 113.142C405.635 113.218 405.688 113.293 405.741 113.366L405.742 113.368C405.909 113.603 406.069 113.826 406.24 114.039C406.269 114.077 406.452 114.059 406.488 114.011C406.565 113.905 406.667 113.717 406.624 113.646C406.58 113.575 406.502 113.518 406.426 113.464C406.335 113.398 406.247 113.334 406.228 113.252C406.207 113.158 406.278 113.044 406.373 112.888C406.423 112.807 406.48 112.714 406.534 112.608L406.647 113.384C406.864 113.126 407.077 112.872 407.287 112.622L407.287 112.622L407.287 112.622C408.059 111.703 408.791 110.831 409.516 109.953C409.56 109.9 409.569 109.822 409.58 109.742C409.587 109.68 409.595 109.617 409.619 109.564C409.752 109.27 409.831 108.952 409.909 108.64C410.063 108.024 410.21 107.433 410.749 107.107C411.029 106.334 410.629 105.941 410.254 105.572C410.007 105.329 409.771 105.097 409.744 104.774C409.539 104.729 409.327 104.703 409.121 104.678C408.677 104.623 408.258 104.571 407.984 104.344C407.684 104.095 407.337 104.067 406.996 104.04C406.649 104.012 406.308 103.984 406.032 103.724C405.962 103.657 405.619 103.744 405.525 103.861C405.354 104.071 405.132 104.203 404.907 104.337C404.657 104.486 404.403 104.637 404.214 104.9C403.473 105.932 402.657 106.908 401.772 107.818C401.3 108.301 400.99 108.874 400.683 109.444C400.544 109.701 400.406 109.956 400.254 110.203ZM438.965 233.056L438.965 233.056L438.965 233.056C438.515 232.625 438.111 232.238 437.418 232.584C437.471 231.564 437.788 231.073 438.685 230.979C438.913 230.955 439.135 230.907 439.358 230.858L439.358 230.858L439.358 230.858L439.358 230.858L439.359 230.858L439.359 230.858L439.359 230.858L439.359 230.858L439.359 230.858L439.359 230.858L439.359 230.858L439.359 230.858L439.359 230.858L439.359 230.858L439.359 230.858L439.359 230.858C439.742 230.775 440.129 230.691 440.553 230.728C440.893 230.757 441.242 230.617 441.597 230.474C441.857 230.369 442.119 230.263 442.383 230.221C442.716 230.169 443.064 230.218 443.412 230.267C443.567 230.289 443.722 230.311 443.876 230.323L443.939 231L443.1 230.934L443.045 231.118L443.946 231.659C443.941 231.708 443.925 231.772 443.906 231.843C443.858 232.032 443.796 232.278 443.873 232.466C444.512 234.018 444.403 235.623 444.237 237.226C444.205 237.538 444.091 237.84 443.977 238.144L443.977 238.144C443.899 238.353 443.82 238.562 443.768 238.776L443.717 238.984C443.443 240.103 443.376 240.379 442.586 241.058C441.982 241.577 441.333 242.128 440.45 242.224C440.083 242.241 439.732 242.379 439.45 242.616C438.901 243.221 438.474 243.035 437.999 242.58C437.862 242.452 437.705 242.347 437.534 242.269C436.458 241.77 436.388 241.67 436.518 240.627C436.679 239.34 437.157 238.151 437.635 236.964L437.635 236.964C437.731 236.725 437.827 236.486 437.92 236.247C438.193 235.546 438.506 234.86 438.814 234.183L438.815 234.182C438.951 233.884 439.086 233.587 439.217 233.291C439.13 233.214 439.047 233.135 438.965 233.056ZM435.21 208.648C435.26 208.781 435.311 208.914 435.36 209.048C435.813 208.767 436.333 208.668 436.453 209.145C436.623 209.828 436.95 209.58 437.216 209.371C437.268 209.331 437.318 209.284 437.367 209.238C437.538 209.079 437.705 208.923 437.939 209.017C438.304 209.165 438.63 209.061 438.953 208.959C439.092 208.914 439.23 208.871 439.37 208.847C439.747 208.784 440.25 208.563 440.402 208.264C440.638 207.741 440.756 207.172 440.747 206.6C440.753 206.262 440.683 205.926 440.613 205.588C440.568 205.366 440.522 205.143 440.497 204.92C440.465 204.636 440.444 204.351 440.423 204.066C440.362 203.256 440.301 202.446 440.007 201.676C439.877 201.338 439.789 200.985 439.7 200.631L439.7 200.631C439.533 199.967 439.367 199.303 438.93 198.743C438.463 198.225 438.179 197.568 438.12 196.871C438.078 196.09 437.709 195.895 436.818 195.818C436.71 195.808 436.587 195.786 436.462 195.763C436.17 195.71 435.872 195.655 435.771 195.771C435.509 196.07 435.329 195.924 435.15 195.779C434.985 195.645 434.82 195.512 434.592 195.727C434.141 197.27 434.159 198.934 434.178 200.588C434.18 200.777 434.182 200.966 434.183 201.155C434.192 202.332 434.312 203.506 434.432 204.681L434.432 204.682C434.49 205.254 434.549 205.826 434.594 206.399C434.658 207.192 434.931 207.914 435.21 208.648ZM485.463 235.883L485.463 235.883L485.473 235.83C485.692 234.586 485.999 233.359 486.392 232.158C486.478 231.898 486.55 231.63 486.623 231.36C486.883 230.391 487.149 229.402 488.105 228.701C488.278 229.35 488.094 229.94 487.904 230.551C487.731 231.108 487.552 231.682 487.632 232.335C488.094 231.622 488.343 230.873 488.601 230.093C488.8 229.495 489.004 228.88 489.315 228.251L489.708 229.271C489.908 229.104 490.116 228.93 490.324 228.756L491.555 229.443C491.544 229.516 491.531 229.599 491.516 229.687L491.516 229.688L491.516 229.689C491.48 229.908 491.438 230.165 491.417 230.424C491.303 231.835 491.309 231.845 492.093 233.186L492.112 233.219C492.197 233.378 492.265 233.546 492.313 233.72C492.728 235.032 493.003 236.348 492.668 237.741C492.527 238.375 492.264 238.975 491.895 239.509C491.822 239.625 491.79 239.762 491.802 239.898C491.822 240.021 491.775 240.145 491.679 240.226C491.584 240.306 491.453 240.33 491.336 240.289C490.926 240.214 490.533 240.295 490.14 240.377C489.823 240.443 489.506 240.509 489.181 240.492C488.897 240.498 488.628 240.626 488.444 240.844C488.127 241.126 487.152 241.017 486.916 240.705C486.868 240.64 486.854 240.549 486.84 240.458C486.811 240.275 486.783 240.092 486.482 240.119C486.242 240.155 486.005 240.207 485.772 240.274C484.952 238.699 485.21 237.275 485.463 235.883ZM470.804 183.284L471.581 183.743C471.93 183.618 472.074 183.326 472.218 183.032C472.349 182.765 472.48 182.498 472.765 182.352C472.883 182.243 472.911 182.068 472.832 181.929C472.754 181.79 472.589 181.724 472.436 181.77C472.377 181.776 472.307 181.657 472.237 181.54C472.205 181.485 472.173 181.431 472.142 181.389C472.178 181.365 472.22 181.332 472.263 181.299C472.355 181.228 472.447 181.158 472.471 181.176C473.085 181.65 473.325 181.005 473.422 180.725C473.504 180.491 473.589 180.257 473.675 180.023C474.025 179.068 474.377 178.108 474.446 177.085L474.447 177.072C474.483 176.541 474.529 175.865 473.653 175.859C473.609 175.858 473.54 175.767 473.522 175.706C473.317 175.033 472.893 174.975 472.33 175.265C471.838 175.518 471.812 175.192 471.792 174.937L471.788 174.893L470.764 174.868L470.211 176.038C470.149 175.868 470.162 175.697 470.175 175.53C470.196 175.245 470.217 174.969 469.862 174.724L469.689 174.786L469.689 174.787L469.688 174.787L469.687 174.787L469.687 174.787L469.686 174.788C469.518 174.849 469.33 174.918 469.142 174.984C469.05 175.015 468.95 175.063 468.85 175.111C468.629 175.217 468.407 175.324 468.276 175.255C467.736 174.971 467.635 175.307 467.544 175.611C467.532 175.65 467.52 175.689 467.508 175.726C467.364 176.152 467.24 176.585 467.117 177.018C467.03 177.322 466.943 177.626 466.849 177.928C466.775 178.103 466.684 178.27 466.577 178.427L466.347 178.334C466.636 177.301 466.926 176.269 467.251 175.11C466.512 175.66 466.324 176.296 466.127 176.992C465.818 178.093 465.653 179.229 465.634 180.371C465.607 181.817 465.841 183.232 467.289 184.05C467.4 184.126 467.505 184.212 467.6 184.307L470.646 184.031L470.804 183.284ZM487.657 156.372L487.728 157.224L488.035 156.934C488.212 156.766 488.379 156.608 488.555 156.442C488.716 156.528 488.879 156.612 489.044 156.697C489.435 156.899 489.833 157.105 490.214 157.339C490.544 157.542 490.842 157.794 491.098 158.086C491.179 158.179 491.134 158.28 491.083 158.395C491.012 158.552 490.93 158.736 491.151 158.958C491.356 159.162 491.269 159.628 491.189 160.052L491.189 160.053L491.189 160.053L491.189 160.055C491.173 160.142 491.157 160.227 491.144 160.308C491.124 160.433 491.038 160.555 490.951 160.678C490.768 160.939 490.58 161.206 490.996 161.517L490.139 162.662C490.12 162.688 490.103 162.715 490.087 162.743L490.073 162.767L490.065 162.78L490.324 165.843C490.516 165.982 490.697 166.137 490.865 166.306C491.104 166.583 491.171 167.11 490.885 167.162C490.544 167.224 490.486 167.465 490.43 167.695C490.381 167.894 490.335 168.083 490.109 168.139C489.027 167.675 488.73 167.475 488.132 166.762C487.986 167.293 487.859 167.755 487.7 168.336C487.64 168.34 487.565 168.356 487.485 168.372C487.297 168.41 487.085 168.454 486.983 168.367C486.788 168.201 486.582 168.045 486.376 167.888C485.613 167.308 484.846 166.724 484.634 165.665C484.523 165.31 484.451 164.943 484.419 164.572C484.439 163.864 484.509 163.157 484.578 162.451L484.601 162.225L484.614 162.091C484.637 161.855 484.673 161.621 484.71 161.386C484.737 161.215 484.764 161.045 484.785 160.873C484.815 160.635 484.915 160.412 485.016 160.189C485.181 159.823 485.345 159.457 485.197 159.023C485.571 158.691 485.681 158.257 485.792 157.814L485.792 157.814C485.827 157.678 485.861 157.541 485.904 157.406C485.992 157.032 486.23 156.71 486.561 156.514C486.893 156.319 487.288 156.268 487.657 156.372ZM468.199 111.662L467.168 110.797C466.557 110.157 465.806 109.668 464.973 109.366C464.618 109.236 464.238 109.204 463.854 109.173C463.464 109.141 463.071 109.109 462.699 108.971C462.615 108.94 462.425 109.056 462.354 109.154C462.133 109.454 461.934 109.769 461.757 110.097C461.433 110.713 461.391 111.378 461.348 112.046C461.335 112.246 461.323 112.447 461.302 112.647C461.129 114.351 461.327 115.905 462.759 117.06C462.872 117.14 462.951 117.258 462.982 117.393C463.008 117.911 463.337 117.961 463.665 118.012C463.844 118.039 464.023 118.066 464.151 118.17C464.851 117.945 465.537 118.104 466.206 118.258C466.443 118.313 466.678 118.368 466.911 118.404C467.703 118.529 468.133 118.32 468.411 117.762C468.466 117.651 468.524 117.54 468.581 117.428C469.029 116.557 469.487 115.667 469.191 114.609C469.152 114.468 469.151 114.314 469.151 114.16C469.151 113.837 469.151 113.513 468.791 113.292C468.7 113.203 468.662 113.072 468.69 112.947C469.048 112.353 468.681 112.055 468.313 111.755C468.275 111.724 468.237 111.693 468.199 111.662ZM419.643 163.799C419.59 164.195 419.55 164.486 419.474 165.051C419.621 164.917 419.73 164.817 419.817 164.738L419.818 164.738L419.818 164.738C419.956 164.612 420.036 164.54 420.115 164.465L420.116 164.464C420.309 164.279 420.414 164.179 420.529 164.164C420.664 164.148 420.815 164.25 421.142 164.472L421.143 164.473C421.163 164.486 421.184 164.502 421.205 164.519C421.268 164.567 421.334 164.619 421.378 164.605C421.9 164.412 422.483 164.618 422.766 165.095C423.138 165.604 423.405 166.183 423.552 166.798C423.951 169.132 423.445 171.387 422.677 173.586C422.588 173.843 422.374 174.057 422.161 174.27C422.064 174.367 421.966 174.465 421.881 174.566L421.495 174.161C421.185 174.587 420.844 174.81 420.295 174.512C420.072 174.431 419.823 174.465 419.628 174.604C419.358 174.869 419.144 174.746 418.933 174.625C418.79 174.542 418.648 174.461 418.492 174.504C418.543 174.145 418.303 174.016 418.062 173.886C417.851 173.773 417.639 173.659 417.618 173.391C417.603 173.198 417.567 173.001 417.531 172.806C417.465 172.443 417.399 172.082 417.465 171.744C417.661 170.59 417.98 169.459 418.419 168.372C418.655 167.917 418.698 167.386 418.537 166.9C418.247 166.158 418.201 165.342 418.403 164.568L418.41 164.542C418.587 163.9 418.589 163.895 419.643 163.799ZM451.889 167.894C451.756 168.011 451.638 168.145 451.539 168.292C451.499 168.768 451.512 169.226 451.524 169.675C451.53 169.888 451.536 170.099 451.536 170.309C451.531 171.612 451.53 172.95 452.189 174.197C452.63 175.029 453.317 175.468 454.06 175.292C454.273 175.242 454.498 175.265 454.723 175.288C455.125 175.33 455.524 175.371 455.84 174.99C456.524 175.416 456.846 174.82 457.022 174.42C457.513 173.299 457.985 172.145 457.948 170.887C457.941 170.655 457.888 170.426 457.834 170.196L457.834 170.196C457.785 169.984 457.736 169.771 457.723 169.557C457.702 169.202 457.722 168.844 457.745 168.458L457.745 168.458C457.755 168.283 457.765 168.102 457.772 167.912L455.864 166.854L455.698 166.997L455.587 167.092L455.585 167.094C455.444 167.215 455.301 167.338 455.128 167.488L454.742 165.428C454.587 165.438 454.427 165.463 454.275 165.488C453.967 165.537 453.697 165.581 453.596 165.47C453.432 165.29 453.235 165.213 453.038 165.136C452.844 165.061 452.651 164.986 452.488 164.813C452.477 165.025 452.616 165.181 452.751 165.332C452.959 165.565 453.155 165.785 452.759 166.179L452.427 165.516C451.805 165.9 451.979 166.399 452.159 166.917L452.159 166.917C452.177 166.968 452.195 167.019 452.212 167.07C452.319 166.826 452.428 166.583 452.562 166.28C452.669 166.394 452.755 166.524 452.818 166.666C452.859 166.85 452.852 167.041 452.798 167.221C452.781 167.269 452.71 167.293 452.636 167.319C452.568 167.343 452.496 167.368 452.458 167.413C452.416 167.464 452.398 167.538 452.381 167.61C452.362 167.69 452.343 167.768 452.293 167.813C452.248 167.853 452.17 167.854 452.091 167.855C452.015 167.857 451.938 167.858 451.889 167.894ZM457.716 198.306L458.11 198.96C458.561 198.468 458.549 197.926 458.537 197.377C458.527 196.91 458.517 196.438 458.79 195.986C458.91 196.179 459.007 196.385 459.08 196.6C459.131 196.948 459.164 197.298 459.178 197.65C459.442 197.29 459.57 196.85 459.539 196.407C460.205 196.282 460.497 196.228 460.748 196.306C460.945 196.367 461.116 196.51 461.421 196.764C461.427 196.993 461.417 197.229 461.406 197.467L461.406 197.467C461.383 198.015 461.359 198.574 461.524 199.069C461.683 199.546 461.628 199.992 461.574 200.434C461.539 200.719 461.504 201.003 461.526 201.292C461.533 202.021 461.431 202.748 461.224 203.448C461.151 203.854 460.96 204.23 460.675 204.53C460.315 204.843 459.716 205.246 459.376 205.135C458.985 205.009 458.791 205.153 458.593 205.301C458.506 205.366 458.419 205.431 458.314 205.474C457.841 205.672 457.31 205.805 456.795 205.5C456.686 205.436 456.552 205.387 456.421 205.339L456.421 205.338C456.19 205.254 455.966 205.171 455.89 205.012C455.571 204.404 455.373 203.74 455.306 203.056C455.256 201.794 455.287 200.53 455.4 199.272C455.416 199.062 455.577 198.864 455.767 198.63L455.768 198.63L455.768 198.63C455.864 198.511 455.968 198.383 456.064 198.24L456.199 198.933C456.463 198.506 456.845 198.461 457.205 198.418C457.387 198.396 457.563 198.375 457.716 198.306ZM416.945 233.762L417.264 234.591C417.52 234.161 417.746 233.715 417.941 233.255C418.007 233.057 417.975 232.673 417.847 232.592C417.569 232.414 417.534 232.146 417.502 231.897C417.481 231.735 417.461 231.582 417.377 231.465C417.163 231.17 417.15 230.874 417.137 230.58C417.132 230.465 417.127 230.351 417.11 230.237C417.076 230.005 417.072 229.763 417.067 229.522C417.06 229.114 417.052 228.71 416.9 228.368C416.748 228.027 416.716 227.689 416.685 227.354C416.665 227.138 416.645 226.923 416.593 226.711C416.501 226.337 416.402 225.964 416.304 225.593L416.304 225.593L416.304 225.592L416.303 225.592L416.303 225.592L416.303 225.591L416.303 225.59L416.252 225.397C416.225 225.298 416.199 225.198 416.173 225.098L414.964 224.084C414.742 224.592 414.529 224.414 414.315 224.235C414.148 224.095 413.979 223.954 413.804 224.139C413.662 224.282 413.691 224.479 413.72 224.678C413.761 224.954 413.802 225.235 413.383 225.379C413.366 225.278 413.358 225.172 413.35 225.067C413.316 224.653 413.284 224.251 412.758 224.174C412.245 224.849 412.327 225.595 412.41 226.342L412.422 226.449C412.446 226.593 412.457 226.739 412.456 226.885C412.331 228.485 412.326 230.091 412.44 231.691C412.454 231.878 412.424 232.068 412.393 232.258C412.365 232.434 412.336 232.611 412.344 232.785L412.347 232.857C412.373 233.499 412.4 234.163 413.042 234.564C413.273 234.35 413.306 234.066 413.339 233.788C413.378 233.452 413.416 233.124 413.8 232.935L413.976 235.022L414.858 235.173L415.361 233.509C415.826 234.459 415.927 234.463 416.945 233.762ZM472.651 153C472.776 153.12 472.908 153.201 473.034 153.278C473.276 153.426 473.494 153.559 473.584 153.921L473.004 153.7C472.938 153.851 472.872 154.004 472.807 154.157L472.807 154.157L472.807 154.157L472.807 154.158L472.807 154.158C472.631 154.569 472.454 154.98 472.254 155.378C472.184 155.518 471.929 155.698 471.819 155.664C471.463 155.556 471.129 155.638 470.799 155.719C470.566 155.777 470.334 155.834 470.097 155.823C469.828 155.783 469.574 155.675 469.359 155.509C469.303 155.472 469.278 155.39 469.253 155.308C469.228 155.226 469.203 155.145 469.149 155.108C468.98 155.039 468.8 155.001 468.618 154.996L468.645 154.936C469 154.153 469.018 154.113 468.494 153.243C468.294 152.911 468.327 152.583 468.36 152.25C468.38 152.047 468.401 151.842 468.369 151.634L467.973 151.818L467.757 151.919C467.753 151.85 467.74 151.775 467.727 151.702C467.7 151.55 467.674 151.404 467.735 151.332C468.865 149.999 468.889 149.967 468.954 148.656C468.442 148.846 468.37 149.248 468.293 149.674C468.242 149.956 468.189 150.248 468.005 150.496C467.959 150.443 467.9 150.388 467.844 150.334C467.726 150.223 467.615 150.119 467.635 150.056C467.68 149.917 467.72 149.776 467.761 149.636C467.993 148.828 468.224 148.026 469.202 147.631C469.247 147.613 469.288 147.595 469.327 147.578C469.596 147.464 469.737 147.404 470.013 147.627C470.239 147.775 470.5 147.862 470.77 147.879C471.25 147.942 471.733 147.987 472.238 148.033L472.238 148.033L472.238 148.033C472.447 148.052 472.659 148.071 472.877 148.093L472.828 148.523C472.893 148.766 473.105 148.839 473.287 148.901C473.536 148.986 473.728 149.052 473.408 149.507C473.347 149.593 473.441 149.63 473.553 149.674C473.731 149.744 473.955 149.832 473.673 150.167C473.551 150.314 473.613 150.616 473.673 150.906L473.673 150.906L473.673 150.906C473.699 151.035 473.726 151.161 473.735 151.27C473.612 151.339 473.493 151.405 473.375 151.471L473.094 151.627C473.116 151.712 473.139 151.796 473.162 151.881L473.465 151.756L473.986 151.541C473.925 151.903 473.882 152.157 473.838 152.412L473.784 152.731C473.435 152.815 473.043 152.908 472.651 153ZM406.997 153.618L406.952 155.067C407.157 155.088 407.365 155.086 407.57 155.061C407.733 154.987 407.893 154.903 408.047 154.811L408.072 154.799L408.072 154.799C408.223 154.728 408.464 154.616 408.49 154.652C408.694 154.929 409 154.922 409.306 154.914C409.634 154.906 409.961 154.897 410.16 155.241C410.272 155.188 410.38 155.129 410.486 155.064C410.352 154.773 410.529 154.647 410.704 154.522C410.796 154.456 410.887 154.391 410.933 154.302C411.129 153.921 411.173 153.522 411.217 153.128C411.248 152.849 411.279 152.573 411.363 152.307C411.734 151.156 411.835 149.938 411.66 148.745L409.106 147.152L408.188 148.246C408.066 148.038 408.061 147.798 408.056 147.565C408.048 147.231 408.041 146.912 407.69 146.721C407.038 147.227 406.557 147.84 406.497 148.6C406.448 149.229 406.347 149.85 406.247 150.469C406.15 151.067 406.053 151.665 406.003 152.268C405.925 152.843 406.001 153.428 406.224 153.963L406.997 153.618ZM420.283 189.411L419.862 190.81L420.528 190.436C420.53 190.445 420.534 190.453 420.537 190.462C420.544 190.477 420.551 190.493 420.559 190.51C420.584 190.563 420.608 190.615 420.593 190.648C420.372 191.108 420.273 191.616 420.307 192.124C420.31 192.445 420.27 192.765 420.186 193.075C420.035 193.604 420.157 194.173 420.512 194.59C420.706 194.504 420.906 194.415 420.999 194.373L421.225 195.348C421.178 195.404 421.145 195.448 421.119 195.482C421.08 195.534 421.061 195.56 421.045 195.558C420.798 195.529 420.551 195.492 420.317 195.457L420.134 195.43C419.931 195.782 419.747 196.102 419.472 196.58L419.012 195.542L418.354 195.831L417.795 196.077L417.203 195.686L416.784 196.185C415.868 196.137 415.456 195.695 415.345 194.841C415.298 194.488 415.233 194.137 415.167 193.782L415.167 193.782C415.059 193.2 414.949 192.606 414.915 191.966L415.986 192.086C416.241 191.516 416.374 190.9 416.375 190.277C416.385 189.815 416.513 189.354 416.638 188.901L416.638 188.901C416.693 188.705 416.747 188.51 416.791 188.317C417.319 188.213 417.433 188.514 417.554 188.833C417.586 188.917 417.618 189.002 417.659 189.081C417.693 189.048 417.733 189.018 417.771 188.988C417.853 188.925 417.93 188.866 417.952 188.79C418.154 188.095 418.461 187.926 418.954 188.302C419.275 188.547 419.582 188.811 419.884 189.071C420.018 189.186 420.15 189.3 420.283 189.411ZM384.64 168.421L384.772 167.185L384.728 167.18L384.66 167.172C384.343 167.135 384.064 167.102 383.757 167.404C383.057 168.091 382.822 168.969 382.587 169.844C382.527 170.07 382.467 170.295 382.399 170.516C382.262 170.96 382.731 171.537 383.257 171.811C383.464 171.926 383.656 172.067 383.827 172.23C384.241 172.656 384.92 172.677 385.365 172.278C385.702 172.017 385.959 171.868 386.371 172.052C386.721 172.239 387.159 172.112 387.358 171.766C387.382 171.733 387.405 171.7 387.429 171.666C387.62 171.394 387.817 171.114 388.248 171.124C388.43 171.05 388.562 170.89 388.6 170.697C388.608 170.603 388.549 170.492 388.494 170.388C388.436 170.278 388.382 170.176 388.415 170.11C388.457 170.027 388.573 169.988 388.694 169.946C388.805 169.908 388.919 169.869 388.983 169.794C389.43 169.272 389.272 168.669 388.995 168.167C388.921 168.032 388.802 167.927 388.68 167.819C388.495 167.657 388.304 167.489 388.252 167.204C388.247 167.178 388.084 167.186 387.891 167.196L387.891 167.196L387.891 167.196C387.737 167.204 387.565 167.213 387.44 167.206C387.298 167.176 387.161 167.127 387.032 167.061L386.262 167.979C386.365 167.58 386.417 167.379 386.459 167.214L385.81 166.669C385.734 166.816 385.661 166.959 385.59 167.099L385.59 167.099C385.398 167.474 385.219 167.825 385.026 168.167C384.991 168.23 384.914 168.27 384.816 168.322C384.763 168.349 384.703 168.381 384.64 168.421ZM437.547 177.019L438.242 178.067C438.697 177.832 439.033 177.522 438.986 176.931C439.396 176.913 439.495 177.172 439.598 177.441C439.669 177.626 439.742 177.815 439.918 177.923L440.534 177.414C440.821 177.379 440.906 177.57 440.996 177.771C441.085 177.97 441.178 178.18 441.475 178.19C441.845 178.205 441.836 178.465 441.827 178.743C441.821 178.926 441.814 179.117 441.916 179.251C442.043 179.488 442.095 179.759 442.065 180.028C442.058 180.392 441.958 180.741 441.858 181.092C441.719 181.58 441.579 182.072 441.687 182.61C441.716 182.758 441.555 182.945 441.372 183.159C441.28 183.265 441.183 183.379 441.101 183.497C440.913 183.069 440.591 183.115 440.267 183.161C439.959 183.205 439.65 183.249 439.453 182.887C439.321 182.932 439.203 183.025 439.082 183.121C438.802 183.343 438.509 183.576 437.996 183.224L438.148 182.346L437.782 182.514L437.403 182.687C436.967 182.469 437.041 182.025 437.094 181.712L437.101 181.669C437.272 180.651 437.182 179.607 436.839 178.636C436.626 178.02 436.743 177.405 437.547 177.019ZM454.808 142.535L457.164 142.607C457.232 142.473 457.32 142.333 457.41 142.188C457.622 141.849 457.852 141.482 457.899 141.094C458.038 140.106 458.023 139.104 457.855 138.122C457.633 136.999 457.207 135.868 455.673 135.955C455.574 135.961 455.473 135.903 455.358 135.837C455.298 135.803 455.235 135.767 455.167 135.737C455.102 135.854 455.027 135.963 454.956 136.068C454.81 136.281 454.679 136.472 454.681 136.662C454.682 136.789 454.685 136.916 454.689 137.044C454.711 137.801 454.732 138.547 454.249 139.221C454.355 139.777 454.212 140.298 454.07 140.815C453.985 141.125 453.901 141.434 453.87 141.748L454.808 142.535Z" fill="#171B1B"/>
<rect width="370" height="304" fill="black"/>
<mask id="mask0_0_1" style="mask-type:luminance" maskUnits="userSpaceOnUse" x="0" y="0" width="370" height="304">
<rect width="370" height="304" fill="white"/>
</mask>
<g mask="url(#mask0_0_1)">
</g>
<rect x="70" y="224" width="400" height="400" fill="#CCCCCC"/>
<mask id="mask1_0_1" style="mask-type:luminance" maskUnits="userSpaceOnUse" x="70" y="224" width="400" height="400">
<rect x="70" y="224" width="400" height="400" fill="white"/>
</mask>
<g mask="url(#mask1_0_1)">
</g>
</svg>
