<svg width="586" height="416" viewBox="0 0 586 416" fill="none" xmlns="http://www.w3.org/2000/svg">
<rect y="16" width="284" height="384" fill="white"/>
<path d="M37.144 80.144C36.0773 80.144 35.272 79.7973 34.728 79.104C34.1947 78.4107 33.928 77.4827 33.928 76.32V70.736C33.928 69.552 34.1893 68.624 34.712 67.952C35.2453 67.2693 36.056 66.928 37.144 66.928C38.2213 66.928 39.0213 67.2693 39.544 67.952C40.0773 68.624 40.344 69.552 40.344 70.736V76.32C40.344 77.4933 40.0773 78.4267 39.544 79.12C39.0107 79.8027 38.2107 80.144 37.144 80.144ZM37.144 78.736C38.1253 78.736 38.616 77.936 38.616 76.336V70.72C38.616 69.984 38.5093 69.4027 38.296 68.976C38.0933 68.5387 37.7093 68.32 37.144 68.32C36.5787 68.32 36.1893 68.5387 35.976 68.976C35.7627 69.4027 35.656 69.984 35.656 70.72V76.336C35.656 77.936 36.152 78.736 37.144 78.736ZM47.0016 69.28C46.9803 69.312 46.655 69.3867 46.0256 69.504C45.407 69.6213 44.9803 69.7013 44.7456 69.744V68.448C46.047 68.1387 46.9376 67.6693 47.4176 67.04H48.7136V80H47.0016V69.28Z" fill="#171B1B"/>
<path d="M48.6055 194.449C49.4779 194.449 50.2917 194.521 51.0469 194.664C51.8151 194.807 52.5117 194.996 53.1367 195.23C53.7617 195.452 54.3021 195.693 54.7578 195.953C55.2135 196.201 55.5846 196.428 55.8711 196.637V195.23H62.3164V205.875H55.4805C55.4805 205.003 55.3698 204.273 55.1484 203.688C54.9401 203.102 54.6536 202.626 54.2891 202.262C53.9375 201.897 53.5208 201.637 53.0391 201.48C52.5573 201.324 52.0365 201.246 51.4766 201.246C50.7083 201.246 50.0508 201.396 49.5039 201.695C48.957 201.982 48.5078 202.451 48.1562 203.102C47.8177 203.753 47.5573 204.618 47.375 205.699C47.2057 206.78 47.1211 208.095 47.1211 209.645C47.1211 211.22 47.2122 212.542 47.3945 213.609C47.5898 214.664 47.8763 215.523 48.2539 216.188C48.6445 216.839 49.1393 217.314 49.7383 217.613C50.3372 217.9 51.0534 218.043 51.8867 218.043C52.4466 218.043 52.987 217.939 53.5078 217.73C54.0286 217.509 54.4844 217.177 54.875 216.734C55.2786 216.292 55.5911 215.738 55.8125 215.074C56.0469 214.41 56.1641 213.609 56.1641 212.672H62.9609C62.9609 214.326 62.7005 215.888 62.1797 217.359C61.6589 218.831 60.8451 220.12 59.7383 221.227C58.6315 222.333 57.2253 223.212 55.5195 223.863C53.8138 224.514 51.7891 224.84 49.4453 224.84C47.3359 224.84 45.3372 224.553 43.4492 223.98C41.5742 223.408 39.9336 222.509 38.5273 221.285C37.1341 220.061 36.0273 218.492 35.207 216.578C34.3997 214.651 33.9961 212.34 33.9961 209.645C33.9961 206.949 34.4062 204.645 35.2266 202.73C36.0599 200.803 37.1536 199.228 38.5078 198.004C39.875 196.78 41.431 195.882 43.1758 195.309C44.9206 194.736 46.7305 194.449 48.6055 194.449ZM65.3633 213.199C65.3633 211.285 65.6953 209.605 66.3594 208.16C67.0234 206.715 67.9674 205.51 69.1914 204.547C70.4284 203.57 71.9128 202.835 73.6445 202.34C75.3763 201.845 77.3099 201.598 79.4453 201.598C81.5807 201.598 83.5143 201.845 85.2461 202.34C86.9779 202.835 88.4557 203.57 89.6797 204.547C90.9036 205.51 91.8477 206.715 92.5117 208.16C93.1888 209.605 93.5273 211.285 93.5273 213.199C93.5273 215.087 93.1888 216.76 92.5117 218.219C91.8477 219.677 90.9036 220.901 89.6797 221.891C88.4557 222.867 86.9779 223.603 85.2461 224.098C83.5143 224.592 81.5807 224.84 79.4453 224.84C77.3099 224.84 75.3763 224.592 73.6445 224.098C71.9128 223.603 70.4284 222.867 69.1914 221.891C67.9674 220.901 67.0234 219.677 66.3594 218.219C65.6953 216.76 65.3633 215.087 65.3633 213.199ZM76.4766 213.199C76.4766 214.293 76.5221 215.224 76.6133 215.992C76.7174 216.747 76.8802 217.359 77.1016 217.828C77.3229 218.284 77.6224 218.622 78 218.844C78.3776 219.052 78.8594 219.156 79.4453 219.156C80.0312 219.156 80.5065 219.052 80.8711 218.844C81.2487 218.622 81.5482 218.284 81.7695 217.828C82.0039 217.359 82.1667 216.747 82.2578 215.992C82.349 215.224 82.3945 214.293 82.3945 213.199C82.3945 211.012 82.1862 209.482 81.7695 208.609C81.3659 207.724 80.5911 207.281 79.4453 207.281C78.8594 207.281 78.3776 207.385 78 207.594C77.6224 207.789 77.3229 208.121 77.1016 208.59C76.8802 209.046 76.7174 209.658 76.6133 210.426C76.5221 211.181 76.4766 212.105 76.4766 213.199ZM113.938 211.52C113.938 211.012 113.872 210.608 113.742 210.309C113.625 209.996 113.469 209.762 113.273 209.605C113.091 209.436 112.883 209.326 112.648 209.273C112.414 209.221 112.186 209.195 111.965 209.195C111.118 209.195 110.487 209.443 110.07 209.938C109.654 210.432 109.445 211.135 109.445 212.047V214.84C109.445 215.53 109.562 216.025 109.797 216.324C110.044 216.611 110.513 216.754 111.203 216.754H112.258V224H95.9297V216.754H97.082C97.6159 216.754 98.0195 216.585 98.293 216.246C98.5794 215.895 98.7227 215.478 98.7227 214.996V211.285C98.7227 210.673 98.5404 210.263 98.1758 210.055C97.8242 209.833 97.4206 209.723 96.9648 209.723H95.9297V202.477H107.531L107.121 207.848H107.453C107.74 205.842 108.618 204.299 110.09 203.219C111.561 202.138 113.56 201.598 116.086 201.598C117.87 201.598 119.322 201.852 120.441 202.359C121.561 202.867 122.427 203.512 123.039 204.293C123.664 205.061 124.087 205.901 124.309 206.812C124.53 207.711 124.641 208.557 124.641 209.352V214.84C124.641 215.53 124.758 216.025 124.992 216.324C125.24 216.611 125.708 216.754 126.398 216.754H127.453V224H113.938V211.52ZM142.316 195.23V202.477H148.156V209.723H142.316V215.719C142.316 216.578 142.434 217.281 142.668 217.828C142.915 218.375 143.417 218.648 144.172 218.648C144.589 218.648 144.921 218.57 145.168 218.414C145.428 218.245 145.63 218.03 145.773 217.77C145.93 217.496 146.027 217.19 146.066 216.852C146.105 216.5 146.125 216.122 146.125 215.719V212.809H148.371V215.953C148.371 217.216 148.234 218.395 147.961 219.488C147.701 220.582 147.245 221.526 146.594 222.32C145.956 223.115 145.083 223.746 143.977 224.215C142.87 224.684 141.477 224.918 139.797 224.918C137.935 224.918 136.451 224.69 135.344 224.234C134.237 223.779 133.397 223.154 132.824 222.359C132.251 221.565 131.874 220.621 131.691 219.527C131.522 218.434 131.438 217.242 131.438 215.953V209.723H128.371V203.277C129.348 203.277 130.253 203.069 131.086 202.652C131.932 202.223 132.655 201.637 133.254 200.895C133.866 200.139 134.335 199.28 134.66 198.316C134.999 197.353 135.168 196.324 135.168 195.23H142.316ZM160.012 205.191C159.348 205.191 158.775 205.243 158.293 205.348C157.824 205.439 157.421 205.549 157.082 205.68C156.743 205.81 156.464 205.96 156.242 206.129C156.021 206.285 155.826 206.428 155.656 206.559L155.852 206.754C156.099 206.624 156.366 206.493 156.652 206.363C156.952 206.233 157.329 206.168 157.785 206.168C158.553 206.168 159.217 206.422 159.777 206.93C160.337 207.424 160.617 208.219 160.617 209.312C160.617 210.354 160.188 211.194 159.328 211.832C158.482 212.457 157.342 212.77 155.91 212.77C154.543 212.77 153.449 212.379 152.629 211.598C151.822 210.803 151.418 209.684 151.418 208.238C151.418 207.444 151.639 206.656 152.082 205.875C152.525 205.081 153.208 204.371 154.133 203.746C155.07 203.121 156.255 202.607 157.688 202.203C159.133 201.799 160.871 201.598 162.902 201.598C165.324 201.598 167.303 201.826 168.84 202.281C170.376 202.737 171.568 203.323 172.414 204.039C173.273 204.755 173.859 205.569 174.172 206.48C174.497 207.392 174.66 208.31 174.66 209.234V216.871C174.66 218.056 174.699 218.863 174.777 219.293C174.855 219.71 175.148 219.918 175.656 219.918C176.06 219.918 176.34 219.729 176.496 219.352C176.665 218.961 176.75 218.297 176.75 217.359V214.918H178.977V217.398C178.977 218.57 178.879 219.612 178.684 220.523C178.488 221.422 178.117 222.197 177.57 222.848C177.023 223.486 176.281 223.967 175.344 224.293C174.406 224.632 173.208 224.801 171.75 224.801C170.435 224.801 169.341 224.658 168.469 224.371C167.609 224.098 166.926 223.753 166.418 223.336C165.91 222.919 165.546 222.49 165.324 222.047C165.116 221.591 165.012 221.188 165.012 220.836H164.699C164.621 221.37 164.393 221.878 164.016 222.359C163.651 222.841 163.137 223.271 162.473 223.648C161.822 224.013 161.034 224.306 160.109 224.527C159.198 224.762 158.156 224.879 156.984 224.879C155.865 224.879 154.842 224.768 153.918 224.547C153.007 224.339 152.225 224.007 151.574 223.551C150.936 223.082 150.435 222.483 150.07 221.754C149.719 221.012 149.543 220.133 149.543 219.117C149.543 217.867 149.895 216.884 150.598 216.168C151.301 215.439 152.186 214.866 153.254 214.449C154.322 214.02 155.48 213.674 156.73 213.414C157.993 213.141 159.159 212.815 160.227 212.438C161.294 212.06 162.18 211.572 162.883 210.973C163.586 210.374 163.938 209.527 163.938 208.434C163.938 207.457 163.632 206.676 163.02 206.09C162.408 205.491 161.405 205.191 160.012 205.191ZM163.938 213.648C163.651 214.065 163.293 214.404 162.863 214.664C162.434 214.911 162.017 215.159 161.613 215.406C161.223 215.641 160.878 215.927 160.578 216.266C160.292 216.591 160.148 217.034 160.148 217.594C160.148 218.023 160.266 218.414 160.5 218.766C160.734 219.104 161.19 219.273 161.867 219.273C162.479 219.273 162.974 219.039 163.352 218.57C163.742 218.089 163.938 217.418 163.938 216.559V213.648ZM194.055 206.871C192.935 206.871 192.076 207.346 191.477 208.297C190.878 209.247 190.578 210.829 190.578 213.043C190.578 215.257 190.884 216.832 191.496 217.77C192.121 218.694 193.072 219.156 194.348 219.156C194.712 219.156 195.083 219.098 195.461 218.98C195.839 218.863 196.177 218.694 196.477 218.473C196.789 218.238 197.043 217.945 197.238 217.594C197.447 217.229 197.564 216.806 197.59 216.324H203.898C203.482 219.228 202.31 221.376 200.383 222.77C198.469 224.15 195.734 224.84 192.18 224.84C190.396 224.84 188.729 224.605 187.18 224.137C185.63 223.668 184.283 222.958 183.137 222.008C181.991 221.044 181.092 219.84 180.441 218.395C179.79 216.936 179.465 215.204 179.465 213.199C179.465 211.285 179.79 209.605 180.441 208.16C181.092 206.715 182.004 205.51 183.176 204.547C184.361 203.57 185.754 202.835 187.355 202.34C188.97 201.845 190.741 201.598 192.668 201.598C194.712 201.598 196.438 201.852 197.844 202.359C199.25 202.867 200.383 203.505 201.242 204.273C202.115 205.029 202.733 205.849 203.098 206.734C203.475 207.607 203.664 208.427 203.664 209.195C203.664 209.807 203.573 210.406 203.391 210.992C203.221 211.578 202.935 212.112 202.531 212.594C202.141 213.076 201.639 213.466 201.027 213.766C200.415 214.052 199.667 214.195 198.781 214.195C197.935 214.195 197.245 214.078 196.711 213.844C196.177 213.596 195.76 213.297 195.461 212.945C195.174 212.581 194.966 212.203 194.836 211.812C194.719 211.409 194.66 211.031 194.66 210.68C194.66 209.885 194.849 209.254 195.227 208.785C195.604 208.316 196.04 207.991 196.535 207.809C196.249 207.587 195.956 207.379 195.656 207.184C195.37 206.975 194.836 206.871 194.055 206.871ZM219.309 195.23V202.477H225.148V209.723H219.309V215.719C219.309 216.578 219.426 217.281 219.66 217.828C219.908 218.375 220.409 218.648 221.164 218.648C221.581 218.648 221.913 218.57 222.16 218.414C222.421 218.245 222.622 218.03 222.766 217.77C222.922 217.496 223.02 217.19 223.059 216.852C223.098 216.5 223.117 216.122 223.117 215.719V212.809H225.363V215.953C225.363 217.216 225.227 218.395 224.953 219.488C224.693 220.582 224.237 221.526 223.586 222.32C222.948 223.115 222.076 223.746 220.969 224.215C219.862 224.684 218.469 224.918 216.789 224.918C214.927 224.918 213.443 224.69 212.336 224.234C211.229 223.779 210.389 223.154 209.816 222.359C209.243 221.565 208.866 220.621 208.684 219.527C208.514 218.434 208.43 217.242 208.43 215.953V209.723H205.363V203.277C206.34 203.277 207.245 203.069 208.078 202.652C208.924 202.223 209.647 201.637 210.246 200.895C210.858 200.139 211.327 199.28 211.652 198.316C211.991 197.353 212.16 196.324 212.16 195.23H219.309Z" fill="#171B1B"/>
<path d="M34.184 272V260.8H35.528L41.496 269.776V260.8H42.84V272H41.496L35.528 263.024V272H34.184ZM48.7513 272.192C48.0046 272.192 47.3326 272.021 46.7353 271.68C46.1379 271.339 45.6633 270.859 45.3113 270.24C44.9699 269.611 44.7993 268.875 44.7993 268.032C44.7993 267.189 44.9753 266.459 45.3273 265.84C45.6793 265.211 46.1539 264.725 46.7513 264.384C47.3593 264.043 48.0366 263.872 48.7833 263.872C49.5299 263.872 50.2019 264.043 50.7993 264.384C51.3966 264.725 51.8659 265.211 52.2073 265.84C52.5593 266.459 52.7353 267.189 52.7353 268.032C52.7353 268.875 52.5593 269.611 52.2073 270.24C51.8553 270.859 51.3753 271.339 50.7673 271.68C50.1699 272.021 49.4979 272.192 48.7513 272.192ZM48.7513 271.04C49.2099 271.04 49.6366 270.928 50.0313 270.704C50.4259 270.48 50.7459 270.144 50.9913 269.696C51.2366 269.248 51.3593 268.693 51.3593 268.032C51.3593 267.371 51.2366 266.816 50.9913 266.368C50.7566 265.92 50.4419 265.584 50.0473 265.36C49.6526 265.136 49.2313 265.024 48.7833 265.024C48.3246 265.024 47.8979 265.136 47.5033 265.36C47.1086 265.584 46.7886 265.92 46.5433 266.368C46.2979 266.816 46.1753 267.371 46.1753 268.032C46.1753 268.693 46.2979 269.248 46.5433 269.696C46.7886 270.144 47.1033 270.48 47.4873 270.704C47.8819 270.928 48.3033 271.04 48.7513 271.04ZM57.4275 272C56.7022 272 56.1315 271.824 55.7155 271.472C55.2995 271.12 55.0915 270.485 55.0915 269.568V265.2H53.7155V264.064H55.0915L55.2675 262.16H56.4355V264.064H58.7715V265.2H56.4355V269.568C56.4355 270.069 56.5368 270.411 56.7395 270.592C56.9422 270.763 57.2995 270.848 57.8115 270.848H58.6435V272H57.4275ZM60.479 272V260.48H61.823V265.424C62.0897 264.933 62.4683 264.555 62.959 264.288C63.4497 264.011 63.983 263.872 64.559 263.872C65.4763 263.872 66.2123 264.16 66.767 264.736C67.3217 265.301 67.599 266.176 67.599 267.36V272H66.271V267.504C66.271 265.851 65.6043 265.024 64.271 265.024C63.5777 265.024 62.9963 265.275 62.527 265.776C62.0577 266.267 61.823 266.971 61.823 267.888V272H60.479ZM70.4513 262.304C70.1846 262.304 69.9606 262.219 69.7793 262.048C69.6086 261.867 69.5233 261.643 69.5233 261.376C69.5233 261.12 69.6086 260.907 69.7793 260.736C69.9606 260.565 70.1846 260.48 70.4513 260.48C70.7073 260.48 70.9259 260.565 71.1073 260.736C71.2886 260.907 71.3793 261.12 71.3793 261.376C71.3793 261.643 71.2886 261.867 71.1073 262.048C70.9259 262.219 70.7073 262.304 70.4513 262.304ZM69.7793 272V264.064H71.1233V272H69.7793ZM73.4634 272V264.064H74.6794L74.7594 265.488C75.0154 264.987 75.3834 264.592 75.8634 264.304C76.3434 264.016 76.8874 263.872 77.4954 263.872C78.434 263.872 79.1807 264.16 79.7354 264.736C80.3007 265.301 80.5834 266.176 80.5834 267.36V272H79.2394V267.504C79.2394 265.851 78.5567 265.024 77.1914 265.024C76.5087 265.024 75.938 265.275 75.4794 265.776C75.0314 266.267 74.8074 266.971 74.8074 267.888V272H73.4634ZM85.7556 269.504C85.3076 269.504 84.897 269.445 84.5236 269.328L83.7236 270.08C83.841 270.165 83.985 270.24 84.1556 270.304C84.337 270.357 84.593 270.411 84.9236 270.464C85.2543 270.507 85.7183 270.555 86.3156 270.608C87.3823 270.683 88.145 270.928 88.6036 271.344C89.0623 271.76 89.2916 272.304 89.2916 272.976C89.2916 273.435 89.1636 273.872 88.9076 274.288C88.6623 274.704 88.2783 275.045 87.7556 275.312C87.2436 275.579 86.5823 275.712 85.7716 275.712C85.057 275.712 84.4223 275.616 83.8676 275.424C83.313 275.243 82.881 274.96 82.5716 274.576C82.2623 274.203 82.1076 273.728 82.1076 273.152C82.1076 272.853 82.1876 272.528 82.3476 272.176C82.5076 271.835 82.8063 271.509 83.2436 271.2C83.009 271.104 82.8063 271.003 82.6356 270.896C82.4756 270.779 82.3263 270.651 82.1876 270.512V270.144L83.5476 268.8C82.9183 268.267 82.6036 267.563 82.6036 266.688C82.6036 266.165 82.7263 265.691 82.9716 265.264C83.217 264.837 83.5743 264.501 84.0436 264.256C84.513 264 85.0836 263.872 85.7556 263.872C86.2143 263.872 86.6303 263.936 87.0036 264.064H89.9316V265.072L88.4436 265.136C88.753 265.584 88.9076 266.101 88.9076 266.688C88.9076 267.211 88.7796 267.685 88.5236 268.112C88.2783 268.539 87.921 268.88 87.4516 269.136C86.993 269.381 86.4276 269.504 85.7556 269.504ZM85.7556 268.4C86.321 268.4 86.769 268.256 87.0996 267.968C87.441 267.669 87.6116 267.243 87.6116 266.688C87.6116 266.144 87.441 265.728 87.0996 265.44C86.769 265.141 86.321 264.992 85.7556 264.992C85.1796 264.992 84.721 265.141 84.3796 265.44C84.049 265.728 83.8836 266.144 83.8836 266.688C83.8836 267.243 84.049 267.669 84.3796 267.968C84.721 268.256 85.1796 268.4 85.7556 268.4ZM83.4196 273.024C83.4196 273.557 83.6436 273.952 84.0916 274.208C84.5396 274.475 85.0996 274.608 85.7716 274.608C86.433 274.608 86.961 274.464 87.3556 274.176C87.761 273.888 87.9636 273.504 87.9636 273.024C87.9636 272.683 87.825 272.384 87.5476 272.128C87.2703 271.883 86.7583 271.739 86.0116 271.696C85.425 271.653 84.9183 271.6 84.4916 271.536C84.0543 271.771 83.7663 272.021 83.6276 272.288C83.489 272.565 83.4196 272.811 83.4196 273.024ZM98.8181 272C98.0928 272 97.5221 271.824 97.1061 271.472C96.6901 271.12 96.4821 270.485 96.4821 269.568V265.2H95.1061V264.064H96.4821L96.6581 262.16H97.8261V264.064H100.162V265.2H97.8261V269.568C97.8261 270.069 97.9275 270.411 98.1301 270.592C98.3328 270.763 98.6901 270.848 99.2021 270.848H100.034V272H98.8181ZM101.87 272V260.48H103.214V265.424C103.48 264.933 103.859 264.555 104.35 264.288C104.84 264.011 105.374 263.872 105.95 263.872C106.867 263.872 107.603 264.16 108.158 264.736C108.712 265.301 108.99 266.176 108.99 267.36V272H107.662V267.504C107.662 265.851 106.995 265.024 105.662 265.024C104.968 265.024 104.387 265.275 103.918 265.776C103.448 266.267 103.214 266.971 103.214 267.888V272H101.87ZM114.594 272.192C113.837 272.192 113.165 272.021 112.578 271.68C111.991 271.328 111.527 270.843 111.186 270.224C110.855 269.605 110.69 268.875 110.69 268.032C110.69 267.2 110.855 266.475 111.186 265.856C111.517 265.227 111.975 264.741 112.562 264.4C113.159 264.048 113.847 263.872 114.626 263.872C115.394 263.872 116.055 264.048 116.61 264.4C117.175 264.741 117.607 265.195 117.906 265.76C118.205 266.325 118.354 266.933 118.354 267.584C118.354 267.701 118.349 267.819 118.338 267.936C118.338 268.053 118.338 268.187 118.338 268.336H112.018C112.05 268.944 112.189 269.451 112.434 269.856C112.69 270.251 113.005 270.549 113.378 270.752C113.762 270.955 114.167 271.056 114.594 271.056C115.149 271.056 115.613 270.928 115.986 270.672C116.359 270.416 116.631 270.069 116.802 269.632H118.13C117.917 270.368 117.506 270.981 116.898 271.472C116.301 271.952 115.533 272.192 114.594 272.192ZM114.594 265.008C113.954 265.008 113.383 265.205 112.882 265.6C112.391 265.984 112.109 266.549 112.034 267.296H117.026C116.994 266.581 116.749 266.021 116.29 265.616C115.831 265.211 115.266 265.008 114.594 265.008ZM128.018 272.192C127.26 272.192 126.578 272.021 125.97 271.68C125.372 271.328 124.898 270.843 124.546 270.224C124.204 269.595 124.034 268.864 124.034 268.032C124.034 267.2 124.204 266.475 124.546 265.856C124.898 265.227 125.372 264.741 125.97 264.4C126.578 264.048 127.26 263.872 128.018 263.872C128.956 263.872 129.746 264.117 130.386 264.608C131.036 265.099 131.447 265.755 131.618 266.576H130.242C130.135 266.085 129.874 265.707 129.458 265.44C129.042 265.163 128.556 265.024 128.002 265.024C127.554 265.024 127.132 265.136 126.738 265.36C126.343 265.584 126.023 265.92 125.778 266.368C125.532 266.816 125.41 267.371 125.41 268.032C125.41 268.693 125.532 269.248 125.778 269.696C126.023 270.144 126.343 270.485 126.738 270.72C127.132 270.944 127.554 271.056 128.002 271.056C128.556 271.056 129.042 270.923 129.458 270.656C129.874 270.379 130.135 269.989 130.242 269.488H131.618C131.458 270.288 131.052 270.939 130.402 271.44C129.751 271.941 128.956 272.192 128.018 272.192ZM137.111 272.192C136.364 272.192 135.692 272.021 135.095 271.68C134.497 271.339 134.023 270.859 133.671 270.24C133.329 269.611 133.159 268.875 133.159 268.032C133.159 267.189 133.335 266.459 133.687 265.84C134.039 265.211 134.513 264.725 135.111 264.384C135.719 264.043 136.396 263.872 137.143 263.872C137.889 263.872 138.561 264.043 139.159 264.384C139.756 264.725 140.225 265.211 140.567 265.84C140.919 266.459 141.095 267.189 141.095 268.032C141.095 268.875 140.919 269.611 140.567 270.24C140.215 270.859 139.735 271.339 139.127 271.68C138.529 272.021 137.857 272.192 137.111 272.192ZM137.111 271.04C137.569 271.04 137.996 270.928 138.391 270.704C138.785 270.48 139.105 270.144 139.351 269.696C139.596 269.248 139.719 268.693 139.719 268.032C139.719 267.371 139.596 266.816 139.351 266.368C139.116 265.92 138.801 265.584 138.407 265.36C138.012 265.136 137.591 265.024 137.143 265.024C136.684 265.024 136.257 265.136 135.863 265.36C135.468 265.584 135.148 265.92 134.903 266.368C134.657 266.816 134.535 267.371 134.535 268.032C134.535 268.693 134.657 269.248 134.903 269.696C135.148 270.144 135.463 270.48 135.847 270.704C136.241 270.928 136.663 271.04 137.111 271.04ZM142.963 275.52V264.064H144.179L144.307 265.376C144.563 264.992 144.926 264.645 145.395 264.336C145.875 264.027 146.483 263.872 147.219 263.872C148.009 263.872 148.697 264.053 149.283 264.416C149.87 264.779 150.323 265.275 150.643 265.904C150.974 266.533 151.139 267.248 151.139 268.048C151.139 268.848 150.974 269.563 150.643 270.192C150.323 270.811 149.865 271.301 149.267 271.664C148.681 272.016 147.993 272.192 147.203 272.192C146.553 272.192 145.971 272.059 145.459 271.792C144.958 271.525 144.574 271.152 144.307 270.672V275.52H142.963ZM147.059 271.024C147.593 271.024 148.062 270.901 148.467 270.656C148.873 270.4 149.193 270.048 149.427 269.6C149.662 269.152 149.779 268.629 149.779 268.032C149.779 267.435 149.662 266.912 149.427 266.464C149.193 266.016 148.873 265.669 148.467 265.424C148.062 265.168 147.593 265.04 147.059 265.04C146.526 265.04 146.057 265.168 145.651 265.424C145.246 265.669 144.926 266.016 144.691 266.464C144.457 266.912 144.339 267.435 144.339 268.032C144.339 268.629 144.457 269.152 144.691 269.6C144.926 270.048 145.246 270.4 145.651 270.656C146.057 270.901 146.526 271.024 147.059 271.024ZM153.234 275.52L155.202 271.232H154.738L151.586 264.064H153.042L155.666 270.24L158.45 264.064H159.842L154.642 275.52H153.234ZM168.535 272.192C167.585 272.192 166.796 271.952 166.167 271.472C165.537 270.992 165.169 270.341 165.063 269.52H166.439C166.524 269.936 166.743 270.299 167.095 270.608C167.457 270.907 167.943 271.056 168.551 271.056C169.116 271.056 169.532 270.939 169.799 270.704C170.065 270.459 170.199 270.171 170.199 269.84C170.199 269.36 170.023 269.04 169.671 268.88C169.329 268.72 168.844 268.576 168.215 268.448C167.788 268.363 167.361 268.24 166.935 268.08C166.508 267.92 166.151 267.696 165.863 267.408C165.575 267.109 165.431 266.72 165.431 266.24C165.431 265.547 165.687 264.981 166.199 264.544C166.721 264.096 167.425 263.872 168.311 263.872C169.153 263.872 169.841 264.085 170.375 264.512C170.919 264.928 171.233 265.525 171.319 266.304H169.991C169.937 265.899 169.761 265.584 169.463 265.36C169.175 265.125 168.785 265.008 168.295 265.008C167.815 265.008 167.441 265.109 167.175 265.312C166.919 265.515 166.791 265.781 166.791 266.112C166.791 266.432 166.956 266.683 167.287 266.864C167.628 267.045 168.087 267.2 168.663 267.328C169.153 267.435 169.617 267.568 170.055 267.728C170.503 267.877 170.865 268.107 171.143 268.416C171.431 268.715 171.575 269.152 171.575 269.728C171.585 270.443 171.313 271.035 170.759 271.504C170.215 271.963 169.473 272.192 168.535 272.192ZM176.135 272.192C175.473 272.192 174.924 272.08 174.487 271.856C174.049 271.632 173.724 271.333 173.511 270.96C173.297 270.587 173.191 270.181 173.191 269.744C173.191 268.933 173.5 268.309 174.119 267.872C174.737 267.435 175.58 267.216 176.647 267.216H178.791V267.12C178.791 266.427 178.609 265.904 178.247 265.552C177.884 265.189 177.399 265.008 176.791 265.008C176.268 265.008 175.815 265.141 175.431 265.408C175.057 265.664 174.823 266.043 174.727 266.544H173.351C173.404 265.968 173.596 265.483 173.927 265.088C174.268 264.693 174.689 264.395 175.191 264.192C175.692 263.979 176.225 263.872 176.791 263.872C177.9 263.872 178.732 264.171 179.287 264.768C179.852 265.355 180.135 266.139 180.135 267.12V272H178.935L178.855 270.576C178.631 271.024 178.3 271.408 177.863 271.728C177.436 272.037 176.86 272.192 176.135 272.192ZM176.343 271.056C176.855 271.056 177.292 270.923 177.655 270.656C178.028 270.389 178.311 270.043 178.503 269.616C178.695 269.189 178.791 268.741 178.791 268.272V268.256H176.759C175.969 268.256 175.409 268.395 175.079 268.672C174.759 268.939 174.599 269.275 174.599 269.68C174.599 270.096 174.748 270.432 175.047 270.688C175.356 270.933 175.788 271.056 176.343 271.056ZM182.967 262.304C182.7 262.304 182.476 262.219 182.295 262.048C182.124 261.867 182.039 261.643 182.039 261.376C182.039 261.12 182.124 260.907 182.295 260.736C182.476 260.565 182.7 260.48 182.967 260.48C183.223 260.48 183.442 260.565 183.623 260.736C183.804 260.907 183.895 261.12 183.895 261.376C183.895 261.643 183.804 261.867 183.623 262.048C183.442 262.219 183.223 262.304 182.967 262.304ZM182.295 272V264.064H183.639V272H182.295ZM189.579 272.192C188.79 272.192 188.096 272.011 187.499 271.648C186.912 271.285 186.454 270.789 186.123 270.16C185.803 269.531 185.643 268.816 185.643 268.016C185.643 267.216 185.808 266.507 186.139 265.888C186.47 265.259 186.928 264.768 187.515 264.416C188.102 264.053 188.795 263.872 189.595 263.872C190.246 263.872 190.822 264.005 191.323 264.272C191.824 264.539 192.214 264.912 192.491 265.392V260.48H193.835V272H192.619L192.491 270.688C192.235 271.072 191.867 271.419 191.387 271.728C190.907 272.037 190.304 272.192 189.579 272.192ZM189.723 271.024C190.256 271.024 190.726 270.901 191.131 270.656C191.547 270.4 191.867 270.048 192.091 269.6C192.326 269.152 192.443 268.629 192.443 268.032C192.443 267.435 192.326 266.912 192.091 266.464C191.867 266.016 191.547 265.669 191.131 265.424C190.726 265.168 190.256 265.04 189.723 265.04C189.2 265.04 188.731 265.168 188.315 265.424C187.91 265.669 187.59 266.016 187.355 266.464C187.131 266.912 187.019 267.435 187.019 268.032C187.019 268.629 187.131 269.152 187.355 269.6C187.59 270.048 187.91 270.4 188.315 270.656C188.731 270.901 189.2 271.024 189.723 271.024ZM37.752 304.192C36.9947 304.192 36.312 304.021 35.704 303.68C35.1067 303.328 34.632 302.843 34.28 302.224C33.9387 301.595 33.768 300.864 33.768 300.032C33.768 299.2 33.9387 298.475 34.28 297.856C34.632 297.227 35.1067 296.741 35.704 296.4C36.312 296.048 36.9947 295.872 37.752 295.872C38.6907 295.872 39.48 296.117 40.12 296.608C40.7707 297.099 41.1813 297.755 41.352 298.576H39.976C39.8693 298.085 39.608 297.707 39.192 297.44C38.776 297.163 38.2907 297.024 37.736 297.024C37.288 297.024 36.8667 297.136 36.472 297.36C36.0773 297.584 35.7573 297.92 35.512 298.368C35.2667 298.816 35.144 299.371 35.144 300.032C35.144 300.693 35.2667 301.248 35.512 301.696C35.7573 302.144 36.0773 302.485 36.472 302.72C36.8667 302.944 37.288 303.056 37.736 303.056C38.2907 303.056 38.776 302.923 39.192 302.656C39.608 302.379 39.8693 301.989 39.976 301.488H41.352C41.192 302.288 40.7867 302.939 40.136 303.44C39.4853 303.941 38.6907 304.192 37.752 304.192ZM46.845 304.192C46.0983 304.192 45.4263 304.021 44.829 303.68C44.2317 303.339 43.757 302.859 43.405 302.24C43.0637 301.611 42.893 300.875 42.893 300.032C42.893 299.189 43.069 298.459 43.421 297.84C43.773 297.211 44.2477 296.725 44.845 296.384C45.453 296.043 46.1303 295.872 46.877 295.872C47.6237 295.872 48.2957 296.043 48.893 296.384C49.4903 296.725 49.9597 297.211 50.301 297.84C50.653 298.459 50.829 299.189 50.829 300.032C50.829 300.875 50.653 301.611 50.301 302.24C49.949 302.859 49.469 303.339 48.861 303.68C48.2637 304.021 47.5917 304.192 46.845 304.192ZM46.845 303.04C47.3037 303.04 47.7303 302.928 48.125 302.704C48.5197 302.48 48.8397 302.144 49.085 301.696C49.3303 301.248 49.453 300.693 49.453 300.032C49.453 299.371 49.3303 298.816 49.085 298.368C48.8503 297.92 48.5357 297.584 48.141 297.36C47.7463 297.136 47.325 297.024 46.877 297.024C46.4183 297.024 45.9917 297.136 45.597 297.36C45.2023 297.584 44.8823 297.92 44.637 298.368C44.3917 298.816 44.269 299.371 44.269 300.032C44.269 300.693 44.3917 301.248 44.637 301.696C44.8823 302.144 45.197 302.48 45.581 302.704C45.9757 302.928 46.397 303.04 46.845 303.04ZM59.6418 296.064V304H58.4258L58.3458 302.576C58.0898 303.077 57.7218 303.472 57.2418 303.76C56.7618 304.048 56.2178 304.192 55.6098 304.192C54.6711 304.192 53.9191 303.909 53.3538 303.344C52.7991 302.768 52.5218 301.888 52.5218 300.704V296.064H53.8658V300.56C53.8658 302.213 54.5484 303.04 55.9138 303.04C56.5964 303.04 57.1618 302.795 57.6098 302.304C58.0684 301.803 58.2978 301.093 58.2978 300.176V296.064H59.6418ZM61.854 304V292.48H63.198V304H61.854ZM69.0009 304.192C68.2115 304.192 67.5182 304.011 66.9209 303.648C66.3342 303.285 65.8755 302.789 65.5449 302.16C65.2249 301.531 65.0649 300.816 65.0649 300.016C65.0649 299.216 65.2302 298.507 65.5609 297.888C65.8915 297.259 66.3502 296.768 66.9369 296.416C67.5235 296.053 68.2169 295.872 69.0169 295.872C69.6675 295.872 70.2435 296.005 70.7449 296.272C71.2462 296.539 71.6355 296.912 71.9129 297.392V292.48H73.2569V304H72.0409L71.9129 302.688C71.6569 303.072 71.2889 303.419 70.8089 303.728C70.3289 304.037 69.7262 304.192 69.0009 304.192ZM69.1449 303.024C69.6782 303.024 70.1475 302.901 70.5529 302.656C70.9689 302.4 71.2889 302.048 71.5129 301.6C71.7475 301.152 71.8649 300.629 71.8649 300.032C71.8649 299.435 71.7475 298.912 71.5129 298.464C71.2889 298.016 70.9689 297.669 70.5529 297.424C70.1475 297.168 69.6782 297.04 69.1449 297.04C68.6222 297.04 68.1529 297.168 67.7369 297.424C67.3315 297.669 67.0115 298.016 66.7769 298.464C66.5529 298.912 66.4409 299.435 66.4409 300.032C66.4409 300.629 66.5529 301.152 66.7769 301.6C67.0115 302.048 67.3315 302.4 67.7369 302.656C68.1529 302.901 68.6222 303.024 69.1449 303.024ZM83.3301 304.192C82.5728 304.192 81.8901 304.021 81.2821 303.68C80.6848 303.328 80.2101 302.843 79.8581 302.224C79.5168 301.595 79.3461 300.864 79.3461 300.032C79.3461 299.2 79.5168 298.475 79.8581 297.856C80.2101 297.227 80.6848 296.741 81.2821 296.4C81.8901 296.048 82.5728 295.872 83.3301 295.872C84.2688 295.872 85.0581 296.117 85.6981 296.608C86.3488 297.099 86.7595 297.755 86.9301 298.576H85.5541C85.4475 298.085 85.1861 297.707 84.7701 297.44C84.3541 297.163 83.8688 297.024 83.3141 297.024C82.8661 297.024 82.4448 297.136 82.0501 297.36C81.6555 297.584 81.3355 297.92 81.0901 298.368C80.8448 298.816 80.7221 299.371 80.7221 300.032C80.7221 300.693 80.8448 301.248 81.0901 301.696C81.3355 302.144 81.6555 302.485 82.0501 302.72C82.4448 302.944 82.8661 303.056 83.3141 303.056C83.8688 303.056 84.3541 302.923 84.7701 302.656C85.1861 302.379 85.4475 301.989 85.5541 301.488H86.9301C86.7701 302.288 86.3648 302.939 85.7141 303.44C85.0635 303.941 84.2688 304.192 83.3301 304.192ZM92.4231 304.192C91.6765 304.192 91.0045 304.021 90.4071 303.68C89.8098 303.339 89.3351 302.859 88.9831 302.24C88.6418 301.611 88.4711 300.875 88.4711 300.032C88.4711 299.189 88.6471 298.459 88.9991 297.84C89.3511 297.211 89.8258 296.725 90.4231 296.384C91.0311 296.043 91.7085 295.872 92.4551 295.872C93.2018 295.872 93.8738 296.043 94.4711 296.384C95.0685 296.725 95.5378 297.211 95.8791 297.84C96.2311 298.459 96.4071 299.189 96.4071 300.032C96.4071 300.875 96.2311 301.611 95.8791 302.24C95.5271 302.859 95.0471 303.339 94.4391 303.68C93.8418 304.021 93.1698 304.192 92.4231 304.192ZM92.4231 303.04C92.8818 303.04 93.3085 302.928 93.7031 302.704C94.0978 302.48 94.4178 302.144 94.6631 301.696C94.9085 301.248 95.0311 300.693 95.0311 300.032C95.0311 299.371 94.9085 298.816 94.6631 298.368C94.4285 297.92 94.1138 297.584 93.7191 297.36C93.3245 297.136 92.9031 297.024 92.4551 297.024C91.9965 297.024 91.5698 297.136 91.1751 297.36C90.7805 297.584 90.4605 297.92 90.2151 298.368C89.9698 298.816 89.8471 299.371 89.8471 300.032C89.8471 300.693 89.9698 301.248 90.2151 301.696C90.4605 302.144 90.7751 302.48 91.1591 302.704C91.5538 302.928 91.9751 303.04 92.4231 303.04ZM98.2759 304V296.064H99.4919L99.5719 297.488C99.8279 296.987 100.196 296.592 100.676 296.304C101.156 296.016 101.7 295.872 102.308 295.872C103.247 295.872 103.993 296.16 104.548 296.736C105.113 297.301 105.396 298.176 105.396 299.36V304H104.052V299.504C104.052 297.851 103.369 297.024 102.004 297.024C101.321 297.024 100.751 297.275 100.292 297.776C99.8439 298.267 99.6199 298.971 99.6199 299.888V304H98.2759ZM109.564 304L106.556 296.064H107.964L110.348 302.704L112.748 296.064H114.124L111.116 304H109.564ZM116.436 294.304C116.169 294.304 115.945 294.219 115.764 294.048C115.593 293.867 115.508 293.643 115.508 293.376C115.508 293.12 115.593 292.907 115.764 292.736C115.945 292.565 116.169 292.48 116.436 292.48C116.692 292.48 116.91 292.565 117.092 292.736C117.273 292.907 117.364 293.12 117.364 293.376C117.364 293.643 117.273 293.867 117.092 294.048C116.91 294.219 116.692 294.304 116.436 294.304ZM115.764 304V296.064H117.108V304H115.764ZM119.448 304V296.064H120.664L120.744 297.488C121 296.987 121.368 296.592 121.848 296.304C122.328 296.016 122.872 295.872 123.48 295.872C124.418 295.872 125.165 296.16 125.72 296.736C126.285 297.301 126.568 298.176 126.568 299.36V304H125.224V299.504C125.224 297.851 124.541 297.024 123.176 297.024C122.493 297.024 121.922 297.275 121.464 297.776C121.016 298.267 120.792 298.971 120.792 299.888V304H119.448ZM132.252 304.192C131.495 304.192 130.812 304.021 130.204 303.68C129.607 303.328 129.132 302.843 128.78 302.224C128.439 301.595 128.268 300.864 128.268 300.032C128.268 299.2 128.439 298.475 128.78 297.856C129.132 297.227 129.607 296.741 130.204 296.4C130.812 296.048 131.495 295.872 132.252 295.872C133.191 295.872 133.98 296.117 134.62 296.608C135.271 297.099 135.681 297.755 135.852 298.576H134.476C134.369 298.085 134.108 297.707 133.692 297.44C133.276 297.163 132.791 297.024 132.236 297.024C131.788 297.024 131.367 297.136 130.972 297.36C130.577 297.584 130.257 297.92 130.012 298.368C129.767 298.816 129.644 299.371 129.644 300.032C129.644 300.693 129.767 301.248 130.012 301.696C130.257 302.144 130.577 302.485 130.972 302.72C131.367 302.944 131.788 303.056 132.236 303.056C132.791 303.056 133.276 302.923 133.692 302.656C134.108 302.379 134.369 301.989 134.476 301.488H135.852C135.692 302.288 135.287 302.939 134.636 303.44C133.985 303.941 133.191 304.192 132.252 304.192ZM141.297 304.192C140.54 304.192 139.868 304.021 139.281 303.68C138.694 303.328 138.23 302.843 137.889 302.224C137.558 301.605 137.393 300.875 137.393 300.032C137.393 299.2 137.558 298.475 137.889 297.856C138.22 297.227 138.678 296.741 139.265 296.4C139.862 296.048 140.55 295.872 141.329 295.872C142.097 295.872 142.758 296.048 143.313 296.4C143.878 296.741 144.31 297.195 144.609 297.76C144.908 298.325 145.057 298.933 145.057 299.584C145.057 299.701 145.052 299.819 145.041 299.936C145.041 300.053 145.041 300.187 145.041 300.336H138.721C138.753 300.944 138.892 301.451 139.137 301.856C139.393 302.251 139.708 302.549 140.081 302.752C140.465 302.955 140.87 303.056 141.297 303.056C141.852 303.056 142.316 302.928 142.689 302.672C143.062 302.416 143.334 302.069 143.505 301.632H144.833C144.62 302.368 144.209 302.981 143.601 303.472C143.004 303.952 142.236 304.192 141.297 304.192ZM141.297 297.008C140.657 297.008 140.086 297.205 139.585 297.6C139.094 297.984 138.812 298.549 138.737 299.296H143.729C143.697 298.581 143.452 298.021 142.993 297.616C142.534 297.211 141.969 297.008 141.297 297.008ZM151.073 304V292.48H152.417V297.424C152.683 296.933 153.062 296.555 153.553 296.288C154.043 296.011 154.577 295.872 155.153 295.872C156.07 295.872 156.806 296.16 157.361 296.736C157.915 297.301 158.193 298.176 158.193 299.36V304H156.865V299.504C156.865 297.851 156.198 297.024 154.865 297.024C154.171 297.024 153.59 297.275 153.121 297.776C152.651 298.267 152.417 298.971 152.417 299.888V304H151.073ZM163.797 304.192C163.04 304.192 162.368 304.021 161.781 303.68C161.194 303.328 160.73 302.843 160.389 302.224C160.058 301.605 159.893 300.875 159.893 300.032C159.893 299.2 160.058 298.475 160.389 297.856C160.72 297.227 161.178 296.741 161.765 296.4C162.362 296.048 163.05 295.872 163.829 295.872C164.597 295.872 165.258 296.048 165.813 296.4C166.378 296.741 166.81 297.195 167.109 297.76C167.408 298.325 167.557 298.933 167.557 299.584C167.557 299.701 167.552 299.819 167.541 299.936C167.541 300.053 167.541 300.187 167.541 300.336H161.221C161.253 300.944 161.392 301.451 161.637 301.856C161.893 302.251 162.208 302.549 162.581 302.752C162.965 302.955 163.37 303.056 163.797 303.056C164.352 303.056 164.816 302.928 165.189 302.672C165.562 302.416 165.834 302.069 166.005 301.632H167.333C167.12 302.368 166.709 302.981 166.101 303.472C165.504 303.952 164.736 304.192 163.797 304.192ZM163.797 297.008C163.157 297.008 162.586 297.205 162.085 297.6C161.594 297.984 161.312 298.549 161.237 299.296H166.229C166.197 298.581 165.952 298.021 165.493 297.616C165.034 297.211 164.469 297.008 163.797 297.008ZM169.338 304V296.064H170.554L170.666 297.584C170.912 297.061 171.285 296.645 171.786 296.336C172.288 296.027 172.906 295.872 173.642 295.872V297.28H173.274C172.805 297.28 172.373 297.365 171.978 297.536C171.584 297.696 171.269 297.973 171.034 298.368C170.8 298.763 170.682 299.307 170.682 300V304H169.338ZM182.025 304.192C181.364 304.192 180.815 304.08 180.377 303.856C179.94 303.632 179.615 303.333 179.401 302.96C179.188 302.587 179.081 302.181 179.081 301.744C179.081 300.933 179.391 300.309 180.009 299.872C180.628 299.435 181.471 299.216 182.537 299.216H184.681V299.12C184.681 298.427 184.5 297.904 184.137 297.552C183.775 297.189 183.289 297.008 182.681 297.008C182.159 297.008 181.705 297.141 181.321 297.408C180.948 297.664 180.713 298.043 180.617 298.544H179.241C179.295 297.968 179.487 297.483 179.817 297.088C180.159 296.693 180.58 296.395 181.081 296.192C181.583 295.979 182.116 295.872 182.681 295.872C183.791 295.872 184.623 296.171 185.177 296.768C185.743 297.355 186.025 298.139 186.025 299.12V304H184.825L184.745 302.576C184.521 303.024 184.191 303.408 183.753 303.728C183.327 304.037 182.751 304.192 182.025 304.192ZM182.233 303.056C182.745 303.056 183.183 302.923 183.545 302.656C183.919 302.389 184.201 302.043 184.393 301.616C184.585 301.189 184.681 300.741 184.681 300.272V300.256H182.649C181.86 300.256 181.3 300.395 180.969 300.672C180.649 300.939 180.489 301.275 180.489 301.68C180.489 302.096 180.639 302.432 180.937 302.688C181.247 302.933 181.679 303.056 182.233 303.056ZM188.042 304V296.064H189.258L189.338 297.488C189.594 296.987 189.962 296.592 190.442 296.304C190.922 296.016 191.466 295.872 192.074 295.872C193.012 295.872 193.759 296.16 194.314 296.736C194.879 297.301 195.161 298.176 195.161 299.36V304H193.818V299.504C193.818 297.851 193.135 297.024 191.77 297.024C191.087 297.024 190.516 297.275 190.058 297.776C189.61 298.267 189.386 298.971 189.386 299.888V304H188.042ZM200.798 304.192C200.008 304.192 199.315 304.011 198.718 303.648C198.131 303.285 197.672 302.789 197.342 302.16C197.022 301.531 196.862 300.816 196.862 300.016C196.862 299.216 197.027 298.507 197.358 297.888C197.688 297.259 198.147 296.768 198.734 296.416C199.32 296.053 200.014 295.872 200.814 295.872C201.464 295.872 202.04 296.005 202.542 296.272C203.043 296.539 203.432 296.912 203.71 297.392V292.48H205.054V304H203.838L203.71 302.688C203.454 303.072 203.086 303.419 202.606 303.728C202.126 304.037 201.523 304.192 200.798 304.192ZM200.942 303.024C201.475 303.024 201.944 302.901 202.35 302.656C202.766 302.4 203.086 302.048 203.31 301.6C203.544 301.152 203.662 300.629 203.662 300.032C203.662 299.435 203.544 298.912 203.31 298.464C203.086 298.016 202.766 297.669 202.35 297.424C201.944 297.168 201.475 297.04 200.942 297.04C200.419 297.04 199.95 297.168 199.534 297.424C199.128 297.669 198.808 298.016 198.574 298.464C198.35 298.912 198.238 299.435 198.238 300.032C198.238 300.629 198.35 301.152 198.574 301.6C198.808 302.048 199.128 302.4 199.534 302.656C199.95 302.901 200.419 303.024 200.942 303.024ZM214.519 304.192C213.57 304.192 212.78 303.952 212.151 303.472C211.522 302.992 211.154 302.341 211.047 301.52H212.423C212.508 301.936 212.727 302.299 213.079 302.608C213.442 302.907 213.927 303.056 214.535 303.056C215.1 303.056 215.516 302.939 215.783 302.704C216.05 302.459 216.183 302.171 216.183 301.84C216.183 301.36 216.007 301.04 215.655 300.88C215.314 300.72 214.828 300.576 214.199 300.448C213.772 300.363 213.346 300.24 212.919 300.08C212.492 299.92 212.135 299.696 211.847 299.408C211.559 299.109 211.415 298.72 211.415 298.24C211.415 297.547 211.671 296.981 212.183 296.544C212.706 296.096 213.41 295.872 214.295 295.872C215.138 295.872 215.826 296.085 216.359 296.512C216.903 296.928 217.218 297.525 217.303 298.304H215.975C215.922 297.899 215.746 297.584 215.447 297.36C215.159 297.125 214.77 297.008 214.279 297.008C213.799 297.008 213.426 297.109 213.159 297.312C212.903 297.515 212.775 297.781 212.775 298.112C212.775 298.432 212.94 298.683 213.271 298.864C213.612 299.045 214.071 299.2 214.647 299.328C215.138 299.435 215.602 299.568 216.039 299.728C216.487 299.877 216.85 300.107 217.127 300.416C217.415 300.715 217.559 301.152 217.559 301.728C217.57 302.443 217.298 303.035 216.743 303.504C216.199 303.963 215.458 304.192 214.519 304.192ZM223.095 304.192C222.348 304.192 221.676 304.021 221.079 303.68C220.482 303.339 220.007 302.859 219.655 302.24C219.314 301.611 219.143 300.875 219.143 300.032C219.143 299.189 219.319 298.459 219.671 297.84C220.023 297.211 220.498 296.725 221.095 296.384C221.703 296.043 222.38 295.872 223.127 295.872C223.874 295.872 224.546 296.043 225.143 296.384C225.74 296.725 226.21 297.211 226.551 297.84C226.903 298.459 227.079 299.189 227.079 300.032C227.079 300.875 226.903 301.611 226.551 302.24C226.199 302.859 225.719 303.339 225.111 303.68C224.514 304.021 223.842 304.192 223.095 304.192ZM223.095 303.04C223.554 303.04 223.98 302.928 224.375 302.704C224.77 302.48 225.09 302.144 225.335 301.696C225.58 301.248 225.703 300.693 225.703 300.032C225.703 299.371 225.58 298.816 225.335 298.368C225.1 297.92 224.786 297.584 224.391 297.36C223.996 297.136 223.575 297.024 223.127 297.024C222.668 297.024 222.242 297.136 221.847 297.36C221.452 297.584 221.132 297.92 220.887 298.368C220.642 298.816 220.519 299.371 220.519 300.032C220.519 300.693 220.642 301.248 220.887 301.696C221.132 302.144 221.447 302.48 221.831 302.704C222.226 302.928 222.647 303.04 223.095 303.04ZM34.92 326.304C34.6533 326.304 34.4293 326.219 34.248 326.048C34.0773 325.867 33.992 325.643 33.992 325.376C33.992 325.12 34.0773 324.907 34.248 324.736C34.4293 324.565 34.6533 324.48 34.92 324.48C35.176 324.48 35.3947 324.565 35.576 324.736C35.7573 324.907 35.848 325.12 35.848 325.376C35.848 325.643 35.7573 325.867 35.576 326.048C35.3947 326.219 35.176 326.304 34.92 326.304ZM34.248 336V328.064H35.592V336H34.248ZM41.0681 336C40.3428 336 39.7721 335.824 39.3561 335.472C38.9401 335.12 38.7321 334.485 38.7321 333.568V329.2H37.3561V328.064H38.7321L38.9081 326.16H40.0761V328.064H42.4121V329.2H40.0761V333.568C40.0761 334.069 40.1775 334.411 40.3801 334.592C40.5828 334.763 40.9401 334.848 41.4521 334.848H42.2841V336H41.0681ZM51.954 336.192C51.1647 336.192 50.4713 336.011 49.874 335.648C49.2873 335.285 48.8287 334.789 48.498 334.16C48.178 333.531 48.018 332.816 48.018 332.016C48.018 331.216 48.1833 330.507 48.514 329.888C48.8447 329.259 49.3033 328.768 49.89 328.416C50.4767 328.053 51.17 327.872 51.97 327.872C52.6207 327.872 53.1967 328.005 53.698 328.272C54.1993 328.539 54.5887 328.912 54.866 329.392V324.48H56.21V336H54.994L54.866 334.688C54.61 335.072 54.242 335.419 53.762 335.728C53.282 336.037 52.6793 336.192 51.954 336.192ZM52.098 335.024C52.6313 335.024 53.1007 334.901 53.506 334.656C53.922 334.4 54.242 334.048 54.466 333.6C54.7007 333.152 54.818 332.629 54.818 332.032C54.818 331.435 54.7007 330.912 54.466 330.464C54.242 330.016 53.922 329.669 53.506 329.424C53.1007 329.168 52.6313 329.04 52.098 329.04C51.5753 329.04 51.106 329.168 50.69 329.424C50.2847 329.669 49.9647 330.016 49.73 330.464C49.506 330.912 49.394 331.435 49.394 332.032C49.394 332.629 49.506 333.152 49.73 333.6C49.9647 334.048 50.2847 334.4 50.69 334.656C51.106 334.901 51.5753 335.024 52.098 335.024ZM59.2169 326.304C58.9502 326.304 58.7262 326.219 58.5449 326.048C58.3742 325.867 58.2889 325.643 58.2889 325.376C58.2889 325.12 58.3742 324.907 58.5449 324.736C58.7262 324.565 58.9502 324.48 59.2169 324.48C59.4729 324.48 59.6915 324.565 59.8729 324.736C60.0542 324.907 60.1449 325.12 60.1449 325.376C60.1449 325.643 60.0542 325.867 59.8729 326.048C59.6915 326.219 59.4729 326.304 59.2169 326.304ZM58.5449 336V328.064H59.8889V336H58.5449ZM65.829 336.192C65.0397 336.192 64.3463 336.011 63.749 335.648C63.1623 335.285 62.7037 334.789 62.373 334.16C62.053 333.531 61.893 332.816 61.893 332.016C61.893 331.216 62.0583 330.507 62.389 329.888C62.7197 329.259 63.1783 328.768 63.765 328.416C64.3517 328.053 65.045 327.872 65.845 327.872C66.4957 327.872 67.0717 328.005 67.573 328.272C68.0743 328.539 68.4637 328.912 68.741 329.392V324.48H70.085V336H68.869L68.741 334.688C68.485 335.072 68.117 335.419 67.637 335.728C67.157 336.037 66.5543 336.192 65.829 336.192ZM65.973 335.024C66.5063 335.024 66.9757 334.901 67.381 334.656C67.797 334.4 68.117 334.048 68.341 333.6C68.5757 333.152 68.693 332.629 68.693 332.032C68.693 331.435 68.5757 330.912 68.341 330.464C68.117 330.016 67.797 329.669 67.381 329.424C66.9757 329.168 66.5063 329.04 65.973 329.04C65.4503 329.04 64.981 329.168 64.565 329.424C64.1597 329.669 63.8397 330.016 63.605 330.464C63.381 330.912 63.269 331.435 63.269 332.032C63.269 332.629 63.381 333.152 63.605 333.6C63.8397 334.048 64.1597 334.4 64.565 334.656C64.981 334.901 65.4503 335.024 65.973 335.024ZM72.2759 336V328.064H73.4919L73.5719 329.488C73.8279 328.987 74.1959 328.592 74.6759 328.304C75.1559 328.016 75.6999 327.872 76.3079 327.872C77.2465 327.872 77.9932 328.16 78.5479 328.736C79.1132 329.301 79.3959 330.176 79.3959 331.36V336H78.0519V331.504C78.0519 329.851 77.3692 329.024 76.0039 329.024C75.3212 329.024 74.7505 329.275 74.2919 329.776C73.8439 330.267 73.6199 330.971 73.6199 331.888V336H72.2759ZM80.8561 328.368L81.7841 324.8H83.2881L81.8161 328.368H80.8561ZM87.9744 336C87.249 336 86.6784 335.824 86.2624 335.472C85.8464 335.12 85.6384 334.485 85.6384 333.568V329.2H84.2624V328.064H85.6384L85.8144 326.16H86.9824V328.064H89.3184V329.2H86.9824V333.568C86.9824 334.069 87.0837 334.411 87.2864 334.592C87.489 334.763 87.8464 334.848 88.3584 334.848H89.1904V336H87.9744ZM98.3963 336C97.6709 336 97.1003 335.824 96.6843 335.472C96.2683 335.12 96.0603 334.485 96.0603 333.568V329.2H94.6842V328.064H96.0603L96.2363 326.16H97.4043V328.064H99.7403V329.2H97.4043V333.568C97.4043 334.069 97.5056 334.411 97.7083 334.592C97.9109 334.763 98.2683 334.848 98.7803 334.848H99.6123V336H98.3963ZM104.088 336.192C103.426 336.192 102.877 336.08 102.44 335.856C102.002 335.632 101.677 335.333 101.464 334.96C101.25 334.587 101.144 334.181 101.144 333.744C101.144 332.933 101.453 332.309 102.072 331.872C102.69 331.435 103.533 331.216 104.6 331.216H106.744V331.12C106.744 330.427 106.562 329.904 106.2 329.552C105.837 329.189 105.352 329.008 104.744 329.008C104.221 329.008 103.768 329.141 103.384 329.408C103.01 329.664 102.776 330.043 102.68 330.544H101.304C101.357 329.968 101.549 329.483 101.88 329.088C102.221 328.693 102.642 328.395 103.144 328.192C103.645 327.979 104.178 327.872 104.744 327.872C105.853 327.872 106.685 328.171 107.24 328.768C107.805 329.355 108.088 330.139 108.088 331.12V336H106.888L106.808 334.576C106.584 335.024 106.253 335.408 105.816 335.728C105.389 336.037 104.813 336.192 104.088 336.192ZM104.296 335.056C104.808 335.056 105.245 334.923 105.608 334.656C105.981 334.389 106.264 334.043 106.456 333.616C106.648 333.189 106.744 332.741 106.744 332.272V332.256H104.712C103.922 332.256 103.362 332.395 103.032 332.672C102.712 332.939 102.552 333.275 102.552 333.68C102.552 334.096 102.701 334.432 103 334.688C103.309 334.933 103.741 335.056 104.296 335.056ZM110.104 336V324.48H111.448V331.408L114.696 328.064H116.344L112.824 331.648L116.792 336H115.08L111.448 331.888V336H110.104ZM121.156 336.192C120.399 336.192 119.727 336.021 119.14 335.68C118.554 335.328 118.09 334.843 117.748 334.224C117.418 333.605 117.252 332.875 117.252 332.032C117.252 331.2 117.418 330.475 117.748 329.856C118.079 329.227 118.538 328.741 119.124 328.4C119.722 328.048 120.41 327.872 121.188 327.872C121.956 327.872 122.618 328.048 123.172 328.4C123.738 328.741 124.17 329.195 124.468 329.76C124.767 330.325 124.916 330.933 124.916 331.584C124.916 331.701 124.911 331.819 124.9 331.936C124.9 332.053 124.9 332.187 124.9 332.336H118.58C118.612 332.944 118.751 333.451 118.996 333.856C119.252 334.251 119.567 334.549 119.94 334.752C120.324 334.955 120.73 335.056 121.156 335.056C121.711 335.056 122.175 334.928 122.548 334.672C122.922 334.416 123.194 334.069 123.364 333.632H124.692C124.479 334.368 124.068 334.981 123.46 335.472C122.863 335.952 122.095 336.192 121.156 336.192ZM121.156 329.008C120.516 329.008 119.946 329.205 119.444 329.6C118.954 329.984 118.671 330.549 118.596 331.296H123.588C123.556 330.581 123.311 330.021 122.852 329.616C122.394 329.211 121.828 329.008 121.156 329.008ZM130.932 336V324.48H132.276V336H130.932ZM138.095 336.192C137.348 336.192 136.676 336.021 136.079 335.68C135.482 335.339 135.007 334.859 134.655 334.24C134.314 333.611 134.143 332.875 134.143 332.032C134.143 331.189 134.319 330.459 134.671 329.84C135.023 329.211 135.498 328.725 136.095 328.384C136.703 328.043 137.38 327.872 138.127 327.872C138.874 327.872 139.546 328.043 140.143 328.384C140.74 328.725 141.21 329.211 141.551 329.84C141.903 330.459 142.079 331.189 142.079 332.032C142.079 332.875 141.903 333.611 141.551 334.24C141.199 334.859 140.719 335.339 140.111 335.68C139.514 336.021 138.842 336.192 138.095 336.192ZM138.095 335.04C138.554 335.04 138.98 334.928 139.375 334.704C139.77 334.48 140.09 334.144 140.335 333.696C140.58 333.248 140.703 332.693 140.703 332.032C140.703 331.371 140.58 330.816 140.335 330.368C140.1 329.92 139.786 329.584 139.391 329.36C138.996 329.136 138.575 329.024 138.127 329.024C137.668 329.024 137.242 329.136 136.847 329.36C136.452 329.584 136.132 329.92 135.887 330.368C135.642 330.816 135.519 331.371 135.519 332.032C135.519 332.693 135.642 333.248 135.887 333.696C136.132 334.144 136.447 334.48 136.831 334.704C137.226 334.928 137.647 335.04 138.095 335.04ZM143.948 336V328.064H145.164L145.244 329.488C145.5 328.987 145.868 328.592 146.348 328.304C146.828 328.016 147.372 327.872 147.98 327.872C148.918 327.872 149.665 328.16 150.22 328.736C150.785 329.301 151.068 330.176 151.068 331.36V336H149.724V331.504C149.724 329.851 149.041 329.024 147.676 329.024C146.993 329.024 146.422 329.275 145.964 329.776C145.516 330.267 145.292 330.971 145.292 331.888V336H143.948ZM156.24 333.504C155.792 333.504 155.381 333.445 155.008 333.328L154.208 334.08C154.325 334.165 154.469 334.24 154.64 334.304C154.821 334.357 155.077 334.411 155.408 334.464C155.739 334.507 156.203 334.555 156.8 334.608C157.867 334.683 158.629 334.928 159.088 335.344C159.547 335.76 159.776 336.304 159.776 336.976C159.776 337.435 159.648 337.872 159.392 338.288C159.147 338.704 158.763 339.045 158.24 339.312C157.728 339.579 157.067 339.712 156.256 339.712C155.541 339.712 154.907 339.616 154.352 339.424C153.797 339.243 153.365 338.96 153.056 338.576C152.747 338.203 152.592 337.728 152.592 337.152C152.592 336.853 152.672 336.528 152.832 336.176C152.992 335.835 153.291 335.509 153.728 335.2C153.493 335.104 153.291 335.003 153.12 334.896C152.96 334.779 152.811 334.651 152.672 334.512V334.144L154.032 332.8C153.403 332.267 153.088 331.563 153.088 330.688C153.088 330.165 153.211 329.691 153.456 329.264C153.701 328.837 154.059 328.501 154.528 328.256C154.997 328 155.568 327.872 156.24 327.872C156.699 327.872 157.115 327.936 157.488 328.064H160.416V329.072L158.928 329.136C159.237 329.584 159.392 330.101 159.392 330.688C159.392 331.211 159.264 331.685 159.008 332.112C158.763 332.539 158.405 332.88 157.936 333.136C157.477 333.381 156.912 333.504 156.24 333.504ZM156.24 332.4C156.805 332.4 157.253 332.256 157.584 331.968C157.925 331.669 158.096 331.243 158.096 330.688C158.096 330.144 157.925 329.728 157.584 329.44C157.253 329.141 156.805 328.992 156.24 328.992C155.664 328.992 155.205 329.141 154.864 329.44C154.533 329.728 154.368 330.144 154.368 330.688C154.368 331.243 154.533 331.669 154.864 331.968C155.205 332.256 155.664 332.4 156.24 332.4ZM153.904 337.024C153.904 337.557 154.128 337.952 154.576 338.208C155.024 338.475 155.584 338.608 156.256 338.608C156.917 338.608 157.445 338.464 157.84 338.176C158.245 337.888 158.448 337.504 158.448 337.024C158.448 336.683 158.309 336.384 158.032 336.128C157.755 335.883 157.243 335.739 156.496 335.696C155.909 335.653 155.403 335.6 154.976 335.536C154.539 335.771 154.251 336.021 154.112 336.288C153.973 336.565 153.904 336.811 153.904 337.024ZM162.396 336.08C162.129 336.08 161.905 335.995 161.724 335.824C161.553 335.643 161.468 335.424 161.468 335.168C161.468 334.912 161.553 334.699 161.724 334.528C161.905 334.347 162.129 334.256 162.396 334.256C162.652 334.256 162.865 334.347 163.036 334.528C163.217 334.699 163.308 334.912 163.308 335.168C163.308 335.424 163.217 335.643 163.036 335.824C162.865 335.995 162.652 336.08 162.396 336.08Z" fill="#333333" fill-opacity="0.496405"/>
<rect x="284" width="302" height="416" fill="#9EAD8D"/>
</svg>
