<svg width="570" height="736" viewBox="0 0 570 736" fill="none" xmlns="http://www.w3.org/2000/svg">
<rect width="570" height="736" fill="white"/>
<rect width="570" height="496" fill="#9B9B9B"/>
<mask id="mask0_0_1" style="mask-type:luminance" maskUnits="userSpaceOnUse" x="0" y="0" width="570" height="496">
<rect width="570" height="496" fill="white"/>
</mask>
<g mask="url(#mask0_0_1)">
</g>
<path d="M65.3633 600.754C66.0794 600.754 66.776 600.676 67.4531 600.52C68.1432 600.363 68.7422 600.038 69.25 599.543C69.7708 599.048 70.194 598.339 70.5195 597.414C70.8451 596.477 71.0078 595.22 71.0078 593.645C71.0078 592.095 70.8516 590.852 70.5391 589.914C70.2266 588.964 69.8164 588.234 69.3086 587.727C68.8138 587.219 68.2148 586.887 67.5117 586.73C66.8216 586.561 66.1055 586.477 65.3633 586.477H63.5273V600.754H65.3633ZM48.8008 608V600.754C49.9466 600.754 50.7669 600.604 51.2617 600.305C51.7565 599.992 52.0039 599.413 52.0039 598.566V588.684C52.0039 587.824 51.7565 587.245 51.2617 586.945C50.7669 586.633 49.9466 586.477 48.8008 586.477V579.23H69.5234C71.3854 579.23 73.1888 579.478 74.9336 579.973C76.6784 580.467 78.2279 581.275 79.582 582.395C80.9492 583.514 82.043 584.999 82.8633 586.848C83.6966 588.684 84.1133 590.949 84.1133 593.645C84.1133 596.34 83.7031 598.605 82.8828 600.441C82.0755 602.277 80.9688 603.755 79.5625 604.875C78.1693 605.995 76.5352 606.802 74.6602 607.297C72.7852 607.792 70.793 608.039 68.6836 608.039L48.8008 608ZM97.1016 598.449C97.1536 600.389 97.5182 601.73 98.1953 602.473C98.8854 603.202 99.8685 603.566 101.145 603.566C101.574 603.566 101.991 603.508 102.395 603.391C102.811 603.26 103.195 603.059 103.547 602.785C103.898 602.499 104.198 602.128 104.445 601.672C104.706 601.203 104.875 600.617 104.953 599.914H112.062C111.802 601.594 111.32 603 110.617 604.133C109.927 605.266 109.035 606.184 107.941 606.887C106.848 607.577 105.572 608.072 104.113 608.371C102.668 608.684 101.053 608.84 99.2695 608.84C97.4336 608.84 95.7083 608.605 94.0938 608.137C92.4792 607.668 91.0599 606.958 89.8359 606.008C88.625 605.044 87.6745 603.84 86.9844 602.395C86.2943 600.936 85.9492 599.204 85.9492 597.199C85.9492 595.285 86.2747 593.605 86.9258 592.16C87.5768 590.715 88.4883 589.51 89.6602 588.547C90.8451 587.57 92.2383 586.835 93.8398 586.34C95.4544 585.845 97.2253 585.598 99.1523 585.598C101.522 585.598 103.56 585.91 105.266 586.535C106.971 587.16 108.365 588.033 109.445 589.152C110.526 590.272 111.32 591.62 111.828 593.195C112.336 594.771 112.577 596.522 112.551 598.449H97.1016ZM99.9922 590.871C99.0807 590.871 98.4036 591.197 97.9609 591.848C97.5312 592.486 97.2448 593.547 97.1016 595.031H102.824C102.746 593.755 102.473 592.746 102.004 592.004C101.535 591.249 100.865 590.871 99.9922 590.871ZM128.625 579.23V598.645C128.625 599.517 128.84 600.09 129.27 600.363C129.699 600.624 130.246 600.754 130.91 600.754H131.438V608H114.992V600.754H115.754C116.444 600.754 116.952 600.539 117.277 600.109C117.616 599.667 117.785 599.191 117.785 598.684V588.684C117.785 587.928 117.544 587.375 117.062 587.023C116.594 586.659 116.047 586.477 115.422 586.477H114.992V579.23H128.625ZM147.062 586.477V598.645C147.062 599.517 147.277 600.09 147.707 600.363C148.137 600.624 148.684 600.754 149.348 600.754H149.875V608H133.43V600.754H134.191C134.882 600.754 135.389 600.539 135.715 600.109C136.053 599.667 136.223 599.191 136.223 598.684V595.93C136.223 595.174 135.982 594.621 135.5 594.27C135.031 593.905 134.484 593.723 133.859 593.723H133.43V586.477H147.062ZM135.91 581.672C135.91 580.552 136.333 579.595 137.18 578.801C138.039 578.007 139.257 577.609 140.832 577.609C142.434 577.609 143.664 578.007 144.523 578.801C145.396 579.595 145.832 580.552 145.832 581.672C145.832 582.818 145.396 583.788 144.523 584.582C143.664 585.363 142.434 585.754 140.832 585.754C139.257 585.754 138.039 585.363 137.18 584.582C136.333 583.788 135.91 582.818 135.91 581.672ZM165.656 590.871C164.536 590.871 163.677 591.346 163.078 592.297C162.479 593.247 162.18 594.829 162.18 597.043C162.18 599.257 162.486 600.832 163.098 601.77C163.723 602.694 164.673 603.156 165.949 603.156C166.314 603.156 166.685 603.098 167.062 602.98C167.44 602.863 167.779 602.694 168.078 602.473C168.391 602.238 168.645 601.945 168.84 601.594C169.048 601.229 169.165 600.806 169.191 600.324H175.5C175.083 603.228 173.911 605.376 171.984 606.77C170.07 608.15 167.336 608.84 163.781 608.84C161.997 608.84 160.331 608.605 158.781 608.137C157.232 607.668 155.884 606.958 154.738 606.008C153.592 605.044 152.694 603.84 152.043 602.395C151.392 600.936 151.066 599.204 151.066 597.199C151.066 595.285 151.392 593.605 152.043 592.16C152.694 590.715 153.605 589.51 154.777 588.547C155.962 587.57 157.355 586.835 158.957 586.34C160.572 585.845 162.342 585.598 164.27 585.598C166.314 585.598 168.039 585.852 169.445 586.359C170.852 586.867 171.984 587.505 172.844 588.273C173.716 589.029 174.335 589.849 174.699 590.734C175.077 591.607 175.266 592.427 175.266 593.195C175.266 593.807 175.174 594.406 174.992 594.992C174.823 595.578 174.536 596.112 174.133 596.594C173.742 597.076 173.241 597.466 172.629 597.766C172.017 598.052 171.268 598.195 170.383 598.195C169.536 598.195 168.846 598.078 168.312 597.844C167.779 597.596 167.362 597.297 167.062 596.945C166.776 596.581 166.568 596.203 166.438 595.812C166.32 595.409 166.262 595.031 166.262 594.68C166.262 593.885 166.451 593.254 166.828 592.785C167.206 592.316 167.642 591.991 168.137 591.809C167.85 591.587 167.557 591.379 167.258 591.184C166.971 590.975 166.438 590.871 165.656 590.871ZM191.672 586.477V598.645C191.672 599.517 191.887 600.09 192.316 600.363C192.746 600.624 193.293 600.754 193.957 600.754H194.484V608H178.039V600.754H178.801C179.491 600.754 179.999 600.539 180.324 600.109C180.663 599.667 180.832 599.191 180.832 598.684V595.93C180.832 595.174 180.591 594.621 180.109 594.27C179.641 593.905 179.094 593.723 178.469 593.723H178.039V586.477H191.672ZM180.52 581.672C180.52 580.552 180.943 579.595 181.789 578.801C182.648 578.007 183.866 577.609 185.441 577.609C187.043 577.609 188.273 578.007 189.133 578.801C190.005 579.595 190.441 580.552 190.441 581.672C190.441 582.818 190.005 583.788 189.133 584.582C188.273 585.363 187.043 585.754 185.441 585.754C183.866 585.754 182.648 585.363 181.789 584.582C180.943 583.788 180.52 582.818 180.52 581.672ZM195.676 597.199C195.676 595.285 196.008 593.605 196.672 592.16C197.336 590.715 198.28 589.51 199.504 588.547C200.741 587.57 202.225 586.835 203.957 586.34C205.689 585.845 207.622 585.598 209.758 585.598C211.893 585.598 213.827 585.845 215.559 586.34C217.29 586.835 218.768 587.57 219.992 588.547C221.216 589.51 222.16 590.715 222.824 592.16C223.501 593.605 223.84 595.285 223.84 597.199C223.84 599.087 223.501 600.76 222.824 602.219C222.16 603.677 221.216 604.901 219.992 605.891C218.768 606.867 217.29 607.603 215.559 608.098C213.827 608.592 211.893 608.84 209.758 608.84C207.622 608.84 205.689 608.592 203.957 608.098C202.225 607.603 200.741 606.867 199.504 605.891C198.28 604.901 197.336 603.677 196.672 602.219C196.008 600.76 195.676 599.087 195.676 597.199ZM206.789 597.199C206.789 598.293 206.835 599.224 206.926 599.992C207.03 600.747 207.193 601.359 207.414 601.828C207.635 602.284 207.935 602.622 208.312 602.844C208.69 603.052 209.172 603.156 209.758 603.156C210.344 603.156 210.819 603.052 211.184 602.844C211.561 602.622 211.861 602.284 212.082 601.828C212.316 601.359 212.479 600.747 212.57 599.992C212.661 599.224 212.707 598.293 212.707 597.199C212.707 595.012 212.499 593.482 212.082 592.609C211.678 591.724 210.904 591.281 209.758 591.281C209.172 591.281 208.69 591.385 208.312 591.594C207.935 591.789 207.635 592.121 207.414 592.59C207.193 593.046 207.03 593.658 206.926 594.426C206.835 595.181 206.789 596.105 206.789 597.199ZM253.762 599.191C253.762 599.816 253.938 600.233 254.289 600.441C254.654 600.65 255.064 600.754 255.52 600.754H256.555V608H244.953V602.648H244.641C244.341 604.641 243.527 606.151 242.199 607.18C240.871 608.208 238.938 608.723 236.398 608.723C234.615 608.723 233.163 608.469 232.043 607.961C230.923 607.453 230.057 606.815 229.445 606.047C228.833 605.266 228.41 604.426 228.176 603.527C227.954 602.616 227.844 601.763 227.844 600.969V595.637C227.844 594.947 227.72 594.458 227.473 594.172C227.238 593.872 226.776 593.723 226.086 593.723H224.914V586.477H238.566V598.801C238.566 599.309 238.625 599.719 238.742 600.031C238.859 600.331 239.009 600.565 239.191 600.734C239.387 600.891 239.602 600.995 239.836 601.047C240.083 601.099 240.311 601.125 240.52 601.125C241.379 601.125 242.01 600.878 242.414 600.383C242.831 599.888 243.039 599.185 243.039 598.273V595.637C243.039 594.947 242.915 594.458 242.668 594.172C242.434 593.872 241.971 593.723 241.281 593.723H240.129V586.477H253.762V599.191ZM281.145 593.605H275.773C275.396 592.668 274.81 591.926 274.016 591.379C273.221 590.832 272.395 590.559 271.535 590.559C270.949 590.559 270.48 590.669 270.129 590.891C269.79 591.099 269.621 591.418 269.621 591.848C269.621 592.382 269.921 592.785 270.52 593.059C271.118 593.319 271.867 593.553 272.766 593.762C273.677 593.97 274.66 594.224 275.715 594.523C276.77 594.81 277.746 595.227 278.645 595.773C279.556 596.32 280.311 597.056 280.91 597.98C281.509 598.905 281.809 600.122 281.809 601.633C281.809 602.805 281.548 603.827 281.027 604.699C280.507 605.572 279.79 606.288 278.879 606.848C277.98 607.408 276.919 607.824 275.695 608.098C274.471 608.384 273.15 608.527 271.73 608.527C270.35 608.527 269.042 608.391 267.805 608.117C266.581 607.857 265.409 607.408 264.289 606.77L264.094 608.117H258.938V600.285H264.289C264.797 601.327 265.435 602.134 266.203 602.707C266.984 603.28 267.844 603.566 268.781 603.566C269.497 603.566 270.005 603.436 270.305 603.176C270.617 602.902 270.773 602.603 270.773 602.277C270.773 601.743 270.474 601.333 269.875 601.047C269.276 600.747 268.534 600.487 267.648 600.266C266.776 600.031 265.812 599.777 264.758 599.504C263.703 599.217 262.733 598.807 261.848 598.273C260.975 597.74 260.24 597.023 259.641 596.125C259.042 595.214 258.742 594.022 258.742 592.551C258.742 591.496 258.977 590.533 259.445 589.66C259.927 588.788 260.611 588.052 261.496 587.453C262.382 586.854 263.423 586.398 264.621 586.086C265.819 585.76 267.134 585.598 268.566 585.598C270.168 585.598 271.607 585.78 272.883 586.145C274.172 586.496 275.135 586.887 275.773 587.316L275.969 585.93H281.145V593.605ZM326.906 586.398C326.906 590.565 324.738 592.844 320.402 593.234V593.449C322.668 593.501 324.452 594.12 325.754 595.305C327.056 596.49 327.707 598.202 327.707 600.441C327.707 601.379 327.596 602.303 327.375 603.215C327.154 604.113 326.672 604.914 325.93 605.617C325.201 606.32 324.139 606.893 322.746 607.336C321.366 607.779 319.504 608 317.16 608H295.676V600.754C296.822 600.754 297.642 600.604 298.137 600.305C298.632 599.992 298.879 599.413 298.879 598.566V588.684C298.879 587.824 298.632 587.245 298.137 586.945C297.642 586.633 296.822 586.477 295.676 586.477V579.23H318.508C320.305 579.23 321.757 579.432 322.863 579.836C323.97 580.24 324.823 580.773 325.422 581.438C326.021 582.102 326.418 582.87 326.613 583.742C326.809 584.602 326.906 585.487 326.906 586.398ZM313.312 600.754C314.406 600.754 315.161 600.546 315.578 600.129C315.995 599.699 316.203 598.99 316.203 598C316.203 597.01 315.995 596.294 315.578 595.852C315.161 595.396 314.406 595.168 313.312 595.168H310.402V600.754H313.312ZM310.402 591.711H313.352C314.159 591.711 314.738 591.457 315.09 590.949C315.454 590.428 315.637 589.803 315.637 589.074C315.637 588.384 315.454 587.779 315.09 587.258C314.738 586.737 314.159 586.477 313.352 586.477H310.402V591.711ZM341.711 586.477L341.379 591.848H341.711C342.167 589.79 342.922 588.234 343.977 587.18C345.044 586.125 346.424 585.598 348.117 585.598C349.12 585.598 349.979 585.76 350.695 586.086C351.424 586.398 352.01 586.822 352.453 587.355C352.896 587.889 353.215 588.508 353.41 589.211C353.605 589.901 353.703 590.617 353.703 591.359C353.703 591.971 353.612 592.577 353.43 593.176C353.247 593.775 352.954 594.315 352.551 594.797C352.147 595.279 351.626 595.669 350.988 595.969C350.35 596.255 349.562 596.398 348.625 596.398C347.323 596.398 346.294 596.066 345.539 595.402C344.797 594.738 344.426 593.938 344.426 593C344.426 592.544 344.478 592.16 344.582 591.848C344.686 591.522 344.79 591.262 344.895 591.066C345.012 590.858 345.09 590.708 345.129 590.617C345.168 590.526 345.122 590.48 344.992 590.48C344.719 590.48 344.419 590.793 344.094 591.418C343.781 592.043 343.625 593.026 343.625 594.367V598.84C343.625 599.53 343.742 600.025 343.977 600.324C344.224 600.611 344.693 600.754 345.383 600.754H346.555V608H330.109V600.754H331.262C331.796 600.754 332.199 600.585 332.473 600.246C332.759 599.895 332.902 599.478 332.902 598.996V595.285C332.902 594.673 332.72 594.263 332.355 594.055C332.004 593.833 331.6 593.723 331.145 593.723H330.109V586.477H341.711ZM365.969 598.449C366.021 600.389 366.385 601.73 367.062 602.473C367.753 603.202 368.736 603.566 370.012 603.566C370.441 603.566 370.858 603.508 371.262 603.391C371.678 603.26 372.062 603.059 372.414 602.785C372.766 602.499 373.065 602.128 373.312 601.672C373.573 601.203 373.742 600.617 373.82 599.914H380.93C380.669 601.594 380.188 603 379.484 604.133C378.794 605.266 377.902 606.184 376.809 606.887C375.715 607.577 374.439 608.072 372.98 608.371C371.535 608.684 369.921 608.84 368.137 608.84C366.301 608.84 364.576 608.605 362.961 608.137C361.346 607.668 359.927 606.958 358.703 606.008C357.492 605.044 356.542 603.84 355.852 602.395C355.161 600.936 354.816 599.204 354.816 597.199C354.816 595.285 355.142 593.605 355.793 592.16C356.444 590.715 357.355 589.51 358.527 588.547C359.712 587.57 361.105 586.835 362.707 586.34C364.322 585.845 366.092 585.598 368.02 585.598C370.389 585.598 372.427 585.91 374.133 586.535C375.839 587.16 377.232 588.033 378.312 589.152C379.393 590.272 380.188 591.62 380.695 593.195C381.203 594.771 381.444 596.522 381.418 598.449H365.969ZM368.859 590.871C367.948 590.871 367.271 591.197 366.828 591.848C366.398 592.486 366.112 593.547 365.969 595.031H371.691C371.613 593.755 371.34 592.746 370.871 592.004C370.402 591.249 369.732 590.871 368.859 590.871ZM393.488 589.191C392.824 589.191 392.251 589.243 391.77 589.348C391.301 589.439 390.897 589.549 390.559 589.68C390.22 589.81 389.94 589.96 389.719 590.129C389.497 590.285 389.302 590.428 389.133 590.559L389.328 590.754C389.576 590.624 389.842 590.493 390.129 590.363C390.428 590.233 390.806 590.168 391.262 590.168C392.03 590.168 392.694 590.422 393.254 590.93C393.814 591.424 394.094 592.219 394.094 593.312C394.094 594.354 393.664 595.194 392.805 595.832C391.958 596.457 390.819 596.77 389.387 596.77C388.02 596.77 386.926 596.379 386.105 595.598C385.298 594.803 384.895 593.684 384.895 592.238C384.895 591.444 385.116 590.656 385.559 589.875C386.001 589.081 386.685 588.371 387.609 587.746C388.547 587.121 389.732 586.607 391.164 586.203C392.609 585.799 394.348 585.598 396.379 585.598C398.801 585.598 400.78 585.826 402.316 586.281C403.853 586.737 405.044 587.323 405.891 588.039C406.75 588.755 407.336 589.569 407.648 590.48C407.974 591.392 408.137 592.31 408.137 593.234V600.871C408.137 602.056 408.176 602.863 408.254 603.293C408.332 603.71 408.625 603.918 409.133 603.918C409.536 603.918 409.816 603.729 409.973 603.352C410.142 602.961 410.227 602.297 410.227 601.359V598.918H412.453V601.398C412.453 602.57 412.355 603.612 412.16 604.523C411.965 605.422 411.594 606.197 411.047 606.848C410.5 607.486 409.758 607.967 408.82 608.293C407.883 608.632 406.685 608.801 405.227 608.801C403.911 608.801 402.818 608.658 401.945 608.371C401.086 608.098 400.402 607.753 399.895 607.336C399.387 606.919 399.022 606.49 398.801 606.047C398.592 605.591 398.488 605.188 398.488 604.836H398.176C398.098 605.37 397.87 605.878 397.492 606.359C397.128 606.841 396.613 607.271 395.949 607.648C395.298 608.013 394.51 608.306 393.586 608.527C392.674 608.762 391.633 608.879 390.461 608.879C389.341 608.879 388.319 608.768 387.395 608.547C386.483 608.339 385.702 608.007 385.051 607.551C384.413 607.082 383.911 606.483 383.547 605.754C383.195 605.012 383.02 604.133 383.02 603.117C383.02 601.867 383.371 600.884 384.074 600.168C384.777 599.439 385.663 598.866 386.73 598.449C387.798 598.02 388.957 597.674 390.207 597.414C391.47 597.141 392.635 596.815 393.703 596.438C394.771 596.06 395.656 595.572 396.359 594.973C397.062 594.374 397.414 593.527 397.414 592.434C397.414 591.457 397.108 590.676 396.496 590.09C395.884 589.491 394.882 589.191 393.488 589.191ZM397.414 597.648C397.128 598.065 396.77 598.404 396.34 598.664C395.91 598.911 395.493 599.159 395.09 599.406C394.699 599.641 394.354 599.927 394.055 600.266C393.768 600.591 393.625 601.034 393.625 601.594C393.625 602.023 393.742 602.414 393.977 602.766C394.211 603.104 394.667 603.273 395.344 603.273C395.956 603.273 396.451 603.039 396.828 602.57C397.219 602.089 397.414 601.418 397.414 600.559V597.648ZM440.266 579.23V599.152C440.266 599.686 440.409 600.09 440.695 600.363C440.995 600.624 441.411 600.754 441.945 600.754H443.059V608H429.934V604.445H429.621C429.413 605.005 429.107 605.539 428.703 606.047C428.299 606.555 427.805 607.004 427.219 607.395C426.633 607.772 425.936 608.072 425.129 608.293C424.335 608.527 423.43 608.645 422.414 608.645C419.224 608.645 416.809 607.681 415.168 605.754C413.527 603.814 412.707 600.975 412.707 597.238C412.707 593.501 413.586 590.728 415.344 588.918C417.102 587.108 419.517 586.203 422.59 586.203C423.41 586.203 424.146 586.268 424.797 586.398C425.448 586.529 426.04 586.698 426.574 586.906C427.108 587.102 427.616 587.329 428.098 587.59C428.579 587.837 429.061 588.078 429.543 588.312V587.609C429.543 586.906 429.419 586.411 429.172 586.125C428.938 585.826 428.475 585.676 427.785 585.676H426.75V579.23H440.266ZM423.82 597.434C423.82 598.137 423.859 598.801 423.938 599.426C424.016 600.051 424.159 600.598 424.367 601.066C424.589 601.535 424.875 601.9 425.227 602.16C425.591 602.421 426.066 602.551 426.652 602.551C427.238 602.551 427.72 602.427 428.098 602.18C428.475 601.932 428.768 601.587 428.977 601.145C429.198 600.702 429.348 600.174 429.426 599.562C429.504 598.951 429.543 598.299 429.543 597.609V593.195C429.217 592.883 428.781 592.622 428.234 592.414C427.688 592.193 427.16 592.082 426.652 592.082C426.066 592.082 425.591 592.232 425.227 592.531C424.875 592.818 424.589 593.208 424.367 593.703C424.159 594.198 424.016 594.771 423.938 595.422C423.859 596.073 423.82 596.743 423.82 597.434Z" fill="#171B1B"/>
<path d="M49.184 656V644.8H56V645.904H50.528V649.84H55.184V650.928H50.528V656H49.184ZM57.6509 656V644.48H58.9949V656H57.6509ZM64.8138 656.192C64.0671 656.192 63.3951 656.021 62.7978 655.68C62.2004 655.339 61.7258 654.859 61.3738 654.24C61.0324 653.611 60.8618 652.875 60.8618 652.032C60.8618 651.189 61.0378 650.459 61.3898 649.84C61.7418 649.211 62.2164 648.725 62.8138 648.384C63.4218 648.043 64.0991 647.872 64.8458 647.872C65.5924 647.872 66.2644 648.043 66.8618 648.384C67.4591 648.725 67.9284 649.211 68.2698 649.84C68.6218 650.459 68.7978 651.189 68.7978 652.032C68.7978 652.875 68.6218 653.611 68.2698 654.24C67.9178 654.859 67.4378 655.339 66.8298 655.68C66.2324 656.021 65.5604 656.192 64.8138 656.192ZM64.8138 655.04C65.2724 655.04 65.6991 654.928 66.0938 654.704C66.4884 654.48 66.8084 654.144 67.0538 653.696C67.2991 653.248 67.4218 652.693 67.4218 652.032C67.4218 651.371 67.2991 650.816 67.0538 650.368C66.8191 649.92 66.5044 649.584 66.1098 649.36C65.7151 649.136 65.2938 649.024 64.8458 649.024C64.3871 649.024 63.9604 649.136 63.5658 649.36C63.1711 649.584 62.8511 649.92 62.6058 650.368C62.3604 650.816 62.2378 651.371 62.2378 652.032C62.2378 652.693 62.3604 653.248 62.6058 653.696C62.8511 654.144 63.1658 654.48 63.5498 654.704C63.9444 654.928 64.3658 655.04 64.8138 655.04ZM71.9696 656L69.6496 648.064H70.9936L72.6736 654.288L74.5296 648.064H76.0496L77.9216 654.288L79.5856 648.064H80.9456L78.6256 656H77.2496L75.2976 649.456L73.3456 656H71.9696ZM85.4721 656.192C84.5228 656.192 83.7335 655.952 83.1041 655.472C82.4748 654.992 82.1068 654.341 82.0001 653.52H83.3761C83.4615 653.936 83.6801 654.299 84.0321 654.608C84.3948 654.907 84.8801 655.056 85.4881 655.056C86.0535 655.056 86.4695 654.939 86.7361 654.704C87.0028 654.459 87.1361 654.171 87.1361 653.84C87.1361 653.36 86.9601 653.04 86.6081 652.88C86.2668 652.72 85.7815 652.576 85.1521 652.448C84.7255 652.363 84.2988 652.24 83.8721 652.08C83.4455 651.92 83.0881 651.696 82.8001 651.408C82.5121 651.109 82.3681 650.72 82.3681 650.24C82.3681 649.547 82.6241 648.981 83.1361 648.544C83.6588 648.096 84.3628 647.872 85.2481 647.872C86.0908 647.872 86.7788 648.085 87.3121 648.512C87.8561 648.928 88.1708 649.525 88.2561 650.304H86.9281C86.8748 649.899 86.6988 649.584 86.4001 649.36C86.1121 649.125 85.7228 649.008 85.2321 649.008C84.7521 649.008 84.3788 649.109 84.1121 649.312C83.8561 649.515 83.7281 649.781 83.7281 650.112C83.7281 650.432 83.8935 650.683 84.2241 650.864C84.5655 651.045 85.0241 651.2 85.6001 651.328C86.0908 651.435 86.5548 651.568 86.9921 651.728C87.4401 651.877 87.8028 652.107 88.0801 652.416C88.3681 652.715 88.5121 653.152 88.5121 653.728C88.5228 654.443 88.2508 655.035 87.6961 655.504C87.1521 655.963 86.4108 656.192 85.4721 656.192ZM98.9065 656.192C98.2558 656.192 97.6745 656.059 97.1625 655.792C96.6612 655.525 96.2772 655.152 96.0105 654.672L95.8825 656H94.6665V644.48H96.0105V649.376C96.2665 648.992 96.6292 648.645 97.0985 648.336C97.5785 648.027 98.1865 647.872 98.9225 647.872C99.7118 647.872 100.4 648.053 100.987 648.416C101.573 648.779 102.027 649.275 102.347 649.904C102.677 650.533 102.843 651.248 102.843 652.048C102.843 652.848 102.677 653.563 102.347 654.192C102.027 654.811 101.568 655.301 100.971 655.664C100.384 656.016 99.6958 656.192 98.9065 656.192ZM98.7625 655.024C99.2958 655.024 99.7652 654.901 100.171 654.656C100.576 654.4 100.896 654.048 101.131 653.6C101.365 653.152 101.483 652.629 101.483 652.032C101.483 651.435 101.365 650.912 101.131 650.464C100.896 650.016 100.576 649.669 100.171 649.424C99.7652 649.168 99.2958 649.04 98.7625 649.04C98.2292 649.04 97.7598 649.168 97.3545 649.424C96.9492 649.669 96.6292 650.016 96.3945 650.464C96.1598 650.912 96.0425 651.435 96.0425 652.032C96.0425 652.629 96.1598 653.152 96.3945 653.6C96.6292 654.048 96.9492 654.4 97.3545 654.656C97.7598 654.901 98.2292 655.024 98.7625 655.024ZM104.937 659.52L106.905 655.232H106.441L103.289 648.064H104.745L107.369 654.24L110.153 648.064H111.545L106.345 659.52H104.937ZM120.334 656C119.608 656 119.038 655.824 118.622 655.472C118.206 655.12 117.998 654.485 117.998 653.568V649.2H116.622V648.064H117.998L118.174 646.16H119.342V648.064H121.678V649.2H119.342V653.568C119.342 654.069 119.443 654.411 119.646 654.592C119.848 654.763 120.206 654.848 120.718 654.848H121.55V656H120.334ZM123.385 656V644.48H124.729V649.424C124.996 648.933 125.375 648.555 125.865 648.288C126.356 648.011 126.889 647.872 127.465 647.872C128.383 647.872 129.119 648.16 129.673 648.736C130.228 649.301 130.505 650.176 130.505 651.36V656H129.177V651.504C129.177 649.851 128.511 649.024 127.177 649.024C126.484 649.024 125.903 649.275 125.433 649.776C124.964 650.267 124.729 650.971 124.729 651.888V656H123.385ZM136.11 656.192C135.352 656.192 134.68 656.021 134.094 655.68C133.507 655.328 133.043 654.843 132.702 654.224C132.371 653.605 132.206 652.875 132.206 652.032C132.206 651.2 132.371 650.475 132.702 649.856C133.032 649.227 133.491 648.741 134.078 648.4C134.675 648.048 135.363 647.872 136.141 647.872C136.91 647.872 137.571 648.048 138.126 648.4C138.691 648.741 139.123 649.195 139.422 649.76C139.72 650.325 139.87 650.933 139.87 651.584C139.87 651.701 139.864 651.819 139.854 651.936C139.854 652.053 139.854 652.187 139.854 652.336H133.534C133.566 652.944 133.704 653.451 133.95 653.856C134.206 654.251 134.52 654.549 134.894 654.752C135.278 654.955 135.683 655.056 136.11 655.056C136.664 655.056 137.128 654.928 137.502 654.672C137.875 654.416 138.147 654.069 138.318 653.632H139.646C139.432 654.368 139.022 654.981 138.414 655.472C137.816 655.952 137.048 656.192 136.11 656.192ZM136.11 649.008C135.47 649.008 134.899 649.205 134.398 649.6C133.907 649.984 133.624 650.549 133.549 651.296H138.542C138.51 650.581 138.264 650.021 137.806 649.616C137.347 649.211 136.782 649.008 136.11 649.008ZM142.467 646.304C142.2 646.304 141.976 646.219 141.795 646.048C141.624 645.867 141.539 645.643 141.539 645.376C141.539 645.12 141.624 644.907 141.795 644.736C141.976 644.565 142.2 644.48 142.467 644.48C142.723 644.48 142.942 644.565 143.123 644.736C143.304 644.907 143.395 645.12 143.395 645.376C143.395 645.643 143.304 645.867 143.123 646.048C142.942 646.219 142.723 646.304 142.467 646.304ZM141.795 656V648.064H143.139V656H141.795ZM145.479 656V648.064H146.695L146.807 649.584C147.052 649.061 147.426 648.645 147.927 648.336C148.428 648.027 149.047 647.872 149.783 647.872V649.28H149.415C148.946 649.28 148.514 649.365 148.119 649.536C147.724 649.696 147.41 649.973 147.175 650.368C146.94 650.763 146.823 651.307 146.823 652V656H145.479ZM155.526 659.52V648.064H156.742L156.87 649.376C157.126 648.992 157.489 648.645 157.958 648.336C158.438 648.027 159.046 647.872 159.782 647.872C160.571 647.872 161.259 648.053 161.846 648.416C162.433 648.779 162.886 649.275 163.206 649.904C163.537 650.533 163.702 651.248 163.702 652.048C163.702 652.848 163.537 653.563 163.206 654.192C162.886 654.811 162.427 655.301 161.83 655.664C161.243 656.016 160.555 656.192 159.766 656.192C159.115 656.192 158.534 656.059 158.022 655.792C157.521 655.525 157.137 655.152 156.87 654.672V659.52H155.526ZM159.622 655.024C160.155 655.024 160.625 654.901 161.03 654.656C161.435 654.4 161.755 654.048 161.99 653.6C162.225 653.152 162.342 652.629 162.342 652.032C162.342 651.435 162.225 650.912 161.99 650.464C161.755 650.016 161.435 649.669 161.03 649.424C160.625 649.168 160.155 649.04 159.622 649.04C159.089 649.04 158.619 649.168 158.214 649.424C157.809 649.669 157.489 650.016 157.254 650.464C157.019 650.912 156.902 651.435 156.902 652.032C156.902 652.629 157.019 653.152 157.254 653.6C157.489 654.048 157.809 654.4 158.214 654.656C158.619 654.901 159.089 655.024 159.622 655.024ZM165.573 656V644.48H166.917V656H165.573ZM171.76 656.192C171.098 656.192 170.549 656.08 170.112 655.856C169.674 655.632 169.349 655.333 169.136 654.96C168.922 654.587 168.816 654.181 168.816 653.744C168.816 652.933 169.125 652.309 169.744 651.872C170.362 651.435 171.205 651.216 172.272 651.216H174.416V651.12C174.416 650.427 174.234 649.904 173.872 649.552C173.509 649.189 173.024 649.008 172.416 649.008C171.893 649.008 171.44 649.141 171.056 649.408C170.682 649.664 170.448 650.043 170.352 650.544H168.976C169.029 649.968 169.221 649.483 169.552 649.088C169.893 648.693 170.314 648.395 170.816 648.192C171.317 647.979 171.85 647.872 172.416 647.872C173.525 647.872 174.357 648.171 174.912 648.768C175.477 649.355 175.76 650.139 175.76 651.12V656H174.56L174.48 654.576C174.256 655.024 173.925 655.408 173.488 655.728C173.061 656.037 172.485 656.192 171.76 656.192ZM171.968 655.056C172.48 655.056 172.917 654.923 173.28 654.656C173.653 654.389 173.936 654.043 174.128 653.616C174.32 653.189 174.416 652.741 174.416 652.272V652.256H172.384C171.594 652.256 171.034 652.395 170.704 652.672C170.384 652.939 170.224 653.275 170.224 653.68C170.224 654.096 170.373 654.432 170.672 654.688C170.981 654.933 171.413 655.056 171.968 655.056ZM181.424 656.192C180.667 656.192 179.984 656.021 179.376 655.68C178.779 655.328 178.304 654.843 177.952 654.224C177.611 653.595 177.44 652.864 177.44 652.032C177.44 651.2 177.611 650.475 177.952 649.856C178.304 649.227 178.779 648.741 179.376 648.4C179.984 648.048 180.667 647.872 181.424 647.872C182.363 647.872 183.152 648.117 183.792 648.608C184.443 649.099 184.853 649.755 185.024 650.576H183.648C183.541 650.085 183.28 649.707 182.864 649.44C182.448 649.163 181.963 649.024 181.408 649.024C180.96 649.024 180.539 649.136 180.144 649.36C179.749 649.584 179.429 649.92 179.184 650.368C178.939 650.816 178.816 651.371 178.816 652.032C178.816 652.693 178.939 653.248 179.184 653.696C179.429 654.144 179.749 654.485 180.144 654.72C180.539 654.944 180.96 655.056 181.408 655.056C181.963 655.056 182.448 654.923 182.864 654.656C183.28 654.379 183.541 653.989 183.648 653.488H185.024C184.864 654.288 184.459 654.939 183.808 655.44C183.157 655.941 182.363 656.192 181.424 656.192ZM190.469 656.192C189.712 656.192 189.04 656.021 188.453 655.68C187.866 655.328 187.402 654.843 187.061 654.224C186.73 653.605 186.565 652.875 186.565 652.032C186.565 651.2 186.73 650.475 187.061 649.856C187.392 649.227 187.85 648.741 188.437 648.4C189.034 648.048 189.722 647.872 190.501 647.872C191.269 647.872 191.93 648.048 192.485 648.4C193.05 648.741 193.482 649.195 193.781 649.76C194.08 650.325 194.229 650.933 194.229 651.584C194.229 651.701 194.224 651.819 194.213 651.936C194.213 652.053 194.213 652.187 194.213 652.336H187.893C187.925 652.944 188.064 653.451 188.309 653.856C188.565 654.251 188.88 654.549 189.253 654.752C189.637 654.955 190.042 655.056 190.469 655.056C191.024 655.056 191.488 654.928 191.861 654.672C192.234 654.416 192.506 654.069 192.677 653.632H194.005C193.792 654.368 193.381 654.981 192.773 655.472C192.176 655.952 191.408 656.192 190.469 656.192ZM190.469 649.008C189.829 649.008 189.258 649.205 188.757 649.6C188.266 649.984 187.984 650.549 187.909 651.296H192.901C192.869 650.581 192.624 650.021 192.165 649.616C191.706 649.211 191.141 649.008 190.469 649.008ZM202.885 656.192C202.223 656.192 201.674 656.08 201.237 655.856C200.799 655.632 200.474 655.333 200.261 654.96C200.047 654.587 199.941 654.181 199.941 653.744C199.941 652.933 200.25 652.309 200.869 651.872C201.487 651.435 202.33 651.216 203.397 651.216H205.541V651.12C205.541 650.427 205.359 649.904 204.997 649.552C204.634 649.189 204.149 649.008 203.541 649.008C203.018 649.008 202.565 649.141 202.181 649.408C201.807 649.664 201.573 650.043 201.477 650.544H200.101C200.154 649.968 200.346 649.483 200.677 649.088C201.018 648.693 201.439 648.395 201.941 648.192C202.442 647.979 202.975 647.872 203.541 647.872C204.65 647.872 205.482 648.171 206.037 648.768C206.602 649.355 206.885 650.139 206.885 651.12V656H205.685L205.605 654.576C205.381 655.024 205.05 655.408 204.613 655.728C204.186 656.037 203.61 656.192 202.885 656.192ZM203.093 655.056C203.605 655.056 204.042 654.923 204.405 654.656C204.778 654.389 205.061 654.043 205.253 653.616C205.445 653.189 205.541 652.741 205.541 652.272V652.256H203.509C202.719 652.256 202.159 652.395 201.829 652.672C201.509 652.939 201.349 653.275 201.349 653.68C201.349 654.096 201.498 654.432 201.797 654.688C202.106 654.933 202.538 655.056 203.093 655.056ZM208.901 656V648.064H210.117L210.197 649.488C210.453 648.987 210.821 648.592 211.301 648.304C211.781 648.016 212.325 647.872 212.933 647.872C213.872 647.872 214.618 648.16 215.173 648.736C215.738 649.301 216.021 650.176 216.021 651.36V656H214.677V651.504C214.677 649.851 213.994 649.024 212.629 649.024C211.946 649.024 211.376 649.275 210.917 649.776C210.469 650.267 210.245 650.971 210.245 651.888V656H208.901ZM221.657 656.192C220.868 656.192 220.174 656.011 219.577 655.648C218.99 655.285 218.532 654.789 218.201 654.16C217.881 653.531 217.721 652.816 217.721 652.016C217.721 651.216 217.886 650.507 218.217 649.888C218.548 649.259 219.006 648.768 219.593 648.416C220.18 648.053 220.873 647.872 221.673 647.872C222.324 647.872 222.9 648.005 223.401 648.272C223.902 648.539 224.292 648.912 224.569 649.392V644.48H225.913V656H224.697L224.569 654.688C224.313 655.072 223.945 655.419 223.465 655.728C222.985 656.037 222.382 656.192 221.657 656.192ZM221.801 655.024C222.334 655.024 222.804 654.901 223.209 654.656C223.625 654.4 223.945 654.048 224.169 653.6C224.404 653.152 224.521 652.629 224.521 652.032C224.521 651.435 224.404 650.912 224.169 650.464C223.945 650.016 223.625 649.669 223.209 649.424C222.804 649.168 222.334 649.04 221.801 649.04C221.278 649.04 220.809 649.168 220.393 649.424C219.988 649.669 219.668 650.016 219.433 650.464C219.209 650.912 219.097 651.435 219.097 652.032C219.097 652.629 219.209 653.152 219.433 653.6C219.668 654.048 219.988 654.4 220.393 654.656C220.809 654.901 221.278 655.024 221.801 655.024ZM235.378 656.192C234.429 656.192 233.64 655.952 233.01 655.472C232.381 654.992 232.013 654.341 231.906 653.52H233.282C233.368 653.936 233.586 654.299 233.938 654.608C234.301 654.907 234.786 655.056 235.394 655.056C235.96 655.056 236.376 654.939 236.642 654.704C236.909 654.459 237.042 654.171 237.042 653.84C237.042 653.36 236.866 653.04 236.514 652.88C236.173 652.72 235.688 652.576 235.058 652.448C234.632 652.363 234.205 652.24 233.778 652.08C233.352 651.92 232.994 651.696 232.706 651.408C232.418 651.109 232.274 650.72 232.274 650.24C232.274 649.547 232.53 648.981 233.042 648.544C233.565 648.096 234.269 647.872 235.154 647.872C235.997 647.872 236.685 648.085 237.218 648.512C237.762 648.928 238.077 649.525 238.162 650.304H236.834C236.781 649.899 236.605 649.584 236.306 649.36C236.018 649.125 235.629 649.008 235.138 649.008C234.658 649.008 234.285 649.109 234.018 649.312C233.762 649.515 233.634 649.781 233.634 650.112C233.634 650.432 233.8 650.683 234.13 650.864C234.472 651.045 234.93 651.2 235.506 651.328C235.997 651.435 236.461 651.568 236.898 651.728C237.346 651.877 237.709 652.107 237.986 652.416C238.274 652.715 238.418 653.152 238.418 653.728C238.429 654.443 238.157 655.035 237.602 655.504C237.058 655.963 236.317 656.192 235.378 656.192ZM247.282 648.064V656H246.066L245.986 654.576C245.73 655.077 245.362 655.472 244.882 655.76C244.402 656.048 243.858 656.192 243.25 656.192C242.312 656.192 241.56 655.909 240.994 655.344C240.44 654.768 240.162 653.888 240.162 652.704V648.064H241.506V652.56C241.506 654.213 242.189 655.04 243.554 655.04C244.237 655.04 244.802 654.795 245.25 654.304C245.709 653.803 245.938 653.093 245.938 652.176V648.064H247.282ZM249.495 659.52V648.064H250.711L250.839 649.376C251.095 648.992 251.457 648.645 251.927 648.336C252.407 648.027 253.015 647.872 253.751 647.872C254.54 647.872 255.228 648.053 255.815 648.416C256.401 648.779 256.855 649.275 257.175 649.904C257.505 650.533 257.671 651.248 257.671 652.048C257.671 652.848 257.505 653.563 257.175 654.192C256.855 654.811 256.396 655.301 255.799 655.664C255.212 656.016 254.524 656.192 253.735 656.192C253.084 656.192 252.503 656.059 251.991 655.792C251.489 655.525 251.105 655.152 250.839 654.672V659.52H249.495ZM253.591 655.024C254.124 655.024 254.593 654.901 254.999 654.656C255.404 654.4 255.724 654.048 255.959 653.6C256.193 653.152 256.311 652.629 256.311 652.032C256.311 651.435 256.193 650.912 255.959 650.464C255.724 650.016 255.404 649.669 254.999 649.424C254.593 649.168 254.124 649.04 253.591 649.04C253.057 649.04 252.588 649.168 252.183 649.424C251.777 649.669 251.457 650.016 251.223 650.464C250.988 650.912 250.871 651.435 250.871 652.032C250.871 652.629 250.988 653.152 251.223 653.6C251.457 654.048 251.777 654.4 252.183 654.656C252.588 654.901 253.057 655.024 253.591 655.024ZM259.542 659.52V648.064H260.758L260.886 649.376C261.142 648.992 261.504 648.645 261.974 648.336C262.454 648.027 263.062 647.872 263.798 647.872C264.587 647.872 265.275 648.053 265.862 648.416C266.448 648.779 266.902 649.275 267.222 649.904C267.552 650.533 267.718 651.248 267.718 652.048C267.718 652.848 267.552 653.563 267.222 654.192C266.902 654.811 266.443 655.301 265.846 655.664C265.259 656.016 264.571 656.192 263.782 656.192C263.131 656.192 262.55 656.059 262.038 655.792C261.536 655.525 261.152 655.152 260.886 654.672V659.52H259.542ZM263.638 655.024C264.171 655.024 264.64 654.901 265.046 654.656C265.451 654.4 265.771 654.048 266.006 653.6C266.24 653.152 266.358 652.629 266.358 652.032C266.358 651.435 266.24 650.912 266.006 650.464C265.771 650.016 265.451 649.669 265.046 649.424C264.64 649.168 264.171 649.04 263.638 649.04C263.104 649.04 262.635 649.168 262.23 649.424C261.824 649.669 261.504 650.016 261.27 650.464C261.035 650.912 260.918 651.435 260.918 652.032C260.918 652.629 261.035 653.152 261.27 653.6C261.504 654.048 261.824 654.4 262.23 654.656C262.635 654.901 263.104 655.024 263.638 655.024ZM269.588 656V644.48H270.932V656H269.588ZM273.951 646.304C273.685 646.304 273.461 646.219 273.279 646.048C273.109 645.867 273.023 645.643 273.023 645.376C273.023 645.12 273.109 644.907 273.279 644.736C273.461 644.565 273.685 644.48 273.951 644.48C274.207 644.48 274.426 644.565 274.607 644.736C274.789 644.907 274.879 645.12 274.879 645.376C274.879 645.643 274.789 645.867 274.607 646.048C274.426 646.219 274.207 646.304 273.951 646.304ZM273.279 656V648.064H274.623V656H273.279ZM280.531 656.192C279.774 656.192 279.102 656.021 278.515 655.68C277.929 655.328 277.465 654.843 277.123 654.224C276.793 653.605 276.627 652.875 276.627 652.032C276.627 651.2 276.793 650.475 277.123 649.856C277.454 649.227 277.913 648.741 278.499 648.4C279.097 648.048 279.785 647.872 280.563 647.872C281.331 647.872 281.993 648.048 282.547 648.4C283.113 648.741 283.545 649.195 283.843 649.76C284.142 650.325 284.291 650.933 284.291 651.584C284.291 651.701 284.286 651.819 284.275 651.936C284.275 652.053 284.275 652.187 284.275 652.336H277.955C277.987 652.944 278.126 653.451 278.371 653.856C278.627 654.251 278.942 654.549 279.315 654.752C279.699 654.955 280.105 655.056 280.531 655.056C281.086 655.056 281.55 654.928 281.923 654.672C282.297 654.416 282.569 654.069 282.739 653.632H284.067C283.854 654.368 283.443 654.981 282.835 655.472C282.238 655.952 281.47 656.192 280.531 656.192ZM280.531 649.008C279.891 649.008 279.321 649.205 278.819 649.6C278.329 649.984 278.046 650.549 277.971 651.296H282.963C282.931 650.581 282.686 650.021 282.227 649.616C281.769 649.211 281.203 649.008 280.531 649.008ZM289.113 656.192C288.163 656.192 287.374 655.952 286.745 655.472C286.115 654.992 285.747 654.341 285.641 653.52H287.017C287.102 653.936 287.321 654.299 287.673 654.608C288.035 654.907 288.521 655.056 289.129 655.056C289.694 655.056 290.11 654.939 290.377 654.704C290.643 654.459 290.777 654.171 290.777 653.84C290.777 653.36 290.601 653.04 290.249 652.88C289.907 652.72 289.422 652.576 288.793 652.448C288.366 652.363 287.939 652.24 287.513 652.08C287.086 651.92 286.729 651.696 286.441 651.408C286.153 651.109 286.009 650.72 286.009 650.24C286.009 649.547 286.265 648.981 286.777 648.544C287.299 648.096 288.003 647.872 288.889 647.872C289.731 647.872 290.419 648.085 290.953 648.512C291.497 648.928 291.811 649.525 291.897 650.304H290.569C290.515 649.899 290.339 649.584 290.041 649.36C289.753 649.125 289.363 649.008 288.873 649.008C288.393 649.008 288.019 649.109 287.753 649.312C287.497 649.515 287.369 649.781 287.369 650.112C287.369 650.432 287.534 650.683 287.865 650.864C288.206 651.045 288.665 651.2 289.241 651.328C289.731 651.435 290.195 651.568 290.633 651.728C291.081 651.877 291.443 652.107 291.721 652.416C292.009 652.715 292.153 653.152 292.153 653.728C292.163 654.443 291.891 655.035 291.337 655.504C290.793 655.963 290.051 656.192 289.113 656.192ZM299.123 646.304C298.856 646.304 298.632 646.219 298.451 646.048C298.28 645.867 298.195 645.643 298.195 645.376C298.195 645.12 298.28 644.907 298.451 644.736C298.632 644.565 298.856 644.48 299.123 644.48C299.379 644.48 299.598 644.565 299.779 644.736C299.96 644.907 300.051 645.12 300.051 645.376C300.051 645.643 299.96 645.867 299.779 646.048C299.598 646.219 299.379 646.304 299.123 646.304ZM298.451 656V648.064H299.795V656H298.451ZM305.271 656C304.546 656 303.975 655.824 303.559 655.472C303.143 655.12 302.935 654.485 302.935 653.568V649.2H301.559V648.064H302.935L303.111 646.16H304.279V648.064H306.615V649.2H304.279V653.568C304.279 654.069 304.381 654.411 304.583 654.592C304.786 654.763 305.143 654.848 305.655 654.848H306.487V656H305.271ZM314.157 656L311.837 648.064H313.181L314.861 654.288L316.717 648.064H318.237L320.109 654.288L321.773 648.064H323.133L320.813 656H319.437L317.485 649.456L315.533 656H314.157ZM325.436 646.304C325.169 646.304 324.945 646.219 324.764 646.048C324.593 645.867 324.508 645.643 324.508 645.376C324.508 645.12 324.593 644.907 324.764 644.736C324.945 644.565 325.169 644.48 325.436 644.48C325.692 644.48 325.91 644.565 326.092 644.736C326.273 644.907 326.364 645.12 326.364 645.376C326.364 645.643 326.273 645.867 326.092 646.048C325.91 646.219 325.692 646.304 325.436 646.304ZM324.764 656V648.064H326.108V656H324.764ZM331.584 656C330.858 656 330.288 655.824 329.872 655.472C329.456 655.12 329.248 654.485 329.248 653.568V649.2H327.872V648.064H329.248L329.424 646.16H330.592V648.064H332.928V649.2H330.592V653.568C330.592 654.069 330.693 654.411 330.896 654.592C331.098 654.763 331.456 654.848 331.968 654.848H332.8V656H331.584ZM334.635 656V644.48H335.979V649.424C336.246 648.933 336.625 648.555 337.115 648.288C337.606 648.011 338.139 647.872 338.715 647.872C339.633 647.872 340.369 648.16 340.923 648.736C341.478 649.301 341.755 650.176 341.755 651.36V656H340.427V651.504C340.427 649.851 339.761 649.024 338.427 649.024C337.734 649.024 337.153 649.275 336.683 649.776C336.214 650.267 335.979 650.971 335.979 651.888V656H334.635ZM52.24 688C51.5147 688 50.944 687.824 50.528 687.472C50.112 687.12 49.904 686.485 49.904 685.568V681.2H48.528V680.064H49.904L50.08 678.16H51.248V680.064H53.584V681.2H51.248V685.568C51.248 686.069 51.3493 686.411 51.552 686.592C51.7547 686.763 52.112 686.848 52.624 686.848H53.456V688H52.24ZM55.2915 688V676.48H56.6355V681.424C56.9022 680.933 57.2808 680.555 57.7715 680.288C58.2622 680.011 58.7955 679.872 59.3715 679.872C60.2888 679.872 61.0248 680.16 61.5795 680.736C62.1342 681.301 62.4115 682.176 62.4115 683.36V688H61.0835V683.504C61.0835 681.851 60.4168 681.024 59.0835 681.024C58.3902 681.024 57.8088 681.275 57.3395 681.776C56.8702 682.267 56.6355 682.971 56.6355 683.888V688H55.2915ZM68.0158 688.192C67.2584 688.192 66.5864 688.021 65.9998 687.68C65.4131 687.328 64.9491 686.843 64.6078 686.224C64.2771 685.605 64.1118 684.875 64.1118 684.032C64.1118 683.2 64.2771 682.475 64.6078 681.856C64.9384 681.227 65.3971 680.741 65.9838 680.4C66.5811 680.048 67.2691 679.872 68.0477 679.872C68.8158 679.872 69.4771 680.048 70.0318 680.4C70.5971 680.741 71.0291 681.195 71.3278 681.76C71.6264 682.325 71.7758 682.933 71.7758 683.584C71.7758 683.701 71.7704 683.819 71.7598 683.936C71.7598 684.053 71.7598 684.187 71.7598 684.336H65.4398C65.4718 684.944 65.6104 685.451 65.8558 685.856C66.1118 686.251 66.4264 686.549 66.7998 686.752C67.1838 686.955 67.5891 687.056 68.0158 687.056C68.5704 687.056 69.0344 686.928 69.4078 686.672C69.7811 686.416 70.0531 686.069 70.2238 685.632H71.5518C71.3384 686.368 70.9278 686.981 70.3198 687.472C69.7224 687.952 68.9544 688.192 68.0158 688.192ZM68.0158 681.008C67.3758 681.008 66.8051 681.205 66.3038 681.6C65.8131 681.984 65.5304 682.549 65.4557 683.296H70.4478C70.4158 682.581 70.1704 682.021 69.7118 681.616C69.2531 681.211 68.6878 681.008 68.0158 681.008ZM77.7915 688V680.064H79.0075L79.0875 681.488C79.3435 680.987 79.7115 680.592 80.1915 680.304C80.6715 680.016 81.2155 679.872 81.8235 679.872C82.7622 679.872 83.5088 680.16 84.0635 680.736C84.6288 681.301 84.9115 682.176 84.9115 683.36V688H83.5675V683.504C83.5675 681.851 82.8848 681.024 81.5195 681.024C80.8368 681.024 80.2662 681.275 79.8075 681.776C79.3595 682.267 79.1355 682.971 79.1355 683.888V688H77.7915ZM90.5158 688.192C89.7584 688.192 89.0864 688.021 88.4998 687.68C87.9131 687.328 87.4491 686.843 87.1078 686.224C86.7771 685.605 86.6118 684.875 86.6118 684.032C86.6118 683.2 86.7771 682.475 87.1078 681.856C87.4384 681.227 87.8971 680.741 88.4838 680.4C89.0811 680.048 89.7691 679.872 90.5477 679.872C91.3158 679.872 91.9771 680.048 92.5318 680.4C93.0971 680.741 93.5291 681.195 93.8278 681.76C94.1264 682.325 94.2758 682.933 94.2758 683.584C94.2758 683.701 94.2704 683.819 94.2598 683.936C94.2598 684.053 94.2598 684.187 94.2598 684.336H87.9398C87.9718 684.944 88.1104 685.451 88.3558 685.856C88.6118 686.251 88.9264 686.549 89.2998 686.752C89.6838 686.955 90.0891 687.056 90.5158 687.056C91.0704 687.056 91.5344 686.928 91.9078 686.672C92.2811 686.416 92.5531 686.069 92.7238 685.632H94.0518C93.8384 686.368 93.4278 686.981 92.8198 687.472C92.2224 687.952 91.4544 688.192 90.5158 688.192ZM90.5158 681.008C89.8758 681.008 89.3051 681.205 88.8038 681.6C88.3131 681.984 88.0304 682.549 87.9557 683.296H92.9478C92.9158 682.581 92.6704 682.021 92.2118 681.616C91.7531 681.211 91.1878 681.008 90.5158 681.008ZM99.7051 688.192C98.9478 688.192 98.2651 688.021 97.6571 687.68C97.0598 687.328 96.5851 686.843 96.2331 686.224C95.8918 685.595 95.7211 684.864 95.7211 684.032C95.7211 683.2 95.8918 682.475 96.2331 681.856C96.5851 681.227 97.0598 680.741 97.6571 680.4C98.2651 680.048 98.9478 679.872 99.7051 679.872C100.644 679.872 101.433 680.117 102.073 680.608C102.724 681.099 103.134 681.755 103.305 682.576H101.929C101.822 682.085 101.561 681.707 101.145 681.44C100.729 681.163 100.244 681.024 99.6891 681.024C99.2411 681.024 98.8198 681.136 98.4251 681.36C98.0305 681.584 97.7105 681.92 97.4651 682.368C97.2198 682.816 97.0971 683.371 97.0971 684.032C97.0971 684.693 97.2198 685.248 97.4651 685.696C97.7105 686.144 98.0305 686.485 98.4251 686.72C98.8198 686.944 99.2411 687.056 99.6891 687.056C100.244 687.056 100.729 686.923 101.145 686.656C101.561 686.379 101.822 685.989 101.929 685.488H103.305C103.145 686.288 102.74 686.939 102.089 687.44C101.438 687.941 100.644 688.192 99.7051 688.192ZM108.75 688.192C107.993 688.192 107.321 688.021 106.734 687.68C106.147 687.328 105.683 686.843 105.342 686.224C105.011 685.605 104.846 684.875 104.846 684.032C104.846 683.2 105.011 682.475 105.342 681.856C105.673 681.227 106.131 680.741 106.718 680.4C107.315 680.048 108.003 679.872 108.782 679.872C109.55 679.872 110.211 680.048 110.766 680.4C111.331 680.741 111.763 681.195 112.062 681.76C112.361 682.325 112.51 682.933 112.51 683.584C112.51 683.701 112.505 683.819 112.494 683.936C112.494 684.053 112.494 684.187 112.494 684.336H106.174C106.206 684.944 106.345 685.451 106.59 685.856C106.846 686.251 107.161 686.549 107.534 686.752C107.918 686.955 108.323 687.056 108.75 687.056C109.305 687.056 109.769 686.928 110.142 686.672C110.515 686.416 110.787 686.069 110.958 685.632H112.286C112.073 686.368 111.662 686.981 111.054 687.472C110.457 687.952 109.689 688.192 108.75 688.192ZM108.75 681.008C108.11 681.008 107.539 681.205 107.038 681.6C106.547 681.984 106.265 682.549 106.19 683.296H111.182C111.15 682.581 110.905 682.021 110.446 681.616C109.987 681.211 109.422 681.008 108.75 681.008ZM117.332 688.192C116.382 688.192 115.593 687.952 114.964 687.472C114.334 686.992 113.966 686.341 113.86 685.52H115.236C115.321 685.936 115.54 686.299 115.892 686.608C116.254 686.907 116.74 687.056 117.348 687.056C117.913 687.056 118.329 686.939 118.596 686.704C118.862 686.459 118.996 686.171 118.996 685.84C118.996 685.36 118.82 685.04 118.468 684.88C118.126 684.72 117.641 684.576 117.012 684.448C116.585 684.363 116.158 684.24 115.732 684.08C115.305 683.92 114.948 683.696 114.66 683.408C114.372 683.109 114.228 682.72 114.228 682.24C114.228 681.547 114.484 680.981 114.996 680.544C115.518 680.096 116.222 679.872 117.108 679.872C117.95 679.872 118.638 680.085 119.172 680.512C119.716 680.928 120.03 681.525 120.116 682.304H118.788C118.734 681.899 118.558 681.584 118.26 681.36C117.972 681.125 117.582 681.008 117.092 681.008C116.612 681.008 116.238 681.109 115.972 681.312C115.716 681.515 115.588 681.781 115.588 682.112C115.588 682.432 115.753 682.683 116.084 682.864C116.425 683.045 116.884 683.2 117.46 683.328C117.95 683.435 118.414 683.568 118.852 683.728C119.3 683.877 119.662 684.107 119.94 684.416C120.228 684.715 120.372 685.152 120.372 685.728C120.382 686.443 120.11 687.035 119.556 687.504C119.012 687.963 118.27 688.192 117.332 688.192ZM125.332 688.192C124.382 688.192 123.593 687.952 122.964 687.472C122.334 686.992 121.966 686.341 121.86 685.52H123.236C123.321 685.936 123.54 686.299 123.892 686.608C124.254 686.907 124.74 687.056 125.348 687.056C125.913 687.056 126.329 686.939 126.596 686.704C126.862 686.459 126.996 686.171 126.996 685.84C126.996 685.36 126.82 685.04 126.468 684.88C126.126 684.72 125.641 684.576 125.012 684.448C124.585 684.363 124.158 684.24 123.732 684.08C123.305 683.92 122.948 683.696 122.66 683.408C122.372 683.109 122.228 682.72 122.228 682.24C122.228 681.547 122.484 680.981 122.996 680.544C123.518 680.096 124.222 679.872 125.108 679.872C125.95 679.872 126.638 680.085 127.172 680.512C127.716 680.928 128.03 681.525 128.116 682.304H126.788C126.734 681.899 126.558 681.584 126.26 681.36C125.972 681.125 125.582 681.008 125.092 681.008C124.612 681.008 124.238 681.109 123.972 681.312C123.716 681.515 123.588 681.781 123.588 682.112C123.588 682.432 123.753 682.683 124.084 682.864C124.425 683.045 124.884 683.2 125.46 683.328C125.95 683.435 126.414 683.568 126.852 683.728C127.3 683.877 127.662 684.107 127.94 684.416C128.228 684.715 128.372 685.152 128.372 685.728C128.382 686.443 128.11 687.035 127.556 687.504C127.012 687.963 126.27 688.192 125.332 688.192ZM132.932 688.192C132.27 688.192 131.721 688.08 131.284 687.856C130.846 687.632 130.521 687.333 130.308 686.96C130.094 686.587 129.988 686.181 129.988 685.744C129.988 684.933 130.297 684.309 130.916 683.872C131.534 683.435 132.377 683.216 133.444 683.216H135.588V683.12C135.588 682.427 135.406 681.904 135.044 681.552C134.681 681.189 134.196 681.008 133.588 681.008C133.065 681.008 132.612 681.141 132.228 681.408C131.854 681.664 131.62 682.043 131.524 682.544H130.148C130.201 681.968 130.393 681.483 130.724 681.088C131.065 680.693 131.486 680.395 131.988 680.192C132.489 679.979 133.022 679.872 133.588 679.872C134.697 679.872 135.529 680.171 136.084 680.768C136.649 681.355 136.932 682.139 136.932 683.12V688H135.732L135.652 686.576C135.428 687.024 135.097 687.408 134.66 687.728C134.233 688.037 133.657 688.192 132.932 688.192ZM133.14 687.056C133.652 687.056 134.089 686.923 134.452 686.656C134.825 686.389 135.108 686.043 135.3 685.616C135.492 685.189 135.588 684.741 135.588 684.272V684.256H133.556C132.766 684.256 132.206 684.395 131.876 684.672C131.556 684.939 131.396 685.275 131.396 685.68C131.396 686.096 131.545 686.432 131.844 686.688C132.153 686.933 132.585 687.056 133.14 687.056ZM138.948 688V680.064H140.164L140.276 681.584C140.521 681.061 140.894 680.645 141.396 680.336C141.897 680.027 142.516 679.872 143.252 679.872V681.28H142.884C142.414 681.28 141.982 681.365 141.588 681.536C141.193 681.696 140.878 681.973 140.644 682.368C140.409 682.763 140.292 683.307 140.292 684V688H138.948ZM145.624 691.52L147.592 687.232H147.128L143.976 680.064H145.432L148.056 686.24L150.84 680.064H152.232L147.032 691.52H145.624ZM157.885 688V680.064H159.101L159.213 681.584C159.459 681.061 159.832 680.645 160.333 680.336C160.835 680.027 161.453 679.872 162.189 679.872V681.28H161.821C161.352 681.28 160.92 681.365 160.525 681.536C160.131 681.696 159.816 681.973 159.581 682.368C159.347 682.763 159.229 683.307 159.229 684V688H157.885ZM166.969 688.192C166.212 688.192 165.54 688.021 164.953 687.68C164.366 687.328 163.902 686.843 163.561 686.224C163.23 685.605 163.065 684.875 163.065 684.032C163.065 683.2 163.23 682.475 163.561 681.856C163.892 681.227 164.35 680.741 164.937 680.4C165.534 680.048 166.222 679.872 167.001 679.872C167.769 679.872 168.43 680.048 168.985 680.4C169.55 680.741 169.982 681.195 170.281 681.76C170.58 682.325 170.729 682.933 170.729 683.584C170.729 683.701 170.724 683.819 170.713 683.936C170.713 684.053 170.713 684.187 170.713 684.336H164.393C164.425 684.944 164.564 685.451 164.809 685.856C165.065 686.251 165.38 686.549 165.753 686.752C166.137 686.955 166.542 687.056 166.969 687.056C167.524 687.056 167.988 686.928 168.361 686.672C168.734 686.416 169.006 686.069 169.177 685.632H170.505C170.292 686.368 169.881 686.981 169.273 687.472C168.676 687.952 167.908 688.192 166.969 688.192ZM166.969 681.008C166.329 681.008 165.758 681.205 165.257 681.6C164.766 681.984 164.484 682.549 164.409 683.296H169.401C169.369 682.581 169.124 682.021 168.665 681.616C168.206 681.211 167.641 681.008 166.969 681.008ZM175.599 685.504C175.151 685.504 174.741 685.445 174.367 685.328L173.567 686.08C173.685 686.165 173.829 686.24 173.999 686.304C174.181 686.357 174.437 686.411 174.767 686.464C175.098 686.507 175.562 686.555 176.159 686.608C177.226 686.683 177.989 686.928 178.447 687.344C178.906 687.76 179.135 688.304 179.135 688.976C179.135 689.435 179.007 689.872 178.751 690.288C178.506 690.704 178.122 691.045 177.599 691.312C177.087 691.579 176.426 691.712 175.615 691.712C174.901 691.712 174.266 691.616 173.711 691.424C173.157 691.243 172.725 690.96 172.415 690.576C172.106 690.203 171.951 689.728 171.951 689.152C171.951 688.853 172.031 688.528 172.191 688.176C172.351 687.835 172.65 687.509 173.087 687.2C172.853 687.104 172.65 687.003 172.479 686.896C172.319 686.779 172.17 686.651 172.031 686.512V686.144L173.391 684.8C172.762 684.267 172.447 683.563 172.447 682.688C172.447 682.165 172.57 681.691 172.815 681.264C173.061 680.837 173.418 680.501 173.887 680.256C174.357 680 174.927 679.872 175.599 679.872C176.058 679.872 176.474 679.936 176.847 680.064H179.775V681.072L178.287 681.136C178.597 681.584 178.751 682.101 178.751 682.688C178.751 683.211 178.623 683.685 178.367 684.112C178.122 684.539 177.765 684.88 177.295 685.136C176.837 685.381 176.271 685.504 175.599 685.504ZM175.599 684.4C176.165 684.4 176.613 684.256 176.943 683.968C177.285 683.669 177.455 683.243 177.455 682.688C177.455 682.144 177.285 681.728 176.943 681.44C176.613 681.141 176.165 680.992 175.599 680.992C175.023 680.992 174.565 681.141 174.223 681.44C173.893 681.728 173.727 682.144 173.727 682.688C173.727 683.243 173.893 683.669 174.223 683.968C174.565 684.256 175.023 684.4 175.599 684.4ZM173.263 689.024C173.263 689.557 173.487 689.952 173.935 690.208C174.383 690.475 174.943 690.608 175.615 690.608C176.277 690.608 176.805 690.464 177.199 690.176C177.605 689.888 177.807 689.504 177.807 689.024C177.807 688.683 177.669 688.384 177.391 688.128C177.114 687.883 176.602 687.739 175.855 687.696C175.269 687.653 174.762 687.6 174.335 687.536C173.898 687.771 173.61 688.021 173.471 688.288C173.333 688.565 173.263 688.811 173.263 689.024ZM184.547 688.192C183.79 688.192 183.118 688.021 182.531 687.68C181.944 687.328 181.48 686.843 181.139 686.224C180.808 685.605 180.643 684.875 180.643 684.032C180.643 683.2 180.808 682.475 181.139 681.856C181.47 681.227 181.928 680.741 182.515 680.4C183.112 680.048 183.8 679.872 184.579 679.872C185.347 679.872 186.008 680.048 186.563 680.4C187.128 680.741 187.56 681.195 187.859 681.76C188.158 682.325 188.307 682.933 188.307 683.584C188.307 683.701 188.302 683.819 188.291 683.936C188.291 684.053 188.291 684.187 188.291 684.336H181.971C182.003 684.944 182.142 685.451 182.387 685.856C182.643 686.251 182.958 686.549 183.331 686.752C183.715 686.955 184.12 687.056 184.547 687.056C185.102 687.056 185.566 686.928 185.939 686.672C186.312 686.416 186.584 686.069 186.755 685.632H188.083C187.87 686.368 187.459 686.981 186.851 687.472C186.254 687.952 185.486 688.192 184.547 688.192ZM184.547 681.008C183.907 681.008 183.336 681.205 182.835 681.6C182.344 681.984 182.062 682.549 181.987 683.296H186.979C186.947 682.581 186.702 682.021 186.243 681.616C185.784 681.211 185.219 681.008 184.547 681.008ZM190.088 688V676.48H191.432V688H190.088ZM194.451 678.304C194.185 678.304 193.961 678.219 193.779 678.048C193.609 677.867 193.523 677.643 193.523 677.376C193.523 677.12 193.609 676.907 193.779 676.736C193.961 676.565 194.185 676.48 194.451 676.48C194.707 676.48 194.926 676.565 195.107 676.736C195.289 676.907 195.379 677.12 195.379 677.376C195.379 677.643 195.289 677.867 195.107 678.048C194.926 678.219 194.707 678.304 194.451 678.304ZM193.779 688V680.064H195.123V688H193.779ZM200.103 688.192C199.442 688.192 198.893 688.08 198.455 687.856C198.018 687.632 197.693 687.333 197.479 686.96C197.266 686.587 197.159 686.181 197.159 685.744C197.159 684.933 197.469 684.309 198.087 683.872C198.706 683.435 199.549 683.216 200.615 683.216H202.759V683.12C202.759 682.427 202.578 681.904 202.215 681.552C201.853 681.189 201.367 681.008 200.759 681.008C200.237 681.008 199.783 681.141 199.399 681.408C199.026 681.664 198.791 682.043 198.695 682.544H197.319C197.373 681.968 197.565 681.483 197.895 681.088C198.237 680.693 198.658 680.395 199.159 680.192C199.661 679.979 200.194 679.872 200.759 679.872C201.869 679.872 202.701 680.171 203.255 680.768C203.821 681.355 204.103 682.139 204.103 683.12V688H202.903L202.823 686.576C202.599 687.024 202.269 687.408 201.831 687.728C201.405 688.037 200.829 688.192 200.103 688.192ZM200.311 687.056C200.823 687.056 201.261 686.923 201.623 686.656C201.997 686.389 202.279 686.043 202.471 685.616C202.663 685.189 202.759 684.741 202.759 684.272V684.256H200.727C199.938 684.256 199.378 684.395 199.047 684.672C198.727 684.939 198.567 685.275 198.567 685.68C198.567 686.096 198.717 686.432 199.015 686.688C199.325 686.933 199.757 687.056 200.311 687.056ZM206.12 688V676.48H207.464V688H206.12ZM210.483 678.304C210.216 678.304 209.992 678.219 209.811 678.048C209.64 677.867 209.555 677.643 209.555 677.376C209.555 677.12 209.64 676.907 209.811 676.736C209.992 676.565 210.216 676.48 210.483 676.48C210.739 676.48 210.957 676.565 211.139 676.736C211.32 676.907 211.411 677.12 211.411 677.376C211.411 677.643 211.32 677.867 211.139 678.048C210.957 678.219 210.739 678.304 210.483 678.304ZM209.811 688V680.064H211.155V688H209.811ZM216.135 688.192C215.473 688.192 214.924 688.08 214.487 687.856C214.049 687.632 213.724 687.333 213.511 686.96C213.297 686.587 213.191 686.181 213.191 685.744C213.191 684.933 213.5 684.309 214.119 683.872C214.737 683.435 215.58 683.216 216.647 683.216H218.791V683.12C218.791 682.427 218.609 681.904 218.247 681.552C217.884 681.189 217.399 681.008 216.791 681.008C216.268 681.008 215.815 681.141 215.431 681.408C215.057 681.664 214.823 682.043 214.727 682.544H213.351C213.404 681.968 213.596 681.483 213.927 681.088C214.268 680.693 214.689 680.395 215.191 680.192C215.692 679.979 216.225 679.872 216.791 679.872C217.9 679.872 218.732 680.171 219.287 680.768C219.852 681.355 220.135 682.139 220.135 683.12V688H218.935L218.855 686.576C218.631 687.024 218.3 687.408 217.863 687.728C217.436 688.037 216.86 688.192 216.135 688.192ZM216.343 687.056C216.855 687.056 217.292 686.923 217.655 686.656C218.028 686.389 218.311 686.043 218.503 685.616C218.695 685.189 218.791 684.741 218.791 684.272V684.256H216.759C215.969 684.256 215.409 684.395 215.079 684.672C214.759 684.939 214.599 685.275 214.599 685.68C214.599 686.096 214.748 686.432 215.047 686.688C215.356 686.933 215.788 687.056 216.343 687.056ZM222.615 688.08C222.348 688.08 222.124 687.995 221.943 687.824C221.772 687.643 221.687 687.424 221.687 687.168C221.687 686.912 221.772 686.699 221.943 686.528C222.124 686.347 222.348 686.256 222.615 686.256C222.871 686.256 223.084 686.347 223.255 686.528C223.436 686.699 223.527 686.912 223.527 687.168C223.527 687.424 223.436 687.643 223.255 687.824C223.084 687.995 222.871 688.08 222.615 688.08Z" fill="#333333" fill-opacity="0.496405"/>
<path d="M478.59 688.192C476.91 688.192 475.702 687.72 474.966 686.776C474.246 685.816 473.886 684.408 473.886 682.552H476.454C476.454 683.64 476.598 684.512 476.886 685.168C477.19 685.824 477.774 686.152 478.638 686.152C479.294 686.152 479.782 685.96 480.102 685.576C480.422 685.192 480.622 684.688 480.702 684.064C480.798 683.424 480.846 682.576 480.846 681.52C480.846 680.544 480.79 679.768 480.678 679.192C480.582 678.6 480.374 678.152 480.054 677.848C479.75 677.528 479.286 677.368 478.662 677.368C478.166 677.368 477.726 677.52 477.342 677.824C476.974 678.128 476.694 678.512 476.502 678.976H474.318V668.56H482.694V671.128H476.646L476.478 676.504C477.166 675.784 478.102 675.424 479.286 675.424C480.774 675.424 481.83 675.936 482.454 676.96C483.094 677.968 483.414 679.376 483.414 681.184C483.414 683.392 483.054 685.112 482.334 686.344C481.614 687.576 480.366 688.192 478.59 688.192ZM490.952 674.128H493.328V675.448C493.792 674.936 494.296 674.552 494.84 674.296C495.4 674.024 495.984 673.888 496.592 673.888C497.776 673.888 498.528 674.472 498.848 675.64C499.808 674.472 500.96 673.888 502.304 673.888C503.024 673.888 503.608 674.152 504.056 674.68C504.52 675.208 504.752 676.016 504.752 677.104V688H502.4V677.272C502.4 676.632 502.296 676.192 502.088 675.952C501.88 675.696 501.584 675.568 501.2 675.568C500.848 675.568 500.48 675.672 500.096 675.88C499.712 676.072 499.36 676.344 499.04 676.696V677.104V688H496.688V677.272C496.688 676.632 496.584 676.192 496.376 675.952C496.168 675.696 495.872 675.568 495.488 675.568C495.152 675.568 494.792 675.672 494.408 675.88C494.024 676.072 493.664 676.344 493.328 676.696V688H490.952V674.128ZM507.433 669.376H510.001V672.064H507.433V669.376ZM507.433 674.128H510.001V688H507.433V674.128ZM512.749 674.128H515.317V675.496C516.421 674.456 517.549 673.936 518.701 673.936C519.453 673.936 519.989 674.208 520.309 674.752C520.629 675.296 520.789 675.968 520.789 676.768V688H518.221V677.512C518.221 676.984 518.141 676.592 517.981 676.336C517.821 676.08 517.533 675.952 517.117 675.952C516.605 675.952 516.005 676.24 515.317 676.816V688H512.749V674.128Z" fill="#171B1B"/>
<path fill-rule="evenodd" clip-rule="evenodd" d="M449 665C442.373 665 437 670.373 437 677C437 683.627 442.373 689 449 689C455.627 689 461 683.627 461 677C461 670.373 455.627 665 449 665ZM449 667C454.514 667 459 671.486 459 677C459 682.514 454.514 687 449 687C443.486 687 439 682.514 439 677C439 671.486 443.486 667 449 667ZM450 671V677H455V679H448V671H450Z" fill="#171B1B"/>
<path d="M49.008 531.04H51.984C53.1573 531.04 54.0267 531.307 54.592 531.84C55.1573 532.363 55.44 533.179 55.44 534.288C55.44 535.941 54.8213 536.853 53.584 537.024C54.352 537.205 54.912 537.568 55.264 538.112C55.616 538.645 55.792 539.376 55.792 540.304C55.792 541.467 55.5147 542.373 54.96 543.024C54.416 543.675 53.584 544 52.464 544H49.008V531.04ZM51.888 536.448C52.6347 536.448 53.152 536.288 53.44 535.968C53.728 535.637 53.872 535.077 53.872 534.288C53.872 533.712 53.7813 533.291 53.6 533.024C53.4293 532.747 53.168 532.571 52.816 532.496C52.464 532.421 51.9413 532.384 51.248 532.384H50.816V536.448H51.888ZM52.032 542.704C52.5653 542.704 52.976 542.624 53.264 542.464C53.5627 542.293 53.7707 542.037 53.888 541.696C54.0053 541.355 54.064 540.891 54.064 540.304C54.064 539.472 53.8933 538.853 53.552 538.448C53.2107 538.032 52.656 537.824 51.888 537.824H50.816V542.704H52.032ZM62.4466 531.04H64.1906L66.9586 544H65.2466L64.6546 540.736H62.0146L61.3906 544H59.6946L62.4466 531.04ZM64.4146 539.44L63.3266 533.6L62.2546 539.44H64.4146ZM71.2736 531.04H73.0816V537.152L76.0576 531.04H77.7376L75.1776 536.752L78.1536 544H76.3936L73.9136 537.92L73.0816 539.424V544H71.2736V531.04ZM82.1955 531.04H87.2195V532.384H84.0035V536.672H86.6115V537.952H84.0035V542.704H87.2515V544H82.1955V531.04ZM91.7111 531.04H94.3191C95.6311 531.04 96.5911 531.312 97.1991 531.856C97.8178 532.389 98.1271 533.264 98.1271 534.48C98.1271 536.144 97.5938 537.152 96.5271 537.504L98.3671 544H96.6231L94.9271 537.92H93.5191V544H91.7111V531.04ZM94.2071 536.624C94.9858 536.624 95.5405 536.469 95.8711 536.16C96.2125 535.851 96.3831 535.291 96.3831 534.48C96.3831 533.947 96.3245 533.531 96.2071 533.232C96.0898 532.923 95.8818 532.699 95.5831 532.56C95.2845 532.411 94.8631 532.336 94.3191 532.336H93.5191V536.624H94.2071ZM104.992 539.424L102.192 531.04H103.872L105.856 537.296L107.808 531.04H109.504L106.72 539.424V544H104.992V539.424Z" fill="#171B1B"/>
</svg>
