<svg width="213" height="271" viewBox="0 0 213 271" fill="none" xmlns="http://www.w3.org/2000/svg">
<path d="M4.144 14.144C3.07733 14.144 2.272 13.7973 1.728 13.104C1.19467 12.4107 0.928 11.4827 0.928 10.32V4.736C0.928 3.552 1.18933 2.624 1.712 1.952C2.24533 1.26933 3.056 0.927999 4.144 0.927999C5.22133 0.927999 6.02133 1.26933 6.544 1.952C7.07733 2.624 7.344 3.552 7.344 4.736V10.32C7.344 11.4933 7.07733 12.4267 6.544 13.12C6.01067 13.8027 5.21067 14.144 4.144 14.144ZM4.144 12.736C5.12533 12.736 5.616 11.936 5.616 10.336V4.72C5.616 3.984 5.50933 3.40267 5.296 2.976C5.09333 2.53867 4.70933 2.32 4.144 2.32C3.57867 2.32 3.18933 2.53867 2.976 2.976C2.76267 3.40267 2.656 3.984 2.656 4.72V10.336C2.656 11.936 3.152 12.736 4.144 12.736ZM15.0736 14.144C14.039 14.144 13.2496 13.856 12.7056 13.28C12.1723 12.6933 11.9056 11.872 11.9056 10.816V10.384H13.6016V10.672C13.623 11.3333 13.735 11.84 13.9376 12.192C14.151 12.544 14.5296 12.72 15.0736 12.72C15.6496 12.72 16.039 12.5227 16.2416 12.128C16.455 11.7227 16.5616 11.1253 16.5616 10.336C16.5616 9.61067 16.4283 9.04533 16.1616 8.64C15.895 8.224 15.463 7.99467 14.8656 7.952C14.823 7.94133 14.743 7.936 14.6256 7.936V6.224H14.8496C15.4576 6.20267 15.895 6.04267 16.1616 5.744C16.4283 5.44533 16.5616 4.94933 16.5616 4.256C16.5616 3.616 16.455 3.136 16.2416 2.816C16.0283 2.48533 15.6443 2.32 15.0896 2.32C14.535 2.32 14.151 2.496 13.9376 2.848C13.735 3.2 13.623 3.71733 13.6016 4.4V4.672H11.9056V4.24C11.9056 3.184 12.1723 2.368 12.7056 1.792C13.2496 1.216 14.0443 0.927999 15.0896 0.927999C16.135 0.927999 16.9243 1.22133 17.4576 1.808C18.0016 2.384 18.2736 3.2 18.2736 4.256C18.2736 5.01333 18.1083 5.632 17.7776 6.112C17.447 6.592 16.9936 6.91733 16.4176 7.088C17.0043 7.26933 17.4576 7.63733 17.7776 8.192C18.1083 8.74667 18.2736 9.46133 18.2736 10.336C18.2736 11.5413 18.0123 12.48 17.4896 13.152C16.9776 13.8133 16.1723 14.144 15.0736 14.144Z" fill="#171B1B"/>
<path d="M17.3633 150.754C18.0794 150.754 18.776 150.676 19.4531 150.52C20.1432 150.363 20.7422 150.038 21.25 149.543C21.7708 149.048 22.194 148.339 22.5195 147.414C22.8451 146.477 23.0078 145.22 23.0078 143.645C23.0078 142.095 22.8516 140.852 22.5391 139.914C22.2266 138.964 21.8164 138.234 21.3086 137.727C20.8138 137.219 20.2148 136.887 19.5117 136.73C18.8216 136.561 18.1055 136.477 17.3633 136.477H15.5273V150.754H17.3633ZM0.800781 158V150.754C1.94661 150.754 2.76693 150.604 3.26172 150.305C3.75651 149.992 4.00391 149.413 4.00391 148.566V138.684C4.00391 137.824 3.75651 137.245 3.26172 136.945C2.76693 136.633 1.94661 136.477 0.800781 136.477V129.23H21.5234C23.3854 129.23 25.1888 129.478 26.9336 129.973C28.6784 130.467 30.2279 131.275 31.582 132.395C32.9492 133.514 34.043 134.999 34.8633 136.848C35.6966 138.684 36.1133 140.949 36.1133 143.645C36.1133 146.34 35.7031 148.605 34.8828 150.441C34.0755 152.277 32.9688 153.755 31.5625 154.875C30.1693 155.995 28.5352 156.802 26.6602 157.297C24.7852 157.792 22.793 158.039 20.6836 158.039L0.800781 158ZM49.1016 148.449C49.1536 150.389 49.5182 151.73 50.1953 152.473C50.8854 153.202 51.8685 153.566 53.1445 153.566C53.5742 153.566 53.9909 153.508 54.3945 153.391C54.8112 153.26 55.1953 153.059 55.5469 152.785C55.8984 152.499 56.1979 152.128 56.4453 151.672C56.7057 151.203 56.875 150.617 56.9531 149.914H64.0625C63.8021 151.594 63.3203 153 62.6172 154.133C61.9271 155.266 61.0352 156.184 59.9414 156.887C58.8477 157.577 57.5716 158.072 56.1133 158.371C54.668 158.684 53.0534 158.84 51.2695 158.84C49.4336 158.84 47.7083 158.605 46.0938 158.137C44.4792 157.668 43.0599 156.958 41.8359 156.008C40.625 155.044 39.6745 153.84 38.9844 152.395C38.2943 150.936 37.9492 149.204 37.9492 147.199C37.9492 145.285 38.2747 143.605 38.9258 142.16C39.5768 140.715 40.4883 139.51 41.6602 138.547C42.8451 137.57 44.2383 136.835 45.8398 136.34C47.4544 135.845 49.2253 135.598 51.1523 135.598C53.5221 135.598 55.5599 135.91 57.2656 136.535C58.9714 137.16 60.3646 138.033 61.4453 139.152C62.526 140.272 63.3203 141.62 63.8281 143.195C64.3359 144.771 64.5768 146.522 64.5508 148.449H49.1016ZM51.9922 140.871C51.0807 140.871 50.4036 141.197 49.9609 141.848C49.5312 142.486 49.2448 143.547 49.1016 145.031H54.8242C54.7461 143.755 54.4727 142.746 54.0039 142.004C53.5352 141.249 52.8646 140.871 51.9922 140.871ZM80.625 129.23V148.645C80.625 149.517 80.8398 150.09 81.2695 150.363C81.6992 150.624 82.2461 150.754 82.9102 150.754H83.4375V158H66.9922V150.754H67.7539C68.444 150.754 68.9518 150.539 69.2773 150.109C69.6159 149.667 69.7852 149.191 69.7852 148.684V138.684C69.7852 137.928 69.5443 137.375 69.0625 137.023C68.5938 136.659 68.0469 136.477 67.4219 136.477H66.9922V129.23H80.625ZM99.0625 136.477V148.645C99.0625 149.517 99.2773 150.09 99.707 150.363C100.137 150.624 100.684 150.754 101.348 150.754H101.875V158H85.4297V150.754H86.1914C86.8815 150.754 87.3893 150.539 87.7148 150.109C88.0534 149.667 88.2227 149.191 88.2227 148.684V145.93C88.2227 145.174 87.9818 144.621 87.5 144.27C87.0312 143.905 86.4844 143.723 85.8594 143.723H85.4297V136.477H99.0625ZM87.9102 131.672C87.9102 130.552 88.3333 129.595 89.1797 128.801C90.0391 128.007 91.2565 127.609 92.832 127.609C94.4336 127.609 95.6641 128.007 96.5234 128.801C97.3958 129.595 97.832 130.552 97.832 131.672C97.832 132.818 97.3958 133.788 96.5234 134.582C95.6641 135.363 94.4336 135.754 92.832 135.754C91.2565 135.754 90.0391 135.363 89.1797 134.582C88.3333 133.788 87.9102 132.818 87.9102 131.672ZM105.234 145.402C104.961 144.816 104.642 144.393 104.277 144.133C103.926 143.859 103.255 143.723 102.266 143.723V136.477H117.949V143.723C117.116 143.723 116.576 143.846 116.328 144.094C116.094 144.328 116.074 144.699 116.27 145.207L118.379 151.203H118.672L120.898 145.207C121.094 144.725 121.068 144.361 120.82 144.113C120.586 143.853 120.052 143.723 119.219 143.723V136.477H130.098V143.723C129.147 143.723 128.477 143.853 128.086 144.113C127.695 144.361 127.37 144.79 127.109 145.402L121.875 158H110.469L105.234 145.402ZM142.07 148.449C142.122 150.389 142.487 151.73 143.164 152.473C143.854 153.202 144.837 153.566 146.113 153.566C146.543 153.566 146.96 153.508 147.363 153.391C147.78 153.26 148.164 153.059 148.516 152.785C148.867 152.499 149.167 152.128 149.414 151.672C149.674 151.203 149.844 150.617 149.922 149.914H157.031C156.771 151.594 156.289 153 155.586 154.133C154.896 155.266 154.004 156.184 152.91 156.887C151.816 157.577 150.54 158.072 149.082 158.371C147.637 158.684 146.022 158.84 144.238 158.84C142.402 158.84 140.677 158.605 139.062 158.137C137.448 157.668 136.029 156.958 134.805 156.008C133.594 155.044 132.643 153.84 131.953 152.395C131.263 150.936 130.918 149.204 130.918 147.199C130.918 145.285 131.243 143.605 131.895 142.16C132.546 140.715 133.457 139.51 134.629 138.547C135.814 137.57 137.207 136.835 138.809 136.34C140.423 135.845 142.194 135.598 144.121 135.598C146.491 135.598 148.529 135.91 150.234 136.535C151.94 137.16 153.333 138.033 154.414 139.152C155.495 140.272 156.289 141.62 156.797 143.195C157.305 144.771 157.546 146.522 157.52 148.449H142.07ZM144.961 140.871C144.049 140.871 143.372 141.197 142.93 141.848C142.5 142.486 142.214 143.547 142.07 145.031H147.793C147.715 143.755 147.441 142.746 146.973 142.004C146.504 141.249 145.833 140.871 144.961 140.871ZM171.562 136.477L171.23 141.848H171.562C172.018 139.79 172.773 138.234 173.828 137.18C174.896 136.125 176.276 135.598 177.969 135.598C178.971 135.598 179.831 135.76 180.547 136.086C181.276 136.398 181.862 136.822 182.305 137.355C182.747 137.889 183.066 138.508 183.262 139.211C183.457 139.901 183.555 140.617 183.555 141.359C183.555 141.971 183.464 142.577 183.281 143.176C183.099 143.775 182.806 144.315 182.402 144.797C181.999 145.279 181.478 145.669 180.84 145.969C180.202 146.255 179.414 146.398 178.477 146.398C177.174 146.398 176.146 146.066 175.391 145.402C174.648 144.738 174.277 143.938 174.277 143C174.277 142.544 174.329 142.16 174.434 141.848C174.538 141.522 174.642 141.262 174.746 141.066C174.863 140.858 174.941 140.708 174.98 140.617C175.02 140.526 174.974 140.48 174.844 140.48C174.57 140.48 174.271 140.793 173.945 141.418C173.633 142.043 173.477 143.026 173.477 144.367V148.84C173.477 149.53 173.594 150.025 173.828 150.324C174.076 150.611 174.544 150.754 175.234 150.754H176.406V158H159.961V150.754H161.113C161.647 150.754 162.051 150.585 162.324 150.246C162.611 149.895 162.754 149.478 162.754 148.996V145.285C162.754 144.673 162.572 144.263 162.207 144.055C161.855 143.833 161.452 143.723 160.996 143.723H159.961V136.477H171.562ZM202.578 159.602C202.135 160.565 201.68 161.594 201.211 162.688C200.742 163.781 200.124 164.79 199.355 165.715C198.6 166.652 197.624 167.427 196.426 168.039C195.228 168.651 193.665 168.957 191.738 168.957C190.384 168.957 189.199 168.781 188.184 168.43C187.168 168.091 186.328 167.629 185.664 167.043C185 166.457 184.505 165.78 184.18 165.012C183.867 164.257 183.711 163.482 183.711 162.688C183.711 161.112 184.193 159.868 185.156 158.957C186.133 158.059 187.344 157.609 188.789 157.609C189.635 157.609 190.345 157.733 190.918 157.98C191.491 158.228 191.96 158.547 192.324 158.938C192.689 159.328 192.943 159.758 193.086 160.227C193.229 160.695 193.301 161.138 193.301 161.555C193.301 162.492 193.066 163.208 192.598 163.703C192.142 164.198 191.589 164.51 190.938 164.641C190.99 164.693 191.074 164.732 191.191 164.758C191.348 164.836 191.667 164.875 192.148 164.875C192.604 164.875 193.008 164.758 193.359 164.523C193.724 164.302 194.049 164.022 194.336 163.684C194.635 163.358 194.889 163 195.098 162.609C195.319 162.232 195.495 161.88 195.625 161.555L195.664 161.438L187.344 145.402C187.214 145.103 187.07 144.849 186.914 144.641C186.771 144.432 186.589 144.263 186.367 144.133C186.159 143.99 185.892 143.885 185.566 143.82C185.254 143.755 184.857 143.723 184.375 143.723V136.477H200.059V143.723C199.238 143.723 198.698 143.846 198.438 144.094C198.19 144.328 198.171 144.699 198.379 145.207L200.742 150.246L203.027 145.207C203.236 144.751 203.21 144.393 202.949 144.133C202.702 143.859 202.168 143.723 201.348 143.723V136.477H212.227V143.723C211.263 143.723 210.586 143.859 210.195 144.133C209.818 144.393 209.492 144.816 209.219 145.402L202.578 159.602Z" fill="#171B1B"/>
<path d="M1.184 206V194.8H2.528L8.496 203.776V194.8H9.84V206H8.496L2.528 197.024V206H1.184ZM15.7513 206.192C15.0046 206.192 14.3326 206.021 13.7353 205.68C13.1379 205.339 12.6633 204.859 12.3113 204.24C11.9699 203.611 11.7993 202.875 11.7993 202.032C11.7993 201.189 11.9753 200.459 12.3273 199.84C12.6793 199.211 13.1539 198.725 13.7513 198.384C14.3593 198.043 15.0366 197.872 15.7833 197.872C16.5299 197.872 17.2019 198.043 17.7993 198.384C18.3966 198.725 18.8659 199.211 19.2073 199.84C19.5593 200.459 19.7353 201.189 19.7353 202.032C19.7353 202.875 19.5593 203.611 19.2073 204.24C18.8553 204.859 18.3753 205.339 17.7673 205.68C17.1699 206.021 16.4979 206.192 15.7513 206.192ZM15.7513 205.04C16.2099 205.04 16.6366 204.928 17.0313 204.704C17.4259 204.48 17.7459 204.144 17.9913 203.696C18.2366 203.248 18.3593 202.693 18.3593 202.032C18.3593 201.371 18.2366 200.816 17.9913 200.368C17.7566 199.92 17.4419 199.584 17.0473 199.36C16.6526 199.136 16.2313 199.024 15.7833 199.024C15.3246 199.024 14.8979 199.136 14.5033 199.36C14.1086 199.584 13.7886 199.92 13.5433 200.368C13.2979 200.816 13.1753 201.371 13.1753 202.032C13.1753 202.693 13.2979 203.248 13.5433 203.696C13.7886 204.144 14.1033 204.48 14.4873 204.704C14.8819 204.928 15.3033 205.04 15.7513 205.04ZM24.4275 206C23.7022 206 23.1315 205.824 22.7155 205.472C22.2995 205.12 22.0915 204.485 22.0915 203.568V199.2H20.7155V198.064H22.0915L22.2675 196.16H23.4355V198.064H25.7715V199.2H23.4355V203.568C23.4355 204.069 23.5368 204.411 23.7395 204.592C23.9422 204.763 24.2995 204.848 24.8115 204.848H25.6435V206H24.4275ZM27.479 206V194.48H28.823V199.424C29.0897 198.933 29.4683 198.555 29.959 198.288C30.4497 198.011 30.983 197.872 31.559 197.872C32.4763 197.872 33.2123 198.16 33.767 198.736C34.3217 199.301 34.599 200.176 34.599 201.36V206H33.271V201.504C33.271 199.851 32.6043 199.024 31.271 199.024C30.5777 199.024 29.9963 199.275 29.527 199.776C29.0577 200.267 28.823 200.971 28.823 201.888V206H27.479ZM37.4513 196.304C37.1846 196.304 36.9606 196.219 36.7793 196.048C36.6086 195.867 36.5233 195.643 36.5233 195.376C36.5233 195.12 36.6086 194.907 36.7793 194.736C36.9606 194.565 37.1846 194.48 37.4513 194.48C37.7073 194.48 37.9259 194.565 38.1073 194.736C38.2886 194.907 38.3793 195.12 38.3793 195.376C38.3793 195.643 38.2886 195.867 38.1073 196.048C37.9259 196.219 37.7073 196.304 37.4513 196.304ZM36.7793 206V198.064H38.1233V206H36.7793ZM40.4634 206V198.064H41.6794L41.7594 199.488C42.0154 198.987 42.3834 198.592 42.8634 198.304C43.3434 198.016 43.8874 197.872 44.4954 197.872C45.434 197.872 46.1807 198.16 46.7354 198.736C47.3007 199.301 47.5834 200.176 47.5834 201.36V206H46.2394V201.504C46.2394 199.851 45.5567 199.024 44.1914 199.024C43.5087 199.024 42.938 199.275 42.4794 199.776C42.0314 200.267 41.8074 200.971 41.8074 201.888V206H40.4634ZM52.7556 203.504C52.3076 203.504 51.897 203.445 51.5236 203.328L50.7236 204.08C50.841 204.165 50.985 204.24 51.1556 204.304C51.337 204.357 51.593 204.411 51.9236 204.464C52.2543 204.507 52.7183 204.555 53.3156 204.608C54.3823 204.683 55.145 204.928 55.6036 205.344C56.0623 205.76 56.2916 206.304 56.2916 206.976C56.2916 207.435 56.1636 207.872 55.9076 208.288C55.6623 208.704 55.2783 209.045 54.7556 209.312C54.2436 209.579 53.5823 209.712 52.7716 209.712C52.057 209.712 51.4223 209.616 50.8676 209.424C50.313 209.243 49.881 208.96 49.5716 208.576C49.2623 208.203 49.1076 207.728 49.1076 207.152C49.1076 206.853 49.1876 206.528 49.3476 206.176C49.5076 205.835 49.8063 205.509 50.2436 205.2C50.009 205.104 49.8063 205.003 49.6356 204.896C49.4756 204.779 49.3263 204.651 49.1876 204.512V204.144L50.5476 202.8C49.9183 202.267 49.6036 201.563 49.6036 200.688C49.6036 200.165 49.7263 199.691 49.9716 199.264C50.217 198.837 50.5743 198.501 51.0436 198.256C51.513 198 52.0836 197.872 52.7556 197.872C53.2143 197.872 53.6303 197.936 54.0036 198.064H56.9316V199.072L55.4436 199.136C55.753 199.584 55.9076 200.101 55.9076 200.688C55.9076 201.211 55.7796 201.685 55.5236 202.112C55.2783 202.539 54.921 202.88 54.4516 203.136C53.993 203.381 53.4276 203.504 52.7556 203.504ZM52.7556 202.4C53.321 202.4 53.769 202.256 54.0996 201.968C54.441 201.669 54.6116 201.243 54.6116 200.688C54.6116 200.144 54.441 199.728 54.0996 199.44C53.769 199.141 53.321 198.992 52.7556 198.992C52.1796 198.992 51.721 199.141 51.3796 199.44C51.049 199.728 50.8836 200.144 50.8836 200.688C50.8836 201.243 51.049 201.669 51.3796 201.968C51.721 202.256 52.1796 202.4 52.7556 202.4ZM50.4196 207.024C50.4196 207.557 50.6436 207.952 51.0916 208.208C51.5396 208.475 52.0996 208.608 52.7716 208.608C53.433 208.608 53.961 208.464 54.3556 208.176C54.761 207.888 54.9636 207.504 54.9636 207.024C54.9636 206.683 54.825 206.384 54.5476 206.128C54.2703 205.883 53.7583 205.739 53.0116 205.696C52.425 205.653 51.9183 205.6 51.4916 205.536C51.0543 205.771 50.7663 206.021 50.6276 206.288C50.489 206.565 50.4196 206.811 50.4196 207.024ZM65.8181 206C65.0928 206 64.5221 205.824 64.1061 205.472C63.6901 205.12 63.4821 204.485 63.4821 203.568V199.2H62.1061V198.064H63.4821L63.6581 196.16H64.8261V198.064H67.1621V199.2H64.8261V203.568C64.8261 204.069 64.9275 204.411 65.1301 204.592C65.3328 204.763 65.6901 204.848 66.2021 204.848H67.0341V206H65.8181ZM68.8696 206V194.48H70.2136V199.424C70.4803 198.933 70.859 198.555 71.3496 198.288C71.8403 198.011 72.3736 197.872 72.9496 197.872C73.867 197.872 74.603 198.16 75.1576 198.736C75.7123 199.301 75.9896 200.176 75.9896 201.36V206H74.6616V201.504C74.6616 199.851 73.995 199.024 72.6616 199.024C71.9683 199.024 71.387 199.275 70.9176 199.776C70.4483 200.267 70.2136 200.971 70.2136 201.888V206H68.8696ZM81.5939 206.192C80.8365 206.192 80.1645 206.021 79.5779 205.68C78.9912 205.328 78.5272 204.843 78.1859 204.224C77.8552 203.605 77.6899 202.875 77.6899 202.032C77.6899 201.2 77.8552 200.475 78.1859 199.856C78.5165 199.227 78.9752 198.741 79.5619 198.4C80.1592 198.048 80.8472 197.872 81.6259 197.872C82.3939 197.872 83.0552 198.048 83.6099 198.4C84.1752 198.741 84.6072 199.195 84.9059 199.76C85.2045 200.325 85.3539 200.933 85.3539 201.584C85.3539 201.701 85.3485 201.819 85.3379 201.936C85.3379 202.053 85.3379 202.187 85.3379 202.336H79.0179C79.0499 202.944 79.1885 203.451 79.4339 203.856C79.6899 204.251 80.0045 204.549 80.3779 204.752C80.7619 204.955 81.1672 205.056 81.5939 205.056C82.1485 205.056 82.6125 204.928 82.9859 204.672C83.3592 204.416 83.6312 204.069 83.8019 203.632H85.1299C84.9165 204.368 84.5059 204.981 83.8979 205.472C83.3005 205.952 82.5325 206.192 81.5939 206.192ZM81.5939 199.008C80.9539 199.008 80.3832 199.205 79.8819 199.6C79.3912 199.984 79.1085 200.549 79.0339 201.296H84.0259C83.9939 200.581 83.7485 200.021 83.2899 199.616C82.8312 199.211 82.2659 199.008 81.5939 199.008ZM95.0176 206.192C94.2603 206.192 93.5776 206.021 92.9696 205.68C92.3723 205.328 91.8976 204.843 91.5456 204.224C91.2043 203.595 91.0336 202.864 91.0336 202.032C91.0336 201.2 91.2043 200.475 91.5456 199.856C91.8976 199.227 92.3723 198.741 92.9696 198.4C93.5776 198.048 94.2603 197.872 95.0176 197.872C95.9563 197.872 96.7456 198.117 97.3856 198.608C98.0363 199.099 98.447 199.755 98.6176 200.576H97.2416C97.135 200.085 96.8736 199.707 96.4576 199.44C96.0416 199.163 95.5563 199.024 95.0016 199.024C94.5536 199.024 94.1323 199.136 93.7376 199.36C93.343 199.584 93.023 199.92 92.7776 200.368C92.5323 200.816 92.4096 201.371 92.4096 202.032C92.4096 202.693 92.5323 203.248 92.7776 203.696C93.023 204.144 93.343 204.485 93.7376 204.72C94.1323 204.944 94.5536 205.056 95.0016 205.056C95.5563 205.056 96.0416 204.923 96.4576 204.656C96.8736 204.379 97.135 203.989 97.2416 203.488H98.6176C98.4576 204.288 98.0523 204.939 97.4016 205.44C96.751 205.941 95.9563 206.192 95.0176 206.192ZM104.111 206.192C103.364 206.192 102.692 206.021 102.095 205.68C101.497 205.339 101.023 204.859 100.671 204.24C100.329 203.611 100.159 202.875 100.159 202.032C100.159 201.189 100.335 200.459 100.687 199.84C101.039 199.211 101.513 198.725 102.111 198.384C102.719 198.043 103.396 197.872 104.143 197.872C104.889 197.872 105.561 198.043 106.159 198.384C106.756 198.725 107.225 199.211 107.567 199.84C107.919 200.459 108.095 201.189 108.095 202.032C108.095 202.875 107.919 203.611 107.567 204.24C107.215 204.859 106.735 205.339 106.127 205.68C105.529 206.021 104.857 206.192 104.111 206.192ZM104.111 205.04C104.569 205.04 104.996 204.928 105.391 204.704C105.785 204.48 106.105 204.144 106.351 203.696C106.596 203.248 106.719 202.693 106.719 202.032C106.719 201.371 106.596 200.816 106.351 200.368C106.116 199.92 105.801 199.584 105.407 199.36C105.012 199.136 104.591 199.024 104.143 199.024C103.684 199.024 103.257 199.136 102.863 199.36C102.468 199.584 102.148 199.92 101.903 200.368C101.657 200.816 101.535 201.371 101.535 202.032C101.535 202.693 101.657 203.248 101.903 203.696C102.148 204.144 102.463 204.48 102.847 204.704C103.241 204.928 103.663 205.04 104.111 205.04ZM109.963 209.52V198.064H111.179L111.307 199.376C111.563 198.992 111.926 198.645 112.395 198.336C112.875 198.027 113.483 197.872 114.219 197.872C115.009 197.872 115.697 198.053 116.283 198.416C116.87 198.779 117.323 199.275 117.643 199.904C117.974 200.533 118.139 201.248 118.139 202.048C118.139 202.848 117.974 203.563 117.643 204.192C117.323 204.811 116.865 205.301 116.267 205.664C115.681 206.016 114.993 206.192 114.203 206.192C113.553 206.192 112.971 206.059 112.459 205.792C111.958 205.525 111.574 205.152 111.307 204.672V209.52H109.963ZM114.059 205.024C114.593 205.024 115.062 204.901 115.467 204.656C115.873 204.4 116.193 204.048 116.427 203.6C116.662 203.152 116.779 202.629 116.779 202.032C116.779 201.435 116.662 200.912 116.427 200.464C116.193 200.016 115.873 199.669 115.467 199.424C115.062 199.168 114.593 199.04 114.059 199.04C113.526 199.04 113.057 199.168 112.651 199.424C112.246 199.669 111.926 200.016 111.691 200.464C111.457 200.912 111.339 201.435 111.339 202.032C111.339 202.629 111.457 203.152 111.691 203.6C111.926 204.048 112.246 204.4 112.651 204.656C113.057 204.901 113.526 205.024 114.059 205.024ZM120.234 209.52L122.202 205.232H121.738L118.586 198.064H120.042L122.666 204.24L125.45 198.064H126.842L121.642 209.52H120.234ZM135.535 206.192C134.585 206.192 133.796 205.952 133.167 205.472C132.537 204.992 132.169 204.341 132.063 203.52H133.439C133.524 203.936 133.743 204.299 134.095 204.608C134.457 204.907 134.943 205.056 135.551 205.056C136.116 205.056 136.532 204.939 136.799 204.704C137.065 204.459 137.199 204.171 137.199 203.84C137.199 203.36 137.023 203.04 136.671 202.88C136.329 202.72 135.844 202.576 135.215 202.448C134.788 202.363 134.361 202.24 133.935 202.08C133.508 201.92 133.151 201.696 132.863 201.408C132.575 201.109 132.431 200.72 132.431 200.24C132.431 199.547 132.687 198.981 133.199 198.544C133.721 198.096 134.425 197.872 135.311 197.872C136.153 197.872 136.841 198.085 137.375 198.512C137.919 198.928 138.233 199.525 138.319 200.304H136.991C136.937 199.899 136.761 199.584 136.463 199.36C136.175 199.125 135.785 199.008 135.295 199.008C134.815 199.008 134.441 199.109 134.175 199.312C133.919 199.515 133.791 199.781 133.791 200.112C133.791 200.432 133.956 200.683 134.287 200.864C134.628 201.045 135.087 201.2 135.663 201.328C136.153 201.435 136.617 201.568 137.055 201.728C137.503 201.877 137.865 202.107 138.143 202.416C138.431 202.715 138.575 203.152 138.575 203.728C138.585 204.443 138.313 205.035 137.759 205.504C137.215 205.963 136.473 206.192 135.535 206.192ZM143.135 206.192C142.473 206.192 141.924 206.08 141.487 205.856C141.049 205.632 140.724 205.333 140.511 204.96C140.297 204.587 140.191 204.181 140.191 203.744C140.191 202.933 140.5 202.309 141.119 201.872C141.737 201.435 142.58 201.216 143.647 201.216H145.791V201.12C145.791 200.427 145.609 199.904 145.247 199.552C144.884 199.189 144.399 199.008 143.791 199.008C143.268 199.008 142.815 199.141 142.431 199.408C142.057 199.664 141.823 200.043 141.727 200.544H140.351C140.404 199.968 140.596 199.483 140.927 199.088C141.268 198.693 141.689 198.395 142.191 198.192C142.692 197.979 143.225 197.872 143.791 197.872C144.9 197.872 145.732 198.171 146.287 198.768C146.852 199.355 147.135 200.139 147.135 201.12V206H145.935L145.855 204.576C145.631 205.024 145.3 205.408 144.863 205.728C144.436 206.037 143.86 206.192 143.135 206.192ZM143.343 205.056C143.855 205.056 144.292 204.923 144.655 204.656C145.028 204.389 145.311 204.043 145.503 203.616C145.695 203.189 145.791 202.741 145.791 202.272V202.256H143.759C142.969 202.256 142.409 202.395 142.079 202.672C141.759 202.939 141.599 203.275 141.599 203.68C141.599 204.096 141.748 204.432 142.047 204.688C142.356 204.933 142.788 205.056 143.343 205.056ZM149.967 196.304C149.7 196.304 149.476 196.219 149.295 196.048C149.124 195.867 149.039 195.643 149.039 195.376C149.039 195.12 149.124 194.907 149.295 194.736C149.476 194.565 149.7 194.48 149.967 194.48C150.223 194.48 150.442 194.565 150.623 194.736C150.804 194.907 150.895 195.12 150.895 195.376C150.895 195.643 150.804 195.867 150.623 196.048C150.442 196.219 150.223 196.304 149.967 196.304ZM149.295 206V198.064H150.639V206H149.295ZM156.579 206.192C155.79 206.192 155.096 206.011 154.499 205.648C153.912 205.285 153.454 204.789 153.123 204.16C152.803 203.531 152.643 202.816 152.643 202.016C152.643 201.216 152.808 200.507 153.139 199.888C153.47 199.259 153.928 198.768 154.515 198.416C155.102 198.053 155.795 197.872 156.595 197.872C157.246 197.872 157.822 198.005 158.323 198.272C158.824 198.539 159.214 198.912 159.491 199.392V194.48H160.835V206H159.619L159.491 204.688C159.235 205.072 158.867 205.419 158.387 205.728C157.907 206.037 157.304 206.192 156.579 206.192ZM156.723 205.024C157.256 205.024 157.726 204.901 158.131 204.656C158.547 204.4 158.867 204.048 159.091 203.6C159.326 203.152 159.443 202.629 159.443 202.032C159.443 201.435 159.326 200.912 159.091 200.464C158.867 200.016 158.547 199.669 158.131 199.424C157.726 199.168 157.256 199.04 156.723 199.04C156.2 199.04 155.731 199.168 155.315 199.424C154.91 199.669 154.59 200.016 154.355 200.464C154.131 200.912 154.019 201.435 154.019 202.032C154.019 202.629 154.131 203.152 154.355 203.6C154.59 204.048 154.91 204.4 155.315 204.656C155.731 204.901 156.2 205.024 156.723 205.024ZM4.752 238.192C3.99467 238.192 3.312 238.021 2.704 237.68C2.10667 237.328 1.632 236.843 1.28 236.224C0.938667 235.595 0.768 234.864 0.768 234.032C0.768 233.2 0.938667 232.475 1.28 231.856C1.632 231.227 2.10667 230.741 2.704 230.4C3.312 230.048 3.99467 229.872 4.752 229.872C5.69067 229.872 6.48 230.117 7.12 230.608C7.77067 231.099 8.18133 231.755 8.352 232.576H6.976C6.86933 232.085 6.608 231.707 6.192 231.44C5.776 231.163 5.29067 231.024 4.736 231.024C4.288 231.024 3.86667 231.136 3.472 231.36C3.07733 231.584 2.75733 231.92 2.512 232.368C2.26667 232.816 2.144 233.371 2.144 234.032C2.144 234.693 2.26667 235.248 2.512 235.696C2.75733 236.144 3.07733 236.485 3.472 236.72C3.86667 236.944 4.288 237.056 4.736 237.056C5.29067 237.056 5.776 236.923 6.192 236.656C6.608 236.379 6.86933 235.989 6.976 235.488H8.352C8.192 236.288 7.78667 236.939 7.136 237.44C6.48533 237.941 5.69067 238.192 4.752 238.192ZM13.845 238.192C13.0983 238.192 12.4263 238.021 11.829 237.68C11.2317 237.339 10.757 236.859 10.405 236.24C10.0637 235.611 9.893 234.875 9.893 234.032C9.893 233.189 10.069 232.459 10.421 231.84C10.773 231.211 11.2477 230.725 11.845 230.384C12.453 230.043 13.1303 229.872 13.877 229.872C14.6237 229.872 15.2957 230.043 15.893 230.384C16.4903 230.725 16.9597 231.211 17.301 231.84C17.653 232.459 17.829 233.189 17.829 234.032C17.829 234.875 17.653 235.611 17.301 236.24C16.949 236.859 16.469 237.339 15.861 237.68C15.2637 238.021 14.5917 238.192 13.845 238.192ZM13.845 237.04C14.3037 237.04 14.7303 236.928 15.125 236.704C15.5197 236.48 15.8397 236.144 16.085 235.696C16.3303 235.248 16.453 234.693 16.453 234.032C16.453 233.371 16.3303 232.816 16.085 232.368C15.8503 231.92 15.5357 231.584 15.141 231.36C14.7463 231.136 14.325 231.024 13.877 231.024C13.4183 231.024 12.9917 231.136 12.597 231.36C12.2023 231.584 11.8823 231.92 11.637 232.368C11.3917 232.816 11.269 233.371 11.269 234.032C11.269 234.693 11.3917 235.248 11.637 235.696C11.8823 236.144 12.197 236.48 12.581 236.704C12.9757 236.928 13.397 237.04 13.845 237.04ZM26.6418 230.064V238H25.4258L25.3458 236.576C25.0898 237.077 24.7218 237.472 24.2418 237.76C23.7618 238.048 23.2178 238.192 22.6098 238.192C21.6711 238.192 20.9191 237.909 20.3538 237.344C19.7991 236.768 19.5218 235.888 19.5218 234.704V230.064H20.8658V234.56C20.8658 236.213 21.5484 237.04 22.9138 237.04C23.5964 237.04 24.1618 236.795 24.6098 236.304C25.0684 235.803 25.2978 235.093 25.2978 234.176V230.064H26.6418ZM28.854 238V226.48H30.198V238H28.854ZM36.0009 238.192C35.2115 238.192 34.5182 238.011 33.9209 237.648C33.3342 237.285 32.8755 236.789 32.5449 236.16C32.2249 235.531 32.0649 234.816 32.0649 234.016C32.0649 233.216 32.2302 232.507 32.5609 231.888C32.8915 231.259 33.3502 230.768 33.9369 230.416C34.5235 230.053 35.2169 229.872 36.0169 229.872C36.6675 229.872 37.2435 230.005 37.7449 230.272C38.2462 230.539 38.6355 230.912 38.9129 231.392V226.48H40.2569V238H39.0409L38.9129 236.688C38.6569 237.072 38.2889 237.419 37.8089 237.728C37.3289 238.037 36.7262 238.192 36.0009 238.192ZM36.1449 237.024C36.6782 237.024 37.1475 236.901 37.5529 236.656C37.9689 236.4 38.2889 236.048 38.5129 235.6C38.7475 235.152 38.8649 234.629 38.8649 234.032C38.8649 233.435 38.7475 232.912 38.5129 232.464C38.2889 232.016 37.9689 231.669 37.5529 231.424C37.1475 231.168 36.6782 231.04 36.1449 231.04C35.6222 231.04 35.1529 231.168 34.7369 231.424C34.3315 231.669 34.0115 232.016 33.7769 232.464C33.5529 232.912 33.4409 233.435 33.4409 234.032C33.4409 234.629 33.5529 235.152 33.7769 235.6C34.0115 236.048 34.3315 236.4 34.7369 236.656C35.1529 236.901 35.6222 237.024 36.1449 237.024ZM50.3301 238.192C49.5728 238.192 48.8901 238.021 48.2821 237.68C47.6848 237.328 47.2101 236.843 46.8581 236.224C46.5168 235.595 46.3461 234.864 46.3461 234.032C46.3461 233.2 46.5168 232.475 46.8581 231.856C47.2101 231.227 47.6848 230.741 48.2821 230.4C48.8901 230.048 49.5728 229.872 50.3301 229.872C51.2688 229.872 52.0581 230.117 52.6981 230.608C53.3488 231.099 53.7595 231.755 53.9301 232.576H52.5541C52.4475 232.085 52.1861 231.707 51.7701 231.44C51.3541 231.163 50.8688 231.024 50.3141 231.024C49.8661 231.024 49.4448 231.136 49.0501 231.36C48.6555 231.584 48.3355 231.92 48.0901 232.368C47.8448 232.816 47.7221 233.371 47.7221 234.032C47.7221 234.693 47.8448 235.248 48.0901 235.696C48.3355 236.144 48.6555 236.485 49.0501 236.72C49.4448 236.944 49.8661 237.056 50.3141 237.056C50.8688 237.056 51.3541 236.923 51.7701 236.656C52.1861 236.379 52.4475 235.989 52.5541 235.488H53.9301C53.7701 236.288 53.3648 236.939 52.7141 237.44C52.0635 237.941 51.2688 238.192 50.3301 238.192ZM59.4231 238.192C58.6765 238.192 58.0045 238.021 57.4071 237.68C56.8098 237.339 56.3351 236.859 55.9831 236.24C55.6418 235.611 55.4711 234.875 55.4711 234.032C55.4711 233.189 55.6471 232.459 55.9991 231.84C56.3511 231.211 56.8258 230.725 57.4231 230.384C58.0311 230.043 58.7085 229.872 59.4551 229.872C60.2018 229.872 60.8738 230.043 61.4711 230.384C62.0685 230.725 62.5378 231.211 62.8791 231.84C63.2311 232.459 63.4071 233.189 63.4071 234.032C63.4071 234.875 63.2311 235.611 62.8791 236.24C62.5271 236.859 62.0471 237.339 61.4391 237.68C60.8418 238.021 60.1698 238.192 59.4231 238.192ZM59.4231 237.04C59.8818 237.04 60.3085 236.928 60.7031 236.704C61.0978 236.48 61.4178 236.144 61.6631 235.696C61.9085 235.248 62.0311 234.693 62.0311 234.032C62.0311 233.371 61.9085 232.816 61.6631 232.368C61.4285 231.92 61.1138 231.584 60.7191 231.36C60.3245 231.136 59.9031 231.024 59.4551 231.024C58.9965 231.024 58.5698 231.136 58.1751 231.36C57.7805 231.584 57.4605 231.92 57.2151 232.368C56.9698 232.816 56.8471 233.371 56.8471 234.032C56.8471 234.693 56.9698 235.248 57.2151 235.696C57.4605 236.144 57.7751 236.48 58.1591 236.704C58.5538 236.928 58.9751 237.04 59.4231 237.04ZM65.2759 238V230.064H66.4919L66.5719 231.488C66.8279 230.987 67.1959 230.592 67.6759 230.304C68.1559 230.016 68.6999 229.872 69.3079 229.872C70.2465 229.872 70.9932 230.16 71.5479 230.736C72.1132 231.301 72.3959 232.176 72.3959 233.36V238H71.0519V233.504C71.0519 231.851 70.3692 231.024 69.0039 231.024C68.3212 231.024 67.7505 231.275 67.2919 231.776C66.8439 232.267 66.6199 232.971 66.6199 233.888V238H65.2759ZM76.5639 238L73.5559 230.064H74.9639L77.3479 236.704L79.7479 230.064H81.1239L78.1159 238H76.5639ZM83.4356 228.304C83.169 228.304 82.945 228.219 82.7636 228.048C82.593 227.867 82.5076 227.643 82.5076 227.376C82.5076 227.12 82.593 226.907 82.7636 226.736C82.945 226.565 83.169 226.48 83.4356 226.48C83.6916 226.48 83.9103 226.565 84.0916 226.736C84.273 226.907 84.3636 227.12 84.3636 227.376C84.3636 227.643 84.273 227.867 84.0916 228.048C83.9103 228.219 83.6916 228.304 83.4356 228.304ZM82.7636 238V230.064H84.1076V238H82.7636ZM86.4478 238V230.064H87.6638L87.7438 231.488C87.9998 230.987 88.3678 230.592 88.8478 230.304C89.3278 230.016 89.8718 229.872 90.4798 229.872C91.4184 229.872 92.1651 230.16 92.7198 230.736C93.2851 231.301 93.5677 232.176 93.5677 233.36V238H92.2238V233.504C92.2238 231.851 91.5411 231.024 90.1758 231.024C89.4931 231.024 88.9224 231.275 88.4638 231.776C88.0158 232.267 87.7918 232.971 87.7918 233.888V238H86.4478ZM99.252 238.192C98.4947 238.192 97.812 238.021 97.204 237.68C96.6067 237.328 96.132 236.843 95.78 236.224C95.4387 235.595 95.268 234.864 95.268 234.032C95.268 233.2 95.4387 232.475 95.78 231.856C96.132 231.227 96.6067 230.741 97.204 230.4C97.812 230.048 98.4947 229.872 99.252 229.872C100.191 229.872 100.98 230.117 101.62 230.608C102.271 231.099 102.681 231.755 102.852 232.576H101.476C101.369 232.085 101.108 231.707 100.692 231.44C100.276 231.163 99.7907 231.024 99.236 231.024C98.788 231.024 98.3667 231.136 97.972 231.36C97.5773 231.584 97.2573 231.92 97.012 232.368C96.7667 232.816 96.644 233.371 96.644 234.032C96.644 234.693 96.7667 235.248 97.012 235.696C97.2573 236.144 97.5773 236.485 97.972 236.72C98.3667 236.944 98.788 237.056 99.236 237.056C99.7907 237.056 100.276 236.923 100.692 236.656C101.108 236.379 101.369 235.989 101.476 235.488H102.852C102.692 236.288 102.287 236.939 101.636 237.44C100.985 237.941 100.191 238.192 99.252 238.192ZM108.297 238.192C107.54 238.192 106.868 238.021 106.281 237.68C105.694 237.328 105.23 236.843 104.889 236.224C104.558 235.605 104.393 234.875 104.393 234.032C104.393 233.2 104.558 232.475 104.889 231.856C105.22 231.227 105.678 230.741 106.265 230.4C106.862 230.048 107.55 229.872 108.329 229.872C109.097 229.872 109.758 230.048 110.313 230.4C110.878 230.741 111.31 231.195 111.609 231.76C111.908 232.325 112.057 232.933 112.057 233.584C112.057 233.701 112.052 233.819 112.041 233.936C112.041 234.053 112.041 234.187 112.041 234.336H105.721C105.753 234.944 105.892 235.451 106.137 235.856C106.393 236.251 106.708 236.549 107.081 236.752C107.465 236.955 107.87 237.056 108.297 237.056C108.852 237.056 109.316 236.928 109.689 236.672C110.062 236.416 110.334 236.069 110.505 235.632H111.833C111.62 236.368 111.209 236.981 110.601 237.472C110.004 237.952 109.236 238.192 108.297 238.192ZM108.297 231.008C107.657 231.008 107.086 231.205 106.585 231.6C106.094 231.984 105.812 232.549 105.737 233.296H110.729C110.697 232.581 110.452 232.021 109.993 231.616C109.534 231.211 108.969 231.008 108.297 231.008ZM118.073 238V226.48H119.417V231.424C119.683 230.933 120.062 230.555 120.553 230.288C121.043 230.011 121.577 229.872 122.153 229.872C123.07 229.872 123.806 230.16 124.361 230.736C124.915 231.301 125.193 232.176 125.193 233.36V238H123.865V233.504C123.865 231.851 123.198 231.024 121.865 231.024C121.171 231.024 120.59 231.275 120.121 231.776C119.651 232.267 119.417 232.971 119.417 233.888V238H118.073ZM130.797 238.192C130.04 238.192 129.368 238.021 128.781 237.68C128.194 237.328 127.73 236.843 127.389 236.224C127.058 235.605 126.893 234.875 126.893 234.032C126.893 233.2 127.058 232.475 127.389 231.856C127.72 231.227 128.178 230.741 128.765 230.4C129.362 230.048 130.05 229.872 130.829 229.872C131.597 229.872 132.258 230.048 132.813 230.4C133.378 230.741 133.81 231.195 134.109 231.76C134.408 232.325 134.557 232.933 134.557 233.584C134.557 233.701 134.552 233.819 134.541 233.936C134.541 234.053 134.541 234.187 134.541 234.336H128.221C128.253 234.944 128.392 235.451 128.637 235.856C128.893 236.251 129.208 236.549 129.581 236.752C129.965 236.955 130.37 237.056 130.797 237.056C131.352 237.056 131.816 236.928 132.189 236.672C132.562 236.416 132.834 236.069 133.005 235.632H134.333C134.12 236.368 133.709 236.981 133.101 237.472C132.504 237.952 131.736 238.192 130.797 238.192ZM130.797 231.008C130.157 231.008 129.586 231.205 129.085 231.6C128.594 231.984 128.312 232.549 128.237 233.296H133.229C133.197 232.581 132.952 232.021 132.493 231.616C132.034 231.211 131.469 231.008 130.797 231.008ZM136.338 238V230.064H137.554L137.666 231.584C137.912 231.061 138.285 230.645 138.786 230.336C139.288 230.027 139.906 229.872 140.642 229.872V231.28H140.274C139.805 231.28 139.373 231.365 138.978 231.536C138.584 231.696 138.269 231.973 138.034 232.368C137.8 232.763 137.682 233.307 137.682 234V238H136.338ZM149.025 238.192C148.364 238.192 147.815 238.08 147.377 237.856C146.94 237.632 146.615 237.333 146.401 236.96C146.188 236.587 146.081 236.181 146.081 235.744C146.081 234.933 146.391 234.309 147.009 233.872C147.628 233.435 148.471 233.216 149.537 233.216H151.681V233.12C151.681 232.427 151.5 231.904 151.137 231.552C150.775 231.189 150.289 231.008 149.681 231.008C149.159 231.008 148.705 231.141 148.321 231.408C147.948 231.664 147.713 232.043 147.617 232.544H146.241C146.295 231.968 146.487 231.483 146.817 231.088C147.159 230.693 147.58 230.395 148.081 230.192C148.583 229.979 149.116 229.872 149.681 229.872C150.791 229.872 151.623 230.171 152.177 230.768C152.743 231.355 153.025 232.139 153.025 233.12V238H151.825L151.745 236.576C151.521 237.024 151.191 237.408 150.753 237.728C150.327 238.037 149.751 238.192 149.025 238.192ZM149.233 237.056C149.745 237.056 150.183 236.923 150.545 236.656C150.919 236.389 151.201 236.043 151.393 235.616C151.585 235.189 151.681 234.741 151.681 234.272V234.256H149.649C148.86 234.256 148.3 234.395 147.969 234.672C147.649 234.939 147.489 235.275 147.489 235.68C147.489 236.096 147.639 236.432 147.937 236.688C148.247 236.933 148.679 237.056 149.233 237.056ZM155.042 238V230.064H156.258L156.338 231.488C156.594 230.987 156.962 230.592 157.442 230.304C157.922 230.016 158.466 229.872 159.074 229.872C160.012 229.872 160.759 230.16 161.314 230.736C161.879 231.301 162.161 232.176 162.161 233.36V238H160.818V233.504C160.818 231.851 160.135 231.024 158.77 231.024C158.087 231.024 157.516 231.275 157.058 231.776C156.61 232.267 156.386 232.971 156.386 233.888V238H155.042ZM167.798 238.192C167.008 238.192 166.315 238.011 165.718 237.648C165.131 237.285 164.672 236.789 164.342 236.16C164.022 235.531 163.862 234.816 163.862 234.016C163.862 233.216 164.027 232.507 164.358 231.888C164.688 231.259 165.147 230.768 165.734 230.416C166.32 230.053 167.014 229.872 167.814 229.872C168.464 229.872 169.04 230.005 169.542 230.272C170.043 230.539 170.432 230.912 170.71 231.392V226.48H172.054V238H170.838L170.71 236.688C170.454 237.072 170.086 237.419 169.606 237.728C169.126 238.037 168.523 238.192 167.798 238.192ZM167.942 237.024C168.475 237.024 168.944 236.901 169.35 236.656C169.766 236.4 170.086 236.048 170.31 235.6C170.544 235.152 170.662 234.629 170.662 234.032C170.662 233.435 170.544 232.912 170.31 232.464C170.086 232.016 169.766 231.669 169.35 231.424C168.944 231.168 168.475 231.04 167.942 231.04C167.419 231.04 166.95 231.168 166.534 231.424C166.128 231.669 165.808 232.016 165.574 232.464C165.35 232.912 165.238 233.435 165.238 234.032C165.238 234.629 165.35 235.152 165.574 235.6C165.808 236.048 166.128 236.4 166.534 236.656C166.95 236.901 167.419 237.024 167.942 237.024ZM181.519 238.192C180.57 238.192 179.78 237.952 179.151 237.472C178.522 236.992 178.154 236.341 178.047 235.52H179.423C179.508 235.936 179.727 236.299 180.079 236.608C180.442 236.907 180.927 237.056 181.535 237.056C182.1 237.056 182.516 236.939 182.783 236.704C183.05 236.459 183.183 236.171 183.183 235.84C183.183 235.36 183.007 235.04 182.655 234.88C182.314 234.72 181.828 234.576 181.199 234.448C180.772 234.363 180.346 234.24 179.919 234.08C179.492 233.92 179.135 233.696 178.847 233.408C178.559 233.109 178.415 232.72 178.415 232.24C178.415 231.547 178.671 230.981 179.183 230.544C179.706 230.096 180.41 229.872 181.295 229.872C182.138 229.872 182.826 230.085 183.359 230.512C183.903 230.928 184.218 231.525 184.303 232.304H182.975C182.922 231.899 182.746 231.584 182.447 231.36C182.159 231.125 181.77 231.008 181.279 231.008C180.799 231.008 180.426 231.109 180.159 231.312C179.903 231.515 179.775 231.781 179.775 232.112C179.775 232.432 179.94 232.683 180.271 232.864C180.612 233.045 181.071 233.2 181.647 233.328C182.138 233.435 182.602 233.568 183.039 233.728C183.487 233.877 183.85 234.107 184.127 234.416C184.415 234.715 184.559 235.152 184.559 235.728C184.57 236.443 184.298 237.035 183.743 237.504C183.199 237.963 182.458 238.192 181.519 238.192ZM190.095 238.192C189.348 238.192 188.676 238.021 188.079 237.68C187.482 237.339 187.007 236.859 186.655 236.24C186.314 235.611 186.143 234.875 186.143 234.032C186.143 233.189 186.319 232.459 186.671 231.84C187.023 231.211 187.498 230.725 188.095 230.384C188.703 230.043 189.38 229.872 190.127 229.872C190.874 229.872 191.546 230.043 192.143 230.384C192.74 230.725 193.21 231.211 193.551 231.84C193.903 232.459 194.079 233.189 194.079 234.032C194.079 234.875 193.903 235.611 193.551 236.24C193.199 236.859 192.719 237.339 192.111 237.68C191.514 238.021 190.842 238.192 190.095 238.192ZM190.095 237.04C190.554 237.04 190.98 236.928 191.375 236.704C191.77 236.48 192.09 236.144 192.335 235.696C192.58 235.248 192.703 234.693 192.703 234.032C192.703 233.371 192.58 232.816 192.335 232.368C192.1 231.92 191.786 231.584 191.391 231.36C190.996 231.136 190.575 231.024 190.127 231.024C189.668 231.024 189.242 231.136 188.847 231.36C188.452 231.584 188.132 231.92 187.887 232.368C187.642 232.816 187.519 233.371 187.519 234.032C187.519 234.693 187.642 235.248 187.887 235.696C188.132 236.144 188.447 236.48 188.831 236.704C189.226 236.928 189.647 237.04 190.095 237.04ZM1.92 260.304C1.65333 260.304 1.42933 260.219 1.248 260.048C1.07733 259.867 0.992 259.643 0.992 259.376C0.992 259.12 1.07733 258.907 1.248 258.736C1.42933 258.565 1.65333 258.48 1.92 258.48C2.176 258.48 2.39467 258.565 2.576 258.736C2.75733 258.907 2.848 259.12 2.848 259.376C2.848 259.643 2.75733 259.867 2.576 260.048C2.39467 260.219 2.176 260.304 1.92 260.304ZM1.248 270V262.064H2.592V270H1.248ZM8.06813 270C7.34279 270 6.77213 269.824 6.35613 269.472C5.94013 269.12 5.73213 268.485 5.73213 267.568V263.2H4.35612V262.064H5.73213L5.90813 260.16H7.07613V262.064H9.41213V263.2H7.07613V267.568C7.07613 268.069 7.17746 268.411 7.38013 268.592C7.58279 268.763 7.94013 268.848 8.45213 268.848H9.28413V270H8.06813ZM18.954 270.192C18.1647 270.192 17.4713 270.011 16.874 269.648C16.2873 269.285 15.8287 268.789 15.498 268.16C15.178 267.531 15.018 266.816 15.018 266.016C15.018 265.216 15.1833 264.507 15.514 263.888C15.8447 263.259 16.3033 262.768 16.89 262.416C17.4767 262.053 18.17 261.872 18.97 261.872C19.6207 261.872 20.1967 262.005 20.698 262.272C21.1993 262.539 21.5887 262.912 21.866 263.392V258.48H23.21V270H21.994L21.866 268.688C21.61 269.072 21.242 269.419 20.762 269.728C20.282 270.037 19.6793 270.192 18.954 270.192ZM19.098 269.024C19.6313 269.024 20.1007 268.901 20.506 268.656C20.922 268.4 21.242 268.048 21.466 267.6C21.7007 267.152 21.818 266.629 21.818 266.032C21.818 265.435 21.7007 264.912 21.466 264.464C21.242 264.016 20.922 263.669 20.506 263.424C20.1007 263.168 19.6313 263.04 19.098 263.04C18.5753 263.04 18.106 263.168 17.69 263.424C17.2847 263.669 16.9647 264.016 16.73 264.464C16.506 264.912 16.394 265.435 16.394 266.032C16.394 266.629 16.506 267.152 16.73 267.6C16.9647 268.048 17.2847 268.4 17.69 268.656C18.106 268.901 18.5753 269.024 19.098 269.024ZM26.2169 260.304C25.9502 260.304 25.7262 260.219 25.5449 260.048C25.3742 259.867 25.2889 259.643 25.2889 259.376C25.2889 259.12 25.3742 258.907 25.5449 258.736C25.7262 258.565 25.9502 258.48 26.2169 258.48C26.4729 258.48 26.6915 258.565 26.8729 258.736C27.0542 258.907 27.1449 259.12 27.1449 259.376C27.1449 259.643 27.0542 259.867 26.8729 260.048C26.6915 260.219 26.4729 260.304 26.2169 260.304ZM25.5449 270V262.064H26.8889V270H25.5449ZM32.829 270.192C32.0397 270.192 31.3463 270.011 30.749 269.648C30.1623 269.285 29.7037 268.789 29.373 268.16C29.053 267.531 28.893 266.816 28.893 266.016C28.893 265.216 29.0583 264.507 29.389 263.888C29.7197 263.259 30.1783 262.768 30.765 262.416C31.3517 262.053 32.045 261.872 32.845 261.872C33.4957 261.872 34.0717 262.005 34.573 262.272C35.0743 262.539 35.4637 262.912 35.741 263.392V258.48H37.085V270H35.869L35.741 268.688C35.485 269.072 35.117 269.419 34.637 269.728C34.157 270.037 33.5543 270.192 32.829 270.192ZM32.973 269.024C33.5063 269.024 33.9757 268.901 34.381 268.656C34.797 268.4 35.117 268.048 35.341 267.6C35.5757 267.152 35.693 266.629 35.693 266.032C35.693 265.435 35.5757 264.912 35.341 264.464C35.117 264.016 34.797 263.669 34.381 263.424C33.9757 263.168 33.5063 263.04 32.973 263.04C32.4503 263.04 31.981 263.168 31.565 263.424C31.1597 263.669 30.8397 264.016 30.605 264.464C30.381 264.912 30.269 265.435 30.269 266.032C30.269 266.629 30.381 267.152 30.605 267.6C30.8397 268.048 31.1597 268.4 31.565 268.656C31.981 268.901 32.4503 269.024 32.973 269.024ZM39.2759 270V262.064H40.4919L40.5719 263.488C40.8279 262.987 41.1959 262.592 41.6759 262.304C42.1559 262.016 42.6999 261.872 43.3079 261.872C44.2465 261.872 44.9932 262.16 45.5479 262.736C46.1132 263.301 46.3959 264.176 46.3959 265.36V270H45.0519V265.504C45.0519 263.851 44.3692 263.024 43.0039 263.024C42.3212 263.024 41.7505 263.275 41.2919 263.776C40.8439 264.267 40.6199 264.971 40.6199 265.888V270H39.2759ZM47.8561 262.368L48.7841 258.8H50.2881L48.8161 262.368H47.8561ZM54.9744 270C54.249 270 53.6784 269.824 53.2624 269.472C52.8464 269.12 52.6384 268.485 52.6384 267.568V263.2H51.2624V262.064H52.6384L52.8144 260.16H53.9824V262.064H56.3184V263.2H53.9824V267.568C53.9824 268.069 54.0837 268.411 54.2864 268.592C54.489 268.763 54.8464 268.848 55.3584 268.848H56.1904V270H54.9744ZM65.3963 270C64.6709 270 64.1003 269.824 63.6843 269.472C63.2683 269.12 63.0603 268.485 63.0603 267.568V263.2H61.6842V262.064H63.0603L63.2363 260.16H64.4043V262.064H66.7403V263.2H64.4043V267.568C64.4043 268.069 64.5056 268.411 64.7083 268.592C64.9109 268.763 65.2683 268.848 65.7803 268.848H66.6123V270H65.3963ZM71.0878 270.192C70.4264 270.192 69.8771 270.08 69.4398 269.856C69.0024 269.632 68.6771 269.333 68.4638 268.96C68.2504 268.587 68.1438 268.181 68.1438 267.744C68.1438 266.933 68.4531 266.309 69.0718 265.872C69.6904 265.435 70.5331 265.216 71.5998 265.216H73.7438V265.12C73.7438 264.427 73.5624 263.904 73.1998 263.552C72.8371 263.189 72.3518 263.008 71.7438 263.008C71.2211 263.008 70.7678 263.141 70.3838 263.408C70.0104 263.664 69.7758 264.043 69.6798 264.544H68.3038C68.3571 263.968 68.5491 263.483 68.8798 263.088C69.2211 262.693 69.6424 262.395 70.1438 262.192C70.6451 261.979 71.1784 261.872 71.7438 261.872C72.8531 261.872 73.6851 262.171 74.2398 262.768C74.8051 263.355 75.0878 264.139 75.0878 265.12V270H73.8878L73.8078 268.576C73.5838 269.024 73.2531 269.408 72.8158 269.728C72.3891 270.037 71.8131 270.192 71.0878 270.192ZM71.2958 269.056C71.8078 269.056 72.2451 268.923 72.6078 268.656C72.9811 268.389 73.2638 268.043 73.4558 267.616C73.6478 267.189 73.7438 266.741 73.7438 266.272V266.256H71.7118C70.9224 266.256 70.3624 266.395 70.0318 266.672C69.7118 266.939 69.5518 267.275 69.5518 267.68C69.5518 268.096 69.7011 268.432 69.9998 268.688C70.3091 268.933 70.7411 269.056 71.2958 269.056ZM77.104 270V258.48H78.448V265.408L81.696 262.064H83.344L79.824 265.648L83.792 270H82.08L78.448 265.888V270H77.104ZM88.1564 270.192C87.399 270.192 86.727 270.021 86.1404 269.68C85.5537 269.328 85.0897 268.843 84.7484 268.224C84.4177 267.605 84.2524 266.875 84.2524 266.032C84.2524 265.2 84.4177 264.475 84.7484 263.856C85.079 263.227 85.5377 262.741 86.1244 262.4C86.7217 262.048 87.4097 261.872 88.1884 261.872C88.9564 261.872 89.6177 262.048 90.1724 262.4C90.7377 262.741 91.1697 263.195 91.4684 263.76C91.767 264.325 91.9164 264.933 91.9164 265.584C91.9164 265.701 91.911 265.819 91.9004 265.936C91.9004 266.053 91.9004 266.187 91.9004 266.336H85.5804C85.6124 266.944 85.751 267.451 85.9964 267.856C86.2524 268.251 86.567 268.549 86.9404 268.752C87.3244 268.955 87.7297 269.056 88.1564 269.056C88.711 269.056 89.175 268.928 89.5484 268.672C89.9217 268.416 90.1937 268.069 90.3644 267.632H91.6924C91.479 268.368 91.0684 268.981 90.4604 269.472C89.863 269.952 89.095 270.192 88.1564 270.192ZM88.1564 263.008C87.5164 263.008 86.9457 263.205 86.4444 263.6C85.9537 263.984 85.671 264.549 85.5964 265.296H90.5884C90.5564 264.581 90.311 264.021 89.8524 263.616C89.3937 263.211 88.8284 263.008 88.1564 263.008ZM94.1618 270.08C93.8951 270.08 93.6711 269.995 93.4898 269.824C93.3191 269.643 93.2338 269.424 93.2338 269.168C93.2338 268.912 93.3191 268.699 93.4898 268.528C93.6711 268.347 93.8951 268.256 94.1618 268.256C94.4178 268.256 94.6311 268.347 94.8018 268.528C94.9831 268.699 95.0738 268.912 95.0738 269.168C95.0738 269.424 94.9831 269.643 94.8018 269.824C94.6311 269.995 94.4178 270.08 94.1618 270.08Z" fill="#333333" fill-opacity="0.496405"/>
</svg>
