<svg width="279" height="268" viewBox="0 0 279 268" fill="none" xmlns="http://www.w3.org/2000/svg">
<path fill-rule="evenodd" clip-rule="evenodd" d="M39.0961 20.4706C38.1573 20.4706 37.3963 19.7068 37.3963 18.7647C37.3813 16.787 38.123 14.879 39.4684 13.4338C40.3182 12.5879 40.7961 11.4365 40.7961 10.2353C40.7961 9.03412 40.3182 7.88268 39.4684 7.03676C38.123 5.59164 37.3813 3.68356 37.3963 1.70588C37.3963 0.763749 38.1573 0 39.0961 0C40.0349 0 40.796 0.763749 40.796 1.70588C40.7847 2.90926 41.2643 4.06491 42.1235 4.90441C44.8864 7.91753 44.8864 12.5531 42.1235 15.5662C41.2643 16.4057 40.7847 17.5613 40.796 18.7647C40.796 19.7068 40.0349 20.4706 39.0961 20.4706ZM86.53 73.3529H97.9953C98.9769 73.2691 99.9511 73.5824 100.701 74.2231C101.452 74.8639 101.915 75.7789 101.99 76.7647V80.1765C101.99 84.0028 98.2197 87 93.4058 87H15.3835C10.5696 87 6.79933 84.0028 6.79933 80.1765V76.7647C6.87379 75.7789 7.33772 74.8639 8.08792 74.2231C8.83813 73.5824 9.81237 73.2691 10.7939 73.3529H24.9246C21.673 71.058 19.2409 67.7765 17.9859 63.9911C16.1001 64.5326 14.1493 64.8127 12.1878 64.8235C4.78333 64.8235 0 58.4418 0 48.5665C0 44.1482 0 30.7059 12.1878 30.7059C13.8109 30.706 15.4274 30.9136 16.9983 31.3234V29C16.9983 27.1157 18.5204 25.5882 20.398 25.5882H61.194C63.0715 25.5882 64.5936 27.1157 64.5936 29V48.5375C65.0284 48.7318 65.4746 48.8993 65.9297 49.039C66.2514 48.2595 66.6152 47.4981 67.0193 46.7582C67.3788 46.1149 67.9504 45.6173 68.6358 45.3509L77.3645 42.0039C78.066 41.7369 78.8401 41.7338 79.5436 41.9954C80.2835 42.2865 81.006 42.6203 81.7075 42.9951C82.2979 42.1264 82.769 41.182 83.1082 40.1872C83.6384 38.5907 84.9565 37.3848 86.5895 37.0023C86.6404 36.1903 86.6659 35.3766 86.6659 34.5799V34.5796C86.6795 31.2515 86.695 27.4766 90.9036 25.868C91.972 25.4407 93.1763 25.5261 94.1741 26.1C94.9594 26.5384 97.2797 27.8639 99.0033 36.1647C100.519 36.6906 101.598 38.0463 101.772 39.6464C102.202 43.4251 102.023 47.2485 101.242 50.9701C100.318 54.4043 98.8145 57.6544 96.7969 60.5793C96.9533 60.9137 97.0927 61.2207 97.2049 61.4766C97.6305 62.4416 97.5614 63.554 97.0196 64.4585C94.4777 68.4001 90.8269 71.4957 86.53 73.3529ZM92.5117 29.0648C92.3922 28.9836 92.2376 28.9757 92.1105 29.0444C90.2509 29.7557 90.0792 31.0471 90.0707 34.5816C90.069 35.1599 90.0639 35.7809 90.0418 36.4172C92.1989 36.1374 94.0517 36.0112 95.4813 35.9515C94.1979 30.3033 92.8023 29.2269 92.5117 29.0648ZM86.3515 41.2209C86.5247 40.7133 86.9626 40.3428 87.4904 40.2571C87.7086 40.2121 87.9253 40.1762 88.1528 40.1384L88.153 40.1384L88.1531 40.1384L88.1533 40.1383L88.1542 40.1382L88.1572 40.1377C88.2561 40.1213 88.357 40.1045 88.461 40.0865C91.4291 39.5832 94.4327 39.3191 97.4429 39.2967H97.5551C97.9702 39.2683 98.337 39.5658 98.3965 39.9791C98.7882 43.3745 98.6355 46.811 97.9443 50.1581C97.3026 52.5921 96.3078 54.9182 94.9917 57.0618C92.4176 52.288 88.8804 48.1049 84.6057 44.7794C85.3409 43.6754 85.9279 42.4789 86.3515 41.2209ZM78.4694 45.2229L69.9481 48.4897H69.9413C65.7104 56.1969 67.123 66.816 67.9321 71.0415C68.063 71.7306 68.1939 72.3038 68.2908 72.7218C69.4217 73.0859 70.5957 73.2982 71.7822 73.3529H74.0243C76.884 73.146 79.6958 72.5047 82.3637 71.4509C90.1421 68.4724 93.1678 64.3561 94.1078 62.7253C93.0879 60.5281 87.5686 48.8138 78.4694 45.2229ZM59.5944 70.7208C61.2703 71.537 63.0135 72.2059 64.8044 72.7201C64.8382 72.8785 64.8706 73.0213 64.9009 73.1552L64.901 73.1556C64.9164 73.2233 64.9312 73.2888 64.9455 73.3529H56.6044C57.6912 72.5843 58.6935 71.702 59.5944 70.7208ZM57.7603 65.5997C59.6972 67.0385 61.8501 68.1585 64.1381 68.9176C63.26 63.3702 63.4911 57.7029 64.818 52.2461C63.6097 51.8875 62.457 51.3622 61.3928 50.6852C60.9859 50.4444 60.4782 50.4556 60.0823 50.7142C59.8506 50.8491 59.6477 50.9798 59.4533 51.105C59.3725 51.1571 59.2931 51.2082 59.2137 51.2584C56.5887 52.901 54.0933 54.7437 51.7497 56.7701C51.731 56.7905 51.7089 56.811 51.6868 56.8315C51.3062 57.123 51.1789 57.6411 51.3808 58.0768C53.0692 60.9276 55.2261 63.4712 57.7603 65.5997ZM49.4243 45.5948C49.4777 45.4144 49.6163 45.272 49.7949 45.2144C51.5967 44.5321 52.4211 45.3475 54.5204 48.0479C54.8808 48.5102 55.2666 49.0049 55.6814 49.5013C53.8286 50.7483 52.3038 51.9049 51.1514 52.8363C49.3835 48.8821 49.0674 46.5194 49.4243 45.5948ZM12.1878 54.5882C13.8472 54.5647 15.4843 54.2007 16.9983 53.5186V42.5191C15.6358 41.4302 13.9281 40.87 12.1878 40.9412C11.3481 40.9412 10.199 40.9412 10.199 48.5665C10.199 51.4852 10.8959 54.5882 12.1878 54.5882ZM3.39966 48.5685C3.39997 41.8378 4.40036 34.1176 12.1878 34.1176C13.821 34.1095 15.445 34.3634 16.9983 34.8699V38.5359C15.4872 37.8521 13.8453 37.5086 12.1878 37.5294C7.21069 37.5294 6.79933 42.7511 6.79933 48.5665C6.79933 54.4739 8.81363 58 12.1878 58C13.8271 57.9831 15.4525 57.6949 16.9983 57.1471V58C17.0055 58.8917 17.0771 59.7816 17.2125 60.6629C15.5806 61.1465 13.8893 61.3986 12.1878 61.4118C6.6859 61.4118 3.40022 56.6105 3.39966 48.5685ZM20.398 58C20.3964 59.1624 20.5293 60.3211 20.794 61.4527V61.4476C22.3652 68.432 28.5618 73.3823 35.6965 73.3529H45.8955C49.9001 73.3589 53.7447 71.7756 56.5908 68.9484L56.5367 68.9112L56.5367 68.9111L56.5366 68.9111L56.5365 68.911C56.247 68.7121 55.958 68.5135 55.678 68.2967C52.8229 65.9179 50.392 63.0687 48.4894 59.8714C47.6478 58.465 47.6775 56.7005 48.5659 55.3235C46.1419 50.2536 45.3702 46.6439 46.2558 44.3529C46.6585 43.2737 47.5092 42.4238 48.5863 42.0244C52.8755 40.3847 55.2662 43.4595 57.1903 45.9341L57.2011 45.9479C57.6515 46.5279 58.1241 47.1079 58.6153 47.6709C59.4075 47.2536 60.3032 47.0758 61.194 47.1591V29H20.398L20.398 58ZM98.5903 80.1765C98.5903 82.0256 96.2105 83.5882 93.4058 83.5882H15.3835C12.5788 83.5882 10.199 82.0256 10.199 80.1765V76.9199C10.3782 76.8117 10.5849 76.7578 10.7939 76.7647H97.9953C98.2044 76.7578 98.411 76.8117 98.5903 76.9199V80.1765ZM27.1973 18.7647C27.1973 19.7068 27.9584 20.4706 28.8971 20.4706C29.8359 20.4706 30.597 19.7068 30.597 18.7647C30.5857 17.5613 31.0654 16.4057 31.9245 15.5662C34.6874 12.5531 34.6874 7.91753 31.9245 4.90441C31.0654 4.06491 30.5857 2.90926 30.597 1.70588C30.597 0.763749 29.8359 0 28.8971 0C27.9584 0 27.1973 0.763749 27.1973 1.70588C27.1823 3.68356 27.924 5.59164 29.2694 7.03676C30.1192 7.88268 30.5971 9.03412 30.5971 10.2353C30.5971 11.4365 30.1192 12.5879 29.2694 13.4338C27.924 14.879 27.1823 16.787 27.1973 18.7647ZM49.2951 20.4706C48.3563 20.4706 47.5953 19.7068 47.5953 18.7647C47.5803 16.787 48.322 14.879 49.6674 13.4338C50.5172 12.5879 50.9951 11.4365 50.9951 10.2353C50.9951 9.03412 50.5172 7.88268 49.6674 7.03676C48.322 5.59164 47.5803 3.68356 47.5953 1.70588C47.5953 0.763749 48.3563 0 49.2951 0C50.2339 0 50.995 0.763749 50.995 1.70588C50.9837 2.90926 51.4633 4.06491 52.3225 4.90441C55.0854 7.91753 55.0854 12.5531 52.3225 15.5662C51.4633 16.4057 50.9837 17.5613 50.995 18.7647C50.995 19.7068 50.2339 20.4706 49.2951 20.4706Z" fill="#F5AE5C"/>
<path d="M0.800781 184V176.754C1.94661 176.754 2.76693 176.604 3.26172 176.305C3.75651 175.992 4.00391 175.413 4.00391 174.566V164.684C4.00391 163.824 3.75651 163.245 3.26172 162.945C2.76693 162.633 1.94661 162.477 0.800781 162.477V155.23H27.832V166.285H20.9961C20.9961 165.478 20.957 164.833 20.8789 164.352C20.8008 163.857 20.651 163.473 20.4297 163.199C20.2214 162.913 19.9349 162.724 19.5703 162.633C19.2188 162.529 18.776 162.477 18.2422 162.477H15.5273V168.121H21.7578V171.559H15.5273V174.566C15.5273 175.257 15.6966 175.797 16.0352 176.188C16.3867 176.565 17.0182 176.754 17.9297 176.754H19.9219V184H0.800781ZM42.6562 162.477L42.3242 167.848H42.6562C43.112 165.79 43.8672 164.234 44.9219 163.18C45.9896 162.125 47.3698 161.598 49.0625 161.598C50.0651 161.598 50.9245 161.76 51.6406 162.086C52.3698 162.398 52.9557 162.822 53.3984 163.355C53.8411 163.889 54.1602 164.508 54.3555 165.211C54.5508 165.901 54.6484 166.617 54.6484 167.359C54.6484 167.971 54.5573 168.577 54.375 169.176C54.1927 169.775 53.8997 170.315 53.4961 170.797C53.0924 171.279 52.5716 171.669 51.9336 171.969C51.2956 172.255 50.5078 172.398 49.5703 172.398C48.2682 172.398 47.2396 172.066 46.4844 171.402C45.7422 170.738 45.3711 169.938 45.3711 169C45.3711 168.544 45.4232 168.16 45.5273 167.848C45.6315 167.522 45.7357 167.262 45.8398 167.066C45.957 166.858 46.0352 166.708 46.0742 166.617C46.1133 166.526 46.0677 166.48 45.9375 166.48C45.6641 166.48 45.3646 166.793 45.0391 167.418C44.7266 168.043 44.5703 169.026 44.5703 170.367V174.84C44.5703 175.53 44.6875 176.025 44.9219 176.324C45.1693 176.611 45.638 176.754 46.3281 176.754H47.5V184H31.0547V176.754H32.207C32.7409 176.754 33.1445 176.585 33.418 176.246C33.7044 175.895 33.8477 175.478 33.8477 174.996V171.285C33.8477 170.673 33.6654 170.263 33.3008 170.055C32.9492 169.833 32.5456 169.723 32.0898 169.723H31.0547V162.477H42.6562ZM66.9141 174.449C66.9661 176.389 67.3307 177.73 68.0078 178.473C68.6979 179.202 69.681 179.566 70.957 179.566C71.3867 179.566 71.8034 179.508 72.207 179.391C72.6237 179.26 73.0078 179.059 73.3594 178.785C73.7109 178.499 74.0104 178.128 74.2578 177.672C74.5182 177.203 74.6875 176.617 74.7656 175.914H81.875C81.6146 177.594 81.1328 179 80.4297 180.133C79.7396 181.266 78.8477 182.184 77.7539 182.887C76.6602 183.577 75.3841 184.072 73.9258 184.371C72.4805 184.684 70.8659 184.84 69.082 184.84C67.2461 184.84 65.5208 184.605 63.9062 184.137C62.2917 183.668 60.8724 182.958 59.6484 182.008C58.4375 181.044 57.487 179.84 56.7969 178.395C56.1068 176.936 55.7617 175.204 55.7617 173.199C55.7617 171.285 56.0872 169.605 56.7383 168.16C57.3893 166.715 58.3008 165.51 59.4727 164.547C60.6576 163.57 62.0508 162.835 63.6523 162.34C65.2669 161.845 67.0378 161.598 68.9648 161.598C71.3346 161.598 73.3724 161.91 75.0781 162.535C76.7839 163.16 78.1771 164.033 79.2578 165.152C80.3385 166.272 81.1328 167.62 81.6406 169.195C82.1484 170.771 82.3893 172.522 82.3633 174.449H66.9141ZM69.8047 166.871C68.8932 166.871 68.2161 167.197 67.7734 167.848C67.3438 168.486 67.0573 169.547 66.9141 171.031H72.6367C72.5586 169.755 72.2852 168.746 71.8164 168.004C71.3477 167.249 70.6771 166.871 69.8047 166.871ZM106.973 169.605H101.602C101.224 168.668 100.638 167.926 99.8438 167.379C99.0495 166.832 98.2227 166.559 97.3633 166.559C96.7773 166.559 96.3086 166.669 95.957 166.891C95.6185 167.099 95.4492 167.418 95.4492 167.848C95.4492 168.382 95.7487 168.785 96.3477 169.059C96.9466 169.319 97.6953 169.553 98.5938 169.762C99.5052 169.97 100.488 170.224 101.543 170.523C102.598 170.81 103.574 171.227 104.473 171.773C105.384 172.32 106.139 173.056 106.738 173.98C107.337 174.905 107.637 176.122 107.637 177.633C107.637 178.805 107.376 179.827 106.855 180.699C106.335 181.572 105.618 182.288 104.707 182.848C103.809 183.408 102.747 183.824 101.523 184.098C100.299 184.384 98.9779 184.527 97.5586 184.527C96.1784 184.527 94.8698 184.391 93.6328 184.117C92.4089 183.857 91.237 183.408 90.1172 182.77L89.9219 184.117H84.7656V176.285H90.1172C90.625 177.327 91.263 178.134 92.0312 178.707C92.8125 179.28 93.6719 179.566 94.6094 179.566C95.3255 179.566 95.8333 179.436 96.1328 179.176C96.4453 178.902 96.6016 178.603 96.6016 178.277C96.6016 177.743 96.3021 177.333 95.7031 177.047C95.1042 176.747 94.362 176.487 93.4766 176.266C92.6042 176.031 91.6406 175.777 90.5859 175.504C89.5312 175.217 88.5612 174.807 87.6758 174.273C86.8034 173.74 86.0677 173.023 85.4688 172.125C84.8698 171.214 84.5703 170.022 84.5703 168.551C84.5703 167.496 84.8047 166.533 85.2734 165.66C85.7552 164.788 86.4388 164.052 87.3242 163.453C88.2096 162.854 89.2513 162.398 90.4492 162.086C91.6471 161.76 92.9622 161.598 94.3945 161.598C95.9961 161.598 97.4349 161.78 98.7109 162.145C100 162.496 100.964 162.887 101.602 163.316L101.797 161.93H106.973V169.605ZM130.742 161.598C132.461 161.598 133.854 161.852 134.922 162.359C136.003 162.867 136.842 163.512 137.441 164.293C138.053 165.061 138.47 165.901 138.691 166.812C138.913 167.711 139.023 168.557 139.023 169.352V174.84C139.023 175.53 139.141 176.025 139.375 176.324C139.622 176.611 140.091 176.754 140.781 176.754H141.836V184H128.32V171.52C128.32 171.012 128.255 170.608 128.125 170.309C128.008 169.996 127.852 169.762 127.656 169.605C127.474 169.436 127.266 169.326 127.031 169.273C126.797 169.221 126.569 169.195 126.348 169.195C125.501 169.195 124.87 169.443 124.453 169.938C124.036 170.432 123.828 171.135 123.828 172.047V174.84C123.828 175.53 123.945 176.025 124.18 176.324C124.427 176.611 124.896 176.754 125.586 176.754H127.031V184H110.312V176.754H111.465C111.999 176.754 112.402 176.585 112.676 176.246C112.962 175.895 113.105 175.478 113.105 174.996L113.066 164.684C113.066 163.928 112.826 163.375 112.344 163.023C111.875 162.659 111.328 162.477 110.703 162.477H110.312V155.23H123.828V162.477C123.828 162.724 123.75 163.154 123.594 163.766C123.438 164.378 123.145 164.99 122.715 165.602L123.105 165.797C123.809 164.521 124.753 163.505 125.938 162.75C127.122 161.982 128.724 161.598 130.742 161.598Z" fill="#171B1B"/>
<path d="M1.184 232V220.8H2.528L8.496 229.776V220.8H9.84V232H8.496L2.528 223.024V232H1.184ZM15.7513 232.192C15.0046 232.192 14.3326 232.021 13.7353 231.68C13.1379 231.339 12.6633 230.859 12.3113 230.24C11.9699 229.611 11.7993 228.875 11.7993 228.032C11.7993 227.189 11.9753 226.459 12.3273 225.84C12.6793 225.211 13.1539 224.725 13.7513 224.384C14.3593 224.043 15.0366 223.872 15.7833 223.872C16.5299 223.872 17.2019 224.043 17.7993 224.384C18.3966 224.725 18.8659 225.211 19.2073 225.84C19.5593 226.459 19.7353 227.189 19.7353 228.032C19.7353 228.875 19.5593 229.611 19.2073 230.24C18.8553 230.859 18.3753 231.339 17.7673 231.68C17.1699 232.021 16.4979 232.192 15.7513 232.192ZM15.7513 231.04C16.2099 231.04 16.6366 230.928 17.0313 230.704C17.4259 230.48 17.7459 230.144 17.9913 229.696C18.2366 229.248 18.3593 228.693 18.3593 228.032C18.3593 227.371 18.2366 226.816 17.9913 226.368C17.7566 225.92 17.4419 225.584 17.0473 225.36C16.6526 225.136 16.2313 225.024 15.7833 225.024C15.3246 225.024 14.8979 225.136 14.5033 225.36C14.1086 225.584 13.7886 225.92 13.5433 226.368C13.2979 226.816 13.1753 227.371 13.1753 228.032C13.1753 228.693 13.2979 229.248 13.5433 229.696C13.7886 230.144 14.1033 230.48 14.4873 230.704C14.8819 230.928 15.3033 231.04 15.7513 231.04ZM24.4275 232C23.7022 232 23.1315 231.824 22.7155 231.472C22.2995 231.12 22.0915 230.485 22.0915 229.568V225.2H20.7155V224.064H22.0915L22.2675 222.16H23.4355V224.064H25.7715V225.2H23.4355V229.568C23.4355 230.069 23.5368 230.411 23.7395 230.592C23.9422 230.763 24.2995 230.848 24.8115 230.848H25.6435V232H24.4275ZM27.479 232V220.48H28.823V225.424C29.0897 224.933 29.4683 224.555 29.959 224.288C30.4497 224.011 30.983 223.872 31.559 223.872C32.4763 223.872 33.2123 224.16 33.767 224.736C34.3217 225.301 34.599 226.176 34.599 227.36V232H33.271V227.504C33.271 225.851 32.6043 225.024 31.271 225.024C30.5777 225.024 29.9963 225.275 29.527 225.776C29.0577 226.267 28.823 226.971 28.823 227.888V232H27.479ZM37.4513 222.304C37.1846 222.304 36.9606 222.219 36.7793 222.048C36.6086 221.867 36.5233 221.643 36.5233 221.376C36.5233 221.12 36.6086 220.907 36.7793 220.736C36.9606 220.565 37.1846 220.48 37.4513 220.48C37.7073 220.48 37.9259 220.565 38.1073 220.736C38.2886 220.907 38.3793 221.12 38.3793 221.376C38.3793 221.643 38.2886 221.867 38.1073 222.048C37.9259 222.219 37.7073 222.304 37.4513 222.304ZM36.7793 232V224.064H38.1233V232H36.7793ZM40.4634 232V224.064H41.6794L41.7594 225.488C42.0154 224.987 42.3834 224.592 42.8634 224.304C43.3434 224.016 43.8874 223.872 44.4954 223.872C45.434 223.872 46.1807 224.16 46.7354 224.736C47.3007 225.301 47.5834 226.176 47.5834 227.36V232H46.2394V227.504C46.2394 225.851 45.5567 225.024 44.1914 225.024C43.5087 225.024 42.938 225.275 42.4794 225.776C42.0314 226.267 41.8074 226.971 41.8074 227.888V232H40.4634ZM52.7556 229.504C52.3076 229.504 51.897 229.445 51.5236 229.328L50.7236 230.08C50.841 230.165 50.985 230.24 51.1556 230.304C51.337 230.357 51.593 230.411 51.9236 230.464C52.2543 230.507 52.7183 230.555 53.3156 230.608C54.3823 230.683 55.145 230.928 55.6036 231.344C56.0623 231.76 56.2916 232.304 56.2916 232.976C56.2916 233.435 56.1636 233.872 55.9076 234.288C55.6623 234.704 55.2783 235.045 54.7556 235.312C54.2436 235.579 53.5823 235.712 52.7716 235.712C52.057 235.712 51.4223 235.616 50.8676 235.424C50.313 235.243 49.881 234.96 49.5716 234.576C49.2623 234.203 49.1076 233.728 49.1076 233.152C49.1076 232.853 49.1876 232.528 49.3476 232.176C49.5076 231.835 49.8063 231.509 50.2436 231.2C50.009 231.104 49.8063 231.003 49.6356 230.896C49.4756 230.779 49.3263 230.651 49.1876 230.512V230.144L50.5476 228.8C49.9183 228.267 49.6036 227.563 49.6036 226.688C49.6036 226.165 49.7263 225.691 49.9716 225.264C50.217 224.837 50.5743 224.501 51.0436 224.256C51.513 224 52.0836 223.872 52.7556 223.872C53.2143 223.872 53.6303 223.936 54.0036 224.064H56.9316V225.072L55.4436 225.136C55.753 225.584 55.9076 226.101 55.9076 226.688C55.9076 227.211 55.7796 227.685 55.5236 228.112C55.2783 228.539 54.921 228.88 54.4516 229.136C53.993 229.381 53.4276 229.504 52.7556 229.504ZM52.7556 228.4C53.321 228.4 53.769 228.256 54.0996 227.968C54.441 227.669 54.6116 227.243 54.6116 226.688C54.6116 226.144 54.441 225.728 54.0996 225.44C53.769 225.141 53.321 224.992 52.7556 224.992C52.1796 224.992 51.721 225.141 51.3796 225.44C51.049 225.728 50.8836 226.144 50.8836 226.688C50.8836 227.243 51.049 227.669 51.3796 227.968C51.721 228.256 52.1796 228.4 52.7556 228.4ZM50.4196 233.024C50.4196 233.557 50.6436 233.952 51.0916 234.208C51.5396 234.475 52.0996 234.608 52.7716 234.608C53.433 234.608 53.961 234.464 54.3556 234.176C54.761 233.888 54.9636 233.504 54.9636 233.024C54.9636 232.683 54.825 232.384 54.5476 232.128C54.2703 231.883 53.7583 231.739 53.0116 231.696C52.425 231.653 51.9183 231.6 51.4916 231.536C51.0543 231.771 50.7663 232.021 50.6276 232.288C50.489 232.565 50.4196 232.811 50.4196 233.024ZM65.8181 232C65.0928 232 64.5221 231.824 64.1061 231.472C63.6901 231.12 63.4821 230.485 63.4821 229.568V225.2H62.1061V224.064H63.4821L63.6581 222.16H64.8261V224.064H67.1621V225.2H64.8261V229.568C64.8261 230.069 64.9275 230.411 65.1301 230.592C65.3328 230.763 65.6901 230.848 66.2021 230.848H67.0341V232H65.8181ZM68.8696 232V220.48H70.2136V225.424C70.4803 224.933 70.859 224.555 71.3496 224.288C71.8403 224.011 72.3736 223.872 72.9496 223.872C73.867 223.872 74.603 224.16 75.1576 224.736C75.7123 225.301 75.9896 226.176 75.9896 227.36V232H74.6616V227.504C74.6616 225.851 73.995 225.024 72.6616 225.024C71.9683 225.024 71.387 225.275 70.9176 225.776C70.4483 226.267 70.2136 226.971 70.2136 227.888V232H68.8696ZM81.5939 232.192C80.8365 232.192 80.1645 232.021 79.5779 231.68C78.9912 231.328 78.5272 230.843 78.1859 230.224C77.8552 229.605 77.6899 228.875 77.6899 228.032C77.6899 227.2 77.8552 226.475 78.1859 225.856C78.5165 225.227 78.9752 224.741 79.5619 224.4C80.1592 224.048 80.8472 223.872 81.6259 223.872C82.3939 223.872 83.0552 224.048 83.6099 224.4C84.1752 224.741 84.6072 225.195 84.9059 225.76C85.2045 226.325 85.3539 226.933 85.3539 227.584C85.3539 227.701 85.3485 227.819 85.3379 227.936C85.3379 228.053 85.3379 228.187 85.3379 228.336H79.0179C79.0499 228.944 79.1885 229.451 79.4339 229.856C79.6899 230.251 80.0045 230.549 80.3779 230.752C80.7619 230.955 81.1672 231.056 81.5939 231.056C82.1485 231.056 82.6125 230.928 82.9859 230.672C83.3592 230.416 83.6312 230.069 83.8019 229.632H85.1299C84.9165 230.368 84.5059 230.981 83.8979 231.472C83.3005 231.952 82.5325 232.192 81.5939 232.192ZM81.5939 225.008C80.9539 225.008 80.3832 225.205 79.8819 225.6C79.3912 225.984 79.1085 226.549 79.0339 227.296H84.0259C83.9939 226.581 83.7485 226.021 83.2899 225.616C82.8312 225.211 82.2659 225.008 81.5939 225.008ZM95.0176 232.192C94.2603 232.192 93.5776 232.021 92.9696 231.68C92.3723 231.328 91.8976 230.843 91.5456 230.224C91.2043 229.595 91.0336 228.864 91.0336 228.032C91.0336 227.2 91.2043 226.475 91.5456 225.856C91.8976 225.227 92.3723 224.741 92.9696 224.4C93.5776 224.048 94.2603 223.872 95.0176 223.872C95.9563 223.872 96.7456 224.117 97.3856 224.608C98.0363 225.099 98.447 225.755 98.6176 226.576H97.2416C97.135 226.085 96.8736 225.707 96.4576 225.44C96.0416 225.163 95.5563 225.024 95.0016 225.024C94.5536 225.024 94.1323 225.136 93.7376 225.36C93.343 225.584 93.023 225.92 92.7776 226.368C92.5323 226.816 92.4096 227.371 92.4096 228.032C92.4096 228.693 92.5323 229.248 92.7776 229.696C93.023 230.144 93.343 230.485 93.7376 230.72C94.1323 230.944 94.5536 231.056 95.0016 231.056C95.5563 231.056 96.0416 230.923 96.4576 230.656C96.8736 230.379 97.135 229.989 97.2416 229.488H98.6176C98.4576 230.288 98.0523 230.939 97.4016 231.44C96.751 231.941 95.9563 232.192 95.0176 232.192ZM104.111 232.192C103.364 232.192 102.692 232.021 102.095 231.68C101.497 231.339 101.023 230.859 100.671 230.24C100.329 229.611 100.159 228.875 100.159 228.032C100.159 227.189 100.335 226.459 100.687 225.84C101.039 225.211 101.513 224.725 102.111 224.384C102.719 224.043 103.396 223.872 104.143 223.872C104.889 223.872 105.561 224.043 106.159 224.384C106.756 224.725 107.225 225.211 107.567 225.84C107.919 226.459 108.095 227.189 108.095 228.032C108.095 228.875 107.919 229.611 107.567 230.24C107.215 230.859 106.735 231.339 106.127 231.68C105.529 232.021 104.857 232.192 104.111 232.192ZM104.111 231.04C104.569 231.04 104.996 230.928 105.391 230.704C105.785 230.48 106.105 230.144 106.351 229.696C106.596 229.248 106.719 228.693 106.719 228.032C106.719 227.371 106.596 226.816 106.351 226.368C106.116 225.92 105.801 225.584 105.407 225.36C105.012 225.136 104.591 225.024 104.143 225.024C103.684 225.024 103.257 225.136 102.863 225.36C102.468 225.584 102.148 225.92 101.903 226.368C101.657 226.816 101.535 227.371 101.535 228.032C101.535 228.693 101.657 229.248 101.903 229.696C102.148 230.144 102.463 230.48 102.847 230.704C103.241 230.928 103.663 231.04 104.111 231.04ZM109.963 235.52V224.064H111.179L111.307 225.376C111.563 224.992 111.926 224.645 112.395 224.336C112.875 224.027 113.483 223.872 114.219 223.872C115.009 223.872 115.697 224.053 116.283 224.416C116.87 224.779 117.323 225.275 117.643 225.904C117.974 226.533 118.139 227.248 118.139 228.048C118.139 228.848 117.974 229.563 117.643 230.192C117.323 230.811 116.865 231.301 116.267 231.664C115.681 232.016 114.993 232.192 114.203 232.192C113.553 232.192 112.971 232.059 112.459 231.792C111.958 231.525 111.574 231.152 111.307 230.672V235.52H109.963ZM114.059 231.024C114.593 231.024 115.062 230.901 115.467 230.656C115.873 230.4 116.193 230.048 116.427 229.6C116.662 229.152 116.779 228.629 116.779 228.032C116.779 227.435 116.662 226.912 116.427 226.464C116.193 226.016 115.873 225.669 115.467 225.424C115.062 225.168 114.593 225.04 114.059 225.04C113.526 225.04 113.057 225.168 112.651 225.424C112.246 225.669 111.926 226.016 111.691 226.464C111.457 226.912 111.339 227.435 111.339 228.032C111.339 228.629 111.457 229.152 111.691 229.6C111.926 230.048 112.246 230.4 112.651 230.656C113.057 230.901 113.526 231.024 114.059 231.024ZM120.234 235.52L122.202 231.232H121.738L118.586 224.064H120.042L122.666 230.24L125.45 224.064H126.842L121.642 235.52H120.234ZM135.535 232.192C134.585 232.192 133.796 231.952 133.167 231.472C132.537 230.992 132.169 230.341 132.063 229.52H133.439C133.524 229.936 133.743 230.299 134.095 230.608C134.457 230.907 134.943 231.056 135.551 231.056C136.116 231.056 136.532 230.939 136.799 230.704C137.065 230.459 137.199 230.171 137.199 229.84C137.199 229.36 137.023 229.04 136.671 228.88C136.329 228.72 135.844 228.576 135.215 228.448C134.788 228.363 134.361 228.24 133.935 228.08C133.508 227.92 133.151 227.696 132.863 227.408C132.575 227.109 132.431 226.72 132.431 226.24C132.431 225.547 132.687 224.981 133.199 224.544C133.721 224.096 134.425 223.872 135.311 223.872C136.153 223.872 136.841 224.085 137.375 224.512C137.919 224.928 138.233 225.525 138.319 226.304H136.991C136.937 225.899 136.761 225.584 136.463 225.36C136.175 225.125 135.785 225.008 135.295 225.008C134.815 225.008 134.441 225.109 134.175 225.312C133.919 225.515 133.791 225.781 133.791 226.112C133.791 226.432 133.956 226.683 134.287 226.864C134.628 227.045 135.087 227.2 135.663 227.328C136.153 227.435 136.617 227.568 137.055 227.728C137.503 227.877 137.865 228.107 138.143 228.416C138.431 228.715 138.575 229.152 138.575 229.728C138.585 230.443 138.313 231.035 137.759 231.504C137.215 231.963 136.473 232.192 135.535 232.192ZM143.135 232.192C142.473 232.192 141.924 232.08 141.487 231.856C141.049 231.632 140.724 231.333 140.511 230.96C140.297 230.587 140.191 230.181 140.191 229.744C140.191 228.933 140.5 228.309 141.119 227.872C141.737 227.435 142.58 227.216 143.647 227.216H145.791V227.12C145.791 226.427 145.609 225.904 145.247 225.552C144.884 225.189 144.399 225.008 143.791 225.008C143.268 225.008 142.815 225.141 142.431 225.408C142.057 225.664 141.823 226.043 141.727 226.544H140.351C140.404 225.968 140.596 225.483 140.927 225.088C141.268 224.693 141.689 224.395 142.191 224.192C142.692 223.979 143.225 223.872 143.791 223.872C144.9 223.872 145.732 224.171 146.287 224.768C146.852 225.355 147.135 226.139 147.135 227.12V232H145.935L145.855 230.576C145.631 231.024 145.3 231.408 144.863 231.728C144.436 232.037 143.86 232.192 143.135 232.192ZM143.343 231.056C143.855 231.056 144.292 230.923 144.655 230.656C145.028 230.389 145.311 230.043 145.503 229.616C145.695 229.189 145.791 228.741 145.791 228.272V228.256H143.759C142.969 228.256 142.409 228.395 142.079 228.672C141.759 228.939 141.599 229.275 141.599 229.68C141.599 230.096 141.748 230.432 142.047 230.688C142.356 230.933 142.788 231.056 143.343 231.056ZM149.967 222.304C149.7 222.304 149.476 222.219 149.295 222.048C149.124 221.867 149.039 221.643 149.039 221.376C149.039 221.12 149.124 220.907 149.295 220.736C149.476 220.565 149.7 220.48 149.967 220.48C150.223 220.48 150.442 220.565 150.623 220.736C150.804 220.907 150.895 221.12 150.895 221.376C150.895 221.643 150.804 221.867 150.623 222.048C150.442 222.219 150.223 222.304 149.967 222.304ZM149.295 232V224.064H150.639V232H149.295ZM156.579 232.192C155.79 232.192 155.096 232.011 154.499 231.648C153.912 231.285 153.454 230.789 153.123 230.16C152.803 229.531 152.643 228.816 152.643 228.016C152.643 227.216 152.808 226.507 153.139 225.888C153.47 225.259 153.928 224.768 154.515 224.416C155.102 224.053 155.795 223.872 156.595 223.872C157.246 223.872 157.822 224.005 158.323 224.272C158.824 224.539 159.214 224.912 159.491 225.392V220.48H160.835V232H159.619L159.491 230.688C159.235 231.072 158.867 231.419 158.387 231.728C157.907 232.037 157.304 232.192 156.579 232.192ZM156.723 231.024C157.256 231.024 157.726 230.901 158.131 230.656C158.547 230.4 158.867 230.048 159.091 229.6C159.326 229.152 159.443 228.629 159.443 228.032C159.443 227.435 159.326 226.912 159.091 226.464C158.867 226.016 158.547 225.669 158.131 225.424C157.726 225.168 157.256 225.04 156.723 225.04C156.2 225.04 155.731 225.168 155.315 225.424C154.91 225.669 154.59 226.016 154.355 226.464C154.131 226.912 154.019 227.435 154.019 228.032C154.019 228.629 154.131 229.152 154.355 229.6C154.59 230.048 154.91 230.4 155.315 230.656C155.731 230.901 156.2 231.024 156.723 231.024ZM170.908 232.192C170.151 232.192 169.468 232.021 168.86 231.68C168.263 231.328 167.788 230.843 167.436 230.224C167.095 229.595 166.924 228.864 166.924 228.032C166.924 227.2 167.095 226.475 167.436 225.856C167.788 225.227 168.263 224.741 168.86 224.4C169.468 224.048 170.151 223.872 170.908 223.872C171.847 223.872 172.636 224.117 173.276 224.608C173.927 225.099 174.338 225.755 174.508 226.576H173.132C173.026 226.085 172.764 225.707 172.348 225.44C171.932 225.163 171.447 225.024 170.892 225.024C170.444 225.024 170.023 225.136 169.628 225.36C169.234 225.584 168.914 225.92 168.668 226.368C168.423 226.816 168.3 227.371 168.3 228.032C168.3 228.693 168.423 229.248 168.668 229.696C168.914 230.144 169.234 230.485 169.628 230.72C170.023 230.944 170.444 231.056 170.892 231.056C171.447 231.056 171.932 230.923 172.348 230.656C172.764 230.379 173.026 229.989 173.132 229.488H174.508C174.348 230.288 173.943 230.939 173.292 231.44C172.642 231.941 171.847 232.192 170.908 232.192ZM180.001 232.192C179.255 232.192 178.583 232.021 177.985 231.68C177.388 231.339 176.913 230.859 176.561 230.24C176.22 229.611 176.049 228.875 176.049 228.032C176.049 227.189 176.225 226.459 176.577 225.84C176.929 225.211 177.404 224.725 178.001 224.384C178.609 224.043 179.287 223.872 180.033 223.872C180.78 223.872 181.452 224.043 182.049 224.384C182.647 224.725 183.116 225.211 183.457 225.84C183.809 226.459 183.985 227.189 183.985 228.032C183.985 228.875 183.809 229.611 183.457 230.24C183.105 230.859 182.625 231.339 182.017 231.68C181.42 232.021 180.748 232.192 180.001 232.192ZM180.001 231.04C180.46 231.04 180.887 230.928 181.281 230.704C181.676 230.48 181.996 230.144 182.241 229.696C182.487 229.248 182.609 228.693 182.609 228.032C182.609 227.371 182.487 226.816 182.241 226.368C182.007 225.92 181.692 225.584 181.297 225.36C180.903 225.136 180.481 225.024 180.033 225.024C179.575 225.024 179.148 225.136 178.753 225.36C178.359 225.584 178.039 225.92 177.793 226.368C177.548 226.816 177.425 227.371 177.425 228.032C177.425 228.693 177.548 229.248 177.793 229.696C178.039 230.144 178.353 230.48 178.737 230.704C179.132 230.928 179.553 231.04 180.001 231.04ZM192.798 224.064V232H191.582L191.502 230.576C191.246 231.077 190.878 231.472 190.398 231.76C189.918 232.048 189.374 232.192 188.766 232.192C187.827 232.192 187.075 231.909 186.51 231.344C185.955 230.768 185.678 229.888 185.678 228.704V224.064H187.022V228.56C187.022 230.213 187.705 231.04 189.07 231.04C189.753 231.04 190.318 230.795 190.766 230.304C191.225 229.803 191.454 229.093 191.454 228.176V224.064H192.798ZM195.01 232V220.48H196.354V232H195.01ZM202.157 232.192C201.368 232.192 200.674 232.011 200.077 231.648C199.49 231.285 199.032 230.789 198.701 230.16C198.381 229.531 198.221 228.816 198.221 228.016C198.221 227.216 198.386 226.507 198.717 225.888C199.048 225.259 199.506 224.768 200.093 224.416C200.68 224.053 201.373 223.872 202.173 223.872C202.824 223.872 203.4 224.005 203.901 224.272C204.402 224.539 204.792 224.912 205.069 225.392V220.48H206.413V232H205.197L205.069 230.688C204.813 231.072 204.445 231.419 203.965 231.728C203.485 232.037 202.882 232.192 202.157 232.192ZM202.301 231.024C202.834 231.024 203.304 230.901 203.709 230.656C204.125 230.4 204.445 230.048 204.669 229.6C204.904 229.152 205.021 228.629 205.021 228.032C205.021 227.435 204.904 226.912 204.669 226.464C204.445 226.016 204.125 225.669 203.709 225.424C203.304 225.168 202.834 225.04 202.301 225.04C201.778 225.04 201.309 225.168 200.893 225.424C200.488 225.669 200.168 226.016 199.933 226.464C199.709 226.912 199.597 227.435 199.597 228.032C199.597 228.629 199.709 229.152 199.933 229.6C200.168 230.048 200.488 230.4 200.893 230.656C201.309 230.901 201.778 231.024 202.301 231.024ZM216.486 232.192C215.729 232.192 215.046 232.021 214.438 231.68C213.841 231.328 213.366 230.843 213.014 230.224C212.673 229.595 212.502 228.864 212.502 228.032C212.502 227.2 212.673 226.475 213.014 225.856C213.366 225.227 213.841 224.741 214.438 224.4C215.046 224.048 215.729 223.872 216.486 223.872C217.425 223.872 218.214 224.117 218.854 224.608C219.505 225.099 219.916 225.755 220.086 226.576H218.71C218.604 226.085 218.342 225.707 217.926 225.44C217.51 225.163 217.025 225.024 216.47 225.024C216.022 225.024 215.601 225.136 215.206 225.36C214.812 225.584 214.492 225.92 214.246 226.368C214.001 226.816 213.878 227.371 213.878 228.032C213.878 228.693 214.001 229.248 214.246 229.696C214.492 230.144 214.812 230.485 215.206 230.72C215.601 230.944 216.022 231.056 216.47 231.056C217.025 231.056 217.51 230.923 217.926 230.656C218.342 230.379 218.604 229.989 218.71 229.488H220.086C219.926 230.288 219.521 230.939 218.87 231.44C218.22 231.941 217.425 232.192 216.486 232.192ZM225.579 232.192C224.833 232.192 224.161 232.021 223.563 231.68C222.966 231.339 222.491 230.859 222.139 230.24C221.798 229.611 221.627 228.875 221.627 228.032C221.627 227.189 221.803 226.459 222.155 225.84C222.507 225.211 222.982 224.725 223.579 224.384C224.187 224.043 224.865 223.872 225.611 223.872C226.358 223.872 227.03 224.043 227.627 224.384C228.225 224.725 228.694 225.211 229.035 225.84C229.387 226.459 229.563 227.189 229.563 228.032C229.563 228.875 229.387 229.611 229.035 230.24C228.683 230.859 228.203 231.339 227.595 231.68C226.998 232.021 226.326 232.192 225.579 232.192ZM225.579 231.04C226.038 231.04 226.465 230.928 226.859 230.704C227.254 230.48 227.574 230.144 227.819 229.696C228.065 229.248 228.187 228.693 228.187 228.032C228.187 227.371 228.065 226.816 227.819 226.368C227.585 225.92 227.27 225.584 226.875 225.36C226.481 225.136 226.059 225.024 225.611 225.024C225.153 225.024 224.726 225.136 224.331 225.36C223.937 225.584 223.617 225.92 223.371 226.368C223.126 226.816 223.003 227.371 223.003 228.032C223.003 228.693 223.126 229.248 223.371 229.696C223.617 230.144 223.931 230.48 224.315 230.704C224.71 230.928 225.131 231.04 225.579 231.04ZM231.432 232V224.064H232.648L232.728 225.488C232.984 224.987 233.352 224.592 233.832 224.304C234.312 224.016 234.856 223.872 235.464 223.872C236.403 223.872 237.149 224.16 237.704 224.736C238.269 225.301 238.552 226.176 238.552 227.36V232H237.208V227.504C237.208 225.851 236.525 225.024 235.16 225.024C234.477 225.024 233.907 225.275 233.448 225.776C233 226.267 232.776 226.971 232.776 227.888V232H231.432ZM242.72 232L239.712 224.064H241.12L243.504 230.704L245.904 224.064H247.28L244.272 232H242.72ZM249.592 222.304C249.325 222.304 249.101 222.219 248.92 222.048C248.749 221.867 248.664 221.643 248.664 221.376C248.664 221.12 248.749 220.907 248.92 220.736C249.101 220.565 249.325 220.48 249.592 220.48C249.848 220.48 250.067 220.565 250.248 220.736C250.429 220.907 250.52 221.12 250.52 221.376C250.52 221.643 250.429 221.867 250.248 222.048C250.067 222.219 249.848 222.304 249.592 222.304ZM248.92 232V224.064H250.264V232H248.92ZM252.604 232V224.064H253.82L253.9 225.488C254.156 224.987 254.524 224.592 255.004 224.304C255.484 224.016 256.028 223.872 256.636 223.872C257.575 223.872 258.321 224.16 258.876 224.736C259.441 225.301 259.724 226.176 259.724 227.36V232H258.38V227.504C258.38 225.851 257.697 225.024 256.332 225.024C255.649 225.024 255.079 225.275 254.62 225.776C254.172 226.267 253.948 226.971 253.948 227.888V232H252.604ZM265.408 232.192C264.651 232.192 263.968 232.021 263.36 231.68C262.763 231.328 262.288 230.843 261.936 230.224C261.595 229.595 261.424 228.864 261.424 228.032C261.424 227.2 261.595 226.475 261.936 225.856C262.288 225.227 262.763 224.741 263.36 224.4C263.968 224.048 264.651 223.872 265.408 223.872C266.347 223.872 267.136 224.117 267.776 224.608C268.427 225.099 268.838 225.755 269.008 226.576H267.632C267.526 226.085 267.264 225.707 266.848 225.44C266.432 225.163 265.947 225.024 265.392 225.024C264.944 225.024 264.523 225.136 264.128 225.36C263.734 225.584 263.414 225.92 263.168 226.368C262.923 226.816 262.8 227.371 262.8 228.032C262.8 228.693 262.923 229.248 263.168 229.696C263.414 230.144 263.734 230.485 264.128 230.72C264.523 230.944 264.944 231.056 265.392 231.056C265.947 231.056 266.432 230.923 266.848 230.656C267.264 230.379 267.526 229.989 267.632 229.488H269.008C268.848 230.288 268.443 230.939 267.792 231.44C267.142 231.941 266.347 232.192 265.408 232.192ZM274.453 232.192C273.696 232.192 273.024 232.021 272.437 231.68C271.851 231.328 271.387 230.843 271.045 230.224C270.715 229.605 270.549 228.875 270.549 228.032C270.549 227.2 270.715 226.475 271.045 225.856C271.376 225.227 271.835 224.741 272.421 224.4C273.019 224.048 273.707 223.872 274.485 223.872C275.253 223.872 275.915 224.048 276.469 224.4C277.035 224.741 277.467 225.195 277.765 225.76C278.064 226.325 278.213 226.933 278.213 227.584C278.213 227.701 278.208 227.819 278.197 227.936C278.197 228.053 278.197 228.187 278.197 228.336H271.877C271.909 228.944 272.048 229.451 272.293 229.856C272.549 230.251 272.864 230.549 273.237 230.752C273.621 230.955 274.027 231.056 274.453 231.056C275.008 231.056 275.472 230.928 275.845 230.672C276.219 230.416 276.491 230.069 276.661 229.632H277.989C277.776 230.368 277.365 230.981 276.757 231.472C276.16 231.952 275.392 232.192 274.453 232.192ZM274.453 225.008C273.813 225.008 273.243 225.205 272.741 225.6C272.251 225.984 271.968 226.549 271.893 227.296H276.885C276.853 226.581 276.608 226.021 276.149 225.616C275.691 225.211 275.125 225.008 274.453 225.008ZM1.104 264V252.48H2.448V257.424C2.71467 256.933 3.09333 256.555 3.584 256.288C4.07467 256.011 4.608 255.872 5.184 255.872C6.10133 255.872 6.83733 256.16 7.392 256.736C7.94667 257.301 8.224 258.176 8.224 259.36V264H6.896V259.504C6.896 257.851 6.22933 257.024 4.896 257.024C4.20267 257.024 3.62133 257.275 3.152 257.776C2.68267 258.267 2.448 258.971 2.448 259.888V264H1.104ZM13.8283 264.192C13.0709 264.192 12.3989 264.021 11.8123 263.68C11.2256 263.328 10.7616 262.843 10.4203 262.224C10.0896 261.605 9.92425 260.875 9.92425 260.032C9.92425 259.2 10.0896 258.475 10.4203 257.856C10.7509 257.227 11.2096 256.741 11.7963 256.4C12.3936 256.048 13.0816 255.872 13.8602 255.872C14.6283 255.872 15.2896 256.048 15.8443 256.4C16.4096 256.741 16.8416 257.195 17.1403 257.76C17.4389 258.325 17.5883 258.933 17.5883 259.584C17.5883 259.701 17.5829 259.819 17.5723 259.936C17.5723 260.053 17.5723 260.187 17.5723 260.336H11.2523C11.2843 260.944 11.4229 261.451 11.6683 261.856C11.9243 262.251 12.2389 262.549 12.6123 262.752C12.9963 262.955 13.4016 263.056 13.8283 263.056C14.3829 263.056 14.8469 262.928 15.2203 262.672C15.5936 262.416 15.8656 262.069 16.0363 261.632H17.3643C17.1509 262.368 16.7403 262.981 16.1323 263.472C15.5349 263.952 14.7669 264.192 13.8283 264.192ZM13.8283 257.008C13.1883 257.008 12.6176 257.205 12.1163 257.6C11.6256 257.984 11.3429 258.549 11.2682 259.296H16.2603C16.2283 258.581 15.9829 258.021 15.5243 257.616C15.0656 257.211 14.5003 257.008 13.8283 257.008ZM19.3696 264V256.064H20.5856L20.6976 257.584C20.943 257.061 21.3163 256.645 21.8176 256.336C22.319 256.027 22.9376 255.872 23.6736 255.872V257.28H23.3056C22.8363 257.28 22.4043 257.365 22.0096 257.536C21.615 257.696 21.3003 257.973 21.0656 258.368C20.831 258.763 20.7136 259.307 20.7136 260V264H19.3696ZM32.0565 264.192C31.3952 264.192 30.8458 264.08 30.4085 263.856C29.9712 263.632 29.6458 263.333 29.4325 262.96C29.2192 262.587 29.1125 262.181 29.1125 261.744C29.1125 260.933 29.4218 260.309 30.0405 259.872C30.6592 259.435 31.5018 259.216 32.5685 259.216H34.7125V259.12C34.7125 258.427 34.5312 257.904 34.1685 257.552C33.8058 257.189 33.3205 257.008 32.7125 257.008C32.1898 257.008 31.7365 257.141 31.3525 257.408C30.9792 257.664 30.7445 258.043 30.6485 258.544H29.2725C29.3258 257.968 29.5178 257.483 29.8485 257.088C30.1898 256.693 30.6112 256.395 31.1125 256.192C31.6138 255.979 32.1472 255.872 32.7125 255.872C33.8218 255.872 34.6538 256.171 35.2085 256.768C35.7738 257.355 36.0565 258.139 36.0565 259.12V264H34.8565L34.7765 262.576C34.5525 263.024 34.2218 263.408 33.7845 263.728C33.3578 264.037 32.7818 264.192 32.0565 264.192ZM32.2645 263.056C32.7765 263.056 33.2138 262.923 33.5765 262.656C33.9498 262.389 34.2325 262.043 34.4245 261.616C34.6165 261.189 34.7125 260.741 34.7125 260.272V260.256H32.6805C31.8912 260.256 31.3312 260.395 31.0005 260.672C30.6805 260.939 30.5205 261.275 30.5205 261.68C30.5205 262.096 30.6698 262.432 30.9685 262.688C31.2778 262.933 31.7098 263.056 32.2645 263.056ZM38.0728 264V256.064H39.2888L39.3688 257.488C39.6248 256.987 39.9928 256.592 40.4728 256.304C40.9528 256.016 41.4968 255.872 42.1048 255.872C43.0434 255.872 43.7901 256.16 44.3448 256.736C44.9101 257.301 45.1927 258.176 45.1927 259.36V264H43.8488V259.504C43.8488 257.851 43.1661 257.024 41.8008 257.024C41.1181 257.024 40.5474 257.275 40.0888 257.776C39.6408 258.267 39.4168 258.971 39.4168 259.888V264H38.0728ZM50.829 264.192C50.0397 264.192 49.3463 264.011 48.749 263.648C48.1623 263.285 47.7037 262.789 47.373 262.16C47.053 261.531 46.893 260.816 46.893 260.016C46.893 259.216 47.0583 258.507 47.389 257.888C47.7197 257.259 48.1783 256.768 48.765 256.416C49.3517 256.053 50.045 255.872 50.845 255.872C51.4957 255.872 52.0717 256.005 52.573 256.272C53.0743 256.539 53.4637 256.912 53.741 257.392V252.48H55.085V264H53.869L53.741 262.688C53.485 263.072 53.117 263.419 52.637 263.728C52.157 264.037 51.5543 264.192 50.829 264.192ZM50.973 263.024C51.5063 263.024 51.9757 262.901 52.381 262.656C52.797 262.4 53.117 262.048 53.341 261.6C53.5757 261.152 53.693 260.629 53.693 260.032C53.693 259.435 53.5757 258.912 53.341 258.464C53.117 258.016 52.797 257.669 52.381 257.424C51.9757 257.168 51.5063 257.04 50.973 257.04C50.4503 257.04 49.981 257.168 49.565 257.424C49.1597 257.669 48.8397 258.016 48.605 258.464C48.381 258.912 48.269 259.435 48.269 260.032C48.269 260.629 48.381 261.152 48.605 261.6C48.8397 262.048 49.1597 262.4 49.565 262.656C49.981 262.901 50.4503 263.024 50.973 263.024ZM64.5503 264.192C63.6009 264.192 62.8116 263.952 62.1823 263.472C61.5529 262.992 61.1849 262.341 61.0783 261.52H62.4543C62.5396 261.936 62.7583 262.299 63.1103 262.608C63.4729 262.907 63.9583 263.056 64.5663 263.056C65.1316 263.056 65.5476 262.939 65.8143 262.704C66.0809 262.459 66.2143 262.171 66.2143 261.84C66.2143 261.36 66.0383 261.04 65.6863 260.88C65.3449 260.72 64.8596 260.576 64.2303 260.448C63.8036 260.363 63.3769 260.24 62.9503 260.08C62.5236 259.92 62.1663 259.696 61.8783 259.408C61.5903 259.109 61.4463 258.72 61.4463 258.24C61.4463 257.547 61.7023 256.981 62.2143 256.544C62.7369 256.096 63.4409 255.872 64.3263 255.872C65.1689 255.872 65.8569 256.085 66.3903 256.512C66.9343 256.928 67.2489 257.525 67.3343 258.304H66.0063C65.9529 257.899 65.7769 257.584 65.4783 257.36C65.1903 257.125 64.8009 257.008 64.3103 257.008C63.8303 257.008 63.4569 257.109 63.1903 257.312C62.9343 257.515 62.8063 257.781 62.8063 258.112C62.8063 258.432 62.9716 258.683 63.3023 258.864C63.6436 259.045 64.1023 259.2 64.6783 259.328C65.1689 259.435 65.6329 259.568 66.0703 259.728C66.5183 259.877 66.8809 260.107 67.1583 260.416C67.4463 260.715 67.5903 261.152 67.5903 261.728C67.6009 262.443 67.3289 263.035 66.7743 263.504C66.2303 263.963 65.4889 264.192 64.5503 264.192ZM73.1263 264.192C72.3796 264.192 71.7076 264.021 71.1103 263.68C70.5129 263.339 70.0383 262.859 69.6863 262.24C69.3449 261.611 69.1743 260.875 69.1743 260.032C69.1743 259.189 69.3503 258.459 69.7023 257.84C70.0543 257.211 70.5289 256.725 71.1263 256.384C71.7343 256.043 72.4116 255.872 73.1583 255.872C73.9049 255.872 74.5769 256.043 75.1743 256.384C75.7716 256.725 76.2409 257.211 76.5823 257.84C76.9343 258.459 77.1103 259.189 77.1103 260.032C77.1103 260.875 76.9343 261.611 76.5823 262.24C76.2303 262.859 75.7503 263.339 75.1423 263.68C74.5449 264.021 73.8729 264.192 73.1263 264.192ZM73.1263 263.04C73.5849 263.04 74.0116 262.928 74.4063 262.704C74.8009 262.48 75.1209 262.144 75.3663 261.696C75.6116 261.248 75.7343 260.693 75.7343 260.032C75.7343 259.371 75.6116 258.816 75.3663 258.368C75.1316 257.92 74.8169 257.584 74.4223 257.36C74.0276 257.136 73.6063 257.024 73.1583 257.024C72.6996 257.024 72.2729 257.136 71.8783 257.36C71.4836 257.584 71.1636 257.92 70.9183 258.368C70.6729 258.816 70.5503 259.371 70.5503 260.032C70.5503 260.693 70.6729 261.248 70.9183 261.696C71.1636 262.144 71.4783 262.48 71.8623 262.704C72.2569 262.928 72.6783 263.04 73.1263 263.04ZM84.0294 254.304C83.7627 254.304 83.5387 254.219 83.3574 254.048C83.1867 253.867 83.1014 253.643 83.1014 253.376C83.1014 253.12 83.1867 252.907 83.3574 252.736C83.5387 252.565 83.7627 252.48 84.0294 252.48C84.2854 252.48 84.504 252.565 84.6854 252.736C84.8667 252.907 84.9574 253.12 84.9574 253.376C84.9574 253.643 84.8667 253.867 84.6854 254.048C84.504 254.219 84.2854 254.304 84.0294 254.304ZM83.3574 264V256.064H84.7014V264H83.3574ZM90.1775 264C89.4522 264 88.8815 263.824 88.4655 263.472C88.0495 263.12 87.8415 262.485 87.8415 261.568V257.2H86.4655V256.064H87.8415L88.0175 254.16H89.1855V256.064H91.5215V257.2H89.1855V261.568C89.1855 262.069 89.2868 262.411 89.4895 262.592C89.6922 262.763 90.0495 262.848 90.5615 262.848H91.3935V264H90.1775ZM101.063 264.192C100.274 264.192 99.5807 264.011 98.9834 263.648C98.3967 263.285 97.938 262.789 97.6074 262.16C97.2874 261.531 97.1274 260.816 97.1274 260.016C97.1274 259.216 97.2927 258.507 97.6234 257.888C97.954 257.259 98.4127 256.768 98.9994 256.416C99.586 256.053 100.279 255.872 101.079 255.872C101.73 255.872 102.306 256.005 102.807 256.272C103.309 256.539 103.698 256.912 103.975 257.392V252.48H105.319V264H104.103L103.975 262.688C103.719 263.072 103.351 263.419 102.871 263.728C102.391 264.037 101.789 264.192 101.063 264.192ZM101.207 263.024C101.741 263.024 102.21 262.901 102.615 262.656C103.031 262.4 103.351 262.048 103.575 261.6C103.81 261.152 103.927 260.629 103.927 260.032C103.927 259.435 103.81 258.912 103.575 258.464C103.351 258.016 103.031 257.669 102.615 257.424C102.21 257.168 101.741 257.04 101.207 257.04C100.685 257.04 100.215 257.168 99.7994 257.424C99.394 257.669 99.074 258.016 98.8394 258.464C98.6154 258.912 98.5034 259.435 98.5034 260.032C98.5034 260.629 98.6154 261.152 98.8394 261.6C99.074 262.048 99.394 262.4 99.7994 262.656C100.215 262.901 100.685 263.024 101.207 263.024ZM108.326 254.304C108.06 254.304 107.836 254.219 107.654 254.048C107.484 253.867 107.398 253.643 107.398 253.376C107.398 253.12 107.484 252.907 107.654 252.736C107.836 252.565 108.06 252.48 108.326 252.48C108.582 252.48 108.801 252.565 108.982 252.736C109.164 252.907 109.254 253.12 109.254 253.376C109.254 253.643 109.164 253.867 108.982 254.048C108.801 254.219 108.582 254.304 108.326 254.304ZM107.654 264V256.064H108.998V264H107.654ZM114.938 264.192C114.149 264.192 113.456 264.011 112.858 263.648C112.272 263.285 111.813 262.789 111.482 262.16C111.162 261.531 111.002 260.816 111.002 260.016C111.002 259.216 111.168 258.507 111.498 257.888C111.829 257.259 112.288 256.768 112.874 256.416C113.461 256.053 114.154 255.872 114.954 255.872C115.605 255.872 116.181 256.005 116.682 256.272C117.184 256.539 117.573 256.912 117.85 257.392V252.48H119.194V264H117.978L117.85 262.688C117.594 263.072 117.226 263.419 116.746 263.728C116.266 264.037 115.664 264.192 114.938 264.192ZM115.082 263.024C115.616 263.024 116.085 262.901 116.49 262.656C116.906 262.4 117.226 262.048 117.45 261.6C117.685 261.152 117.802 260.629 117.802 260.032C117.802 259.435 117.685 258.912 117.45 258.464C117.226 258.016 116.906 257.669 116.49 257.424C116.085 257.168 115.616 257.04 115.082 257.04C114.56 257.04 114.09 257.168 113.674 257.424C113.269 257.669 112.949 258.016 112.714 258.464C112.49 258.912 112.378 259.435 112.378 260.032C112.378 260.629 112.49 261.152 112.714 261.6C112.949 262.048 113.269 262.4 113.674 262.656C114.09 262.901 114.56 263.024 115.082 263.024ZM121.385 264V256.064H122.601L122.681 257.488C122.937 256.987 123.305 256.592 123.785 256.304C124.265 256.016 124.809 255.872 125.417 255.872C126.356 255.872 127.103 256.16 127.657 256.736C128.223 257.301 128.505 258.176 128.505 259.36V264H127.161V259.504C127.161 257.851 126.479 257.024 125.113 257.024C124.431 257.024 123.86 257.275 123.401 257.776C122.953 258.267 122.729 258.971 122.729 259.888V264H121.385ZM129.965 256.368L130.894 252.8H132.398L130.926 256.368H129.965ZM137.084 264C136.358 264 135.788 263.824 135.372 263.472C134.956 263.12 134.748 262.485 134.748 261.568V257.2H133.372V256.064H134.748L134.924 254.16H136.092V256.064H138.428V257.2H136.092V261.568C136.092 262.069 136.193 262.411 136.396 262.592C136.598 262.763 136.956 262.848 137.468 262.848H138.3V264H137.084ZM147.506 264C146.78 264 146.21 263.824 145.794 263.472C145.378 263.12 145.17 262.485 145.17 261.568V257.2H143.794V256.064H145.17L145.346 254.16H146.514V256.064H148.85V257.2H146.514V261.568C146.514 262.069 146.615 262.411 146.818 262.592C147.02 262.763 147.378 262.848 147.89 262.848H148.722V264H147.506ZM153.197 264.192C152.536 264.192 151.986 264.08 151.549 263.856C151.112 263.632 150.786 263.333 150.573 262.96C150.36 262.587 150.253 262.181 150.253 261.744C150.253 260.933 150.562 260.309 151.181 259.872C151.8 259.435 152.642 259.216 153.709 259.216H155.853V259.12C155.853 258.427 155.672 257.904 155.309 257.552C154.946 257.189 154.461 257.008 153.853 257.008C153.33 257.008 152.877 257.141 152.493 257.408C152.12 257.664 151.885 258.043 151.789 258.544H150.413C150.466 257.968 150.658 257.483 150.989 257.088C151.33 256.693 151.752 256.395 152.253 256.192C152.754 255.979 153.288 255.872 153.853 255.872C154.962 255.872 155.794 256.171 156.349 256.768C156.914 257.355 157.197 258.139 157.197 259.12V264H155.997L155.917 262.576C155.693 263.024 155.362 263.408 154.925 263.728C154.498 264.037 153.922 264.192 153.197 264.192ZM153.405 263.056C153.917 263.056 154.354 262.923 154.717 262.656C155.09 262.389 155.373 262.043 155.565 261.616C155.757 261.189 155.853 260.741 155.853 260.272V260.256H153.821C153.032 260.256 152.472 260.395 152.141 260.672C151.821 260.939 151.661 261.275 151.661 261.68C151.661 262.096 151.81 262.432 152.109 262.688C152.418 262.933 152.85 263.056 153.405 263.056ZM159.213 264V252.48H160.557V259.408L163.805 256.064H165.453L161.933 259.648L165.901 264H164.189L160.557 259.888V264H159.213ZM170.266 264.192C169.508 264.192 168.836 264.021 168.25 263.68C167.663 263.328 167.199 262.843 166.858 262.224C166.527 261.605 166.362 260.875 166.362 260.032C166.362 259.2 166.527 258.475 166.858 257.856C167.188 257.227 167.647 256.741 168.234 256.4C168.831 256.048 169.519 255.872 170.298 255.872C171.066 255.872 171.727 256.048 172.282 256.4C172.847 256.741 173.279 257.195 173.578 257.76C173.876 258.325 174.026 258.933 174.026 259.584C174.026 259.701 174.02 259.819 174.01 259.936C174.01 260.053 174.01 260.187 174.01 260.336H167.69C167.722 260.944 167.86 261.451 168.106 261.856C168.362 262.251 168.676 262.549 169.05 262.752C169.434 262.955 169.839 263.056 170.266 263.056C170.82 263.056 171.284 262.928 171.658 262.672C172.031 262.416 172.303 262.069 172.474 261.632H173.802C173.588 262.368 173.178 262.981 172.57 263.472C171.972 263.952 171.204 264.192 170.266 264.192ZM170.266 257.008C169.626 257.008 169.055 257.205 168.554 257.6C168.063 257.984 167.78 258.549 167.706 259.296H172.698C172.666 258.581 172.42 258.021 171.962 257.616C171.503 257.211 170.938 257.008 170.266 257.008ZM180.042 264V252.48H181.386V264H180.042ZM187.204 264.192C186.458 264.192 185.786 264.021 185.188 263.68C184.591 263.339 184.116 262.859 183.764 262.24C183.423 261.611 183.252 260.875 183.252 260.032C183.252 259.189 183.428 258.459 183.78 257.84C184.132 257.211 184.607 256.725 185.204 256.384C185.812 256.043 186.49 255.872 187.236 255.872C187.983 255.872 188.655 256.043 189.252 256.384C189.85 256.725 190.319 257.211 190.66 257.84C191.012 258.459 191.188 259.189 191.188 260.032C191.188 260.875 191.012 261.611 190.66 262.24C190.308 262.859 189.828 263.339 189.22 263.68C188.623 264.021 187.951 264.192 187.204 264.192ZM187.204 263.04C187.663 263.04 188.09 262.928 188.484 262.704C188.879 262.48 189.199 262.144 189.444 261.696C189.69 261.248 189.812 260.693 189.812 260.032C189.812 259.371 189.69 258.816 189.444 258.368C189.21 257.92 188.895 257.584 188.5 257.36C188.106 257.136 187.684 257.024 187.236 257.024C186.778 257.024 186.351 257.136 185.956 257.36C185.562 257.584 185.242 257.92 184.996 258.368C184.751 258.816 184.628 259.371 184.628 260.032C184.628 260.693 184.751 261.248 184.996 261.696C185.242 262.144 185.556 262.48 185.94 262.704C186.335 262.928 186.756 263.04 187.204 263.04ZM193.057 264V256.064H194.273L194.353 257.488C194.609 256.987 194.977 256.592 195.457 256.304C195.937 256.016 196.481 255.872 197.089 255.872C198.028 255.872 198.774 256.16 199.329 256.736C199.894 257.301 200.177 258.176 200.177 259.36V264H198.833V259.504C198.833 257.851 198.15 257.024 196.785 257.024C196.102 257.024 195.532 257.275 195.073 257.776C194.625 258.267 194.401 258.971 194.401 259.888V264H193.057ZM205.349 261.504C204.901 261.504 204.491 261.445 204.117 261.328L203.317 262.08C203.435 262.165 203.579 262.24 203.749 262.304C203.931 262.357 204.187 262.411 204.517 262.464C204.848 262.507 205.312 262.555 205.909 262.608C206.976 262.683 207.739 262.928 208.197 263.344C208.656 263.76 208.885 264.304 208.885 264.976C208.885 265.435 208.757 265.872 208.501 266.288C208.256 266.704 207.872 267.045 207.349 267.312C206.837 267.579 206.176 267.712 205.365 267.712C204.651 267.712 204.016 267.616 203.461 267.424C202.907 267.243 202.475 266.96 202.165 266.576C201.856 266.203 201.701 265.728 201.701 265.152C201.701 264.853 201.781 264.528 201.941 264.176C202.101 263.835 202.4 263.509 202.837 263.2C202.603 263.104 202.4 263.003 202.229 262.896C202.069 262.779 201.92 262.651 201.781 262.512V262.144L203.141 260.8C202.512 260.267 202.197 259.563 202.197 258.688C202.197 258.165 202.32 257.691 202.565 257.264C202.811 256.837 203.168 256.501 203.637 256.256C204.107 256 204.677 255.872 205.349 255.872C205.808 255.872 206.224 255.936 206.597 256.064H209.525V257.072L208.037 257.136C208.347 257.584 208.501 258.101 208.501 258.688C208.501 259.211 208.373 259.685 208.117 260.112C207.872 260.539 207.515 260.88 207.045 261.136C206.587 261.381 206.021 261.504 205.349 261.504ZM205.349 260.4C205.915 260.4 206.363 260.256 206.693 259.968C207.035 259.669 207.205 259.243 207.205 258.688C207.205 258.144 207.035 257.728 206.693 257.44C206.363 257.141 205.915 256.992 205.349 256.992C204.773 256.992 204.315 257.141 203.973 257.44C203.643 257.728 203.477 258.144 203.477 258.688C203.477 259.243 203.643 259.669 203.973 259.968C204.315 260.256 204.773 260.4 205.349 260.4ZM203.013 265.024C203.013 265.557 203.237 265.952 203.685 266.208C204.133 266.475 204.693 266.608 205.365 266.608C206.027 266.608 206.555 266.464 206.949 266.176C207.355 265.888 207.557 265.504 207.557 265.024C207.557 264.683 207.419 264.384 207.141 264.128C206.864 263.883 206.352 263.739 205.605 263.696C205.019 263.653 204.512 263.6 204.085 263.536C203.648 263.771 203.36 264.021 203.221 264.288C203.083 264.565 203.013 264.811 203.013 265.024ZM211.506 264.08C211.239 264.08 211.015 263.995 210.834 263.824C210.663 263.643 210.578 263.424 210.578 263.168C210.578 262.912 210.663 262.699 210.834 262.528C211.015 262.347 211.239 262.256 211.506 262.256C211.762 262.256 211.975 262.347 212.146 262.528C212.327 262.699 212.418 262.912 212.418 263.168C212.418 263.424 212.327 263.643 212.146 263.824C211.975 263.995 211.762 264.08 211.506 264.08Z" fill="#333333" fill-opacity="0.496405"/>
</svg>
