<svg width="570" height="736" viewBox="0 0 570 736" fill="none" xmlns="http://www.w3.org/2000/svg">
<rect width="270" height="352" fill="white"/>
<rect width="270" height="208" fill="#9B9B9B"/>
<mask id="mask0_0_1" style="mask-type:luminance" maskUnits="userSpaceOnUse" x="0" y="0" width="270" height="208">
<rect width="270" height="208" fill="white"/>
</mask>
<g mask="url(#mask0_0_1)">
</g>
<path d="M33.48 288V274H35.44L40.48 283.76L45.48 274H47.46V288H45.78V277L41.1 286H39.84L35.16 277.02V288H33.48ZM53.6136 288.24C52.7869 288.24 52.1003 288.1 51.5536 287.82C51.0069 287.54 50.6003 287.167 50.3336 286.7C50.0669 286.233 49.9336 285.727 49.9336 285.18C49.9336 284.167 50.3203 283.387 51.0936 282.84C51.8669 282.293 52.9203 282.02 54.2536 282.02H56.9336V281.9C56.9336 281.033 56.7069 280.38 56.2536 279.94C55.8003 279.487 55.1936 279.26 54.4336 279.26C53.7803 279.26 53.2136 279.427 52.7336 279.76C52.2669 280.08 51.9736 280.553 51.8536 281.18H50.1336C50.2003 280.46 50.4403 279.853 50.8536 279.36C51.2803 278.867 51.8069 278.493 52.4336 278.24C53.0603 277.973 53.7269 277.84 54.4336 277.84C55.8203 277.84 56.8603 278.213 57.5536 278.96C58.2603 279.693 58.6136 280.673 58.6136 281.9V288H57.1136L57.0136 286.22C56.7336 286.78 56.3203 287.26 55.7736 287.66C55.2403 288.047 54.5203 288.24 53.6136 288.24ZM53.8736 286.82C54.5136 286.82 55.0603 286.653 55.5136 286.32C55.9803 285.987 56.3336 285.553 56.5736 285.02C56.8136 284.487 56.9336 283.927 56.9336 283.34V283.32H54.3936C53.4069 283.32 52.7069 283.493 52.2936 283.84C51.8936 284.173 51.6936 284.593 51.6936 285.1C51.6936 285.62 51.8803 286.04 52.2536 286.36C52.6403 286.667 53.1803 286.82 53.8736 286.82ZM61.1339 288V273.6H62.8139V288H61.1339ZM69.4875 288C68.5808 288 67.8675 287.78 67.3475 287.34C66.8275 286.9 66.5675 286.107 66.5675 284.96V279.5H64.8475V278.08H66.5675L66.7875 275.7H68.2475V278.08H71.1675V279.5H68.2475V284.96C68.2475 285.587 68.3742 286.013 68.6275 286.24C68.8808 286.453 69.3275 286.56 69.9675 286.56H71.0075V288H69.4875ZM77.4884 288.24C76.5418 288.24 75.7018 288.027 74.9684 287.6C74.2351 287.16 73.6551 286.553 73.2284 285.78C72.8151 285.007 72.6084 284.093 72.6084 283.04C72.6084 282 72.8151 281.093 73.2284 280.32C73.6418 279.533 74.2151 278.927 74.9484 278.5C75.6951 278.06 76.5551 277.84 77.5284 277.84C78.4884 277.84 79.3151 278.06 80.0084 278.5C80.7151 278.927 81.2551 279.493 81.6284 280.2C82.0018 280.907 82.1884 281.667 82.1884 282.48C82.1884 282.627 82.1818 282.773 82.1684 282.92C82.1684 283.067 82.1684 283.233 82.1684 283.42H74.2684C74.3084 284.18 74.4818 284.813 74.7884 285.32C75.1084 285.813 75.5018 286.187 75.9684 286.44C76.4484 286.693 76.9551 286.82 77.4884 286.82C78.1818 286.82 78.7618 286.66 79.2284 286.34C79.6951 286.02 80.0351 285.587 80.2484 285.04H81.9084C81.6418 285.96 81.1284 286.727 80.3684 287.34C79.6218 287.94 78.6618 288.24 77.4884 288.24ZM77.4884 279.26C76.6884 279.26 75.9751 279.507 75.3484 280C74.7351 280.48 74.3818 281.187 74.2884 282.12H80.5284C80.4884 281.227 80.1818 280.527 79.6084 280.02C79.0351 279.513 78.3284 279.26 77.4884 279.26ZM88.9152 288.24C87.9285 288.24 87.0618 288.013 86.3152 287.56C85.5818 287.107 85.0085 286.487 84.5952 285.7C84.1952 284.913 83.9952 284.02 83.9952 283.02C83.9952 282.02 84.2018 281.133 84.6152 280.36C85.0285 279.573 85.6018 278.96 86.3352 278.52C87.0685 278.067 87.9352 277.84 88.9352 277.84C89.7485 277.84 90.4685 278.007 91.0952 278.34C91.7218 278.673 92.2085 279.14 92.5552 279.74V273.6H94.2352V288H92.7152L92.5552 286.36C92.2352 286.84 91.7752 287.273 91.1752 287.66C90.5752 288.047 89.8218 288.24 88.9152 288.24ZM89.0952 286.78C89.7618 286.78 90.3485 286.627 90.8552 286.32C91.3752 286 91.7752 285.56 92.0552 285C92.3485 284.44 92.4952 283.787 92.4952 283.04C92.4952 282.293 92.3485 281.64 92.0552 281.08C91.7752 280.52 91.3752 280.087 90.8552 279.78C90.3485 279.46 89.7618 279.3 89.0952 279.3C88.4418 279.3 87.8552 279.46 87.3352 279.78C86.8285 280.087 86.4285 280.52 86.1352 281.08C85.8552 281.64 85.7152 282.293 85.7152 283.04C85.7152 283.787 85.8552 284.44 86.1352 285C86.4285 285.56 86.8285 286 87.3352 286.32C87.8552 286.627 88.4418 286.78 89.0952 286.78ZM104.267 288L101.367 278.08H103.047L105.147 285.86L107.467 278.08H109.367L111.707 285.86L113.787 278.08H115.487L112.587 288H110.867L108.427 279.82L105.987 288H104.267ZM117.345 288V273.6H119.025V279.78C119.358 279.167 119.832 278.693 120.445 278.36C121.058 278.013 121.725 277.84 122.445 277.84C123.592 277.84 124.512 278.2 125.205 278.92C125.898 279.627 126.245 280.72 126.245 282.2V288H124.585V282.38C124.585 280.313 123.752 279.28 122.085 279.28C121.218 279.28 120.492 279.593 119.905 280.22C119.318 280.833 119.025 281.713 119.025 282.86V288H117.345ZM133.25 288.24C132.303 288.24 131.463 288.027 130.73 287.6C129.997 287.16 129.417 286.553 128.99 285.78C128.577 285.007 128.37 284.093 128.37 283.04C128.37 282 128.577 281.093 128.99 280.32C129.403 279.533 129.977 278.927 130.71 278.5C131.457 278.06 132.317 277.84 133.29 277.84C134.25 277.84 135.077 278.06 135.77 278.5C136.477 278.927 137.017 279.493 137.39 280.2C137.763 280.907 137.95 281.667 137.95 282.48C137.95 282.627 137.943 282.773 137.93 282.92C137.93 283.067 137.93 283.233 137.93 283.42H130.03C130.07 284.18 130.243 284.813 130.55 285.32C130.87 285.813 131.263 286.187 131.73 286.44C132.21 286.693 132.717 286.82 133.25 286.82C133.943 286.82 134.523 286.66 134.99 286.34C135.457 286.02 135.797 285.587 136.01 285.04H137.67C137.403 285.96 136.89 286.727 136.13 287.34C135.383 287.94 134.423 288.24 133.25 288.24ZM133.25 279.26C132.45 279.26 131.737 279.507 131.11 280C130.497 280.48 130.143 281.187 130.05 282.12H136.29C136.25 281.227 135.943 280.527 135.37 280.02C134.797 279.513 134.09 279.26 133.25 279.26ZM143.477 288.24C142.65 288.24 141.964 288.1 141.417 287.82C140.87 287.54 140.464 287.167 140.197 286.7C139.93 286.233 139.797 285.727 139.797 285.18C139.797 284.167 140.184 283.387 140.957 282.84C141.73 282.293 142.784 282.02 144.117 282.02H146.797V281.9C146.797 281.033 146.57 280.38 146.117 279.94C145.664 279.487 145.057 279.26 144.297 279.26C143.644 279.26 143.077 279.427 142.597 279.76C142.13 280.08 141.837 280.553 141.717 281.18H139.997C140.064 280.46 140.304 279.853 140.717 279.36C141.144 278.867 141.67 278.493 142.297 278.24C142.924 277.973 143.59 277.84 144.297 277.84C145.684 277.84 146.724 278.213 147.417 278.96C148.124 279.693 148.477 280.673 148.477 281.9V288H146.977L146.877 286.22C146.597 286.78 146.184 287.26 145.637 287.66C145.104 288.047 144.384 288.24 143.477 288.24ZM143.737 286.82C144.377 286.82 144.924 286.653 145.377 286.32C145.844 285.987 146.197 285.553 146.437 285.02C146.677 284.487 146.797 283.927 146.797 283.34V283.32H144.257C143.27 283.32 142.57 283.493 142.157 283.84C141.757 284.173 141.557 284.593 141.557 285.1C141.557 285.62 141.744 286.04 142.117 286.36C142.504 286.667 143.044 286.82 143.737 286.82ZM154.644 288C153.737 288 153.024 287.78 152.504 287.34C151.984 286.9 151.724 286.107 151.724 284.96V279.5H150.004V278.08H151.724L151.944 275.7H153.404V278.08H156.324V279.5H153.404V284.96C153.404 285.587 153.53 286.013 153.784 286.24C154.037 286.453 154.484 286.56 155.124 286.56H156.164V288H154.644ZM164.291 288V279.5H162.791V278.08H164.291V276.36C164.291 275.4 164.531 274.7 165.011 274.26C165.491 273.82 166.191 273.6 167.111 273.6H168.111V275.04H167.371C166.864 275.04 166.504 275.147 166.291 275.36C166.078 275.56 165.971 275.907 165.971 276.4V278.08H168.411V279.5H165.971V288H164.291ZM170.411 288V273.6H172.091V288H170.411ZM178.145 288.24C177.318 288.24 176.632 288.1 176.085 287.82C175.538 287.54 175.132 287.167 174.865 286.7C174.598 286.233 174.465 285.727 174.465 285.18C174.465 284.167 174.852 283.387 175.625 282.84C176.398 282.293 177.452 282.02 178.785 282.02H181.465V281.9C181.465 281.033 181.238 280.38 180.785 279.94C180.332 279.487 179.725 279.26 178.965 279.26C178.312 279.26 177.745 279.427 177.265 279.76C176.798 280.08 176.505 280.553 176.385 281.18H174.665C174.732 280.46 174.972 279.853 175.385 279.36C175.812 278.867 176.338 278.493 176.965 278.24C177.592 277.973 178.258 277.84 178.965 277.84C180.352 277.84 181.392 278.213 182.085 278.96C182.792 279.693 183.145 280.673 183.145 281.9V288H181.645L181.545 286.22C181.265 286.78 180.852 287.26 180.305 287.66C179.772 288.047 179.052 288.24 178.145 288.24ZM178.405 286.82C179.045 286.82 179.592 286.653 180.045 286.32C180.512 285.987 180.865 285.553 181.105 285.02C181.345 284.487 181.465 283.927 181.465 283.34V283.32H178.925C177.938 283.32 177.238 283.493 176.825 283.84C176.425 284.173 176.225 284.593 176.225 285.1C176.225 285.62 176.412 286.04 176.785 286.36C177.172 286.667 177.712 286.82 178.405 286.82ZM185.665 288V273.6H187.345V282.26L191.405 278.08H193.465L189.065 282.56L194.025 288H191.885L187.345 282.86V288H185.665ZM199.481 288.24C198.534 288.24 197.694 288.027 196.961 287.6C196.227 287.16 195.647 286.553 195.221 285.78C194.807 285.007 194.601 284.093 194.601 283.04C194.601 282 194.807 281.093 195.221 280.32C195.634 279.533 196.207 278.927 196.941 278.5C197.687 278.06 198.547 277.84 199.521 277.84C200.481 277.84 201.307 278.06 202.001 278.5C202.707 278.927 203.247 279.493 203.621 280.2C203.994 280.907 204.181 281.667 204.181 282.48C204.181 282.627 204.174 282.773 204.161 282.92C204.161 283.067 204.161 283.233 204.161 283.42H196.261C196.301 284.18 196.474 284.813 196.781 285.32C197.101 285.813 197.494 286.187 197.961 286.44C198.441 286.693 198.947 286.82 199.481 286.82C200.174 286.82 200.754 286.66 201.221 286.34C201.687 286.02 202.027 285.587 202.241 285.04H203.901C203.634 285.96 203.121 286.727 202.361 287.34C201.614 287.94 200.654 288.24 199.481 288.24ZM199.481 279.26C198.681 279.26 197.967 279.507 197.341 280C196.727 280.48 196.374 281.187 196.281 282.12H202.521C202.481 281.227 202.174 280.527 201.601 280.02C201.027 279.513 200.321 279.26 199.481 279.26ZM38.68 320.24C37.8667 320.24 37.14 320.073 36.5 319.74C35.8733 319.407 35.3933 318.94 35.06 318.34L34.9 320H33.38V305.6H35.06V311.72C35.38 311.24 35.8333 310.807 36.42 310.42C37.02 310.033 37.78 309.84 38.7 309.84C39.6867 309.84 40.5467 310.067 41.28 310.52C42.0133 310.973 42.58 311.593 42.98 312.38C43.3933 313.167 43.6 314.06 43.6 315.06C43.6 316.06 43.3933 316.953 42.98 317.74C42.58 318.513 42.0067 319.127 41.26 319.58C40.5267 320.02 39.6667 320.24 38.68 320.24ZM38.5 318.78C39.1667 318.78 39.7533 318.627 40.26 318.32C40.7667 318 41.1667 317.56 41.46 317C41.7533 316.44 41.9 315.787 41.9 315.04C41.9 314.293 41.7533 313.64 41.46 313.08C41.1667 312.52 40.7667 312.087 40.26 311.78C39.7533 311.46 39.1667 311.3 38.5 311.3C37.8333 311.3 37.2467 311.46 36.74 311.78C36.2333 312.087 35.8333 312.52 35.54 313.08C35.2467 313.64 35.1 314.293 35.1 315.04C35.1 315.787 35.2467 316.44 35.54 317C35.8333 317.56 36.2333 318 36.74 318.32C37.2467 318.627 37.8333 318.78 38.5 318.78ZM45.9386 320V310.08H47.4586L47.5986 311.98C47.9053 311.327 48.3719 310.807 48.9986 310.42C49.6253 310.033 50.3986 309.84 51.3186 309.84V311.6H50.8586C50.2719 311.6 49.7319 311.707 49.2386 311.92C48.7453 312.12 48.3519 312.467 48.0586 312.96C47.7653 313.453 47.6186 314.133 47.6186 315V320H45.9386ZM57.2931 320.24C56.3465 320.24 55.5065 320.027 54.7731 319.6C54.0398 319.16 53.4598 318.553 53.0331 317.78C52.6198 317.007 52.4131 316.093 52.4131 315.04C52.4131 314 52.6198 313.093 53.0331 312.32C53.4465 311.533 54.0198 310.927 54.7531 310.5C55.4998 310.06 56.3598 309.84 57.3331 309.84C58.2931 309.84 59.1198 310.06 59.8131 310.5C60.5198 310.927 61.0598 311.493 61.4331 312.2C61.8065 312.907 61.9931 313.667 61.9931 314.48C61.9931 314.627 61.9865 314.773 61.9731 314.92C61.9731 315.067 61.9731 315.233 61.9731 315.42H54.0731C54.1131 316.18 54.2865 316.813 54.5931 317.32C54.9131 317.813 55.3065 318.187 55.7731 318.44C56.2531 318.693 56.7598 318.82 57.2931 318.82C57.9865 318.82 58.5665 318.66 59.0331 318.34C59.4998 318.02 59.8398 317.587 60.0531 317.04H61.7131C61.4465 317.96 60.9331 318.727 60.1731 319.34C59.4265 319.94 58.4665 320.24 57.2931 320.24ZM57.2931 311.26C56.4931 311.26 55.7798 311.507 55.1531 312C54.5398 312.48 54.1865 313.187 54.0931 314.12H60.3331C60.2931 313.227 59.9865 312.527 59.4131 312.02C58.8398 311.513 58.1331 311.26 57.2931 311.26ZM67.5198 320.24C66.6932 320.24 66.0065 320.1 65.4598 319.82C64.9132 319.54 64.5065 319.167 64.2398 318.7C63.9732 318.233 63.8398 317.727 63.8398 317.18C63.8398 316.167 64.2265 315.387 64.9998 314.84C65.7732 314.293 66.8265 314.02 68.1598 314.02H70.8398V313.9C70.8398 313.033 70.6132 312.38 70.1598 311.94C69.7065 311.487 69.0998 311.26 68.3398 311.26C67.6865 311.26 67.1198 311.427 66.6398 311.76C66.1732 312.08 65.8798 312.553 65.7598 313.18H64.0398C64.1065 312.46 64.3465 311.853 64.7598 311.36C65.1865 310.867 65.7132 310.493 66.3398 310.24C66.9665 309.973 67.6332 309.84 68.3398 309.84C69.7265 309.84 70.7665 310.213 71.4598 310.96C72.1665 311.693 72.5198 312.673 72.5198 313.9V320H71.0198L70.9198 318.22C70.6398 318.78 70.2265 319.26 69.6798 319.66C69.1465 320.047 68.4265 320.24 67.5198 320.24ZM67.7798 318.82C68.4198 318.82 68.9665 318.653 69.4198 318.32C69.8865 317.987 70.2398 317.553 70.4798 317.02C70.7198 316.487 70.8398 315.927 70.8398 315.34V315.32H68.2998C67.3132 315.32 66.6132 315.493 66.1998 315.84C65.7998 316.173 65.5998 316.593 65.5998 317.1C65.5998 317.62 65.7865 318.04 66.1598 318.36C66.5465 318.667 67.0865 318.82 67.7798 318.82ZM79.5402 320.24C78.5535 320.24 77.6868 320.013 76.9402 319.56C76.2068 319.107 75.6335 318.487 75.2202 317.7C74.8202 316.913 74.6202 316.02 74.6202 315.02C74.6202 314.02 74.8268 313.133 75.2402 312.36C75.6535 311.573 76.2268 310.96 76.9602 310.52C77.6935 310.067 78.5602 309.84 79.5602 309.84C80.3735 309.84 81.0935 310.007 81.7202 310.34C82.3468 310.673 82.8335 311.14 83.1802 311.74V305.6H84.8602V320H83.3402L83.1802 318.36C82.8602 318.84 82.4002 319.273 81.8002 319.66C81.2002 320.047 80.4468 320.24 79.5402 320.24ZM79.7202 318.78C80.3868 318.78 80.9735 318.627 81.4802 318.32C82.0002 318 82.4002 317.56 82.6802 317C82.9735 316.44 83.1202 315.787 83.1202 315.04C83.1202 314.293 82.9735 313.64 82.6802 313.08C82.4002 312.52 82.0002 312.087 81.4802 311.78C80.9735 311.46 80.3868 311.3 79.7202 311.3C79.0668 311.3 78.4802 311.46 77.9602 311.78C77.4535 312.087 77.0535 312.52 76.7602 313.08C76.4802 313.64 76.3402 314.293 76.3402 315.04C76.3402 315.787 76.4802 316.44 76.7602 317C77.0535 317.56 77.4535 318 77.9602 318.32C78.4802 318.627 79.0668 318.78 79.7202 318.78Z" fill="#171B1B"/>
<path d="M192.835 240V230.304L191.027 230.704V229.776L193.283 228.8H194.195V240H192.835ZM200.927 240.192C199.935 240.192 199.076 239.952 198.351 239.472C197.636 238.981 197.087 238.304 196.703 237.44C196.319 236.565 196.127 235.552 196.127 234.4C196.127 233.248 196.319 232.24 196.703 231.376C197.087 230.501 197.636 229.824 198.351 229.344C199.076 228.853 199.935 228.608 200.927 228.608C201.919 228.608 202.772 228.853 203.487 229.344C204.202 229.824 204.751 230.501 205.135 231.376C205.519 232.24 205.711 233.248 205.711 234.4C205.711 235.552 205.519 236.565 205.135 237.44C204.751 238.304 204.202 238.981 203.487 239.472C202.772 239.952 201.919 240.192 200.927 240.192ZM200.927 239.008C201.578 239.008 202.159 238.827 202.671 238.464C203.194 238.091 203.599 237.563 203.887 236.88C204.186 236.187 204.335 235.36 204.335 234.4C204.335 233.44 204.186 232.619 203.887 231.936C203.599 231.253 203.194 230.731 202.671 230.368C202.159 229.995 201.578 229.808 200.927 229.808C200.266 229.808 199.679 229.995 199.167 230.368C198.655 230.731 198.25 231.253 197.951 231.936C197.652 232.619 197.503 233.44 197.503 234.4C197.503 235.36 197.652 236.187 197.951 236.88C198.25 237.563 198.655 238.091 199.167 238.464C199.679 238.827 200.266 239.008 200.927 239.008ZM211.807 240V232.064H213.023L213.119 233.216C213.375 232.789 213.716 232.459 214.143 232.224C214.57 231.989 215.05 231.872 215.583 231.872C216.212 231.872 216.751 232 217.199 232.256C217.658 232.512 218.01 232.901 218.255 233.424C218.532 232.944 218.911 232.565 219.391 232.288C219.882 232.011 220.41 231.872 220.975 231.872C221.924 231.872 222.682 232.16 223.247 232.736C223.812 233.301 224.095 234.176 224.095 235.36V240H222.767V235.504C222.767 234.683 222.602 234.064 222.271 233.648C221.94 233.232 221.466 233.024 220.847 233.024C220.207 233.024 219.674 233.275 219.247 233.776C218.831 234.267 218.623 234.971 218.623 235.888V240H217.279V235.504C217.279 234.683 217.114 234.064 216.783 233.648C216.452 233.232 215.978 233.024 215.359 233.024C214.73 233.024 214.202 233.275 213.775 233.776C213.359 234.267 213.151 234.971 213.151 235.888V240H211.807ZM226.936 230.304C226.669 230.304 226.445 230.219 226.264 230.048C226.093 229.867 226.008 229.643 226.008 229.376C226.008 229.12 226.093 228.907 226.264 228.736C226.445 228.565 226.669 228.48 226.936 228.48C227.192 228.48 227.41 228.565 227.592 228.736C227.773 228.907 227.864 229.12 227.864 229.376C227.864 229.643 227.773 229.867 227.592 230.048C227.41 230.219 227.192 230.304 226.936 230.304ZM226.264 240V232.064H227.608V240H226.264ZM229.948 240V232.064H231.164L231.244 233.488C231.5 232.987 231.868 232.592 232.348 232.304C232.828 232.016 233.372 231.872 233.98 231.872C234.918 231.872 235.665 232.16 236.22 232.736C236.785 233.301 237.068 234.176 237.068 235.36V240H235.724V235.504C235.724 233.851 235.041 233.024 233.676 233.024C232.993 233.024 232.422 233.275 231.964 233.776C231.516 234.267 231.292 234.971 231.292 235.888V240H229.948Z" fill="#171B1B"/>
<path fill-rule="evenodd" clip-rule="evenodd" d="M177 228C173.687 228 171 230.687 171 234C171 237.313 173.687 240 177 240C180.313 240 183 237.313 183 234C183 230.687 180.313 228 177 228ZM177 229C179.757 229 182 231.243 182 234C182 236.757 179.757 239 177 239C174.243 239 172 236.757 172 234C172 231.243 174.243 229 177 229ZM177.5 231V234H180V235H176.5V231H177.5Z" fill="#171B1B"/>
<path d="M33.184 240V228.8H37.12C37.9093 228.8 38.56 228.928 39.072 229.184C39.5947 229.429 39.984 229.771 40.24 230.208C40.496 230.635 40.624 231.115 40.624 231.648C40.624 232.373 40.4267 232.944 40.032 233.36C39.648 233.776 39.184 234.064 38.64 234.224C39.056 234.299 39.4347 234.464 39.776 234.72C40.1173 234.976 40.384 235.296 40.576 235.68C40.7787 236.064 40.88 236.485 40.88 236.944C40.88 237.509 40.7413 238.027 40.464 238.496C40.1867 238.955 39.776 239.323 39.232 239.6C38.688 239.867 38.0267 240 37.248 240H33.184ZM34.528 233.696H37.024C37.7387 233.696 38.288 233.531 38.672 233.2C39.056 232.859 39.248 232.389 39.248 231.792C39.248 231.227 39.056 230.773 38.672 230.432C38.2987 230.091 37.7333 229.92 36.976 229.92H34.528V233.696ZM34.528 238.88H37.104C37.872 238.88 38.464 238.704 38.88 238.352C39.296 237.989 39.504 237.488 39.504 236.848C39.504 236.219 39.2853 235.717 38.848 235.344C38.4107 234.96 37.8187 234.768 37.072 234.768H34.528V238.88ZM45.369 240.192C44.7077 240.192 44.1583 240.08 43.721 239.856C43.2837 239.632 42.9583 239.333 42.745 238.96C42.5317 238.587 42.425 238.181 42.425 237.744C42.425 236.933 42.7343 236.309 43.353 235.872C43.9717 235.435 44.8143 235.216 45.881 235.216H48.025V235.12C48.025 234.427 47.8437 233.904 47.481 233.552C47.1183 233.189 46.633 233.008 46.025 233.008C45.5023 233.008 45.049 233.141 44.665 233.408C44.2917 233.664 44.057 234.043 43.961 234.544H42.585C42.6383 233.968 42.8303 233.483 43.161 233.088C43.5023 232.693 43.9237 232.395 44.425 232.192C44.9263 231.979 45.4597 231.872 46.025 231.872C47.1343 231.872 47.9663 232.171 48.521 232.768C49.0863 233.355 49.369 234.139 49.369 235.12V240H48.169L48.089 238.576C47.865 239.024 47.5343 239.408 47.097 239.728C46.6703 240.037 46.0943 240.192 45.369 240.192ZM45.577 239.056C46.089 239.056 46.5263 238.923 46.889 238.656C47.2623 238.389 47.545 238.043 47.737 237.616C47.929 237.189 48.025 236.741 48.025 236.272V236.256H45.993C45.2037 236.256 44.6437 236.395 44.313 236.672C43.993 236.939 43.833 237.275 43.833 237.68C43.833 238.096 43.9823 238.432 44.281 238.688C44.5903 238.933 45.0223 239.056 45.577 239.056ZM51.3853 240V228.48H52.7293V235.408L55.9773 232.064H57.6253L54.1053 235.648L58.0733 240H56.3613L52.7293 235.888V240H51.3853ZM62.4376 240.192C61.6803 240.192 61.0083 240.021 60.4216 239.68C59.835 239.328 59.371 238.843 59.0296 238.224C58.699 237.605 58.5336 236.875 58.5336 236.032C58.5336 235.2 58.699 234.475 59.0296 233.856C59.3603 233.227 59.819 232.741 60.4056 232.4C61.003 232.048 61.691 231.872 62.4696 231.872C63.2376 231.872 63.899 232.048 64.4536 232.4C65.019 232.741 65.451 233.195 65.7496 233.76C66.0483 234.325 66.1976 234.933 66.1976 235.584C66.1976 235.701 66.1923 235.819 66.1816 235.936C66.1816 236.053 66.1816 236.187 66.1816 236.336H59.8616C59.8936 236.944 60.0323 237.451 60.2776 237.856C60.5336 238.251 60.8483 238.549 61.2216 238.752C61.6056 238.955 62.011 239.056 62.4376 239.056C62.9923 239.056 63.4563 238.928 63.8296 238.672C64.203 238.416 64.475 238.069 64.6456 237.632H65.9736C65.7603 238.368 65.3496 238.981 64.7416 239.472C64.1443 239.952 63.3763 240.192 62.4376 240.192ZM62.4376 233.008C61.7976 233.008 61.227 233.205 60.7256 233.6C60.235 233.984 59.9523 234.549 59.8776 235.296H64.8696C64.8376 234.581 64.5923 234.021 64.1336 233.616C63.675 233.211 63.1096 233.008 62.4376 233.008ZM67.979 240V232.064H69.195L69.307 233.584C69.5523 233.061 69.9257 232.645 70.427 232.336C70.9283 232.027 71.547 231.872 72.283 231.872V233.28H71.915C71.4457 233.28 71.0137 233.365 70.619 233.536C70.2243 233.696 69.9097 233.973 69.675 234.368C69.4403 234.763 69.323 235.307 69.323 236V240H67.979ZM74.6555 243.52L76.6235 239.232H76.1595L73.0075 232.064H74.4635L77.0875 238.24L79.8715 232.064H81.2635L76.0635 243.52H74.6555Z" fill="#333333" fill-opacity="0.496405"/>
<rect x="300" width="270" height="352" fill="white"/>
<rect x="300" width="270" height="208" fill="#9B9B9B"/>
<mask id="mask1_0_1" style="mask-type:luminance" maskUnits="userSpaceOnUse" x="300" y="0" width="270" height="208">
<rect x="300" width="270" height="208" fill="white"/>
</mask>
<g mask="url(#mask1_0_1)">
</g>
<path d="M333.48 288V274H338.4C339.387 274 340.2 274.16 340.84 274.48C341.493 274.787 341.98 275.213 342.3 275.76C342.62 276.293 342.78 276.893 342.78 277.56C342.78 278.467 342.533 279.18 342.04 279.7C341.56 280.22 340.98 280.58 340.3 280.78C340.82 280.873 341.293 281.08 341.72 281.4C342.147 281.72 342.48 282.12 342.72 282.6C342.973 283.08 343.1 283.607 343.1 284.18C343.1 284.887 342.927 285.533 342.58 286.12C342.233 286.693 341.72 287.153 341.04 287.5C340.36 287.833 339.533 288 338.56 288H333.48ZM335.16 280.12H338.28C339.173 280.12 339.86 279.913 340.34 279.5C340.82 279.073 341.06 278.487 341.06 277.74C341.06 277.033 340.82 276.467 340.34 276.04C339.873 275.613 339.167 275.4 338.22 275.4H335.16V280.12ZM335.16 286.6H338.38C339.34 286.6 340.08 286.38 340.6 285.94C341.12 285.487 341.38 284.86 341.38 284.06C341.38 283.273 341.107 282.647 340.56 282.18C340.013 281.7 339.273 281.46 338.34 281.46H335.16V286.6ZM346.431 275.88C346.098 275.88 345.818 275.773 345.591 275.56C345.378 275.333 345.271 275.053 345.271 274.72C345.271 274.4 345.378 274.133 345.591 273.92C345.818 273.707 346.098 273.6 346.431 273.6C346.751 273.6 347.025 273.707 347.251 273.92C347.478 274.133 347.591 274.4 347.591 274.72C347.591 275.053 347.478 275.333 347.251 275.56C347.025 275.773 346.751 275.88 346.431 275.88ZM345.591 288V278.08H347.271V288H345.591ZM353.996 288.24C352.81 288.24 351.823 287.94 351.036 287.34C350.25 286.74 349.79 285.927 349.656 284.9H351.376C351.483 285.42 351.756 285.873 352.196 286.26C352.65 286.633 353.256 286.82 354.016 286.82C354.723 286.82 355.243 286.673 355.576 286.38C355.91 286.073 356.076 285.713 356.076 285.3C356.076 284.7 355.856 284.3 355.416 284.1C354.99 283.9 354.383 283.72 353.596 283.56C353.063 283.453 352.53 283.3 351.996 283.1C351.463 282.9 351.016 282.62 350.656 282.26C350.296 281.887 350.116 281.4 350.116 280.8C350.116 279.933 350.436 279.227 351.076 278.68C351.73 278.12 352.61 277.84 353.716 277.84C354.77 277.84 355.63 278.107 356.296 278.64C356.976 279.16 357.37 279.907 357.476 280.88H355.816C355.75 280.373 355.53 279.98 355.156 279.7C354.796 279.407 354.31 279.26 353.696 279.26C353.096 279.26 352.63 279.387 352.296 279.64C351.976 279.893 351.816 280.227 351.816 280.64C351.816 281.04 352.023 281.353 352.436 281.58C352.863 281.807 353.436 282 354.156 282.16C354.77 282.293 355.35 282.46 355.896 282.66C356.456 282.847 356.91 283.133 357.256 283.52C357.616 283.893 357.796 284.44 357.796 285.16C357.81 286.053 357.47 286.793 356.776 287.38C356.096 287.953 355.17 288.24 353.996 288.24ZM364.756 288.24C363.81 288.24 362.956 288.027 362.196 287.6C361.45 287.16 360.856 286.553 360.416 285.78C359.99 284.993 359.776 284.08 359.776 283.04C359.776 282 359.99 281.093 360.416 280.32C360.856 279.533 361.45 278.927 362.196 278.5C362.956 278.06 363.81 277.84 364.756 277.84C365.93 277.84 366.916 278.147 367.716 278.76C368.53 279.373 369.043 280.193 369.256 281.22H367.536C367.403 280.607 367.076 280.133 366.556 279.8C366.036 279.453 365.43 279.28 364.736 279.28C364.176 279.28 363.65 279.42 363.156 279.7C362.663 279.98 362.263 280.4 361.956 280.96C361.65 281.52 361.496 282.213 361.496 283.04C361.496 283.867 361.65 284.56 361.956 285.12C362.263 285.68 362.663 286.107 363.156 286.4C363.65 286.68 364.176 286.82 364.736 286.82C365.43 286.82 366.036 286.653 366.556 286.32C367.076 285.973 367.403 285.487 367.536 284.86H369.256C369.056 285.86 368.55 286.673 367.736 287.3C366.923 287.927 365.93 288.24 364.756 288.24ZM376.123 288.24C375.189 288.24 374.349 288.027 373.603 287.6C372.856 287.173 372.263 286.573 371.823 285.8C371.396 285.013 371.183 284.093 371.183 283.04C371.183 281.987 371.403 281.073 371.843 280.3C372.283 279.513 372.876 278.907 373.623 278.48C374.383 278.053 375.229 277.84 376.163 277.84C377.096 277.84 377.936 278.053 378.683 278.48C379.429 278.907 380.016 279.513 380.443 280.3C380.883 281.073 381.103 281.987 381.103 283.04C381.103 284.093 380.883 285.013 380.443 285.8C380.003 286.573 379.403 287.173 378.643 287.6C377.896 288.027 377.056 288.24 376.123 288.24ZM376.123 286.8C376.696 286.8 377.229 286.66 377.723 286.38C378.216 286.1 378.616 285.68 378.923 285.12C379.229 284.56 379.383 283.867 379.383 283.04C379.383 282.213 379.229 281.52 378.923 280.96C378.629 280.4 378.236 279.98 377.743 279.7C377.249 279.42 376.723 279.28 376.163 279.28C375.589 279.28 375.056 279.42 374.563 279.7C374.069 279.98 373.669 280.4 373.363 280.96C373.056 281.52 372.903 282.213 372.903 283.04C372.903 283.867 373.056 284.56 373.363 285.12C373.669 285.68 374.063 286.1 374.543 286.38C375.036 286.66 375.563 286.8 376.123 286.8ZM383.979 288V279.5H382.479V278.08H383.979V276.36C383.979 275.4 384.219 274.7 384.699 274.26C385.179 273.82 385.879 273.6 386.799 273.6H387.799V275.04H387.059C386.552 275.04 386.192 275.147 385.979 275.36C385.765 275.56 385.659 275.907 385.659 276.4V278.08H388.099V279.5H385.659V288H383.979ZM390.639 288V279.5H389.139V278.08H390.639V276.36C390.639 275.4 390.879 274.7 391.359 274.26C391.839 273.82 392.539 273.6 393.459 273.6H394.459V275.04H393.719C393.212 275.04 392.852 275.147 392.639 275.36C392.425 275.56 392.319 275.907 392.319 276.4V278.08H394.759V279.5H392.319V288H390.639ZM406.612 288.24C405.665 288.24 404.812 288.027 404.052 287.6C403.305 287.16 402.712 286.553 402.272 285.78C401.845 284.993 401.632 284.08 401.632 283.04C401.632 282 401.845 281.093 402.272 280.32C402.712 279.533 403.305 278.927 404.052 278.5C404.812 278.06 405.665 277.84 406.612 277.84C407.785 277.84 408.772 278.147 409.572 278.76C410.385 279.373 410.899 280.193 411.112 281.22H409.392C409.259 280.607 408.932 280.133 408.412 279.8C407.892 279.453 407.285 279.28 406.592 279.28C406.032 279.28 405.505 279.42 405.012 279.7C404.519 279.98 404.119 280.4 403.812 280.96C403.505 281.52 403.352 282.213 403.352 283.04C403.352 283.867 403.505 284.56 403.812 285.12C404.119 285.68 404.519 286.107 405.012 286.4C405.505 286.68 406.032 286.82 406.592 286.82C407.285 286.82 407.892 286.653 408.412 286.32C408.932 285.973 409.259 285.487 409.392 284.86H411.112C410.912 285.86 410.405 286.673 409.592 287.3C408.779 287.927 407.785 288.24 406.612 288.24ZM416.758 288.24C415.931 288.24 415.245 288.1 414.698 287.82C414.151 287.54 413.745 287.167 413.478 286.7C413.211 286.233 413.078 285.727 413.078 285.18C413.078 284.167 413.465 283.387 414.238 282.84C415.011 282.293 416.065 282.02 417.398 282.02H420.078V281.9C420.078 281.033 419.851 280.38 419.398 279.94C418.945 279.487 418.338 279.26 417.578 279.26C416.925 279.26 416.358 279.427 415.878 279.76C415.411 280.08 415.118 280.553 414.998 281.18H413.278C413.345 280.46 413.585 279.853 413.998 279.36C414.425 278.867 414.951 278.493 415.578 278.24C416.205 277.973 416.871 277.84 417.578 277.84C418.965 277.84 420.005 278.213 420.698 278.96C421.405 279.693 421.758 280.673 421.758 281.9V288H420.258L420.158 286.22C419.878 286.78 419.465 287.26 418.918 287.66C418.385 288.047 417.665 288.24 416.758 288.24ZM417.018 286.82C417.658 286.82 418.205 286.653 418.658 286.32C419.125 285.987 419.478 285.553 419.718 285.02C419.958 284.487 420.078 283.927 420.078 283.34V283.32H417.538C416.551 283.32 415.851 283.493 415.438 283.84C415.038 284.173 414.838 284.593 414.838 285.1C414.838 285.62 415.025 286.04 415.398 286.36C415.785 286.667 416.325 286.82 417.018 286.82ZM424.278 288V273.6H425.958V282.26L430.018 278.08H432.078L427.678 282.56L432.638 288H430.498L425.958 282.86V288H424.278ZM438.094 288.24C437.147 288.24 436.307 288.027 435.574 287.6C434.841 287.16 434.261 286.553 433.834 285.78C433.421 285.007 433.214 284.093 433.214 283.04C433.214 282 433.421 281.093 433.834 280.32C434.247 279.533 434.821 278.927 435.554 278.5C436.301 278.06 437.161 277.84 438.134 277.84C439.094 277.84 439.921 278.06 440.614 278.5C441.321 278.927 441.861 279.493 442.234 280.2C442.607 280.907 442.794 281.667 442.794 282.48C442.794 282.627 442.787 282.773 442.774 282.92C442.774 283.067 442.774 283.233 442.774 283.42H434.874C434.914 284.18 435.087 284.813 435.394 285.32C435.714 285.813 436.107 286.187 436.574 286.44C437.054 286.693 437.561 286.82 438.094 286.82C438.787 286.82 439.367 286.66 439.834 286.34C440.301 286.02 440.641 285.587 440.854 285.04H442.514C442.247 285.96 441.734 286.727 440.974 287.34C440.227 287.94 439.267 288.24 438.094 288.24ZM438.094 279.26C437.294 279.26 436.581 279.507 435.954 280C435.341 280.48 434.987 281.187 434.894 282.12H441.134C441.094 281.227 440.787 280.527 440.214 280.02C439.641 279.513 438.934 279.26 438.094 279.26ZM452.314 288L449.414 278.08H451.094L453.194 285.86L455.514 278.08H457.414L459.754 285.86L461.834 278.08H463.534L460.634 288H458.914L456.474 279.82L454.034 288H452.314ZM466.412 275.88C466.078 275.88 465.798 275.773 465.572 275.56C465.358 275.333 465.252 275.053 465.252 274.72C465.252 274.4 465.358 274.133 465.572 273.92C465.798 273.707 466.078 273.6 466.412 273.6C466.732 273.6 467.005 273.707 467.232 273.92C467.458 274.133 467.572 274.4 467.572 274.72C467.572 275.053 467.458 275.333 467.232 275.56C467.005 275.773 466.732 275.88 466.412 275.88ZM465.572 288V278.08H467.252V288H465.572ZM474.097 288C473.19 288 472.477 287.78 471.957 287.34C471.437 286.9 471.177 286.107 471.177 284.96V279.5H469.457V278.08H471.177L471.397 275.7H472.857V278.08H475.777V279.5H472.857V284.96C472.857 285.587 472.984 286.013 473.237 286.24C473.49 286.453 473.937 286.56 474.577 286.56H475.617V288H474.097ZM477.911 288V273.6H479.591V279.78C479.925 279.167 480.398 278.693 481.011 278.36C481.625 278.013 482.291 277.84 483.011 277.84C484.158 277.84 485.078 278.2 485.771 278.92C486.465 279.627 486.811 280.72 486.811 282.2V288H485.151V282.38C485.151 280.313 484.318 279.28 482.651 279.28C481.785 279.28 481.058 279.593 480.471 280.22C479.885 280.833 479.591 281.713 479.591 282.86V288H477.911ZM333.38 320V305.6H335.06V320H333.38ZM342.334 320.24C341.4 320.24 340.56 320.027 339.814 319.6C339.067 319.173 338.474 318.573 338.034 317.8C337.607 317.013 337.394 316.093 337.394 315.04C337.394 313.987 337.614 313.073 338.054 312.3C338.494 311.513 339.087 310.907 339.834 310.48C340.594 310.053 341.44 309.84 342.374 309.84C343.307 309.84 344.147 310.053 344.894 310.48C345.64 310.907 346.227 311.513 346.654 312.3C347.094 313.073 347.314 313.987 347.314 315.04C347.314 316.093 347.094 317.013 346.654 317.8C346.214 318.573 345.614 319.173 344.854 319.6C344.107 320.027 343.267 320.24 342.334 320.24ZM342.334 318.8C342.907 318.8 343.44 318.66 343.934 318.38C344.427 318.1 344.827 317.68 345.134 317.12C345.44 316.56 345.594 315.867 345.594 315.04C345.594 314.213 345.44 313.52 345.134 312.96C344.84 312.4 344.447 311.98 343.954 311.7C343.46 311.42 342.934 311.28 342.374 311.28C341.8 311.28 341.267 311.42 340.774 311.7C340.28 311.98 339.88 312.4 339.574 312.96C339.267 313.52 339.114 314.213 339.114 315.04C339.114 315.867 339.267 316.56 339.574 317.12C339.88 317.68 340.274 318.1 340.754 318.38C341.247 318.66 341.774 318.8 342.334 318.8ZM353.179 320C352.272 320 351.559 319.78 351.039 319.34C350.519 318.9 350.259 318.107 350.259 316.96V311.5H348.539V310.08H350.259L350.479 307.7H351.939V310.08H354.859V311.5H351.939V316.96C351.939 317.587 352.066 318.013 352.319 318.24C352.572 318.453 353.019 318.56 353.659 318.56H354.699V320H353.179ZM365.673 310.08V320H364.153L364.053 318.22C363.733 318.847 363.273 319.34 362.673 319.7C362.073 320.06 361.393 320.24 360.633 320.24C359.46 320.24 358.52 319.887 357.813 319.18C357.12 318.46 356.773 317.36 356.773 315.88V310.08H358.453V315.7C358.453 317.767 359.307 318.8 361.013 318.8C361.867 318.8 362.573 318.493 363.133 317.88C363.707 317.253 363.993 316.367 363.993 315.22V310.08H365.673ZM372.239 320.24C371.052 320.24 370.065 319.94 369.279 319.34C368.492 318.74 368.032 317.927 367.899 316.9H369.619C369.725 317.42 369.999 317.873 370.439 318.26C370.892 318.633 371.499 318.82 372.259 318.82C372.965 318.82 373.485 318.673 373.819 318.38C374.152 318.073 374.319 317.713 374.319 317.3C374.319 316.7 374.099 316.3 373.659 316.1C373.232 315.9 372.625 315.72 371.839 315.56C371.305 315.453 370.772 315.3 370.239 315.1C369.705 314.9 369.259 314.62 368.899 314.26C368.539 313.887 368.359 313.4 368.359 312.8C368.359 311.933 368.679 311.227 369.319 310.68C369.972 310.12 370.852 309.84 371.959 309.84C373.012 309.84 373.872 310.107 374.539 310.64C375.219 311.16 375.612 311.907 375.719 312.88H374.059C373.992 312.373 373.772 311.98 373.399 311.7C373.039 311.407 372.552 311.26 371.939 311.26C371.339 311.26 370.872 311.387 370.539 311.64C370.219 311.893 370.059 312.227 370.059 312.64C370.059 313.04 370.265 313.353 370.679 313.58C371.105 313.807 371.679 314 372.399 314.16C373.012 314.293 373.592 314.46 374.139 314.66C374.699 314.847 375.152 315.133 375.499 315.52C375.859 315.893 376.039 316.44 376.039 317.16C376.052 318.053 375.712 318.793 375.019 319.38C374.339 319.953 373.412 320.24 372.239 320.24ZM389.032 320.24C388.218 320.24 387.492 320.073 386.852 319.74C386.225 319.407 385.745 318.94 385.412 318.34L385.252 320H383.732V305.6H385.412V311.72C385.732 311.24 386.185 310.807 386.772 310.42C387.372 310.033 388.132 309.84 389.052 309.84C390.038 309.84 390.898 310.067 391.632 310.52C392.365 310.973 392.932 311.593 393.332 312.38C393.745 313.167 393.952 314.06 393.952 315.06C393.952 316.06 393.745 316.953 393.332 317.74C392.932 318.513 392.358 319.127 391.612 319.58C390.878 320.02 390.018 320.24 389.032 320.24ZM388.852 318.78C389.518 318.78 390.105 318.627 390.612 318.32C391.118 318 391.518 317.56 391.812 317C392.105 316.44 392.252 315.787 392.252 315.04C392.252 314.293 392.105 313.64 391.812 313.08C391.518 312.52 391.118 312.087 390.612 311.78C390.105 311.46 389.518 311.3 388.852 311.3C388.185 311.3 387.598 311.46 387.092 311.78C386.585 312.087 386.185 312.52 385.892 313.08C385.598 313.64 385.452 314.293 385.452 315.04C385.452 315.787 385.598 316.44 385.892 317C386.185 317.56 386.585 318 387.092 318.32C387.598 318.627 388.185 318.78 388.852 318.78ZM397.31 307.88C396.977 307.88 396.697 307.773 396.47 307.56C396.257 307.333 396.15 307.053 396.15 306.72C396.15 306.4 396.257 306.133 396.47 305.92C396.697 305.707 396.977 305.6 397.31 305.6C397.63 305.6 397.903 305.707 398.13 305.92C398.357 306.133 398.47 306.4 398.47 306.72C398.47 307.053 398.357 307.333 398.13 307.56C397.903 307.773 397.63 307.88 397.31 307.88ZM396.47 320V310.08H398.15V320H396.47ZM404.875 320.24C403.689 320.24 402.702 319.94 401.915 319.34C401.129 318.74 400.669 317.927 400.535 316.9H402.255C402.362 317.42 402.635 317.873 403.075 318.26C403.529 318.633 404.135 318.82 404.895 318.82C405.602 318.82 406.122 318.673 406.455 318.38C406.789 318.073 406.955 317.713 406.955 317.3C406.955 316.7 406.735 316.3 406.295 316.1C405.869 315.9 405.262 315.72 404.475 315.56C403.942 315.453 403.409 315.3 402.875 315.1C402.342 314.9 401.895 314.62 401.535 314.26C401.175 313.887 400.995 313.4 400.995 312.8C400.995 311.933 401.315 311.227 401.955 310.68C402.609 310.12 403.489 309.84 404.595 309.84C405.649 309.84 406.509 310.107 407.175 310.64C407.855 311.16 408.249 311.907 408.355 312.88H406.695C406.629 312.373 406.409 311.98 406.035 311.7C405.675 311.407 405.189 311.26 404.575 311.26C403.975 311.26 403.509 311.387 403.175 311.64C402.855 311.893 402.695 312.227 402.695 312.64C402.695 313.04 402.902 313.353 403.315 313.58C403.742 313.807 404.315 314 405.035 314.16C405.649 314.293 406.229 314.46 406.775 314.66C407.335 314.847 407.789 315.133 408.135 315.52C408.495 315.893 408.675 316.44 408.675 317.16C408.689 318.053 408.349 318.793 407.655 319.38C406.975 319.953 406.049 320.24 404.875 320.24ZM415.635 320.24C414.689 320.24 413.835 320.027 413.075 319.6C412.329 319.16 411.735 318.553 411.295 317.78C410.869 316.993 410.655 316.08 410.655 315.04C410.655 314 410.869 313.093 411.295 312.32C411.735 311.533 412.329 310.927 413.075 310.5C413.835 310.06 414.689 309.84 415.635 309.84C416.809 309.84 417.795 310.147 418.595 310.76C419.409 311.373 419.922 312.193 420.135 313.22H418.415C418.282 312.607 417.955 312.133 417.435 311.8C416.915 311.453 416.309 311.28 415.615 311.28C415.055 311.28 414.529 311.42 414.035 311.7C413.542 311.98 413.142 312.4 412.835 312.96C412.529 313.52 412.375 314.213 412.375 315.04C412.375 315.867 412.529 316.56 412.835 317.12C413.142 317.68 413.542 318.107 414.035 318.4C414.529 318.68 415.055 318.82 415.615 318.82C416.309 318.82 416.915 318.653 417.435 318.32C417.955 317.973 418.282 317.487 418.415 316.86H420.135C419.935 317.86 419.429 318.673 418.615 319.3C417.802 319.927 416.809 320.24 415.635 320.24ZM431.162 310.08V320H429.642L429.542 318.22C429.222 318.847 428.762 319.34 428.162 319.7C427.562 320.06 426.882 320.24 426.122 320.24C424.948 320.24 424.008 319.887 423.302 319.18C422.608 318.46 422.262 317.36 422.262 315.88V310.08H423.942V315.7C423.942 317.767 424.795 318.8 426.502 318.8C427.355 318.8 428.062 318.493 428.622 317.88C429.195 317.253 429.482 316.367 429.482 315.22V310.08H431.162ZM434.947 307.88C434.614 307.88 434.334 307.773 434.107 307.56C433.894 307.333 433.787 307.053 433.787 306.72C433.787 306.4 433.894 306.133 434.107 305.92C434.334 305.707 434.614 305.6 434.947 305.6C435.267 305.6 435.54 305.707 435.767 305.92C435.994 306.133 436.107 306.4 436.107 306.72C436.107 307.053 435.994 307.333 435.767 307.56C435.54 307.773 435.267 307.88 434.947 307.88ZM434.107 320V310.08H435.787V320H434.107ZM442.632 320C441.725 320 441.012 319.78 440.492 319.34C439.972 318.9 439.712 318.107 439.712 316.96V311.5H437.992V310.08H439.712L439.932 307.7H441.392V310.08H444.312V311.5H441.392V316.96C441.392 317.587 441.519 318.013 441.772 318.24C442.025 318.453 442.472 318.56 443.112 318.56H444.152V320H442.632ZM450.246 320.24C449.06 320.24 448.073 319.94 447.286 319.34C446.5 318.74 446.04 317.927 445.906 316.9H447.626C447.733 317.42 448.006 317.873 448.446 318.26C448.9 318.633 449.506 318.82 450.266 318.82C450.973 318.82 451.493 318.673 451.826 318.38C452.16 318.073 452.326 317.713 452.326 317.3C452.326 316.7 452.106 316.3 451.666 316.1C451.24 315.9 450.633 315.72 449.846 315.56C449.313 315.453 448.78 315.3 448.246 315.1C447.713 314.9 447.266 314.62 446.906 314.26C446.546 313.887 446.366 313.4 446.366 312.8C446.366 311.933 446.686 311.227 447.326 310.68C447.98 310.12 448.86 309.84 449.966 309.84C451.02 309.84 451.88 310.107 452.546 310.64C453.226 311.16 453.62 311.907 453.726 312.88H452.066C452 312.373 451.78 311.98 451.406 311.7C451.046 311.407 450.56 311.26 449.946 311.26C449.346 311.26 448.88 311.387 448.546 311.64C448.226 311.893 448.066 312.227 448.066 312.64C448.066 313.04 448.273 313.353 448.686 313.58C449.113 313.807 449.686 314 450.406 314.16C451.02 314.293 451.6 314.46 452.146 314.66C452.706 314.847 453.16 315.133 453.506 315.52C453.866 315.893 454.046 316.44 454.046 317.16C454.06 318.053 453.72 318.793 453.026 319.38C452.346 319.953 451.42 320.24 450.246 320.24Z" fill="#171B1B"/>
<path d="M500.049 240L504.498 229.952H498.354V228.8H505.874V229.808L501.474 240H500.049ZM511.807 240V232.064H513.023L513.119 233.216C513.375 232.789 513.716 232.459 514.143 232.224C514.57 231.989 515.05 231.872 515.583 231.872C516.212 231.872 516.751 232 517.199 232.256C517.658 232.512 518.01 232.901 518.255 233.424C518.532 232.944 518.911 232.565 519.391 232.288C519.882 232.011 520.41 231.872 520.975 231.872C521.924 231.872 522.682 232.16 523.247 232.736C523.812 233.301 524.095 234.176 524.095 235.36V240H522.767V235.504C522.767 234.683 522.602 234.064 522.271 233.648C521.94 233.232 521.466 233.024 520.847 233.024C520.207 233.024 519.674 233.275 519.247 233.776C518.831 234.267 518.623 234.971 518.623 235.888V240H517.279V235.504C517.279 234.683 517.114 234.064 516.783 233.648C516.452 233.232 515.978 233.024 515.359 233.024C514.73 233.024 514.202 233.275 513.775 233.776C513.359 234.267 513.151 234.971 513.151 235.888V240H511.807ZM526.936 230.304C526.669 230.304 526.445 230.219 526.264 230.048C526.093 229.867 526.008 229.643 526.008 229.376C526.008 229.12 526.093 228.907 526.264 228.736C526.445 228.565 526.669 228.48 526.936 228.48C527.192 228.48 527.41 228.565 527.592 228.736C527.773 228.907 527.864 229.12 527.864 229.376C527.864 229.643 527.773 229.867 527.592 230.048C527.41 230.219 527.192 230.304 526.936 230.304ZM526.264 240V232.064H527.608V240H526.264ZM529.948 240V232.064H531.164L531.244 233.488C531.5 232.987 531.868 232.592 532.348 232.304C532.828 232.016 533.372 231.872 533.98 231.872C534.918 231.872 535.665 232.16 536.22 232.736C536.785 233.301 537.068 234.176 537.068 235.36V240H535.724V235.504C535.724 233.851 535.041 233.024 533.676 233.024C532.993 233.024 532.422 233.275 531.964 233.776C531.516 234.267 531.292 234.971 531.292 235.888V240H529.948Z" fill="#171B1B"/>
<path fill-rule="evenodd" clip-rule="evenodd" d="M485 228C481.687 228 479 230.687 479 234C479 237.313 481.687 240 485 240C488.313 240 491 237.313 491 234C491 230.687 488.313 228 485 228ZM485 229C487.757 229 490 231.243 490 234C490 236.757 487.757 239 485 239C482.243 239 480 236.757 480 234C480 231.243 482.243 229 485 229ZM485.5 231V234H488V235H484.5V231H485.5Z" fill="#171B1B"/>
<path d="M333.184 240V228.8H337.12C337.909 228.8 338.56 228.928 339.072 229.184C339.595 229.429 339.984 229.771 340.24 230.208C340.496 230.635 340.624 231.115 340.624 231.648C340.624 232.373 340.427 232.944 340.032 233.36C339.648 233.776 339.184 234.064 338.64 234.224C339.056 234.299 339.435 234.464 339.776 234.72C340.117 234.976 340.384 235.296 340.576 235.68C340.779 236.064 340.88 236.485 340.88 236.944C340.88 237.509 340.741 238.027 340.464 238.496C340.187 238.955 339.776 239.323 339.232 239.6C338.688 239.867 338.027 240 337.248 240H333.184ZM334.528 233.696H337.024C337.739 233.696 338.288 233.531 338.672 233.2C339.056 232.859 339.248 232.389 339.248 231.792C339.248 231.227 339.056 230.773 338.672 230.432C338.299 230.091 337.733 229.92 336.976 229.92H334.528V233.696ZM334.528 238.88H337.104C337.872 238.88 338.464 238.704 338.88 238.352C339.296 237.989 339.504 237.488 339.504 236.848C339.504 236.219 339.285 235.717 338.848 235.344C338.411 234.96 337.819 234.768 337.072 234.768H334.528V238.88ZM345.369 240.192C344.708 240.192 344.158 240.08 343.721 239.856C343.284 239.632 342.958 239.333 342.745 238.96C342.532 238.587 342.425 238.181 342.425 237.744C342.425 236.933 342.734 236.309 343.353 235.872C343.972 235.435 344.814 235.216 345.881 235.216H348.025V235.12C348.025 234.427 347.844 233.904 347.481 233.552C347.118 233.189 346.633 233.008 346.025 233.008C345.502 233.008 345.049 233.141 344.665 233.408C344.292 233.664 344.057 234.043 343.961 234.544H342.585C342.638 233.968 342.83 233.483 343.161 233.088C343.502 232.693 343.924 232.395 344.425 232.192C344.926 231.979 345.46 231.872 346.025 231.872C347.134 231.872 347.966 232.171 348.521 232.768C349.086 233.355 349.369 234.139 349.369 235.12V240H348.169L348.089 238.576C347.865 239.024 347.534 239.408 347.097 239.728C346.67 240.037 346.094 240.192 345.369 240.192ZM345.577 239.056C346.089 239.056 346.526 238.923 346.889 238.656C347.262 238.389 347.545 238.043 347.737 237.616C347.929 237.189 348.025 236.741 348.025 236.272V236.256H345.993C345.204 236.256 344.644 236.395 344.313 236.672C343.993 236.939 343.833 237.275 343.833 237.68C343.833 238.096 343.982 238.432 344.281 238.688C344.59 238.933 345.022 239.056 345.577 239.056ZM351.385 240V228.48H352.729V235.408L355.977 232.064H357.625L354.105 235.648L358.073 240H356.361L352.729 235.888V240H351.385ZM362.438 240.192C361.68 240.192 361.008 240.021 360.422 239.68C359.835 239.328 359.371 238.843 359.03 238.224C358.699 237.605 358.534 236.875 358.534 236.032C358.534 235.2 358.699 234.475 359.03 233.856C359.36 233.227 359.819 232.741 360.406 232.4C361.003 232.048 361.691 231.872 362.47 231.872C363.238 231.872 363.899 232.048 364.454 232.4C365.019 232.741 365.451 233.195 365.75 233.76C366.048 234.325 366.198 234.933 366.198 235.584C366.198 235.701 366.192 235.819 366.182 235.936C366.182 236.053 366.182 236.187 366.182 236.336H359.862C359.894 236.944 360.032 237.451 360.278 237.856C360.534 238.251 360.848 238.549 361.222 238.752C361.606 238.955 362.011 239.056 362.438 239.056C362.992 239.056 363.456 238.928 363.83 238.672C364.203 238.416 364.475 238.069 364.646 237.632H365.974C365.76 238.368 365.35 238.981 364.742 239.472C364.144 239.952 363.376 240.192 362.438 240.192ZM362.438 233.008C361.798 233.008 361.227 233.205 360.726 233.6C360.235 233.984 359.952 234.549 359.878 235.296H364.87C364.838 234.581 364.592 234.021 364.134 233.616C363.675 233.211 363.11 233.008 362.438 233.008ZM367.979 240V232.064H369.195L369.307 233.584C369.552 233.061 369.926 232.645 370.427 232.336C370.928 232.027 371.547 231.872 372.283 231.872V233.28H371.915C371.446 233.28 371.014 233.365 370.619 233.536C370.224 233.696 369.91 233.973 369.675 234.368C369.44 234.763 369.323 235.307 369.323 236V240H367.979ZM374.656 243.52L376.624 239.232H376.16L373.008 232.064H374.464L377.088 238.24L379.872 232.064H381.264L376.064 243.52H374.656Z" fill="#333333" fill-opacity="0.496405"/>
<rect y="384" width="270" height="352" fill="white"/>
<rect y="384" width="270" height="208" fill="#9B9B9B"/>
<mask id="mask2_0_1" style="mask-type:luminance" maskUnits="userSpaceOnUse" x="0" y="384" width="270" height="208">
<rect y="384" width="270" height="208" fill="white"/>
</mask>
<g mask="url(#mask2_0_1)">
</g>
<path d="M33.48 672V658H38.08C39.1733 658 40.0733 658.18 40.78 658.54C41.4867 658.9 42.0067 659.387 42.34 660C42.6867 660.613 42.86 661.307 42.86 662.08C42.86 662.84 42.6933 663.527 42.36 664.14C42.0267 664.753 41.5067 665.247 40.8 665.62C40.0933 665.98 39.1867 666.16 38.08 666.16H35.16V672H33.48ZM35.16 664.74H38.04C39.16 664.74 39.9533 664.507 40.42 664.04C40.9 663.56 41.14 662.907 41.14 662.08C41.14 661.24 40.9 660.587 40.42 660.12C39.9533 659.64 39.16 659.4 38.04 659.4H35.16V664.74ZM48.8361 672.24C47.8894 672.24 47.0494 672.027 46.3161 671.6C45.5828 671.16 45.0028 670.553 44.5761 669.78C44.1628 669.007 43.9561 668.093 43.9561 667.04C43.9561 666 44.1628 665.093 44.5761 664.32C44.9894 663.533 45.5628 662.927 46.2961 662.5C47.0428 662.06 47.9028 661.84 48.8761 661.84C49.8361 661.84 50.6628 662.06 51.3561 662.5C52.0628 662.927 52.6028 663.493 52.9761 664.2C53.3494 664.907 53.5361 665.667 53.5361 666.48C53.5361 666.627 53.5294 666.773 53.5161 666.92C53.5161 667.067 53.5161 667.233 53.5161 667.42H45.6161C45.6561 668.18 45.8294 668.813 46.1361 669.32C46.4561 669.813 46.8494 670.187 47.3161 670.44C47.7961 670.693 48.3028 670.82 48.8361 670.82C49.5294 670.82 50.1094 670.66 50.5761 670.34C51.0428 670.02 51.3828 669.587 51.5961 669.04H53.2561C52.9894 669.96 52.4761 670.727 51.7161 671.34C50.9694 671.94 50.0094 672.24 48.8361 672.24ZM48.8361 663.26C48.0361 663.26 47.3228 663.507 46.6961 664C46.0828 664.48 45.7294 665.187 45.6361 666.12H51.8761C51.8361 665.227 51.5294 664.527 50.9561 664.02C50.3828 663.513 49.6761 663.26 48.8361 663.26ZM59.0628 672.24C58.2361 672.24 57.5495 672.1 57.0028 671.82C56.4561 671.54 56.0495 671.167 55.7828 670.7C55.5161 670.233 55.3828 669.727 55.3828 669.18C55.3828 668.167 55.7695 667.387 56.5428 666.84C57.3161 666.293 58.3695 666.02 59.7028 666.02H62.3828V665.9C62.3828 665.033 62.1561 664.38 61.7028 663.94C61.2495 663.487 60.6428 663.26 59.8828 663.26C59.2295 663.26 58.6628 663.427 58.1828 663.76C57.7161 664.08 57.4228 664.553 57.3028 665.18H55.5828C55.6495 664.46 55.8895 663.853 56.3028 663.36C56.7295 662.867 57.2561 662.493 57.8828 662.24C58.5095 661.973 59.1761 661.84 59.8828 661.84C61.2695 661.84 62.3095 662.213 63.0028 662.96C63.7095 663.693 64.0628 664.673 64.0628 665.9V672H62.5628L62.4628 670.22C62.1828 670.78 61.7695 671.26 61.2228 671.66C60.6895 672.047 59.9695 672.24 59.0628 672.24ZM59.3228 670.82C59.9628 670.82 60.5095 670.653 60.9628 670.32C61.4295 669.987 61.7828 669.553 62.0228 669.02C62.2628 668.487 62.3828 667.927 62.3828 667.34V667.32H59.8428C58.8561 667.32 58.1561 667.493 57.7428 667.84C57.3428 668.173 57.1428 668.593 57.1428 669.1C57.1428 669.62 57.3295 670.04 57.7028 670.36C58.0895 670.667 58.6295 670.82 59.3228 670.82ZM66.5831 672V662.08H68.1031L68.2031 663.86C68.5231 663.233 68.9831 662.74 69.5831 662.38C70.1831 662.02 70.8631 661.84 71.6231 661.84C72.7965 661.84 73.7298 662.2 74.4231 662.92C75.1298 663.627 75.4831 664.72 75.4831 666.2V672H73.8031V666.38C73.8031 664.313 72.9498 663.28 71.2431 663.28C70.3898 663.28 69.6765 663.593 69.1031 664.22C68.5431 664.833 68.2631 665.713 68.2631 666.86V672H66.5831ZM86.7084 662.08V672H85.1884L85.0884 670.22C84.7684 670.847 84.3084 671.34 83.7084 671.7C83.1084 672.06 82.4284 672.24 81.6684 672.24C80.4951 672.24 79.5551 671.887 78.8484 671.18C78.1551 670.46 77.8084 669.36 77.8084 667.88V662.08H79.4884V667.7C79.4884 669.767 80.3418 670.8 82.0484 670.8C82.9018 670.8 83.6084 670.493 84.1684 669.88C84.7418 669.253 85.0284 668.367 85.0284 667.22V662.08H86.7084ZM93.3938 672C92.4871 672 91.7738 671.78 91.2538 671.34C90.7338 670.9 90.4738 670.107 90.4738 668.96V663.5H88.7537V662.08H90.4738L90.6938 659.7H92.1538V662.08H95.0738V663.5H92.1538V668.96C92.1538 669.587 92.2804 670.013 92.5338 670.24C92.7871 670.453 93.2338 670.56 93.8738 670.56H94.9138V672H93.3938ZM107.801 672.24C106.988 672.24 106.261 672.073 105.621 671.74C104.994 671.407 104.514 670.94 104.181 670.34L104.021 672H102.501V657.6H104.181V663.72C104.501 663.24 104.954 662.807 105.541 662.42C106.141 662.033 106.901 661.84 107.821 661.84C108.808 661.84 109.668 662.067 110.401 662.52C111.134 662.973 111.701 663.593 112.101 664.38C112.514 665.167 112.721 666.06 112.721 667.06C112.721 668.06 112.514 668.953 112.101 669.74C111.701 670.513 111.128 671.127 110.381 671.58C109.648 672.02 108.788 672.24 107.801 672.24ZM107.621 670.78C108.288 670.78 108.874 670.627 109.381 670.32C109.888 670 110.288 669.56 110.581 669C110.874 668.44 111.021 667.787 111.021 667.04C111.021 666.293 110.874 665.64 110.581 665.08C110.288 664.52 109.888 664.087 109.381 663.78C108.874 663.46 108.288 663.3 107.621 663.3C106.954 663.3 106.368 663.46 105.861 663.78C105.354 664.087 104.954 664.52 104.661 665.08C104.368 665.64 104.221 666.293 104.221 667.04C104.221 667.787 104.368 668.44 104.661 669C104.954 669.56 105.354 670 105.861 670.32C106.368 670.627 106.954 670.78 107.621 670.78ZM123.74 662.08V672H122.22L122.12 670.22C121.8 670.847 121.34 671.34 120.74 671.7C120.14 672.06 119.46 672.24 118.7 672.24C117.526 672.24 116.586 671.887 115.88 671.18C115.186 670.46 114.84 669.36 114.84 667.88V662.08H116.52V667.7C116.52 669.767 117.373 670.8 119.08 670.8C119.933 670.8 120.64 670.493 121.2 669.88C121.773 669.253 122.06 668.367 122.06 667.22V662.08H123.74ZM130.425 672C129.518 672 128.805 671.78 128.285 671.34C127.765 670.9 127.505 670.107 127.505 668.96V663.5H125.785V662.08H127.505L127.725 659.7H129.185V662.08H132.105V663.5H129.185V668.96C129.185 669.587 129.312 670.013 129.565 670.24C129.818 670.453 130.265 670.56 130.905 670.56H131.945V672H130.425ZM138.159 672C137.253 672 136.539 671.78 136.019 671.34C135.499 670.9 135.239 670.107 135.239 668.96V663.5H133.519V662.08H135.239L135.459 659.7H136.919V662.08H139.839V663.5H136.919V668.96C136.919 669.587 137.046 670.013 137.299 670.24C137.553 670.453 137.999 670.56 138.639 670.56H139.679V672H138.159ZM146.16 672.24C145.214 672.24 144.374 672.027 143.64 671.6C142.907 671.16 142.327 670.553 141.9 669.78C141.487 669.007 141.28 668.093 141.28 667.04C141.28 666 141.487 665.093 141.9 664.32C142.314 663.533 142.887 662.927 143.62 662.5C144.367 662.06 145.227 661.84 146.2 661.84C147.16 661.84 147.987 662.06 148.68 662.5C149.387 662.927 149.927 663.493 150.3 664.2C150.674 664.907 150.86 665.667 150.86 666.48C150.86 666.627 150.854 666.773 150.84 666.92C150.84 667.067 150.84 667.233 150.84 667.42H142.94C142.98 668.18 143.154 668.813 143.46 669.32C143.78 669.813 144.174 670.187 144.64 670.44C145.12 670.693 145.627 670.82 146.16 670.82C146.854 670.82 147.434 670.66 147.9 670.34C148.367 670.02 148.707 669.587 148.92 669.04H150.58C150.314 669.96 149.8 670.727 149.04 671.34C148.294 671.94 147.334 672.24 146.16 672.24ZM146.16 663.26C145.36 663.26 144.647 663.507 144.02 664C143.407 664.48 143.054 665.187 142.96 666.12H149.2C149.16 665.227 148.854 664.527 148.28 664.02C147.707 663.513 147 663.26 146.16 663.26ZM153.087 672V662.08H154.607L154.747 663.98C155.054 663.327 155.52 662.807 156.147 662.42C156.774 662.033 157.547 661.84 158.467 661.84V663.6H158.007C157.42 663.6 156.88 663.707 156.387 663.92C155.894 664.12 155.5 664.467 155.207 664.96C154.914 665.453 154.767 666.133 154.767 667V672H153.087ZM168.946 672.24C168.119 672.24 167.432 672.1 166.886 671.82C166.339 671.54 165.932 671.167 165.666 670.7C165.399 670.233 165.266 669.727 165.266 669.18C165.266 668.167 165.652 667.387 166.426 666.84C167.199 666.293 168.252 666.02 169.586 666.02H172.266V665.9C172.266 665.033 172.039 664.38 171.586 663.94C171.132 663.487 170.526 663.26 169.766 663.26C169.112 663.26 168.546 663.427 168.066 663.76C167.599 664.08 167.306 664.553 167.186 665.18H165.466C165.532 664.46 165.772 663.853 166.186 663.36C166.612 662.867 167.139 662.493 167.766 662.24C168.392 661.973 169.059 661.84 169.766 661.84C171.152 661.84 172.192 662.213 172.886 662.96C173.592 663.693 173.946 664.673 173.946 665.9V672H172.446L172.346 670.22C172.066 670.78 171.652 671.26 171.106 671.66C170.572 672.047 169.852 672.24 168.946 672.24ZM169.206 670.82C169.846 670.82 170.392 670.653 170.846 670.32C171.312 669.987 171.666 669.553 171.906 669.02C172.146 668.487 172.266 667.927 172.266 667.34V667.32H169.726C168.739 667.32 168.039 667.493 167.626 667.84C167.226 668.173 167.026 668.593 167.026 669.1C167.026 669.62 167.212 670.04 167.586 670.36C167.972 670.667 168.512 670.82 169.206 670.82ZM176.466 672V662.08H177.986L178.086 663.86C178.406 663.233 178.866 662.74 179.466 662.38C180.066 662.02 180.746 661.84 181.506 661.84C182.679 661.84 183.613 662.2 184.306 662.92C185.013 663.627 185.366 664.72 185.366 666.2V672H183.686V666.38C183.686 664.313 182.833 663.28 181.126 663.28C180.273 663.28 179.559 663.593 178.986 664.22C178.426 664.833 178.146 665.713 178.146 666.86V672H176.466ZM192.411 672.24C191.425 672.24 190.558 672.013 189.811 671.56C189.078 671.107 188.505 670.487 188.091 669.7C187.691 668.913 187.491 668.02 187.491 667.02C187.491 666.02 187.698 665.133 188.111 664.36C188.525 663.573 189.098 662.96 189.831 662.52C190.565 662.067 191.431 661.84 192.431 661.84C193.245 661.84 193.965 662.007 194.591 662.34C195.218 662.673 195.705 663.14 196.051 663.74V657.6H197.731V672H196.211L196.051 670.36C195.731 670.84 195.271 671.273 194.671 671.66C194.071 672.047 193.318 672.24 192.411 672.24ZM192.591 670.78C193.258 670.78 193.845 670.627 194.351 670.32C194.871 670 195.271 669.56 195.551 669C195.845 668.44 195.991 667.787 195.991 667.04C195.991 666.293 195.845 665.64 195.551 665.08C195.271 664.52 194.871 664.087 194.351 663.78C193.845 663.46 193.258 663.3 192.591 663.3C191.938 663.3 191.351 663.46 190.831 663.78C190.325 664.087 189.925 664.52 189.631 665.08C189.351 665.64 189.211 666.293 189.211 667.04C189.211 667.787 189.351 668.44 189.631 669C189.925 669.56 190.325 670 190.831 670.32C191.351 670.627 191.938 670.78 192.591 670.78ZM37.94 704.24C36.9933 704.24 36.14 704.027 35.38 703.6C34.6333 703.16 34.04 702.553 33.6 701.78C33.1733 700.993 32.96 700.08 32.96 699.04C32.96 698 33.1733 697.093 33.6 696.32C34.04 695.533 34.6333 694.927 35.38 694.5C36.14 694.06 36.9933 693.84 37.94 693.84C39.1133 693.84 40.1 694.147 40.9 694.76C41.7133 695.373 42.2267 696.193 42.44 697.22H40.72C40.5867 696.607 40.26 696.133 39.74 695.8C39.22 695.453 38.6133 695.28 37.92 695.28C37.36 695.28 36.8333 695.42 36.34 695.7C35.8467 695.98 35.4467 696.4 35.14 696.96C34.8333 697.52 34.68 698.213 34.68 699.04C34.68 699.867 34.8333 700.56 35.14 701.12C35.4467 701.68 35.8467 702.107 36.34 702.4C36.8333 702.68 37.36 702.82 37.92 702.82C38.6133 702.82 39.22 702.653 39.74 702.32C40.26 701.973 40.5867 701.487 40.72 700.86H42.44C42.24 701.86 41.7333 702.673 40.92 703.3C40.1067 703.927 39.1133 704.24 37.94 704.24ZM44.7863 704V689.6H46.4663V695.78C46.7996 695.167 47.2729 694.693 47.8863 694.36C48.4996 694.013 49.1663 693.84 49.8863 693.84C51.0329 693.84 51.9529 694.2 52.6463 694.92C53.3396 695.627 53.6862 696.72 53.6862 698.2V704H52.0263V698.38C52.0263 696.313 51.1929 695.28 49.5263 695.28C48.6596 695.28 47.9329 695.593 47.3463 696.22C46.7596 696.833 46.4663 697.713 46.4663 698.86V704H44.7863ZM60.7516 704.24C59.8182 704.24 58.9782 704.027 58.2316 703.6C57.4849 703.173 56.8916 702.573 56.4516 701.8C56.0249 701.013 55.8116 700.093 55.8116 699.04C55.8116 697.987 56.0316 697.073 56.4716 696.3C56.9116 695.513 57.5049 694.907 58.2516 694.48C59.0116 694.053 59.8582 693.84 60.7916 693.84C61.7249 693.84 62.5649 694.053 63.3116 694.48C64.0582 694.907 64.6449 695.513 65.0716 696.3C65.5116 697.073 65.7316 697.987 65.7316 699.04C65.7316 700.093 65.5116 701.013 65.0716 701.8C64.6316 702.573 64.0316 703.173 63.2716 703.6C62.5249 704.027 61.6849 704.24 60.7516 704.24ZM60.7516 702.8C61.3249 702.8 61.8582 702.66 62.3516 702.38C62.8449 702.1 63.2449 701.68 63.5516 701.12C63.8582 700.56 64.0116 699.867 64.0116 699.04C64.0116 698.213 63.8582 697.52 63.5516 696.96C63.2582 696.4 62.8649 695.98 62.3716 695.7C61.8782 695.42 61.3516 695.28 60.7916 695.28C60.2182 695.28 59.6849 695.42 59.1916 695.7C58.6982 695.98 58.2982 696.4 57.9916 696.96C57.6849 697.52 57.5316 698.213 57.5316 699.04C57.5316 699.867 57.6849 700.56 57.9916 701.12C58.2982 701.68 58.6916 702.1 59.1716 702.38C59.6649 702.66 60.1916 702.8 60.7516 702.8ZM72.6275 704.24C71.6808 704.24 70.8275 704.027 70.0675 703.6C69.3208 703.16 68.7275 702.553 68.2875 701.78C67.8608 700.993 67.6475 700.08 67.6475 699.04C67.6475 698 67.8608 697.093 68.2875 696.32C68.7275 695.533 69.3208 694.927 70.0675 694.5C70.8275 694.06 71.6808 693.84 72.6275 693.84C73.8008 693.84 74.7875 694.147 75.5875 694.76C76.4008 695.373 76.9142 696.193 77.1275 697.22H75.4075C75.2742 696.607 74.9475 696.133 74.4275 695.8C73.9075 695.453 73.3008 695.28 72.6075 695.28C72.0475 695.28 71.5208 695.42 71.0275 695.7C70.5342 695.98 70.1342 696.4 69.8275 696.96C69.5208 697.52 69.3675 698.213 69.3675 699.04C69.3675 699.867 69.5208 700.56 69.8275 701.12C70.1342 701.68 70.5342 702.107 71.0275 702.4C71.5208 702.68 72.0475 702.82 72.6075 702.82C73.3008 702.82 73.9075 702.653 74.4275 702.32C74.9475 701.973 75.2742 701.487 75.4075 700.86H77.1275C76.9275 701.86 76.4208 702.673 75.6075 703.3C74.7942 703.927 73.8008 704.24 72.6275 704.24ZM83.9938 704.24C83.0604 704.24 82.2204 704.027 81.4738 703.6C80.7271 703.173 80.1338 702.573 79.6938 701.8C79.2671 701.013 79.0538 700.093 79.0538 699.04C79.0538 697.987 79.2738 697.073 79.7138 696.3C80.1538 695.513 80.7471 694.907 81.4938 694.48C82.2538 694.053 83.1004 693.84 84.0338 693.84C84.9671 693.84 85.8071 694.053 86.5538 694.48C87.3004 694.907 87.8871 695.513 88.3138 696.3C88.7538 697.073 88.9738 697.987 88.9738 699.04C88.9738 700.093 88.7538 701.013 88.3138 701.8C87.8738 702.573 87.2738 703.173 86.5138 703.6C85.7671 704.027 84.9271 704.24 83.9938 704.24ZM83.9938 702.8C84.5671 702.8 85.1004 702.66 85.5938 702.38C86.0871 702.1 86.4871 701.68 86.7938 701.12C87.1004 700.56 87.2538 699.867 87.2538 699.04C87.2538 698.213 87.1004 697.52 86.7938 696.96C86.5004 696.4 86.1071 695.98 85.6138 695.7C85.1204 695.42 84.5938 695.28 84.0338 695.28C83.4604 695.28 82.9271 695.42 82.4338 695.7C81.9404 695.98 81.5404 696.4 81.2338 696.96C80.9271 697.52 80.7738 698.213 80.7738 699.04C80.7738 699.867 80.9271 700.56 81.2338 701.12C81.5404 701.68 81.9338 702.1 82.4138 702.38C82.9071 702.66 83.4338 702.8 83.9938 702.8ZM91.3097 704V689.6H92.9897V704H91.3097ZM99.0433 704.24C98.2166 704.24 97.5299 704.1 96.9833 703.82C96.4366 703.54 96.0299 703.167 95.7633 702.7C95.4966 702.233 95.3633 701.727 95.3633 701.18C95.3633 700.167 95.7499 699.387 96.5233 698.84C97.2966 698.293 98.3499 698.02 99.6833 698.02H102.363V697.9C102.363 697.033 102.137 696.38 101.683 695.94C101.23 695.487 100.623 695.26 99.8633 695.26C99.2099 695.26 98.6433 695.427 98.1633 695.76C97.6966 696.08 97.4033 696.553 97.2833 697.18H95.5633C95.6299 696.46 95.8699 695.853 96.2833 695.36C96.7099 694.867 97.2366 694.493 97.8633 694.24C98.4899 693.973 99.1566 693.84 99.8633 693.84C101.25 693.84 102.29 694.213 102.983 694.96C103.69 695.693 104.043 696.673 104.043 697.9V704H102.543L102.443 702.22C102.163 702.78 101.75 703.26 101.203 703.66C100.67 704.047 99.9499 704.24 99.0433 704.24ZM99.3033 702.82C99.9433 702.82 100.49 702.653 100.943 702.32C101.41 701.987 101.763 701.553 102.003 701.02C102.243 700.487 102.363 699.927 102.363 699.34V699.32H99.8233C98.8366 699.32 98.1366 699.493 97.7233 699.84C97.3233 700.173 97.1233 700.593 97.1233 701.1C97.1233 701.62 97.3099 702.04 97.6833 702.36C98.0699 702.667 98.6099 702.82 99.3033 702.82ZM110.21 704C109.303 704 108.59 703.78 108.07 703.34C107.55 702.9 107.29 702.107 107.29 700.96V695.5H105.57V694.08H107.29L107.51 691.7H108.97V694.08H111.89V695.5H108.97V700.96C108.97 701.587 109.097 702.013 109.35 702.24C109.603 702.453 110.05 702.56 110.69 702.56H111.73V704H110.21ZM118.211 704.24C117.264 704.24 116.424 704.027 115.691 703.6C114.958 703.16 114.378 702.553 113.951 701.78C113.538 701.007 113.331 700.093 113.331 699.04C113.331 698 113.538 697.093 113.951 696.32C114.364 695.533 114.938 694.927 115.671 694.5C116.418 694.06 117.278 693.84 118.251 693.84C119.211 693.84 120.038 694.06 120.731 694.5C121.438 694.927 121.978 695.493 122.351 696.2C122.724 696.907 122.911 697.667 122.911 698.48C122.911 698.627 122.904 698.773 122.891 698.92C122.891 699.067 122.891 699.233 122.891 699.42H114.991C115.031 700.18 115.204 700.813 115.511 701.32C115.831 701.813 116.224 702.187 116.691 702.44C117.171 702.693 117.678 702.82 118.211 702.82C118.904 702.82 119.484 702.66 119.951 702.34C120.418 702.02 120.758 701.587 120.971 701.04H122.631C122.364 701.96 121.851 702.727 121.091 703.34C120.344 703.94 119.384 704.24 118.211 704.24ZM118.211 695.26C117.411 695.26 116.698 695.507 116.071 696C115.458 696.48 115.104 697.187 115.011 698.12H121.251C121.211 697.227 120.904 696.527 120.331 696.02C119.758 695.513 119.051 695.26 118.211 695.26ZM134.991 704.24C134.044 704.24 133.191 704.027 132.431 703.6C131.684 703.16 131.091 702.553 130.651 701.78C130.224 700.993 130.011 700.08 130.011 699.04C130.011 698 130.224 697.093 130.651 696.32C131.091 695.533 131.684 694.927 132.431 694.5C133.191 694.06 134.044 693.84 134.991 693.84C136.164 693.84 137.151 694.147 137.951 694.76C138.764 695.373 139.277 696.193 139.491 697.22H137.771C137.637 696.607 137.311 696.133 136.791 695.8C136.271 695.453 135.664 695.28 134.971 695.28C134.411 695.28 133.884 695.42 133.391 695.7C132.897 695.98 132.497 696.4 132.191 696.96C131.884 697.52 131.731 698.213 131.731 699.04C131.731 699.867 131.884 700.56 132.191 701.12C132.497 701.68 132.897 702.107 133.391 702.4C133.884 702.68 134.411 702.82 134.971 702.82C135.664 702.82 136.271 702.653 136.791 702.32C137.311 701.973 137.637 701.487 137.771 700.86H139.491C139.291 701.86 138.784 702.673 137.971 703.3C137.157 703.927 136.164 704.24 134.991 704.24ZM145.137 704.24C144.31 704.24 143.624 704.1 143.077 703.82C142.53 703.54 142.124 703.167 141.857 702.7C141.59 702.233 141.457 701.727 141.457 701.18C141.457 700.167 141.844 699.387 142.617 698.84C143.39 698.293 144.444 698.02 145.777 698.02H148.457V697.9C148.457 697.033 148.23 696.38 147.777 695.94C147.324 695.487 146.717 695.26 145.957 695.26C145.304 695.26 144.737 695.427 144.257 695.76C143.79 696.08 143.497 696.553 143.377 697.18H141.657C141.724 696.46 141.964 695.853 142.377 695.36C142.804 694.867 143.33 694.493 143.957 694.24C144.584 693.973 145.25 693.84 145.957 693.84C147.344 693.84 148.384 694.213 149.077 694.96C149.784 695.693 150.137 696.673 150.137 697.9V704H148.637L148.537 702.22C148.257 702.78 147.844 703.26 147.297 703.66C146.764 704.047 146.044 704.24 145.137 704.24ZM145.397 702.82C146.037 702.82 146.584 702.653 147.037 702.32C147.504 701.987 147.857 701.553 148.097 701.02C148.337 700.487 148.457 699.927 148.457 699.34V699.32H145.917C144.93 699.32 144.23 699.493 143.817 699.84C143.417 700.173 143.217 700.593 143.217 701.1C143.217 701.62 143.404 702.04 143.777 702.36C144.164 702.667 144.704 702.82 145.397 702.82ZM152.657 704V689.6H154.337V698.26L158.397 694.08H160.457L156.057 698.56L161.017 704H158.877L154.337 698.86V704H152.657ZM166.473 704.24C165.526 704.24 164.686 704.027 163.953 703.6C163.219 703.16 162.639 702.553 162.213 701.78C161.799 701.007 161.593 700.093 161.593 699.04C161.593 698 161.799 697.093 162.213 696.32C162.626 695.533 163.199 694.927 163.933 694.5C164.679 694.06 165.539 693.84 166.513 693.84C167.473 693.84 168.299 694.06 168.993 694.5C169.699 694.927 170.239 695.493 170.613 696.2C170.986 696.907 171.173 697.667 171.173 698.48C171.173 698.627 171.166 698.773 171.153 698.92C171.153 699.067 171.153 699.233 171.153 699.42H163.253C163.293 700.18 163.466 700.813 163.773 701.32C164.093 701.813 164.486 702.187 164.953 702.44C165.433 702.693 165.939 702.82 166.473 702.82C167.166 702.82 167.746 702.66 168.213 702.34C168.679 702.02 169.019 701.587 169.233 701.04H170.893C170.626 701.96 170.113 702.727 169.353 703.34C168.606 703.94 167.646 704.24 166.473 704.24ZM166.473 695.26C165.673 695.26 164.959 695.507 164.333 696C163.719 696.48 163.366 697.187 163.273 698.12H169.513C169.473 697.227 169.166 696.527 168.593 696.02C168.019 695.513 167.313 695.26 166.473 695.26Z" fill="#171B1B"/>
<path d="M201.664 624.192C200.896 624.192 200.229 624.053 199.664 623.776C199.099 623.499 198.645 623.12 198.304 622.64C197.973 622.149 197.771 621.595 197.696 620.976H199.008C199.136 621.595 199.435 622.096 199.904 622.48C200.373 622.853 200.965 623.04 201.68 623.04C202.213 623.04 202.672 622.917 203.056 622.672C203.44 622.416 203.733 622.075 203.936 621.648C204.149 621.221 204.256 620.747 204.256 620.224C204.256 619.392 204.021 618.72 203.552 618.208C203.083 617.696 202.475 617.44 201.728 617.44C201.109 617.44 200.581 617.579 200.144 617.856C199.707 618.133 199.387 618.496 199.184 618.944H197.904L198.864 612.8H204.736V613.968H199.904L199.248 617.376C199.504 617.067 199.856 616.811 200.304 616.608C200.763 616.405 201.285 616.304 201.872 616.304C202.608 616.304 203.248 616.475 203.792 616.816C204.347 617.157 204.779 617.621 205.088 618.208C205.397 618.795 205.552 619.461 205.552 620.208C205.552 620.923 205.397 621.584 205.088 622.192C204.789 622.8 204.347 623.285 203.76 623.648C203.184 624.011 202.485 624.192 201.664 624.192ZM211.807 624V616.064H213.023L213.119 617.216C213.375 616.789 213.716 616.459 214.143 616.224C214.57 615.989 215.05 615.872 215.583 615.872C216.212 615.872 216.751 616 217.199 616.256C217.658 616.512 218.01 616.901 218.255 617.424C218.532 616.944 218.911 616.565 219.391 616.288C219.882 616.011 220.41 615.872 220.975 615.872C221.924 615.872 222.682 616.16 223.247 616.736C223.812 617.301 224.095 618.176 224.095 619.36V624H222.767V619.504C222.767 618.683 222.602 618.064 222.271 617.648C221.94 617.232 221.466 617.024 220.847 617.024C220.207 617.024 219.674 617.275 219.247 617.776C218.831 618.267 218.623 618.971 218.623 619.888V624H217.279V619.504C217.279 618.683 217.114 618.064 216.783 617.648C216.452 617.232 215.978 617.024 215.359 617.024C214.73 617.024 214.202 617.275 213.775 617.776C213.359 618.267 213.151 618.971 213.151 619.888V624H211.807ZM226.936 614.304C226.669 614.304 226.445 614.219 226.264 614.048C226.093 613.867 226.008 613.643 226.008 613.376C226.008 613.12 226.093 612.907 226.264 612.736C226.445 612.565 226.669 612.48 226.936 612.48C227.192 612.48 227.41 612.565 227.592 612.736C227.773 612.907 227.864 613.12 227.864 613.376C227.864 613.643 227.773 613.867 227.592 614.048C227.41 614.219 227.192 614.304 226.936 614.304ZM226.264 624V616.064H227.608V624H226.264ZM229.948 624V616.064H231.164L231.244 617.488C231.5 616.987 231.868 616.592 232.348 616.304C232.828 616.016 233.372 615.872 233.98 615.872C234.918 615.872 235.665 616.16 236.22 616.736C236.785 617.301 237.068 618.176 237.068 619.36V624H235.724V619.504C235.724 617.851 235.041 617.024 233.676 617.024C232.993 617.024 232.422 617.275 231.964 617.776C231.516 618.267 231.292 618.971 231.292 619.888V624H229.948Z" fill="#171B1B"/>
<path fill-rule="evenodd" clip-rule="evenodd" d="M185 612C181.687 612 179 614.687 179 618C179 621.313 181.687 624 185 624C188.313 624 191 621.313 191 618C191 614.687 188.313 612 185 612ZM185 613C187.757 613 190 615.243 190 618C190 620.757 187.757 623 185 623C182.243 623 180 620.757 180 618C180 615.243 182.243 613 185 613ZM185.5 615V618H188V619H184.5V615H185.5Z" fill="#171B1B"/>
<path d="M33.184 624V612.8H37.12C37.9093 612.8 38.56 612.928 39.072 613.184C39.5947 613.429 39.984 613.771 40.24 614.208C40.496 614.635 40.624 615.115 40.624 615.648C40.624 616.373 40.4267 616.944 40.032 617.36C39.648 617.776 39.184 618.064 38.64 618.224C39.056 618.299 39.4347 618.464 39.776 618.72C40.1173 618.976 40.384 619.296 40.576 619.68C40.7787 620.064 40.88 620.485 40.88 620.944C40.88 621.509 40.7413 622.027 40.464 622.496C40.1867 622.955 39.776 623.323 39.232 623.6C38.688 623.867 38.0267 624 37.248 624H33.184ZM34.528 617.696H37.024C37.7387 617.696 38.288 617.531 38.672 617.2C39.056 616.859 39.248 616.389 39.248 615.792C39.248 615.227 39.056 614.773 38.672 614.432C38.2987 614.091 37.7333 613.92 36.976 613.92H34.528V617.696ZM34.528 622.88H37.104C37.872 622.88 38.464 622.704 38.88 622.352C39.296 621.989 39.504 621.488 39.504 620.848C39.504 620.219 39.2853 619.717 38.848 619.344C38.4107 618.96 37.8187 618.768 37.072 618.768H34.528V622.88ZM45.369 624.192C44.7077 624.192 44.1583 624.08 43.721 623.856C43.2837 623.632 42.9583 623.333 42.745 622.96C42.5317 622.587 42.425 622.181 42.425 621.744C42.425 620.933 42.7343 620.309 43.353 619.872C43.9717 619.435 44.8143 619.216 45.881 619.216H48.025V619.12C48.025 618.427 47.8437 617.904 47.481 617.552C47.1183 617.189 46.633 617.008 46.025 617.008C45.5023 617.008 45.049 617.141 44.665 617.408C44.2917 617.664 44.057 618.043 43.961 618.544H42.585C42.6383 617.968 42.8303 617.483 43.161 617.088C43.5023 616.693 43.9237 616.395 44.425 616.192C44.9263 615.979 45.4597 615.872 46.025 615.872C47.1343 615.872 47.9663 616.171 48.521 616.768C49.0863 617.355 49.369 618.139 49.369 619.12V624H48.169L48.089 622.576C47.865 623.024 47.5343 623.408 47.097 623.728C46.6703 624.037 46.0943 624.192 45.369 624.192ZM45.577 623.056C46.089 623.056 46.5263 622.923 46.889 622.656C47.2623 622.389 47.545 622.043 47.737 621.616C47.929 621.189 48.025 620.741 48.025 620.272V620.256H45.993C45.2037 620.256 44.6437 620.395 44.313 620.672C43.993 620.939 43.833 621.275 43.833 621.68C43.833 622.096 43.9823 622.432 44.281 622.688C44.5903 622.933 45.0223 623.056 45.577 623.056ZM51.3853 624V612.48H52.7293V619.408L55.9773 616.064H57.6253L54.1053 619.648L58.0733 624H56.3613L52.7293 619.888V624H51.3853ZM62.4376 624.192C61.6803 624.192 61.0083 624.021 60.4216 623.68C59.835 623.328 59.371 622.843 59.0296 622.224C58.699 621.605 58.5336 620.875 58.5336 620.032C58.5336 619.2 58.699 618.475 59.0296 617.856C59.3603 617.227 59.819 616.741 60.4056 616.4C61.003 616.048 61.691 615.872 62.4696 615.872C63.2376 615.872 63.899 616.048 64.4536 616.4C65.019 616.741 65.451 617.195 65.7496 617.76C66.0483 618.325 66.1976 618.933 66.1976 619.584C66.1976 619.701 66.1923 619.819 66.1816 619.936C66.1816 620.053 66.1816 620.187 66.1816 620.336H59.8616C59.8936 620.944 60.0323 621.451 60.2776 621.856C60.5336 622.251 60.8483 622.549 61.2216 622.752C61.6056 622.955 62.011 623.056 62.4376 623.056C62.9923 623.056 63.4563 622.928 63.8296 622.672C64.203 622.416 64.475 622.069 64.6456 621.632H65.9736C65.7603 622.368 65.3496 622.981 64.7416 623.472C64.1443 623.952 63.3763 624.192 62.4376 624.192ZM62.4376 617.008C61.7976 617.008 61.227 617.205 60.7256 617.6C60.235 617.984 59.9523 618.549 59.8776 619.296H64.8696C64.8376 618.581 64.5923 618.021 64.1336 617.616C63.675 617.211 63.1096 617.008 62.4376 617.008ZM67.979 624V616.064H69.195L69.307 617.584C69.5523 617.061 69.9257 616.645 70.427 616.336C70.9283 616.027 71.547 615.872 72.283 615.872V617.28H71.915C71.4457 617.28 71.0137 617.365 70.619 617.536C70.2243 617.696 69.9097 617.973 69.675 618.368C69.4403 618.763 69.323 619.307 69.323 620V624H67.979ZM74.6555 627.52L76.6235 623.232H76.1595L73.0075 616.064H74.4635L77.0875 622.24L79.8715 616.064H81.2635L76.0635 627.52H74.6555Z" fill="#333333" fill-opacity="0.496405"/>
<rect x="300" y="384" width="270" height="352" fill="white"/>
<rect x="300" y="384" width="270" height="208" fill="#9B9B9B"/>
<mask id="mask3_0_1" style="mask-type:luminance" maskUnits="userSpaceOnUse" x="300" y="384" width="270" height="208">
<rect x="300" y="384" width="270" height="208" fill="white"/>
</mask>
<g mask="url(#mask3_0_1)">
</g>
<path d="M333.48 672V658H335.44L340.48 667.76L345.48 658H347.46V672H345.78V661L341.1 670H339.84L335.16 661.02V672H333.48ZM353.614 672.24C352.787 672.24 352.1 672.1 351.554 671.82C351.007 671.54 350.6 671.167 350.334 670.7C350.067 670.233 349.934 669.727 349.934 669.18C349.934 668.167 350.32 667.387 351.094 666.84C351.867 666.293 352.92 666.02 354.254 666.02H356.934V665.9C356.934 665.033 356.707 664.38 356.254 663.94C355.8 663.487 355.194 663.26 354.434 663.26C353.78 663.26 353.214 663.427 352.734 663.76C352.267 664.08 351.974 664.553 351.854 665.18H350.134C350.2 664.46 350.44 663.853 350.854 663.36C351.28 662.867 351.807 662.493 352.434 662.24C353.06 661.973 353.727 661.84 354.434 661.84C355.82 661.84 356.86 662.213 357.554 662.96C358.26 663.693 358.614 664.673 358.614 665.9V672H357.114L357.014 670.22C356.734 670.78 356.32 671.26 355.774 671.66C355.24 672.047 354.52 672.24 353.614 672.24ZM353.874 670.82C354.514 670.82 355.06 670.653 355.514 670.32C355.98 669.987 356.334 669.553 356.574 669.02C356.814 668.487 356.934 667.927 356.934 667.34V667.32H354.394C353.407 667.32 352.707 667.493 352.294 667.84C351.894 668.173 351.694 668.593 351.694 669.1C351.694 669.62 351.88 670.04 352.254 670.36C352.64 670.667 353.18 670.82 353.874 670.82ZM361.134 672V657.6H362.814V672H361.134ZM369.488 672C368.581 672 367.868 671.78 367.348 671.34C366.828 670.9 366.568 670.107 366.568 668.96V663.5H364.847V662.08H366.568L366.788 659.7H368.248V662.08H371.168V663.5H368.248V668.96C368.248 669.587 368.374 670.013 368.628 670.24C368.881 670.453 369.328 670.56 369.968 670.56H371.008V672H369.488ZM377.488 672.24C376.542 672.24 375.702 672.027 374.968 671.6C374.235 671.16 373.655 670.553 373.228 669.78C372.815 669.007 372.608 668.093 372.608 667.04C372.608 666 372.815 665.093 373.228 664.32C373.642 663.533 374.215 662.927 374.948 662.5C375.695 662.06 376.555 661.84 377.528 661.84C378.488 661.84 379.315 662.06 380.008 662.5C380.715 662.927 381.255 663.493 381.628 664.2C382.002 664.907 382.188 665.667 382.188 666.48C382.188 666.627 382.182 666.773 382.168 666.92C382.168 667.067 382.168 667.233 382.168 667.42H374.268C374.308 668.18 374.482 668.813 374.788 669.32C375.108 669.813 375.502 670.187 375.968 670.44C376.448 670.693 376.955 670.82 377.488 670.82C378.182 670.82 378.762 670.66 379.228 670.34C379.695 670.02 380.035 669.587 380.248 669.04H381.908C381.642 669.96 381.128 670.727 380.368 671.34C379.622 671.94 378.662 672.24 377.488 672.24ZM377.488 663.26C376.688 663.26 375.975 663.507 375.348 664C374.735 664.48 374.382 665.187 374.288 666.12H380.528C380.488 665.227 380.182 664.527 379.608 664.02C379.035 663.513 378.328 663.26 377.488 663.26ZM388.915 672.24C387.928 672.24 387.062 672.013 386.315 671.56C385.582 671.107 385.008 670.487 384.595 669.7C384.195 668.913 383.995 668.02 383.995 667.02C383.995 666.02 384.202 665.133 384.615 664.36C385.028 663.573 385.602 662.96 386.335 662.52C387.068 662.067 387.935 661.84 388.935 661.84C389.748 661.84 390.468 662.007 391.095 662.34C391.722 662.673 392.208 663.14 392.555 663.74V657.6H394.235V672H392.715L392.555 670.36C392.235 670.84 391.775 671.273 391.175 671.66C390.575 672.047 389.822 672.24 388.915 672.24ZM389.095 670.78C389.762 670.78 390.348 670.627 390.855 670.32C391.375 670 391.775 669.56 392.055 669C392.348 668.44 392.495 667.787 392.495 667.04C392.495 666.293 392.348 665.64 392.055 665.08C391.775 664.52 391.375 664.087 390.855 663.78C390.348 663.46 389.762 663.3 389.095 663.3C388.442 663.3 387.855 663.46 387.335 663.78C386.828 664.087 386.428 664.52 386.135 665.08C385.855 665.64 385.715 666.293 385.715 667.04C385.715 667.787 385.855 668.44 386.135 669C386.428 669.56 386.828 670 387.335 670.32C387.855 670.627 388.442 670.78 389.095 670.78ZM404.267 672L401.367 662.08H403.047L405.147 669.86L407.467 662.08H409.367L411.707 669.86L413.787 662.08H415.487L412.587 672H410.867L408.427 663.82L405.987 672H404.267ZM417.345 672V657.6H419.025V663.78C419.358 663.167 419.832 662.693 420.445 662.36C421.058 662.013 421.725 661.84 422.445 661.84C423.592 661.84 424.512 662.2 425.205 662.92C425.898 663.627 426.245 664.72 426.245 666.2V672H424.585V666.38C424.585 664.313 423.752 663.28 422.085 663.28C421.218 663.28 420.492 663.593 419.905 664.22C419.318 664.833 419.025 665.713 419.025 666.86V672H417.345ZM433.25 672.24C432.303 672.24 431.463 672.027 430.73 671.6C429.997 671.16 429.417 670.553 428.99 669.78C428.577 669.007 428.37 668.093 428.37 667.04C428.37 666 428.577 665.093 428.99 664.32C429.403 663.533 429.977 662.927 430.71 662.5C431.457 662.06 432.317 661.84 433.29 661.84C434.25 661.84 435.077 662.06 435.77 662.5C436.477 662.927 437.017 663.493 437.39 664.2C437.763 664.907 437.95 665.667 437.95 666.48C437.95 666.627 437.943 666.773 437.93 666.92C437.93 667.067 437.93 667.233 437.93 667.42H430.03C430.07 668.18 430.243 668.813 430.55 669.32C430.87 669.813 431.263 670.187 431.73 670.44C432.21 670.693 432.717 670.82 433.25 670.82C433.943 670.82 434.523 670.66 434.99 670.34C435.457 670.02 435.797 669.587 436.01 669.04H437.67C437.403 669.96 436.89 670.727 436.13 671.34C435.383 671.94 434.423 672.24 433.25 672.24ZM433.25 663.26C432.45 663.26 431.737 663.507 431.11 664C430.497 664.48 430.143 665.187 430.05 666.12H436.29C436.25 665.227 435.943 664.527 435.37 664.02C434.797 663.513 434.09 663.26 433.25 663.26ZM443.477 672.24C442.65 672.24 441.964 672.1 441.417 671.82C440.87 671.54 440.464 671.167 440.197 670.7C439.93 670.233 439.797 669.727 439.797 669.18C439.797 668.167 440.184 667.387 440.957 666.84C441.73 666.293 442.784 666.02 444.117 666.02H446.797V665.9C446.797 665.033 446.57 664.38 446.117 663.94C445.664 663.487 445.057 663.26 444.297 663.26C443.644 663.26 443.077 663.427 442.597 663.76C442.13 664.08 441.837 664.553 441.717 665.18H439.997C440.064 664.46 440.304 663.853 440.717 663.36C441.144 662.867 441.67 662.493 442.297 662.24C442.924 661.973 443.59 661.84 444.297 661.84C445.684 661.84 446.724 662.213 447.417 662.96C448.124 663.693 448.477 664.673 448.477 665.9V672H446.977L446.877 670.22C446.597 670.78 446.184 671.26 445.637 671.66C445.104 672.047 444.384 672.24 443.477 672.24ZM443.737 670.82C444.377 670.82 444.924 670.653 445.377 670.32C445.844 669.987 446.197 669.553 446.437 669.02C446.677 668.487 446.797 667.927 446.797 667.34V667.32H444.257C443.27 667.32 442.57 667.493 442.157 667.84C441.757 668.173 441.557 668.593 441.557 669.1C441.557 669.62 441.744 670.04 442.117 670.36C442.504 670.667 443.044 670.82 443.737 670.82ZM454.644 672C453.737 672 453.024 671.78 452.504 671.34C451.984 670.9 451.724 670.107 451.724 668.96V663.5H450.004V662.08H451.724L451.944 659.7H453.404V662.08H456.324V663.5H453.404V668.96C453.404 669.587 453.53 670.013 453.784 670.24C454.037 670.453 454.484 670.56 455.124 670.56H456.164V672H454.644ZM464.291 672V663.5H462.791V662.08H464.291V660.36C464.291 659.4 464.531 658.7 465.011 658.26C465.491 657.82 466.191 657.6 467.111 657.6H468.111V659.04H467.371C466.864 659.04 466.504 659.147 466.291 659.36C466.078 659.56 465.971 659.907 465.971 660.4V662.08H468.411V663.5H465.971V672H464.291ZM470.411 672V657.6H472.091V672H470.411ZM478.145 672.24C477.318 672.24 476.632 672.1 476.085 671.82C475.538 671.54 475.132 671.167 474.865 670.7C474.598 670.233 474.465 669.727 474.465 669.18C474.465 668.167 474.852 667.387 475.625 666.84C476.398 666.293 477.452 666.02 478.785 666.02H481.465V665.9C481.465 665.033 481.238 664.38 480.785 663.94C480.332 663.487 479.725 663.26 478.965 663.26C478.312 663.26 477.745 663.427 477.265 663.76C476.798 664.08 476.505 664.553 476.385 665.18H474.665C474.732 664.46 474.972 663.853 475.385 663.36C475.812 662.867 476.338 662.493 476.965 662.24C477.592 661.973 478.258 661.84 478.965 661.84C480.352 661.84 481.392 662.213 482.085 662.96C482.792 663.693 483.145 664.673 483.145 665.9V672H481.645L481.545 670.22C481.265 670.78 480.852 671.26 480.305 671.66C479.772 672.047 479.052 672.24 478.145 672.24ZM478.405 670.82C479.045 670.82 479.592 670.653 480.045 670.32C480.512 669.987 480.865 669.553 481.105 669.02C481.345 668.487 481.465 667.927 481.465 667.34V667.32H478.925C477.938 667.32 477.238 667.493 476.825 667.84C476.425 668.173 476.225 668.593 476.225 669.1C476.225 669.62 476.412 670.04 476.785 670.36C477.172 670.667 477.712 670.82 478.405 670.82ZM485.665 672V657.6H487.345V666.26L491.405 662.08H493.465L489.065 666.56L494.025 672H491.885L487.345 666.86V672H485.665ZM499.481 672.24C498.534 672.24 497.694 672.027 496.961 671.6C496.227 671.16 495.647 670.553 495.221 669.78C494.807 669.007 494.601 668.093 494.601 667.04C494.601 666 494.807 665.093 495.221 664.32C495.634 663.533 496.207 662.927 496.941 662.5C497.687 662.06 498.547 661.84 499.521 661.84C500.481 661.84 501.307 662.06 502.001 662.5C502.707 662.927 503.247 663.493 503.621 664.2C503.994 664.907 504.181 665.667 504.181 666.48C504.181 666.627 504.174 666.773 504.161 666.92C504.161 667.067 504.161 667.233 504.161 667.42H496.261C496.301 668.18 496.474 668.813 496.781 669.32C497.101 669.813 497.494 670.187 497.961 670.44C498.441 670.693 498.947 670.82 499.481 670.82C500.174 670.82 500.754 670.66 501.221 670.34C501.687 670.02 502.027 669.587 502.241 669.04H503.901C503.634 669.96 503.121 670.727 502.361 671.34C501.614 671.94 500.654 672.24 499.481 672.24ZM499.481 663.26C498.681 663.26 497.967 663.507 497.341 664C496.727 664.48 496.374 665.187 496.281 666.12H502.521C502.481 665.227 502.174 664.527 501.601 664.02C501.027 663.513 500.321 663.26 499.481 663.26ZM338.68 704.24C337.867 704.24 337.14 704.073 336.5 703.74C335.873 703.407 335.393 702.94 335.06 702.34L334.9 704H333.38V689.6H335.06V695.72C335.38 695.24 335.833 694.807 336.42 694.42C337.02 694.033 337.78 693.84 338.7 693.84C339.687 693.84 340.547 694.067 341.28 694.52C342.013 694.973 342.58 695.593 342.98 696.38C343.393 697.167 343.6 698.06 343.6 699.06C343.6 700.06 343.393 700.953 342.98 701.74C342.58 702.513 342.007 703.127 341.26 703.58C340.527 704.02 339.667 704.24 338.68 704.24ZM338.5 702.78C339.167 702.78 339.753 702.627 340.26 702.32C340.767 702 341.167 701.56 341.46 701C341.753 700.44 341.9 699.787 341.9 699.04C341.9 698.293 341.753 697.64 341.46 697.08C341.167 696.52 340.767 696.087 340.26 695.78C339.753 695.46 339.167 695.3 338.5 695.3C337.833 695.3 337.247 695.46 336.74 695.78C336.233 696.087 335.833 696.52 335.54 697.08C335.247 697.64 335.1 698.293 335.1 699.04C335.1 699.787 335.247 700.44 335.54 701C335.833 701.56 336.233 702 336.74 702.32C337.247 702.627 337.833 702.78 338.5 702.78ZM345.939 704V694.08H347.459L347.599 695.98C347.905 695.327 348.372 694.807 348.999 694.42C349.625 694.033 350.399 693.84 351.319 693.84V695.6H350.859C350.272 695.6 349.732 695.707 349.239 695.92C348.745 696.12 348.352 696.467 348.059 696.96C347.765 697.453 347.619 698.133 347.619 699V704H345.939ZM357.293 704.24C356.346 704.24 355.506 704.027 354.773 703.6C354.04 703.16 353.46 702.553 353.033 701.78C352.62 701.007 352.413 700.093 352.413 699.04C352.413 698 352.62 697.093 353.033 696.32C353.446 695.533 354.02 694.927 354.753 694.5C355.5 694.06 356.36 693.84 357.333 693.84C358.293 693.84 359.12 694.06 359.813 694.5C360.52 694.927 361.06 695.493 361.433 696.2C361.806 696.907 361.993 697.667 361.993 698.48C361.993 698.627 361.986 698.773 361.973 698.92C361.973 699.067 361.973 699.233 361.973 699.42H354.073C354.113 700.18 354.286 700.813 354.593 701.32C354.913 701.813 355.306 702.187 355.773 702.44C356.253 702.693 356.76 702.82 357.293 702.82C357.986 702.82 358.566 702.66 359.033 702.34C359.5 702.02 359.84 701.587 360.053 701.04H361.713C361.446 701.96 360.933 702.727 360.173 703.34C359.426 703.94 358.466 704.24 357.293 704.24ZM357.293 695.26C356.493 695.26 355.78 695.507 355.153 696C354.54 696.48 354.186 697.187 354.093 698.12H360.333C360.293 697.227 359.986 696.527 359.413 696.02C358.84 695.513 358.133 695.26 357.293 695.26ZM367.52 704.24C366.693 704.24 366.007 704.1 365.46 703.82C364.913 703.54 364.507 703.167 364.24 702.7C363.973 702.233 363.84 701.727 363.84 701.18C363.84 700.167 364.227 699.387 365 698.84C365.773 698.293 366.827 698.02 368.16 698.02H370.84V697.9C370.84 697.033 370.613 696.38 370.16 695.94C369.707 695.487 369.1 695.26 368.34 695.26C367.687 695.26 367.12 695.427 366.64 695.76C366.173 696.08 365.88 696.553 365.76 697.18H364.04C364.107 696.46 364.347 695.853 364.76 695.36C365.187 694.867 365.713 694.493 366.34 694.24C366.967 693.973 367.633 693.84 368.34 693.84C369.727 693.84 370.767 694.213 371.46 694.96C372.167 695.693 372.52 696.673 372.52 697.9V704H371.02L370.92 702.22C370.64 702.78 370.227 703.26 369.68 703.66C369.147 704.047 368.427 704.24 367.52 704.24ZM367.78 702.82C368.42 702.82 368.967 702.653 369.42 702.32C369.887 701.987 370.24 701.553 370.48 701.02C370.72 700.487 370.84 699.927 370.84 699.34V699.32H368.3C367.313 699.32 366.613 699.493 366.2 699.84C365.8 700.173 365.6 700.593 365.6 701.1C365.6 701.62 365.787 702.04 366.16 702.36C366.547 702.667 367.087 702.82 367.78 702.82ZM379.54 704.24C378.553 704.24 377.687 704.013 376.94 703.56C376.207 703.107 375.633 702.487 375.22 701.7C374.82 700.913 374.62 700.02 374.62 699.02C374.62 698.02 374.827 697.133 375.24 696.36C375.653 695.573 376.227 694.96 376.96 694.52C377.693 694.067 378.56 693.84 379.56 693.84C380.373 693.84 381.093 694.007 381.72 694.34C382.347 694.673 382.833 695.14 383.18 695.74V689.6H384.86V704H383.34L383.18 702.36C382.86 702.84 382.4 703.273 381.8 703.66C381.2 704.047 380.447 704.24 379.54 704.24ZM379.72 702.78C380.387 702.78 380.973 702.627 381.48 702.32C382 702 382.4 701.56 382.68 701C382.973 700.44 383.12 699.787 383.12 699.04C383.12 698.293 382.973 697.64 382.68 697.08C382.4 696.52 382 696.087 381.48 695.78C380.973 695.46 380.387 695.3 379.72 695.3C379.067 695.3 378.48 695.46 377.96 695.78C377.453 696.087 377.053 696.52 376.76 697.08C376.48 697.64 376.34 698.293 376.34 699.04C376.34 699.787 376.48 700.44 376.76 701C377.053 701.56 377.453 702 377.96 702.32C378.48 702.627 379.067 702.78 379.72 702.78Z" fill="#171B1B"/>
<path d="M494.132 624V614.304L492.324 614.704V613.776L494.58 612.8H495.492V624H494.132ZM501.664 624.192C500.896 624.192 500.229 624.053 499.664 623.776C499.099 623.499 498.645 623.12 498.304 622.64C497.973 622.149 497.771 621.595 497.696 620.976H499.008C499.136 621.595 499.435 622.096 499.904 622.48C500.373 622.853 500.965 623.04 501.68 623.04C502.213 623.04 502.672 622.917 503.056 622.672C503.44 622.416 503.733 622.075 503.936 621.648C504.149 621.221 504.256 620.747 504.256 620.224C504.256 619.392 504.021 618.72 503.552 618.208C503.083 617.696 502.475 617.44 501.728 617.44C501.109 617.44 500.581 617.579 500.144 617.856C499.707 618.133 499.387 618.496 499.184 618.944H497.904L498.864 612.8H504.736V613.968H499.904L499.248 617.376C499.504 617.067 499.856 616.811 500.304 616.608C500.763 616.405 501.285 616.304 501.872 616.304C502.608 616.304 503.248 616.475 503.792 616.816C504.347 617.157 504.779 617.621 505.088 618.208C505.397 618.795 505.552 619.461 505.552 620.208C505.552 620.923 505.397 621.584 505.088 622.192C504.789 622.8 504.347 623.285 503.76 623.648C503.184 624.011 502.485 624.192 501.664 624.192ZM511.807 624V616.064H513.023L513.119 617.216C513.375 616.789 513.716 616.459 514.143 616.224C514.57 615.989 515.05 615.872 515.583 615.872C516.212 615.872 516.751 616 517.199 616.256C517.658 616.512 518.01 616.901 518.255 617.424C518.532 616.944 518.911 616.565 519.391 616.288C519.882 616.011 520.41 615.872 520.975 615.872C521.924 615.872 522.682 616.16 523.247 616.736C523.812 617.301 524.095 618.176 524.095 619.36V624H522.767V619.504C522.767 618.683 522.602 618.064 522.271 617.648C521.94 617.232 521.466 617.024 520.847 617.024C520.207 617.024 519.674 617.275 519.247 617.776C518.831 618.267 518.623 618.971 518.623 619.888V624H517.279V619.504C517.279 618.683 517.114 618.064 516.783 617.648C516.452 617.232 515.978 617.024 515.359 617.024C514.73 617.024 514.202 617.275 513.775 617.776C513.359 618.267 513.151 618.971 513.151 619.888V624H511.807ZM526.936 614.304C526.669 614.304 526.445 614.219 526.264 614.048C526.093 613.867 526.008 613.643 526.008 613.376C526.008 613.12 526.093 612.907 526.264 612.736C526.445 612.565 526.669 612.48 526.936 612.48C527.192 612.48 527.41 612.565 527.592 612.736C527.773 612.907 527.864 613.12 527.864 613.376C527.864 613.643 527.773 613.867 527.592 614.048C527.41 614.219 527.192 614.304 526.936 614.304ZM526.264 624V616.064H527.608V624H526.264ZM529.948 624V616.064H531.164L531.244 617.488C531.5 616.987 531.868 616.592 532.348 616.304C532.828 616.016 533.372 615.872 533.98 615.872C534.918 615.872 535.665 616.16 536.22 616.736C536.785 617.301 537.068 618.176 537.068 619.36V624H535.724V619.504C535.724 617.851 535.041 617.024 533.676 617.024C532.993 617.024 532.422 617.275 531.964 617.776C531.516 618.267 531.292 618.971 531.292 619.888V624H529.948Z" fill="#171B1B"/>
<path fill-rule="evenodd" clip-rule="evenodd" d="M479 612C475.687 612 473 614.687 473 618C473 621.313 475.687 624 479 624C482.313 624 485 621.313 485 618C485 614.687 482.313 612 479 612ZM479 613C481.757 613 484 615.243 484 618C484 620.757 481.757 623 479 623C476.243 623 474 620.757 474 618C474 615.243 476.243 613 479 613ZM479.5 615V618H482V619H478.5V615H479.5Z" fill="#171B1B"/>
<path d="M333.184 624V612.8H337.12C337.909 612.8 338.56 612.928 339.072 613.184C339.595 613.429 339.984 613.771 340.24 614.208C340.496 614.635 340.624 615.115 340.624 615.648C340.624 616.373 340.427 616.944 340.032 617.36C339.648 617.776 339.184 618.064 338.64 618.224C339.056 618.299 339.435 618.464 339.776 618.72C340.117 618.976 340.384 619.296 340.576 619.68C340.779 620.064 340.88 620.485 340.88 620.944C340.88 621.509 340.741 622.027 340.464 622.496C340.187 622.955 339.776 623.323 339.232 623.6C338.688 623.867 338.027 624 337.248 624H333.184ZM334.528 617.696H337.024C337.739 617.696 338.288 617.531 338.672 617.2C339.056 616.859 339.248 616.389 339.248 615.792C339.248 615.227 339.056 614.773 338.672 614.432C338.299 614.091 337.733 613.92 336.976 613.92H334.528V617.696ZM334.528 622.88H337.104C337.872 622.88 338.464 622.704 338.88 622.352C339.296 621.989 339.504 621.488 339.504 620.848C339.504 620.219 339.285 619.717 338.848 619.344C338.411 618.96 337.819 618.768 337.072 618.768H334.528V622.88ZM345.369 624.192C344.708 624.192 344.158 624.08 343.721 623.856C343.284 623.632 342.958 623.333 342.745 622.96C342.532 622.587 342.425 622.181 342.425 621.744C342.425 620.933 342.734 620.309 343.353 619.872C343.972 619.435 344.814 619.216 345.881 619.216H348.025V619.12C348.025 618.427 347.844 617.904 347.481 617.552C347.118 617.189 346.633 617.008 346.025 617.008C345.502 617.008 345.049 617.141 344.665 617.408C344.292 617.664 344.057 618.043 343.961 618.544H342.585C342.638 617.968 342.83 617.483 343.161 617.088C343.502 616.693 343.924 616.395 344.425 616.192C344.926 615.979 345.46 615.872 346.025 615.872C347.134 615.872 347.966 616.171 348.521 616.768C349.086 617.355 349.369 618.139 349.369 619.12V624H348.169L348.089 622.576C347.865 623.024 347.534 623.408 347.097 623.728C346.67 624.037 346.094 624.192 345.369 624.192ZM345.577 623.056C346.089 623.056 346.526 622.923 346.889 622.656C347.262 622.389 347.545 622.043 347.737 621.616C347.929 621.189 348.025 620.741 348.025 620.272V620.256H345.993C345.204 620.256 344.644 620.395 344.313 620.672C343.993 620.939 343.833 621.275 343.833 621.68C343.833 622.096 343.982 622.432 344.281 622.688C344.59 622.933 345.022 623.056 345.577 623.056ZM351.385 624V612.48H352.729V619.408L355.977 616.064H357.625L354.105 619.648L358.073 624H356.361L352.729 619.888V624H351.385ZM362.438 624.192C361.68 624.192 361.008 624.021 360.422 623.68C359.835 623.328 359.371 622.843 359.03 622.224C358.699 621.605 358.534 620.875 358.534 620.032C358.534 619.2 358.699 618.475 359.03 617.856C359.36 617.227 359.819 616.741 360.406 616.4C361.003 616.048 361.691 615.872 362.47 615.872C363.238 615.872 363.899 616.048 364.454 616.4C365.019 616.741 365.451 617.195 365.75 617.76C366.048 618.325 366.198 618.933 366.198 619.584C366.198 619.701 366.192 619.819 366.182 619.936C366.182 620.053 366.182 620.187 366.182 620.336H359.862C359.894 620.944 360.032 621.451 360.278 621.856C360.534 622.251 360.848 622.549 361.222 622.752C361.606 622.955 362.011 623.056 362.438 623.056C362.992 623.056 363.456 622.928 363.83 622.672C364.203 622.416 364.475 622.069 364.646 621.632H365.974C365.76 622.368 365.35 622.981 364.742 623.472C364.144 623.952 363.376 624.192 362.438 624.192ZM362.438 617.008C361.798 617.008 361.227 617.205 360.726 617.6C360.235 617.984 359.952 618.549 359.878 619.296H364.87C364.838 618.581 364.592 618.021 364.134 617.616C363.675 617.211 363.11 617.008 362.438 617.008ZM367.979 624V616.064H369.195L369.307 617.584C369.552 617.061 369.926 616.645 370.427 616.336C370.928 616.027 371.547 615.872 372.283 615.872V617.28H371.915C371.446 617.28 371.014 617.365 370.619 617.536C370.224 617.696 369.91 617.973 369.675 618.368C369.44 618.763 369.323 619.307 369.323 620V624H367.979ZM374.656 627.52L376.624 623.232H376.16L373.008 616.064H374.464L377.088 622.24L379.872 616.064H381.264L376.064 627.52H374.656Z" fill="#333333" fill-opacity="0.496405"/>
</svg>
