<svg width="285" height="273" viewBox="0 0 285 273" fill="none" xmlns="http://www.w3.org/2000/svg">
<path fill-rule="evenodd" clip-rule="evenodd" d="M96.9799 57.3087C96.9857 57.3955 96.9857 57.4829 96.9799 57.5697C96.9939 57.6696 97.0007 57.7702 96.9999 57.8709V58.0114V93.9921C96.9999 95.101 96.1019 96 94.9942 96H94.6332L7.64497 79.9372C6.67996 79.7605 5.98423 78.9112 6.00027 77.9293V42.0691C6.00604 41.8136 6.06044 41.5614 6.16073 41.3262V41.2057V41.1053C12.0375 30.8653 22.8684 24.3197 37.5302 22.1111C38.834 20.82 40.4744 19.9222 42.2638 19.5209C42.0632 15.184 42.6448 5.10455 51.5703 0.265623C52.5451 -0.288795 53.7844 0.0527904 54.3382 1.02861C54.892 2.00442 54.5508 3.24502 53.576 3.79944C46.6964 7.49389 46.2953 15.8466 46.6362 19.541C48.0976 19.8394 49.4703 20.4716 50.6477 21.3882C53.7347 21.4156 56.8165 21.6437 59.874 22.0709C60.2752 22.1394 60.646 22.3287 60.937 22.613L96.6189 56.7465L96.7994 56.9874C96.8693 57.0888 96.9297 57.1963 96.9799 57.3087ZM50.3869 28.9779C50.3759 25.7842 47.7807 23.2043 44.5904 23.2154C41.4078 23.2264 38.834 25.8123 38.834 28.998V29.0181C38.845 32.2118 41.4402 34.7916 44.6305 34.7806C47.8209 34.7696 50.398 32.1716 50.3869 28.9779ZM35.1434 26.5886C34.9371 27.3684 34.8293 28.1712 34.8225 28.9779C34.6641 34.3871 38.9157 38.9007 44.3191 39.0593C49.7225 39.2179 54.2314 34.9618 54.3899 29.5527C54.4322 28.1067 54.1542 26.6694 53.576 25.3437C55.8425 25.4642 57.5875 25.6649 58.3898 25.7653L88.8366 54.8993L11.4558 40.6034C16.41 33.4554 24.3928 28.7771 35.1434 26.5886ZM10.0719 66.605V76.2427L93.0687 91.5827L93.0487 81.5635L10.0719 66.605ZM10.0719 62.5291V56.5056L93.0487 71.4641L93.0687 77.5278L10.0719 62.5291ZM10.0719 44.4384V52.4698L93.0687 67.4885L93.0286 59.8386L71.6275 55.8229L10.0719 44.4384Z" fill="#F5AE5C"/>
<path d="M35.7617 160.23V167.477C34.6159 167.477 33.8607 167.665 33.4961 168.043C33.1445 168.421 32.9688 168.967 32.9688 169.684V189H21.2305L11.0352 173.043V179.801C11.0352 180.647 11.2826 181.188 11.7773 181.422C12.2721 181.643 13.0924 181.754 14.2383 181.754V189H0.800781V181.754C1.94661 181.754 2.76693 181.604 3.26172 181.305C3.75651 180.992 4.00391 180.413 4.00391 179.566V169.684C4.00391 168.824 3.75651 168.245 3.26172 167.945C2.76693 167.633 1.94661 167.477 0.800781 167.477V160.23H16.1523L25.918 175.523V169.684C25.918 168.824 25.7357 168.245 25.3711 167.945C25.0195 167.633 24.2708 167.477 23.125 167.477V160.23H35.7617ZM47.4023 170.191C46.7383 170.191 46.1654 170.243 45.6836 170.348C45.2148 170.439 44.8112 170.549 44.4727 170.68C44.1341 170.81 43.8542 170.96 43.6328 171.129C43.4115 171.285 43.2161 171.428 43.0469 171.559L43.2422 171.754C43.4896 171.624 43.7565 171.493 44.043 171.363C44.3424 171.233 44.7201 171.168 45.1758 171.168C45.944 171.168 46.6081 171.422 47.168 171.93C47.7279 172.424 48.0078 173.219 48.0078 174.312C48.0078 175.354 47.5781 176.194 46.7188 176.832C45.8724 177.457 44.7331 177.77 43.3008 177.77C41.9336 177.77 40.8398 177.379 40.0195 176.598C39.2122 175.803 38.8086 174.684 38.8086 173.238C38.8086 172.444 39.0299 171.656 39.4727 170.875C39.9154 170.081 40.599 169.371 41.5234 168.746C42.4609 168.121 43.6458 167.607 45.0781 167.203C46.5234 166.799 48.2617 166.598 50.293 166.598C52.7148 166.598 54.694 166.826 56.2305 167.281C57.7669 167.737 58.9583 168.323 59.8047 169.039C60.6641 169.755 61.25 170.569 61.5625 171.48C61.888 172.392 62.0508 173.31 62.0508 174.234V181.871C62.0508 183.056 62.0898 183.863 62.168 184.293C62.2461 184.71 62.5391 184.918 63.0469 184.918C63.4505 184.918 63.7305 184.729 63.8867 184.352C64.056 183.961 64.1406 183.297 64.1406 182.359V179.918H66.3672V182.398C66.3672 183.57 66.2695 184.612 66.0742 185.523C65.8789 186.422 65.5078 187.197 64.9609 187.848C64.4141 188.486 63.6719 188.967 62.7344 189.293C61.7969 189.632 60.599 189.801 59.1406 189.801C57.8255 189.801 56.7318 189.658 55.8594 189.371C55 189.098 54.3164 188.753 53.8086 188.336C53.3008 187.919 52.9362 187.49 52.7148 187.047C52.5065 186.591 52.4023 186.188 52.4023 185.836H52.0898C52.0117 186.37 51.7839 186.878 51.4062 187.359C51.0417 187.841 50.5273 188.271 49.8633 188.648C49.2122 189.013 48.4245 189.306 47.5 189.527C46.5885 189.762 45.5469 189.879 44.375 189.879C43.2552 189.879 42.2331 189.768 41.3086 189.547C40.3971 189.339 39.6159 189.007 38.9648 188.551C38.3268 188.082 37.8255 187.483 37.4609 186.754C37.1094 186.012 36.9336 185.133 36.9336 184.117C36.9336 182.867 37.2852 181.884 37.9883 181.168C38.6914 180.439 39.5768 179.866 40.6445 179.449C41.7122 179.02 42.8711 178.674 44.1211 178.414C45.3841 178.141 46.5495 177.815 47.6172 177.438C48.6849 177.06 49.5703 176.572 50.2734 175.973C50.9766 175.374 51.3281 174.527 51.3281 173.434C51.3281 172.457 51.0221 171.676 50.4102 171.09C49.7982 170.491 48.7956 170.191 47.4023 170.191ZM51.3281 178.648C51.0417 179.065 50.6836 179.404 50.2539 179.664C49.8242 179.911 49.4076 180.159 49.0039 180.406C48.6133 180.641 48.2682 180.927 47.9688 181.266C47.6823 181.591 47.5391 182.034 47.5391 182.594C47.5391 183.023 47.6562 183.414 47.8906 183.766C48.125 184.104 48.5807 184.273 49.2578 184.273C49.8698 184.273 50.3646 184.039 50.7422 183.57C51.1328 183.089 51.3281 182.418 51.3281 181.559V178.648ZM80.5273 160.23V167.477H86.3672V174.723H80.5273V180.719C80.5273 181.578 80.6445 182.281 80.8789 182.828C81.1263 183.375 81.6276 183.648 82.3828 183.648C82.7995 183.648 83.1315 183.57 83.3789 183.414C83.6393 183.245 83.8411 183.03 83.9844 182.77C84.1406 182.496 84.2383 182.19 84.2773 181.852C84.3164 181.5 84.3359 181.122 84.3359 180.719V177.809H86.582V180.953C86.582 182.216 86.4453 183.395 86.1719 184.488C85.9115 185.582 85.4557 186.526 84.8047 187.32C84.1667 188.115 83.2943 188.746 82.1875 189.215C81.0807 189.684 79.6875 189.918 78.0078 189.918C76.1458 189.918 74.6615 189.69 73.5547 189.234C72.4479 188.779 71.6081 188.154 71.0352 187.359C70.4622 186.565 70.0846 185.621 69.9023 184.527C69.7331 183.434 69.6484 182.242 69.6484 180.953V174.723H66.582V168.277C67.5586 168.277 68.4635 168.069 69.2969 167.652C70.1432 167.223 70.8659 166.637 71.4648 165.895C72.0768 165.139 72.5456 164.28 72.8711 163.316C73.2096 162.353 73.3789 161.324 73.3789 160.23H80.5273ZM116.309 180.191C116.309 180.816 116.484 181.233 116.836 181.441C117.201 181.65 117.611 181.754 118.066 181.754H119.102V189H107.5V183.648H107.188C106.888 185.641 106.074 187.151 104.746 188.18C103.418 189.208 101.484 189.723 98.9453 189.723C97.1615 189.723 95.7096 189.469 94.5898 188.961C93.4701 188.453 92.6042 187.815 91.9922 187.047C91.3802 186.266 90.957 185.426 90.7227 184.527C90.5013 183.616 90.3906 182.763 90.3906 181.969V176.637C90.3906 175.947 90.2669 175.458 90.0195 175.172C89.7852 174.872 89.3229 174.723 88.6328 174.723H87.4609V167.477H101.113V179.801C101.113 180.309 101.172 180.719 101.289 181.031C101.406 181.331 101.556 181.565 101.738 181.734C101.934 181.891 102.148 181.995 102.383 182.047C102.63 182.099 102.858 182.125 103.066 182.125C103.926 182.125 104.557 181.878 104.961 181.383C105.378 180.888 105.586 180.185 105.586 179.273V176.637C105.586 175.947 105.462 175.458 105.215 175.172C104.98 174.872 104.518 174.723 103.828 174.723H102.676V167.477H116.309V180.191ZM133.125 167.477L132.793 172.848H133.125C133.581 170.79 134.336 169.234 135.391 168.18C136.458 167.125 137.839 166.598 139.531 166.598C140.534 166.598 141.393 166.76 142.109 167.086C142.839 167.398 143.424 167.822 143.867 168.355C144.31 168.889 144.629 169.508 144.824 170.211C145.02 170.901 145.117 171.617 145.117 172.359C145.117 172.971 145.026 173.577 144.844 174.176C144.661 174.775 144.368 175.315 143.965 175.797C143.561 176.279 143.04 176.669 142.402 176.969C141.764 177.255 140.977 177.398 140.039 177.398C138.737 177.398 137.708 177.066 136.953 176.402C136.211 175.738 135.84 174.938 135.84 174C135.84 173.544 135.892 173.16 135.996 172.848C136.1 172.522 136.204 172.262 136.309 172.066C136.426 171.858 136.504 171.708 136.543 171.617C136.582 171.526 136.536 171.48 136.406 171.48C136.133 171.48 135.833 171.793 135.508 172.418C135.195 173.043 135.039 174.026 135.039 175.367V179.84C135.039 180.53 135.156 181.025 135.391 181.324C135.638 181.611 136.107 181.754 136.797 181.754H137.969V189H121.523V181.754H122.676C123.21 181.754 123.613 181.585 123.887 181.246C124.173 180.895 124.316 180.478 124.316 179.996V176.285C124.316 175.673 124.134 175.263 123.77 175.055C123.418 174.833 123.014 174.723 122.559 174.723H121.523V167.477H133.125ZM156.074 170.191C155.41 170.191 154.837 170.243 154.355 170.348C153.887 170.439 153.483 170.549 153.145 170.68C152.806 170.81 152.526 170.96 152.305 171.129C152.083 171.285 151.888 171.428 151.719 171.559L151.914 171.754C152.161 171.624 152.428 171.493 152.715 171.363C153.014 171.233 153.392 171.168 153.848 171.168C154.616 171.168 155.28 171.422 155.84 171.93C156.4 172.424 156.68 173.219 156.68 174.312C156.68 175.354 156.25 176.194 155.391 176.832C154.544 177.457 153.405 177.77 151.973 177.77C150.605 177.77 149.512 177.379 148.691 176.598C147.884 175.803 147.48 174.684 147.48 173.238C147.48 172.444 147.702 171.656 148.145 170.875C148.587 170.081 149.271 169.371 150.195 168.746C151.133 168.121 152.318 167.607 153.75 167.203C155.195 166.799 156.934 166.598 158.965 166.598C161.387 166.598 163.366 166.826 164.902 167.281C166.439 167.737 167.63 168.323 168.477 169.039C169.336 169.755 169.922 170.569 170.234 171.48C170.56 172.392 170.723 173.31 170.723 174.234V181.871C170.723 183.056 170.762 183.863 170.84 184.293C170.918 184.71 171.211 184.918 171.719 184.918C172.122 184.918 172.402 184.729 172.559 184.352C172.728 183.961 172.812 183.297 172.812 182.359V179.918H175.039V182.398C175.039 183.57 174.941 184.612 174.746 185.523C174.551 186.422 174.18 187.197 173.633 187.848C173.086 188.486 172.344 188.967 171.406 189.293C170.469 189.632 169.271 189.801 167.812 189.801C166.497 189.801 165.404 189.658 164.531 189.371C163.672 189.098 162.988 188.753 162.48 188.336C161.973 187.919 161.608 187.49 161.387 187.047C161.178 186.591 161.074 186.188 161.074 185.836H160.762C160.684 186.37 160.456 186.878 160.078 187.359C159.714 187.841 159.199 188.271 158.535 188.648C157.884 189.013 157.096 189.306 156.172 189.527C155.26 189.762 154.219 189.879 153.047 189.879C151.927 189.879 150.905 189.768 149.98 189.547C149.069 189.339 148.288 189.007 147.637 188.551C146.999 188.082 146.497 187.483 146.133 186.754C145.781 186.012 145.605 185.133 145.605 184.117C145.605 182.867 145.957 181.884 146.66 181.168C147.363 180.439 148.249 179.866 149.316 179.449C150.384 179.02 151.543 178.674 152.793 178.414C154.056 178.141 155.221 177.815 156.289 177.438C157.357 177.06 158.242 176.572 158.945 175.973C159.648 175.374 160 174.527 160 173.434C160 172.457 159.694 171.676 159.082 171.09C158.47 170.491 157.467 170.191 156.074 170.191ZM160 178.648C159.714 179.065 159.355 179.404 158.926 179.664C158.496 179.911 158.079 180.159 157.676 180.406C157.285 180.641 156.94 180.927 156.641 181.266C156.354 181.591 156.211 182.034 156.211 182.594C156.211 183.023 156.328 183.414 156.562 183.766C156.797 184.104 157.253 184.273 157.93 184.273C158.542 184.273 159.036 184.039 159.414 183.57C159.805 183.089 160 182.418 160 181.559V178.648ZM189.961 160.23V179.645C189.961 180.517 190.176 181.09 190.605 181.363C191.035 181.624 191.582 181.754 192.246 181.754H192.773V189H176.328V181.754H177.09C177.78 181.754 178.288 181.539 178.613 181.109C178.952 180.667 179.121 180.191 179.121 179.684V169.684C179.121 168.928 178.88 168.375 178.398 168.023C177.93 167.659 177.383 167.477 176.758 167.477H176.328V160.23H189.961Z" fill="#171B1B"/>
<path d="M6.096 237.192C4.99733 237.192 4.048 236.952 3.248 236.472C2.45867 235.981 1.84533 235.304 1.408 234.44C0.970667 233.565 0.752 232.552 0.752 231.4C0.752 230.259 0.970667 229.256 1.408 228.392C1.84533 227.517 2.45867 226.835 3.248 226.344C4.048 225.853 4.99733 225.608 6.096 225.608C7.376 225.608 8.416 225.917 9.216 226.536C10.0267 227.144 10.544 227.997 10.768 229.096H9.28C9.10933 228.403 8.75733 227.848 8.224 227.432C7.70133 227.005 6.992 226.792 6.096 226.792C5.296 226.792 4.59733 226.979 4 227.352C3.40267 227.715 2.93867 228.243 2.608 228.936C2.288 229.619 2.128 230.44 2.128 231.4C2.128 232.36 2.288 233.187 2.608 233.88C2.93867 234.563 3.40267 235.091 4 235.464C4.59733 235.827 5.296 236.008 6.096 236.008C6.992 236.008 7.70133 235.805 8.224 235.4C8.75733 234.984 9.10933 234.435 9.28 233.752H10.768C10.544 234.829 10.0267 235.672 9.216 236.28C8.416 236.888 7.376 237.192 6.096 237.192ZM16.2356 237.192C15.489 237.192 14.817 237.021 14.2196 236.68C13.6223 236.339 13.1476 235.859 12.7956 235.24C12.4543 234.611 12.2836 233.875 12.2836 233.032C12.2836 232.189 12.4596 231.459 12.8116 230.84C13.1636 230.211 13.6383 229.725 14.2356 229.384C14.8436 229.043 15.521 228.872 16.2676 228.872C17.0143 228.872 17.6863 229.043 18.2836 229.384C18.881 229.725 19.3503 230.211 19.6916 230.84C20.0436 231.459 20.2196 232.189 20.2196 233.032C20.2196 233.875 20.0436 234.611 19.6916 235.24C19.3396 235.859 18.8596 236.339 18.2516 236.68C17.6543 237.021 16.9823 237.192 16.2356 237.192ZM16.2356 236.04C16.6943 236.04 17.121 235.928 17.5156 235.704C17.9103 235.48 18.2303 235.144 18.4756 234.696C18.721 234.248 18.8436 233.693 18.8436 233.032C18.8436 232.371 18.721 231.816 18.4756 231.368C18.241 230.92 17.9263 230.584 17.5316 230.36C17.137 230.136 16.7156 230.024 16.2676 230.024C15.809 230.024 15.3823 230.136 14.9876 230.36C14.593 230.584 14.273 230.92 14.0276 231.368C13.7823 231.816 13.6596 232.371 13.6596 233.032C13.6596 233.693 13.7823 234.248 14.0276 234.696C14.273 235.144 14.5876 235.48 14.9716 235.704C15.3663 235.928 15.7876 236.04 16.2356 236.04ZM22.0884 240.52V229.064H23.3044L23.4324 230.376C23.6884 229.992 24.051 229.645 24.5204 229.336C25.0004 229.027 25.6084 228.872 26.3444 228.872C27.1337 228.872 27.8217 229.053 28.4084 229.416C28.995 229.779 29.4484 230.275 29.7684 230.904C30.099 231.533 30.2644 232.248 30.2644 233.048C30.2644 233.848 30.099 234.563 29.7684 235.192C29.4484 235.811 28.9897 236.301 28.3924 236.664C27.8057 237.016 27.1177 237.192 26.3284 237.192C25.6777 237.192 25.0964 237.059 24.5844 236.792C24.083 236.525 23.699 236.152 23.4324 235.672V240.52H22.0884ZM26.1844 236.024C26.7177 236.024 27.187 235.901 27.5924 235.656C27.9977 235.4 28.3177 235.048 28.5524 234.6C28.787 234.152 28.9044 233.629 28.9044 233.032C28.9044 232.435 28.787 231.912 28.5524 231.464C28.3177 231.016 27.9977 230.669 27.5924 230.424C27.187 230.168 26.7177 230.04 26.1844 230.04C25.651 230.04 25.1817 230.168 24.7764 230.424C24.371 230.669 24.051 231.016 23.8164 231.464C23.5817 231.912 23.4644 232.435 23.4644 233.032C23.4644 233.629 23.5817 234.152 23.8164 234.6C24.051 235.048 24.371 235.4 24.7764 235.656C25.1817 235.901 25.651 236.024 26.1844 236.024ZM32.3586 240.52L34.3266 236.232H33.8626L30.7106 229.064H32.1666L34.7906 235.24L37.5746 229.064H38.9666L33.7666 240.52H32.3586ZM47.0036 237.016L43.9316 225.8H45.3716L47.7876 235.416L50.5396 225.8H52.0276L54.6996 235.416L57.1476 225.8H58.5876L55.4516 237H53.9156L51.2436 227.752L48.5076 237L47.0036 237.016ZM59.8228 237V229.064H61.0388L61.1508 230.584C61.3961 230.061 61.7694 229.645 62.2708 229.336C62.7721 229.027 63.3908 228.872 64.1268 228.872V230.28H63.7588C63.2894 230.28 62.8574 230.365 62.4628 230.536C62.0681 230.696 61.7534 230.973 61.5188 231.368C61.2841 231.763 61.1668 232.307 61.1668 233V237H59.8228ZM66.4513 227.304C66.1846 227.304 65.9606 227.219 65.7793 227.048C65.6086 226.867 65.5233 226.643 65.5233 226.376C65.5233 226.12 65.6086 225.907 65.7793 225.736C65.9606 225.565 66.1846 225.48 66.4513 225.48C66.7073 225.48 66.9259 225.565 67.1073 225.736C67.2886 225.907 67.3793 226.12 67.3793 226.376C67.3793 226.643 67.2886 226.867 67.1073 227.048C66.9259 227.219 66.7073 227.304 66.4513 227.304ZM65.7793 237V229.064H67.1233V237H65.7793ZM72.5994 237C71.874 237 71.3034 236.824 70.8874 236.472C70.4714 236.12 70.2634 235.485 70.2634 234.568V230.2H68.8874V229.064H70.2634L70.4394 227.16H71.6074V229.064H73.9434V230.2H71.6074V234.568C71.6074 235.069 71.7087 235.411 71.9114 235.592C72.114 235.763 72.4714 235.848 72.9834 235.848H73.8154V237H72.5994ZM79.0001 237.192C78.2428 237.192 77.5708 237.021 76.9841 236.68C76.3975 236.328 75.9335 235.843 75.5921 235.224C75.2615 234.605 75.0961 233.875 75.0961 233.032C75.0961 232.2 75.2615 231.475 75.5921 230.856C75.9228 230.227 76.3815 229.741 76.9681 229.4C77.5655 229.048 78.2535 228.872 79.0321 228.872C79.8001 228.872 80.4615 229.048 81.0161 229.4C81.5815 229.741 82.0135 230.195 82.3121 230.76C82.6108 231.325 82.7601 231.933 82.7601 232.584C82.7601 232.701 82.7548 232.819 82.7441 232.936C82.7441 233.053 82.7441 233.187 82.7441 233.336H76.4241C76.4561 233.944 76.5948 234.451 76.8401 234.856C77.0961 235.251 77.4108 235.549 77.7841 235.752C78.1681 235.955 78.5735 236.056 79.0001 236.056C79.5548 236.056 80.0188 235.928 80.3921 235.672C80.7655 235.416 81.0375 235.069 81.2081 234.632H82.5361C82.3228 235.368 81.9121 235.981 81.3041 236.472C80.7068 236.952 79.9388 237.192 79.0001 237.192ZM79.0001 230.008C78.3601 230.008 77.7895 230.205 77.2881 230.6C76.7975 230.984 76.5148 231.549 76.4401 232.296H81.4321C81.4001 231.581 81.1548 231.021 80.6961 230.616C80.2375 230.211 79.6721 230.008 79.0001 230.008ZM84.5415 237V229.064H85.7575L85.8695 230.584C86.1148 230.061 86.4882 229.645 86.9895 229.336C87.4908 229.027 88.1095 228.872 88.8455 228.872V230.28H88.4775C88.0082 230.28 87.5762 230.365 87.1815 230.536C86.7868 230.696 86.4722 230.973 86.2375 231.368C86.0028 231.763 85.8855 232.307 85.8855 233V237H84.5415ZM93.394 237.192C92.4447 237.192 91.6553 236.952 91.026 236.472C90.3967 235.992 90.0287 235.341 89.922 234.52H91.298C91.3833 234.936 91.602 235.299 91.954 235.608C92.3167 235.907 92.802 236.056 93.41 236.056C93.9753 236.056 94.3913 235.939 94.658 235.704C94.9247 235.459 95.058 235.171 95.058 234.84C95.058 234.36 94.882 234.04 94.53 233.88C94.1887 233.72 93.7033 233.576 93.074 233.448C92.6473 233.363 92.2207 233.24 91.794 233.08C91.3673 232.92 91.01 232.696 90.722 232.408C90.434 232.109 90.29 231.72 90.29 231.24C90.29 230.547 90.546 229.981 91.058 229.544C91.5807 229.096 92.2847 228.872 93.17 228.872C94.0127 228.872 94.7007 229.085 95.234 229.512C95.778 229.928 96.0927 230.525 96.178 231.304H94.85C94.7967 230.899 94.6207 230.584 94.322 230.36C94.034 230.125 93.6447 230.008 93.154 230.008C92.674 230.008 92.3007 230.109 92.034 230.312C91.778 230.515 91.65 230.781 91.65 231.112C91.65 231.432 91.8153 231.683 92.146 231.864C92.4873 232.045 92.946 232.2 93.522 232.328C94.0127 232.435 94.4767 232.568 94.914 232.728C95.362 232.877 95.7247 233.107 96.002 233.416C96.29 233.715 96.434 234.152 96.434 234.728C96.4447 235.443 96.1727 236.035 95.618 236.504C95.074 236.963 94.3327 237.192 93.394 237.192ZM105.228 237.192C104.567 237.192 104.018 237.08 103.58 236.856C103.143 236.632 102.818 236.333 102.604 235.96C102.391 235.587 102.284 235.181 102.284 234.744C102.284 233.933 102.594 233.309 103.212 232.872C103.831 232.435 104.674 232.216 105.74 232.216H107.884V232.12C107.884 231.427 107.703 230.904 107.34 230.552C106.978 230.189 106.492 230.008 105.884 230.008C105.362 230.008 104.908 230.141 104.524 230.408C104.151 230.664 103.916 231.043 103.82 231.544H102.444C102.498 230.968 102.69 230.483 103.02 230.088C103.362 229.693 103.783 229.395 104.284 229.192C104.786 228.979 105.319 228.872 105.884 228.872C106.994 228.872 107.826 229.171 108.38 229.768C108.946 230.355 109.228 231.139 109.228 232.12V237H108.028L107.948 235.576C107.724 236.024 107.394 236.408 106.956 236.728C106.53 237.037 105.954 237.192 105.228 237.192ZM105.436 236.056C105.948 236.056 106.386 235.923 106.748 235.656C107.122 235.389 107.404 235.043 107.596 234.616C107.788 234.189 107.884 233.741 107.884 233.272V233.256H105.852C105.063 233.256 104.503 233.395 104.172 233.672C103.852 233.939 103.692 234.275 103.692 234.68C103.692 235.096 103.842 235.432 104.14 235.688C104.45 235.933 104.882 236.056 105.436 236.056ZM111.245 237V229.064H112.461L112.557 230.216C112.813 229.789 113.154 229.459 113.581 229.224C114.007 228.989 114.487 228.872 115.021 228.872C115.65 228.872 116.189 229 116.637 229.256C117.095 229.512 117.447 229.901 117.693 230.424C117.97 229.944 118.349 229.565 118.829 229.288C119.319 229.011 119.847 228.872 120.413 228.872C121.362 228.872 122.119 229.16 122.685 229.736C123.25 230.301 123.533 231.176 123.533 232.36V237H122.205V232.504C122.205 231.683 122.039 231.064 121.709 230.648C121.378 230.232 120.903 230.024 120.285 230.024C119.645 230.024 119.111 230.275 118.685 230.776C118.269 231.267 118.061 231.971 118.061 232.888V237H116.717V232.504C116.717 231.683 116.551 231.064 116.221 230.648C115.89 230.232 115.415 230.024 114.797 230.024C114.167 230.024 113.639 230.275 113.213 230.776C112.797 231.267 112.589 231.971 112.589 232.888V237H111.245ZM129.797 237.192C129.146 237.192 128.565 237.059 128.053 236.792C127.552 236.525 127.168 236.152 126.901 235.672L126.773 237H125.557V225.48H126.901V230.376C127.157 229.992 127.52 229.645 127.989 229.336C128.469 229.027 129.077 228.872 129.813 228.872C130.602 228.872 131.29 229.053 131.877 229.416C132.464 229.779 132.917 230.275 133.237 230.904C133.568 231.533 133.733 232.248 133.733 233.048C133.733 233.848 133.568 234.563 133.237 235.192C132.917 235.811 132.458 236.301 131.861 236.664C131.274 237.016 130.586 237.192 129.797 237.192ZM129.653 236.024C130.186 236.024 130.656 235.901 131.061 235.656C131.466 235.4 131.786 235.048 132.021 234.6C132.256 234.152 132.373 233.629 132.373 233.032C132.373 232.435 132.256 231.912 132.021 231.464C131.786 231.016 131.466 230.669 131.061 230.424C130.656 230.168 130.186 230.04 129.653 230.04C129.12 230.04 128.65 230.168 128.245 230.424C127.84 230.669 127.52 231.016 127.285 231.464C127.05 231.912 126.933 232.435 126.933 233.032C126.933 233.629 127.05 234.152 127.285 234.6C127.52 235.048 127.84 235.4 128.245 235.656C128.65 235.901 129.12 236.024 129.653 236.024ZM142.548 229.064V237H141.332L141.252 235.576C140.996 236.077 140.628 236.472 140.148 236.76C139.668 237.048 139.124 237.192 138.516 237.192C137.577 237.192 136.825 236.909 136.26 236.344C135.705 235.768 135.428 234.888 135.428 233.704V229.064H136.772V233.56C136.772 235.213 137.455 236.04 138.82 236.04C139.503 236.04 140.068 235.795 140.516 235.304C140.975 234.803 141.204 234.093 141.204 233.176V229.064H142.548ZM147.8 237.192C146.851 237.192 146.062 236.952 145.432 236.472C144.803 235.992 144.435 235.341 144.328 234.52H145.704C145.79 234.936 146.008 235.299 146.36 235.608C146.723 235.907 147.208 236.056 147.816 236.056C148.382 236.056 148.798 235.939 149.064 235.704C149.331 235.459 149.464 235.171 149.464 234.84C149.464 234.36 149.288 234.04 148.936 233.88C148.595 233.72 148.11 233.576 147.48 233.448C147.054 233.363 146.627 233.24 146.2 233.08C145.774 232.92 145.416 232.696 145.128 232.408C144.84 232.109 144.696 231.72 144.696 231.24C144.696 230.547 144.952 229.981 145.464 229.544C145.987 229.096 146.691 228.872 147.576 228.872C148.419 228.872 149.107 229.085 149.64 229.512C150.184 229.928 150.499 230.525 150.584 231.304H149.256C149.203 230.899 149.027 230.584 148.728 230.36C148.44 230.125 148.051 230.008 147.56 230.008C147.08 230.008 146.707 230.109 146.44 230.312C146.184 230.515 146.056 230.781 146.056 231.112C146.056 231.432 146.222 231.683 146.552 231.864C146.894 232.045 147.352 232.2 147.928 232.328C148.419 232.435 148.883 232.568 149.32 232.728C149.768 232.877 150.131 233.107 150.408 233.416C150.696 233.715 150.84 234.152 150.84 234.728C150.851 235.443 150.579 236.035 150.024 236.504C149.48 236.963 148.739 237.192 147.8 237.192ZM152.76 237V225.48H154.104V230.424C154.371 229.933 154.75 229.555 155.24 229.288C155.731 229.011 156.264 228.872 156.84 228.872C157.758 228.872 158.494 229.16 159.048 229.736C159.603 230.301 159.88 231.176 159.88 232.36V237H158.552V232.504C158.552 230.851 157.886 230.024 156.552 230.024C155.859 230.024 155.278 230.275 154.808 230.776C154.339 231.267 154.104 231.971 154.104 232.888V237H152.76ZM165.485 237.192C164.727 237.192 164.055 237.021 163.469 236.68C162.882 236.328 162.418 235.843 162.077 235.224C161.746 234.605 161.581 233.875 161.581 233.032C161.581 232.2 161.746 231.475 162.077 230.856C162.407 230.227 162.866 229.741 163.453 229.4C164.05 229.048 164.738 228.872 165.516 228.872C166.285 228.872 166.946 229.048 167.501 229.4C168.066 229.741 168.498 230.195 168.797 230.76C169.095 231.325 169.245 231.933 169.245 232.584C169.245 232.701 169.239 232.819 169.229 232.936C169.229 233.053 169.229 233.187 169.229 233.336H162.909C162.941 233.944 163.079 234.451 163.325 234.856C163.581 235.251 163.895 235.549 164.269 235.752C164.653 235.955 165.058 236.056 165.485 236.056C166.039 236.056 166.503 235.928 166.877 235.672C167.25 235.416 167.522 235.069 167.693 234.632H169.021C168.807 235.368 168.397 235.981 167.789 236.472C167.191 236.952 166.423 237.192 165.485 237.192ZM165.485 230.008C164.845 230.008 164.274 230.205 163.773 230.6C163.282 230.984 162.999 231.549 162.924 232.296H167.917C167.885 231.581 167.639 231.021 167.181 230.616C166.722 230.211 166.157 230.008 165.485 230.008ZM174.626 237.192C173.837 237.192 173.143 237.011 172.546 236.648C171.959 236.285 171.501 235.789 171.17 235.16C170.85 234.531 170.69 233.816 170.69 233.016C170.69 232.216 170.855 231.507 171.186 230.888C171.517 230.259 171.975 229.768 172.562 229.416C173.149 229.053 173.842 228.872 174.642 228.872C175.293 228.872 175.869 229.005 176.37 229.272C176.871 229.539 177.261 229.912 177.538 230.392V225.48H178.882V237H177.666L177.538 235.688C177.282 236.072 176.914 236.419 176.434 236.728C175.954 237.037 175.351 237.192 174.626 237.192ZM174.77 236.024C175.303 236.024 175.773 235.901 176.178 235.656C176.594 235.4 176.914 235.048 177.138 234.6C177.373 234.152 177.49 233.629 177.49 233.032C177.49 232.435 177.373 231.912 177.138 231.464C176.914 231.016 176.594 230.669 176.178 230.424C175.773 230.168 175.303 230.04 174.77 230.04C174.247 230.04 173.778 230.168 173.362 230.424C172.957 230.669 172.637 231.016 172.402 231.464C172.178 231.912 172.066 232.435 172.066 233.032C172.066 233.629 172.178 234.152 172.402 234.6C172.637 235.048 172.957 235.4 173.362 235.656C173.778 235.901 174.247 236.024 174.77 236.024ZM185.307 237V225.48H186.651V230.424C186.918 229.933 187.296 229.555 187.787 229.288C188.278 229.011 188.811 228.872 189.387 228.872C190.304 228.872 191.04 229.16 191.595 229.736C192.15 230.301 192.427 231.176 192.427 232.36V237H191.099V232.504C191.099 230.851 190.432 230.024 189.099 230.024C188.406 230.024 187.824 230.275 187.355 230.776C186.886 231.267 186.651 231.971 186.651 232.888V237H185.307ZM198.031 237.192C197.274 237.192 196.602 237.021 196.015 236.68C195.429 236.328 194.965 235.843 194.623 235.224C194.293 234.605 194.127 233.875 194.127 233.032C194.127 232.2 194.293 231.475 194.623 230.856C194.954 230.227 195.413 229.741 195.999 229.4C196.597 229.048 197.285 228.872 198.063 228.872C198.831 228.872 199.493 229.048 200.047 229.4C200.613 229.741 201.045 230.195 201.343 230.76C201.642 231.325 201.791 231.933 201.791 232.584C201.791 232.701 201.786 232.819 201.775 232.936C201.775 233.053 201.775 233.187 201.775 233.336H195.455C195.487 233.944 195.626 234.451 195.871 234.856C196.127 235.251 196.442 235.549 196.815 235.752C197.199 235.955 197.605 236.056 198.031 236.056C198.586 236.056 199.05 235.928 199.423 235.672C199.797 235.416 200.069 235.069 200.239 234.632H201.567C201.354 235.368 200.943 235.981 200.335 236.472C199.738 236.952 198.97 237.192 198.031 237.192ZM198.031 230.008C197.391 230.008 196.821 230.205 196.319 230.6C195.829 230.984 195.546 231.549 195.471 232.296H200.463C200.431 231.581 200.186 231.021 199.727 230.616C199.269 230.211 198.703 230.008 198.031 230.008ZM203.573 237V229.064H204.789L204.901 230.584C205.146 230.061 205.519 229.645 206.021 229.336C206.522 229.027 207.141 228.872 207.877 228.872V230.28H207.509C207.039 230.28 206.607 230.365 206.213 230.536C205.818 230.696 205.503 230.973 205.269 231.368C205.034 231.763 204.917 232.307 204.917 233V237H203.573ZM207.813 238.904L208.741 235.368H210.133L208.741 238.904H207.813ZM215.963 237V229.064H217.179L217.275 230.216C217.531 229.789 217.873 229.459 218.299 229.224C218.726 228.989 219.206 228.872 219.739 228.872C220.369 228.872 220.907 229 221.355 229.256C221.814 229.512 222.166 229.901 222.411 230.424C222.689 229.944 223.067 229.565 223.547 229.288C224.038 229.011 224.566 228.872 225.131 228.872C226.081 228.872 226.838 229.16 227.403 229.736C227.969 230.301 228.251 231.176 228.251 232.36V237H226.923V232.504C226.923 231.683 226.758 231.064 226.427 230.648C226.097 230.232 225.622 230.024 225.003 230.024C224.363 230.024 223.83 230.275 223.403 230.776C222.987 231.267 222.779 231.971 222.779 232.888V237H221.435V232.504C221.435 231.683 221.27 231.064 220.939 230.648C220.609 230.232 220.134 230.024 219.515 230.024C218.886 230.024 218.358 230.275 217.931 230.776C217.515 231.267 217.307 231.971 217.307 232.888V237H215.963ZM232.916 237.192C232.255 237.192 231.705 237.08 231.268 236.856C230.831 236.632 230.505 236.333 230.292 235.96C230.079 235.587 229.972 235.181 229.972 234.744C229.972 233.933 230.281 233.309 230.9 232.872C231.519 232.435 232.361 232.216 233.428 232.216H235.572V232.12C235.572 231.427 235.391 230.904 235.028 230.552C234.665 230.189 234.18 230.008 233.572 230.008C233.049 230.008 232.596 230.141 232.212 230.408C231.839 230.664 231.604 231.043 231.508 231.544H230.132C230.185 230.968 230.377 230.483 230.708 230.088C231.049 229.693 231.471 229.395 231.972 229.192C232.473 228.979 233.007 228.872 233.572 228.872C234.681 228.872 235.513 229.171 236.068 229.768C236.633 230.355 236.916 231.139 236.916 232.12V237H235.716L235.636 235.576C235.412 236.024 235.081 236.408 234.644 236.728C234.217 237.037 233.641 237.192 232.916 237.192ZM233.124 236.056C233.636 236.056 234.073 235.923 234.436 235.656C234.809 235.389 235.092 235.043 235.284 234.616C235.476 234.189 235.572 233.741 235.572 233.272V233.256H233.54C232.751 233.256 232.191 233.395 231.86 233.672C231.54 233.939 231.38 234.275 231.38 234.68C231.38 235.096 231.529 235.432 231.828 235.688C232.137 235.933 232.569 236.056 233.124 236.056ZM242.532 237.192C241.743 237.192 241.049 237.011 240.452 236.648C239.865 236.285 239.407 235.789 239.076 235.16C238.756 234.531 238.596 233.816 238.596 233.016C238.596 232.216 238.761 231.507 239.092 230.888C239.423 230.259 239.881 229.768 240.468 229.416C241.055 229.053 241.748 228.872 242.548 228.872C243.199 228.872 243.775 229.005 244.276 229.272C244.777 229.539 245.167 229.912 245.444 230.392V225.48H246.788V237H245.572L245.444 235.688C245.188 236.072 244.82 236.419 244.34 236.728C243.86 237.037 243.257 237.192 242.532 237.192ZM242.676 236.024C243.209 236.024 243.679 235.901 244.084 235.656C244.5 235.4 244.82 235.048 245.044 234.6C245.279 234.152 245.396 233.629 245.396 233.032C245.396 232.435 245.279 231.912 245.044 231.464C244.82 231.016 244.5 230.669 244.084 230.424C243.679 230.168 243.209 230.04 242.676 230.04C242.153 230.04 241.684 230.168 241.268 230.424C240.863 230.669 240.543 231.016 240.308 231.464C240.084 231.912 239.972 232.435 239.972 233.032C239.972 233.629 240.084 234.152 240.308 234.6C240.543 235.048 240.863 235.4 241.268 235.656C241.684 235.901 242.153 236.024 242.676 236.024ZM252.547 237.192C251.79 237.192 251.118 237.021 250.531 236.68C249.944 236.328 249.48 235.843 249.139 235.224C248.808 234.605 248.643 233.875 248.643 233.032C248.643 232.2 248.808 231.475 249.139 230.856C249.47 230.227 249.928 229.741 250.515 229.4C251.112 229.048 251.8 228.872 252.579 228.872C253.347 228.872 254.008 229.048 254.563 229.4C255.128 229.741 255.56 230.195 255.859 230.76C256.158 231.325 256.307 231.933 256.307 232.584C256.307 232.701 256.302 232.819 256.291 232.936C256.291 233.053 256.291 233.187 256.291 233.336H249.971C250.003 233.944 250.142 234.451 250.387 234.856C250.643 235.251 250.958 235.549 251.331 235.752C251.715 235.955 252.12 236.056 252.547 236.056C253.102 236.056 253.566 235.928 253.939 235.672C254.312 235.416 254.584 235.069 254.755 234.632H256.083C255.87 235.368 255.459 235.981 254.851 236.472C254.254 236.952 253.486 237.192 252.547 237.192ZM252.547 230.008C251.907 230.008 251.336 230.205 250.835 230.6C250.344 230.984 250.062 231.549 249.987 232.296H254.979C254.947 231.581 254.702 231.021 254.243 230.616C253.784 230.211 253.219 230.008 252.547 230.008ZM262.323 237V225.48H263.667V230.424C263.933 229.933 264.312 229.555 264.803 229.288C265.293 229.011 265.827 228.872 266.403 228.872C267.32 228.872 268.056 229.16 268.611 229.736C269.165 230.301 269.443 231.176 269.443 232.36V237H268.115V232.504C268.115 230.851 267.448 230.024 266.115 230.024C265.421 230.024 264.84 230.275 264.371 230.776C263.901 231.267 263.667 231.971 263.667 232.888V237H262.323ZM275.047 237.192C274.29 237.192 273.618 237.021 273.031 236.68C272.444 236.328 271.98 235.843 271.639 235.224C271.308 234.605 271.143 233.875 271.143 233.032C271.143 232.2 271.308 231.475 271.639 230.856C271.97 230.227 272.428 229.741 273.015 229.4C273.612 229.048 274.3 228.872 275.079 228.872C275.847 228.872 276.508 229.048 277.063 229.4C277.628 229.741 278.06 230.195 278.359 230.76C278.658 231.325 278.807 231.933 278.807 232.584C278.807 232.701 278.802 232.819 278.791 232.936C278.791 233.053 278.791 233.187 278.791 233.336H272.471C272.503 233.944 272.642 234.451 272.887 234.856C273.143 235.251 273.458 235.549 273.831 235.752C274.215 235.955 274.62 236.056 275.047 236.056C275.602 236.056 276.066 235.928 276.439 235.672C276.812 235.416 277.084 235.069 277.255 234.632H278.583C278.37 235.368 277.959 235.981 277.351 236.472C276.754 236.952 275.986 237.192 275.047 237.192ZM275.047 230.008C274.407 230.008 273.836 230.205 273.335 230.6C272.844 230.984 272.562 231.549 272.487 232.296H277.479C277.447 231.581 277.202 231.021 276.743 230.616C276.284 230.211 275.719 230.008 275.047 230.008ZM280.588 237V229.064H281.804L281.916 230.584C282.162 230.061 282.535 229.645 283.036 229.336C283.538 229.027 284.156 228.872 284.892 228.872V230.28H284.524C284.055 230.28 283.623 230.365 283.228 230.536C282.834 230.696 282.519 230.973 282.284 231.368C282.05 231.763 281.932 232.307 281.932 233V237H280.588ZM4.704 269.192C3.91467 269.192 3.22133 269.011 2.624 268.648C2.03733 268.285 1.57867 267.789 1.248 267.16C0.928 266.531 0.768 265.816 0.768 265.016C0.768 264.216 0.933333 263.507 1.264 262.888C1.59467 262.259 2.05333 261.768 2.64 261.416C3.22667 261.053 3.92 260.872 4.72 260.872C5.37067 260.872 5.94667 261.005 6.448 261.272C6.94933 261.539 7.33867 261.912 7.616 262.392V257.48H8.96V269H7.744L7.616 267.688C7.36 268.072 6.992 268.419 6.512 268.728C6.032 269.037 5.42933 269.192 4.704 269.192ZM4.848 268.024C5.38133 268.024 5.85067 267.901 6.256 267.656C6.672 267.4 6.992 267.048 7.216 266.6C7.45067 266.152 7.568 265.629 7.568 265.032C7.568 264.435 7.45067 263.912 7.216 263.464C6.992 263.016 6.672 262.669 6.256 262.424C5.85067 262.168 5.38133 262.04 4.848 262.04C4.32533 262.04 3.856 262.168 3.44 262.424C3.03467 262.669 2.71467 263.016 2.48 263.464C2.256 263.912 2.144 264.435 2.144 265.032C2.144 265.629 2.256 266.152 2.48 266.6C2.71467 267.048 3.03467 267.4 3.44 267.656C3.856 267.901 4.32533 268.024 4.848 268.024ZM11.1509 269V261.064H12.3669L12.4789 262.584C12.7242 262.061 13.0975 261.645 13.5989 261.336C14.1002 261.027 14.7189 260.872 15.4549 260.872V262.28H15.0869C14.6175 262.28 14.1855 262.365 13.7909 262.536C13.3962 262.696 13.0815 262.973 12.8469 263.368C12.6122 263.763 12.4949 264.307 12.4949 265V269H11.1509ZM23.9074 261.064V269H22.6914L22.6114 267.576C22.3554 268.077 21.9874 268.472 21.5074 268.76C21.0274 269.048 20.4834 269.192 19.8754 269.192C18.9367 269.192 18.1847 268.909 17.6194 268.344C17.0647 267.768 16.7874 266.888 16.7874 265.704V261.064H18.1314V265.56C18.1314 267.213 18.814 268.04 20.1794 268.04C20.862 268.04 21.4274 267.795 21.8754 267.304C22.334 266.803 22.5634 266.093 22.5634 265.176V261.064H23.9074ZM26.1196 269V261.064H27.3356L27.4156 262.488C27.6716 261.987 28.0396 261.592 28.5196 261.304C28.9996 261.016 29.5436 260.872 30.1516 260.872C31.0903 260.872 31.837 261.16 32.3916 261.736C32.957 262.301 33.2396 263.176 33.2396 264.36V269H31.8956V264.504C31.8956 262.851 31.213 262.024 29.8476 262.024C29.165 262.024 28.5943 262.275 28.1356 262.776C27.6876 263.267 27.4636 263.971 27.4636 264.888V269H26.1196ZM35.2759 269V257.48H36.6199V264.408L39.8679 261.064H41.5159L37.9959 264.648L41.9639 269H40.2519L36.6199 264.888V269H35.2759ZM49.1728 269L46.8528 261.064H48.1968L49.8768 267.288L51.7328 261.064H53.2528L55.1248 267.288L56.7888 261.064H58.1488L55.8288 269H54.4528L52.5008 262.456L50.5488 269H49.1728ZM60.4513 259.304C60.1846 259.304 59.9606 259.219 59.7793 259.048C59.6086 258.867 59.5233 258.643 59.5233 258.376C59.5233 258.12 59.6086 257.907 59.7793 257.736C59.9606 257.565 60.1846 257.48 60.4513 257.48C60.7073 257.48 60.9259 257.565 61.1073 257.736C61.2886 257.907 61.3793 258.12 61.3793 258.376C61.3793 258.643 61.2886 258.867 61.1073 259.048C60.9259 259.219 60.7073 259.304 60.4513 259.304ZM59.7793 269V261.064H61.1233V269H59.7793ZM66.5994 269C65.874 269 65.3034 268.824 64.8874 268.472C64.4714 268.12 64.2634 267.485 64.2634 266.568V262.2H62.8874V261.064H64.2634L64.4394 259.16H65.6074V261.064H67.9434V262.2H65.6074V266.568C65.6074 267.069 65.7087 267.411 65.9114 267.592C66.114 267.763 66.4714 267.848 66.9834 267.848H67.8154V269H66.5994ZM69.6509 269V257.48H70.9949V262.424C71.2615 261.933 71.6402 261.555 72.1309 261.288C72.6215 261.011 73.1549 260.872 73.7309 260.872C74.6482 260.872 75.3842 261.16 75.9389 261.736C76.4935 262.301 76.7709 263.176 76.7709 264.36V269H75.4429V264.504C75.4429 262.851 74.7762 262.024 73.4429 262.024C72.7495 262.024 72.1682 262.275 71.6989 262.776C71.2295 263.267 70.9949 263.971 70.9949 264.888V269H69.6509ZM83.1215 269V257.8H84.4655V267.928H89.6815V269H83.1215ZM94.72 269.192C93.9733 269.192 93.3013 269.021 92.704 268.68C92.1067 268.339 91.632 267.859 91.28 267.24C90.9387 266.611 90.768 265.875 90.768 265.032C90.768 264.189 90.944 263.459 91.296 262.84C91.648 262.211 92.1227 261.725 92.72 261.384C93.328 261.043 94.0053 260.872 94.752 260.872C95.4987 260.872 96.1707 261.043 96.768 261.384C97.3653 261.725 97.8347 262.211 98.176 262.84C98.528 263.459 98.704 264.189 98.704 265.032C98.704 265.875 98.528 266.611 98.176 267.24C97.824 267.859 97.344 268.339 96.736 268.68C96.1387 269.021 95.4667 269.192 94.72 269.192ZM94.72 268.04C95.1787 268.04 95.6053 267.928 96 267.704C96.3947 267.48 96.7147 267.144 96.96 266.696C97.2053 266.248 97.328 265.693 97.328 265.032C97.328 264.371 97.2053 263.816 96.96 263.368C96.7253 262.92 96.4107 262.584 96.016 262.36C95.6213 262.136 95.2 262.024 94.752 262.024C94.2933 262.024 93.8667 262.136 93.472 262.36C93.0773 262.584 92.7573 262.92 92.512 263.368C92.2667 263.816 92.144 264.371 92.144 265.032C92.144 265.693 92.2667 266.248 92.512 266.696C92.7573 267.144 93.072 267.48 93.456 267.704C93.8507 267.928 94.272 268.04 94.72 268.04ZM100.573 269V261.064H101.789L101.869 262.488C102.125 261.987 102.493 261.592 102.973 261.304C103.453 261.016 103.997 260.872 104.605 260.872C105.543 260.872 106.29 261.16 106.845 261.736C107.41 262.301 107.693 263.176 107.693 264.36V269H106.349V264.504C106.349 262.851 105.666 262.024 104.301 262.024C103.618 262.024 103.047 262.275 102.589 262.776C102.141 263.267 101.917 263.971 101.917 264.888V269H100.573ZM112.865 266.504C112.417 266.504 112.006 266.445 111.633 266.328L110.833 267.08C110.95 267.165 111.094 267.24 111.265 267.304C111.446 267.357 111.702 267.411 112.033 267.464C112.364 267.507 112.828 267.555 113.425 267.608C114.492 267.683 115.254 267.928 115.713 268.344C116.172 268.76 116.401 269.304 116.401 269.976C116.401 270.435 116.273 270.872 116.017 271.288C115.772 271.704 115.388 272.045 114.865 272.312C114.353 272.579 113.692 272.712 112.881 272.712C112.166 272.712 111.532 272.616 110.977 272.424C110.422 272.243 109.99 271.96 109.681 271.576C109.372 271.203 109.217 270.728 109.217 270.152C109.217 269.853 109.297 269.528 109.457 269.176C109.617 268.835 109.916 268.509 110.353 268.2C110.118 268.104 109.916 268.003 109.745 267.896C109.585 267.779 109.436 267.651 109.297 267.512V267.144L110.657 265.8C110.028 265.267 109.713 264.563 109.713 263.688C109.713 263.165 109.836 262.691 110.081 262.264C110.326 261.837 110.684 261.501 111.153 261.256C111.622 261 112.193 260.872 112.865 260.872C113.324 260.872 113.74 260.936 114.113 261.064H117.041V262.072L115.553 262.136C115.862 262.584 116.017 263.101 116.017 263.688C116.017 264.211 115.889 264.685 115.633 265.112C115.388 265.539 115.03 265.88 114.561 266.136C114.102 266.381 113.537 266.504 112.865 266.504ZM112.865 265.4C113.43 265.4 113.878 265.256 114.209 264.968C114.55 264.669 114.721 264.243 114.721 263.688C114.721 263.144 114.55 262.728 114.209 262.44C113.878 262.141 113.43 261.992 112.865 261.992C112.289 261.992 111.83 262.141 111.489 262.44C111.158 262.728 110.993 263.144 110.993 263.688C110.993 264.243 111.158 264.669 111.489 264.968C111.83 265.256 112.289 265.4 112.865 265.4ZM110.529 270.024C110.529 270.557 110.753 270.952 111.201 271.208C111.649 271.475 112.209 271.608 112.881 271.608C113.542 271.608 114.07 271.464 114.465 271.176C114.87 270.888 115.073 270.504 115.073 270.024C115.073 269.683 114.934 269.384 114.657 269.128C114.38 268.883 113.868 268.739 113.121 268.696C112.534 268.653 112.028 268.6 111.601 268.536C111.164 268.771 110.876 269.021 110.737 269.288C110.598 269.565 110.529 269.811 110.529 270.024ZM121.813 269.192C121.055 269.192 120.383 269.021 119.797 268.68C119.21 268.328 118.746 267.843 118.405 267.224C118.074 266.605 117.909 265.875 117.909 265.032C117.909 264.2 118.074 263.475 118.405 262.856C118.735 262.227 119.194 261.741 119.781 261.4C120.378 261.048 121.066 260.872 121.845 260.872C122.613 260.872 123.274 261.048 123.829 261.4C124.394 261.741 124.826 262.195 125.125 262.76C125.423 263.325 125.573 263.933 125.573 264.584C125.573 264.701 125.567 264.819 125.557 264.936C125.557 265.053 125.557 265.187 125.557 265.336H119.237C119.269 265.944 119.407 266.451 119.653 266.856C119.909 267.251 120.223 267.549 120.597 267.752C120.981 267.955 121.386 268.056 121.813 268.056C122.367 268.056 122.831 267.928 123.205 267.672C123.578 267.416 123.85 267.069 124.021 266.632H125.349C125.135 267.368 124.725 267.981 124.117 268.472C123.519 268.952 122.751 269.192 121.813 269.192ZM121.813 262.008C121.173 262.008 120.602 262.205 120.101 262.6C119.61 262.984 119.327 263.549 119.253 264.296H124.245C124.213 263.581 123.967 263.021 123.509 262.616C123.05 262.211 122.485 262.008 121.813 262.008ZM134.228 269.192C133.567 269.192 133.018 269.08 132.58 268.856C132.143 268.632 131.818 268.333 131.604 267.96C131.391 267.587 131.284 267.181 131.284 266.744C131.284 265.933 131.594 265.309 132.212 264.872C132.831 264.435 133.674 264.216 134.74 264.216H136.884V264.12C136.884 263.427 136.703 262.904 136.34 262.552C135.978 262.189 135.492 262.008 134.884 262.008C134.362 262.008 133.908 262.141 133.524 262.408C133.151 262.664 132.916 263.043 132.82 263.544H131.444C131.498 262.968 131.69 262.483 132.02 262.088C132.362 261.693 132.783 261.395 133.284 261.192C133.786 260.979 134.319 260.872 134.884 260.872C135.994 260.872 136.826 261.171 137.38 261.768C137.946 262.355 138.228 263.139 138.228 264.12V269H137.028L136.948 267.576C136.724 268.024 136.394 268.408 135.956 268.728C135.53 269.037 134.954 269.192 134.228 269.192ZM134.436 268.056C134.948 268.056 135.386 267.923 135.748 267.656C136.122 267.389 136.404 267.043 136.596 266.616C136.788 266.189 136.884 265.741 136.884 265.272V265.256H134.852C134.063 265.256 133.503 265.395 133.172 265.672C132.852 265.939 132.692 266.275 132.692 266.68C132.692 267.096 132.842 267.432 133.14 267.688C133.45 267.933 133.882 268.056 134.436 268.056ZM140.245 269V261.064H141.461L141.541 262.488C141.797 261.987 142.165 261.592 142.645 261.304C143.125 261.016 143.669 260.872 144.277 260.872C145.215 260.872 145.962 261.16 146.517 261.736C147.082 262.301 147.365 263.176 147.365 264.36V269H146.021V264.504C146.021 262.851 145.338 262.024 143.973 262.024C143.29 262.024 142.719 262.275 142.261 262.776C141.813 263.267 141.589 263.971 141.589 264.888V269H140.245ZM153.001 269.192C152.212 269.192 151.518 269.011 150.921 268.648C150.334 268.285 149.876 267.789 149.545 267.16C149.225 266.531 149.065 265.816 149.065 265.016C149.065 264.216 149.23 263.507 149.561 262.888C149.892 262.259 150.35 261.768 150.937 261.416C151.524 261.053 152.217 260.872 153.017 260.872C153.668 260.872 154.244 261.005 154.745 261.272C155.246 261.539 155.636 261.912 155.913 262.392V257.48H157.257V269H156.041L155.913 267.688C155.657 268.072 155.289 268.419 154.809 268.728C154.329 269.037 153.726 269.192 153.001 269.192ZM153.145 268.024C153.678 268.024 154.148 267.901 154.553 267.656C154.969 267.4 155.289 267.048 155.513 266.6C155.748 266.152 155.865 265.629 155.865 265.032C155.865 264.435 155.748 263.912 155.513 263.464C155.289 263.016 154.969 262.669 154.553 262.424C154.148 262.168 153.678 262.04 153.145 262.04C152.622 262.04 152.153 262.168 151.737 262.424C151.332 262.669 151.012 263.016 150.777 263.464C150.553 263.912 150.441 264.435 150.441 265.032C150.441 265.629 150.553 266.152 150.777 266.6C151.012 267.048 151.332 267.4 151.737 267.656C152.153 267.901 152.622 268.024 153.145 268.024ZM163.762 269V257.8H167.442C168.317 257.8 169.037 257.944 169.602 258.232C170.167 258.52 170.583 258.909 170.85 259.4C171.127 259.891 171.266 260.445 171.266 261.064C171.266 261.672 171.133 262.221 170.866 262.712C170.599 263.203 170.183 263.597 169.618 263.896C169.053 264.184 168.327 264.328 167.442 264.328H165.106V269H163.762ZM165.106 263.192H167.41C168.306 263.192 168.941 263.005 169.314 262.632C169.698 262.248 169.89 261.725 169.89 261.064C169.89 260.392 169.698 259.869 169.314 259.496C168.941 259.112 168.306 258.92 167.41 258.92H165.106V263.192ZM175.213 269.192C174.551 269.192 174.002 269.08 173.565 268.856C173.127 268.632 172.802 268.333 172.589 267.96C172.375 267.587 172.269 267.181 172.269 266.744C172.269 265.933 172.578 265.309 173.197 264.872C173.815 264.435 174.658 264.216 175.725 264.216H177.869V264.12C177.869 263.427 177.687 262.904 177.325 262.552C176.962 262.189 176.477 262.008 175.869 262.008C175.346 262.008 174.893 262.141 174.509 262.408C174.135 262.664 173.901 263.043 173.805 263.544H172.429C172.482 262.968 172.674 262.483 173.005 262.088C173.346 261.693 173.767 261.395 174.269 261.192C174.77 260.979 175.303 260.872 175.869 260.872C176.978 260.872 177.81 261.171 178.365 261.768C178.93 262.355 179.213 263.139 179.213 264.12V269H178.013L177.933 267.576C177.709 268.024 177.378 268.408 176.941 268.728C176.514 269.037 175.938 269.192 175.213 269.192ZM175.421 268.056C175.933 268.056 176.37 267.923 176.733 267.656C177.106 267.389 177.389 267.043 177.581 266.616C177.773 266.189 177.869 265.741 177.869 265.272V265.256H175.837C175.047 265.256 174.487 265.395 174.157 265.672C173.837 265.939 173.677 266.275 173.677 266.68C173.677 267.096 173.826 267.432 174.125 267.688C174.434 267.933 174.866 268.056 175.421 268.056ZM181.229 269V261.064H182.445L182.557 262.584C182.802 262.061 183.176 261.645 183.677 261.336C184.178 261.027 184.797 260.872 185.533 260.872V262.28H185.165C184.696 262.28 184.264 262.365 183.869 262.536C183.474 262.696 183.16 262.973 182.925 263.368C182.69 263.763 182.573 264.307 182.573 265V269H181.229ZM190.361 269.192C189.614 269.192 188.942 269.021 188.345 268.68C187.747 268.339 187.273 267.859 186.921 267.24C186.579 266.611 186.409 265.875 186.409 265.032C186.409 264.189 186.585 263.459 186.937 262.84C187.289 262.211 187.763 261.725 188.361 261.384C188.969 261.043 189.646 260.872 190.393 260.872C191.139 260.872 191.811 261.043 192.409 261.384C193.006 261.725 193.475 262.211 193.817 262.84C194.169 263.459 194.345 264.189 194.345 265.032C194.345 265.875 194.169 266.611 193.817 267.24C193.465 267.859 192.985 268.339 192.377 268.68C191.779 269.021 191.107 269.192 190.361 269.192ZM190.361 268.04C190.819 268.04 191.246 267.928 191.641 267.704C192.035 267.48 192.355 267.144 192.601 266.696C192.846 266.248 192.969 265.693 192.969 265.032C192.969 264.371 192.846 263.816 192.601 263.368C192.366 262.92 192.051 262.584 191.657 262.36C191.262 262.136 190.841 262.024 190.393 262.024C189.934 262.024 189.507 262.136 189.113 262.36C188.718 262.584 188.398 262.92 188.153 263.368C187.907 263.816 187.785 264.371 187.785 265.032C187.785 265.693 187.907 266.248 188.153 266.696C188.398 267.144 188.713 267.48 189.097 267.704C189.491 267.928 189.913 268.04 190.361 268.04ZM196.213 269V257.48H197.557V269H196.213ZM203.328 269.192C202.571 269.192 201.899 269.021 201.312 268.68C200.726 268.328 200.262 267.843 199.92 267.224C199.59 266.605 199.424 265.875 199.424 265.032C199.424 264.2 199.59 263.475 199.92 262.856C200.251 262.227 200.71 261.741 201.296 261.4C201.894 261.048 202.582 260.872 203.36 260.872C204.128 260.872 204.79 261.048 205.344 261.4C205.91 261.741 206.342 262.195 206.64 262.76C206.939 263.325 207.088 263.933 207.088 264.584C207.088 264.701 207.083 264.819 207.072 264.936C207.072 265.053 207.072 265.187 207.072 265.336H200.752C200.784 265.944 200.923 266.451 201.168 266.856C201.424 267.251 201.739 267.549 202.112 267.752C202.496 267.955 202.902 268.056 203.328 268.056C203.883 268.056 204.347 267.928 204.72 267.672C205.094 267.416 205.366 267.069 205.536 266.632H206.864C206.651 267.368 206.24 267.981 205.632 268.472C205.035 268.952 204.267 269.192 203.328 269.192ZM203.328 262.008C202.688 262.008 202.118 262.205 201.616 262.6C201.126 262.984 200.843 263.549 200.768 264.296H205.76C205.728 263.581 205.483 263.021 205.024 262.616C204.566 262.211 204 262.008 203.328 262.008ZM209.334 269.08C209.067 269.08 208.843 268.995 208.662 268.824C208.491 268.643 208.406 268.424 208.406 268.168C208.406 267.912 208.491 267.699 208.662 267.528C208.843 267.347 209.067 267.256 209.334 267.256C209.59 267.256 209.803 267.347 209.974 267.528C210.155 267.699 210.246 267.912 210.246 268.168C210.246 268.424 210.155 268.643 209.974 268.824C209.803 268.995 209.59 269.08 209.334 269.08Z" fill="#333333" fill-opacity="0.496405"/>
</svg>
