<svg width="338" height="340" viewBox="0 0 338 340" fill="none" xmlns="http://www.w3.org/2000/svg">
<path fill-rule="evenodd" clip-rule="evenodd" d="M338 164.733C319.432 178.116 296.637 186 272 186C209.592 186 159 135.408 159 73C159 45.171 169.06 19.6916 185.741 0H338V164.733Z" fill="#F5AE5C"/>
<mask id="mask0_0_1" style="mask-type:luminance" maskUnits="userSpaceOnUse" x="159" y="0" width="179" height="186">
<path fill-rule="evenodd" clip-rule="evenodd" d="M338 164.733C319.432 178.116 296.637 186 272 186C209.592 186 159 135.408 159 73C159 45.171 169.06 19.6916 185.741 0H338V164.733Z" fill="white"/>
</mask>
<g mask="url(#mask0_0_1)">
</g>
<path fill-rule="evenodd" clip-rule="evenodd" d="M85.8445 114.063L85.1387 113.86L88.7614 110.217C97.4478 101.484 97.4478 87.2727 88.7614 78.54C81.7645 71.5045 70.8374 69.966 62.1904 74.7997L57.3273 77.516C48.6046 82.3878 40.6059 88.4555 33.5498 95.5506C28.2458 100.884 23.5028 106.799 19.4178 113.127L16.1555 114.063C6.64316 116.796 0 125.651 0 135.6C0 147.952 9.99271 158 22.2771 158H79.7245C92.0073 158 102 147.952 102 135.6C102 125.651 95.3568 116.796 85.8445 114.063ZM85.3658 117.387C85.1585 121.76 84.7669 126.161 84.1533 130.487C84.1187 130.735 83.6894 130.735 83.6532 130.487C82.9984 125.875 82.5854 121.185 82.3913 116.512L84.9397 117.244C85.0213 117.268 85.1008 117.296 85.1803 117.324L85.1806 117.324C85.242 117.346 85.3034 117.367 85.3658 117.387ZM64.0184 77.5744C63.941 77.6119 63.8636 77.6495 63.7878 77.6914L61.4731 78.9866C64.8917 82.1512 68.4831 85.1735 72.193 87.9708C72.2933 88.0469 72.4332 88.037 72.522 87.9477C72.6092 87.8583 72.6191 87.7177 72.545 87.6168C69.9391 84.1231 67.1209 80.7335 64.1893 77.4895C64.1327 77.519 64.0756 77.5467 64.0184 77.5744ZM58.4509 80.6822C62.1871 84.1925 66.1338 87.5358 70.2171 90.616C70.8456 91.0907 71.5925 91.324 72.3394 91.324C73.2541 91.324 74.1655 90.9733 74.8483 90.2868C76.0871 89.0428 76.2269 87.0411 75.1773 85.6317C72.7457 82.3712 70.1201 79.2149 67.4055 76.1612C74.0174 74.1215 81.4125 75.8336 86.4335 80.8824C93.8367 88.3265 93.8367 100.437 86.4335 107.881L81.5194 112.823L80.4961 112.528C71.3194 109.891 61.8136 108.53 52.2947 108.416C49.3022 104.733 46.1106 101.162 42.7742 97.8053L39.4592 94.472C41.0879 92.9815 42.7594 91.5423 44.4786 90.1611L45.1005 90.7864C49.8418 95.5539 54.9665 100.022 60.3297 104.067C60.9582 104.541 61.7067 104.775 62.452 104.775C63.3667 104.775 64.2781 104.424 64.9608 103.737C66.1996 102.493 66.3411 100.492 65.2899 99.0824C61.4056 93.8732 57.1216 88.8989 52.5629 84.2719C54.4828 83.0081 56.4488 81.8154 58.4509 80.6822ZM69.0951 113.276C68.0027 113.082 66.9054 112.91 65.8064 112.751V113.218C65.8064 119.802 66.277 126.447 67.1999 132.968C67.2361 133.216 67.6655 133.216 67.7 132.968C68.623 126.465 69.0918 119.842 69.0951 113.276ZM49.959 111.697L49.9597 111.697L49.96 111.697C50.3063 111.689 50.6528 111.681 51 111.681C51.3472 111.681 51.6937 111.689 52.04 111.697L52.0403 111.697C52.2419 111.702 52.4436 111.706 52.6452 111.709V116.525C52.6452 123.109 52.1746 129.754 51.2501 136.275C51.2155 136.523 50.7861 136.523 50.7499 136.275C49.8254 129.755 49.3548 123.11 49.3548 116.526V111.709C49.556 111.706 49.7571 111.702 49.9583 111.697L49.959 111.697ZM62.656 101.066C58.7372 95.812 54.4104 90.793 49.7941 86.1495C48.8843 86.7897 47.9877 87.4481 47.0993 88.1164L47.4267 88.4456C52.0578 93.104 57.0641 97.4679 62.3039 101.42C62.4043 101.496 62.5457 101.486 62.6329 101.397C62.7201 101.307 62.73 101.167 62.656 101.066ZM37.0605 96.7383L40.4479 100.144C43.0736 102.785 45.5775 105.585 47.9959 108.444C46.8674 108.475 45.7404 108.528 44.6135 108.594C42.3925 106.631 40.2077 104.583 38.12 102.484L34.7442 99.089C34.9034 98.9233 35.0593 98.7545 35.215 98.5857L35.2151 98.5856L35.2152 98.5855L35.2155 98.5852L35.2164 98.5843L35.2164 98.5842L35.2166 98.5841L35.2167 98.5839L35.2168 98.5838L35.2169 98.5837L35.2171 98.5835C35.4339 98.3486 35.6505 98.1138 35.876 97.888C36.1162 97.6475 36.3608 97.4127 36.6051 97.1781C36.7574 97.0318 36.9096 96.8857 37.0605 96.7383ZM27.3258 110.371C27.049 110.079 26.7723 109.788 26.4887 109.502L26.1827 109.195C25.5477 110.048 24.9193 110.904 24.3105 111.775C25.4885 111.471 26.6697 111.19 27.8559 110.927C27.6783 110.743 27.5025 110.558 27.3267 110.372L27.3264 110.372L27.3261 110.372L27.3258 110.371ZM31.6825 110.151C30.7382 109.144 29.7873 108.141 28.815 107.163L28.1931 106.538C29.5685 104.809 31.0031 103.13 32.4821 101.493L35.7938 104.824C37.1889 106.227 38.6333 107.598 40.0942 108.95C37.2761 109.236 34.4711 109.641 31.6825 110.151ZM36.1935 113.218V112.751C35.0946 112.91 33.9973 113.082 32.9032 113.276C32.9065 119.842 33.3754 126.465 34.2983 132.968C34.3345 133.216 34.7639 133.216 34.7985 132.968C35.723 126.447 36.1935 119.802 36.1935 113.218ZM19.6087 116.513C19.4145 121.186 19.0016 125.875 18.3468 130.488C18.3123 130.736 17.8829 130.736 17.8467 130.488C17.2331 126.162 16.8415 121.762 16.6342 117.388C16.6967 117.369 16.7582 117.347 16.8197 117.325L16.8198 117.325C16.8993 117.297 16.9787 117.269 17.0603 117.246L19.6087 116.513ZM22.2771 154.692H79.7229C90.1927 154.692 98.7097 146.126 98.7097 135.6C98.7097 128.472 94.6988 122.014 88.6034 118.75C88.3764 122.829 87.9816 126.922 87.4091 130.955C87.1606 132.698 85.6537 134.013 83.9032 134.013C82.1528 134.013 80.6458 132.698 80.3974 130.955C79.6752 125.876 79.2343 120.705 79.0615 115.565C76.8488 114.942 74.6196 114.387 72.3739 113.914C72.3427 120.425 71.8738 126.99 70.9575 133.436C70.709 135.18 69.2021 136.495 67.4516 136.495C65.7012 136.495 64.1942 135.18 63.9458 133.438C62.9965 126.761 62.5161 119.957 62.5161 113.218V112.333C60.3297 112.088 58.1351 111.918 55.9355 111.813V116.526C55.9355 123.266 55.4551 130.068 54.5058 136.745C54.2574 138.488 52.7505 139.803 51 139.803C49.2495 139.803 47.7426 138.488 47.4942 136.746C46.5449 130.07 46.0645 123.266 46.0645 116.526V111.813C43.8649 111.918 41.6703 112.088 39.4839 112.333V113.218C39.4839 119.957 39.0035 126.76 38.0542 133.436C37.8058 135.18 36.2988 136.495 34.5484 136.495C32.7979 136.495 31.291 135.18 31.0425 133.436C30.1262 126.99 29.6573 120.425 29.6261 113.914C27.3804 114.389 25.1512 114.942 22.9385 115.565C22.7641 120.705 22.3248 125.875 21.6026 130.955C21.3542 132.698 19.8472 134.013 18.0968 134.013C16.3463 134.013 14.8394 132.698 14.5909 130.956C14.0184 126.923 13.6236 122.829 13.3965 118.75C7.30123 122.014 3.29032 128.472 3.29032 135.6C3.29032 146.126 11.8073 154.692 22.2771 154.692Z" fill="#F5D3AB"/>
<path d="M31.9141 227.23V238.676H25.4883C25.4883 237.803 25.4622 237.048 25.4102 236.41C25.3711 235.759 25.2734 235.238 25.1172 234.848C24.9609 234.444 24.7201 234.151 24.3945 233.969C24.082 233.773 23.6589 233.676 23.125 233.676H21.9141V246.566C21.9141 247.413 22.1615 247.992 22.6562 248.305C23.151 248.604 23.9714 248.754 25.1172 248.754V256H7.20703V248.754C8.35286 248.754 9.16667 248.604 9.64844 248.305C10.1432 247.992 10.3906 247.413 10.3906 246.566V233.676H9.19922C8.66536 233.676 8.23568 233.773 7.91016 233.969C7.59766 234.151 7.35677 234.444 7.1875 234.848C7.03125 235.238 6.93359 235.759 6.89453 236.41C6.85547 237.048 6.83594 237.803 6.83594 238.676H0.390625V227.23H31.9141ZM42.9883 237.191C42.3242 237.191 41.7513 237.243 41.2695 237.348C40.8008 237.439 40.3971 237.549 40.0586 237.68C39.7201 237.81 39.4401 237.96 39.2188 238.129C38.9974 238.285 38.8021 238.428 38.6328 238.559L38.8281 238.754C39.0755 238.624 39.3424 238.493 39.6289 238.363C39.9284 238.233 40.306 238.168 40.7617 238.168C41.5299 238.168 42.194 238.422 42.7539 238.93C43.3138 239.424 43.5938 240.219 43.5938 241.312C43.5938 242.354 43.1641 243.194 42.3047 243.832C41.4583 244.457 40.319 244.77 38.8867 244.77C37.5195 244.77 36.4258 244.379 35.6055 243.598C34.7982 242.803 34.3945 241.684 34.3945 240.238C34.3945 239.444 34.6159 238.656 35.0586 237.875C35.5013 237.081 36.1849 236.371 37.1094 235.746C38.0469 235.121 39.2318 234.607 40.6641 234.203C42.1094 233.799 43.8477 233.598 45.8789 233.598C48.3008 233.598 50.2799 233.826 51.8164 234.281C53.3529 234.737 54.5443 235.323 55.3906 236.039C56.25 236.755 56.8359 237.569 57.1484 238.48C57.474 239.392 57.6367 240.31 57.6367 241.234V248.871C57.6367 250.056 57.6758 250.863 57.7539 251.293C57.832 251.71 58.125 251.918 58.6328 251.918C59.0365 251.918 59.3164 251.729 59.4727 251.352C59.6419 250.961 59.7266 250.297 59.7266 249.359V246.918H61.9531V249.398C61.9531 250.57 61.8555 251.612 61.6602 252.523C61.4648 253.422 61.0938 254.197 60.5469 254.848C60 255.486 59.2578 255.967 58.3203 256.293C57.3828 256.632 56.1849 256.801 54.7266 256.801C53.4115 256.801 52.3177 256.658 51.4453 256.371C50.5859 256.098 49.9023 255.753 49.3945 255.336C48.8867 254.919 48.5221 254.49 48.3008 254.047C48.0924 253.591 47.9883 253.188 47.9883 252.836H47.6758C47.5977 253.37 47.3698 253.878 46.9922 254.359C46.6276 254.841 46.1133 255.271 45.4492 255.648C44.7982 256.013 44.0104 256.306 43.0859 256.527C42.1745 256.762 41.1328 256.879 39.9609 256.879C38.8411 256.879 37.819 256.768 36.8945 256.547C35.9831 256.339 35.2018 256.007 34.5508 255.551C33.9128 255.082 33.4115 254.483 33.0469 253.754C32.6953 253.012 32.5195 252.133 32.5195 251.117C32.5195 249.867 32.8711 248.884 33.5742 248.168C34.2773 247.439 35.1628 246.866 36.2305 246.449C37.2982 246.02 38.457 245.674 39.707 245.414C40.9701 245.141 42.1354 244.815 43.2031 244.438C44.2708 244.06 45.1562 243.572 45.8594 242.973C46.5625 242.374 46.9141 241.527 46.9141 240.434C46.9141 239.457 46.6081 238.676 45.9961 238.09C45.3841 237.491 44.3815 237.191 42.9883 237.191ZM46.9141 245.648C46.6276 246.065 46.2695 246.404 45.8398 246.664C45.4102 246.911 44.9935 247.159 44.5898 247.406C44.1992 247.641 43.8542 247.927 43.5547 248.266C43.2682 248.591 43.125 249.034 43.125 249.594C43.125 250.023 43.2422 250.414 43.4766 250.766C43.7109 251.104 44.1667 251.273 44.8438 251.273C45.4557 251.273 45.9505 251.039 46.3281 250.57C46.7188 250.089 46.9141 249.418 46.9141 248.559V245.648ZM85.4102 241.605H80.0391C79.6615 240.668 79.0755 239.926 78.2812 239.379C77.487 238.832 76.6602 238.559 75.8008 238.559C75.2148 238.559 74.7461 238.669 74.3945 238.891C74.056 239.099 73.8867 239.418 73.8867 239.848C73.8867 240.382 74.1862 240.785 74.7852 241.059C75.3841 241.319 76.1328 241.553 77.0312 241.762C77.9427 241.97 78.9258 242.224 79.9805 242.523C81.0352 242.81 82.0117 243.227 82.9102 243.773C83.8216 244.32 84.5768 245.056 85.1758 245.98C85.7747 246.905 86.0742 248.122 86.0742 249.633C86.0742 250.805 85.8138 251.827 85.293 252.699C84.7721 253.572 84.056 254.288 83.1445 254.848C82.2461 255.408 81.1849 255.824 79.9609 256.098C78.737 256.384 77.4154 256.527 75.9961 256.527C74.6159 256.527 73.3073 256.391 72.0703 256.117C70.8464 255.857 69.6745 255.408 68.5547 254.77L68.3594 256.117H63.2031V248.285H68.5547C69.0625 249.327 69.7005 250.134 70.4688 250.707C71.25 251.28 72.1094 251.566 73.0469 251.566C73.763 251.566 74.2708 251.436 74.5703 251.176C74.8828 250.902 75.0391 250.603 75.0391 250.277C75.0391 249.743 74.7396 249.333 74.1406 249.047C73.5417 248.747 72.7995 248.487 71.9141 248.266C71.0417 248.031 70.0781 247.777 69.0234 247.504C67.9688 247.217 66.9987 246.807 66.1133 246.273C65.2409 245.74 64.5052 245.023 63.9062 244.125C63.3073 243.214 63.0078 242.022 63.0078 240.551C63.0078 239.496 63.2422 238.533 63.7109 237.66C64.1927 236.788 64.8763 236.052 65.7617 235.453C66.6471 234.854 67.6888 234.398 68.8867 234.086C70.0846 233.76 71.3997 233.598 72.832 233.598C74.4336 233.598 75.8724 233.78 77.1484 234.145C78.4375 234.496 79.401 234.887 80.0391 235.316L80.2344 233.93H85.4102V241.605ZM101.621 227.23V234.477H107.461V241.723H101.621V247.719C101.621 248.578 101.738 249.281 101.973 249.828C102.22 250.375 102.721 250.648 103.477 250.648C103.893 250.648 104.225 250.57 104.473 250.414C104.733 250.245 104.935 250.03 105.078 249.77C105.234 249.496 105.332 249.19 105.371 248.852C105.41 248.5 105.43 248.122 105.43 247.719V244.809H107.676V247.953C107.676 249.216 107.539 250.395 107.266 251.488C107.005 252.582 106.549 253.526 105.898 254.32C105.26 255.115 104.388 255.746 103.281 256.215C102.174 256.684 100.781 256.918 99.1016 256.918C97.2396 256.918 95.7552 256.69 94.6484 256.234C93.5417 255.779 92.7018 255.154 92.1289 254.359C91.556 253.565 91.1784 252.621 90.9961 251.527C90.8268 250.434 90.7422 249.242 90.7422 247.953V241.723H87.6758V235.277C88.6523 235.277 89.5573 235.069 90.3906 234.652C91.237 234.223 91.9596 233.637 92.5586 232.895C93.1706 232.139 93.6393 231.28 93.9648 230.316C94.3034 229.353 94.4727 228.324 94.4727 227.23H101.621ZM126.875 257.602C126.432 258.565 125.977 259.594 125.508 260.688C125.039 261.781 124.421 262.79 123.652 263.715C122.897 264.652 121.921 265.427 120.723 266.039C119.525 266.651 117.962 266.957 116.035 266.957C114.681 266.957 113.496 266.781 112.48 266.43C111.465 266.091 110.625 265.629 109.961 265.043C109.297 264.457 108.802 263.78 108.477 263.012C108.164 262.257 108.008 261.482 108.008 260.688C108.008 259.112 108.49 257.868 109.453 256.957C110.43 256.059 111.641 255.609 113.086 255.609C113.932 255.609 114.642 255.733 115.215 255.98C115.788 256.228 116.257 256.547 116.621 256.938C116.986 257.328 117.24 257.758 117.383 258.227C117.526 258.695 117.598 259.138 117.598 259.555C117.598 260.492 117.363 261.208 116.895 261.703C116.439 262.198 115.885 262.51 115.234 262.641C115.286 262.693 115.371 262.732 115.488 262.758C115.645 262.836 115.964 262.875 116.445 262.875C116.901 262.875 117.305 262.758 117.656 262.523C118.021 262.302 118.346 262.022 118.633 261.684C118.932 261.358 119.186 261 119.395 260.609C119.616 260.232 119.792 259.88 119.922 259.555L119.961 259.438L111.641 243.402C111.51 243.103 111.367 242.849 111.211 242.641C111.068 242.432 110.885 242.263 110.664 242.133C110.456 241.99 110.189 241.885 109.863 241.82C109.551 241.755 109.154 241.723 108.672 241.723V234.477H124.355V241.723C123.535 241.723 122.995 241.846 122.734 242.094C122.487 242.328 122.467 242.699 122.676 243.207L125.039 248.246L127.324 243.207C127.533 242.751 127.507 242.393 127.246 242.133C126.999 241.859 126.465 241.723 125.645 241.723V234.477H136.523V241.723C135.56 241.723 134.883 241.859 134.492 242.133C134.115 242.393 133.789 242.816 133.516 243.402L126.875 257.602Z" fill="#171B1B"/>
<path d="M0.48 304L4.608 292.8H6.032L10.144 304H8.72L7.696 301.12H2.928L1.888 304H0.48ZM3.328 300.032H7.296L5.312 294.496L3.328 300.032ZM11.729 304V296.064H12.945L13.025 297.488C13.281 296.987 13.649 296.592 14.129 296.304C14.609 296.016 15.153 295.872 15.761 295.872C16.6997 295.872 17.4463 296.16 18.001 296.736C18.5663 297.301 18.849 298.176 18.849 299.36V304H17.505V299.504C17.505 297.851 16.8223 297.024 15.457 297.024C14.7743 297.024 14.2037 297.275 13.745 297.776C13.297 298.267 13.073 298.971 13.073 299.888V304H11.729ZM24.4852 304.192C23.6959 304.192 23.0026 304.011 22.4053 303.648C21.8186 303.285 21.3599 302.789 21.0293 302.16C20.7093 301.531 20.5493 300.816 20.5493 300.016C20.5493 299.216 20.7146 298.507 21.0453 297.888C21.3759 297.259 21.8346 296.768 22.4213 296.416C23.0079 296.053 23.7013 295.872 24.5013 295.872C25.1519 295.872 25.7279 296.005 26.2293 296.272C26.7306 296.539 27.1199 296.912 27.3973 297.392V292.48H28.7413V304H27.5253L27.3973 302.688C27.1413 303.072 26.7733 303.419 26.2933 303.728C25.8133 304.037 25.2106 304.192 24.4852 304.192ZM24.6293 303.024C25.1626 303.024 25.6319 302.901 26.0373 302.656C26.4533 302.4 26.7733 302.048 26.9973 301.6C27.2319 301.152 27.3493 300.629 27.3493 300.032C27.3493 299.435 27.2319 298.912 26.9973 298.464C26.7733 298.016 26.4533 297.669 26.0373 297.424C25.6319 297.168 25.1626 297.04 24.6293 297.04C24.1066 297.04 23.6373 297.168 23.2213 297.424C22.8159 297.669 22.4959 298.016 22.2613 298.464C22.0373 298.912 21.9253 299.435 21.9253 300.032C21.9253 300.629 22.0373 301.152 22.2613 301.6C22.4959 302.048 22.8159 302.4 23.2213 302.656C23.6373 302.901 24.1066 303.024 24.6293 303.024ZM35.9825 294.304C35.7158 294.304 35.4918 294.219 35.3105 294.048C35.1398 293.867 35.0545 293.643 35.0545 293.376C35.0545 293.12 35.1398 292.907 35.3105 292.736C35.4918 292.565 35.7158 292.48 35.9825 292.48C36.2385 292.48 36.4572 292.565 36.6385 292.736C36.8198 292.907 36.9105 293.12 36.9105 293.376C36.9105 293.643 36.8198 293.867 36.6385 294.048C36.4572 294.219 36.2385 294.304 35.9825 294.304ZM35.3105 304V296.064H36.6545V304H35.3105ZM39.4266 304V297.2H38.2266V296.064H39.4266V294.688C39.4266 293.92 39.6186 293.36 40.0026 293.008C40.3866 292.656 40.9466 292.48 41.6826 292.48H42.4826V293.632H41.8906C41.4853 293.632 41.1973 293.717 41.0266 293.888C40.856 294.048 40.7706 294.325 40.7706 294.72V296.064H42.7226V297.2H40.7706V304H39.4266ZM51.5971 304.192C50.6478 304.192 49.8585 303.952 49.2291 303.472C48.5998 302.992 48.2318 302.341 48.1251 301.52H49.5011C49.5865 301.936 49.8051 302.299 50.1571 302.608C50.5198 302.907 51.0051 303.056 51.6131 303.056C52.1785 303.056 52.5945 302.939 52.8611 302.704C53.1278 302.459 53.2611 302.171 53.2611 301.84C53.2611 301.36 53.0851 301.04 52.7331 300.88C52.3918 300.72 51.9065 300.576 51.2771 300.448C50.8505 300.363 50.4238 300.24 49.9971 300.08C49.5705 299.92 49.2131 299.696 48.9251 299.408C48.6371 299.109 48.4931 298.72 48.4931 298.24C48.4931 297.547 48.7491 296.981 49.2611 296.544C49.7838 296.096 50.4878 295.872 51.3731 295.872C52.2158 295.872 52.9038 296.085 53.4371 296.512C53.9811 296.928 54.2958 297.525 54.3811 298.304H53.0531C52.9998 297.899 52.8238 297.584 52.5251 297.36C52.2371 297.125 51.8478 297.008 51.3571 297.008C50.8771 297.008 50.5038 297.109 50.2371 297.312C49.9811 297.515 49.8531 297.781 49.8531 298.112C49.8531 298.432 50.0185 298.683 50.3491 298.864C50.6905 299.045 51.1491 299.2 51.7251 299.328C52.2158 299.435 52.6798 299.568 53.1171 299.728C53.5651 299.877 53.9278 300.107 54.2051 300.416C54.4931 300.715 54.6371 301.152 54.6371 301.728C54.6478 302.443 54.3758 303.035 53.8211 303.504C53.2771 303.963 52.5358 304.192 51.5971 304.192ZM56.5571 304V292.48H57.9011V297.424C58.1678 296.933 58.5465 296.555 59.0371 296.288C59.5278 296.011 60.0611 295.872 60.6371 295.872C61.5545 295.872 62.2905 296.16 62.8451 296.736C63.3998 297.301 63.6771 298.176 63.6771 299.36V304H62.3491V299.504C62.3491 297.851 61.6825 297.024 60.3491 297.024C59.6558 297.024 59.0745 297.275 58.6051 297.776C58.1358 298.267 57.9011 298.971 57.9011 299.888V304H56.5571ZM69.2814 304.192C68.524 304.192 67.852 304.021 67.2654 303.68C66.6787 303.328 66.2147 302.843 65.8734 302.224C65.5427 301.605 65.3774 300.875 65.3774 300.032C65.3774 299.2 65.5427 298.475 65.8734 297.856C66.204 297.227 66.6627 296.741 67.2494 296.4C67.8467 296.048 68.5347 295.872 69.3134 295.872C70.0814 295.872 70.7427 296.048 71.2974 296.4C71.8627 296.741 72.2947 297.195 72.5934 297.76C72.892 298.325 73.0414 298.933 73.0414 299.584C73.0414 299.701 73.036 299.819 73.0254 299.936C73.0254 300.053 73.0254 300.187 73.0254 300.336H66.7054C66.7374 300.944 66.876 301.451 67.1214 301.856C67.3774 302.251 67.692 302.549 68.0654 302.752C68.4494 302.955 68.8547 303.056 69.2814 303.056C69.836 303.056 70.3 302.928 70.6734 302.672C71.0467 302.416 71.3187 302.069 71.4894 301.632H72.8174C72.604 302.368 72.1934 302.981 71.5854 303.472C70.988 303.952 70.22 304.192 69.2814 304.192ZM69.2814 297.008C68.6414 297.008 68.0707 297.205 67.5694 297.6C67.0787 297.984 66.796 298.549 66.7214 299.296H71.7134C71.6814 298.581 71.436 298.021 70.9774 297.616C70.5187 297.211 69.9534 297.008 69.2814 297.008ZM79.0571 304V292.48H80.4011V297.424C80.6678 296.933 81.0465 296.555 81.5371 296.288C82.0278 296.011 82.5611 295.872 83.1371 295.872C84.0545 295.872 84.7905 296.16 85.3451 296.736C85.8998 297.301 86.1771 298.176 86.1771 299.36V304H84.8491V299.504C84.8491 297.851 84.1825 297.024 82.8491 297.024C82.1558 297.024 81.5745 297.275 81.1051 297.776C80.6358 298.267 80.4011 298.971 80.4011 299.888V304H79.0571ZM90.8534 304.192C90.192 304.192 89.6427 304.08 89.2054 303.856C88.768 303.632 88.4427 303.333 88.2294 302.96C88.016 302.587 87.9094 302.181 87.9094 301.744C87.9094 300.933 88.2187 300.309 88.8374 299.872C89.456 299.435 90.2987 299.216 91.3654 299.216H93.5094V299.12C93.5094 298.427 93.328 297.904 92.9654 297.552C92.6027 297.189 92.1174 297.008 91.5094 297.008C90.9867 297.008 90.5334 297.141 90.1494 297.408C89.776 297.664 89.5414 298.043 89.4454 298.544H88.0694C88.1227 297.968 88.3147 297.483 88.6454 297.088C88.9867 296.693 89.408 296.395 89.9094 296.192C90.4107 295.979 90.944 295.872 91.5094 295.872C92.6187 295.872 93.4507 296.171 94.0054 296.768C94.5707 297.355 94.8534 298.139 94.8534 299.12V304H93.6534L93.5734 302.576C93.3494 303.024 93.0187 303.408 92.5814 303.728C92.1547 304.037 91.5787 304.192 90.8534 304.192ZM91.0614 303.056C91.5734 303.056 92.0107 302.923 92.3734 302.656C92.7467 302.389 93.0294 302.043 93.2214 301.616C93.4134 301.189 93.5094 300.741 93.5094 300.272V300.256H91.4774C90.688 300.256 90.128 300.395 89.7974 300.672C89.4774 300.939 89.3174 301.275 89.3174 301.68C89.3174 302.096 89.4667 302.432 89.7654 302.688C90.0747 302.933 90.5067 303.056 91.0614 303.056ZM99.9096 304.192C98.9603 304.192 98.171 303.952 97.5416 303.472C96.9123 302.992 96.5443 302.341 96.4376 301.52H97.8136C97.899 301.936 98.1176 302.299 98.4696 302.608C98.8323 302.907 99.3176 303.056 99.9256 303.056C100.491 303.056 100.907 302.939 101.174 302.704C101.44 302.459 101.574 302.171 101.574 301.84C101.574 301.36 101.398 301.04 101.046 300.88C100.704 300.72 100.219 300.576 99.5896 300.448C99.163 300.363 98.7363 300.24 98.3096 300.08C97.883 299.92 97.5256 299.696 97.2376 299.408C96.9496 299.109 96.8056 298.72 96.8056 298.24C96.8056 297.547 97.0616 296.981 97.5736 296.544C98.0963 296.096 98.8003 295.872 99.6856 295.872C100.528 295.872 101.216 296.085 101.75 296.512C102.294 296.928 102.608 297.525 102.694 298.304H101.366C101.312 297.899 101.136 297.584 100.838 297.36C100.55 297.125 100.16 297.008 99.6696 297.008C99.1896 297.008 98.8163 297.109 98.5496 297.312C98.2936 297.515 98.1656 297.781 98.1656 298.112C98.1656 298.432 98.331 298.683 98.6616 298.864C99.003 299.045 99.4616 299.2 100.038 299.328C100.528 299.435 100.992 299.568 101.43 299.728C101.878 299.877 102.24 300.107 102.518 300.416C102.806 300.715 102.95 301.152 102.95 301.728C102.96 302.443 102.688 303.035 102.134 303.504C101.59 303.963 100.848 304.192 99.9096 304.192ZM104.87 304V296.064H106.086L106.166 297.488C106.422 296.987 106.79 296.592 107.27 296.304C107.75 296.016 108.294 295.872 108.902 295.872C109.84 295.872 110.587 296.16 111.142 296.736C111.707 297.301 111.99 298.176 111.99 299.36V304H110.646V299.504C110.646 297.851 109.963 297.024 108.598 297.024C107.915 297.024 107.344 297.275 106.886 297.776C106.438 298.267 106.214 298.971 106.214 299.888V304H104.87ZM113.45 296.368L114.378 292.8H115.882L114.41 296.368H113.45ZM120.568 304C119.843 304 119.272 303.824 118.856 303.472C118.44 303.12 118.232 302.485 118.232 301.568V297.2H116.856V296.064H118.232L118.408 294.16H119.576V296.064H121.912V297.2H119.576V301.568C119.576 302.069 119.677 302.411 119.88 302.592C120.083 302.763 120.44 302.848 120.952 302.848H121.784V304H120.568ZM132.094 304.192C131.443 304.192 130.862 304.059 130.35 303.792C129.849 303.525 129.465 303.152 129.198 302.672L129.07 304H127.854V292.48H129.198V297.376C129.454 296.992 129.817 296.645 130.286 296.336C130.766 296.027 131.374 295.872 132.11 295.872C132.899 295.872 133.587 296.053 134.174 296.416C134.761 296.779 135.214 297.275 135.534 297.904C135.865 298.533 136.03 299.248 136.03 300.048C136.03 300.848 135.865 301.563 135.534 302.192C135.214 302.811 134.755 303.301 134.158 303.664C133.571 304.016 132.883 304.192 132.094 304.192ZM131.95 303.024C132.483 303.024 132.953 302.901 133.358 302.656C133.763 302.4 134.083 302.048 134.318 301.6C134.553 301.152 134.67 300.629 134.67 300.032C134.67 299.435 134.553 298.912 134.318 298.464C134.083 298.016 133.763 297.669 133.358 297.424C132.953 297.168 132.483 297.04 131.95 297.04C131.417 297.04 130.947 297.168 130.542 297.424C130.137 297.669 129.817 298.016 129.582 298.464C129.347 298.912 129.23 299.435 129.23 300.032C129.23 300.629 129.347 301.152 129.582 301.6C129.817 302.048 130.137 302.4 130.542 302.656C130.947 302.901 131.417 303.024 131.95 303.024ZM141.469 304.192C140.712 304.192 140.04 304.021 139.453 303.68C138.866 303.328 138.402 302.843 138.061 302.224C137.73 301.605 137.565 300.875 137.565 300.032C137.565 299.2 137.73 298.475 138.061 297.856C138.392 297.227 138.85 296.741 139.437 296.4C140.034 296.048 140.722 295.872 141.501 295.872C142.269 295.872 142.93 296.048 143.485 296.4C144.05 296.741 144.482 297.195 144.781 297.76C145.08 298.325 145.229 298.933 145.229 299.584C145.229 299.701 145.224 299.819 145.213 299.936C145.213 300.053 145.213 300.187 145.213 300.336H138.893C138.925 300.944 139.064 301.451 139.309 301.856C139.565 302.251 139.88 302.549 140.253 302.752C140.637 302.955 141.042 303.056 141.469 303.056C142.024 303.056 142.488 302.928 142.861 302.672C143.234 302.416 143.506 302.069 143.677 301.632H145.005C144.792 302.368 144.381 302.981 143.773 303.472C143.176 303.952 142.408 304.192 141.469 304.192ZM141.469 297.008C140.829 297.008 140.258 297.205 139.757 297.6C139.266 297.984 138.984 298.549 138.909 299.296H143.901C143.869 298.581 143.624 298.021 143.165 297.616C142.706 297.211 142.141 297.008 141.469 297.008ZM150.578 304.192C149.821 304.192 149.149 304.021 148.562 303.68C147.976 303.328 147.512 302.843 147.17 302.224C146.84 301.605 146.674 300.875 146.674 300.032C146.674 299.2 146.84 298.475 147.17 297.856C147.501 297.227 147.96 296.741 148.546 296.4C149.144 296.048 149.832 295.872 150.61 295.872C151.378 295.872 152.04 296.048 152.594 296.4C153.16 296.741 153.592 297.195 153.89 297.76C154.189 298.325 154.338 298.933 154.338 299.584C154.338 299.701 154.333 299.819 154.322 299.936C154.322 300.053 154.322 300.187 154.322 300.336H148.002C148.034 300.944 148.173 301.451 148.418 301.856C148.674 302.251 148.989 302.549 149.362 302.752C149.746 302.955 150.152 303.056 150.578 303.056C151.133 303.056 151.597 302.928 151.97 302.672C152.344 302.416 152.616 302.069 152.786 301.632H154.114C153.901 302.368 153.49 302.981 152.882 303.472C152.285 303.952 151.517 304.192 150.578 304.192ZM150.578 297.008C149.938 297.008 149.368 297.205 148.866 297.6C148.376 297.984 148.093 298.549 148.018 299.296H153.01C152.978 298.581 152.733 298.021 152.274 297.616C151.816 297.211 151.25 297.008 150.578 297.008ZM156.12 304V296.064H157.336L157.416 297.488C157.672 296.987 158.04 296.592 158.52 296.304C159 296.016 159.544 295.872 160.152 295.872C161.09 295.872 161.837 296.16 162.392 296.736C162.957 297.301 163.24 298.176 163.24 299.36V304H161.896V299.504C161.896 297.851 161.213 297.024 159.848 297.024C159.165 297.024 158.594 297.275 158.136 297.776C157.688 298.267 157.464 298.971 157.464 299.888V304H156.12ZM169.51 304V296.064H170.726L170.838 297.584C171.084 297.061 171.457 296.645 171.958 296.336C172.46 296.027 173.078 295.872 173.814 295.872V297.28H173.446C172.977 297.28 172.545 297.365 172.15 297.536C171.756 297.696 171.441 297.973 171.206 298.368C170.972 298.763 170.854 299.307 170.854 300V304H169.51ZM178.594 304.192C177.837 304.192 177.165 304.021 176.578 303.68C175.991 303.328 175.527 302.843 175.186 302.224C174.855 301.605 174.69 300.875 174.69 300.032C174.69 299.2 174.855 298.475 175.186 297.856C175.517 297.227 175.975 296.741 176.562 296.4C177.159 296.048 177.847 295.872 178.626 295.872C179.394 295.872 180.055 296.048 180.61 296.4C181.175 296.741 181.607 297.195 181.906 297.76C182.205 298.325 182.354 298.933 182.354 299.584C182.354 299.701 182.349 299.819 182.338 299.936C182.338 300.053 182.338 300.187 182.338 300.336H176.018C176.05 300.944 176.189 301.451 176.434 301.856C176.69 302.251 177.005 302.549 177.378 302.752C177.762 302.955 178.167 303.056 178.594 303.056C179.149 303.056 179.613 302.928 179.986 302.672C180.359 302.416 180.631 302.069 180.802 301.632H182.13C181.917 302.368 181.506 302.981 180.898 303.472C180.301 303.952 179.533 304.192 178.594 304.192ZM178.594 297.008C177.954 297.008 177.383 297.205 176.882 297.6C176.391 297.984 176.109 298.549 176.034 299.296H181.026C180.994 298.581 180.749 298.021 180.29 297.616C179.831 297.211 179.266 297.008 178.594 297.008ZM185.423 304L183.103 296.064H184.447L186.127 302.288L187.983 296.064H189.503L191.375 302.288L193.039 296.064H194.399L192.079 304H190.703L188.751 297.456L186.799 304H185.423ZM195.885 304V296.064H197.101L197.213 297.584C197.459 297.061 197.832 296.645 198.333 296.336C198.835 296.027 199.453 295.872 200.189 295.872V297.28H199.821C199.352 297.28 198.92 297.365 198.525 297.536C198.131 297.696 197.816 297.973 197.581 298.368C197.347 298.763 197.229 299.307 197.229 300V304H195.885ZM202.514 294.304C202.247 294.304 202.023 294.219 201.842 294.048C201.671 293.867 201.586 293.643 201.586 293.376C201.586 293.12 201.671 292.907 201.842 292.736C202.023 292.565 202.247 292.48 202.514 292.48C202.77 292.48 202.988 292.565 203.17 292.736C203.351 292.907 203.442 293.12 203.442 293.376C203.442 293.643 203.351 293.867 203.17 294.048C202.988 294.219 202.77 294.304 202.514 294.304ZM201.842 304V296.064H203.186V304H201.842ZM208.662 304C207.937 304 207.366 303.824 206.95 303.472C206.534 303.12 206.326 302.485 206.326 301.568V297.2H204.95V296.064H206.326L206.502 294.16H207.67V296.064H210.006V297.2H207.67V301.568C207.67 302.069 207.771 302.411 207.974 302.592C208.177 302.763 208.534 302.848 209.046 302.848H209.878V304H208.662ZM214.849 304C214.124 304 213.553 303.824 213.137 303.472C212.721 303.12 212.513 302.485 212.513 301.568V297.2H211.137V296.064H212.513L212.689 294.16H213.857V296.064H216.193V297.2H213.857V301.568C213.857 302.069 213.959 302.411 214.161 302.592C214.364 302.763 214.721 302.848 215.233 302.848H216.065V304H214.849ZM221.25 304.192C220.493 304.192 219.821 304.021 219.234 303.68C218.647 303.328 218.183 302.843 217.842 302.224C217.511 301.605 217.346 300.875 217.346 300.032C217.346 299.2 217.511 298.475 217.842 297.856C218.173 297.227 218.631 296.741 219.218 296.4C219.815 296.048 220.503 295.872 221.282 295.872C222.05 295.872 222.711 296.048 223.266 296.4C223.831 296.741 224.263 297.195 224.562 297.76C224.861 298.325 225.01 298.933 225.01 299.584C225.01 299.701 225.005 299.819 224.994 299.936C224.994 300.053 224.994 300.187 224.994 300.336H218.674C218.706 300.944 218.845 301.451 219.09 301.856C219.346 302.251 219.661 302.549 220.034 302.752C220.418 302.955 220.823 303.056 221.25 303.056C221.805 303.056 222.269 302.928 222.642 302.672C223.015 302.416 223.287 302.069 223.458 301.632H224.786C224.573 302.368 224.162 302.981 223.554 303.472C222.957 303.952 222.189 304.192 221.25 304.192ZM221.25 297.008C220.61 297.008 220.039 297.205 219.538 297.6C219.047 297.984 218.765 298.549 218.69 299.296H223.682C223.65 298.581 223.405 298.021 222.946 297.616C222.487 297.211 221.922 297.008 221.25 297.008ZM226.792 304V296.064H228.008L228.088 297.488C228.344 296.987 228.712 296.592 229.192 296.304C229.672 296.016 230.216 295.872 230.824 295.872C231.762 295.872 232.509 296.16 233.064 296.736C233.629 297.301 233.911 298.176 233.911 299.36V304H232.568V299.504C232.568 297.851 231.885 297.024 230.52 297.024C229.837 297.024 229.266 297.275 228.808 297.776C228.36 298.267 228.136 298.971 228.136 299.888V304H226.792ZM234.876 305.904L235.804 302.368H237.196L235.804 305.904H234.876ZM246.162 304C245.437 304 244.866 303.824 244.45 303.472C244.034 303.12 243.826 302.485 243.826 301.568V297.2H242.45V296.064H243.826L244.002 294.16H245.17V296.064H247.506V297.2H245.17V301.568C245.17 302.069 245.271 302.411 245.474 302.592C245.677 302.763 246.034 302.848 246.546 302.848H247.378V304H246.162ZM249.213 304V292.48H250.557V297.424C250.824 296.933 251.203 296.555 251.693 296.288C252.184 296.011 252.717 295.872 253.293 295.872C254.211 295.872 254.947 296.16 255.501 296.736C256.056 297.301 256.333 298.176 256.333 299.36V304H255.005V299.504C255.005 297.851 254.339 297.024 253.005 297.024C252.312 297.024 251.731 297.275 251.261 297.776C250.792 298.267 250.557 298.971 250.557 299.888V304H249.213ZM261.938 304.192C261.18 304.192 260.508 304.021 259.922 303.68C259.335 303.328 258.871 302.843 258.53 302.224C258.199 301.605 258.034 300.875 258.034 300.032C258.034 299.2 258.199 298.475 258.53 297.856C258.86 297.227 259.319 296.741 259.906 296.4C260.503 296.048 261.191 295.872 261.97 295.872C262.738 295.872 263.399 296.048 263.954 296.4C264.519 296.741 264.951 297.195 265.25 297.76C265.548 298.325 265.698 298.933 265.698 299.584C265.698 299.701 265.692 299.819 265.682 299.936C265.682 300.053 265.682 300.187 265.682 300.336H259.362C259.394 300.944 259.532 301.451 259.778 301.856C260.034 302.251 260.348 302.549 260.722 302.752C261.106 302.955 261.511 303.056 261.938 303.056C262.492 303.056 262.956 302.928 263.33 302.672C263.703 302.416 263.975 302.069 264.146 301.632H265.474C265.26 302.368 264.85 302.981 264.242 303.472C263.644 303.952 262.876 304.192 261.938 304.192ZM261.938 297.008C261.298 297.008 260.727 297.205 260.226 297.6C259.735 297.984 259.452 298.549 259.378 299.296H264.37C264.338 298.581 264.092 298.021 263.634 297.616C263.175 297.211 262.61 297.008 261.938 297.008ZM267.479 304V296.064H268.695L268.775 297.488C269.031 296.987 269.399 296.592 269.879 296.304C270.359 296.016 270.903 295.872 271.511 295.872C272.45 295.872 273.196 296.16 273.751 296.736C274.316 297.301 274.599 298.176 274.599 299.36V304H273.255V299.504C273.255 297.851 272.572 297.024 271.207 297.024C270.524 297.024 269.954 297.275 269.495 297.776C269.047 298.267 268.823 298.971 268.823 299.888V304H267.479ZM4.24 336C3.51467 336 2.944 335.824 2.528 335.472C2.112 335.12 1.904 334.485 1.904 333.568V329.2H0.528V328.064H1.904L2.08 326.16H3.248V328.064H5.584V329.2H3.248V333.568C3.248 334.069 3.34933 334.411 3.552 334.592C3.75467 334.763 4.112 334.848 4.624 334.848H5.456V336H4.24ZM7.2915 336V324.48H8.6355V329.424C8.90217 328.933 9.28083 328.555 9.7715 328.288C10.2622 328.011 10.7955 327.872 11.3715 327.872C12.2888 327.872 13.0248 328.16 13.5795 328.736C14.1342 329.301 14.4115 330.176 14.4115 331.36V336H13.0835V331.504C13.0835 329.851 12.4168 329.024 11.0835 329.024C10.3902 329.024 9.80883 329.275 9.3395 329.776C8.87017 330.267 8.6355 330.971 8.6355 331.888V336H7.2915ZM20.0158 336.192C19.2584 336.192 18.5864 336.021 17.9998 335.68C17.4131 335.328 16.9491 334.843 16.6078 334.224C16.2771 333.605 16.1118 332.875 16.1118 332.032C16.1118 331.2 16.2771 330.475 16.6078 329.856C16.9384 329.227 17.3971 328.741 17.9838 328.4C18.5811 328.048 19.2691 327.872 20.0477 327.872C20.8158 327.872 21.4771 328.048 22.0318 328.4C22.5971 328.741 23.0291 329.195 23.3278 329.76C23.6264 330.325 23.7758 330.933 23.7758 331.584C23.7758 331.701 23.7704 331.819 23.7598 331.936C23.7598 332.053 23.7598 332.187 23.7598 332.336H17.4398C17.4718 332.944 17.6104 333.451 17.8558 333.856C18.1118 334.251 18.4264 334.549 18.7998 334.752C19.1838 334.955 19.5891 335.056 20.0158 335.056C20.5704 335.056 21.0344 334.928 21.4078 334.672C21.7811 334.416 22.0531 334.069 22.2238 333.632H23.5518C23.3384 334.368 22.9278 334.981 22.3198 335.472C21.7224 335.952 20.9544 336.192 20.0158 336.192ZM20.0158 329.008C19.3758 329.008 18.8051 329.205 18.3038 329.6C17.8131 329.984 17.5304 330.549 17.4557 331.296H22.4478C22.4158 330.581 22.1704 330.021 21.7118 329.616C21.2531 329.211 20.6878 329.008 20.0158 329.008ZM26.1086 339.52L28.0766 335.232H27.6126L24.4606 328.064H25.9166L28.5406 334.24L31.3246 328.064H32.7166L27.5166 339.52H26.1086ZM41.0096 336.192C40.3483 336.192 39.799 336.08 39.3616 335.856C38.9243 335.632 38.599 335.333 38.3856 334.96C38.1723 334.587 38.0656 334.181 38.0656 333.744C38.0656 332.933 38.375 332.309 38.9936 331.872C39.6123 331.435 40.455 331.216 41.5216 331.216H43.6656V331.12C43.6656 330.427 43.4843 329.904 43.1216 329.552C42.759 329.189 42.2736 329.008 41.6656 329.008C41.143 329.008 40.6896 329.141 40.3056 329.408C39.9323 329.664 39.6976 330.043 39.6016 330.544H38.2256C38.279 329.968 38.471 329.483 38.8016 329.088C39.143 328.693 39.5643 328.395 40.0656 328.192C40.567 327.979 41.1003 327.872 41.6656 327.872C42.775 327.872 43.607 328.171 44.1616 328.768C44.727 329.355 45.0096 330.139 45.0096 331.12V336H43.8096L43.7296 334.576C43.5056 335.024 43.175 335.408 42.7376 335.728C42.311 336.037 41.735 336.192 41.0096 336.192ZM41.2176 335.056C41.7296 335.056 42.167 334.923 42.5296 334.656C42.903 334.389 43.1856 334.043 43.3776 333.616C43.5696 333.189 43.6656 332.741 43.6656 332.272V332.256H41.6336C40.8443 332.256 40.2843 332.395 39.9536 332.672C39.6336 332.939 39.4736 333.275 39.4736 333.68C39.4736 334.096 39.623 334.432 39.9216 334.688C40.231 334.933 40.663 335.056 41.2176 335.056ZM47.0259 336V328.064H48.2419L48.3539 329.584C48.5992 329.061 48.9725 328.645 49.4739 328.336C49.9752 328.027 50.5939 327.872 51.3299 327.872V329.28H50.9619C50.4925 329.28 50.0605 329.365 49.6659 329.536C49.2712 329.696 48.9565 329.973 48.7219 330.368C48.4872 330.763 48.3699 331.307 48.3699 332V336H47.0259ZM56.1095 336.192C55.3522 336.192 54.6802 336.021 54.0935 335.68C53.5068 335.328 53.0428 334.843 52.7015 334.224C52.3708 333.605 52.2055 332.875 52.2055 332.032C52.2055 331.2 52.3708 330.475 52.7015 329.856C53.0322 329.227 53.4908 328.741 54.0775 328.4C54.6748 328.048 55.3628 327.872 56.1415 327.872C56.9095 327.872 57.5708 328.048 58.1255 328.4C58.6908 328.741 59.1228 329.195 59.4215 329.76C59.7202 330.325 59.8695 330.933 59.8695 331.584C59.8695 331.701 59.8642 331.819 59.8535 331.936C59.8535 332.053 59.8535 332.187 59.8535 332.336H53.5335C53.5655 332.944 53.7042 333.451 53.9495 333.856C54.2055 334.251 54.5202 334.549 54.8935 334.752C55.2775 334.955 55.6828 335.056 56.1095 335.056C56.6642 335.056 57.1282 334.928 57.5015 334.672C57.8748 334.416 58.1468 334.069 58.3175 333.632H59.6455C59.4322 334.368 59.0215 334.981 58.4135 335.472C57.8162 335.952 57.0482 336.192 56.1095 336.192ZM56.1095 329.008C55.4695 329.008 54.8988 329.205 54.3975 329.6C53.9068 329.984 53.6242 330.549 53.5495 331.296H58.5415C58.5095 330.581 58.2642 330.021 57.8055 329.616C57.3468 329.211 56.7815 329.008 56.1095 329.008ZM68.9253 336.192C67.9759 336.192 67.1866 335.952 66.5573 335.472C65.9279 334.992 65.5599 334.341 65.4533 333.52H66.8293C66.9146 333.936 67.1333 334.299 67.4853 334.608C67.8479 334.907 68.3333 335.056 68.9413 335.056C69.5066 335.056 69.9226 334.939 70.1893 334.704C70.4559 334.459 70.5893 334.171 70.5893 333.84C70.5893 333.36 70.4133 333.04 70.0613 332.88C69.7199 332.72 69.2346 332.576 68.6053 332.448C68.1786 332.363 67.7519 332.24 67.3253 332.08C66.8986 331.92 66.5413 331.696 66.2533 331.408C65.9653 331.109 65.8213 330.72 65.8213 330.24C65.8213 329.547 66.0773 328.981 66.5893 328.544C67.1119 328.096 67.8159 327.872 68.7013 327.872C69.5439 327.872 70.2319 328.085 70.7653 328.512C71.3093 328.928 71.6239 329.525 71.7093 330.304H70.3813C70.3279 329.899 70.1519 329.584 69.8533 329.36C69.5653 329.125 69.1759 329.008 68.6853 329.008C68.2053 329.008 67.8319 329.109 67.5653 329.312C67.3093 329.515 67.1813 329.781 67.1813 330.112C67.1813 330.432 67.3466 330.683 67.6773 330.864C68.0186 331.045 68.4773 331.2 69.0533 331.328C69.5439 331.435 70.0079 331.568 70.4453 331.728C70.8933 331.877 71.2559 332.107 71.5333 332.416C71.8213 332.715 71.9653 333.152 71.9653 333.728C71.9759 334.443 71.7039 335.035 71.1493 335.504C70.6053 335.963 69.8639 336.192 68.9253 336.192ZM76.6619 336C75.9365 336 75.3659 335.824 74.9499 335.472C74.5339 335.12 74.3259 334.485 74.3259 333.568V329.2H72.9499V328.064H74.3259L74.5019 326.16H75.6699V328.064H78.0059V329.2H75.6699V333.568C75.6699 334.069 75.7712 334.411 75.9739 334.592C76.1765 334.763 76.5339 334.848 77.0459 334.848H77.8779V336H76.6619ZM80.5294 326.304C80.2627 326.304 80.0387 326.219 79.8574 326.048C79.6867 325.867 79.6014 325.643 79.6014 325.376C79.6014 325.12 79.6867 324.907 79.8574 324.736C80.0387 324.565 80.2627 324.48 80.5294 324.48C80.7854 324.48 81.004 324.565 81.1854 324.736C81.3667 324.907 81.4574 325.12 81.4574 325.376C81.4574 325.643 81.3667 325.867 81.1854 326.048C81.004 326.219 80.7854 326.304 80.5294 326.304ZM79.8574 336V328.064H81.2014V336H79.8574ZM83.5415 336V324.48H84.8855V336H83.5415ZM87.0884 336V324.48H88.4324V336H87.0884ZM101.814 328.064V336H100.598L100.518 334.576C100.262 335.077 99.8936 335.472 99.4136 335.76C98.9336 336.048 98.3896 336.192 97.7816 336.192C96.843 336.192 96.091 335.909 95.5256 335.344C94.971 334.768 94.6936 333.888 94.6936 332.704V328.064H96.0376V332.56C96.0376 334.213 96.7203 335.04 98.0856 335.04C98.7683 335.04 99.3336 334.795 99.7816 334.304C100.24 333.803 100.47 333.093 100.47 332.176V328.064H101.814ZM107.066 336.192C106.117 336.192 105.327 335.952 104.698 335.472C104.069 334.992 103.701 334.341 103.594 333.52H104.97C105.055 333.936 105.274 334.299 105.626 334.608C105.989 334.907 106.474 335.056 107.082 335.056C107.647 335.056 108.063 334.939 108.33 334.704C108.597 334.459 108.73 334.171 108.73 333.84C108.73 333.36 108.554 333.04 108.202 332.88C107.861 332.72 107.375 332.576 106.746 332.448C106.319 332.363 105.893 332.24 105.466 332.08C105.039 331.92 104.682 331.696 104.394 331.408C104.106 331.109 103.962 330.72 103.962 330.24C103.962 329.547 104.218 328.981 104.73 328.544C105.253 328.096 105.957 327.872 106.842 327.872C107.685 327.872 108.373 328.085 108.906 328.512C109.45 328.928 109.765 329.525 109.85 330.304H108.522C108.469 329.899 108.293 329.584 107.994 329.36C107.706 329.125 107.317 329.008 106.826 329.008C106.346 329.008 105.973 329.109 105.706 329.312C105.45 329.515 105.322 329.781 105.322 330.112C105.322 330.432 105.487 330.683 105.818 330.864C106.159 331.045 106.618 331.2 107.194 331.328C107.685 331.435 108.149 331.568 108.586 331.728C109.034 331.877 109.397 332.107 109.674 332.416C109.962 332.715 110.106 333.152 110.106 333.728C110.117 334.443 109.845 335.035 109.29 335.504C108.746 335.963 108.005 336.192 107.066 336.192ZM112.842 326.304C112.575 326.304 112.351 326.219 112.17 326.048C111.999 325.867 111.914 325.643 111.914 325.376C111.914 325.12 111.999 324.907 112.17 324.736C112.351 324.565 112.575 324.48 112.842 324.48C113.098 324.48 113.317 324.565 113.498 324.736C113.679 324.907 113.77 325.12 113.77 325.376C113.77 325.643 113.679 325.867 113.498 326.048C113.317 326.219 113.098 326.304 112.842 326.304ZM112.17 336V328.064H113.514V336H112.17ZM115.854 336V328.064H117.07L117.15 329.488C117.406 328.987 117.774 328.592 118.254 328.304C118.734 328.016 119.278 327.872 119.886 327.872C120.825 327.872 121.571 328.16 122.126 328.736C122.691 329.301 122.974 330.176 122.974 331.36V336H121.63V331.504C121.63 329.851 120.947 329.024 119.582 329.024C118.899 329.024 118.329 329.275 117.87 329.776C117.422 330.267 117.198 330.971 117.198 331.888V336H115.854ZM128.146 333.504C127.698 333.504 127.288 333.445 126.914 333.328L126.114 334.08C126.232 334.165 126.376 334.24 126.546 334.304C126.728 334.357 126.984 334.411 127.314 334.464C127.645 334.507 128.109 334.555 128.706 334.608C129.773 334.683 130.536 334.928 130.994 335.344C131.453 335.76 131.682 336.304 131.682 336.976C131.682 337.435 131.554 337.872 131.298 338.288C131.053 338.704 130.669 339.045 130.146 339.312C129.634 339.579 128.973 339.712 128.162 339.712C127.448 339.712 126.813 339.616 126.258 339.424C125.704 339.243 125.272 338.96 124.962 338.576C124.653 338.203 124.498 337.728 124.498 337.152C124.498 336.853 124.578 336.528 124.738 336.176C124.898 335.835 125.197 335.509 125.634 335.2C125.4 335.104 125.197 335.003 125.026 334.896C124.866 334.779 124.717 334.651 124.578 334.512V334.144L125.938 332.8C125.309 332.267 124.994 331.563 124.994 330.688C124.994 330.165 125.117 329.691 125.362 329.264C125.608 328.837 125.965 328.501 126.434 328.256C126.904 328 127.474 327.872 128.146 327.872C128.605 327.872 129.021 327.936 129.394 328.064H132.322V329.072L130.834 329.136C131.144 329.584 131.298 330.101 131.298 330.688C131.298 331.211 131.17 331.685 130.914 332.112C130.669 332.539 130.312 332.88 129.842 333.136C129.384 333.381 128.818 333.504 128.146 333.504ZM128.146 332.4C128.712 332.4 129.16 332.256 129.49 331.968C129.832 331.669 130.002 331.243 130.002 330.688C130.002 330.144 129.832 329.728 129.49 329.44C129.16 329.141 128.712 328.992 128.146 328.992C127.57 328.992 127.112 329.141 126.77 329.44C126.44 329.728 126.274 330.144 126.274 330.688C126.274 331.243 126.44 331.669 126.77 331.968C127.112 332.256 127.57 332.4 128.146 332.4ZM125.81 337.024C125.81 337.557 126.034 337.952 126.482 338.208C126.93 338.475 127.49 338.608 128.162 338.608C128.824 338.608 129.352 338.464 129.746 338.176C130.152 337.888 130.354 337.504 130.354 337.024C130.354 336.683 130.216 336.384 129.938 336.128C129.661 335.883 129.149 335.739 128.402 335.696C127.816 335.653 127.309 335.6 126.882 335.536C126.445 335.771 126.157 336.021 126.018 336.288C125.88 336.565 125.81 336.811 125.81 337.024ZM138.073 336V324.48H139.417V329.424C139.683 328.933 140.062 328.555 140.553 328.288C141.043 328.011 141.577 327.872 142.153 327.872C143.07 327.872 143.806 328.16 144.361 328.736C144.915 329.301 145.193 330.176 145.193 331.36V336H143.865V331.504C143.865 329.851 143.198 329.024 141.865 329.024C141.171 329.024 140.59 329.275 140.121 329.776C139.651 330.267 139.417 330.971 139.417 331.888V336H138.073ZM150.797 336.192C150.04 336.192 149.368 336.021 148.781 335.68C148.194 335.328 147.73 334.843 147.389 334.224C147.058 333.605 146.893 332.875 146.893 332.032C146.893 331.2 147.058 330.475 147.389 329.856C147.72 329.227 148.178 328.741 148.765 328.4C149.362 328.048 150.05 327.872 150.829 327.872C151.597 327.872 152.258 328.048 152.813 328.4C153.378 328.741 153.81 329.195 154.109 329.76C154.408 330.325 154.557 330.933 154.557 331.584C154.557 331.701 154.552 331.819 154.541 331.936C154.541 332.053 154.541 332.187 154.541 332.336H148.221C148.253 332.944 148.392 333.451 148.637 333.856C148.893 334.251 149.208 334.549 149.581 334.752C149.965 334.955 150.37 335.056 150.797 335.056C151.352 335.056 151.816 334.928 152.189 334.672C152.562 334.416 152.834 334.069 153.005 333.632H154.333C154.12 334.368 153.709 334.981 153.101 335.472C152.504 335.952 151.736 336.192 150.797 336.192ZM150.797 329.008C150.157 329.008 149.586 329.205 149.085 329.6C148.594 329.984 148.312 330.549 148.237 331.296H153.229C153.197 330.581 152.952 330.021 152.493 329.616C152.034 329.211 151.469 329.008 150.797 329.008ZM156.338 336V328.064H157.554L157.666 329.584C157.912 329.061 158.285 328.645 158.786 328.336C159.288 328.027 159.906 327.872 160.642 327.872V329.28H160.274C159.805 329.28 159.373 329.365 158.978 329.536C158.584 329.696 158.269 329.973 158.034 330.368C157.8 330.763 157.682 331.307 157.682 332V336H156.338ZM161.974 336.08C161.708 336.08 161.484 335.995 161.302 335.824C161.132 335.643 161.046 335.424 161.046 335.168C161.046 334.912 161.132 334.699 161.302 334.528C161.484 334.347 161.708 334.256 161.974 334.256C162.23 334.256 162.444 334.347 162.614 334.528C162.796 334.699 162.886 334.912 162.886 335.168C162.886 335.424 162.796 335.643 162.614 335.824C162.444 335.995 162.23 336.08 161.974 336.08Z" fill="#333333" fill-opacity="0.496405"/>
</svg>
