<svg width="191" height="274" viewBox="0 0 191 274" fill="none" xmlns="http://www.w3.org/2000/svg">
<path d="M4.144 14.144C3.07733 14.144 2.272 13.7973 1.728 13.104C1.19467 12.4107 0.928 11.4827 0.928 10.32V4.736C0.928 3.552 1.18933 2.624 1.712 1.952C2.24533 1.26933 3.056 0.927999 4.144 0.927999C5.22133 0.927999 6.02133 1.26933 6.544 1.952C7.07733 2.624 7.344 3.552 7.344 4.736V10.32C7.344 11.4933 7.07733 12.4267 6.544 13.12C6.01067 13.8027 5.21067 14.144 4.144 14.144ZM4.144 12.736C5.12533 12.736 5.616 11.936 5.616 10.336V4.72C5.616 3.984 5.50933 3.40267 5.296 2.976C5.09333 2.53867 4.70933 2.32 4.144 2.32C3.57867 2.32 3.18933 2.53867 2.976 2.976C2.76267 3.40267 2.656 3.984 2.656 4.72V10.336C2.656 11.936 3.152 12.736 4.144 12.736ZM15.6656 10.528H11.9056V8.736L15.2816 1.04H17.2976V9.008H18.7536V10.528H17.2976V14H15.6656V10.528ZM15.6656 9.008V3.12L13.5536 9.008H15.6656Z" fill="#171B1B"/>
<path d="M31.9141 129.23V140.676H25.4883C25.4883 139.803 25.4622 139.048 25.4102 138.41C25.3711 137.759 25.2734 137.238 25.1172 136.848C24.9609 136.444 24.7201 136.151 24.3945 135.969C24.082 135.773 23.6589 135.676 23.125 135.676H21.9141V148.566C21.9141 149.413 22.1615 149.992 22.6562 150.305C23.151 150.604 23.9714 150.754 25.1172 150.754V158H7.20703V150.754C8.35286 150.754 9.16667 150.604 9.64844 150.305C10.1432 149.992 10.3906 149.413 10.3906 148.566V135.676H9.19922C8.66536 135.676 8.23568 135.773 7.91016 135.969C7.59766 136.151 7.35677 136.444 7.1875 136.848C7.03125 137.238 6.93359 137.759 6.89453 138.41C6.85547 139.048 6.83594 139.803 6.83594 140.676H0.390625V129.23H31.9141ZM42.9883 139.191C42.3242 139.191 41.7513 139.243 41.2695 139.348C40.8008 139.439 40.3971 139.549 40.0586 139.68C39.7201 139.81 39.4401 139.96 39.2188 140.129C38.9974 140.285 38.8021 140.428 38.6328 140.559L38.8281 140.754C39.0755 140.624 39.3424 140.493 39.6289 140.363C39.9284 140.233 40.306 140.168 40.7617 140.168C41.5299 140.168 42.194 140.422 42.7539 140.93C43.3138 141.424 43.5938 142.219 43.5938 143.312C43.5938 144.354 43.1641 145.194 42.3047 145.832C41.4583 146.457 40.319 146.77 38.8867 146.77C37.5195 146.77 36.4258 146.379 35.6055 145.598C34.7982 144.803 34.3945 143.684 34.3945 142.238C34.3945 141.444 34.6159 140.656 35.0586 139.875C35.5013 139.081 36.1849 138.371 37.1094 137.746C38.0469 137.121 39.2318 136.607 40.6641 136.203C42.1094 135.799 43.8477 135.598 45.8789 135.598C48.3008 135.598 50.2799 135.826 51.8164 136.281C53.3529 136.737 54.5443 137.323 55.3906 138.039C56.25 138.755 56.8359 139.569 57.1484 140.48C57.474 141.392 57.6367 142.31 57.6367 143.234V150.871C57.6367 152.056 57.6758 152.863 57.7539 153.293C57.832 153.71 58.125 153.918 58.6328 153.918C59.0365 153.918 59.3164 153.729 59.4727 153.352C59.6419 152.961 59.7266 152.297 59.7266 151.359V148.918H61.9531V151.398C61.9531 152.57 61.8555 153.612 61.6602 154.523C61.4648 155.422 61.0938 156.197 60.5469 156.848C60 157.486 59.2578 157.967 58.3203 158.293C57.3828 158.632 56.1849 158.801 54.7266 158.801C53.4115 158.801 52.3177 158.658 51.4453 158.371C50.5859 158.098 49.9023 157.753 49.3945 157.336C48.8867 156.919 48.5221 156.49 48.3008 156.047C48.0924 155.591 47.9883 155.188 47.9883 154.836H47.6758C47.5977 155.37 47.3698 155.878 46.9922 156.359C46.6276 156.841 46.1133 157.271 45.4492 157.648C44.7982 158.013 44.0104 158.306 43.0859 158.527C42.1745 158.762 41.1328 158.879 39.9609 158.879C38.8411 158.879 37.819 158.768 36.8945 158.547C35.9831 158.339 35.2018 158.007 34.5508 157.551C33.9128 157.082 33.4115 156.483 33.0469 155.754C32.6953 155.012 32.5195 154.133 32.5195 153.117C32.5195 151.867 32.8711 150.884 33.5742 150.168C34.2773 149.439 35.1628 148.866 36.2305 148.449C37.2982 148.02 38.457 147.674 39.707 147.414C40.9701 147.141 42.1354 146.815 43.2031 146.438C44.2708 146.06 45.1562 145.572 45.8594 144.973C46.5625 144.374 46.9141 143.527 46.9141 142.434C46.9141 141.457 46.6081 140.676 45.9961 140.09C45.3841 139.491 44.3815 139.191 42.9883 139.191ZM46.9141 147.648C46.6276 148.065 46.2695 148.404 45.8398 148.664C45.4102 148.911 44.9935 149.159 44.5898 149.406C44.1992 149.641 43.8542 149.927 43.5547 150.266C43.2682 150.591 43.125 151.034 43.125 151.594C43.125 152.023 43.2422 152.414 43.4766 152.766C43.7109 153.104 44.1667 153.273 44.8438 153.273C45.4557 153.273 45.9505 153.039 46.3281 152.57C46.7188 152.089 46.9141 151.418 46.9141 150.559V147.648ZM85.4102 143.605H80.0391C79.6615 142.668 79.0755 141.926 78.2812 141.379C77.487 140.832 76.6602 140.559 75.8008 140.559C75.2148 140.559 74.7461 140.669 74.3945 140.891C74.056 141.099 73.8867 141.418 73.8867 141.848C73.8867 142.382 74.1862 142.785 74.7852 143.059C75.3841 143.319 76.1328 143.553 77.0312 143.762C77.9427 143.97 78.9258 144.224 79.9805 144.523C81.0352 144.81 82.0117 145.227 82.9102 145.773C83.8216 146.32 84.5768 147.056 85.1758 147.98C85.7747 148.905 86.0742 150.122 86.0742 151.633C86.0742 152.805 85.8138 153.827 85.293 154.699C84.7721 155.572 84.056 156.288 83.1445 156.848C82.2461 157.408 81.1849 157.824 79.9609 158.098C78.737 158.384 77.4154 158.527 75.9961 158.527C74.6159 158.527 73.3073 158.391 72.0703 158.117C70.8464 157.857 69.6745 157.408 68.5547 156.77L68.3594 158.117H63.2031V150.285H68.5547C69.0625 151.327 69.7005 152.134 70.4688 152.707C71.25 153.28 72.1094 153.566 73.0469 153.566C73.763 153.566 74.2708 153.436 74.5703 153.176C74.8828 152.902 75.0391 152.603 75.0391 152.277C75.0391 151.743 74.7396 151.333 74.1406 151.047C73.5417 150.747 72.7995 150.487 71.9141 150.266C71.0417 150.031 70.0781 149.777 69.0234 149.504C67.9688 149.217 66.9987 148.807 66.1133 148.273C65.2409 147.74 64.5052 147.023 63.9062 146.125C63.3073 145.214 63.0078 144.022 63.0078 142.551C63.0078 141.496 63.2422 140.533 63.7109 139.66C64.1927 138.788 64.8763 138.052 65.7617 137.453C66.6471 136.854 67.6888 136.398 68.8867 136.086C70.0846 135.76 71.3997 135.598 72.832 135.598C74.4336 135.598 75.8724 135.78 77.1484 136.145C78.4375 136.496 79.401 136.887 80.0391 137.316L80.2344 135.93H85.4102V143.605ZM101.621 129.23V136.477H107.461V143.723H101.621V149.719C101.621 150.578 101.738 151.281 101.973 151.828C102.22 152.375 102.721 152.648 103.477 152.648C103.893 152.648 104.225 152.57 104.473 152.414C104.733 152.245 104.935 152.03 105.078 151.77C105.234 151.496 105.332 151.19 105.371 150.852C105.41 150.5 105.43 150.122 105.43 149.719V146.809H107.676V149.953C107.676 151.216 107.539 152.395 107.266 153.488C107.005 154.582 106.549 155.526 105.898 156.32C105.26 157.115 104.388 157.746 103.281 158.215C102.174 158.684 100.781 158.918 99.1016 158.918C97.2396 158.918 95.7552 158.69 94.6484 158.234C93.5417 157.779 92.7018 157.154 92.1289 156.359C91.556 155.565 91.1784 154.621 90.9961 153.527C90.8268 152.434 90.7422 151.242 90.7422 149.953V143.723H87.6758V137.277C88.6523 137.277 89.5573 137.069 90.3906 136.652C91.237 136.223 91.9596 135.637 92.5586 134.895C93.1706 134.139 93.6393 133.28 93.9648 132.316C94.3034 131.353 94.4727 130.324 94.4727 129.23H101.621ZM126.875 159.602C126.432 160.565 125.977 161.594 125.508 162.688C125.039 163.781 124.421 164.79 123.652 165.715C122.897 166.652 121.921 167.427 120.723 168.039C119.525 168.651 117.962 168.957 116.035 168.957C114.681 168.957 113.496 168.781 112.48 168.43C111.465 168.091 110.625 167.629 109.961 167.043C109.297 166.457 108.802 165.78 108.477 165.012C108.164 164.257 108.008 163.482 108.008 162.688C108.008 161.112 108.49 159.868 109.453 158.957C110.43 158.059 111.641 157.609 113.086 157.609C113.932 157.609 114.642 157.733 115.215 157.98C115.788 158.228 116.257 158.547 116.621 158.938C116.986 159.328 117.24 159.758 117.383 160.227C117.526 160.695 117.598 161.138 117.598 161.555C117.598 162.492 117.363 163.208 116.895 163.703C116.439 164.198 115.885 164.51 115.234 164.641C115.286 164.693 115.371 164.732 115.488 164.758C115.645 164.836 115.964 164.875 116.445 164.875C116.901 164.875 117.305 164.758 117.656 164.523C118.021 164.302 118.346 164.022 118.633 163.684C118.932 163.358 119.186 163 119.395 162.609C119.616 162.232 119.792 161.88 119.922 161.555L119.961 161.438L111.641 145.402C111.51 145.103 111.367 144.849 111.211 144.641C111.068 144.432 110.885 144.263 110.664 144.133C110.456 143.99 110.189 143.885 109.863 143.82C109.551 143.755 109.154 143.723 108.672 143.723V136.477H124.355V143.723C123.535 143.723 122.995 143.846 122.734 144.094C122.487 144.328 122.467 144.699 122.676 145.207L125.039 150.246L127.324 145.207C127.533 144.751 127.507 144.393 127.246 144.133C126.999 143.859 126.465 143.723 125.645 143.723V136.477H136.523V143.723C135.56 143.723 134.883 143.859 134.492 144.133C134.115 144.393 133.789 144.816 133.516 145.402L126.875 159.602Z" fill="#171B1B"/>
<path d="M6.096 206.192C4.99733 206.192 4.048 205.952 3.248 205.472C2.45867 204.981 1.84533 204.304 1.408 203.44C0.970667 202.565 0.752 201.552 0.752 200.4C0.752 199.259 0.970667 198.256 1.408 197.392C1.84533 196.517 2.45867 195.835 3.248 195.344C4.048 194.853 4.99733 194.608 6.096 194.608C7.376 194.608 8.416 194.917 9.216 195.536C10.0267 196.144 10.544 196.997 10.768 198.096H9.28C9.10933 197.403 8.75733 196.848 8.224 196.432C7.70133 196.005 6.992 195.792 6.096 195.792C5.296 195.792 4.59733 195.979 4 196.352C3.40267 196.715 2.93867 197.243 2.608 197.936C2.288 198.619 2.128 199.44 2.128 200.4C2.128 201.36 2.288 202.187 2.608 202.88C2.93867 203.563 3.40267 204.091 4 204.464C4.59733 204.827 5.296 205.008 6.096 205.008C6.992 205.008 7.70133 204.805 8.224 204.4C8.75733 203.984 9.10933 203.435 9.28 202.752H10.768C10.544 203.829 10.0267 204.672 9.216 205.28C8.416 205.888 7.376 206.192 6.096 206.192ZM16.2356 206.192C15.489 206.192 14.817 206.021 14.2196 205.68C13.6223 205.339 13.1476 204.859 12.7956 204.24C12.4543 203.611 12.2836 202.875 12.2836 202.032C12.2836 201.189 12.4596 200.459 12.8116 199.84C13.1636 199.211 13.6383 198.725 14.2356 198.384C14.8436 198.043 15.521 197.872 16.2676 197.872C17.0143 197.872 17.6863 198.043 18.2836 198.384C18.881 198.725 19.3503 199.211 19.6916 199.84C20.0436 200.459 20.2196 201.189 20.2196 202.032C20.2196 202.875 20.0436 203.611 19.6916 204.24C19.3396 204.859 18.8596 205.339 18.2516 205.68C17.6543 206.021 16.9823 206.192 16.2356 206.192ZM16.2356 205.04C16.6943 205.04 17.121 204.928 17.5156 204.704C17.9103 204.48 18.2303 204.144 18.4756 203.696C18.721 203.248 18.8436 202.693 18.8436 202.032C18.8436 201.371 18.721 200.816 18.4756 200.368C18.241 199.92 17.9263 199.584 17.5316 199.36C17.137 199.136 16.7156 199.024 16.2676 199.024C15.809 199.024 15.3823 199.136 14.9876 199.36C14.593 199.584 14.273 199.92 14.0276 200.368C13.7823 200.816 13.6596 201.371 13.6596 202.032C13.6596 202.693 13.7823 203.248 14.0276 203.696C14.273 204.144 14.5876 204.48 14.9716 204.704C15.3663 204.928 15.7876 205.04 16.2356 205.04ZM22.0884 209.52V198.064H23.3044L23.4324 199.376C23.6884 198.992 24.051 198.645 24.5204 198.336C25.0004 198.027 25.6084 197.872 26.3444 197.872C27.1337 197.872 27.8217 198.053 28.4084 198.416C28.995 198.779 29.4484 199.275 29.7684 199.904C30.099 200.533 30.2644 201.248 30.2644 202.048C30.2644 202.848 30.099 203.563 29.7684 204.192C29.4484 204.811 28.9897 205.301 28.3924 205.664C27.8057 206.016 27.1177 206.192 26.3284 206.192C25.6777 206.192 25.0964 206.059 24.5844 205.792C24.083 205.525 23.699 205.152 23.4324 204.672V209.52H22.0884ZM26.1844 205.024C26.7177 205.024 27.187 204.901 27.5924 204.656C27.9977 204.4 28.3177 204.048 28.5524 203.6C28.787 203.152 28.9044 202.629 28.9044 202.032C28.9044 201.435 28.787 200.912 28.5524 200.464C28.3177 200.016 27.9977 199.669 27.5924 199.424C27.187 199.168 26.7177 199.04 26.1844 199.04C25.651 199.04 25.1817 199.168 24.7764 199.424C24.371 199.669 24.051 200.016 23.8164 200.464C23.5817 200.912 23.4644 201.435 23.4644 202.032C23.4644 202.629 23.5817 203.152 23.8164 203.6C24.051 204.048 24.371 204.4 24.7764 204.656C25.1817 204.901 25.651 205.024 26.1844 205.024ZM32.3586 209.52L34.3266 205.232H33.8626L30.7106 198.064H32.1666L34.7906 204.24L37.5746 198.064H38.9666L33.7666 209.52H32.3586ZM47.6596 206.192C46.7103 206.192 45.921 205.952 45.2916 205.472C44.6623 204.992 44.2943 204.341 44.1876 203.52H45.5636C45.649 203.936 45.8676 204.299 46.2196 204.608C46.5823 204.907 47.0676 205.056 47.6756 205.056C48.241 205.056 48.657 204.939 48.9236 204.704C49.1903 204.459 49.3236 204.171 49.3236 203.84C49.3236 203.36 49.1476 203.04 48.7956 202.88C48.4543 202.72 47.969 202.576 47.3396 202.448C46.913 202.363 46.4863 202.24 46.0596 202.08C45.633 201.92 45.2756 201.696 44.9876 201.408C44.6996 201.109 44.5556 200.72 44.5556 200.24C44.5556 199.547 44.8116 198.981 45.3236 198.544C45.8463 198.096 46.5503 197.872 47.4356 197.872C48.2783 197.872 48.9663 198.085 49.4996 198.512C50.0436 198.928 50.3583 199.525 50.4436 200.304H49.1156C49.0623 199.899 48.8863 199.584 48.5876 199.36C48.2996 199.125 47.9103 199.008 47.4196 199.008C46.9396 199.008 46.5663 199.109 46.2996 199.312C46.0436 199.515 45.9156 199.781 45.9156 200.112C45.9156 200.432 46.081 200.683 46.4116 200.864C46.753 201.045 47.2116 201.2 47.7876 201.328C48.2783 201.435 48.7423 201.568 49.1796 201.728C49.6276 201.877 49.9903 202.107 50.2676 202.416C50.5556 202.715 50.6996 203.152 50.6996 203.728C50.7103 204.443 50.4383 205.035 49.8836 205.504C49.3396 205.963 48.5983 206.192 47.6596 206.192ZM55.2596 206.192C54.5983 206.192 54.049 206.08 53.6116 205.856C53.1743 205.632 52.849 205.333 52.6356 204.96C52.4223 204.587 52.3156 204.181 52.3156 203.744C52.3156 202.933 52.625 202.309 53.2436 201.872C53.8623 201.435 54.705 201.216 55.7716 201.216H57.9156V201.12C57.9156 200.427 57.7343 199.904 57.3716 199.552C57.009 199.189 56.5236 199.008 55.9156 199.008C55.393 199.008 54.9396 199.141 54.5556 199.408C54.1823 199.664 53.9476 200.043 53.8516 200.544H52.4756C52.529 199.968 52.721 199.483 53.0516 199.088C53.393 198.693 53.8143 198.395 54.3156 198.192C54.817 197.979 55.3503 197.872 55.9156 197.872C57.025 197.872 57.857 198.171 58.4116 198.768C58.977 199.355 59.2596 200.139 59.2596 201.12V206H58.0596L57.9796 204.576C57.7556 205.024 57.425 205.408 56.9876 205.728C56.561 206.037 55.985 206.192 55.2596 206.192ZM55.4676 205.056C55.9796 205.056 56.417 204.923 56.7796 204.656C57.153 204.389 57.4356 204.043 57.6276 203.616C57.8196 203.189 57.9156 202.741 57.9156 202.272V202.256H55.8836C55.0943 202.256 54.5343 202.395 54.2036 202.672C53.8836 202.939 53.7236 203.275 53.7236 203.68C53.7236 204.096 53.873 204.432 54.1716 204.688C54.481 204.933 54.913 205.056 55.4676 205.056ZM62.0919 196.304C61.8252 196.304 61.6012 196.219 61.4199 196.048C61.2492 195.867 61.1639 195.643 61.1639 195.376C61.1639 195.12 61.2492 194.907 61.4199 194.736C61.6012 194.565 61.8252 194.48 62.0919 194.48C62.3479 194.48 62.5665 194.565 62.7479 194.736C62.9292 194.907 63.0199 195.12 63.0199 195.376C63.0199 195.643 62.9292 195.867 62.7479 196.048C62.5665 196.219 62.3479 196.304 62.0919 196.304ZM61.4199 206V198.064H62.7639V206H61.4199ZM68.704 206.192C67.9147 206.192 67.2213 206.011 66.624 205.648C66.0373 205.285 65.5787 204.789 65.248 204.16C64.928 203.531 64.768 202.816 64.768 202.016C64.768 201.216 64.9333 200.507 65.264 199.888C65.5947 199.259 66.0533 198.768 66.64 198.416C67.2267 198.053 67.92 197.872 68.72 197.872C69.3707 197.872 69.9467 198.005 70.448 198.272C70.9493 198.539 71.3387 198.912 71.616 199.392V194.48H72.96V206H71.744L71.616 204.688C71.36 205.072 70.992 205.419 70.512 205.728C70.032 206.037 69.4293 206.192 68.704 206.192ZM68.848 205.024C69.3813 205.024 69.8507 204.901 70.256 204.656C70.672 204.4 70.992 204.048 71.216 203.6C71.4507 203.152 71.568 202.629 71.568 202.032C71.568 201.435 71.4507 200.912 71.216 200.464C70.992 200.016 70.672 199.669 70.256 199.424C69.8507 199.168 69.3813 199.04 68.848 199.04C68.3253 199.04 67.856 199.168 67.44 199.424C67.0347 199.669 66.7147 200.016 66.48 200.464C66.256 200.912 66.144 201.435 66.144 202.032C66.144 202.629 66.256 203.152 66.48 203.6C66.7147 204.048 67.0347 204.4 67.44 204.656C67.856 204.901 68.3253 205.024 68.848 205.024ZM83.0333 206.192C82.2759 206.192 81.5933 206.021 80.9853 205.68C80.3879 205.328 79.9133 204.843 79.5613 204.224C79.2199 203.595 79.0493 202.864 79.0493 202.032C79.0493 201.2 79.2199 200.475 79.5613 199.856C79.9133 199.227 80.3879 198.741 80.9853 198.4C81.5933 198.048 82.2759 197.872 83.0333 197.872C83.9719 197.872 84.7613 198.117 85.4013 198.608C86.0519 199.099 86.4626 199.755 86.6333 200.576H85.2573C85.1506 200.085 84.8893 199.707 84.4733 199.44C84.0573 199.163 83.5719 199.024 83.0173 199.024C82.5693 199.024 82.1479 199.136 81.7533 199.36C81.3586 199.584 81.0386 199.92 80.7933 200.368C80.5479 200.816 80.4253 201.371 80.4253 202.032C80.4253 202.693 80.5479 203.248 80.7933 203.696C81.0386 204.144 81.3586 204.485 81.7533 204.72C82.1479 204.944 82.5693 205.056 83.0173 205.056C83.5719 205.056 84.0573 204.923 84.4733 204.656C84.8893 204.379 85.1506 203.989 85.2573 203.488H86.6333C86.4733 204.288 86.0679 204.939 85.4173 205.44C84.7666 205.941 83.9719 206.192 83.0333 206.192ZM92.1263 206.192C91.3796 206.192 90.7076 206.021 90.1103 205.68C89.5129 205.339 89.0383 204.859 88.6863 204.24C88.3449 203.611 88.1743 202.875 88.1743 202.032C88.1743 201.189 88.3503 200.459 88.7023 199.84C89.0543 199.211 89.5289 198.725 90.1263 198.384C90.7343 198.043 91.4116 197.872 92.1583 197.872C92.9049 197.872 93.5769 198.043 94.1743 198.384C94.7716 198.725 95.2409 199.211 95.5823 199.84C95.9343 200.459 96.1103 201.189 96.1103 202.032C96.1103 202.875 95.9343 203.611 95.5823 204.24C95.2303 204.859 94.7503 205.339 94.1423 205.68C93.5449 206.021 92.8729 206.192 92.1263 206.192ZM92.1263 205.04C92.5849 205.04 93.0116 204.928 93.4063 204.704C93.8009 204.48 94.1209 204.144 94.3663 203.696C94.6116 203.248 94.7343 202.693 94.7343 202.032C94.7343 201.371 94.6116 200.816 94.3663 200.368C94.1316 199.92 93.8169 199.584 93.4223 199.36C93.0276 199.136 92.6063 199.024 92.1583 199.024C91.6996 199.024 91.2729 199.136 90.8783 199.36C90.4836 199.584 90.1636 199.92 89.9183 200.368C89.6729 200.816 89.5503 201.371 89.5503 202.032C89.5503 202.693 89.6729 203.248 89.9183 203.696C90.1636 204.144 90.4783 204.48 90.8623 204.704C91.2569 204.928 91.6783 205.04 92.1263 205.04ZM104.923 198.064V206H103.707L103.627 204.576C103.371 205.077 103.003 205.472 102.523 205.76C102.043 206.048 101.499 206.192 100.891 206.192C99.9523 206.192 99.2003 205.909 98.635 205.344C98.0803 204.768 97.803 203.888 97.803 202.704V198.064H99.147V202.56C99.147 204.213 99.8297 205.04 101.195 205.04C101.878 205.04 102.443 204.795 102.891 204.304C103.35 203.803 103.579 203.093 103.579 202.176V198.064H104.923ZM107.135 206V194.48H108.479V206H107.135ZM114.282 206.192C113.493 206.192 112.799 206.011 112.202 205.648C111.615 205.285 111.157 204.789 110.826 204.16C110.506 203.531 110.346 202.816 110.346 202.016C110.346 201.216 110.511 200.507 110.842 199.888C111.173 199.259 111.631 198.768 112.218 198.416C112.805 198.053 113.498 197.872 114.298 197.872C114.949 197.872 115.525 198.005 116.026 198.272C116.527 198.539 116.917 198.912 117.194 199.392V194.48H118.538V206H117.322L117.194 204.688C116.938 205.072 116.57 205.419 116.09 205.728C115.61 206.037 115.007 206.192 114.282 206.192ZM114.426 205.024C114.959 205.024 115.429 204.901 115.834 204.656C116.25 204.4 116.57 204.048 116.794 203.6C117.029 203.152 117.146 202.629 117.146 202.032C117.146 201.435 117.029 200.912 116.794 200.464C116.57 200.016 116.25 199.669 115.834 199.424C115.429 199.168 114.959 199.04 114.426 199.04C113.903 199.04 113.434 199.168 113.018 199.424C112.613 199.669 112.293 200.016 112.058 200.464C111.834 200.912 111.722 201.435 111.722 202.032C111.722 202.629 111.834 203.152 112.058 203.6C112.293 204.048 112.613 204.4 113.018 204.656C113.434 204.901 113.903 205.024 114.426 205.024ZM128.611 206.192C127.854 206.192 127.171 206.021 126.563 205.68C125.966 205.328 125.491 204.843 125.139 204.224C124.798 203.595 124.627 202.864 124.627 202.032C124.627 201.2 124.798 200.475 125.139 199.856C125.491 199.227 125.966 198.741 126.563 198.4C127.171 198.048 127.854 197.872 128.611 197.872C129.55 197.872 130.339 198.117 130.979 198.608C131.63 199.099 132.041 199.755 132.211 200.576H130.835C130.729 200.085 130.467 199.707 130.051 199.44C129.635 199.163 129.15 199.024 128.595 199.024C128.147 199.024 127.726 199.136 127.331 199.36C126.937 199.584 126.617 199.92 126.371 200.368C126.126 200.816 126.003 201.371 126.003 202.032C126.003 202.693 126.126 203.248 126.371 203.696C126.617 204.144 126.937 204.485 127.331 204.72C127.726 204.944 128.147 205.056 128.595 205.056C129.15 205.056 129.635 204.923 130.051 204.656C130.467 204.379 130.729 203.989 130.835 203.488H132.211C132.051 204.288 131.646 204.939 130.995 205.44C130.345 205.941 129.55 206.192 128.611 206.192ZM137.704 206.192C136.958 206.192 136.286 206.021 135.688 205.68C135.091 205.339 134.616 204.859 134.264 204.24C133.923 203.611 133.752 202.875 133.752 202.032C133.752 201.189 133.928 200.459 134.28 199.84C134.632 199.211 135.107 198.725 135.704 198.384C136.312 198.043 136.99 197.872 137.736 197.872C138.483 197.872 139.155 198.043 139.752 198.384C140.35 198.725 140.819 199.211 141.16 199.84C141.512 200.459 141.688 201.189 141.688 202.032C141.688 202.875 141.512 203.611 141.16 204.24C140.808 204.859 140.328 205.339 139.72 205.68C139.123 206.021 138.451 206.192 137.704 206.192ZM137.704 205.04C138.163 205.04 138.59 204.928 138.984 204.704C139.379 204.48 139.699 204.144 139.944 203.696C140.19 203.248 140.312 202.693 140.312 202.032C140.312 201.371 140.19 200.816 139.944 200.368C139.71 199.92 139.395 199.584 139 199.36C138.606 199.136 138.184 199.024 137.736 199.024C137.278 199.024 136.851 199.136 136.456 199.36C136.062 199.584 135.742 199.92 135.496 200.368C135.251 200.816 135.128 201.371 135.128 202.032C135.128 202.693 135.251 203.248 135.496 203.696C135.742 204.144 136.056 204.48 136.44 204.704C136.835 204.928 137.256 205.04 137.704 205.04ZM143.557 206V198.064H144.773L144.853 199.488C145.109 198.987 145.477 198.592 145.957 198.304C146.437 198.016 146.981 197.872 147.589 197.872C148.528 197.872 149.274 198.16 149.829 198.736C150.394 199.301 150.677 200.176 150.677 201.36V206H149.333V201.504C149.333 199.851 148.65 199.024 147.285 199.024C146.602 199.024 146.032 199.275 145.573 199.776C145.125 200.267 144.901 200.971 144.901 201.888V206H143.557ZM154.845 206L151.837 198.064H153.245L155.629 204.704L158.029 198.064H159.405L156.397 206H154.845ZM161.717 196.304C161.45 196.304 161.226 196.219 161.045 196.048C160.874 195.867 160.789 195.643 160.789 195.376C160.789 195.12 160.874 194.907 161.045 194.736C161.226 194.565 161.45 194.48 161.717 194.48C161.973 194.48 162.192 194.565 162.373 194.736C162.554 194.907 162.645 195.12 162.645 195.376C162.645 195.643 162.554 195.867 162.373 196.048C162.192 196.219 161.973 196.304 161.717 196.304ZM161.045 206V198.064H162.389V206H161.045ZM164.729 206V198.064H165.945L166.025 199.488C166.281 198.987 166.649 198.592 167.129 198.304C167.609 198.016 168.153 197.872 168.761 197.872C169.7 197.872 170.446 198.16 171.001 198.736C171.566 199.301 171.849 200.176 171.849 201.36V206H170.505V201.504C170.505 199.851 169.822 199.024 168.457 199.024C167.774 199.024 167.204 199.275 166.745 199.776C166.297 200.267 166.073 200.971 166.073 201.888V206H164.729ZM177.533 206.192C176.776 206.192 176.093 206.021 175.485 205.68C174.888 205.328 174.413 204.843 174.061 204.224C173.72 203.595 173.549 202.864 173.549 202.032C173.549 201.2 173.72 200.475 174.061 199.856C174.413 199.227 174.888 198.741 175.485 198.4C176.093 198.048 176.776 197.872 177.533 197.872C178.472 197.872 179.261 198.117 179.901 198.608C180.552 199.099 180.963 199.755 181.133 200.576H179.757C179.651 200.085 179.389 199.707 178.973 199.44C178.557 199.163 178.072 199.024 177.517 199.024C177.069 199.024 176.648 199.136 176.253 199.36C175.859 199.584 175.539 199.92 175.293 200.368C175.048 200.816 174.925 201.371 174.925 202.032C174.925 202.693 175.048 203.248 175.293 203.696C175.539 204.144 175.859 204.485 176.253 204.72C176.648 204.944 177.069 205.056 177.517 205.056C178.072 205.056 178.557 204.923 178.973 204.656C179.389 204.379 179.651 203.989 179.757 203.488H181.133C180.973 204.288 180.568 204.939 179.917 205.44C179.267 205.941 178.472 206.192 177.533 206.192ZM186.578 206.192C185.821 206.192 185.149 206.021 184.562 205.68C183.976 205.328 183.512 204.843 183.17 204.224C182.84 203.605 182.674 202.875 182.674 202.032C182.674 201.2 182.84 200.475 183.17 199.856C183.501 199.227 183.96 198.741 184.546 198.4C185.144 198.048 185.832 197.872 186.61 197.872C187.378 197.872 188.04 198.048 188.594 198.4C189.16 198.741 189.592 199.195 189.89 199.76C190.189 200.325 190.338 200.933 190.338 201.584C190.338 201.701 190.333 201.819 190.322 201.936C190.322 202.053 190.322 202.187 190.322 202.336H184.002C184.034 202.944 184.173 203.451 184.418 203.856C184.674 204.251 184.989 204.549 185.362 204.752C185.746 204.955 186.152 205.056 186.578 205.056C187.133 205.056 187.597 204.928 187.97 204.672C188.344 204.416 188.616 204.069 188.786 203.632H190.114C189.901 204.368 189.49 204.981 188.882 205.472C188.285 205.952 187.517 206.192 186.578 206.192ZM186.578 199.008C185.938 199.008 185.368 199.205 184.866 199.6C184.376 199.984 184.093 200.549 184.018 201.296H189.01C188.978 200.581 188.733 200.021 188.274 199.616C187.816 199.211 187.25 199.008 186.578 199.008ZM1.104 238V226.48H2.448V231.424C2.71467 230.933 3.09333 230.555 3.584 230.288C4.07467 230.011 4.608 229.872 5.184 229.872C6.10133 229.872 6.83733 230.16 7.392 230.736C7.94667 231.301 8.224 232.176 8.224 233.36V238H6.896V233.504C6.896 231.851 6.22933 231.024 4.896 231.024C4.20267 231.024 3.62133 231.275 3.152 231.776C2.68267 232.267 2.448 232.971 2.448 233.888V238H1.104ZM13.8283 238.192C13.0709 238.192 12.3989 238.021 11.8123 237.68C11.2256 237.328 10.7616 236.843 10.4203 236.224C10.0896 235.605 9.92425 234.875 9.92425 234.032C9.92425 233.2 10.0896 232.475 10.4203 231.856C10.7509 231.227 11.2096 230.741 11.7963 230.4C12.3936 230.048 13.0816 229.872 13.8602 229.872C14.6283 229.872 15.2896 230.048 15.8443 230.4C16.4096 230.741 16.8416 231.195 17.1403 231.76C17.4389 232.325 17.5883 232.933 17.5883 233.584C17.5883 233.701 17.5829 233.819 17.5723 233.936C17.5723 234.053 17.5723 234.187 17.5723 234.336H11.2523C11.2843 234.944 11.4229 235.451 11.6683 235.856C11.9243 236.251 12.2389 236.549 12.6123 236.752C12.9963 236.955 13.4016 237.056 13.8283 237.056C14.3829 237.056 14.8469 236.928 15.2203 236.672C15.5936 236.416 15.8656 236.069 16.0363 235.632H17.3643C17.1509 236.368 16.7403 236.981 16.1323 237.472C15.5349 237.952 14.7669 238.192 13.8283 238.192ZM13.8283 231.008C13.1883 231.008 12.6176 231.205 12.1163 231.6C11.6256 231.984 11.3429 232.549 11.2682 233.296H16.2603C16.2283 232.581 15.9829 232.021 15.5243 231.616C15.0656 231.211 14.5003 231.008 13.8283 231.008ZM19.3696 238V230.064H20.5856L20.6976 231.584C20.943 231.061 21.3163 230.645 21.8176 230.336C22.319 230.027 22.9376 229.872 23.6736 229.872V231.28H23.3056C22.8363 231.28 22.4043 231.365 22.0096 231.536C21.615 231.696 21.3003 231.973 21.0656 232.368C20.831 232.763 20.7136 233.307 20.7136 234V238H19.3696ZM32.0565 238.192C31.3952 238.192 30.8458 238.08 30.4085 237.856C29.9712 237.632 29.6458 237.333 29.4325 236.96C29.2192 236.587 29.1125 236.181 29.1125 235.744C29.1125 234.933 29.4218 234.309 30.0405 233.872C30.6592 233.435 31.5018 233.216 32.5685 233.216H34.7125V233.12C34.7125 232.427 34.5312 231.904 34.1685 231.552C33.8058 231.189 33.3205 231.008 32.7125 231.008C32.1898 231.008 31.7365 231.141 31.3525 231.408C30.9792 231.664 30.7445 232.043 30.6485 232.544H29.2725C29.3258 231.968 29.5178 231.483 29.8485 231.088C30.1898 230.693 30.6112 230.395 31.1125 230.192C31.6138 229.979 32.1472 229.872 32.7125 229.872C33.8218 229.872 34.6538 230.171 35.2085 230.768C35.7738 231.355 36.0565 232.139 36.0565 233.12V238H34.8565L34.7765 236.576C34.5525 237.024 34.2218 237.408 33.7845 237.728C33.3578 238.037 32.7818 238.192 32.0565 238.192ZM32.2645 237.056C32.7765 237.056 33.2138 236.923 33.5765 236.656C33.9498 236.389 34.2325 236.043 34.4245 235.616C34.6165 235.189 34.7125 234.741 34.7125 234.272V234.256H32.6805C31.8912 234.256 31.3312 234.395 31.0005 234.672C30.6805 234.939 30.5205 235.275 30.5205 235.68C30.5205 236.096 30.6698 236.432 30.9685 236.688C31.2778 236.933 31.7098 237.056 32.2645 237.056ZM38.0728 238V230.064H39.2888L39.3688 231.488C39.6248 230.987 39.9928 230.592 40.4728 230.304C40.9528 230.016 41.4968 229.872 42.1048 229.872C43.0434 229.872 43.7901 230.16 44.3448 230.736C44.9101 231.301 45.1927 232.176 45.1927 233.36V238H43.8488V233.504C43.8488 231.851 43.1661 231.024 41.8008 231.024C41.1181 231.024 40.5474 231.275 40.0888 231.776C39.6408 232.267 39.4168 232.971 39.4168 233.888V238H38.0728ZM50.829 238.192C50.0397 238.192 49.3463 238.011 48.749 237.648C48.1623 237.285 47.7037 236.789 47.373 236.16C47.053 235.531 46.893 234.816 46.893 234.016C46.893 233.216 47.0583 232.507 47.389 231.888C47.7197 231.259 48.1783 230.768 48.765 230.416C49.3517 230.053 50.045 229.872 50.845 229.872C51.4957 229.872 52.0717 230.005 52.573 230.272C53.0743 230.539 53.4637 230.912 53.741 231.392V226.48H55.085V238H53.869L53.741 236.688C53.485 237.072 53.117 237.419 52.637 237.728C52.157 238.037 51.5543 238.192 50.829 238.192ZM50.973 237.024C51.5063 237.024 51.9757 236.901 52.381 236.656C52.797 236.4 53.117 236.048 53.341 235.6C53.5757 235.152 53.693 234.629 53.693 234.032C53.693 233.435 53.5757 232.912 53.341 232.464C53.117 232.016 52.797 231.669 52.381 231.424C51.9757 231.168 51.5063 231.04 50.973 231.04C50.4503 231.04 49.981 231.168 49.565 231.424C49.1597 231.669 48.8397 232.016 48.605 232.464C48.381 232.912 48.269 233.435 48.269 234.032C48.269 234.629 48.381 235.152 48.605 235.6C48.8397 236.048 49.1597 236.4 49.565 236.656C49.981 236.901 50.4503 237.024 50.973 237.024ZM64.5503 238.192C63.6009 238.192 62.8116 237.952 62.1823 237.472C61.5529 236.992 61.1849 236.341 61.0783 235.52H62.4543C62.5396 235.936 62.7583 236.299 63.1103 236.608C63.4729 236.907 63.9583 237.056 64.5663 237.056C65.1316 237.056 65.5476 236.939 65.8143 236.704C66.0809 236.459 66.2143 236.171 66.2143 235.84C66.2143 235.36 66.0383 235.04 65.6863 234.88C65.3449 234.72 64.8596 234.576 64.2303 234.448C63.8036 234.363 63.3769 234.24 62.9503 234.08C62.5236 233.92 62.1663 233.696 61.8783 233.408C61.5903 233.109 61.4463 232.72 61.4463 232.24C61.4463 231.547 61.7023 230.981 62.2143 230.544C62.7369 230.096 63.4409 229.872 64.3263 229.872C65.1689 229.872 65.8569 230.085 66.3903 230.512C66.9343 230.928 67.2489 231.525 67.3343 232.304H66.0063C65.9529 231.899 65.7769 231.584 65.4783 231.36C65.1903 231.125 64.8009 231.008 64.3103 231.008C63.8303 231.008 63.4569 231.109 63.1903 231.312C62.9343 231.515 62.8063 231.781 62.8063 232.112C62.8063 232.432 62.9716 232.683 63.3023 232.864C63.6436 233.045 64.1023 233.2 64.6783 233.328C65.1689 233.435 65.6329 233.568 66.0703 233.728C66.5183 233.877 66.8809 234.107 67.1583 234.416C67.4463 234.715 67.5903 235.152 67.5903 235.728C67.6009 236.443 67.3289 237.035 66.7743 237.504C66.2303 237.963 65.4889 238.192 64.5503 238.192ZM73.1263 238.192C72.3796 238.192 71.7076 238.021 71.1103 237.68C70.5129 237.339 70.0383 236.859 69.6863 236.24C69.3449 235.611 69.1743 234.875 69.1743 234.032C69.1743 233.189 69.3503 232.459 69.7023 231.84C70.0543 231.211 70.5289 230.725 71.1263 230.384C71.7343 230.043 72.4116 229.872 73.1583 229.872C73.9049 229.872 74.5769 230.043 75.1743 230.384C75.7716 230.725 76.2409 231.211 76.5823 231.84C76.9343 232.459 77.1103 233.189 77.1103 234.032C77.1103 234.875 76.9343 235.611 76.5823 236.24C76.2303 236.859 75.7503 237.339 75.1423 237.68C74.5449 238.021 73.8729 238.192 73.1263 238.192ZM73.1263 237.04C73.5849 237.04 74.0116 236.928 74.4063 236.704C74.8009 236.48 75.1209 236.144 75.3663 235.696C75.6116 235.248 75.7343 234.693 75.7343 234.032C75.7343 233.371 75.6116 232.816 75.3663 232.368C75.1316 231.92 74.8169 231.584 74.4223 231.36C74.0276 231.136 73.6063 231.024 73.1583 231.024C72.6996 231.024 72.2729 231.136 71.8783 231.36C71.4836 231.584 71.1636 231.92 70.9183 232.368C70.6729 232.816 70.5503 233.371 70.5503 234.032C70.5503 234.693 70.6729 235.248 70.9183 235.696C71.1636 236.144 71.4783 236.48 71.8623 236.704C72.2569 236.928 72.6783 237.04 73.1263 237.04ZM84.0294 228.304C83.7627 228.304 83.5387 228.219 83.3574 228.048C83.1867 227.867 83.1014 227.643 83.1014 227.376C83.1014 227.12 83.1867 226.907 83.3574 226.736C83.5387 226.565 83.7627 226.48 84.0294 226.48C84.2854 226.48 84.504 226.565 84.6854 226.736C84.8667 226.907 84.9574 227.12 84.9574 227.376C84.9574 227.643 84.8667 227.867 84.6854 228.048C84.504 228.219 84.2854 228.304 84.0294 228.304ZM83.3574 238V230.064H84.7014V238H83.3574ZM90.1775 238C89.4522 238 88.8815 237.824 88.4655 237.472C88.0495 237.12 87.8415 236.485 87.8415 235.568V231.2H86.4655V230.064H87.8415L88.0175 228.16H89.1855V230.064H91.5215V231.2H89.1855V235.568C89.1855 236.069 89.2868 236.411 89.4895 236.592C89.6922 236.763 90.0495 236.848 90.5615 236.848H91.3935V238H90.1775ZM101.063 238.192C100.274 238.192 99.5807 238.011 98.9834 237.648C98.3967 237.285 97.938 236.789 97.6074 236.16C97.2874 235.531 97.1274 234.816 97.1274 234.016C97.1274 233.216 97.2927 232.507 97.6234 231.888C97.954 231.259 98.4127 230.768 98.9994 230.416C99.586 230.053 100.279 229.872 101.079 229.872C101.73 229.872 102.306 230.005 102.807 230.272C103.309 230.539 103.698 230.912 103.975 231.392V226.48H105.319V238H104.103L103.975 236.688C103.719 237.072 103.351 237.419 102.871 237.728C102.391 238.037 101.789 238.192 101.063 238.192ZM101.207 237.024C101.741 237.024 102.21 236.901 102.615 236.656C103.031 236.4 103.351 236.048 103.575 235.6C103.81 235.152 103.927 234.629 103.927 234.032C103.927 233.435 103.81 232.912 103.575 232.464C103.351 232.016 103.031 231.669 102.615 231.424C102.21 231.168 101.741 231.04 101.207 231.04C100.685 231.04 100.215 231.168 99.7994 231.424C99.394 231.669 99.074 232.016 98.8394 232.464C98.6154 232.912 98.5034 233.435 98.5034 234.032C98.5034 234.629 98.6154 235.152 98.8394 235.6C99.074 236.048 99.394 236.4 99.7994 236.656C100.215 236.901 100.685 237.024 101.207 237.024ZM108.326 228.304C108.06 228.304 107.836 228.219 107.654 228.048C107.484 227.867 107.398 227.643 107.398 227.376C107.398 227.12 107.484 226.907 107.654 226.736C107.836 226.565 108.06 226.48 108.326 226.48C108.582 226.48 108.801 226.565 108.982 226.736C109.164 226.907 109.254 227.12 109.254 227.376C109.254 227.643 109.164 227.867 108.982 228.048C108.801 228.219 108.582 228.304 108.326 228.304ZM107.654 238V230.064H108.998V238H107.654ZM114.938 238.192C114.149 238.192 113.456 238.011 112.858 237.648C112.272 237.285 111.813 236.789 111.482 236.16C111.162 235.531 111.002 234.816 111.002 234.016C111.002 233.216 111.168 232.507 111.498 231.888C111.829 231.259 112.288 230.768 112.874 230.416C113.461 230.053 114.154 229.872 114.954 229.872C115.605 229.872 116.181 230.005 116.682 230.272C117.184 230.539 117.573 230.912 117.85 231.392V226.48H119.194V238H117.978L117.85 236.688C117.594 237.072 117.226 237.419 116.746 237.728C116.266 238.037 115.664 238.192 114.938 238.192ZM115.082 237.024C115.616 237.024 116.085 236.901 116.49 236.656C116.906 236.4 117.226 236.048 117.45 235.6C117.685 235.152 117.802 234.629 117.802 234.032C117.802 233.435 117.685 232.912 117.45 232.464C117.226 232.016 116.906 231.669 116.49 231.424C116.085 231.168 115.616 231.04 115.082 231.04C114.56 231.04 114.09 231.168 113.674 231.424C113.269 231.669 112.949 232.016 112.714 232.464C112.49 232.912 112.378 233.435 112.378 234.032C112.378 234.629 112.49 235.152 112.714 235.6C112.949 236.048 113.269 236.4 113.674 236.656C114.09 236.901 114.56 237.024 115.082 237.024ZM121.385 238V230.064H122.601L122.681 231.488C122.937 230.987 123.305 230.592 123.785 230.304C124.265 230.016 124.809 229.872 125.417 229.872C126.356 229.872 127.103 230.16 127.657 230.736C128.223 231.301 128.505 232.176 128.505 233.36V238H127.161V233.504C127.161 231.851 126.479 231.024 125.113 231.024C124.431 231.024 123.86 231.275 123.401 231.776C122.953 232.267 122.729 232.971 122.729 233.888V238H121.385ZM129.965 230.368L130.894 226.8H132.398L130.926 230.368H129.965ZM137.084 238C136.358 238 135.788 237.824 135.372 237.472C134.956 237.12 134.748 236.485 134.748 235.568V231.2H133.372V230.064H134.748L134.924 228.16H136.092V230.064H138.428V231.2H136.092V235.568C136.092 236.069 136.193 236.411 136.396 236.592C136.598 236.763 136.956 236.848 137.468 236.848H138.3V238H137.084ZM147.506 238C146.78 238 146.21 237.824 145.794 237.472C145.378 237.12 145.17 236.485 145.17 235.568V231.2H143.794V230.064H145.17L145.346 228.16H146.514V230.064H148.85V231.2H146.514V235.568C146.514 236.069 146.615 236.411 146.818 236.592C147.02 236.763 147.378 236.848 147.89 236.848H148.722V238H147.506ZM153.197 238.192C152.536 238.192 151.986 238.08 151.549 237.856C151.112 237.632 150.786 237.333 150.573 236.96C150.36 236.587 150.253 236.181 150.253 235.744C150.253 234.933 150.562 234.309 151.181 233.872C151.8 233.435 152.642 233.216 153.709 233.216H155.853V233.12C155.853 232.427 155.672 231.904 155.309 231.552C154.946 231.189 154.461 231.008 153.853 231.008C153.33 231.008 152.877 231.141 152.493 231.408C152.12 231.664 151.885 232.043 151.789 232.544H150.413C150.466 231.968 150.658 231.483 150.989 231.088C151.33 230.693 151.752 230.395 152.253 230.192C152.754 229.979 153.288 229.872 153.853 229.872C154.962 229.872 155.794 230.171 156.349 230.768C156.914 231.355 157.197 232.139 157.197 233.12V238H155.997L155.917 236.576C155.693 237.024 155.362 237.408 154.925 237.728C154.498 238.037 153.922 238.192 153.197 238.192ZM153.405 237.056C153.917 237.056 154.354 236.923 154.717 236.656C155.09 236.389 155.373 236.043 155.565 235.616C155.757 235.189 155.853 234.741 155.853 234.272V234.256H153.821C153.032 234.256 152.472 234.395 152.141 234.672C151.821 234.939 151.661 235.275 151.661 235.68C151.661 236.096 151.81 236.432 152.109 236.688C152.418 236.933 152.85 237.056 153.405 237.056ZM159.213 238V226.48H160.557V233.408L163.805 230.064H165.453L161.933 233.648L165.901 238H164.189L160.557 233.888V238H159.213ZM170.266 238.192C169.508 238.192 168.836 238.021 168.25 237.68C167.663 237.328 167.199 236.843 166.858 236.224C166.527 235.605 166.362 234.875 166.362 234.032C166.362 233.2 166.527 232.475 166.858 231.856C167.188 231.227 167.647 230.741 168.234 230.4C168.831 230.048 169.519 229.872 170.298 229.872C171.066 229.872 171.727 230.048 172.282 230.4C172.847 230.741 173.279 231.195 173.578 231.76C173.876 232.325 174.026 232.933 174.026 233.584C174.026 233.701 174.02 233.819 174.01 233.936C174.01 234.053 174.01 234.187 174.01 234.336H167.69C167.722 234.944 167.86 235.451 168.106 235.856C168.362 236.251 168.676 236.549 169.05 236.752C169.434 236.955 169.839 237.056 170.266 237.056C170.82 237.056 171.284 236.928 171.658 236.672C172.031 236.416 172.303 236.069 172.474 235.632H173.802C173.588 236.368 173.178 236.981 172.57 237.472C171.972 237.952 171.204 238.192 170.266 238.192ZM170.266 231.008C169.626 231.008 169.055 231.205 168.554 231.6C168.063 231.984 167.78 232.549 167.706 233.296H172.698C172.666 232.581 172.42 232.021 171.962 231.616C171.503 231.211 170.938 231.008 170.266 231.008ZM1.104 270V258.48H2.448V270H1.104ZM8.26688 270.192C7.52021 270.192 6.84821 270.021 6.25088 269.68C5.65354 269.339 5.17888 268.859 4.82688 268.24C4.48554 267.611 4.31488 266.875 4.31488 266.032C4.31488 265.189 4.49088 264.459 4.84288 263.84C5.19488 263.211 5.66954 262.725 6.26688 262.384C6.87488 262.043 7.55221 261.872 8.29888 261.872C9.04554 261.872 9.71754 262.043 10.3149 262.384C10.9122 262.725 11.3815 263.211 11.7229 263.84C12.0749 264.459 12.2509 265.189 12.2509 266.032C12.2509 266.875 12.0749 267.611 11.7229 268.24C11.3709 268.859 10.8909 269.339 10.2829 269.68C9.68554 270.021 9.01354 270.192 8.26688 270.192ZM8.26688 269.04C8.72554 269.04 9.15221 268.928 9.54688 268.704C9.94154 268.48 10.2615 268.144 10.5069 267.696C10.7522 267.248 10.8749 266.693 10.8749 266.032C10.8749 265.371 10.7522 264.816 10.5069 264.368C10.2722 263.92 9.95754 263.584 9.56288 263.36C9.16821 263.136 8.74688 263.024 8.29888 263.024C7.84021 263.024 7.41354 263.136 7.01888 263.36C6.62421 263.584 6.30421 263.92 6.05888 264.368C5.81354 264.816 5.69088 265.371 5.69088 266.032C5.69088 266.693 5.81354 267.248 6.05888 267.696C6.30421 268.144 6.61888 268.48 7.00288 268.704C7.39754 268.928 7.81888 269.04 8.26688 269.04ZM14.1196 270V262.064H15.3356L15.4156 263.488C15.6716 262.987 16.0396 262.592 16.5196 262.304C16.9996 262.016 17.5436 261.872 18.1516 261.872C19.0903 261.872 19.837 262.16 20.3916 262.736C20.957 263.301 21.2396 264.176 21.2396 265.36V270H19.8956V265.504C19.8956 263.851 19.213 263.024 17.8476 263.024C17.165 263.024 16.5943 263.275 16.1356 263.776C15.6876 264.267 15.4636 264.971 15.4636 265.888V270H14.1196ZM26.4119 267.504C25.9639 267.504 25.5532 267.445 25.1799 267.328L24.3799 268.08C24.4972 268.165 24.6412 268.24 24.8119 268.304C24.9932 268.357 25.2492 268.411 25.5799 268.464C25.9105 268.507 26.3745 268.555 26.9719 268.608C28.0385 268.683 28.8012 268.928 29.2599 269.344C29.7185 269.76 29.9479 270.304 29.9479 270.976C29.9479 271.435 29.8199 271.872 29.5639 272.288C29.3185 272.704 28.9345 273.045 28.4119 273.312C27.8999 273.579 27.2385 273.712 26.4279 273.712C25.7132 273.712 25.0785 273.616 24.5239 273.424C23.9692 273.243 23.5372 272.96 23.2279 272.576C22.9185 272.203 22.7639 271.728 22.7639 271.152C22.7639 270.853 22.8439 270.528 23.0039 270.176C23.1639 269.835 23.4625 269.509 23.8999 269.2C23.6652 269.104 23.4625 269.003 23.2919 268.896C23.1319 268.779 22.9825 268.651 22.8439 268.512V268.144L24.2039 266.8C23.5745 266.267 23.2599 265.563 23.2599 264.688C23.2599 264.165 23.3825 263.691 23.6279 263.264C23.8732 262.837 24.2305 262.501 24.6999 262.256C25.1692 262 25.7399 261.872 26.4119 261.872C26.8705 261.872 27.2865 261.936 27.6599 262.064H30.5879V263.072L29.0999 263.136C29.4092 263.584 29.5639 264.101 29.5639 264.688C29.5639 265.211 29.4359 265.685 29.1799 266.112C28.9345 266.539 28.5772 266.88 28.1079 267.136C27.6492 267.381 27.0839 267.504 26.4119 267.504ZM26.4119 266.4C26.9772 266.4 27.4252 266.256 27.7559 265.968C28.0972 265.669 28.2679 265.243 28.2679 264.688C28.2679 264.144 28.0972 263.728 27.7559 263.44C27.4252 263.141 26.9772 262.992 26.4119 262.992C25.8359 262.992 25.3772 263.141 25.0359 263.44C24.7052 263.728 24.5399 264.144 24.5399 264.688C24.5399 265.243 24.7052 265.669 25.0359 265.968C25.3772 266.256 25.8359 266.4 26.4119 266.4ZM24.0759 271.024C24.0759 271.557 24.2999 271.952 24.7479 272.208C25.1959 272.475 25.7559 272.608 26.4279 272.608C27.0892 272.608 27.6172 272.464 28.0119 272.176C28.4172 271.888 28.6199 271.504 28.6199 271.024C28.6199 270.683 28.4812 270.384 28.2039 270.128C27.9265 269.883 27.4145 269.739 26.6679 269.696C26.0812 269.653 25.5745 269.6 25.1479 269.536C24.7105 269.771 24.4225 270.021 24.2839 270.288C24.1452 270.565 24.0759 270.811 24.0759 271.024ZM32.568 270.08C32.3013 270.08 32.0773 269.995 31.896 269.824C31.7253 269.643 31.64 269.424 31.64 269.168C31.64 268.912 31.7253 268.699 31.896 268.528C32.0773 268.347 32.3013 268.256 32.568 268.256C32.824 268.256 33.0373 268.347 33.208 268.528C33.3893 268.699 33.48 268.912 33.48 269.168C33.48 269.424 33.3893 269.643 33.208 269.824C33.0373 269.995 32.824 270.08 32.568 270.08Z" fill="#333333" fill-opacity="0.496405"/>
</svg>
